<svg xmlns="http://www.w3.org/2000/svg" viewBox="0 0 500 500"><defs><style>.cls-1{isolation:isolate;}.cls-2{fill:#fefefe;}.cls-3{fill:#bfbfbf;}.cls-4{opacity:0.61;}.cls-5,.cls-7{fill:#e2e2e2;}.cls-5,.cls-6{stroke:#e2e2e2;stroke-width:3.57px;}.cls-109,.cls-110,.cls-111,.cls-112,.cls-114,.cls-115,.cls-116,.cls-117,.cls-5,.cls-51,.cls-52,.cls-53,.cls-57,.cls-6{stroke-linecap:round;}.cls-109,.cls-110,.cls-111,.cls-112,.cls-114,.cls-115,.cls-116,.cls-117,.cls-124,.cls-126,.cls-33,.cls-40,.cls-5,.cls-51,.cls-52,.cls-53,.cls-57,.cls-6{stroke-miterlimit:10;}.cls-109,.cls-110,.cls-111,.cls-112,.cls-114,.cls-115,.cls-116,.cls-117,.cls-124,.cls-126,.cls-33,.cls-40,.cls-51,.cls-52,.cls-53,.cls-57,.cls-6{fill:none;}.cls-8{fill:#e1e1e1;}.cls-9{fill:#f3f3f3;}.cls-10{opacity:0.33;}.cls-11{fill:#acacac;}.cls-12{fill:#848484;}.cls-13{fill:#5a5a5a;}.cls-14{fill:#a5a5a5;}.cls-15{fill:#dadada;}.cls-16{fill:#b9b9b9;}.cls-17{opacity:0.5;}.cls-18{fill:#d7d7d7;}.cls-19{fill:#d1d1d1;}.cls-20{fill:#cfcfcf;}.cls-21{fill:#c3c3c3;}.cls-22{fill:#d6d6d6;}.cls-23{fill:#aeaeae;}.cls-24{fill:#9a9a9a;}.cls-25{fill:#c8c8c8;}.cls-26{fill:#fff;}.cls-27{fill:#a7a7a7;}.cls-28{fill:#9c9c9c;}.cls-29{fill:#c7c7c7;}.cls-30{fill:#d2d2d2;}.cls-31{fill:#c1c1c1;}.cls-32{fill:#f4f4f4;}.cls-33{stroke:#e6e6e6;}.cls-34{fill:#dbdbdb;}.cls-35{fill:#cacaca;}.cls-36{fill:#b3b3b3;}.cls-37{fill:#b7b7b7;}.cls-38{fill:#bbb;}.cls-39{fill:#efefef;}.cls-40{stroke:#e7e7e7;}.cls-41{fill:#cecece;}.cls-42{fill:#d5d5d5;}.cls-43{fill:#cdcdcd;}.cls-44{fill:#c5c5c5;}.cls-45{fill:silver;}.cls-46{fill:#cbcbcb;}.cls-47{fill:#d9d9d9;}.cls-48{fill:#b8b8b8;}.cls-49{fill:#c4c4c4;}.cls-50{fill:#00203a;}.cls-51{stroke:#00203a;}.cls-51,.cls-57{stroke-width:1.09px;}.cls-110,.cls-111,.cls-115,.cls-116,.cls-52,.cls-53{stroke:#fff;}.cls-52,.cls-53{stroke-width:0.27px;}.cls-53{stroke-dasharray:1.09 1.09;}.cls-54{fill:#f7f8fb;}.cls-55{fill:#d5ddea;}.cls-56{fill:#52151d;}.cls-112,.cls-117,.cls-57{stroke:#f7f8fb;}.cls-58{fill:#6f6b7f;}.cls-59{fill:#a7a0bf;}.cls-60{fill:#ead6c1;}.cls-61{fill:#d7f2e0;}.cls-62{fill:#88d8a3;}.cls-63{fill:#39be66;}.cls-64{fill:#4e3f2e;}.cls-65{fill:#2b8e4d;}.cls-66{fill:#bea539;}.cls-67{fill:#7d5932;}.cls-68{fill:#5e4326;opacity:0.4;}.cls-69{fill:#008470;}.cls-70{fill:#66cfbf;}.cls-71{fill:#004a3f;}.cls-72{fill:#006354;}.cls-73,.cls-74{fill:#00b095;}.cls-74{opacity:0.39;mix-blend-mode:multiply;}.cls-75{fill:#3a3228;}.cls-76{fill:#2f3b43;}.cls-77{fill:#3f4f59;}.cls-78{fill:#25353f;}.cls-79{fill:#2b3e4a;}.cls-80{fill:#2e434f;}.cls-81{fill:#385261;}.cls-82{fill:#334957;}.cls-83{fill:#34424a;}.cls-84{fill:#4e626e;}.cls-85{fill:#536875;}.cls-86{fill:#324a57;}.cls-87{fill:#3a5463;}.cls-88{fill:#bf874b;}.cls-89{fill:#ccc56c;}.cls-90{fill:#d6af84;}.cls-91{fill:#e9c6a1;}.cls-92{fill:#631700;}.cls-93{fill:#f4efbd;}.cls-94{fill:#8f6538;}.cls-95{fill:#eee89c;}.cls-96{fill:#e8e07b;}.cls-97{fill:#d1d5d7;}.cls-98{fill:#868b8e;}.cls-99{fill:#abbcd5;}.cls-100{fill:#e4ebf4;}.cls-101{fill:#224171;}.cls-102{fill:#c9d6e9;}.cls-103{fill:#bdc9dd;}.cls-104{fill:#2d5796;}.cls-105{fill:#264a80;}.cls-106{fill:#e0b689;}.cls-107{fill:#808da0;}.cls-108{fill:#a3293a;}.cls-109,.cls-114{stroke:#7a1f2c;}.cls-109,.cls-112{stroke-width:1.02px;}.cls-110,.cls-111{stroke-width:0.26px;}.cls-111{stroke-dasharray:1.02 1.02;}.cls-113{fill:#7a1f2c;}.cls-115,.cls-116{stroke-width:0.25px;}.cls-116{stroke-dasharray:1 1;}.cls-118{fill:#1f2d36;}.cls-119{fill:#212f38;}.cls-120{fill:#38474f;}.cls-121{fill:#19252b;}.cls-122{fill:#0e161a;}.cls-123{fill:#541400;}.cls-124{stroke:#631700;}.cls-124,.cls-126{stroke-width:1.5px;}.cls-125{fill:#141f24;}.cls-126{stroke:#19252b;}</style></defs><title>clientSignup</title><g class="cls-1"><g id="BACKGROUND"><rect class="cls-2" width="500" height="500"/><ellipse class="cls-3" cx="254.16" cy="411.75" rx="190.97" ry="30.77"/><g class="cls-4"><path class="cls-5" d="M309.4,67.4a2.85,2.85,0,1,0-2.84,2.84A2.84,2.84,0,0,0,309.4,67.4Z"/><polyline class="cls-6" points="267.7 100.89 306.44 68.29 347.64 100.89"/><rect class="cls-7" x="300.84" y="255.56" width="13.66" height="88.31"/><path class="cls-7" d="M250.73,372a4.47,4.47,0,0,1-2-8.44L307.94,333l58.73,30.54a4.46,4.46,0,1,1-4.12,7.92l-54.63-28.41-55.15,28.42A4.39,4.39,0,0,1,250.73,372Z"/><rect class="cls-8" x="250" y="100" width="115.35" height="155.56" rx="9.5"/><rect class="cls-9" x="255.86" y="107.91" width="103.61" height="139.73" rx="8.54"/><g class="cls-10"><path class="cls-11" d="M307.67,140.59a19.66,19.66,0,0,0-4.87-13l-7.11,6.19a10.27,10.27,0,0,1-.51,14.11l6.63,6.69A19.66,19.66,0,0,0,307.67,140.59Z"/><path class="cls-12" d="M274.63,148,267,153.58a19.85,19.85,0,0,0,7.66,6.31l4-8.55A10.43,10.43,0,0,1,274.63,148Z"/><path class="cls-12" d="M295.93,130.74l7.11-6.19a20,20,0,0,0-6.82-5.06l-3.85,8.61A10.26,10.26,0,0,1,295.93,130.74Z"/><path class="cls-13" d="M285.87,152a10.19,10.19,0,0,1-4.35-1l-4,8.55a19.69,19.69,0,0,0,22.22-3.88L293.13,149A10.28,10.28,0,0,1,285.87,152Z"/><path class="cls-14" d="M285.87,127.8a10.38,10.38,0,0,1,4.21.9l3.84-8.6a19.64,19.64,0,0,0-15.73-.17l3.66,8.68A10.34,10.34,0,0,1,285.87,127.8Z"/><path class="cls-15" d="M273.61,139a10.33,10.33,0,0,1,6.31-9.51l-3.66-8.69A19.72,19.72,0,0,0,268,150.55l7.64-5.53A10.24,10.24,0,0,1,273.61,139Z"/></g><g class="cls-10"><rect class="cls-16" x="276.11" y="188.28" width="4.17" height="18.12" rx="1.17"/><rect class="cls-16" x="340.27" y="193.39" width="4.17" height="13" rx="1.17"/><rect class="cls-16" x="282.8" y="180.39" width="4.17" height="26.01" rx="1.17"/><rect class="cls-16" x="333.86" y="180.39" width="4.17" height="26.01" rx="1.17"/><rect class="cls-16" x="289.05" y="176.67" width="5.85" height="29.73" rx="1.17"/><rect class="cls-16" x="315.7" y="176.67" width="5.85" height="29.73" rx="1.17"/><rect class="cls-16" x="306.37" y="176.67" width="5.85" height="29.73" rx="1.17"/><rect class="cls-16" x="297.24" y="173.24" width="6.72" height="33.15" rx="1.17"/><rect class="cls-16" x="324.63" y="155.97" width="6.72" height="50.42" rx="1.17"/></g><g class="cls-17"><rect class="cls-18" x="28.03" y="193.86" width="87.99" height="178.65" rx="6.23"/><path class="cls-19" d="M111.11,194a6,6,0,0,1,.26,1.75V362a6.23,6.23,0,0,1-6.23,6.23H29.61a5.74,5.74,0,0,1-1.32-.15,6.22,6.22,0,0,0,6,4.48h75.53a6.23,6.23,0,0,0,6.23-6.23V200.1A6.23,6.23,0,0,0,111.11,194Z"/><rect class="cls-20" x="35.36" y="205.6" width="73.35" height="29.13" rx="6.04"/><rect class="cls-20" x="35.36" y="247.01" width="73.35" height="29.13" rx="6.04"/><rect class="cls-20" x="35.36" y="288.42" width="73.35" height="29.13" rx="6.04"/><rect class="cls-20" x="35.36" y="329.83" width="73.35" height="29.13" rx="6.04"/><path class="cls-21" d="M103.27,205.63a6,6,0,0,1,.81,3V225.7a6,6,0,0,1-6,6H36.77l-.6,0a6,6,0,0,0,5.23,3h61.27a6,6,0,0,0,6-6V211.64A6.05,6.05,0,0,0,103.27,205.63Z"/><path class="cls-21" d="M103.27,247a6,6,0,0,1,.81,3V267.1a6,6,0,0,1-6,6H36.77l-.6,0a6,6,0,0,0,5.23,3h61.27a6,6,0,0,0,6-6V253.05A6,6,0,0,0,103.27,247Z"/><path class="cls-21" d="M103.27,288.45a6,6,0,0,1,.81,3v17.05a6,6,0,0,1-6,6H36.77q-.3,0-.6,0a6,6,0,0,0,5.23,3h61.27a6,6,0,0,0,6-6V294.46A6,6,0,0,0,103.27,288.45Z"/><path class="cls-21" d="M103.27,329.86a6,6,0,0,1,.81,3v17.05a6,6,0,0,1-6,6H36.77l-.6,0a6,6,0,0,0,5.23,3h61.27a6,6,0,0,0,6-6V335.87A6,6,0,0,0,103.27,329.86Z"/><rect class="cls-22" x="40.01" y="208.99" width="60.25" height="19.25" rx="5.25"/><rect class="cls-22" x="40.01" y="250.32" width="60.25" height="19.25" rx="5.25"/><rect class="cls-22" x="40.01" y="291.65" width="60.25" height="19.25" rx="5.25"/><rect class="cls-22" x="40.01" y="332.99" width="60.25" height="19.25" rx="5.25"/><circle class="cls-23" cx="72.04" cy="220.17" r="4.63"/><path class="cls-23" d="M76.66,261.58A4.64,4.64,0,1,0,72,266.21,4.63,4.63,0,0,0,76.66,261.58Z"/><path class="cls-23" d="M76.65,303A4.64,4.64,0,1,0,72,307.62,4.63,4.63,0,0,0,76.65,303Z"/><path class="cls-23" d="M76.64,344.39A4.64,4.64,0,1,0,72,349,4.63,4.63,0,0,0,76.64,344.39Z"/><path class="cls-24" d="M73.94,216a4.54,4.54,0,0,1,.9,2.71,4.63,4.63,0,0,1-4.64,4.63,4.48,4.48,0,0,1-1.9-.42A4.62,4.62,0,1,0,73.94,216Z"/><path class="cls-24" d="M73.93,257.37a4.54,4.54,0,0,1,.9,2.71,4.62,4.62,0,0,1-6.54,4.21,4.62,4.62,0,1,0,5.64-6.92Z"/><path class="cls-24" d="M73.92,298.77a4.61,4.61,0,0,1-5.64,6.93,4.62,4.62,0,1,0,5.64-6.93Z"/><path class="cls-24" d="M73.91,340.18a4.57,4.57,0,0,1,.9,2.71,4.63,4.63,0,0,1-4.64,4.63,4.48,4.48,0,0,1-1.9-.42,4.62,4.62,0,1,0,5.64-6.92Z"/></g><g class="cls-17"><rect class="cls-18" x="396.52" y="193.86" width="87.99" height="178.65" rx="6.23"/><path class="cls-19" d="M479.6,194a6.33,6.33,0,0,1,.26,1.75V362a6.24,6.24,0,0,1-6.24,6.23H398.1a5.83,5.83,0,0,1-1.33-.15,6.24,6.24,0,0,0,6,4.48h75.53a6.23,6.23,0,0,0,6.23-6.23V200.1A6.23,6.23,0,0,0,479.6,194Z"/><rect class="cls-20" x="403.85" y="205.6" width="73.35" height="29.13" rx="6.04"/><rect class="cls-20" x="403.85" y="247.01" width="73.35" height="29.13" rx="6.04"/><rect class="cls-20" x="403.85" y="288.42" width="73.35" height="29.13" rx="6.04"/><rect class="cls-20" x="403.85" y="329.83" width="73.35" height="29.13" rx="6.04"/><path class="cls-21" d="M471.75,205.63a6,6,0,0,1,.81,3V225.7a6,6,0,0,1-6,6H405.26a5.74,5.74,0,0,1-.6,0,6,6,0,0,0,5.23,3h61.27a6,6,0,0,0,6-6V211.64A6.05,6.05,0,0,0,471.75,205.63Z"/><path class="cls-21" d="M471.75,247a5.92,5.92,0,0,1,.81,3V267.1a6,6,0,0,1-6,6H405.26a5.74,5.74,0,0,1-.6,0,6,6,0,0,0,5.23,3h61.27a6,6,0,0,0,6-6V253.05A6,6,0,0,0,471.75,247Z"/><path class="cls-21" d="M471.75,288.45a5.92,5.92,0,0,1,.81,3v17.05a6,6,0,0,1-6,6H405.26a5.74,5.74,0,0,1-.6,0,6,6,0,0,0,5.23,3h61.27a6,6,0,0,0,6-6V294.46A6,6,0,0,0,471.75,288.45Z"/><path class="cls-21" d="M471.75,329.86a5.89,5.89,0,0,1,.81,3v17.05a6,6,0,0,1-6,6H405.26a5.74,5.74,0,0,1-.6,0,6,6,0,0,0,5.23,3h61.27a6,6,0,0,0,6-6V335.87A6,6,0,0,0,471.75,329.86Z"/><rect class="cls-22" x="408.5" y="208.99" width="60.25" height="19.25" rx="5.25"/><rect class="cls-22" x="408.5" y="250.32" width="60.25" height="19.25" rx="5.25"/><rect class="cls-22" x="408.5" y="291.65" width="60.25" height="19.25" rx="5.25"/><rect class="cls-22" x="408.5" y="332.99" width="60.25" height="19.25" rx="5.25"/><circle class="cls-23" cx="440.52" cy="220.17" r="4.63"/><path class="cls-23" d="M445.15,261.58a4.64,4.64,0,1,0-4.64,4.63A4.63,4.63,0,0,0,445.15,261.58Z"/><path class="cls-23" d="M445.13,303a4.63,4.63,0,1,0-4.63,4.63A4.63,4.63,0,0,0,445.13,303Z"/><path class="cls-23" d="M445.12,344.39a4.63,4.63,0,1,0-4.63,4.63A4.63,4.63,0,0,0,445.12,344.39Z"/><path class="cls-24" d="M442.43,216a4.54,4.54,0,0,1,.89,2.71,4.63,4.63,0,0,1-4.63,4.63,4.52,4.52,0,0,1-1.91-.42,4.63,4.63,0,1,0,5.65-6.92Z"/><path class="cls-24" d="M442.42,257.37a4.62,4.62,0,0,1-3.74,7.34,4.68,4.68,0,0,1-1.91-.42,4.63,4.63,0,1,0,5.65-6.92Z"/><path class="cls-24" d="M442.41,298.77a4.62,4.62,0,0,1-5.65,6.93,4.63,4.63,0,1,0,5.65-6.93Z"/><path class="cls-24" d="M442.4,340.18a4.62,4.62,0,0,1-3.74,7.34,4.52,4.52,0,0,1-1.91-.42,4.62,4.62,0,1,0,5.65-6.92Z"/></g><g class="cls-17"><circle class="cls-25" cx="429.56" cy="78.84" r="30.27" transform="translate(114.42 381.2) rotate(-54.21)"/><circle class="cls-26" cx="429.56" cy="78.84" r="25.73" transform="translate(70.07 326.84) rotate(-45)"/><ellipse class="cls-12" cx="429.51" cy="56.15" rx="1.83" ry="5"/><ellipse class="cls-12" cx="429.51" cy="102.15" rx="1.83" ry="5"/><path class="cls-12" d="M452.51,81c-2.76,0-5-.82-5-1.84s2.24-1.83,5-1.83,5,.82,5,1.83S455.27,81,452.51,81Z"/><path class="cls-12" d="M406.51,81c-2.76,0-5-.82-5-1.84s2.24-1.83,5-1.83,5,.82,5,1.83S409.27,81,406.51,81Z"/><path class="cls-12" d="M447.07,64.19c-1.95,2-4.11,3-4.83,2.24s.29-2.88,2.24-4.84,4.12-3,4.83-2.24S449,62.23,447.07,64.19Z"/><path class="cls-12" d="M414.55,96.71c-2,2-4.12,3-4.84,2.24s.29-2.88,2.24-4.83,4.12-3,4.83-2.24S416.5,94.76,414.55,96.71Z"/><path class="cls-12" d="M444.48,96.71c-2-1.95-3-4.11-2.24-4.83s2.88.29,4.83,2.24,3,4.12,2.24,4.83S446.43,98.67,444.48,96.71Z"/><path class="cls-12" d="M412,64.19c-1.95-2-2.95-4.12-2.24-4.84s2.88.29,4.84,2.24,2.95,4.12,2.23,4.84S413.91,66.14,412,64.19Z"/><path class="cls-12" d="M432.46,78.84a2.9,2.9,0,1,0-2.9,2.9A2.9,2.9,0,0,0,432.46,78.84Z"/><polygon class="cls-12" points="428.21 78.06 440.51 69.32 429.48 79.61 428.21 78.06"/><polygon class="cls-12" points="421.85 72.49 429.52 78.1 428.17 79.58 421.85 72.49"/></g><g class="cls-17"><path class="cls-27" d="M192.34,110H84.12a4.39,4.39,0,0,1-4.39-4.4h0a4.39,4.39,0,0,1,4.39-4.39H192.34a4.39,4.39,0,0,1,4.39,4.39h0A4.39,4.39,0,0,1,192.34,110Z"/><path class="cls-27" d="M192.34,110H84.12a4.39,4.39,0,0,1-4.39-4.4h0a4.39,4.39,0,0,1,4.39-4.39H192.34a4.39,4.39,0,0,1,4.39,4.39h0A4.39,4.39,0,0,1,192.34,110Z"/><path class="cls-28" d="M166,106.11H104.18a4.92,4.92,0,0,1-4.92-4.92h71.63A4.92,4.92,0,0,1,166,106.11Z"/><rect class="cls-29" x="102.01" y="56.33" width="14" height="45.57" rx="2.94"/><rect class="cls-30" x="139.23" y="56.33" width="14" height="45.57" rx="2.94"/><rect class="cls-31" x="153.23" y="56.33" width="14" height="45.57" rx="2.94"/><rect class="cls-30" x="119.86" y="56.33" width="14" height="45.57" rx="2.94" transform="translate(-13.14 26.64) rotate(-11.4)"/><path class="cls-32" d="M112.39,101.91h-6.63a224,224,0,0,1,0-45.58h6.63A249.63,249.63,0,0,1,112.39,101.91Z"/><line class="cls-33" x1="106.85" y1="56.33" x2="106.85" y2="101.91"/><line class="cls-33" x1="109.01" y1="56.33" x2="109.01" y2="101.91"/><line class="cls-33" x1="111.14" y1="56.49" x2="111.14" y2="101.91"/><circle class="cls-34" cx="123.51" cy="63.36" r="3.12"/><polygon class="cls-34" points="117.92 70.19 131.61 67.27 132.54 71.89 118.82 74.67 117.92 70.19"/><polygon class="cls-35" points="120.64 83.75 134.33 80.82 135.26 85.45 121.54 88.23 120.64 83.75"/><rect class="cls-35" x="142.68" y="56.33" width="2.58" height="45.57"/><path class="cls-36" d="M160.23,94.65h0a2.58,2.58,0,0,0-2.58,2.59h0a2.58,2.58,0,0,0,2.58,2.58h0a2.58,2.58,0,0,0,2.58-2.58h0A2.58,2.58,0,0,0,160.23,94.65Z"/><rect class="cls-36" x="153.23" y="91.15" width="14" height="1.25"/><rect class="cls-37" x="153.23" y="87.61" width="14" height="2.44"/><rect class="cls-38" x="153.23" y="79.42" width="14" height="7.08"/></g><g class="cls-17"><path class="cls-30" d="M468,198.36H416.36A4.35,4.35,0,0,1,412,194h60.38A4.36,4.36,0,0,1,468,198.36Z"/><rect class="cls-21" x="441.3" y="150.04" width="14" height="45.57" rx="2.94"/><rect class="cls-39" x="444.23" y="150.04" width="8.13" height="45.57"/><line class="cls-40" x1="446.14" y1="150.04" x2="446.14" y2="195.61"/><line class="cls-40" x1="448.3" y1="150.04" x2="448.3" y2="195.61"/><line class="cls-40" x1="450.46" y1="150.04" x2="450.46" y2="195.61"/><rect class="cls-41" x="455.3" y="150.04" width="14" height="45.57" rx="2.94"/><path class="cls-31" d="M466.42,155.74h-8.13a1,1,0,0,1-1-1h0a2.35,2.35,0,0,1,2.35-2.35H465a2.35,2.35,0,0,1,2.35,2.35h0A1,1,0,0,1,466.42,155.74Z"/><rect class="cls-31" x="455.3" y="157.24" width="14" height="1"/><rect class="cls-31" x="455.3" y="159.28" width="14" height="3.42"/><path class="cls-31" d="M465.51,178.67c0,7.22-1.61,13.07-3.59,13.07s-3.6-5.85-3.6-13.07,1.61-13.06,3.6-13.06S465.51,171.46,465.51,178.67Z"/><rect class="cls-41" x="418.97" y="150.04" width="14" height="45.57" rx="2.94" transform="translate(732.38 515.52) rotate(-153.88)"/><path class="cls-31" d="M414.75,186.36l7.29,3.58a1,1,0,0,1,.45,1.29h0a2.34,2.34,0,0,1-3.14,1.08l-4.83-2.37a2.35,2.35,0,0,1-1.07-3.14h0A1,1,0,0,1,414.75,186.36Z"/><rect class="cls-31" x="412.33" y="185.88" width="14" height="1" transform="translate(713.81 538.31) rotate(-153.88)"/><rect class="cls-31" x="413.76" y="181.75" width="14" height="3.42" transform="translate(717.81 533.4) rotate(-153.88)"/><path class="cls-31" d="M425.66,166.16c3.17-6.47,7.19-11,9-10.14s.65,6.83-2.53,13.31-7.19,11-9,10.14S422.48,172.64,425.66,166.16Z"/></g><g class="cls-17"><path class="cls-27" d="M149.88,180H41.66a4.4,4.4,0,0,1-4.4-4.4h0a4.4,4.4,0,0,1,4.4-4.39H149.88a4.4,4.4,0,0,1,4.39,4.39h0A4.4,4.4,0,0,1,149.88,180Z"/><path class="cls-28" d="M129.61,176.65h-77a5.46,5.46,0,0,1-5.46-5.46h87.89A5.45,5.45,0,0,1,129.61,176.65Z"/><circle class="cls-42" cx="92.35" cy="158.61" r="13.29"/><circle class="cls-43" cx="92.35" cy="158.61" r="11.33" transform="translate(-33.63 25.13) rotate(-13.13)"/><circle class="cls-44" cx="92.35" cy="158.61" r="7.63" transform="translate(-33.97 25.46) rotate(-13.28)"/><path class="cls-43" d="M97.76,158.61A5.42,5.42,0,1,0,92.35,164,5.42,5.42,0,0,0,97.76,158.61Z"/><rect class="cls-29" x="49.68" y="126.08" width="11" height="48.33" rx="3.21"/><ellipse class="cls-45" cx="55.18" cy="133.17" rx="2.25" ry="4.56"/><rect class="cls-45" x="49.68" y="140.07" width="11" height="2.08"/><rect class="cls-45" x="49.68" y="143.15" width="11" height="1"/><rect class="cls-45" x="49.68" y="164.86" width="11" height="4.38"/><rect class="cls-30" x="60.68" y="136.82" width="14" height="37.58" rx="2.67"/><path class="cls-46" d="M63.35,136.82a2.66,2.66,0,0,0-2.67,2.67v32.24a2.66,2.66,0,0,0,2.67,2.67h1.33V136.82Z"/><path class="cls-47" d="M72,136.82H70.85V174.4H72a2.66,2.66,0,0,0,2.67-2.67V139.49A2.66,2.66,0,0,0,72,136.82Z"/><rect class="cls-31" x="104.31" y="135.41" width="14" height="37.58" rx="2.67" transform="matrix(-0.98, 0.2, -0.2, -0.98, 250.91, 283.35)"/><polygon class="cls-48" points="103.92 152.94 118.7 155.43 119.36 158.71 104.58 156.36 103.92 152.94"/><circle class="cls-48" cx="109.01" cy="141.7" r="2.75"/><polygon class="cls-48" points="102.71 146.95 117.5 149.49 118.28 153.32 103.48 150.79 102.71 146.95"/><rect class="cls-46" x="117.62" y="124.41" width="11" height="48.33" rx="3.21" transform="translate(273.19 269.87) rotate(168.6)"/><polygon class="cls-49" points="114.32 132.74 126.31 136.54 127.12 140.55 115.11 136.65 114.32 132.74"/><polygon class="cls-49" points="115.34 137.8 127.33 141.6 128.14 145.61 116.13 141.7 115.34 137.8"/><circle class="cls-49" cx="119.36" cy="129.99" r="1.69"/><polygon class="cls-49" points="128.67 148.23 118.66 153.57 119.73 158.91 129.63 153.03 128.67 148.23"/></g></g></g><g id="OBJECTS"><path class="cls-50" d="M363.75,377a14,14,0,0,1-1.89,6.69c-1.85,2.75-22,8.2-23.82,10.28s-2.14,5.45,12.31,6c12.84.51,16.72-1.17,23.22-4,5.78-2.5,1-13.34,1-13.34a52.57,52.57,0,0,1,.12-7C375,373.29,363.75,377,363.75,377Z"/><path class="cls-51" d="M366,376.7s.35,7.3-1.16,8.79-15.16,7.9-19,8.74"/><path class="cls-52" d="M370.22,375.51s0,.19,0,.54"/><path class="cls-53" d="M370.25,377.14c0,2.84-.18,8.57-1.87,10.75-2.42,3.12-16,8.23-21.12,9.64"/><path class="cls-52" d="M346.72,397.67l-.53.13"/><path class="cls-54" d="M346.65,399.74c1-2.9-.13-7-.89-9.19-3.85,1.39-7.05,2.63-7.72,3.4C336.41,395.84,336,398.78,346.65,399.74Z"/><path class="cls-55" d="M373.57,396c-6.5,2.82-10.38,4.5-23.22,4-10.57-.42-13.23-2.33-13.18-4.15-1.55,2.15-1.1,5.26,12.9,5.81,13.15.52,17.12-1.19,23.78-4.08,3.87-1.68,3.12-7,2.13-10.48C376.72,390.37,376.88,394.55,373.57,396Z"/><path class="cls-56" d="M349.15,396.08a.86.86,0,0,1-.66-.3.87.87,0,1,1,1.31-1.14.87.87,0,0,1-.09,1.22A.84.84,0,0,1,349.15,396.08Z"/><path class="cls-55" d="M349.14,394.48a.77.77,0,0,1,.56.25.74.74,0,0,1-.56,1.21.76.76,0,0,1-.55-.25.73.73,0,0,1,.08-1,.69.69,0,0,1,.47-.18m0-.27h0a1,1,0,0,0-.65.24,1,1,0,0,0,.65,1.76,1,1,0,0,0,.66-.24,1,1,0,0,0,.35-.69,1,1,0,0,0-.25-.73,1,1,0,0,0-.76-.34Z"/><path class="cls-57" d="M349.14,395.21a12.43,12.43,0,0,0-1.87-5.2"/><path class="cls-56" d="M351.34,395.17a.85.85,0,0,1-.65-.3.87.87,0,0,1,.08-1.23.91.91,0,0,1,.57-.21.87.87,0,0,1,.57,1.53A.91.91,0,0,1,351.34,395.17Z"/><path class="cls-55" d="M351.34,393.57a.75.75,0,0,1,.55.25.73.73,0,0,1-.07,1,.74.74,0,0,1-.48.18.75.75,0,0,1-.55-.25.73.73,0,0,1,.55-1.21m0-.27h0a1,1,0,0,0-1,.93,1,1,0,0,0,.24.73,1,1,0,0,0,1.42.1,1,1,0,0,0,.1-1.42,1,1,0,0,0-.76-.34Z"/><path class="cls-57" d="M351.34,394.3a12.36,12.36,0,0,0-1.88-5.2"/><path class="cls-56" d="M353.54,394.26a.87.87,0,0,1-.57-1.53.91.91,0,0,1,.57-.21.85.85,0,0,1,.65.3.87.87,0,0,1-.65,1.44Z"/><path class="cls-55" d="M353.54,392.66a.73.73,0,0,1,.55.25.73.73,0,0,1-.55,1.21.73.73,0,0,1-.55-.25.72.72,0,0,1,.07-1,.74.74,0,0,1,.48-.18m0-.27h0a1,1,0,0,0-.66.24,1,1,0,0,0,.66,1.76,1,1,0,0,0,.65-.24,1,1,0,0,0,.35-.69,1,1,0,0,0-1-1.07Z"/><path class="cls-57" d="M353.54,393.39a12.48,12.48,0,0,0-1.88-5.2"/><path class="cls-56" d="M355.73,393.35a.85.85,0,0,1-.65-.3.87.87,0,0,1,.09-1.23.86.86,0,0,1,.56-.21.89.89,0,0,1,.66.3.91.91,0,0,1,.21.63.85.85,0,0,1-.3.59A.87.87,0,0,1,355.73,393.35Z"/><path class="cls-55" d="M355.73,391.75a.7.7,0,0,1,.55.25.72.72,0,0,1-.07,1,.74.74,0,0,1-.48.18.76.76,0,0,1-.55-.25.73.73,0,0,1,.55-1.21m0-.27h0a1,1,0,0,0-.65.24,1,1,0,0,0-.1,1.42,1,1,0,0,0,.75.34,1,1,0,0,0,.66-.24,1,1,0,0,0,.1-1.42,1,1,0,0,0-.76-.34Z"/><path class="cls-57" d="M355.73,392.48a12.39,12.39,0,0,0-1.87-5.2"/><path class="cls-56" d="M358.66,392.12a.89.89,0,0,1-.55-.19.87.87,0,0,1,.55-1.54.92.92,0,0,1,.55.19.9.9,0,0,1,.31.59.85.85,0,0,1-.19.63A.83.83,0,0,1,358.66,392.12Z"/><path class="cls-55" d="M358.66,390.53a.73.73,0,0,1,0,1.46.73.73,0,0,1-.46-.17.72.72,0,0,1-.11-1,.74.74,0,0,1,.57-.27m0-.28h0a1,1,0,1,0,0,2,1,1,0,0,0,.78-.37,1,1,0,0,0-.15-1.41,1,1,0,0,0-.63-.23Z"/><path class="cls-57" d="M358.66,391.26a16.44,16.44,0,0,0-3.09-5.21"/><path class="cls-56" d="M361.69,390.46a.86.86,0,0,1-.39-.09.9.9,0,0,1-.44-.5.89.89,0,0,1,.05-.66.86.86,0,0,1,.78-.48.89.89,0,0,1,.39.09.85.85,0,0,1,.43.5.87.87,0,0,1-.05.67A.86.86,0,0,1,361.69,390.46Z"/><path class="cls-55" d="M361.69,388.87a.78.78,0,0,1,.33.07.74.74,0,0,1-.33,1.39.76.76,0,0,1-.33-.08.72.72,0,0,1-.32-1,.7.7,0,0,1,.65-.4m0-.28a1,1,0,0,0,0,2,1,1,0,0,0,.89-.55,1,1,0,0,0,.06-.77,1,1,0,0,0-.5-.58,1,1,0,0,0-.45-.11Z"/><path class="cls-57" d="M361.69,389.6s-2.13-3.47-4.45-5"/><path class="cls-56" d="M364.62,388.88l-.24,0a.88.88,0,0,1-.59-1.08.87.87,0,0,1,.83-.62,1,1,0,0,1,.25,0,.91.91,0,0,1,.52.42.89.89,0,0,1,.07.66A.87.87,0,0,1,364.62,388.88Z"/><path class="cls-55" d="M364.62,387.28l.21,0a.73.73,0,0,1-.2,1.43.76.76,0,0,1-.21,0,.72.72,0,0,1-.5-.9.74.74,0,0,1,.7-.53m0-.27h0a1,1,0,0,0-1,.72,1.08,1.08,0,0,0,.08.77,1,1,0,0,0,.6.48,1.35,1.35,0,0,0,.29,0,1,1,0,0,0,.28-2,.92.92,0,0,0-.29,0Z"/><path class="cls-57" d="M364.63,388s-3.26-3.95-5.81-5"/><path class="cls-56" d="M367.32,386.49a.87.87,0,0,1-.8-.93.86.86,0,0,1,.86-.8.85.85,0,0,1,.87.92.87.87,0,0,1-.87.81Z"/><path class="cls-55" d="M367.38,384.89h.05a.72.72,0,0,1,.68.77.73.73,0,0,1-.73.68h-.05a.73.73,0,0,1,.05-1.46m0-.27h0a1,1,0,0,0-1,.93,1,1,0,0,0,.25.73.92.92,0,0,0,.68.34h.07a1,1,0,0,0,.07-2Z"/><path class="cls-57" d="M367.38,385.62s-4.17-3.58-6.89-4.05"/><path class="cls-56" d="M368.37,383.17a.87.87,0,0,1-.05-1.73h0a.87.87,0,0,1,.1,1.73Z"/><path class="cls-55" d="M368.37,381.57a.74.74,0,0,1,.73.69.73.73,0,0,1-.69.77h0a.73.73,0,0,1,0-1.45h0m0-.27h-.06a1,1,0,0,0,.06,2h.05a1,1,0,0,0-.05-2Z"/><path class="cls-57" d="M368.37,382.3s-3.5-2.47-6.26-2.61"/><path class="cls-56" d="M368.71,379.55a.86.86,0,0,1-.32-1.67.71.71,0,0,1,.32-.07.86.86,0,0,1,.8.55.87.87,0,0,1-.48,1.13A.91.91,0,0,1,368.71,379.55Z"/><path class="cls-55" d="M368.71,378a.75.75,0,0,1,.68.46.73.73,0,0,1-.41.95.65.65,0,0,1-.27.05.73.73,0,0,1-.27-1.41.86.86,0,0,1,.27-.05m0-.27a.94.94,0,0,0-.37.07,1,1,0,0,0-.55.53,1,1,0,0,0,0,.77,1,1,0,0,0,.94.64,1.21,1.21,0,0,0,.37-.07,1,1,0,0,0,.55-.54,1,1,0,0,0,0-.77,1,1,0,0,0-.93-.63Z"/><path class="cls-57" d="M368.71,378.68s-3.2-1.39-5.85-.64"/><path class="cls-50" d="M392.86,376.11a14,14,0,0,1,.53,6.94c-.79,3.21-17.85,15.28-18.82,17.85s-.13,5.86,13.63,1.42c12.23-3.95,15.29-6.86,20.42-11.74,4.57-4.35-3.66-12.87-3.66-12.87a52.84,52.84,0,0,1-2.3-6.6C402.16,368.78,392.86,376.11,392.86,376.11Z"/><path class="cls-51" d="M394.88,375.08s2.84,6.73,1.94,8.65-11.52,12.64-14.88,14.76"/><path class="cls-52" d="M398.43,372.51s.08.18.2.5"/><path class="cls-53" d="M399,374c1,2.65,2.78,8.11,1.94,10.73-1.19,3.77-12.2,13.25-16.5,16.33"/><path class="cls-52" d="M384,401.4a4.39,4.39,0,0,1-.45.3"/><path class="cls-54" d="M384.65,403.37c0-3.07-2.55-6.54-4-8.32-3.13,2.63-5.71,4.9-6.07,5.85C373.69,403.24,374.29,406.15,384.65,403.37Z"/><path class="cls-55" d="M408.62,390.58c-5.13,4.88-8.19,7.79-20.42,11.74-10.07,3.25-13.22,2.36-13.81.64-.71,2.55.79,5.31,14.12,1,12.53-4,15.66-7,20.92-12,3.05-2.91.52-7.64-1.61-10.57C409.65,384.22,411.24,388.08,408.62,390.58Z"/><path class="cls-56" d="M385.43,399.13A.88.88,0,0,1,385,399a.85.85,0,0,1-.41-.52.84.84,0,0,1,.07-.66.88.88,0,0,1,.76-.45.91.91,0,0,1,.42.11.87.87,0,0,1-.42,1.63Z"/><path class="cls-55" d="M385.43,397.53a.73.73,0,0,1,.35.09.74.74,0,0,1,.29,1,.75.75,0,0,1-.64.38.73.73,0,0,1-.35-.09.72.72,0,0,1-.29-1,.73.73,0,0,1,.64-.38m0-.27h0a1,1,0,0,0-1,1.28,1,1,0,0,0,.48.6,1,1,0,0,0,.49.12,1,1,0,0,0,.48-1.88,1,1,0,0,0-.48-.12Z"/><path class="cls-57" d="M385.43,398.26a12.51,12.51,0,0,0-3.55-4.24"/><path class="cls-56" d="M387.18,397.52a.87.87,0,0,1,0-1.74.91.91,0,0,1,.42.11.85.85,0,0,1,.41.52.89.89,0,0,1-.07.66A.88.88,0,0,1,387.18,397.52Z"/><path class="cls-55" d="M387.18,395.92a.73.73,0,0,1,.35.09.74.74,0,0,1,.29,1,.75.75,0,0,1-.64.38.8.8,0,0,1-.36-.09.73.73,0,0,1,.36-1.37m0-.27h0a1,1,0,0,0-.88.51,1,1,0,0,0,.88,1.49,1,1,0,0,0,.88-.51,1,1,0,0,0,.08-.77,1,1,0,0,0-.48-.6,1,1,0,0,0-.48-.12Z"/><path class="cls-57" d="M387.18,396.65a12.47,12.47,0,0,0-3.56-4.24"/><path class="cls-56" d="M388.92,395.91a.84.84,0,0,1-.41-.11.87.87,0,0,1-.42-.52.88.88,0,0,1,.84-1.11.84.84,0,0,1,.41.11.87.87,0,0,1-.42,1.63Z"/><path class="cls-55" d="M388.93,394.31a.73.73,0,0,1,0,1.46.76.76,0,0,1-.35-.09.73.73,0,0,1,.36-1.37m0-.27h0a1,1,0,0,0-.88.51,1,1,0,0,0-.09.77,1,1,0,0,0,.48.6,1,1,0,0,0,.48.12,1,1,0,0,0,.49-1.88,1,1,0,0,0-.48-.12Z"/><path class="cls-57" d="M388.92,395a12.51,12.51,0,0,0-3.55-4.24"/><path class="cls-56" d="M390.67,394.29a.9.9,0,0,1-.42-.1.87.87,0,1,1,.84-1.52.86.86,0,0,1-.42,1.62Z"/><path class="cls-55" d="M390.67,392.7a.8.8,0,0,1,.36.09.73.73,0,0,1-.71,1.28.73.73,0,0,1,.35-1.37m0-.28h0a1,1,0,0,0-.87.52,1,1,0,1,0,1.84.21,1,1,0,0,0-.48-.6,1.05,1.05,0,0,0-.49-.13Z"/><path class="cls-57" d="M390.67,393.43a12.51,12.51,0,0,0-3.55-4.24"/><path class="cls-56" d="M393,392.14a.87.87,0,0,1-.28-.05.86.86,0,0,1,.28-1.68.9.9,0,0,1,.28,0,.88.88,0,0,1,.54,1.1A.86.86,0,0,1,393,392.14Z"/><path class="cls-55" d="M393,390.54a1,1,0,0,1,.24,0A.73.73,0,0,1,393,392a.67.67,0,0,1-.24,0,.73.73,0,0,1,.24-1.42m0-.27a1,1,0,0,0-.33,2,1,1,0,0,0,.33.06,1,1,0,0,0,.95-.68,1,1,0,0,0-.05-.77,1,1,0,0,0-.58-.51,1.13,1.13,0,0,0-.32-.05Z"/><path class="cls-57" d="M393,391.27a10.71,10.71,0,0,0-4-3.44"/><path class="cls-56" d="M395.17,389.53a.87.87,0,0,1,.1-1.73h.1a.87.87,0,0,1-.1,1.73Z"/><path class="cls-55" d="M395.27,387.94h.08a.74.74,0,0,1,.65.81.73.73,0,0,1-.73.65h-.08a.73.73,0,0,1,.08-1.45m0-.27h0a1,1,0,0,0-1,.88,1,1,0,0,0,.88,1.12h.12a1,1,0,0,0,1-.88,1,1,0,0,0-.88-1.12Z"/><path class="cls-57" d="M395.27,388.67a8.69,8.69,0,0,0-4.38-2.62"/><path class="cls-56" d="M397.48,387a.87.87,0,0,1-.05-1.73h0a.88.88,0,0,1,.92.81.87.87,0,0,1-.81.92Z"/><path class="cls-55" d="M397.48,385.44a.73.73,0,0,1,0,1.46h0a.73.73,0,0,1,0-1.45h0m0-.27h-.06a1,1,0,0,0,.06,2h.07a1,1,0,0,0-.07-2Z"/><path class="cls-57" d="M397.48,386.17a9.19,9.19,0,0,0-4.87-1.81"/><path class="cls-56" d="M399.25,383.85a.87.87,0,0,1-.83-.63.85.85,0,0,1,.07-.66.83.83,0,0,1,.52-.41.93.93,0,0,1,.24,0,.88.88,0,0,1,.83.63.85.85,0,0,1-.59,1.07A1,1,0,0,1,399.25,383.85Z"/><path class="cls-55" d="M399.25,382.25a.73.73,0,0,1,.2,1.43.69.69,0,0,1-.2,0,.73.73,0,0,1-.21-1.43l.21,0m0-.27a.86.86,0,0,0-.28,0,1,1,0,0,0-.6.48,1,1,0,0,0,.88,1.48.9.9,0,0,0,.28,0,1,1,0,0,0,.68-1.24,1,1,0,0,0-1-.72Z"/><path class="cls-57" d="M399.25,383a12.29,12.29,0,0,0-5.94-.9"/><path class="cls-56" d="M399,380.39a.86.86,0,0,1-.34-1.66.8.8,0,0,1,.34-.07.86.86,0,0,1,.8.52.88.88,0,0,1-.46,1.14A.8.8,0,0,1,399,380.39Z"/><path class="cls-55" d="M399,378.79a.74.74,0,0,1,.67.44.73.73,0,0,1-.38,1,.72.72,0,0,1-.29.06.73.73,0,0,1-.29-1.4.72.72,0,0,1,.29-.06m0-.27h0a1.1,1.1,0,0,0-.4.08,1,1,0,0,0-.53.55,1,1,0,0,0,0,.77,1,1,0,0,0,.92.61,1.1,1.1,0,0,0,.4-.08,1,1,0,0,0,.53-.56,1,1,0,0,0,0-.76,1,1,0,0,0-.92-.61Z"/><path class="cls-57" d="M399,379.52a9.74,9.74,0,0,0-5.47-.18"/><path class="cls-56" d="M398.1,376.87a.84.84,0,0,1-.64-.29.8.8,0,0,1-.22-.62.82.82,0,0,1,.29-.6.85.85,0,0,1,.57-.22.89.89,0,0,1,.65.29.88.88,0,0,1,.22.63.84.84,0,0,1-.29.59A.87.87,0,0,1,398.1,376.87Z"/><path class="cls-55" d="M398.1,375.28a.75.75,0,0,1,.55.24.73.73,0,0,1-.06,1,.7.7,0,0,1-.49.19.73.73,0,0,1-.48-1.28.74.74,0,0,1,.48-.18m0-.28h0a1,1,0,0,0-.75,1.67,1,1,0,0,0,.75.34,1,1,0,0,0,.67-.25,1,1,0,0,0,.33-.7,1,1,0,0,0-.25-.72,1,1,0,0,0-.75-.34Z"/><path class="cls-57" d="M398.1,376a7.36,7.36,0,0,0-4.79,1.3"/><path class="cls-58" d="M360.23,336.94h0c-5.85-1.11-7.89-4.58-7.13-8.62L360,264.58c.77-4,7-4,12.87-2.91h0c5.85,1.11,14.54,7,13.77,11.07l-16.78,58.62C369.11,335.4,366.07,338.06,360.23,336.94Z"/><path class="cls-59" d="M402.41,383.94h0c-3.6,1.4-9.76-.48-11-3.69l-20.52-46.38c-1.25-3.2,2.12-5.55,5.73-7h0c3.6-1.4,10.71-.4,12,2.8l16.74,46.56C406.56,379.47,406,382.54,402.41,383.94Z"/><path class="cls-58" d="M369.31,386.16h0c-3.85.41-8.45-2.5-8.82-5.92l-7.24-50.48c-.37-3.41,3.5-4.81,7.35-5.22h0c3.85-.41,10.45,2.41,10.82,5.83l4.06,49C375.85,382.83,373.16,385.75,369.31,386.16Z"/><path class="cls-59" d="M361.69,259.31h32.07a12,12,0,0,1,12,12v1.48a11.4,11.4,0,0,1-.27,2.5,7.08,7.08,0,0,1,.27,2l-17.19,54.35c0,6-3.91,8.44-9.86,8.44s-8.45-4.61-8.45-10.57l8.05-42.95a1.87,1.87,0,0,0-1.87-1.78L368.06,281c-12-7-7.66-7.67-9.4-14v-4.67A3,3,0,0,1,361.69,259.31Z"/><path class="cls-60" d="M331.6,204.6a60,60,0,0,1,4,10c1.06,3.39,1.87,6.85,2.6,10.35s1.46,7,2.13,10.55q.51,2.66.93,5.4c.28,1.84.54,3.68.74,5.71.09,1,.18,2,.19,3.43,0,.35,0,.72,0,1.19a11.38,11.38,0,0,1-.24,1.84c0,.19-.12.5-.19.74a9.87,9.87,0,0,1-.39,1.07c-.1.21-.19.4-.35.7l-.24.4-.13.2-.19.25a6,6,0,0,1-.39.49l-.2.23-.05.05-.19.18-.4.36-.35.3-.49.37c-.61.43-1.07.71-1.53,1s-.89.51-1.31.74c-.85.47-1.66.89-2.47,1.32-3.24,1.66-6.4,3.21-9.58,4.73L314,270.71c-1.54.76-3.09,1.51-4.58,2.28s-3,1.59-4,2.23l-.36.23a4.31,4.31,0,0,1-5.48-6.58c.84-.88,1.56-1.53,2.3-2.19s1.46-1.25,2.18-1.83c1.46-1.15,2.89-2.26,4.35-3.32,2.9-2.14,5.82-4.18,8.74-6.18l8.62-5.92c.69-.48,1.38-1,2-1.45.32-.23.63-.47.9-.68a7.82,7.82,0,0,0,.62-.54l0,0s-.07,0-.11.08l-.15.14L329,247l-.2.21c-.12.14-.23.28-.34.43l-.27.38-.2.33c-.13.25-.2.39-.27.55a7.62,7.62,0,0,0-.29.76c0,.14-.09.34-.11.42-.09.43-.09.5-.11.54s0,0,0-.13c-.06-.39-.18-1.11-.32-1.82-.6-3-1.55-6.3-2.43-9.57s-1.88-6.61-2.88-9.93-2-6.64-2.81-10a66.5,66.5,0,0,1-1.7-10.35v-.09a7.73,7.73,0,0,1,14.56-4.11Z"/><path class="cls-61" d="M320.3,225.51s.28,2.76.89,3.57,15.08-.79,17.1-4.3l-.71-3.94S320.64,225.66,320.3,225.51Z"/><path class="cls-62" d="M319.25,224.62s-8.48-19.72,2.47-24.27,15.64,17.37,16.47,19.86S320.56,228.26,319.25,224.62Z"/><path class="cls-63" d="M373.23,279.06,393,268.77c10.91-5.67,10.91-5.67,5.83-16.6L370.61,197c-3.05-5.88-8.31-8.68-15.58-8.59l-30.82,9.4c-6.26,3.25-3.74,12.5-.69,18.38l32.78,58.1C362.61,284.57,359.57,286.15,373.23,279.06Z"/><path class="cls-60" d="M367.29,194.75c4.06,7.22,6.46,15,8.74,22.82l3.53,11.67,1.74,5.81.88,2.85.43,1.34.13.44,0,.15,0,.08s0,0,0,0l.09.2.17.4.15.4.1.3.16.58c.08.31.14.62.19.9l.1.73.06.64c.06.79.06,1.46.05,2.12,0,1.27-.11,2.43-.22,3.55-.21,2.25-.51,4.38-.84,6.49-.67,4.22-1.54,8.33-2.5,12.43s-2.09,8.14-3.39,12.21c-.67,2-1.4,4.06-2.26,6.12-.43,1-.91,2.08-1.49,3.17-.29.54-.62,1.11-1,1.71a11.3,11.3,0,0,1-1.65,2,4.31,4.31,0,0,1-6.16-6c-.12.06,0-.15.12-.44s.24-.63.36-1c.26-.76.48-1.65.71-2.54.45-1.79.83-3.69,1.16-5.61.7-3.84,1.19-7.78,1.66-11.72s.76-7.9,1-11.78c.11-1.94.17-3.87.16-5.7,0-.91,0-1.79-.11-2.55,0-.37-.09-.72-.13-.94l0-.12s0,0,0,0a.5.5,0,0,0,0,.15,1.74,1.74,0,0,0,.05.22l.12.34.1.23.05.1s0,0,0,0l-.13-.27-.26-.55-.44-1-.65-1.51-1.22-2.9-2.34-5.73L360,223.09c-3-7.6-5.89-15.25-7.07-23.48a7.71,7.71,0,0,1,14.34-4.89Z"/><path class="cls-61" d="M357.05,216.17s.42,2.74,1.07,3.52,15-1.56,16.86-5.16l-.9-3.9S357.4,216.3,357.05,216.17Z"/><path class="cls-62" d="M356,215.33s-9.47-19.26,1.23-24.36,16.5,16.55,17.46,19S357.45,218.9,356,215.33Z"/><path class="cls-60" d="M304.75,269.65h0a7.46,7.46,0,0,1-4.94,9.28l-3.09.94a7.45,7.45,0,0,1-9.28-4.94h0a7.46,7.46,0,0,1,4.94-9.28l3.09-.94A7.46,7.46,0,0,1,304.75,269.65Z"/><path class="cls-60" d="M300.14,277h0a1.73,1.73,0,0,1-1.16,2.17l-11.13,3.4a1.74,1.74,0,0,1-2.17-1.16h0a1.74,1.74,0,0,1,1.16-2.17l11.12-3.4A1.75,1.75,0,0,1,300.14,277Z"/><path class="cls-60" d="M295.44,274.8h0a1.73,1.73,0,0,1-1.16,2.17l-11.13,3.4a1.74,1.74,0,0,1-2.17-1.16h0a1.74,1.74,0,0,1,1.16-2.17l11.12-3.4A1.75,1.75,0,0,1,295.44,274.8Z"/><path class="cls-60" d="M292.58,272h0a1.74,1.74,0,0,1-1.16,2.17l-11.12,3.4a1.75,1.75,0,0,1-2.18-1.16h0a1.75,1.75,0,0,1,1.16-2.18l11.13-3.39A1.74,1.74,0,0,1,292.58,272Z"/><path class="cls-60" d="M293.47,268.11h0a1.75,1.75,0,0,1-1.16,2.18l-11.13,3.39a1.75,1.75,0,0,1-2.17-1.15h0a1.75,1.75,0,0,1,1.16-2.18L291.29,267A1.75,1.75,0,0,1,293.47,268.11Z"/><path class="cls-60" d="M298.58,266.13h0a1.57,1.57,0,0,1-1.63,1.5l-8.72-.38a1.56,1.56,0,0,1-1.5-1.63h0a1.57,1.57,0,0,1,1.63-1.5l8.72.37A1.57,1.57,0,0,1,298.58,266.13Z"/><path class="cls-60" d="M341.51,200.75a7.92,7.92,0,0,0,3.4-9.56,20.66,20.66,0,0,1-.89-3.61c-.93-5.74.11-12.09,1.32-22.11s-9.45-22.73-26.58-17.46-7.52,41.27-3.7,44,13.27-1.28,13.27-1.28,1.81,3.43,1.68,4.88C329.94,196.51,333.24,205.49,341.51,200.75Z"/><path class="cls-64" d="M340.17,167.13a9.37,9.37,0,0,1-.88,5.51,9,9,0,0,0-.24,6.34l.4-.89s.42,3,1.46,3.59l.13-1.44s-.52,2.13,2.36,2.64c0,0-2-14.55-3.23-15.75"/><path class="cls-64" d="M343.74,178.29l1,0s-.5-1.09-.8-1.82.55-5,.55-5l1,1.74c.74-1.67-.66-5.77-.66-7.5-3.57-1.32-4-2.23-6.38-5.15,1.07,1.29-1.39-1.44-1.64-1.69-.65-.66-1.5-1.79-2.19-2.34-2.35-1.86-5.06-2.47-8.15-3.17-5.6-1.26-8.44-1.47-12.34.75a29.2,29.2,0,0,0-8.59,7.9c.67.17,1.05.28.88.44a2.66,2.66,0,0,1-1.54.46c-.11.15-.47-2.32-.57-2.16,6.09,1.55,17.28-3.67,18.5-.76.92,2.18,4.15,5.42,5.92,5.44a1.6,1.6,0,0,1,1.55,1.31l1.3,6.82c1.65,2.43,2-2.8,2.59-6.42s5.6-3.5,6.12.72,1,12.42,1.62,13,.13,3.41.13,3.41l.85-1.23-.39,2.14,1-1.42a5.22,5.22,0,0,1,.91,2.49c1.14-1.3-.3-3.25-.3-3.25l1.77-.07C344.27,182,343.74,178.29,343.74,178.29Z"/><path class="cls-64" d="M330.18,165.6s-1.2,2.15-.74,3.32l.49-.59a8.31,8.31,0,0,0,.45,3.37l.74-1.4s.39,3.82-.41,4.5a3.22,3.22,0,0,0,1.3-2.2C332.4,170.88,332.11,165.84,330.18,165.6Z"/><path class="cls-65" d="M309.64,155.38s6.48-11.5,20.05-9.32c16.37,2.62,16.8,18.68,15.29,21.43C345,167.49,321,157.33,309.64,155.38Z"/><path class="cls-66" d="M330,161.58s-22.43-10.8-30.2-5.8-2.56,12.35,9,13l.57-5.9S308.65,159.64,330,161.58Z"/><path class="cls-67" d="M208.34,172.34a66.35,66.35,0,0,1,3.26,10c.87,3.37,1.52,6.79,2.14,10.2s1.3,6.8,2,10.14,1.43,6.71,2.26,9.62c.2.69.42,1.39.55,1.75,0,.09.05.15,0,.13s-.07-.09-.34-.42a4,4,0,0,0-.3-.32,6.07,6.07,0,0,0-.6-.55c-.13-.1-.26-.2-.5-.36l-.33-.2-.41-.22-.5-.22-.27-.1-.1,0-.2,0-.13,0,0,0c.13,0,.46.11.8.18l1.12.2c.78.13,1.62.24,2.45.35l10.39,1.28c3.51.42,7,.89,10.6,1.45,1.78.27,3.57.6,5.39.95.91.17,1.83.38,2.78.61s1.9.49,3,.89a4.32,4.32,0,0,1-1.82,8.37l-.44-.05c-1.17-.11-2.94-.12-4.57-.13s-3.4.05-5.12.08l-10.46.31c-3.52.12-7,.21-10.67.22-.92,0-1.84,0-2.81,0l-1.5-.06a15.44,15.44,0,0,1-1.81-.17l-.61-.1-.45-.1-.52-.14-.25-.07-.07,0-.28-.11-.58-.25-.28-.15-.2-.11-.4-.25a6.16,6.16,0,0,1-.63-.46,10.44,10.44,0,0,1-.85-.76l-.51-.57a12.15,12.15,0,0,1-1.06-1.53c-.24-.39-.42-.73-.58-1-.63-1.22-1-2.17-1.41-3.13-.76-1.89-1.38-3.64-2-5.4s-1.15-3.49-1.67-5.22c-1-3.47-2-6.91-3-10.35s-1.84-6.88-2.47-10.38a59.84,59.84,0,0,1-1.07-10.67,7.73,7.73,0,0,1,14.81-3.07Z"/><path class="cls-68" d="M249.44,222.73,239,223c-3.52.12-7,.21-10.68.22-.92,0-1.83,0-2.8,0-.48,0-1,0-1.51-.05s-1.07-.07-1.81-.18l-.6-.1a3.54,3.54,0,0,1-.45-.1l-.52-.14-.26-.07-.06,0-.28-.11-.58-.25-.28-.15-.21-.11-.39-.25a6.61,6.61,0,0,1-.64-.45,9.85,9.85,0,0,1-.84-.77c-.18-.18-.39-.42-.51-.57a13.35,13.35,0,0,1-1.07-1.52c-.24-.4-.42-.73-.58-1-.62-1.23-1-2.18-1.41-3.14-.76-1.88-1.38-3.64-2-5.4s-1.14-3.49-1.66-5.22c-1.05-3.47-2-6.91-3-10.35a106.46,106.46,0,0,1-2.47-10.38,60.78,60.78,0,0,1-1.08-10.67,7.78,7.78,0,0,1,1.06-3.86,7.71,7.71,0,0,0-10.9,7A59.84,59.84,0,0,0,194.57,186c.63,3.5,1.5,6.94,2.47,10.38s1.93,6.88,3,10.35c.52,1.73,1.07,3.47,1.67,5.22s1.22,3.51,2,5.4c.39,1,.78,1.91,1.41,3.13.16.31.34.65.58,1a12.15,12.15,0,0,0,1.06,1.53l.51.57a10.44,10.44,0,0,0,.85.76,6.16,6.16,0,0,0,.63.46l.4.25.2.11.28.15.58.25.28.11.07,0,.25.07.52.14.45.1.61.1a15.44,15.44,0,0,0,1.81.17l1.5.06c1,0,1.89,0,2.81,0,3.64,0,7.15-.1,10.67-.22l10.46-.31c1.72,0,3.44-.08,5.12-.08s3.4,0,4.57.13l.44.05a4.32,4.32,0,0,0,4.47-2.88c.05-.14.07-.29.11-.44C252.7,222.65,251.07,222.7,249.44,222.73Z"/><path class="cls-69" d="M213.16,188.67s1,2.58.86,3.58-13.75,6.25-17.15,4.07l-1.2-3.82S212.93,189,213.16,188.67Z"/><path class="cls-70" d="M213.68,187.39S212.12,166,200.31,167s-5.88,22.62-5.47,25.22S214.2,191.23,213.68,187.39Z"/><path class="cls-67" d="M245.56,220.05h0a7.47,7.47,0,0,0,7.71,7.15l3.22-.12a7.46,7.46,0,0,0,7.15-7.71h0a7.45,7.45,0,0,0-7.71-7.15l-3.22.12A7.46,7.46,0,0,0,245.56,220.05Z"/><path class="cls-67" d="M252.33,225.49h0a1.76,1.76,0,0,0,1.81,1.68l11.62-.44a1.76,1.76,0,0,0,1.68-1.81h0a1.74,1.74,0,0,0-1.81-1.67l-11.62.43A1.75,1.75,0,0,0,252.33,225.49Z"/><path class="cls-67" d="M256.05,221.86h0a1.74,1.74,0,0,0,1.8,1.68l11.63-.44a1.75,1.75,0,0,0,1.67-1.81h0a1.74,1.74,0,0,0-1.81-1.67l-11.62.44A1.73,1.73,0,0,0,256.05,221.86Z"/><path class="cls-67" d="M257.84,218.31h0a1.73,1.73,0,0,0,1.8,1.67l11.63-.43a1.74,1.74,0,0,0,1.67-1.81h0a1.75,1.75,0,0,0-1.8-1.68l-11.63.44A1.75,1.75,0,0,0,257.84,218.31Z"/><path class="cls-67" d="M255.72,214.9h0a1.75,1.75,0,0,0,1.8,1.68l11.63-.44a1.75,1.75,0,0,0,1.67-1.81h0a1.73,1.73,0,0,0-1.8-1.67l-11.63.43A1.74,1.74,0,0,0,255.72,214.9Z"/><path class="cls-67" d="M250.23,214.7h0a1.58,1.58,0,0,0,2,.88l8.12-3.21a1.58,1.58,0,0,0,.88-2h0a1.58,1.58,0,0,0-2-.88l-8.13,3.21A1.59,1.59,0,0,0,250.23,214.7Z"/><path class="cls-50" d="M197.56,377.75a14,14,0,0,0,1.89,6.69c1.85,2.74,22,8.19,23.82,10.28s2.14,5.45-12.31,6c-12.85.51-16.72-1.17-23.22-4-5.78-2.51-1-13.34-1-13.34a52.57,52.57,0,0,0-.12-7C186.3,374.06,197.56,377.75,197.56,377.75Z"/><path class="cls-51" d="M195.31,377.47s-.35,7.3,1.16,8.79,15.16,7.9,19.05,8.73"/><path class="cls-52" d="M191.09,376.28s0,.19,0,.54"/><path class="cls-53" d="M191.06,377.91c0,2.83.18,8.57,1.87,10.75,2.42,3.12,16,8.23,21.12,9.64"/><path class="cls-52" d="M214.58,398.44l.53.12"/><path class="cls-54" d="M214.66,400.51c-1-2.9.13-7,.89-9.19,3.85,1.39,7,2.62,7.72,3.4C224.9,396.61,225.33,399.55,214.66,400.51Z"/><path class="cls-55" d="M187.74,396.75c6.5,2.82,10.37,4.5,23.22,4,10.57-.42,13.22-2.33,13.18-4.15,1.55,2.15,1.1,5.26-12.9,5.81-13.15.52-17.12-1.2-23.78-4.08-3.87-1.68-3.12-7-2.13-10.48C184.59,391.14,184.42,395.31,187.74,396.75Z"/><path class="cls-56" d="M212.16,396.84a.83.83,0,0,1-.56-.21.87.87,0,0,1,.56-1.52.91.91,0,0,1,.57.21.87.87,0,0,1,.3.6.91.91,0,0,1-.21.63.88.88,0,0,1-.66.29Z"/><path class="cls-55" d="M212.16,395.25a.74.74,0,0,1,.56,1.21.77.77,0,0,1-.56.25.69.69,0,0,1-.47-.18.73.73,0,0,1,.47-1.28m0-.28a1,1,0,0,0-.75.35,1,1,0,0,0-.25.73,1,1,0,0,0,.35.69,1,1,0,0,0,.65.24,1,1,0,0,0,.76-.34,1,1,0,0,0-.1-1.42,1,1,0,0,0-.66-.25Z"/><path class="cls-57" d="M212.16,396a12.48,12.48,0,0,1,1.88-5.2"/><path class="cls-56" d="M210,395.93a.86.86,0,0,1-.57-.21.87.87,0,0,1,.57-1.52.91.91,0,0,1,.57.21.87.87,0,0,1,.08,1.23.84.84,0,0,1-.65.29Z"/><path class="cls-55" d="M210,394.34a.73.73,0,0,1,.55,1.21.76.76,0,0,1-.55.25.73.73,0,0,1-.55-1.21.7.7,0,0,1,.55-.25m0-.28a1,1,0,0,0-.76.35,1,1,0,0,0-.24.73,1,1,0,0,0,.34.69,1,1,0,0,0,.66.24,1,1,0,0,0,.76-.34A1,1,0,0,0,211,395a1,1,0,0,0-1-.94Z"/><path class="cls-57" d="M210,395.07a12.39,12.39,0,0,1,1.87-5.2"/><path class="cls-56" d="M207.77,395a.87.87,0,0,1,0-1.73.91.91,0,0,1,.57.21.86.86,0,0,1-.57,1.52Z"/><path class="cls-55" d="M207.77,393.43a.74.74,0,0,1,.48.18.73.73,0,0,1-.48,1.28.73.73,0,0,1-.55-1.21.71.71,0,0,1,.55-.25m0-.28a1,1,0,0,0-.66,1.77,1.07,1.07,0,0,0,.66.24,1,1,0,0,0,1-1.07,1,1,0,0,0-.34-.69,1,1,0,0,0-.66-.25Z"/><path class="cls-57" d="M207.77,394.16a12.48,12.48,0,0,1,1.88-5.2"/><path class="cls-56" d="M205.57,394.11a.83.83,0,0,1-.56-.21.87.87,0,0,1,.57-1.52.87.87,0,0,1,.65,1.44.85.85,0,0,1-.66.29Z"/><path class="cls-55" d="M205.58,392.52a.69.69,0,0,1,.47.18.73.73,0,0,1,.08,1,.76.76,0,0,1-.55.25.73.73,0,1,1,0-1.46m0-.28a1,1,0,0,0-.66,1.77,1,1,0,0,0,.66.24,1,1,0,0,0,.75-.34,1,1,0,0,0-.1-1.42,1,1,0,0,0-.65-.25Z"/><path class="cls-57" d="M205.58,393.25a12.39,12.39,0,0,1,1.87-5.2"/><path class="cls-56" d="M202.65,392.89a.86.86,0,0,1-.67-.32.81.81,0,0,1-.19-.63.86.86,0,0,1,.31-.59.92.92,0,0,1,.55-.19.83.83,0,0,1,.67.32.87.87,0,0,1-.12,1.22A.92.92,0,0,1,202.65,392.89Z"/><path class="cls-55" d="M202.65,391.29a.77.77,0,0,1,.57.27.74.74,0,0,1-.11,1,.72.72,0,0,1-.46.16.76.76,0,0,1-.57-.26.74.74,0,0,1,.11-1,.75.75,0,0,1,.46-.17m0-.27a1,1,0,0,0-.63.23,1,1,0,0,0-.15,1.41,1,1,0,0,0,.78.37,1,1,0,0,0,.63-.23,1,1,0,0,0,.37-.67,1,1,0,0,0-.22-.74,1,1,0,0,0-.78-.37Z"/><path class="cls-57" d="M202.65,392a16.33,16.33,0,0,1,3.09-5.2"/><path class="cls-56" d="M199.62,391.23a.85.85,0,0,1-.77-.48.84.84,0,0,1,0-.66.82.82,0,0,1,.43-.5.86.86,0,0,1,.39-.09.85.85,0,0,1,.77.47.81.81,0,0,1,.05.66.85.85,0,0,1-.82.6Z"/><path class="cls-55" d="M199.62,389.63a.73.73,0,0,1,.65.4.74.74,0,0,1-.32,1,.78.78,0,0,1-.33.07.71.71,0,0,1-.65-.4.73.73,0,0,1,.32-1,.8.8,0,0,1,.33-.08m0-.27a1,1,0,0,0-1,.69.94.94,0,0,0,.06.77,1,1,0,0,0,1.79-.91,1,1,0,0,0-.9-.55Z"/><path class="cls-57" d="M199.62,390.36a18.6,18.6,0,0,1,4.45-4.95"/><path class="cls-56" d="M196.68,389.65a.87.87,0,0,1-.24-1.7l.24,0a.88.88,0,0,1,.84.62.86.86,0,0,1-.59,1.07A.69.69,0,0,1,196.68,389.65Z"/><path class="cls-55" d="M196.68,388.05a.73.73,0,0,1,.7.53.71.71,0,0,1-.49.9l-.21,0a.73.73,0,0,1-.2-1.43l.2,0m0-.27a.9.9,0,0,0-.28,0,1,1,0,0,0-.68,1.25,1,1,0,0,0,1,.72,1.45,1.45,0,0,0,.29,0,1,1,0,0,0,.59-.49,1,1,0,0,0,.09-.76,1,1,0,0,0-1-.72Z"/><path class="cls-57" d="M196.68,388.78s3.26-3.95,5.81-5"/><path class="cls-56" d="M193.93,387.26a.87.87,0,0,1-.87-.81.91.91,0,0,1,.21-.63.88.88,0,0,1,.6-.29h0a.88.88,0,0,1,.92.8.87.87,0,0,1-.8.93Z"/><path class="cls-55" d="M193.93,385.66a.73.73,0,0,1,0,1.46h0a.73.73,0,0,1-.05-1.46h.05m0-.27h-.07a1,1,0,0,0-.69.34,1,1,0,0,0-.24.73,1,1,0,0,0,1,.94H194a1,1,0,0,0,.68-.34,1,1,0,0,0,.25-.73,1,1,0,0,0-1-.93Z"/><path class="cls-57" d="M193.93,386.39s4.17-3.58,6.89-4.05"/><path class="cls-56" d="M192.89,383.94a.93.93,0,0,1-.6-.29.87.87,0,0,1,.65-1.44.87.87,0,1,1,0,1.73Z"/><path class="cls-55" d="M192.94,382.34h0a.74.74,0,0,1,.69.77.73.73,0,0,1-.73.69h0a.73.73,0,0,1,0-1.46m0-.27a1,1,0,0,0-1,.95,1,1,0,0,0,.25.72,1,1,0,0,0,.7.33h.05a1,1,0,0,0,1-.95,1,1,0,0,0-.25-.73,1,1,0,0,0-.69-.33h-.06Z"/><path class="cls-57" d="M192.94,383.07s3.5-2.48,6.26-2.61"/><path class="cls-56" d="M192.6,380.32a.87.87,0,0,1-.32-.06.87.87,0,0,1,.32-1.68.87.87,0,0,1,.32.06.87.87,0,0,1-.32,1.68Z"/><path class="cls-55" d="M192.6,378.72a.86.86,0,0,1,.27,0,.73.73,0,0,1,.41,1,.72.72,0,0,1-.68.46.86.86,0,0,1-.27-.05.73.73,0,0,1-.41-.95.75.75,0,0,1,.68-.46m0-.27a1,1,0,0,0-.93.63,1,1,0,0,0,.56,1.3.94.94,0,0,0,.37.07,1,1,0,0,0,.93-.63,1,1,0,0,0,0-.77,1,1,0,0,0-.55-.53.94.94,0,0,0-.37-.07Z"/><path class="cls-57" d="M192.6,379.45s3.2-1.39,5.85-.64"/><path class="cls-50" d="M178.77,377.75a14,14,0,0,0,1.89,6.69c1.85,2.74,22,8.19,23.82,10.28s2.14,5.45-12.31,6c-12.84.51-16.72-1.17-23.22-4-5.78-2.51-1-13.34-1-13.34a50.82,50.82,0,0,0-.12-7C167.51,374.06,178.77,377.75,178.77,377.75Z"/><path class="cls-51" d="M176.52,377.47s-.35,7.3,1.16,8.79,15.16,7.9,19.06,8.73"/><path class="cls-52" d="M172.3,376.28s0,.19,0,.54"/><path class="cls-53" d="M172.27,377.91c0,2.83.19,8.57,1.87,10.75,2.42,3.12,16,8.23,21.12,9.64"/><path class="cls-52" d="M195.8,398.44l.53.12"/><path class="cls-54" d="M195.87,400.51c-1-2.9.13-7,.89-9.19,3.86,1.39,7.05,2.62,7.72,3.4C206.11,396.61,206.54,399.55,195.87,400.51Z"/><path class="cls-55" d="M169,396.75c6.5,2.82,10.38,4.5,23.22,4,10.57-.42,13.23-2.33,13.18-4.15,1.56,2.15,1.1,5.26-12.9,5.81-13.15.52-17.12-1.2-23.78-4.08-3.87-1.68-3.12-7-2.13-10.48C165.8,391.14,165.64,395.31,169,396.75Z"/><path class="cls-56" d="M193.38,396.84a.87.87,0,0,1-.87-.8.89.89,0,0,1,.21-.63.87.87,0,0,1,.66-.3.88.88,0,0,1,.56.21.87.87,0,0,1,.3.6.86.86,0,0,1-.21.63.84.84,0,0,1-.65.29Z"/><path class="cls-55" d="M193.38,395.25a.69.69,0,0,1,.47.18.73.73,0,0,1,.08,1,.76.76,0,0,1-.55.25.73.73,0,1,1,0-1.46m0-.28a1,1,0,0,0-.76.35,1,1,0,0,0,.1,1.42,1,1,0,0,0,.66.24,1,1,0,0,0,.75-.34,1,1,0,0,0-.1-1.42,1,1,0,0,0-.65-.25Z"/><path class="cls-57" d="M193.38,396a12.39,12.39,0,0,1,1.87-5.2"/><path class="cls-56" d="M191.18,395.93a.86.86,0,0,1-.57-.21.87.87,0,0,1-.09-1.22.89.89,0,0,1,.66-.3.91.91,0,0,1,.57.21.88.88,0,0,1,.29.6.82.82,0,0,1-.21.63.84.84,0,0,1-.65.29Z"/><path class="cls-55" d="M191.18,394.34a.74.74,0,0,1,.48.18.73.73,0,0,1,.07,1,.75.75,0,0,1-.55.25.73.73,0,0,1-.55-1.21.71.71,0,0,1,.55-.25m0-.28a1,1,0,0,0-.66,1.77,1,1,0,0,0,.66.24,1,1,0,0,0,0-2Z"/><path class="cls-57" d="M191.18,395.07a12.48,12.48,0,0,1,1.88-5.2"/><path class="cls-56" d="M189,395a.81.81,0,0,1-.56-.21.87.87,0,0,1-.09-1.22.85.85,0,0,1,.65-.3.91.91,0,0,1,.57.21.89.89,0,0,1,.3.6.91.91,0,0,1-.21.63.88.88,0,0,1-.66.29Z"/><path class="cls-55" d="M189,393.43a.74.74,0,0,1,.56,1.21.77.77,0,0,1-.56.25.69.69,0,0,1-.47-.18.73.73,0,0,1,.47-1.28m0-.28a1,1,0,0,0-.75.35,1,1,0,0,0,.1,1.42,1,1,0,0,0,.65.24,1,1,0,0,0,.66-1.76,1,1,0,0,0-.66-.25Z"/><path class="cls-57" d="M189,394.16a12.48,12.48,0,0,1,1.88-5.2"/><path class="cls-56" d="M186.79,394.11a.86.86,0,0,1-.57-.21.87.87,0,0,1-.09-1.22.89.89,0,0,1,.66-.3.91.91,0,0,1,.57.21.87.87,0,0,1,.08,1.23.84.84,0,0,1-.65.29Z"/><path class="cls-55" d="M186.79,392.52a.73.73,0,0,1,.55,1.21.76.76,0,0,1-.55.25.73.73,0,0,1-.55-1.21.7.7,0,0,1,.55-.25m0-.28a1,1,0,0,0-.66,1.77,1,1,0,0,0,.66.24,1,1,0,0,0,.76-.34,1,1,0,0,0-.76-1.67Z"/><path class="cls-57" d="M186.79,393.25a12.39,12.39,0,0,1,1.87-5.2"/><path class="cls-56" d="M183.86,392.89a.88.88,0,0,1-.67-.32.85.85,0,0,1-.19-.63.87.87,0,0,1,.86-.78.83.83,0,0,1,.67.32.86.86,0,0,1-.12,1.22A.89.89,0,0,1,183.86,392.89Z"/><path class="cls-55" d="M183.86,391.29a.77.77,0,0,1,.57.27.73.73,0,0,1-.11,1,.7.7,0,0,1-.46.16.73.73,0,0,1-.46-1.29.75.75,0,0,1,.46-.17m0-.27a1,1,0,0,0-.63.23,1,1,0,0,0-.15,1.41,1,1,0,0,0,.78.37,1,1,0,0,0,.64-.23,1,1,0,0,0,.36-.67,1,1,0,0,0-.22-.74,1,1,0,0,0-.78-.37Z"/><path class="cls-57" d="M183.86,392a10.67,10.67,0,0,1,2.56-4.6"/><path class="cls-56" d="M180.83,391.23a.85.85,0,0,1-.77-.48.89.89,0,0,1-.05-.66.85.85,0,0,1,.43-.5.89.89,0,0,1,.39-.09.87.87,0,0,1,.78.47.89.89,0,0,1,0,.66.92.92,0,0,1-.44.51A.86.86,0,0,1,180.83,391.23Z"/><path class="cls-55" d="M180.83,389.63a.72.72,0,0,1,.65.4.73.73,0,0,1-.32,1,.75.75,0,0,1-.33.07.73.73,0,0,1-.33-1.38.8.8,0,0,1,.33-.08m0-.27a1,1,0,0,0-.45.11,1,1,0,0,0-.5.58,1,1,0,0,0,.06.77,1,1,0,0,0,.89.55,1,1,0,0,0,.46-.11,1.06,1.06,0,0,0,.5-.58,1,1,0,0,0-.06-.77,1,1,0,0,0-.9-.55Z"/><path class="cls-57" d="M180.83,390.36a8.76,8.76,0,0,1,3.21-4"/><path class="cls-56" d="M177.9,389.65a.87.87,0,0,1-.25-1.7,1,1,0,0,1,.25,0,.86.86,0,0,1,.24,1.69A.67.67,0,0,1,177.9,389.65Z"/><path class="cls-55" d="M177.9,388.05a.74.74,0,0,1,.7.53.73.73,0,0,1-.5.9l-.2,0a.72.72,0,0,1-.7-.52.73.73,0,0,1,.49-.91l.21,0m0-.27a1,1,0,0,0-.29,0,1.06,1.06,0,0,0-.6.48,1.08,1.08,0,0,0-.08.77,1,1,0,0,0,1,.72,1.35,1.35,0,0,0,.28,0,1,1,0,0,0-.28-2Z"/><path class="cls-57" d="M177.9,388.78a9.07,9.07,0,0,1,3.94-3.37"/><path class="cls-56" d="M175.14,387.26a.86.86,0,0,1-.65-1.44.84.84,0,0,1,.59-.29h0a.87.87,0,0,1,.12,1.73Z"/><path class="cls-55" d="M175.14,385.66a.73.73,0,0,1,.05,1.46h-.05a.73.73,0,0,1,0-1.46h0m0-.27h-.07a1,1,0,0,0-.93,1.07,1,1,0,0,0,1,.94h.07a1,1,0,0,0,.69-.34,1,1,0,0,0-.76-1.66Z"/><path class="cls-57" d="M175.14,386.39a12.22,12.22,0,0,1,5.27-2.89"/><path class="cls-56" d="M174.1,383.94a.87.87,0,0,1-.81-.92.86.86,0,0,1,.86-.81.87.87,0,1,1,0,1.73Z"/><path class="cls-55" d="M174.15,382.34h0a.73.73,0,0,1,.69.77.73.73,0,0,1-.73.69h0a.73.73,0,0,1,0-1.46m0-.27a1,1,0,0,0-1,.95,1,1,0,0,0,.26.72,1,1,0,0,0,.69.33h.05a1,1,0,0,0,1-.95,1,1,0,0,0-.26-.73,1,1,0,0,0-.69-.33h-.06Z"/><path class="cls-57" d="M174.15,383.07a9.75,9.75,0,0,1,5.07-2.06"/><path class="cls-56" d="M173.81,380.32a.91.91,0,0,1-.32-.06.87.87,0,0,1-.48-1.13.86.86,0,0,1,.8-.55.87.87,0,0,1,.32.06.87.87,0,0,1-.32,1.68Z"/><path class="cls-55" d="M173.81,378.72a.86.86,0,0,1,.27,0,.73.73,0,0,1-.27,1.41.86.86,0,0,1-.27-.05.73.73,0,0,1,.27-1.41m0-.27a1,1,0,0,0-.93.63,1,1,0,0,0,0,.77,1,1,0,0,0,.55.53,1,1,0,0,0,.37.07,1,1,0,0,0,.94-.63,1,1,0,0,0,0-.77,1,1,0,0,0-.55-.53.94.94,0,0,0-.37-.07Z"/><path class="cls-57" d="M173.81,379.45a7.4,7.4,0,0,1,4.95-.43"/><path class="cls-71" d="M190.16,379.39h0c6,0,8.6-4.39,8.6-10.35l5.88-98.33c0-5.95-6.14-7.64-12.1-7.64h0c-5.95,0-15.59,6.09-15.59,12l4.76,93.72C181.71,374.78,184.2,379.39,190.16,379.39Z"/><path class="cls-72" d="M202.83,254.34H170.75a12,12,0,0,0-12,12v1.48a12.21,12.21,0,0,0,.27,2.51,7.38,7.38,0,0,0-.27,2l5.88,98.34c0,5.95,2.66,10.34,8.61,10.34s8.44-4.61,8.44-10.56l4.52-88.85a1.88,1.88,0,0,1,1.87-1.78l8.38-3.82c12-7,7.67-7.67,9.41-14v-4.67A3,3,0,0,0,202.83,254.34Z"/><path class="cls-73" d="M193.89,266.39H171.58c-12.3,0-12.3,0-12.83-12l-6.61-71.46c0-6.62,11.26-15.21,18.31-15.21l26.22-1.7c7.06,0,12.61,7.16,12.61,13.78l-2.56,74.59C205.86,266.39,209.28,266.39,193.89,266.39Z"/><path class="cls-74" d="M196.67,166l2.73,4.37A19.8,19.8,0,0,1,202.14,184l-7.89,48c-.86,12,2.69,20.64-12.7,20.64l-13.3,1.6c-.82-3.21-2.77-16.62-3.49-19.82-.41-1.89-.79-3.77-1.12-5.62-.16-.92-.32-1.84-.43-2.71s-.21-1.72-.25-2.37v-.36s0,0,0,0,0,0,0,.08a2.07,2.07,0,0,1,0,.25l0-.2.14-.52.74-2.66,1.67-5.62,3.43-11.4c.27-.85.53-1.71.8-2.57-.25-2.34-.55-4.68-1-7-1-5.23-2.33-10.34-3.62-15.49-.05-.2-.1-.36-.15-.51s-.33-.54-.5-.84c-.12.14-.84-.36-.22-.29h.05l-.11-.19c-.33-.1-.69-.17-.44,0l.33.14a2.64,2.64,0,0,1-.33-.14,17,17,0,0,1-4.06-2.41c-4.52,5.1-6.46,15.51-7.07,17.17-.12.32.07.68.5,1.08l-.73,3.49h0l.41,2.23c-.76,3.57-1.53,7.13-2.26,10.72l3.27,35.36c.68,1.85,1.39,3.68,2.1,5.51.89,2.27,1.84,4.52,2.82,6.76.33,6.89.76,9.06,4.73,9.74.06.1.1.2.16.29,1.16,0,2.47,0,4,0h26.19c15.39,0,12,0,12.83-12l2.56-74.59C209.28,173.13,203.73,166,196.67,166Z"/><path class="cls-67" d="M169.78,180c-.54,8.09-2.88,15.72-5.26,23.31l-3.43,11.4-1.67,5.62-.74,2.66-.13.52-.06.2c0-.05,0-.17,0-.25s0-.05,0-.08,0,0,0,0v.36c0,.65.11,1.49.24,2.37s.27,1.79.43,2.71c.33,1.85.72,3.73,1.13,5.62.84,3.77,1.71,7.59,2.71,11.36s2,7.56,3.19,11.22c.57,1.84,1.18,3.65,1.83,5.37.32.86.65,1.71,1,2.46.17.39.34.71.49,1l.21.4a.54.54,0,0,1,.08.19l.61,2.22a4,4,0,0,1-6.64,3.95c-.31-.3-.62-.61-.91-.93l-.67-.81c-.39-.52-.77-1-1.08-1.51-.66-1-1.23-1.92-1.76-2.87-1.06-1.88-2-3.75-2.91-5.63-1.76-3.75-3.4-7.51-4.89-11.33s-2.93-7.64-4.21-11.56c-.64-2-1.26-3.94-1.85-6-.29-1-.57-2.05-.84-3.14s-.52-2.21-.72-3.54l-.13-1.13,0-.77c0-.28,0-.47,0-.82s.05-.71.09-1l.07-.54.13-1c.18-1.15.36-2.17.54-3.2l1.14-6c.77-4,1.64-7.89,2.47-11.82,1.63-7.86,3.39-15.67,7-23a7.71,7.71,0,0,1,14.62,3.9Z"/><path class="cls-68" d="M170.38,268.7l-.61-2.22a.54.54,0,0,0-.08-.19l-.21-.4c-.15-.32-.32-.64-.49-1-.34-.75-.67-1.6-1-2.46-.65-1.72-1.26-3.53-1.83-5.37-1.17-3.66-2.19-7.44-3.19-11.22s-1.87-7.59-2.71-11.36c-.41-1.89-.8-3.77-1.13-5.62-.16-.92-.31-1.84-.43-2.71s-.2-1.72-.24-2.37v-.36s0,0,0,0,0,0,0,.08,0,.2,0,.25l.06-.2.13-.52.74-2.66,1.67-5.62,3.43-11.4c2.38-7.59,4.72-15.22,5.26-23.31v0a7.71,7.71,0,0,0-12.94-6.15,7.53,7.53,0,0,1,4.08.75,7.7,7.7,0,0,1,4.31,7.43v0c-.54,8.09-2.87,15.72-5.25,23.31l-3.44,11.4-1.67,5.62-.73,2.65-.14.53-.05.2a2.23,2.23,0,0,0,0-.26c0-.1,0,0,0-.07s0,0,0,0v.36c0,.65.11,1.49.24,2.37s.27,1.79.44,2.71c.32,1.84.71,3.73,1.12,5.62.84,3.77,1.72,7.59,2.72,11.36s2,7.56,3.19,11.22c.57,1.83,1.17,3.65,1.82,5.37.33.86.65,1.71,1,2.46.17.39.34.71.49,1l.21.4a.54.54,0,0,1,.08.19l.62,2.22a4,4,0,0,1-.32,2.91,4.07,4.07,0,0,0,2.08,0A4,4,0,0,0,170.38,268.7Z"/><path class="cls-69" d="M166,197s-.36,2.75-1,3.54-15.05-1.22-17-4.78l.82-3.92S165.61,197.12,166,197Z"/><path class="cls-70" d="M167,196.12s9-19.47-1.77-24.33-16.14,16.91-17,19.38S165.61,199.72,167,196.12Z"/><path class="cls-67" d="M174.92,168a68.89,68.89,0,0,0,.79-10.31c0-5.64-2-11.56-4.66-21s5.56-23.21,22.76-20.79,13.53,38.36,10.31,41.59-12.91.8-12.91.8,2,7.47,3.06,7.35S187.27,181,174.92,168Z"/><path class="cls-75" d="M174.61,149.53s-3.58-11.94-4-16,1.49-13.89,14.23-17.36,18,4.26,20,10.75c-4.8-4.11-18,3.42-18,3.42l.27,4.57-2,2.24,1.2,5.25-1.69.67-2.15-6.19s-2.29-1.74-3.23.81S178.17,147.5,174.61,149.53Z"/><path class="cls-75" d="M186.32,142.43s2.83,5.6,5.61,6,7.89-5.53,14.74-2.14c0,0-.85,10.65-3,11.6s-4.69,2-12.49.45-6.58-15.2-6.58-15.2Z"/><path class="cls-67" d="M195.62,150.77s2.76-3.28,6.35-2.92,3.44,1.4,3.44,1.4l-1.25,5.63s-1.75,2.83-5.42,1.3A5.19,5.19,0,0,1,195.62,150.77Z"/><path class="cls-67" d="M164.09,264.66h0a7.46,7.46,0,0,0-3.19,10l1.49,2.86a7.46,7.46,0,0,0,10,3.19h0a7.46,7.46,0,0,0,3.18-10l-1.48-2.86A7.45,7.45,0,0,0,164.09,264.66Z"/><path class="cls-67" d="M162.05,273.1h0a1.75,1.75,0,0,0-.75,2.35l5.35,10.33a1.75,1.75,0,0,0,2.35.75h0a1.75,1.75,0,0,0,.74-2.35l-5.34-10.33A1.75,1.75,0,0,0,162.05,273.1Z"/><path class="cls-67" d="M166.91,274.92h0a1.75,1.75,0,0,0-.74,2.35l5.34,10.33a1.75,1.75,0,0,0,2.35.74h0a1.75,1.75,0,0,0,.75-2.35l-5.35-10.33A1.75,1.75,0,0,0,166.91,274.92Z"/><path class="cls-67" d="M170.89,275h0a1.74,1.74,0,0,0-.74,2.34l5.34,10.33a1.74,1.74,0,0,0,2.35.75h0a1.75,1.75,0,0,0,.75-2.35l-5.35-10.33A1.74,1.74,0,0,0,170.89,275Z"/><path class="cls-67" d="M173.07,271.66h0a1.74,1.74,0,0,0-.74,2.34l5.34,10.33a1.74,1.74,0,0,0,2.35.75h0a1.75,1.75,0,0,0,.75-2.35l-5.35-10.33A1.74,1.74,0,0,0,173.07,271.66Z"/><path class="cls-67" d="M170.92,266.61h0a1.56,1.56,0,0,0,.07,2.21l6.36,6a1.58,1.58,0,0,0,2.22-.06h0a1.58,1.58,0,0,0-.07-2.22l-6.36-6A1.58,1.58,0,0,0,170.92,266.61Z"/><path class="cls-76" d="M312.1,404.17c0,3.93-28.59,7.13-63.85,7.13s-63.85-3.2-63.85-7.13S213,397,248.25,397,312.1,400.23,312.1,404.17Z"/><polygon class="cls-77" points="276 403.54 220.5 403.54 202.5 300.43 294 300.43 276 403.54"/><path class="cls-76" d="M205.43,317.19c14.08.24,29,.38,44.57.38,14.24,0,28-.11,41.06-.32l2.88-16.45c-13.91-.24-28.66-.37-43.94-.37-16.57,0-32.51.15-47.42.44Z"/><ellipse class="cls-77" cx="250" cy="302.43" rx="150.67" ry="8.57"/><path class="cls-78" d="M91,395.22v-35H83.43v35L59,407.42l1.95,3.92s26.52-14.76,53.56,0l3.43-3Z"/><polygon class="cls-79" points="89.5 361.51 89.5 396.54 116.4 409.65 117.9 408.34 90.96 395.22 90.96 360.19 83.43 360.19 83.43 361.51 89.5 361.51"/><polygon class="cls-79" points="81.97 396.54 81.97 395.94 58.96 407.42 59.2 407.9 81.97 396.54"/><path class="cls-79" d="M60.91,408.75l24.46-12.21v-35H91v-1.33H83.43v35L59,407.42l1.95,3.92s.36-.2,1-.52Z"/><rect class="cls-80" x="81.82" y="360.18" width="10.29" height="17.27" rx="2.7"/><path class="cls-81" d="M90.88,376.14H86a2.69,2.69,0,0,1-2.69-2.7V361.57a2.73,2.73,0,0,1,.29-1.21,2.7,2.7,0,0,0-1.76,2.52v11.88a2.69,2.69,0,0,0,2.7,2.69h4.9a2.69,2.69,0,0,0,2.4-1.48A3,3,0,0,1,90.88,376.14Z"/><path class="cls-78" d="M106.31,363.42H71a8.92,8.92,0,0,1-8.92-8.92h53.16A8.92,8.92,0,0,1,106.31,363.42Z"/><path class="cls-78" d="M66.11,412.25a5.21,5.21,0,1,0-5.2,5.21A5.2,5.2,0,0,0,66.11,412.25Z"/><path class="cls-82" d="M64.37,412.25a3.47,3.47,0,1,0-3.46,3.47A3.46,3.46,0,0,0,64.37,412.25Z"/><path class="cls-78" d="M119.68,412.25a5.21,5.21,0,1,0-5.21,5.21A5.21,5.21,0,0,0,119.68,412.25Z"/><path class="cls-82" d="M117.94,412.25a3.47,3.47,0,1,0-3.47,3.47A3.47,3.47,0,0,0,117.94,412.25Z"/><path class="cls-77" d="M117.67,358.08h-58a7.44,7.44,0,0,1-7.44-7.44h0a7.45,7.45,0,0,1,7.44-7.45h58.05a7.45,7.45,0,0,1,7.44,7.45h0A7.44,7.44,0,0,1,117.67,358.08Z"/><path class="cls-83" d="M124.94,352.22a7.45,7.45,0,0,0-7.27-9H60.86C74.09,360.43,103,354.92,124.94,352.22Z"/><path class="cls-84" d="M118.3,355.54h-58a7.44,7.44,0,0,1-7.44-7.44c0-.17,0-.33,0-.49a7.43,7.43,0,0,0,6.79,10.47h58.05a7.43,7.43,0,0,0,7.42-6.95A7.43,7.43,0,0,1,118.3,355.54Z"/><path class="cls-77" d="M47.17,271.35l5,55a4.45,4.45,0,0,1-4,4.83h0a4.44,4.44,0,0,1-4.83-4l-5-54.95a4.44,4.44,0,0,1,4-4.83h0A4.44,4.44,0,0,1,47.17,271.35Z"/><path class="cls-85" d="M47.17,271.35a4.39,4.39,0,0,0-5.56-3.88,4.42,4.42,0,0,1,3.3,3.88l5,55A4.42,4.42,0,0,1,46.61,331a4.58,4.58,0,0,0,1.53.15,4.45,4.45,0,0,0,4-4.83Z"/><path class="cls-78" d="M55.68,350.8a1.86,1.86,0,0,1-2.08,1.6h0A20.16,20.16,0,0,1,36,332.14l2-36.48a4.21,4.21,0,0,1,4.26-4h0l-2.16,40.52a16.12,16.12,0,0,0,14,16.2h0a1.85,1.85,0,0,1,1.6,2.08Z"/><path class="cls-86" d="M54.61,351.58a20.16,20.16,0,0,1-17.56-20.26l2-36.48a4.15,4.15,0,0,1,1.1-2.59A4.19,4.19,0,0,0,38,295.66l-2,36.48A20.16,20.16,0,0,0,53.6,352.4a1.84,1.84,0,0,0,1.84-.91A1.78,1.78,0,0,1,54.61,351.58Z"/><path class="cls-78" d="M112.12,354.5h0a2,2,0,0,1-2-2V351.4c0-13.64-15.56-24.74-34.7-24.74H69.86c-4.41,0-8.13,2.47-8.13,5.39V349.3a2,2,0,0,1-2,2h0a2,2,0,0,1-2-2V332.05c0-5.15,5.42-9.34,12.08-9.34h5.58c21.32,0,38.66,12.87,38.66,28.69v1.13A2,2,0,0,1,112.12,354.5Z"/><path class="cls-87" d="M75.44,322.71H69.86c-6.66,0-12.08,4.19-12.08,9.34v1.4c0-5.15,5.42-9.34,12.08-9.34h5.58c21.22,0,38.5,12.76,38.65,28.49,0,0,0-.05,0-.07V351.4C114.1,335.58,96.76,322.71,75.44,322.71Z"/><path class="cls-88" d="M86.37,201.92a14.42,14.42,0,0,1,11.92,9.33c3.44,8.85,7.38,5.87,7.38,5.87s-3.44,10.41-13.09,4S86.37,201.92,86.37,201.92Z"/><path class="cls-89" d="M83.63,249.12S92,253.44,93,255.51s-3.7,2.74-3.7,2.74S80.65,256.29,83.63,249.12Z"/><path class="cls-90" d="M88.62,257.68c3.56,6,7.25,12.08,11,18,1.89,2.94,3.8,5.86,5.75,8.64,1,1.37,2,2.74,2.9,3.87l.62.74c.15.18.36.35.13.23a3.59,3.59,0,0,0-.39-.19,3.79,3.79,0,0,0-.54-.2l-.43-.11a3.2,3.2,0,0,0-.62-.09l-.32,0h.71l.61,0c3.36-.09,7-.31,10.5-.5l10.65-.61,10.69-.62c3.59-.18,7.08-.39,10.86-.45a3.32,3.32,0,0,1,3.38,3.25c0,1.71-2.24,1.59-3.89,1.8l-1.12.81c-3.31.43-7.86,2-11.33,2.56l-7.57,1.58-10.54,1.8c-3.55.59-7,1.19-10.72,1.71l-.72.09-.37.05-.5,0-.51,0-.25,0h-.25l-.39,0a5.19,5.19,0,0,1-.79-.12l-.36-.08-.23-.07a8.38,8.38,0,0,1-.85-.32,9,9,0,0,1-1-.52,14.15,14.15,0,0,1-1.94-1.45c-.46-.4-.87-.78-1.25-1.15-1.51-1.47-2.77-2.86-4-4.26-2.47-2.8-4.78-5.6-7.06-8.42-4.55-5.65-8.92-11.3-13.28-17.1a8.06,8.06,0,1,1,12.89-9.69,8.6,8.6,0,0,1,.49.74Z"/><path class="cls-89" d="M93.5,257.87s5.65,3.79,5.26,13.59,1.71,40.7,4.21,44.41-15.11,6-17.62,1.77S65.47,235.87,93.5,257.87Z"/><path class="cls-91" d="M63.11,260.86s2-6.15,5.54-9.62,3.89-7.15-1.47-15.64c-6.85-10.84-10.14-32.2,8.33-34.78s21,14.57,21,14.57l-.21,4.42s2.57,3.92,4,4.79-2.7,2.27-2.7,2.27,1.33,2.12.82,2.45a12.16,12.16,0,0,0-1.1.86s1.91,1.17,1,1.92a6.8,6.8,0,0,0-1.44,2.74s.47,3.42-1,4.17c-.74.38-5.44.86-8.87-.19-3-.92-4.72,17.46,4.71,24.37C100.07,269.3,66,264.28,63.11,260.86Z"/><path class="cls-90" d="M74.34,314.9s11-2.95,66.81,13.67c1.85.55,4.94,3.4,5.57,5.44,1.86,6.05-10.32,40.37-16.94,58.65-4,11-4.25,5.09-7.45,5.18-4.64.12,4.73-17.86,3.61-31.64-1.31-16.08,3-16.23,5.83-21.63C131.77,344.57,71.78,352,74.34,314.9Z"/><path class="cls-92" d="M79.32,338.54l-6.74-1.32C60.87,334.93,53.06,324,55.22,313l3.84-40.54c.25-21.38,6.71-21.33,17.88-19.14l2.24,3.54C90.34,259,109.09,275.09,92,282.88l2.2,46.27C92.92,335.66,86.23,339.89,79.32,338.54Z"/><path class="cls-91" d="M58.78,319.45s18.89-14.64,73.27,12.16a10.37,10.37,0,0,1,4.37,4.29c6.82,12.09,32.46,57.83,34.45,65,2.31,8.27-7.17,1.82-21.25-20.07-5-7.76-20-17.71-24.36-28.58a5.44,5.44,0,0,0-4.55-3.33C106.39,347.52,55.14,341,58.78,319.45Z"/><path class="cls-92" d="M105.78,347.82s-.59-23.16,30.88-20.9c0,0-26.3-8-43.94-14.83-20-7.73-37.67,3.75-37.67,3.75S37.22,359.91,105.78,347.82Z"/><path class="cls-92" d="M160.07,395.69s-3.66,8.45,2.28,9.11,8.58,5.28,11,8.14,17.17,1.88,17.83,1.27-10.78-6.77-10.78-6.77l-11.71-13.78L163,381.47s-6.17,3.62-11.85,4.36Z"/><path class="cls-92" d="M160.11,403.83l4.44,10.38h1.54l-3-6.5A4.34,4.34,0,0,1,167,404C170.55,403.42,159.32,402,160.11,403.83Z"/><path class="cls-92" d="M120,397.22s-4.72,7.6.88,8.54,7.86,5.45,10,8.29,16.18,2.68,16.84,2.13-9.87-7-9.87-7l-7.47-11,4.87-9.77s-6.73-2-12.32-3.09Z"/><path class="cls-92" d="M118.76,404.71l3.67,10.08,1.46.08-2.5-6.31a4.13,4.13,0,0,1,3.86-3.35C128.68,404.88,118.11,402.94,118.76,404.71Z"/><path class="cls-93" d="M90.81,296.43c-2.28-19.44-3.2-22-3.2-22s-1.15-17.33-4.22-19.11-12.54-5.55-13.51-6.3c0,0-12,1.13-11.85,23.92s-11.34,45-7.76,45.33,9.44,9.1,36.26,6.94C86.53,325.25,93.09,315.88,90.81,296.43Zm-22.46-18.6c-6.94,1.25-6.48-13.59-6.48-13.59,2.64-5.78,13-8.8,13-4.52S75.28,276.57,68.35,277.83Z"/><path class="cls-91" d="M74.72,259.11c3,6,6.17,12,9.36,18,1.6,3,3.22,5.92,4.88,8.82s3.36,5.79,5.08,8.33c.42.61.87,1.22,1.19,1.62l.18.22s0,0-.17-.07a3.8,3.8,0,0,0-.67-.32l-.38-.11a3.6,3.6,0,0,0-.54-.11,2,2,0,0,0-.35,0h-.23l-.13,0h.13a20.7,20.7,0,0,0,2.08-.29c.78-.13,1.59-.29,2.41-.45,3.26-.65,6.6-1.4,9.93-2.12s6.7-1.45,10.09-2.12c1.7-.34,3.41-.66,5.15-.94a41,41,0,0,1,5.56-.6,2.86,2.86,0,0,1,.48,5.69l-.18,0a38.85,38.85,0,0,0-4.51,1.06c-1.58.45-3.18.95-4.78,1.46-3.2,1-6.41,2.13-9.63,3.23s-6.44,2.23-9.76,3.31c-.83.26-1.67.53-2.54.79a28.86,28.86,0,0,1-2.93.74l-.5.09c-.17,0-.51.05-.77.06h-.46l-.44,0a4.38,4.38,0,0,1-.69-.14,4.19,4.19,0,0,1-.53-.17,6.15,6.15,0,0,1-1.24-.61,9.16,9.16,0,0,1-1.16-.86c-.29-.24-.53-.46-.74-.67-.85-.83-1.48-1.55-2.1-2.28-2.42-2.87-4.46-5.66-6.51-8.49s-4-5.67-5.94-8.51c-3.88-5.71-7.65-11.41-11.39-17.23a7.35,7.35,0,1,1,12.36-7.95c.14.21.26.43.38.65Z"/><path class="cls-94" d="M70.6,203.38a6.09,6.09,0,0,0-5.45-7.17c-6.56-1.07-18.12,4.59-15.54,13.84s2,22.15-3.72,21.58c0,0,3.21,2.88,7.18-1.15,0,0-12.06,12.39-4,25.28s1.06,15-1.34,14.55c0,0,8.71,1.8,8.74-7.25s-2.33-14.85.52-17.74c0,0-2,6.56,2.93,7.49,0,0-2.9-2.54.43-6.87s7.58-14.59,5.91-25.13S67.9,208.85,70.6,203.38Z"/><path class="cls-88" d="M70.47,227.44C71.2,229.43,72,233,72,233c-.84-3.31,2.28-8,2.28-8-2.18,5.34.07,14.87,7,13.85s3.9-6.16,3.9-6.16c1.09,2-1.66,4.93-4.35,1.92s1.84-10.39,8.15-15,2.52-14.16,2.52-14.16.64-3.74-7.52-5S66,215.24,70.47,227.44Z"/><path class="cls-88" d="M82.05,200.51s-11.58-3.21-19,6.71-2.25,22.6,5.72,30.52l0-3.87,1.63,1-.61-4.55,1.22,2.05s.37-5.21.49-6.41S77.22,199.9,82.05,200.51Z"/><path class="cls-95" d="M84,248.15s-8.26-.42-13.28-3.51l-3.22,5s10.1,4.81,12.78,3.91S84,248.15,84,248.15Z"/><path class="cls-90" d="M137.58,289.2s7.92-3.78,9-3.92,9.27.5,9.77.5,5.21,3.57,5.85,4.92.64,4.28,0,4.35-.93-2.78-.93-2.78l-2.57-2.11-1.49-.46s2,3.21,2,3.78.15,3.93-.35,3.93-.86-2.07-1-3.14-2.64-2.94-2.64-2.94,1.78,3.15,1.71,3.87.22,2.78-.57,2.71-1.14-2.78-1.14-2.78a14.22,14.22,0,0,0-1.93-2.72c-.57-.35-6.28.72-9,.15s-6.85,1.71-7.92,1.35S134,289.49,137.58,289.2Z"/><path class="cls-96" d="M77.55,250.91s2.64-4.78,6.48-2.76c0,0,.56,6.91,1.94,8.55s4.33,35.08,4.33,35.08-2.79-16.22-8.71-23.13A7.83,7.83,0,0,1,84,264.24c2.07-1.76,1.06-3.27,1.06-3.27s-8.31-3.77-10.25-5.53S77.55,250.91,77.55,250.91Z"/><path class="cls-91" d="M120.75,291.27s7.92-3.78,9-3.92,9.28.5,9.78.5,5.21,3.56,5.85,4.92.64,4.28,0,4.35-.93-2.78-.93-2.78l-2.57-2.12-1.5-.45s2,3.21,2,3.78.15,3.93-.35,3.93-.86-2.07-1-3.14-2.64-2.94-2.64-2.94,1.78,3.15,1.71,3.86.21,2.79-.57,2.72-1.14-2.79-1.14-2.79a14.21,14.21,0,0,0-1.93-2.71c-.57-.36-6.28.71-9,.14s-6.85,1.72-7.92,1.36S117.19,291.56,120.75,291.27Z"/><path class="cls-97" d="M169.85,299.77l21-50.93a1.21,1.21,0,0,1,1.58-.65h0a1.21,1.21,0,0,1,.66,1.57l-21,50.93a1.22,1.22,0,0,1-1.58.66h0A1.23,1.23,0,0,1,169.85,299.77Z"/><path class="cls-98" d="M172.27,302.41H119.59a2.42,2.42,0,0,1-2.41-2.42h0a2.41,2.41,0,0,1,2.41-2.41h52.68a2.42,2.42,0,0,1,2.42,2.41h0A2.43,2.43,0,0,1,172.27,302.41Z"/><path class="cls-64" d="M412,210.54s2.06,5.49,4.79,6.61,3-4.07,3-4.07S413.8,212,412,210.54Z"/><path class="cls-90" d="M430.14,261.17a59.69,59.69,0,0,1-4.19,9.88c-1.63,3.15-3.48,6.19-5.42,9.18s-3.87,6-5.9,9q-1.5,2.25-3.13,4.5c-1.09,1.5-2.21,3-3.49,4.57-.66.8-1.32,1.6-2.27,2.58-.25.25-.52.51-.86.82a13.06,13.06,0,0,1-1.47,1.14c-.16.11-.44.27-.66.39a9.28,9.28,0,0,1-1,.49c-.21.08-.41.15-.74.25l-.45.11-.24.05-.3.06-.63.07-.3,0h-.34l-.53,0a4,4,0,0,1-.46,0l-.61-.09a14.76,14.76,0,0,1-1.78-.37c-.52-.12-1-.25-1.46-.39-.93-.26-1.81-.53-2.68-.8-3.48-1.09-6.81-2.21-10.14-3.36l-9.9-3.39c-1.63-.53-3.26-1.1-4.86-1.59s-3.25-1-4.41-1.23l-.42-.08c-2.34-.49-2.6-2.85-3.34-5.11-1.22-3.67,36.36,1.15,36.36,1.15.83.14,1.67.28,2.45.39l1.13.14a6.18,6.18,0,0,0,.82.06h0l-.13,0h-.59l-.55.07-.46.08-.37.1c-.28.08-.42.13-.58.19a4.36,4.36,0,0,0-.74.35c-.13.06-.31.17-.38.21-.36.24-.41.3-.45.31s0,0,.07-.12c.23-.31.65-.91,1-1.51,1.66-2.53,3.33-5.57,5-8.52s3.31-6,4.92-9.09,3.24-6.14,5.06-9.11a67.33,67.33,0,0,1,6.06-8.56l.06-.07a7.73,7.73,0,0,1,13.24,7.31Z"/><path class="cls-90" d="M370.15,288.66s-9.74-4.42-11-4.57-11.3.82-11.91.83-6.26,4.47-7,6.14-.68,5.23.1,5.3,1.07-3.41,1.07-3.41l3.08-2.64,1.81-.58s-2.36,4-2.34,4.65-.09,4.79.52,4.78,1-2.55,1.15-3.85,3.14-3.64,3.14-3.64-2.1,3.88-2,4.75-.2,3.39.76,3.29,1.32-3.42,1.32-3.42,1.6-2.9,2.29-3.35,7.67.72,11,0,8.39,1.93,9.68,1.47S374.51,288.93,370.15,288.66Z"/><path class="cls-99" d="M404.94,270.63s-1.74,2.16-1.88,3.16,11.29,10,15.18,9l2.27-3.3S405.07,271,404.94,270.63Z"/><path class="cls-100" d="M404.82,269.26s7.82-20,18.8-15.53-1.07,23.34-2.23,25.71S403.19,272.77,404.82,269.26Z"/><path class="cls-99" d="M423.38,247s-3.84,3.05-4.71,5.7c0,0,1.69-2.18,2.37-1.67a6.75,6.75,0,0,1,1.35,1.6s1.73.59,1.71-.91S426.15,249,423.38,247Z"/><path class="cls-91" d="M446.66,266.57s-1.41-6.51-4.74-10.43-5-14.42,0-22.25c5.58-8.78,9-23.48-3.87-27.45-15.83-4.9-21.31,4.83-22.07,8.65-.24,1.21-.57,2.81-.32,3.38l.52.64a1.86,1.86,0,0,1-.28,1.93c-1.2,1.45-4.13,4.11-4.88,5.27-.93,1.45,2.92,2.78,2.92,2.78s-.85,2.39-.36,2.78a6.31,6.31,0,0,0,2.07.58s-1.71,1-.87,1.89a3.36,3.36,0,0,1,.68,2.41s-.92,2.11.31,3.25c2,1.84,3.82.9,7.28,2.22,2.45.94,3.53,10-8.44,16.39C405.2,263.65,443.36,269.8,446.66,266.57Z"/><path class="cls-64" d="M442,225.18a9.41,9.41,0,0,1-2.44,5,9,9,0,0,0-2.08,6l.64-.74s-.45,2.95.36,3.86l.54-1.33s-1.12,1.88,1.49,3.2c0,0,2.28-14.51,1.49-16"/><path class="cls-64" d="M432,228.79l.73-6.91a1.59,1.59,0,0,0-1.1-1.7c-1.68-.53-4.5-1.76-4.74-4.12-.34-3.38-14.33-1.35-18.9-5.7,0,0,2.33.93,3.16.49s-7.19-2.56-5.35-10.08c0,0,4.54,4.63,10.46,4.62,0,0-2.72-1.43-2.57-2.54a13.25,13.25,0,0,0,7.48-.17A5.75,5.75,0,0,0,418,201a24,24,0,0,1,7.63.44s-1.81-2.1-2.66-2.3a18.78,18.78,0,0,1,11.06,2.92s-1.69-2.28-2.76-2.57a10.12,10.12,0,0,1,7,2.91L438,200a30.44,30.44,0,0,1,2.39,3.21l.1-2.55s1.24.65,2.58,3.25l.49-1.87.29,2.17a5.69,5.69,0,0,1,3.48,1.33l-2.12.18s2.77,1.44,3.15,3l-1.26-.19s4.44,5.95,3.85,8.55l-1.2-1.21s1.2,6.27-.92,10.67l-.24-2s-.87,5.2-3.22,7.92l.45-1.72s-3,3.63-2.89,4.41.24,2,.24,2l-1-.26s-.56,3.67.69,5.05l-1.71-.45s.81,2.29-.66,3.2a5.29,5.29,0,0,0-.15-2.65L439,243.11l1-1.93-1.17.93s1.27-2.52.87-3.3,1.49-8.76,2.23-12.95-4-5.75-5.65-2.46S432.85,231.59,432,228.79Z"/><path class="cls-64" d="M427.66,214.15a8.57,8.57,0,0,1-3.32,2,4.66,4.66,0,0,0,1-1.5s-4.74,1.9-7.75.67c0,0,3.68-1.76,4.34-2.94S427.62,212.24,427.66,214.15Z"/><path class="cls-64" d="M432.92,220.81s-1.77,1.71-1.67,3l.64-.42a8.32,8.32,0,0,0-.54,3.35l1.1-1.13s-.73,3.78-1.69,4.2a3.26,3.26,0,0,0,1.88-1.73C433.52,226.51,434.7,221.6,432.92,220.81Z"/><path class="cls-101" d="M430.43,321.8s-5.86-3.13-65.4,5.28c-2,.28-5.57,2.72-6.52,4.71-2.83,5.89-.54,41.23,3.42,60.9,2.39,11.88,3.53,6.07,6.81,6.43,4.73.52,2.46-31,2.51-30.31,1.17,16.61-.39-18.33-2.49-24.28C368.76,344.53,427.37,360,430.43,321.8Z"/><path class="cls-102" d="M430.67,341.24l7.09-1.53c12.34-2.66,17.12-14.42,14.55-26.36l2.56-50.55A13.31,13.31,0,0,0,444,249c-5.66-1-11.58-.92-13-.18l-6.39,1.75c-11.75,2.53-16.16,6.28-15.64,28.75l5.73,52A13.35,13.35,0,0,0,430.67,341.24Z"/><path class="cls-103" d="M447,317.94l-7.1,1.53a13.35,13.35,0,0,1-16-10l-5.72-51.94c-.05-1.81-.05-3.49,0-5.06-6.92,3-9.58,9.09-9.17,26.82l5.73,52a13.35,13.35,0,0,0,16,9.95l7.09-1.53c11.51-2.48,16.44-12.88,15-24A19.87,19.87,0,0,1,447,317.94Z"/><path class="cls-103" d="M453.63,260.55a7.73,7.73,0,0,0-10.9.8l-.06.07a65.94,65.94,0,0,0-6.06,8.56c-1.82,3-3.45,6-5.05,9.11s-3.26,6.11-4.93,9.09-3.34,6-5,8.49l-1.32-.21-9.66-1.74,1.51,13.77c1.6.53,3.21,1.06,4.86,1.57.88.28,1.75.55,2.69.81l1.45.39c.52.13,1.05.25,1.78.37l.61.08a3.92,3.92,0,0,0,.46,0l.54,0h.33l.3,0c.21,0,.42,0,.63-.07l.31-.05.23-.05.45-.12a7,7,0,0,0,.74-.25,8.62,8.62,0,0,0,1-.48c.23-.12.5-.29.66-.39a13.31,13.31,0,0,0,1.47-1.14c.34-.31.61-.58.86-.83,1-1,1.62-1.77,2.28-2.57,1.28-1.58,2.39-3.08,3.48-4.58s2.13-3,3.14-4.5c2-3,4-6,5.89-9s3.8-6,5.43-9.19c.92-1.79,1.78-3.6,2.56-5.47l.52-10.26c0-.29,0-.57,0-.85A7.84,7.84,0,0,0,453.63,260.55ZM424.77,297h0a4.37,4.37,0,0,1-.55,0h.46Z"/><path class="cls-104" d="M449.5,342.5c4.34-4.76,3.64-17-2.58-18.68-10.14-2.71-33.25-3.31-73.88,7.89-2,.55-3.51,2.31-4.71,4.23-7.58,12.16-31,59.53-33.36,66.82-2.76,8.42,3.22,9.74,18.91-11.1,5.73-7.61,21.72-28,26.71-39.06a5.6,5.6,0,0,1,4.84-3.23C397.48,348.74,437.46,355.68,449.5,342.5Z"/><path class="cls-105" d="M414.24,329.15a11.76,11.76,0,0,0,2.59-6.19c-11.47,1.19-25.94,3.83-43.79,8.75-2,.55-3.51,2.31-4.71,4.23l-.53.86C384.36,337.76,405.94,338.24,414.24,329.15Z"/><path class="cls-105" d="M448.09,324.29c1.41,4.44.68,10.44-2.06,13.44C434,350.91,394,344,382,344.6a5.63,5.63,0,0,0-4.85,3.23c-5,11-21,31.45-26.7,39.07-7.18,9.52-12.31,14.4-15.52,16.11-2.55,8.19,3.45,9.28,19-11.35,5.73-7.61,21.72-28,26.71-39.06a5.6,5.6,0,0,1,4.84-3.23c12.05-.63,52,6.31,64.07-6.87C453.55,338.06,453.21,327.1,448.09,324.29Z"/><path class="cls-91" d="M450,254.72a7.73,7.73,0,0,0-10.9.8l-.06.06a67.33,67.33,0,0,0-6.06,8.56c-1.82,3-3.45,6-5.05,9.12s-3.26,6.1-4.93,9.09-3.34,6-5,8.49l-1.32-.22s-34.44-4.41-35.66-4.37c-1.94.07-.29,1.24-.7,3.22a4.32,4.32,0,0,0,3.34,5.11l.42.09c1.16.24,2.85.75,4.41,1.23s3.23,1.05,4.87,1.58l9.89,3.39c3.33,1.15,6.66,2.27,10.14,3.36.88.27,1.75.54,2.68.81l1.46.39c.52.13,1,.25,1.78.37l.61.08.46,0,.53,0h.34l.3,0c.21,0,.42,0,.63-.07l.31-.05.23-.05.45-.12a7,7,0,0,0,.74-.25,9.44,9.44,0,0,0,1-.48c.22-.13.5-.29.66-.4a13.06,13.06,0,0,0,1.47-1.14c.34-.31.61-.57.86-.82,1-1,1.61-1.77,2.27-2.57,1.29-1.58,2.4-3.08,3.49-4.58s2.13-3,3.13-4.5c2-3,4-6,5.9-9s3.8-6,5.43-9.19a60.41,60.41,0,0,0,4.18-9.87A7.74,7.74,0,0,0,450,254.72ZM421.1,291.2h0a4.37,4.37,0,0,1-.55,0H421Z"/><path class="cls-106" d="M450.08,254.83a7.82,7.82,0,0,1,0,4.47,60.41,60.41,0,0,1-4.18,9.87c-1.63,3.16-3.49,6.19-5.43,9.19s-3.87,6-5.9,9c-1,1.5-2,3-3.13,4.49s-2.21,3-3.49,4.58c-.66.8-1.31,1.59-2.27,2.57-.25.25-.52.52-.86.83a14.36,14.36,0,0,1-1.47,1.14l-.66.39a7.87,7.87,0,0,1-1,.48,5.24,5.24,0,0,1-.74.25l-.45.12-.23,0-.31.05-.63.08h-.64l-.53,0a3.92,3.92,0,0,1-.46,0l-.61-.08c-.74-.12-1.26-.24-1.78-.37l-1.46-.39c-.93-.26-1.8-.53-2.68-.8-3.48-1.09-6.81-2.21-10.14-3.37L391.11,294c-1.64-.54-3.27-1.1-4.87-1.59s-3.25-1-4.41-1.23l-.42-.09a4.19,4.19,0,0,1-1.18-.45,4.3,4.3,0,0,0,3.41,4l.42.09c1.16.24,2.85.75,4.41,1.23s3.23,1.05,4.87,1.58l9.89,3.39c3.33,1.15,6.66,2.27,10.14,3.36.88.27,1.75.54,2.68.81l1.46.39c.52.13,1,.25,1.78.37l.61.08.46,0,.53,0h.34l.3,0c.21,0,.42,0,.63-.07l.31-.05.23-.05.45-.12a7,7,0,0,0,.74-.25,9.44,9.44,0,0,0,1-.48c.22-.13.5-.29.66-.4a13.06,13.06,0,0,0,1.47-1.14c.34-.31.61-.57.86-.82,1-1,1.61-1.77,2.27-2.57,1.29-1.58,2.4-3.08,3.49-4.58s2.13-3,3.13-4.5c2-3,4-6,5.9-9s3.8-6,5.43-9.19a60.41,60.41,0,0,0,4.18-9.87A7.73,7.73,0,0,0,450.08,254.83Z"/><path class="cls-91" d="M389.53,289.81s-9.74-4.42-11-4.57-11.29.82-11.9.83-6.27,4.47-7,6.14-.68,5.23.1,5.3,1.07-3.41,1.07-3.41l3.08-2.64,1.81-.58s-2.36,4-2.34,4.65-.09,4.79.52,4.78,1-2.55,1.15-3.85,3.15-3.64,3.15-3.64-2.1,3.88-2,4.74-.2,3.4.76,3.3,1.33-3.42,1.33-3.42,1.59-2.9,2.28-3.35,7.67.72,11,0,8.39,1.93,9.68,1.47S393.88,290.08,389.53,289.81Z"/><path class="cls-106" d="M364.36,291.29l1.26-.41-2.31-.33-3.08,2.63s-.28,3.49-1.07,3.42h0c.1.54.28.9.52.92.79.08,1.07-3.41,1.07-3.41l3.08-2.64Z"/><path class="cls-106" d="M392.82,295c-1.37-.47-1.41-.68-2.21-.39-1.29.45-6.39-2.23-9.68-1.47s-10.27-.42-11,0-2.28,3.35-2.28,3.35-.38,3.31-1.33,3.42a.42.42,0,0,1-.16,0c.08.56.26,1,.66.93.95-.11,1.33-3.42,1.33-3.42s1.59-2.9,2.28-3.35,7.67.72,11,0,8.39,1.93,9.68,1.47C392.08,295.18,392.26,295.41,392.82,295Z"/><path class="cls-106" d="M366.37,294.35a16.44,16.44,0,0,0,1.94-1.79s-3.71,1.67-3.86,3-.49,3.52-1,3.82c.07.56.2.95.38.95.61,0,1-2.55,1.15-3.85A4.68,4.68,0,0,1,366.37,294.35Z"/><path class="cls-91" d="M423.89,250.62s-2.14,6.36-1.32,7.52,9.52-7.73,10.4-10.37S423.89,250.62,423.89,250.62Z"/><path class="cls-107" d="M422.77,260.72s.48-7.59,2.22-8a4,4,0,0,1,3.27,1.06s-4.31,7.08-4.16,9.7S422.38,264.15,422.77,260.72Z"/><path class="cls-99" d="M425.79,251s11.71-6.55,12.6-8.07,2.44,1.89,3,3.86-10.67,8.45-11.33,9.13-3.56-3.43-5.06-3.15S425.79,251,425.79,251Z"/><path class="cls-99" d="M421.11,251.18a27.15,27.15,0,0,1,1.61,7.87c.21,4.37,1.42-5.68.71-9.15A4.43,4.43,0,0,0,421.11,251.18Z"/><path class="cls-99" d="M429.58,269.76s-1.74,2.15-1.88,3.16,11.29,10,15.19,9l2.27-3.3S429.72,270.1,429.58,269.76Z"/><path class="cls-100" d="M429.46,268.38s7.82-20,18.81-15.52-1.08,23.34-2.24,25.7S427.83,271.9,429.46,268.38Z"/><path class="cls-64" d="M417.18,218.27l1.13-.28-.13.31,2.25-.06a9.86,9.86,0,0,1,2.84,1.14c.46.53-1.39-.24-1.89-.16a38.15,38.15,0,0,1-4,.27C417.13,219.4,417.18,218.27,417.18,218.27Z"/><path class="cls-78" d="M415,400.26V362.82H423v37.44l26.15,13-2.08,4.19s-28.35-15.77-57.25,0l-3.67-3.2Z"/><polygon class="cls-79" points="416.51 364.24 416.51 401.68 387.75 415.69 386.15 414.29 414.95 400.26 414.95 362.82 423 362.82 423 364.24 416.51 364.24"/><polygon class="cls-79" points="424.56 401.68 424.56 401.04 449.15 413.3 448.89 413.82 424.56 401.68"/><path class="cls-79" d="M447.07,414.72l-26.15-13V364.24h-6v-1.42H423v37.44l26.15,13-2.08,4.19s-.39-.21-1.1-.56Z"/><rect class="cls-80" x="413.71" y="362.82" width="11" height="18.46" rx="2.88" transform="translate(838.42 744.09) rotate(180)"/><path class="cls-81" d="M415,379.87h5.24a2.88,2.88,0,0,0,2.88-2.88V364.3a2.8,2.8,0,0,0-.32-1.29,2.86,2.86,0,0,1,1.88,2.69v12.69a2.89,2.89,0,0,1-2.88,2.89H416.6a2.89,2.89,0,0,1-2.57-1.6A2.78,2.78,0,0,0,415,379.87Z"/><path class="cls-78" d="M398.54,366.28h37.75a9.54,9.54,0,0,0,9.54-9.54H389A9.54,9.54,0,0,0,398.54,366.28Z"/><path class="cls-78" d="M441.5,418.47a5.57,5.57,0,1,1,5.57,5.56A5.57,5.57,0,0,1,441.5,418.47Z"/><path class="cls-82" d="M443.36,418.47a3.71,3.71,0,1,1,3.71,3.7A3.71,3.71,0,0,1,443.36,418.47Z"/><path class="cls-78" d="M384.26,418.47a5.57,5.57,0,1,1,5.56,5.56A5.56,5.56,0,0,1,384.26,418.47Z"/><path class="cls-82" d="M386.12,418.47a3.71,3.71,0,1,1,3.7,3.7A3.7,3.7,0,0,1,386.12,418.47Z"/><path class="cls-77" d="M386.4,360.56h62a8,8,0,0,0,7.95-7.95h0a8,8,0,0,0-7.95-7.95h-62a8,8,0,0,0-8,7.95h0A8,8,0,0,0,386.4,360.56Z"/><path class="cls-83" d="M378.63,354.3a7.81,7.81,0,0,1-.19-1.69,8,8,0,0,1,8-7.95h60.72C433,363.08,402.1,357.19,378.63,354.3Z"/><path class="cls-84" d="M385.73,357.85h62a8,8,0,0,0,8-8c0-.18,0-.35,0-.53a8,8,0,0,1-7.26,11.19h-62a7.94,7.94,0,0,1-7.93-7.42A8,8,0,0,0,385.73,357.85Z"/><path class="cls-77" d="M461.75,267.87l-5.34,58.74a4.76,4.76,0,0,0,4.31,5.16h0a4.75,4.75,0,0,0,5.16-4.3l5.33-58.74a4.75,4.75,0,0,0-4.3-5.16h0A4.74,4.74,0,0,0,461.75,267.87Z"/><path class="cls-85" d="M461.75,267.87a4.74,4.74,0,0,1,5.16-4.3,6.33,6.33,0,0,1,.78.15,4.76,4.76,0,0,0-3.53,4.15l-5.33,58.74a4.75,4.75,0,0,0,3.52,5,4.92,4.92,0,0,1-1.63.15,4.76,4.76,0,0,1-4.31-5.16Z"/><path class="cls-78" d="M452.66,352.79a2,2,0,0,0,2.22,1.71h0a21.55,21.55,0,0,0,18.77-21.66l-2.09-39a4.5,4.5,0,0,0-4.55-4.26h0l2.31,43.31a17.22,17.22,0,0,1-15,17.31h0a2,2,0,0,0-1.71,2.22Z"/><path class="cls-86" d="M453.8,353.63A21.56,21.56,0,0,0,472.57,332l-2.08-39a4.53,4.53,0,0,0-1.18-2.78,4.5,4.5,0,0,1,2.25,3.65l2.09,39a21.55,21.55,0,0,1-18.77,21.66,2,2,0,0,1-2-1A2,2,0,0,0,453.8,353.63Z"/><path class="cls-78" d="M392.33,356.74h0a2.1,2.1,0,0,0,2.11-2.11v-1.2c0-14.58,16.64-26.44,37.09-26.44h6c4.71,0,8.69,2.63,8.69,5.75v18.44a2.11,2.11,0,0,0,2.11,2.12h0a2.11,2.11,0,0,0,2.11-2.12V332.74c0-5.5-5.79-10-12.91-10h-6c-22.78,0-41.31,13.76-41.31,30.67v1.2A2.1,2.1,0,0,0,392.33,356.74Z"/><path class="cls-87" d="M431.53,322.76h6c7.12,0,12.91,4.48,12.91,10v1.5c0-5.5-5.79-10-12.91-10h-6c-22.68,0-41.14,13.64-41.31,30.45v-1.28C390.22,336.52,408.75,322.76,431.53,322.76Z"/><path class="cls-97" d="M331.51,299.81l-20.89-50.62a1.21,1.21,0,0,0-1.57-.65h0a1.21,1.21,0,0,0-.65,1.57l20.89,50.62a1.21,1.21,0,0,0,1.57.65h0A1.21,1.21,0,0,0,331.51,299.81Z"/><path class="cls-98" d="M329.11,302.43h52.36a2.41,2.41,0,0,0,2.4-2.4h0a2.41,2.41,0,0,0-2.4-2.4H329.11a2.41,2.41,0,0,0-2.4,2.4h0A2.41,2.41,0,0,0,329.11,302.43Z"/><path class="cls-108" d="M338.19,394.9a13.17,13.17,0,0,1-5.44,3.58c-3,.8-20.6-7.71-23.15-7.34s-4.86,2.54,5,11.81c8.77,8.23,12.54,9.42,18.86,11.42,5.63,1.77,8.89-8.83,8.89-8.83a49.19,49.19,0,0,1,4.36-4.87C348.41,399.2,338.19,394.9,338.19,394.9Z"/><path class="cls-109" d="M340,396.08s-4.23,5.38-6.21,5.51-15.57-3.71-18.84-5.51"/><path class="cls-110" d="M343.66,397.83s-.11.15-.32.4"/><path class="cls-111" d="M342.69,399c-1.73,2-5.39,5.94-7.92,6.45-3.63.72-16.38-4-20.85-6.14"/><path class="cls-110" d="M313.45,399.09l-.45-.23"/><path class="cls-54" d="M312.14,400.51c2.49-1.42,4.21-5.05,5-7-3.58-1.38-6.6-2.47-7.54-2.33C307.28,391.47,305.17,393.29,312.14,400.51Z"/><path class="cls-55" d="M333.47,414.37c-6.32-2-10.09-3.19-18.86-11.42-7.22-6.78-7.92-9.77-6.78-11-2.41.56-4,3,5.56,12,9,8.43,12.84,9.65,19.32,11.69,3.77,1.19,6.5-3,7.94-6.1C339.15,412.33,336.7,415.38,333.47,414.37Z"/><path class="cls-56" d="M316.68,399.65a.81.81,0,1,1,.81-.81A.81.81,0,0,1,316.68,399.65Z"/><path class="cls-55" d="M316.68,398.16a.68.68,0,1,1-.69.68.68.68,0,0,1,.69-.68m0-.26a.94.94,0,1,0,.94.94.94.94,0,0,0-.94-.94Z"/><path class="cls-112" d="M316.68,398.84a11.72,11.72,0,0,0,1.86-4.83"/><path class="cls-56" d="M318.79,400.35a.81.81,0,1,1,.81-.81A.81.81,0,0,1,318.79,400.35Z"/><path class="cls-55" d="M318.79,398.86a.68.68,0,0,1,.68.68.69.69,0,1,1-.68-.68m0-.26a.94.94,0,1,0,.94.94.94.94,0,0,0-.94-.94Z"/><path class="cls-112" d="M318.79,399.54a11.72,11.72,0,0,0,1.86-4.83"/><path class="cls-56" d="M320.9,401.06a.82.82,0,1,1,.81-.81A.81.81,0,0,1,320.9,401.06Z"/><path class="cls-55" d="M320.9,399.56a.69.69,0,1,1-.68.69.68.68,0,0,1,.68-.69m0-.25a.94.94,0,1,0,.94.94.94.94,0,0,0-.94-.94Z"/><path class="cls-112" d="M320.9,400.25a11.64,11.64,0,0,0,1.86-4.83"/><path class="cls-56" d="M323,401.76a.81.81,0,1,1,.81-.81A.81.81,0,0,1,323,401.76Z"/><path class="cls-55" d="M323,400.27a.68.68,0,1,1-.68.68.67.67,0,0,1,.68-.68m0-.26a.94.94,0,1,0,.94.94A.94.94,0,0,0,323,400Z"/><path class="cls-112" d="M323,401a11.57,11.57,0,0,0,1.86-4.83"/><path class="cls-56" d="M325.83,402.69a.81.81,0,0,1-.14-1.61h.14a.81.81,0,0,1,.14,1.61Z"/><path class="cls-55" d="M325.83,401.19a.68.68,0,0,1,.67.57.67.67,0,0,1-.55.79h-.12a.67.67,0,0,1-.67-.57.68.68,0,0,1,.55-.79h.12m0-.25h-.16a.94.94,0,0,0,.16,1.87l.16,0a1,1,0,0,0,.61-.38.95.95,0,0,0-.77-1.48Z"/><path class="cls-112" d="M325.83,401.88a11.45,11.45,0,0,0,1-5.06"/><path class="cls-56" d="M329,403.37a.81.81,0,1,1,.75-1.12.83.83,0,0,1,0,.62.79.79,0,0,1-.44.44A.81.81,0,0,1,329,403.37Z"/><path class="cls-55" d="M329,401.88a.68.68,0,0,1,.63.42.67.67,0,0,1-.37.89.6.6,0,0,1-.26.05.68.68,0,0,1-.63-.42.67.67,0,0,1,.37-.89.6.6,0,0,1,.26-.05m0-.26a.92.92,0,0,0-.36.07,1,1,0,0,0-.51.51,1,1,0,0,0,0,.72,1,1,0,0,0,.87.58.92.92,0,0,0,.36-.07,1,1,0,0,0,.51-.51,1,1,0,0,0,0-.72,1,1,0,0,0-.87-.58Z"/><path class="cls-112" d="M329,402.56a12.4,12.4,0,0,0-.11-5.33"/><path class="cls-56" d="M332,404.06a.81.81,0,0,1-.44-1.5.84.84,0,0,1,.44-.13.8.8,0,0,1,.68.38.82.82,0,0,1-.24,1.12A.9.9,0,0,1,332,404.06Z"/><path class="cls-55" d="M332,402.56a.67.67,0,0,1,.57.32.68.68,0,0,1-.2.94.75.75,0,0,1-.37.11.67.67,0,0,1-.58-.32.68.68,0,0,1,.21-.94.7.7,0,0,1,.37-.11m0-.26h0a1,1,0,0,0-.51.15,1,1,0,0,0-.41.59.94.94,0,0,0,.92,1.14.89.89,0,0,0,.5-.15.93.93,0,0,0,.29-1.29,1,1,0,0,0-.79-.44Z"/><path class="cls-112" d="M332,403.24a11.81,11.81,0,0,0-1-5.1"/><path class="cls-56" d="M335.45,404.05a.81.81,0,0,1-.57-1.38.82.82,0,0,1,.57-.24.84.84,0,0,1,.58.24.83.83,0,0,1,0,1.15A.82.82,0,0,1,335.45,404.05Z"/><path class="cls-55" d="M335.45,402.56a.67.67,0,0,1,.48.2.69.69,0,0,1,0,1,.71.71,0,0,1-.49.2.69.69,0,0,1-.48-.2.68.68,0,0,1,0-1,.69.69,0,0,1,.48-.2m0-.26h0a.91.91,0,0,0-.66.28.94.94,0,0,0,0,1.33.91.91,0,0,0,.66.27.92.92,0,0,0,.94-.94,1,1,0,0,0-.27-.66,1,1,0,0,0-.67-.28Z"/><path class="cls-112" d="M335.45,403.24a14.9,14.9,0,0,0-2.39-5.09"/><path class="cls-56" d="M338.19,402.31a.8.8,0,0,1-.5-.17.81.81,0,0,1,.5-1.45.79.79,0,0,1,.49.17.81.81,0,0,1-.49,1.45Z"/><path class="cls-55" d="M338.19,400.82a.64.64,0,0,1,.41.14.69.69,0,0,1,.13,1,.7.7,0,0,1-.54.26.65.65,0,0,1-.42-.14.68.68,0,0,1,.42-1.22m0-.26h0a.92.92,0,0,0-.75.37.93.93,0,0,0,.17,1.31,1,1,0,0,0,.58.2.94.94,0,0,0,.57-1.68.92.92,0,0,0-.57-.2Z"/><path class="cls-112" d="M338.19,401.5a13.13,13.13,0,0,0-2.83-4.68"/><path class="cls-56" d="M340.65,400a.86.86,0,0,1-.27,0,.75.75,0,0,1-.46-.41.79.79,0,0,1,0-.62.81.81,0,0,1,.77-.54.84.84,0,0,1,.27,0,.81.81,0,0,1-.27,1.58Z"/><path class="cls-55" d="M340.65,398.46a.85.85,0,0,1,.22,0,.68.68,0,0,1,.42.87.67.67,0,0,1-.64.46.62.62,0,0,1-.23,0,.69.69,0,0,1-.42-.87.7.7,0,0,1,.65-.46m0-.25h0a.94.94,0,0,0-.31,1.82.81.81,0,0,0,.31.06.94.94,0,0,0,.31-1.83,1.12,1.12,0,0,0-.31-.05Z"/><path class="cls-112" d="M340.65,399.15a6.83,6.83,0,0,0-3.19-3.73"/><path class="cls-113" d="M362.08,393.41s-.25,5.3-1.75,7.92-19.5,9-21,11S336.46,417,349.67,417c11.75,0,9.08-3.31,19-4.08,6.48-.5,4-12.35,4-12.35s-.14-5.87,0-8S362.08,393.41,362.08,393.41Z"/><path class="cls-114" d="M366.89,392.66s.3,9.53-1.08,10.9-13.84,7.24-17.39,8"/><path class="cls-54" d="M346.34,408.6c-3.5,1.56-6.44,2.95-7,3.71-1.5,2-2.87,4.65,10.34,4.67h.55C351.62,414.23,348.86,410.89,346.34,408.6Z"/><path class="cls-55" d="M371.45,394.08s0-.06,0-.09,0,.24,0,.36A2.53,2.53,0,0,0,371.45,394.08Z"/><path class="cls-55" d="M368.67,412.9c-9.92.77-7.25,4.1-19,4.08-7.74,0-10.47-.92-11.11-2.07-.69,1.7.55,3.38,11.11,3.4,11.75,0,9.08-3.32,19-4.08,3.43-.27,4.59-4,4.47-7.46C373,409.79,371.66,412.67,368.67,412.9Z"/><path class="cls-115" d="M369.74,393.58s0,.18.05.49"/><path class="cls-116" d="M369.87,395.07c.18,2.58.34,7.82-1.07,9.9-2,3-14.11,8.46-18.67,10"/><path class="cls-115" d="M349.65,415.18l-.47.15"/><path class="cls-56" d="M351.71,413.59a.8.8,0,0,1-.56-1.36.79.79,0,0,1,.56-.23.8.8,0,0,1,.56.24.79.79,0,0,1-.56,1.35Z"/><path class="cls-55" d="M351.71,412.13a.63.63,0,0,1,.47.2.66.66,0,0,1-.47,1.13.63.63,0,0,1-.47-.2.66.66,0,0,1,.47-1.13m0-.25h0a.9.9,0,0,0-.64.26.92.92,0,0,0,0,1.3.88.88,0,0,0,.65.27.94.94,0,0,0,.65-.26.91.91,0,0,0,.27-.65,1,1,0,0,0-.27-.65.91.91,0,0,0-.65-.27Z"/><path class="cls-117" d="M351.71,412.8s-1.54-4.51-3.65-5"/><path class="cls-56" d="M353.66,412.63a.84.84,0,0,1-.57-.24.82.82,0,0,1-.22-.56.79.79,0,0,1,.23-.56.83.83,0,0,1,.56-.23.8.8,0,0,1,.56.24.79.79,0,0,1,.23.56.76.76,0,0,1-.24.56A.79.79,0,0,1,353.66,412.63Z"/><path class="cls-55" d="M353.66,411.17a.63.63,0,0,1,.47.2.66.66,0,0,1-.47,1.13.65.65,0,0,1-.48-.2.67.67,0,0,1,0-.94.66.66,0,0,1,.47-.19m0-.25a.94.94,0,0,0-.65.26.92.92,0,0,0,0,1.3.88.88,0,0,0,.65.27.9.9,0,0,0,.91-.91.88.88,0,0,0-.26-.65.89.89,0,0,0-.65-.27Z"/><path class="cls-117" d="M353.66,411.83a5.68,5.68,0,0,0-3.4-5"/><path class="cls-56" d="M355.61,411.67a.8.8,0,0,1-.57-.24.79.79,0,0,1-.23-.56.8.8,0,0,1,.24-.56.79.79,0,0,1,.56-.23.8.8,0,0,1,.56.24.79.79,0,0,1,.23.56.8.8,0,0,1-.24.56A.81.81,0,0,1,355.61,411.67Z"/><path class="cls-55" d="M355.61,410.21a.63.63,0,0,1,.47.2.67.67,0,0,1-.47,1.13.63.63,0,0,1-.48-.2.67.67,0,0,1,.48-1.13m0-.25a.91.91,0,0,0-.65.26.93.93,0,0,0,0,1.3,1,1,0,0,0,.66.27.9.9,0,0,0,.64-.26.93.93,0,0,0,0-1.3.91.91,0,0,0-.65-.27Z"/><path class="cls-117" d="M355.61,410.87s-.36-3.94-3.23-5"/><path class="cls-56" d="M357.55,410.71a.8.8,0,0,1-.55-1.36.76.76,0,0,1,.55-.23.8.8,0,0,1,.57.24.78.78,0,0,1,.22.56.79.79,0,0,1-.23.56A.83.83,0,0,1,357.55,410.71Z"/><path class="cls-55" d="M357.55,409.25a.65.65,0,0,1,.48.2.68.68,0,1,1-.48-.2m0-.25h0a.9.9,0,0,0-.64.26.88.88,0,0,0-.27.65.9.9,0,0,0,.26.65.93.93,0,0,0,.65.27.91.91,0,0,0,.65-1.56.88.88,0,0,0-.65-.27Z"/><path class="cls-117" d="M357.55,409.91s-.3-3.65-3.23-4.9"/><path class="cls-56" d="M360.14,409.42a.8.8,0,0,1-.77-.66.77.77,0,0,1,.13-.59.8.8,0,0,1,.65-.34.74.74,0,0,1,.45.15.79.79,0,0,1,.19,1.1A.8.8,0,0,1,360.14,409.42Z"/><path class="cls-55" d="M360.15,408a.68.68,0,0,1,.38.12.67.67,0,0,1,.16.93.68.68,0,0,1-.54.28.69.69,0,0,1-.39-.12.67.67,0,0,1-.16-.93.68.68,0,0,1,.55-.28m0-.25h0a.91.91,0,0,0-.75.38.94.94,0,0,0-.16.69.91.91,0,0,0,.91.76.92.92,0,0,0,.53-1.66.93.93,0,0,0-.53-.17Z"/><path class="cls-117" d="M360.15,408.62s-1.11-3.31-3.88-4.56"/><path class="cls-56" d="M362.81,407.72a.81.81,0,0,1-.31-.06.79.79,0,0,1-.43-.43.8.8,0,0,1,0-.61.79.79,0,0,1,.73-.48.85.85,0,0,1,.31.06.79.79,0,0,1-.31,1.52Z"/><path class="cls-55" d="M362.81,406.26a.62.62,0,0,1,.26.06.65.65,0,0,1,.35.87.67.67,0,0,1-.61.41.58.58,0,0,1-.26-.06.67.67,0,0,1-.36-.87.69.69,0,0,1,.62-.41m0-.25h0a.93.93,0,0,0-.85.56.92.92,0,0,0,.49,1.2.86.86,0,0,0,.36.08.92.92,0,0,0,.85-1.26.89.89,0,0,0-.49-.5.94.94,0,0,0-.36-.08Z"/><path class="cls-117" d="M362.81,406.93a17,17,0,0,0-4.35-4.25"/><path class="cls-56" d="M365.39,406.11l-.17,0a.79.79,0,0,1,.17-1.57l.17,0a.79.79,0,0,1,.6.95A.8.8,0,0,1,365.39,406.11Z"/><path class="cls-55" d="M365.39,404.65h.15a.67.67,0,0,1-.15,1.32.32.32,0,0,1-.14,0,.66.66,0,0,1,.14-1.31m0-.25h0a.92.92,0,0,0-.89.71.88.88,0,0,0,.12.69.92.92,0,0,0,.57.41l.2,0a.92.92,0,0,0,.78-1.41,1,1,0,0,0-.58-.4.65.65,0,0,0-.2,0Z"/><path class="cls-117" d="M365.39,405.31s-2.86-3.18-5.24-4"/><path class="cls-56" d="M367.76,403.76a.79.79,0,1,1,.79-.79.79.79,0,0,1-.79.79Z"/><path class="cls-55" d="M367.76,402.3h0a.67.67,0,0,1,0,1.34h0a.67.67,0,1,1,0-1.34m0-.25h0a.92.92,0,1,0,.92.92.93.93,0,0,0-.92-.92Z"/><path class="cls-117" d="M367.76,403s-4-3-6.52-3.28"/><path class="cls-56" d="M368.46,400.68a.79.79,0,0,1-.1-1.58h0a.82.82,0,0,1,.87.69.8.8,0,0,1-.17.58.74.74,0,0,1-.52.3Z"/><path class="cls-55" d="M368.46,399.22a.67.67,0,0,1,.08,1.33h-.08a.67.67,0,0,1-.08-1.33h.08m0-.25h-.11a.91.91,0,0,0,.11,1.82h.11a.93.93,0,0,0,.61-.35.91.91,0,0,0,.19-.68.93.93,0,0,0-.91-.8Z"/><path class="cls-117" d="M368.46,399.89s-4.44-2.06-7-2"/><path class="cls-56" d="M368.56,397.36a.79.79,0,0,1-.72-.46.78.78,0,0,1,0-.6.79.79,0,0,1,.41-.45.76.76,0,0,1,.33-.08.8.8,0,0,1,.72.45.79.79,0,0,1-.38,1.06A.76.76,0,0,1,368.56,397.36Z"/><path class="cls-55" d="M368.55,395.9a.68.68,0,0,1,.61.38.67.67,0,0,1-.32.89.71.71,0,0,1-.28.06.67.67,0,0,1-.29-1.27.71.71,0,0,1,.28-.06m0-.25h0a.92.92,0,0,0-.39.09.91.91,0,0,0-.43,1.22.91.91,0,0,0,1.22.43.91.91,0,0,0-.4-1.74Z"/><path class="cls-117" d="M368.56,396.56s-4.35-1.5-6.72-.66"/><rect class="cls-78" x="247.03" y="284.22" width="10.92" height="16.78"/><rect class="cls-118" x="247.03" y="284.22" width="10.92" height="3.53"/><rect class="cls-78" x="211.49" y="224.96" width="82" height="60.72" rx="4.79"/><path class="cls-119" d="M290.07,225.19a4.54,4.54,0,0,1,.17,1.18v51.14a4.8,4.8,0,0,1-4.79,4.79H213a4.8,4.8,0,0,1-1.37-.23,4.78,4.78,0,0,0,4.62,3.61H288.7a4.79,4.79,0,0,0,4.79-4.79V229.75A4.77,4.77,0,0,0,290.07,225.19Z"/><ellipse class="cls-120" cx="252.49" cy="300.75" rx="28.58" ry="3.63"/><path class="cls-118" d="M270.75,301.57H234.22a.87.87,0,0,1-.86-.86h0a6.28,6.28,0,0,1,6.28-6.28h25.7a6.28,6.28,0,0,1,6.27,6.28h0A.86.86,0,0,1,270.75,301.57Z"/><rect class="cls-121" x="232.05" y="250" width="40.87" height="26.14" rx="2"/><path class="cls-122" d="M261.13,274.81h0a.49.49,0,0,1-.49-.48v-6.69a.48.48,0,0,1,.49-.48h0a.48.48,0,0,1,.48.48v6.69A.49.49,0,0,1,261.13,274.81Z"/><path class="cls-122" d="M262.75,274.81h0a.49.49,0,0,1-.48-.48v-6.69a.48.48,0,0,1,.48-.48h0a.48.48,0,0,1,.49.48v6.69A.49.49,0,0,1,262.75,274.81Z"/><path class="cls-122" d="M264.38,274.81h0a.49.49,0,0,1-.49-.48v-6.69a.48.48,0,0,1,.49-.48h0a.48.48,0,0,1,.48.48v6.69A.49.49,0,0,1,264.38,274.81Z"/><path class="cls-122" d="M266,274.81h0a.49.49,0,0,1-.48-.48v-6.69a.48.48,0,0,1,.48-.48h0a.48.48,0,0,1,.49.48v6.69A.49.49,0,0,1,266,274.81Z"/><path class="cls-122" d="M267.63,274.81h0a.49.49,0,0,1-.49-.48v-6.69a.48.48,0,0,1,.49-.48h0a.48.48,0,0,1,.48.48v6.69A.49.49,0,0,1,267.63,274.81Z"/><path class="cls-122" d="M269.25,274.81h0a.49.49,0,0,1-.48-.48v-6.69a.48.48,0,0,1,.48-.48h0a.48.48,0,0,1,.49.48v6.69A.49.49,0,0,1,269.25,274.81Z"/><path class="cls-122" d="M270.88,274.81h0a.49.49,0,0,1-.49-.48v-6.69a.48.48,0,0,1,.49-.48h0a.48.48,0,0,1,.48.48v6.69A.49.49,0,0,1,270.88,274.81Z"/><ellipse class="cls-120" cx="200.71" cy="299.75" rx="10.33" ry="2.17"/><path class="cls-92" d="M198.26,283.26h5.07a5.28,5.28,0,0,1,5.28,5.28v10.82a1.11,1.11,0,0,1-1.11,1.11H194.08a1.11,1.11,0,0,1-1.11-1.11V288.54A5.28,5.28,0,0,1,198.26,283.26Z" transform="translate(401.58 583.73) rotate(180)"/><path class="cls-123" d="M207.49,283.26h-.18v10.85a5.28,5.28,0,0,1-5.28,5.28H197a5.23,5.23,0,0,1-2.68-.76,5.24,5.24,0,0,0,4,1.84h5.06a5.27,5.27,0,0,0,5.28-5.28V284.37A1.1,1.1,0,0,0,207.49,283.26Z"/><path class="cls-124" d="M189.79,291a5.44,5.44,0,1,0,5.43-5.43A5.43,5.43,0,0,0,189.79,291Z"/><ellipse class="cls-120" cx="307.01" cy="299.03" rx="10.33" ry="2.17"/><path class="cls-121" d="M304.56,282.53h5.07a5.28,5.28,0,0,1,5.28,5.28v10.82a1.11,1.11,0,0,1-1.11,1.11H300.39a1.11,1.11,0,0,1-1.11-1.11V287.81A5.28,5.28,0,0,1,304.56,282.53Z" transform="translate(614.19 582.28) rotate(180)"/><path class="cls-125" d="M313.8,282.53h-.19v10.85a5.27,5.27,0,0,1-5.27,5.28h-5.07a5.32,5.32,0,0,1-2.69-.75,5.27,5.27,0,0,0,4,1.83h5.07a5.28,5.28,0,0,0,5.28-5.27V283.64A1.11,1.11,0,0,0,313.8,282.53Z"/><path class="cls-126" d="M296.1,290.31a5.43,5.43,0,1,0,5.43-5.44A5.43,5.43,0,0,0,296.1,290.31Z"/></g></g></svg>