<svg width="1100" height="800" xmlns="http://www.w3.org/2000/svg">
 <defs>
  <style>.cls-1{fill:#fff;}.cls-2{opacity:0.2;}.cls-3{fill:#bcbec0;}.cls-4{fill:#f4c9c3;}.cls-5{fill:#474ebb;}.cls-6{fill:#0d1929;}.cls-7{fill:none;}.cls-8{fill:#756758;}.cls-9{fill:#3b455a;}.cls-10{fill:#5d66d3;}.cls-11{fill:#c48366;}.cls-12{fill:#ebb044;}.cls-13{fill:#fbf0dd;}.cls-14{fill:#93d1b0;}.cls-15{fill:#7fc5a3;}.cls-16{fill:#d34e4e;}.cls-17{fill:#f7f7f7;}.cls-18{opacity:0.22;}.cls-19{fill:#f9f9f9;}.cls-20{opacity:0.31;}.cls-21{fill:#737373;}.cls-22{fill:#545fc6;}.cls-23{fill:#465268;}</style>
 </defs>
 <title>filesUpload</title>
 <g>
  <title>background</title>
  <rect fill="none" id="canvas_background" height="402" width="582" y="-1" x="-1"/>
 </g>
 <g>
  <title>Layer 1</title>
  <g id="background"/>
  <g id="shadow">
   <g id="svg_2" class="cls-2">
    <path id="svg_3" d="m846.36,540.54c33.21,1.9 66.52,-1 99.67,2.45c16.3,1.72 33.09,4.69 47.69,11.76c5.38,2.6 14.74,6.67 16,12.58c1.31,6.34 -5.68,8.59 -6.25,14.29c-0.39,3.86 4.73,9.34 5.26,13.75c1.12,9.28 -4,17.69 -9.93,24.9c-11.08,13.52 -4.16,24.94 -9.48,41.63c-2,6.21 -2.47,13.11 -5.22,18.87c-15.39,32.17 -213.11,29.63 -264,30c-115.54,0.79 -231.08,-0.53 -346.59,-2.59c-34.38,-0.61 -68.78,-1.63 -103.17,-2.36c-20.13,-0.43 -40.26,-0.75 -60.38,-0.83c-30.19,-0.12 -64.95,6.46 -93.5,-8.6c-49.88,-26.3 14.3,-52 1.78,-81.13l0,0c-5.53,-12.87 -28.38,-14.41 -38.54,-17.62c-4.69,-1.49 -9.65,-3.16 -12.93,-7.45c-17.42,-22.77 19.89,-47 34,-50.16c28.67,-6.49 59.89,-3.34 88.93,-3.83c219.05,-3.76 438.76,-8.2 656.66,4.34z" class="cls-3"/>
   </g>
  </g>
  <g id="object">
   <polygon id="svg_4" points="617.1 298.39 606.1 294.68 607.48 289.91 615.58 290.78 615.18 288.22 624.21 292.54 623.44 297.69 617.1 298.39" class="cls-4"/>
   <polygon id="svg_5" points="702.17 254.77 671.66 288.08 619.56 288.88 619.46 299.23 681.18 311.92 724.36 274.85 702.17 254.77" class="cls-5"/>
   <path id="svg_6" d="m731.79,235.15a15,15 0 0 0 1.1,-8.6c-0.82,-6.25 -4.64,-12.3 -10.38,-14.52c-8.84,-3.41 -18.79,2.77 -28,0.55a43.77,43.77 0 0 0 -1.41,11.31a22.49,22.49 0 0 0 12.9,19.11a21.3,21.3 0 0 0 22.3,-3.45a14.41,14.41 0 0 0 3.49,-4.4z" class="cls-4"/>
   <polygon id="svg_7" points="696.42 215.77 725.72 217.13 727.65 240 736.84 234.91 738.62 198.3 698.21 190.7 678.95 198.08 677.97 208.53 691.92 221.7 696.42 215.77" class="cls-6"/>
   <path id="svg_8" d="m702.53,252.93l32.92,-5.37s28.55,29.44 44.33,73.95s-9.11,110 -9.11,110s-90.58,-12.73 -105.44,-14.71l23.35,-92.51l13.95,-71.36z" class="cls-5"/>
   <path id="svg_9" d="m721.88,241.62a34.17,34.17 0 0 0 3.61,7.48l-12.7,2.59q-0.91,-4.49 -1.84,-8.95l9.48,-0.64l1.45,-0.48z" class="cls-4"/>
   <path id="svg_10" d="m455.7,186.88a8.4,8.4 0 0 0 -1,4.61c0.35,-1.49 0.68,-3.07 1,-4.61z" class="cls-7"/>
   <polygon id="svg_11" points="393.37 526.24 392.75 528.24 390.66 534.85 401.81 545.64 410.51 541.1 405.98 532.4 405.49 531.93 405.02 532.64 393.37 526.24" class="cls-8"/>
   <path id="svg_12" d="m453.57,351.68c-6.22,1.18 -12.56,2.86 -18.1,6a50.84,50.84 0 0 0 -7.08,5.14l-0.49,74.71l-35.18,88.33l0.65,0.35l1.46,-4.62l10.66,10.31l64.51,-99.48l3.41,-12.15l-11.66,-70c-2.75,0.42 -5.46,0.89 -8.18,1.41z" class="cls-9"/>
   <polygon id="svg_13" points="393.37 526.24 405.02 532.64 405.49 531.93 394.83 521.62 393.37 526.24" class="cls-9"/>
   <path id="svg_14" d="m479.23,399.57l-5.81,20.7l1.33,8l8.1,105.35l0.08,0l0,-1.53l13,0l16.46,-112.64l-0.8,-68.94c-3,-0.31 -16.65,-1.69 -26.16,-1.89l-6.2,50.95z" class="cls-9"/>
   <path id="svg_15" d="m485.41,348.58c-1.27,0 -2.47,0 -3.55,0a155.89,155.89 0 0 0 -20.1,1.72l11.66,70l5.81,-20.7l6.18,-51.02z" class="cls-9"/>
   <polygon id="svg_16" points="482.93 533.58 482.93 538.99 496.8 545.92 503.74 538.99 496.8 532.05 495.91 532.05 495.68 533.58 482.93 533.58" class="cls-8"/>
   <polygon id="svg_17" points="482.93 533.58 495.68 533.58 495.91 532.05 482.93 532.05 482.93 533.58" class="cls-8"/>
   <path id="svg_18" d="m472.61,215.49c0.49,-1.81 1,-3.57 2.56,-4.48s3.21,-0.59 4.76,-1.13c2.92,-1 4.18,-4.37 5.07,-7.32c0.78,-2.57 1.55,-5.14 2.33,-7.71a36.32,36.32 0 0 0 0.93,-3.55c-4.44,-1.66 -8.59,-4.7 -13.22,-5.86c-5.2,-1.3 -14.68,-3.23 -19.07,1.12a4.15,4.15 0 0 0 -0.27,0.32c-0.32,1.54 -0.65,3.07 -1,4.61c0,4.34 1.15,10 1,12.31a10.49,10.49 0 0 1 -1.85,-0.83c1.36,2.19 4.19,3.56 6.73,4.56a59.33,59.33 0 0 0 -1,9.5l0.46,0.06c4.22,-0.54 8.45,-0.93 12.15,-1.54l0.42,-0.06z" class="cls-4"/>
   <path id="svg_19" d="m453.45,197.57q0.63,-3 1.28,-6.08a8.4,8.4 0 0 1 1,-4.61c0.2,-0.91 0.39,-1.83 0.58,-2.74a12.07,12.07 0 0 1 1.57,-4.45c1.58,-2.29 4.5,-3.21 7.25,-3.58c7,-1 14.58,0.83 19.82,5.61a10.83,10.83 0 0 1 3.22,4.57a10.35,10.35 0 0 1 0.12,5a18.91,18.91 0 0 0 3,0.87c4.06,0.77 9.33,-1 12.87,-3c4.38,-2.44 6.65,-10 9.3,-14a29.13,29.13 0 0 1 2.37,-3.15c1.87,-2.14 4.15,-3.95 5.68,-6.34s2.16,-5.7 0.51,-8a8.75,8.75 0 0 0 -4.58,-2.87a34.14,34.14 0 0 0 -17.9,-1c-5.63,1.22 -10.71,3.39 -16.25,1.08c-5.2,-2.16 -9,-1.5 -14.62,0.26c-6.05,1.91 -14.08,2.12 -19.59,4.93a15.85,15.85 0 0 0 -5.65,5.18a24,24 0 0 0 -1,25.38a34.4,34.4 0 0 0 3.57,4.85c2.25,2.64 4.88,5.78 7.91,7.49a5.24,5.24 0 0 1 -0.76,-2.11a10,10 0 0 1 0.3,-3.29z" class="cls-9"/>
   <path id="svg_20" d="m454.73,191.49q-0.64,3 -1.28,6.08a10,10 0 0 0 -0.32,3.29a5.24,5.24 0 0 0 0.76,2.11a10.49,10.49 0 0 0 1.85,0.83c0.14,-2.3 -1.03,-7.97 -1.01,-12.31z" class="cls-9"/>
   <path id="svg_21" d="m488.14,186.29a10.83,10.83 0 0 0 -3.22,-4.57c-5.24,-4.78 -12.79,-6.57 -19.82,-5.61c-2.75,0.37 -5.67,1.29 -7.25,3.58a12.07,12.07 0 0 0 -1.57,4.45c-0.19,0.91 -0.38,1.83 -0.58,2.74a4.15,4.15 0 0 1 0.27,-0.32c4.39,-4.35 13.87,-2.42 19.07,-1.12c4.63,1.16 8.78,4.2 13.22,5.86a10.35,10.35 0 0 0 -0.12,-5.01z" class="cls-9"/>
   <polygon id="svg_22" points="404.18 158.68 406.9 153.04 406 151.86 404.5 152.91 405.41 147.58 403.22 143.78 397.41 143.2 392.31 146.42 392.35 152.25 395.86 158.23 396.61 160.59 404.86 160.53 404.18 158.68" class="cls-4"/>
   <path id="svg_23" d="m565.15,324.19c-2.14,-3.08 -9.4,-5.14 -12.68,-7a111.12,111.12 0 0 1 -20.54,-14.86a74.93,74.93 0 0 1 -19.36,-29.74a129.74,129.74 0 0 1 -4.75,-17.67c-0.44,-2.16 2.65,-0.36 2.27,-2.53l25.79,-0.63l-37.57,-39.28l-0.13,1.9a10.18,10.18 0 0 1 0.13,-1.9c-8.68,3.45 -16.91,1.69 -25.7,3.05l-0.38,0.06c-3.7,0.61 -7.93,1 -12.15,1.54a58.74,58.74 0 0 0 -13.35,2.87a13.63,13.63 0 0 0 -3.37,1.93l-24.7,-21.52l-10.41,-39.92l-3.39,0l-8.25,0.06l-3,0l7,63.93l25.39,35.4c-1.57,6.75 -2.89,13.48 -3.48,17.37c-1.48,9.73 -2.84,19.48 -3.91,29.26c-1.18,10.92 -2,21.89 -2.17,32.87c0,1.22 -0.2,4.64 -0.29,8.74c-0.17,8.62 0.08,20.24 3.18,20.66a2.72,2.72 0 0 0 1.65,-0.52a56.77,56.77 0 0 0 7.38,-5.41a50.84,50.84 0 0 1 7.08,-5.14c5.54,-3.17 11.88,-4.85 18.1,-6c2.72,-0.52 5.45,-1 8.19,-1.39a155.89,155.89 0 0 1 20.1,-1.72c1.08,0 2.28,0 3.55,0c9.51,0.2 23.15,1.58 26.16,1.89l0.61,0.07c5.79,-1 11.31,-3.17 16.85,-5.14c9.52,-3.38 19.24,-6.37 28.18,-11.11c2.89,-1.54 10.82,-6.04 7.97,-10.12z" class="cls-10"/>
   <polygon id="svg_24" points="954.23 507.9 939.81 571.95 926.55 648.17 913.14 648.17 907.66 462.73 951.99 463.53 954.23 507.9" class="cls-5"/>
   <polygon id="svg_25" points="869.36 503.98 867.5 566.16 886.22 648.17 898.26 648.17 899.49 561.68 912.65 490.91 915.92 468.31 879.02 463.96 869.36 503.98" class="cls-5"/>
   <path id="svg_26" d="m898.55,336.71l41.84,3.08l22.61,39c-6.65,23.69 -4,15.39 -8,36.8l12,58.95l-15.61,4.55l-56.72,1l-18.67,-3.28l5.1,-56.24l-2.65,-75.11l20.1,-8.75z" class="cls-9"/>
   <polygon id="svg_27" points="890.3 367.35 869.26 399.83 811.09 406.2 809.41 396.62 855.86 378.52 878.42 345.46 890.3 367.35" class="cls-9"/>
   <path id="svg_28" d="m900.77,300.62c6.34,-18.44 30.7,-11.53 35.72,4.9c3.28,10.71 -5,24.62 -16.1,27.7a10.15,10.15 0 0 0 -0.09,1.15a37.06,37.06 0 0 1 -0.47,5.13c-0.1,0.64 -9.82,-1.23 -10.9,-1.44a1.5,1.5 0 0 1 -1,-0.49c-0.39,-0.62 0.25,-2.41 0.32,-3.09s0.17,-1.6 0.25,-2.4c-5.48,-2.67 -8.93,-8.37 -9.9,-14.16s0.26,-11.75 2.17,-17.3z" class="cls-11"/>
   <path id="svg_29" d="m918.25,283.43a9.65,9.65 0 0 1 1.81,5.1a7.59,7.59 0 0 1 0,3.22c-1.22,4.1 -5.34,3.57 -8.65,4.67a21.41,21.41 0 0 0 -10.19,7.51c-3.89,5.25 -2.87,12.46 -1.93,18.64c0.33,2.18 1.09,5.44 -0.72,7.23s-5.71,1.22 -7.66,0.06c-1.78,-1.05 -3.17,-2.85 -5.17,-3.35s-5.09,0.2 -5.94,-1.84a12.52,12.52 0 0 0 -0.53,-1.77c-1.05,-1.79 -4.16,0 -5.74,-1.35c-1,-0.82 -0.84,-2.38 -0.4,-3.6s1.12,-2.42 1,-3.7a12.77,12.77 0 0 0 -1.26,-3.05a5.79,5.79 0 0 1 1.27,-6.07c2.88,-2.86 7.95,-1.89 11,-4.55c1.59,-1.39 2.33,-3.51 3,-5.51s1.53,-4.11 3.22,-5.38c2.08,-1.56 4.87,-1.06 6.95,-2.94c1.22,-1.11 2.09,-2.61 3.43,-3.55c1.78,-1.24 5.13,-2.05 7.26,-2.59a9.14,9.14 0 0 1 9.25,2.82z" class="cls-9"/>
   <path id="svg_30" d="m931.38,314c-0.35,6.06 -3.86,12.38 -1.47,17.92s9.35,7.09 15.3,7.83c1,0.12 13.52,2.17 13.6,1.94c1.26,-4.15 2.57,-8.38 5.05,-11.91s6.41,-6.33 10.65,-6.27c-1.2,-0.3 -1.7,-1.84 -1.47,-3.08a20.56,20.56 0 0 1 1.44,-3.51a8.51,8.51 0 0 0 -1.56,-8.69c-4.15,-4.5 -12.38,-3.39 -15.84,-8.46c-2.15,-3.14 -1.54,-7.42 -2.51,-11.13c-1.87,-7.18 -9.42,-9.23 -14.9,-12.82c-5.79,-3.8 -11.34,-6.06 -18.41,-5.43c-8.75,0.79 -15.85,9.1 -13.14,17.64c3.46,10.95 20.63,11.33 23,22.36a13.24,13.24 0 0 1 0.26,3.61z" class="cls-9"/>
   <polygon id="svg_31" points="926.55 338.81 914.22 356.24 908.42 355.77 900.55 336.85 926.55 338.81" class="cls-1"/>
   <polygon id="svg_32" points="913.14 648.17 906 657.36 912.65 664.63 921.98 656.4 926.55 648.17 913.14 648.17" class="cls-9"/>
   <polygon id="svg_33" points="885.28 648.17 878.14 657.36 884.79 664.63 894.12 656.4 898.68 648.17 885.28 648.17" class="cls-9"/>
   <path id="svg_34" d="m830.93,416.54l8,-2.8s6.19,0.5 7.58,2.17l2.44,6.47l-8.85,7.38l-7.82,-3.92l-1.35,-9.3z" class="cls-11"/>
   <path id="svg_35" d="m450.23,250.75l0,-5.63a16.76,16.76 0 0 0 -17,-16.54l-177,0a16.76,16.76 0 0 0 -17,16.54l0,298.32l422,0l0,-276.15a16.76,16.76 0 0 0 -17,-16.54l-194,0z" class="cls-12"/>
   <rect id="svg_36" height="271.88" width="388.49" y="274.59" x="257.96" class="cls-13"/>
   <path id="svg_37" d="m444.21,308.58l-6.27,16.92l-181.74,0a16.77,16.77 0 0 0 -17,16.55l0,210.64a16.77,16.77 0 0 0 17,16.54l388.05,0a16.77,16.77 0 0 0 17,-16.54l0,-238.5a16.77,16.77 0 0 0 -17,-16.54l-184.07,0a17,17 0 0 0 -15.97,10.93z" class="cls-12"/>
   <path id="svg_38" d="m694.65,380.47l0,-4.79a14.26,14.26 0 0 0 -14.44,-14.07l-150.57,0a14.26,14.26 0 0 0 -14.44,14.07l0,253.71l358.9,0l0,-234.85a14.26,14.26 0 0 0 -14.44,-14.07l-165.01,0z" class="cls-14"/>
   <rect id="svg_39" height="231.23" width="330.39" y="400.74" x="531.13" class="cls-13"/>
   <path id="svg_40" d="m689.53,429.65l-5.32,14.4l-154.57,0a14.26,14.26 0 0 0 -14.44,14.07l0,179.13a14.26,14.26 0 0 0 14.44,14.07l330,0a14.25,14.25 0 0 0 14.44,-14.07l0,-202.82a14.26,14.26 0 0 0 -14.44,-14.07l-156.52,0a14.44,14.44 0 0 0 -13.59,9.29z" class="cls-15"/>
   <path id="svg_41" d="m514.34,244l8,-2.81s6.19,0.5 7.58,2.17l2.44,6.47l-8.85,7.39l-7.82,-3.92l-1.35,-9.3z" class="cls-4"/>
   <rect id="svg_42" transform="rotate(-52.9900016784668 -217.35000610351565,437.6700134277344) " height="26.68" width="124.55" y="861.170013" x="50.699994" class="cls-16"/>
   <path id="svg_43" d="m268.62,519l-0.25,-0.19c-6.72,-5.06 -9.11,-13.23 -5.34,-18.24l42.69,-57.57l25.67,18.5l-43.78,57.63c-3.77,5.01 -12.27,4.96 -18.99,-0.13z" class="cls-16"/>
   <ellipse id="svg_44" transform="rotate(-51.52000045776367 -129.58000183105474,442.2699890136719) " ry="80.32" rx="79.73" cy="797.679989" cx="263.909998" class="cls-16"/>
   <ellipse id="svg_45" transform="rotate(-51.5099983215332 -129.58999633789065,442.2000122070313) " ry="69.1" rx="68.59" cy="797.610012" cx="263.900004" class="cls-17"/>
   <g id="svg_46" class="cls-18">
    <path id="svg_47" d="m400.42,306.3c21.92,1.7 40.58,17.7 44.83,39.28a48.49,48.49 0 0 1 -26.79,53c-5.59,2.63 -1.85,11.51 3.75,8.88a58.3,58.3 0 0 0 33.07,-60c-3.13,-24.73 -22.51,-44.53 -46.68,-49.67a54.67,54.67 0 0 0 -7.09,-1c-6.17,-0.46 -7.3,9.08 -1.09,9.55l0,-0.04z" class="cls-19"/>
   </g>
   <g id="svg_48" class="cls-20">
    <ellipse id="svg_49" transform="rotate(-51.5099983215332 -167.3699951171875,469.4299926757813) " ry="6.36" rx="6.31" cy="877.589993" cx="235.430005" class="cls-19"/>
   </g>
   <path id="svg_50" d="m306.55,443.9l24.45,17.61a2,2 0 0 0 2.68,-0.29l0.22,-0.25a2,2 0 0 0 -0.35,-3l-24.63,-17.39a2,2 0 0 0 -2.82,0.51l0,0a2,2 0 0 0 0.45,2.81z" class="cls-9"/>
   <path id="svg_51" d="m387.35,422.18a68.76,68.76 0 0 1 -62.35,-64.8a67.53,67.53 0 0 1 55.74,-70a68.5,68.5 0 0 1 74.57,95.42a67.63,67.63 0 0 1 -67.92,39.4a1.83,1.83 0 0 0 -0.31,3.65a72.45,72.45 0 0 0 46.67,-12a71.17,71.17 0 0 0 28.11,-38a72.09,72.09 0 0 0 -123.58,-68.12a71.21,71.21 0 0 0 -17,45.31a72.39,72.39 0 0 0 65.72,72.79c2.4,0.22 2.71,-3.42 0.35,-3.65z" class="cls-9"/>
   <path id="svg_52" d="m275.74,510.18l-0.18,-0.13l0.19,0.12l-0.01,0.01zm62.01,-61.78l0.1,-0.21l-0.1,0.21z" class="cls-21"/>
   <path id="svg_53" d="m186.62,352.91a20.57,20.57 0 0 0 6.46,4.06a15.57,15.57 0 0 0 1,5c-2.59,0.25 -5.08,0.53 -7.37,0.74c-0.08,-1.8 -0.15,-3.6 -0.22,-5.38a29.29,29.29 0 0 1 0.13,-4.42z" class="cls-7"/>
   <polygon id="svg_54" points="181.25 665.66 181.78 666 186.94 672.4 180.92 677.66 170.15 670.7 170.58 664.87 170.71 663.12 181.06 666.37 181.25 665.66" class="cls-6"/>
   <path id="svg_55" d="m181.21,538.51l-11.08,124.42l0.58,0.18l10.36,3.26l0.18,-0.7l25.75,-95.29l-0.15,-32.46q-12.85,0.45 -25.64,0.59z" class="cls-9"/>
   <path id="svg_56" d="m238.13,541.13l-6.48,126l-10.48,0.29l0,1.29l-0.06,0l-10,-124.86c1.32,0 19.34,-1.15 27.02,-2.72z" class="cls-9"/>
   <polygon id="svg_57" points="231.65 666.01 232.37 665.99 238.13 671.7 232.69 677.73 221.33 672.16 221.21 667.59 231.5 667.3 231.65 666.01" class="cls-6"/>
   <path id="svg_58" d="m218.29,330.27a61.08,61.08 0 0 0 -0.84,-6.34c-0.94,-5.18 -3.22,-8.89 -6.24,-11.31c-0.7,2.7 -2.61,4.91 -4.52,7l-0.22,0.24c-4.94,5.35 -10,10.7 -13.81,16.87a39.88,39.88 0 0 0 -6,16.2a20.57,20.57 0 0 0 6.46,4.06a15.57,15.57 0 0 0 1,5a2.28,2.28 0 0 0 0.49,0.71c1.51,1.41 6.48,0.27 8.42,-0.12a2.9,2.9 0 0 0 1.51,-0.62a1.51,1.51 0 0 0 0.35,-0.63a19.27,19.27 0 0 0 0.38,-4.31c5.84,-2.18 10.1,-7.67 11.92,-13.67a35.1,35.1 0 0 0 1.1,-13.08z" class="cls-4"/>
   <path id="svg_59" d="m270.12,532.83c-10.3,-13.44 -9.78,-36.16 -12.15,-52.17c-2.45,-16.48 -4.91,-33 -9,-49.15c-0.39,-1.55 -0.79,-3.1 -1.21,-4.65q-1.42,-5.17 -3.08,-10.28a229.09,229.09 0 0 0 -8.91,-23.14c-3.69,-8.23 -8.19,-21.75 -14.87,-28c-0.22,-0.2 -0.45,-0.4 -0.69,-0.59c-3.61,-2.82 -9.29,-3.61 -15.42,-3.58a1.51,1.51 0 0 1 -0.35,0.63a2.9,2.9 0 0 1 -1.51,0.62c-1.94,0.39 -6.91,1.53 -8.42,0.12a2.28,2.28 0 0 1 -0.51,-0.64c-2.59,0.25 -5.08,0.52 -7.37,0.74c0.52,12.5 1.35,25.23 4.9,37.35c0.09,0.29 0.17,0.59 0.26,0.89c4.56,14.94 8.27,30.21 12.4,45.28c0.36,1.33 0.73,2.66 1.07,4c1.42,5.53 2.5,11.17 1.78,16.8a22.8,22.8 0 0 1 -0.92,4.05a20,20 0 0 1 -5.07,8.31a14.63,14.63 0 0 1 -4.33,2.88a13.19,13.19 0 0 1 -1.77,0.61c-2.58,-3.95 -8.94,-0.16 -10.51,4.29s-1.86,10.07 -5.95,12.42c-3.23,1.84 -7.36,1 -11.45,0.47a19.63,19.63 0 0 0 -7.33,0c-2.14,0.55 -4.17,1.79 -6.1,2.44c-3.84,11.17 -10.24,20.39 -20.16,29.38c-2.1,1.9 -4.51,4.36 -3.79,7.1c0.43,1.65 1.91,2.79 3.34,3.72c14.16,9.15 32.06,9.65 48.91,9.47l0.19,0q12.83,-0.13 25.65,-0.58l8.63,-0.33l3.92,-0.17a148.45,148.45 0 0 0 23.09,-2.61c9.34,-1.92 18.36,-5.14 26,-10.65a3.64,3.64 0 0 0 1.86,-2.53a4.1,4.1 0 0 0 -1.13,-2.5z" class="cls-5"/>
   <polygon id="svg_60" points="307.73 412.17 312.41 408.55 313.68 409.15 313 410.74 317.75 408.85 321.69 410.13 323.37 415.38 321.39 420.73 316 421.83 309.78 419.76 306.16 419.4 307.14 412.08 307.73 412.17" class="cls-4"/>
   <polygon id="svg_61" points="307.61 421.44 307.28 409.39 253.8 396.12 220.23 364.87 218.13 398.31 246.59 417.2 307.61 421.44" class="cls-5"/>
   <polygon id="svg_62" points="293.81 439.38 298.58 435.89 299.84 436.53 299.12 438.11 303.91 436.35 307.82 437.73 309.35 443.03 307.22 448.32 301.8 449.28 295.65 447.04 292.03 446.57 293.22 439.28 293.81 439.38" class="cls-4"/>
   <polygon id="svg_63" points="293.8 448.65 293.47 436.6 239.99 423.33 186.67 362.69 165.35 392.84 232.79 444.41 293.8 448.65" class="cls-22"/>
   <path id="svg_64" d="m221,318.25a18.69,18.69 0 0 0 -9.6,-13.87c-0.45,0.24 -0.88,0.49 -1.31,0.75a13.71,13.71 0 0 0 -1.47,-2.16a15.73,15.73 0 0 0 -12.24,-6.11c-17.63,-0.55 -31,9.77 -36.09,26.95c-4.34,14.52 -2.47,30.05 -1.64,45.18c1.24,22.76 -3.62,49 -17.11,67.66c-5.54,7.59 -11.54,15.21 -13.81,24.35s0.37,20.23 8.66,24.59c3.24,1.71 7.11,2.29 9.92,4.63a6.1,6.1 0 0 1 0.45,9.24c2.13,3.77 4.42,3.9 6.89,3.07c1.93,-0.65 4,-1.89 6.1,-2.44a19.63,19.63 0 0 1 7.33,0c4.09,0.55 8.22,1.37 11.45,-0.47c4.09,-2.35 4.39,-8 5.95,-12.42s7.93,-8.24 10.51,-4.29a13.19,13.19 0 0 0 1.77,-0.61a14.63,14.63 0 0 0 4.33,-2.88a20,20 0 0 0 5.07,-8.31a22.8,22.8 0 0 0 0.92,-4.05c0.72,-5.63 -0.36,-11.27 -1.78,-16.8c-0.34,-1.35 -0.71,-2.68 -1.07,-4c-4.13,-15.07 -7.84,-30.34 -12.4,-45.28c-0.09,-0.3 -0.17,-0.6 -0.26,-0.89c-3.55,-12.12 -4.38,-24.85 -4.9,-37.35c-0.08,-1.8 -0.15,-3.6 -0.22,-5.38a29.29,29.29 0 0 1 0.17,-4.4a39.88,39.88 0 0 1 6,-16.2c3.85,-6.17 8.87,-11.52 13.81,-16.87l0.22,-0.24c1.91,-2.07 3.82,-4.28 4.52,-7c3,2.42 5.3,6.13 6.24,11.31a61.08,61.08 0 0 1 0.84,6.34a18.62,18.62 0 0 0 2.75,-12.05z" class="cls-9"/>
   <polygon id="svg_65" points="651.47 331.6 639.88 332.3 639.37 327.36 647.2 325.13 645.87 322.9 655.86 323.51 657.08 328.57 651.47 331.6" class="cls-4"/>
   <polygon id="svg_66" points="717.27 263.27 702.09 306.04 652.54 322.17 655.5 332.09 718.22 326.01 753.29 270.33 735.1 247.27 717.27 263.27" class="cls-22"/>
   <polygon id="svg_67" points="841.41 440.99 829.73 442.28 829.23 446.32 821.89 451.33 825.01 456.04 840.15 451.2 841.41 440.99" class="cls-11"/>
   <polygon id="svg_68" points="963 378.77 920.7 423.29 901.55 430.53 839.24 452.86 840.42 438.58 903.02 405.36 939.02 339.81 955.54 348.89 963 378.77" class="cls-23"/>
  </g>
 </g>
</svg>