<svg xmlns="http://www.w3.org/2000/svg" xmlns:xlink="http://www.w3.org/1999/xlink" viewBox="0 0 500.08 500"><defs><style>.cls-1,.cls-11{fill:#ffce68;}.cls-2{fill:#47648f;}.cls-3{fill:#798ec9;}.cls-4{fill:#ffd555;}.cls-5{fill:#dd7e62;}.cls-6{fill:#ffeaaa;}.cls-7{fill:#ffd1bb;}.cls-8{isolation:isolate;}.cls-26,.cls-9{fill:#fff;}.cls-10,.cls-18{fill:#abd5e6;}.cls-10,.cls-11{opacity:0.3;}.cls-12,.cls-14{fill:#1d262d;}.cls-12{opacity:0.1;}.cls-12,.cls-14,.cls-17,.cls-24,.cls-27{mix-blend-mode:multiply;}.cls-13{fill:#215b74;}.cls-14,.cls-17,.cls-24{opacity:0.2;}.cls-15{fill:#dc894e;}.cls-16{clip-path:url(#clip-path);}.cls-17{fill:#cc2a3a;}.cls-19{fill:#23809b;}.cls-20{clip-path:url(#clip-path-2);}.cls-21{clip-path:url(#clip-path-3);}.cls-22{clip-path:url(#clip-path-4);}.cls-23{clip-path:url(#clip-path-5);}.cls-24,.cls-27{fill:#d15579;}.cls-25{clip-path:url(#clip-path-6);}.cls-26{opacity:0.43;}.cls-27{opacity:0.5;}.cls-28{clip-path:url(#clip-path-7);}.cls-29{fill:#ffaa4d;}.cls-30{fill:#27305c;}.cls-31{clip-path:url(#clip-path-8);}.cls-32{fill:#ffa690;}.cls-33{fill:#0a303e;}.cls-34{fill:#e15c56;}</style><clipPath id="clip-path" transform="translate(0.08)"><rect class="cls-1" x="268.62" y="100.43" width="82.29" height="27.66"/></clipPath><clipPath id="clip-path-2" transform="translate(0.08)"><path class="cls-2" d="M67.67,408.22l-2,9.7s-12.37,2.69-13.12,5.52,26,.9,26,.9l2.84-16.12"/></clipPath><clipPath id="clip-path-3" transform="translate(0.08)"><path class="cls-2" d="M134.84,408.22l-.31,9.7s12.37,2.69,13.11,5.52-26,.9-26,.9l-.57-16.12"/></clipPath><clipPath id="clip-path-4" transform="translate(0.08)"><path class="cls-3" d="M84.61,294.72s-12.74,72.16-18.9,115.33c13.23,1.46,16,.57,16,.57l24.58-88.22H117.1c.8.86,3.23,88.22,3.23,88.22s11.11,1.64,15.48-.62c0,0,5-67.24,6.34-103.7Z"/></clipPath><clipPath id="clip-path-5" transform="translate(0.08)"><path class="cls-4" d="M119.81,220.35s-14,.79-17.84,4.54S89.82,254.1,84.61,294.72c20.8,21.94,57.54,11.58,57.54,11.58s1.87-74-.1-77.74C138.28,221.44,119.81,220.35,119.81,220.35Z"/></clipPath><clipPath id="clip-path-6" transform="translate(0.08)"><path class="cls-5" d="M84.65,202.71H108.9a0,0,0,0,1,0,0V339a7.38,7.38,0,0,1-7.38,7.38H92A7.38,7.38,0,0,1,84.65,339V202.71A0,0,0,0,1,84.65,202.71Z" transform="translate(334.01 105.85) rotate(74)"/></clipPath><clipPath id="clip-path-7" transform="translate(0.08)"><polygon class="cls-6" points="162.48 243.09 185.01 249.24 169.16 266.4 162.48 243.09"/></clipPath><clipPath id="clip-path-8" transform="translate(0.08)"><polyline class="cls-7" points="109.44 203.1 112.18 224.13 122.99 233.33 132 224.13 132 210.58"/></clipPath></defs><title>signup</title><g class="cls-8"><g id="BACKGROUND"><rect class="cls-9" x="0.08" width="500" height="500"/></g><g id="OBJECTS"><path class="cls-10" d="M315.61,113.64c-15,2.83-30.26-3.06-43.57-10.53-18.51-10.39-35-24-53-35.26s-38.19-20.47-59.42-20.51S116.1,58.22,107.73,77.73c-8.87,20.7-.63,44.73-4.48,66.91-6.23,36-42.68,61-48.76,97C51,262.26,58.33,283.51,70,300.86c24.84,36.91,71.25,58.85,115.24,52.15,28-4.27,53.51-19.13,74.75-37.84s38.71-41.27,56-63.67" transform="translate(0.08)"/><path class="cls-11" d="M328.4,373.05a190,190,0,0,1-14.5-19.69c-4.23-6.58-8.1-13.56-9.64-21.23-2.07-10.3.23-20.95,3.09-31.06,3.28-11.6,7.37-23.14,14.17-33.09s16.63-18.24,28.31-21.22c9.51-2.43,19.6-1.24,29.22-3.2,18.6-3.81,33-18.95,42.33-35.48,4.92-8.71,9.49-18.67,18.54-22.92,10.63-5,24.11.53,30.62,10.3s7,22.51,4.36,33.93-8.22,21.92-13.26,32.52-9.67,21.7-10.3,33.41c-1,19.33,9,38.3,6.21,57.46-1.54,10.77-7.05,20.64-14,29-5.74,7-12.63,13.16-20.77,17.05-12.19,5.84-26.57,6.14-39.62,2.62s-24.9-10.64-35.5-19" transform="translate(0.08)"/><ellipse class="cls-12" cx="249.91" cy="425.28" rx="221.04" ry="12.48"/><rect class="cls-13" x="190.27" y="104.11" width="239.17" height="319.07"/><rect class="cls-14" x="204.9" y="125.61" width="209.89" height="285.83"/><rect class="cls-9" x="204.9" y="120.73" width="209.89" height="285.83"/><polygon class="cls-15" points="189.22 123.97 189.22 103.06 210.13 103.06 189.22 123.97"/><polygon class="cls-15" points="430.48 123.97 430.48 103.06 409.57 103.06 430.48 123.97"/><polygon class="cls-15" points="189.22 404.14 189.22 425.05 210.13 425.05 189.22 404.14"/><polygon class="cls-15" points="430.48 404.14 430.48 425.05 409.57 425.05 430.48 404.14"/><path class="cls-1" d="M309.77,112h0c-8.26,0-14.95,3.81-14.95-4.44v-1.27a14.94,14.94,0,0,1,14.95-14.94h0a14.94,14.94,0,0,1,14.94,14.94v1.27C324.71,115.78,318,112,309.77,112Z" transform="translate(0.08)"/><rect class="cls-14" x="270.83" y="123.97" width="78.05" height="7.02"/><rect class="cls-1" x="268.7" y="100.43" width="82.29" height="27.66"/><g class="cls-16"><rect class="cls-17" x="260.48" y="115.63" width="100.92" height="15.86"/></g><rect class="cls-18" x="225.9" y="173.69" width="28.72" height="28.72"/><path class="cls-18" d="M257.57,205.45H222.78v-34.8h34.79Zm-33.74-1h32.69V171.7H223.83Z" transform="translate(0.08)"/><rect class="cls-18" x="225.9" y="217.69" width="28.72" height="28.72"/><path class="cls-18" d="M257.57,249.44H222.78V214.65h34.79Zm-33.74-1.05h32.69V215.7H223.83Z" transform="translate(0.08)"/><rect class="cls-18" x="225.9" y="261.68" width="28.72" height="28.72"/><path class="cls-18" d="M257.57,293.44H222.78v-34.8h34.79Zm-33.74-1.05h32.69v-32.7H223.83Z" transform="translate(0.08)"/><path class="cls-19" d="M237.62,198.1,221,181.7a2.92,2.92,0,1,1,4.11-4.15l12.23,12.1,19.42-21.44a2.92,2.92,0,1,1,4.33,3.92Z" transform="translate(0.08)"/><path class="cls-19" d="M237.62,242.43,221,226a2.92,2.92,0,0,1,4.11-4.16L237.38,234l19.42-21.45a2.92,2.92,0,0,1,4.33,3.92Z" transform="translate(0.08)"/><path class="cls-19" d="M237.62,285.71,221,269.31a2.92,2.92,0,0,1,4.11-4.16l12.23,12.11,19.42-21.45a2.92,2.92,0,0,1,4.33,3.92Z" transform="translate(0.08)"/><rect class="cls-18" x="225.9" y="305.68" width="28.72" height="28.72"/><path class="cls-18" d="M257.57,337.44H222.78v-34.8h34.79Zm-33.74-1.05h32.69v-32.7H223.83Z" transform="translate(0.08)"/><rect class="cls-18" x="225.9" y="349.68" width="28.72" height="28.72"/><path class="cls-18" d="M257.57,381.43H222.78V346.64h34.79Zm-33.74-1.05h32.69V347.69H223.83Z" transform="translate(0.08)"/><rect class="cls-19" x="268.05" y="177.99" width="127.08" height="3.47"/><rect class="cls-19" x="268.05" y="186.31" width="127.08" height="3.47"/><rect class="cls-19" x="268.05" y="194.64" width="39.29" height="3.47"/><rect class="cls-19" x="268.05" y="221.43" width="127.08" height="3.47"/><rect class="cls-19" x="268.05" y="229.76" width="127.08" height="3.47"/><rect class="cls-19" x="268.05" y="238.08" width="83.04" height="3.47"/><rect class="cls-19" x="268.05" y="264.88" width="127.08" height="3.47"/><rect class="cls-19" x="268.05" y="273.2" width="108.69" height="3.47"/><rect class="cls-19" x="268.05" y="281.52" width="39.29" height="3.47"/><rect class="cls-19" x="268.05" y="308.32" width="127.08" height="3.47"/><rect class="cls-19" x="268.05" y="316.64" width="64.04" height="3.47"/><rect class="cls-19" x="268.05" y="351.76" width="127.08" height="3.47"/><rect class="cls-19" x="268.05" y="360.09" width="127.08" height="3.47"/><rect class="cls-19" x="268.05" y="368.41" width="92.66" height="3.47"/><rect class="cls-19" x="249.62" y="142.65" width="120.81" height="8.56"/><path class="cls-9" d="M313.21,98a3.44,3.44,0,1,1-3.44-3.44A3.44,3.44,0,0,1,313.21,98Z" transform="translate(0.08)"/><path class="cls-2" d="M67.67,408.22l-2,9.7s-12.37,2.69-13.12,5.52,26,.9,26,.9l2.84-16.12" transform="translate(0.08)"/><g class="cls-20"><path class="cls-12" d="M63.53,403.9a3,3,0,0,0-1.05,2.68,5.34,5.34,0,0,0,1.25,2.69A13.05,13.05,0,0,0,70,413.1,24.91,24.91,0,0,0,77,414.25c2.94.07,6-.45,8.31-2.3s3.43-5.3,2-7.84a8.42,8.42,0,0,0-3.63-3.06,25.94,25.94,0,0,0-8.22-2.64" transform="translate(0.08)"/></g><path class="cls-2" d="M134.84,408.22l-.31,9.7s12.37,2.69,13.11,5.52-26,.9-26,.9l-.57-16.12" transform="translate(0.08)"/><g class="cls-21"><path class="cls-12" d="M121.65,403.07a12.72,12.72,0,0,0-4.58,4.52,7,7,0,0,0-1.09,3.26,3.67,3.67,0,0,0,1.33,3.07,4.46,4.46,0,0,0,2,.74,34.11,34.11,0,0,0,6,.45,16.52,16.52,0,0,0,9.65-3.9,11.17,11.17,0,0,0,3.29-12.8" transform="translate(0.08)"/></g><path class="cls-7" d="M189.75,183.45s-9.18-2.86-9-5.53,6.38-.48,6.38-.48-3.44-12.68-2-13.71,3.72,6.89,3.72,6.89.42-7.73,2.42-7.58,1.62,6.34,1.62,6.34,2.23-4.93,4.18-4.12-1.26,6.19-1.26,6.19,4.95-2.8,5.73-1.46-3.11,5.82-3.11,5.82,4.8,4.53-1,13.23c-1.59-.67-6.1-2.75-8.45-2.26Z" transform="translate(0.08)"/><path class="cls-4" d="M130.18,221.94s41.55,3.67,57.43-36.62C199,183.61,199,191.63,199,191.63s-15.71,59-64.46,51.27" transform="translate(0.08)"/><path class="cls-3" d="M84.61,294.72s-12.74,72.16-18.9,115.33c13.23,1.46,16,.57,16,.57l24.58-88.22H117.1c.8.86,3.23,88.22,3.23,88.22s11.11,1.64,15.48-.62c0,0,5-67.24,6.34-103.7Z" transform="translate(0.08)"/><g class="cls-22"><path class="cls-12" d="M59.08,295.45a92.73,92.73,0,0,0,123.78-9.77c-38.74-2.82-78.73-5.08-115.42,7.65" transform="translate(0.08)"/></g><path class="cls-4" d="M119.81,220.35s-14,.79-17.84,4.54S89.82,254.1,84.61,294.72c20.8,21.94,57.54,11.58,57.54,11.58s1.87-74-.1-77.74C138.28,221.44,119.81,220.35,119.81,220.35Z" transform="translate(0.08)"/><g class="cls-23"><path class="cls-24" d="M101.54,295.52c21.59,1.74,39.71-9.21,47.5-15.25,1.53-1.19,3.69-1.35,5.16-2.6a5.55,5.55,0,0,0,2.12-5.12c-.62-3-4.13-4.24-7.12-4.82-14.28-2.72-29-1.68-43.11,1.43-6.29,1.39-34.94,5.94-25.2,17.42C85.08,291.52,95.27,295,101.54,295.52Z" transform="translate(0.08)"/></g><path class="cls-3" d="M142.15,306.3" transform="translate(0.08)"/><path class="cls-5" d="M84.65,202.71H108.9a0,0,0,0,1,0,0V339a7.38,7.38,0,0,1-7.38,7.38H92A7.38,7.38,0,0,1,84.65,339V202.71A0,0,0,0,1,84.65,202.71Z" transform="translate(334.1 105.85) rotate(74)"/><g class="cls-25"><rect class="cls-26" x="123.99" y="255.76" width="51.04" height="4.52" transform="translate(356.42 43.19) rotate(74)"/><rect class="cls-26" x="17.97" y="286.15" width="51.04" height="4.52" transform="translate(308.84 167.12) rotate(74)"/><rect class="cls-13" x="-1.05" y="277.03" width="51.04" height="36.47" transform="translate(301.65 190.37) rotate(74)"/><rect class="cls-27" x="92.36" y="205.26" width="24.49" height="170.07" transform="translate(354.93 109.74) rotate(74)"/><rect class="cls-24" x="82.56" y="171.07" width="24.49" height="170.07" transform="translate(314.95 94.39) rotate(74)"/></g><polygon class="cls-6" points="162.56 243.09 185.09 249.24 169.24 266.4 162.56 243.09"/><g class="cls-28"><circle class="cls-19" cx="191.34" cy="247.77" r="14.61" transform="translate(-81.66 94.71) rotate(-23.05)"/></g><path class="cls-7" d="M99.2,279.25s6.9-.36,10,.95,4.59,2.08,4.59,2.08l6.17-1.77s-1.49,8.13-8.86,8.72a38,38,0,0,1-13.68-1.53Z" transform="translate(0.08)"/><path class="cls-4" d="M111.83,221.44s-43.58,2.69-47.26,41.16C62,289.06,98.94,290.4,98.94,290.4l1.73-11.73s-15.49-6.42-15.49-15.89S102,246.29,102,246.29Z" transform="translate(0.08)"/><path class="cls-29" d="M120.32,219.71a50.54,50.54,0,0,0-15.15,2.71l18,15.28,14.5-15.87S132.71,219.71,120.32,219.71Z" transform="translate(0.08)"/><path class="cls-30" d="M110.42,208.91s-6.51.5-8.78-1.56c-4.59-4.17-7.84-28-8-33s5.8-12.11,12.72-12.15c1-7.38,5.12-5.1,5.12-5.1s-1.94-3.1.49-5.33a51,51,0,0,1,2.17,4.68s3.85-3.16,12.57-1.55,14.1-2.57,16.16,1.65,5.44,17.11-.2,19.57S107.83,193.94,110.42,208.91Z" transform="translate(0.08)"/><polyline class="cls-7" points="109.52 203.1 112.26 224.13 123.07 233.33 132.08 224.13 132.08 210.58"/><g class="cls-31"><path class="cls-24" d="M119,192.79a7.47,7.47,0,0,0-6.14,4.21,15.19,15.19,0,0,0-1.34,7.61,16.83,16.83,0,0,0,1.23,6.16,15.87,15.87,0,0,0,14.78,8.83,9.76,9.76,0,0,0,8.12-5.7c1.44-3.6.14-7.77-2-11-2.44-3.74-6.13-6.84-10.51-7.73-1.87-.38-4-.27-5.41,1" transform="translate(0.08)"/></g><path class="cls-7" d="M113.45,166.4c-7.25,3.1-14.14,29.86-5.12,41.4s30.64,9.35,38.16.55C152.61,201.19,143.63,153.5,113.45,166.4Z" transform="translate(0.08)"/><path class="cls-32" d="M134.89,182.51c-1.27.6,1,13.14,1,13.14,1.72.22,7.06-2.64,7.06-3.76C143,191.89,137.31,181.35,134.89,182.51Z" transform="translate(0.08)"/><path class="cls-30" d="M99.39,193.8c.12-2.1,1.91-3.74,3.83-4.6s4.93,4.05,7,3.94c3.42-.18,6.22-1.85,6.6-3.24.26-1,0-12.57,1.49-14.23,2.46-2.82,6.72-3,10.47-2.94s8-.22,10.4-3.13a4.85,4.85,0,0,0,1.07-2.32,5.49,5.49,0,0,0-1.21-3.8c-2.75-3.76-7.87-5-12.52-4.76a28.4,28.4,0,0,0-19.7,10,32.92,32.92,0,0,0-7.57,20.94" transform="translate(0.08)"/><path class="cls-7" d="M111.48,195.14s.9-14-6.28-12-5.49,16.1,2.69,15.83" transform="translate(0.08)"/><path class="cls-30" d="M123.06,182.12c-.33.71.6,2.59,1.61,2.44s5.94-.79,6.44-1.95a2.38,2.38,0,0,0-1.05-2.83C129.38,179.55,123.46,181.24,123.06,182.12Z" transform="translate(0.08)"/><path class="cls-30" d="M138.5,178.35c-.36.67.26,2.64,1.17,2.6s5.34-.13,5.9-1.22a2.53,2.53,0,0,0-.63-2.92C144.36,176.49,138.94,177.52,138.5,178.35Z" transform="translate(0.08)"/><path class="cls-33" d="M129.46,190.39a1.74,1.74,0,0,0,1.17,0,1.65,1.65,0,0,0,1.33-1.26,3.81,3.81,0,0,0-.41-2.16,4.35,4.35,0,0,0-.6-1,1.32,1.32,0,0,0-2.19,0C128.11,186.92,128.18,189.81,129.46,190.39Z" transform="translate(0.08)"/><path class="cls-33" d="M141.64,187.44a1.68,1.68,0,0,0,1.17,0,1.63,1.63,0,0,0,1.33-1.26,3.91,3.91,0,0,0-.41-2.16,4.28,4.28,0,0,0-.6-1,1.31,1.31,0,0,0-2.19,0C140.29,184,140.36,186.87,141.64,187.44Z" transform="translate(0.08)"/><path class="cls-32" d="M109.43,189.25a4.21,4.21,0,0,0-2.25-3.44,2.88,2.88,0,0,0-2.88.05,1.92,1.92,0,0,0-.53,2.64c.32.4.85.66,1,1.14a2.12,2.12,0,0,1-.32,1.41,2.68,2.68,0,0,0,.15,2.89,1.78,1.78,0,0,0,1.71.46C108.14,193.9,109.55,191,109.43,189.25Z" transform="translate(0.08)"/><path class="cls-7" d="M105.6,280.35s5.77-2.65,7.23-2.84,2.23,1.12,1.85,1.89-4.49,3.22-4.49,3.22" transform="translate(0.08)"/><circle class="cls-34" cx="453.75" cy="150.37" r="6.24"/><path class="cls-13" d="M448.12,85.37a5.95,5.95,0,1,1-5.95-6A5.95,5.95,0,0,1,448.12,85.37Z" transform="translate(0.08)"/><path class="cls-1" d="M393.69,55.56a4.62,4.62,0,1,1-6.54,0A4.64,4.64,0,0,1,393.69,55.56Z" transform="translate(0.08)"/><circle class="cls-1" cx="464.61" cy="286.94" r="4.63"/><path class="cls-1" d="M349.3,47.38A4.38,4.38,0,1,1,344.92,43,4.38,4.38,0,0,1,349.3,47.38Z" transform="translate(0.08)"/><path class="cls-1" d="M42.8,348.76a4.38,4.38,0,1,1-4.38-4.38A4.38,4.38,0,0,1,42.8,348.76Z" transform="translate(0.08)"/><path class="cls-19" d="M380.9,87.49a2.12,2.12,0,1,1-2.12-2.12A2.12,2.12,0,0,1,380.9,87.49Z" transform="translate(0.08)"/><circle class="cls-19" cx="438.49" cy="45.19" r="2.19"/><circle class="cls-19" cx="478.69" cy="180.34" r="2.19"/><circle class="cls-15" cx="266.4" cy="63.26" r="4.43"/><circle class="cls-19" cx="154.97" cy="115.16" r="3.9"/><path class="cls-1" d="M158.78,77a5.24,5.24,0,1,1-5.24-5.24A5.24,5.24,0,0,1,158.78,77Z" transform="translate(0.08)"/><path class="cls-1" d="M81.4,132.52a5,5,0,1,1-5-5A5,5,0,0,1,81.4,132.52Z" transform="translate(0.08)"/><path class="cls-13" d="M132,117.27a3,3,0,1,1-3-3A3,3,0,0,1,132,117.27Z" transform="translate(0.08)"/><path class="cls-13" d="M67.45,326.56a3,3,0,1,1-3-3A3,3,0,0,1,67.45,326.56Z" transform="translate(0.08)"/><path class="cls-15" d="M84.61,83.54a4.13,4.13,0,1,1-4.13-4.12A4.13,4.13,0,0,1,84.61,83.54Z" transform="translate(0.08)"/><path class="cls-34" d="M41.94,196.54A3.52,3.52,0,1,1,38.42,193,3.53,3.53,0,0,1,41.94,196.54Z" transform="translate(0.08)"/></g></g></svg>