<svg id="el_g-0FEMr3B" data-name="Layer 1" xmlns="http://www.w3.org/2000/svg" viewBox="0 0 377 353"><style>@-webkit-keyframes kf_el_aJRzIlmB1pW_an_8aomgguiN{22.22%{opacity: 0;}62.22%{opacity: 1;}88.89%{opacity: 0;}0%{opacity: 0;}100%{opacity: 0;}}@keyframes kf_el_aJRzIlmB1pW_an_8aomgguiN{22.22%{opacity: 0;}62.22%{opacity: 1;}88.89%{opacity: 0;}0%{opacity: 0;}100%{opacity: 0;}}@-webkit-keyframes kf_el_ESiPXvvA0Mn_an_asxmkxyYg{22.22%{opacity: 0;}62.22%{opacity: 1;}88.89%{opacity: 0;}0%{opacity: 0;}100%{opacity: 0;}}@keyframes kf_el_ESiPXvvA0Mn_an_asxmkxyYg{22.22%{opacity: 0;}62.22%{opacity: 1;}88.89%{opacity: 0;}0%{opacity: 0;}100%{opacity: 0;}}@-webkit-keyframes kf_el_lGlJp8StK7X_an_4tUtFBwNY{66.67%{opacity: 0;}88.89%{opacity: 1;}0%{opacity: 0;}100%{opacity: 1;}}@keyframes kf_el_lGlJp8StK7X_an_4tUtFBwNY{66.67%{opacity: 0;}88.89%{opacity: 1;}0%{opacity: 0;}100%{opacity: 1;}}@-webkit-keyframes kf_el_mJvMbOZkFbM_an_YCU_k4LUw{44.44%{opacity: 0;}66.67%{opacity: 1;}0%{opacity: 0;}100%{opacity: 1;}}@keyframes kf_el_mJvMbOZkFbM_an_YCU_k4LUw{44.44%{opacity: 0;}66.67%{opacity: 1;}0%{opacity: 0;}100%{opacity: 1;}}@-webkit-keyframes kf_el_3C2n4kdqWHm_an_dIeJPiEoX{22.22%{opacity: 0;}44.44%{opacity: 1;}0%{opacity: 0;}100%{opacity: 1;}}@keyframes kf_el_3C2n4kdqWHm_an_dIeJPiEoX{22.22%{opacity: 0;}44.44%{opacity: 1;}0%{opacity: 0;}100%{opacity: 1;}}@-webkit-keyframes kf_el_jPhrja8liId_an_W3ecQwP5l{0%{opacity: 0;}22.22%{opacity: 1;}100%{opacity: 1;}}@keyframes kf_el_jPhrja8liId_an_W3ecQwP5l{0%{opacity: 0;}22.22%{opacity: 1;}100%{opacity: 1;}}#el_g-0FEMr3B *{-webkit-animation-duration: 1.5s;animation-duration: 1.5s;-webkit-animation-iteration-count: infinite;animation-iteration-count: infinite;-webkit-animation-timing-function: cubic-bezier(0, 0, 1, 1);animation-timing-function: cubic-bezier(0, 0, 1, 1);}#el_fMCzOSUbh5{fill: #839bc6;}#el_XEUOmsZh4c{fill: #314072;-webkit-transform: translate(0.01px, -0.02px);transform: translate(0.01px, -0.02px);}#el_gzy85L8Fxg{fill: #7b3753;-webkit-transform: translate(0.01px, -0.02px);transform: translate(0.01px, -0.02px);}#el_YL4gtQvawo{fill: #314072;-webkit-transform: translate(0.01px, -0.02px);transform: translate(0.01px, -0.02px);}#el_VfAffUU3B7{fill: #7b3753;-webkit-transform: translate(0.01px, -0.02px);transform: translate(0.01px, -0.02px);}#el_EK_ZasiWtc{fill: #7b3753;}#el_jq6JKc7EMF{fill: #7b3753;-webkit-transform: translate(0.01px, -0.02px);transform: translate(0.01px, -0.02px);}#el_Q9WFaFEYr3{fill: #314072;-webkit-transform: translate(0.01px, -0.02px);transform: translate(0.01px, -0.02px);}#el_eiqokPva1s{fill: #333;-webkit-transform: translate(0.01px, -0.02px);transform: translate(0.01px, -0.02px);}#el_RSzKvuuHca{fill: #e46240;-webkit-transform: translate(0.01px, -0.02px);transform: translate(0.01px, -0.02px);}#el_dMSdmQUq8o{fill: #333;-webkit-transform: translate(0.01px, -0.02px);transform: translate(0.01px, -0.02px);}#el_4jUXzYb56w{fill: #773a50;-webkit-transform: translate(0.01px, -0.02px);transform: translate(0.01px, -0.02px);}#el_5UdAsZFc4e{fill: #333;-webkit-transform: translate(0.01px, -0.02px);transform: translate(0.01px, -0.02px);}#el_b3uI9GK7Ib{fill: #333;}#el_BZIIbBwr65j{fill: #314072;}#el_GVKPreCYGYz{fill: #53669b;}#el_RBIkxbtDNQE{fill: #333;-webkit-transform: translate(0.01px, -0.02px);transform: translate(0.01px, -0.02px);}#el_6MWn_BP9-u0{fill: #314072;-webkit-transform: translate(0.01px, -0.02px);transform: translate(0.01px, -0.02px);}#el__v35zgJ1GOe{fill: #773a50;-webkit-transform: translate(0.01px, -0.02px);transform: translate(0.01px, -0.02px);}#el_7EDmf1K0VXY{fill: #e46240;}#el_0cnFiB5eT55{fill: #404041;-webkit-transform: translate(0.01px, -0.02px);transform: translate(0.01px, -0.02px);}#el_EV6FGPW2dYI{fill: #b52445;-webkit-transform: translate(0.01px, -0.02px);transform: translate(0.01px, -0.02px);}#el_7g4w1TcYP_d{fill: #b52445;-webkit-transform: translate(0.01px, -0.02px);transform: translate(0.01px, -0.02px);}#el_yiaePRfbtRg{fill: #ef3936;-webkit-transform: translate(0.01px, -0.02px);transform: translate(0.01px, -0.02px);}#el_B637wwQ4xwn{fill: #b52445;-webkit-transform: translate(0.01px, -0.02px);transform: translate(0.01px, -0.02px);}#el_vS9RWInQ57e{fill: #8d031e;}#el_iA12yGLfn5r{fill: #b52445;-webkit-transform: translate(0.01px, -0.02px);transform: translate(0.01px, -0.02px);}#el_XjPX1AZSm2g{fill: #065a8e;-webkit-transform: translate(0.01px, -0.02px);transform: translate(0.01px, -0.02px);}#el_XpSX5nU8Nrj{fill: #ff7f6a;-webkit-transform: translate(0.01px, -0.02px);transform: translate(0.01px, -0.02px);}#el_xUp841eWmRc{fill: #1b75ba;-webkit-transform: translate(0.01px, -0.02px);transform: translate(0.01px, -0.02px);}#el_gcgsHHWB2DW{fill: #7b3753;-webkit-transform: translate(0.01px, -0.02px);transform: translate(0.01px, -0.02px);}#el_uGcgyPY0okE{fill: #1b75ba;-webkit-transform: translate(0.01px, -0.02px);transform: translate(0.01px, -0.02px);}#el_Saf8qVB2p9i{fill: #ff7f6a;-webkit-transform: translate(0.01px, -0.02px);transform: translate(0.01px, -0.02px);}#el_NoejW75Njxi{fill: #7b3753;-webkit-transform: translate(0.01px, -0.02px);transform: translate(0.01px, -0.02px);}#el_jht4gyOGb7V{fill: #58595b;-webkit-transform: translate(0.01px, -0.02px);transform: translate(0.01px, -0.02px);}#el_EwfQfrHjFSG{fill: #6d6e70;-webkit-transform: translate(0.01px, -0.02px);transform: translate(0.01px, -0.02px);}#el_rlAtnmLde8S{fill: #6d6e70;-webkit-transform: translate(0.01px, -0.02px);transform: translate(0.01px, -0.02px);}#el_FUv_k0vj8c_{fill: #919396;-webkit-transform: translate(0.01px, -0.02px);transform: translate(0.01px, -0.02px);}#el_jSVKejRY8qz{fill: #231f20;-webkit-transform: translate(0.01px, -0.02px);transform: translate(0.01px, -0.02px);}#el_Aho9xfL085T{fill: #ff9d76;-webkit-transform: translate(0.01px, -0.02px);transform: translate(0.01px, -0.02px);}#el_rFU16nXAJFB{fill: #603813;-webkit-transform: translate(0.01px, -0.02px);transform: translate(0.01px, -0.02px);}#el_TFOWKUPzCLU{fill: #603813;-webkit-transform: translate(0.01px, -0.02px);transform: translate(0.01px, -0.02px);}#el_MSImIRoDdmY{fill: #f75d5f;-webkit-transform: translate(0.01px, -0.02px);transform: translate(0.01px, -0.02px);}#el__6JoN9DdoT7{fill: #8d031e;-webkit-transform: translate(0.01px, -0.02px);transform: translate(0.01px, -0.02px);}#el_Xo6Qd1QPSfh{fill: #fff;-webkit-transform: translate(0.01px, -0.02px);transform: translate(0.01px, -0.02px);}#el_jXJS-FuQDos{fill: #ad152b;-webkit-transform: translate(0.01px, -0.02px);transform: translate(0.01px, -0.02px);}#el_tL54cURV-EJ{fill: #fff;}#el_AT3_D4Fd0Zo{fill: #3b2314;-webkit-transform: translate(0.01px, -0.02px);transform: translate(0.01px, -0.02px);}#el_oFPqsx-Rp7A{fill: #fff;-webkit-transform: translate(0.01px, -0.02px);transform: translate(0.01px, -0.02px);}#el_ZraI9giCp-O{fill: #fff;-webkit-transform: translate(0.01px, -0.02px);transform: translate(0.01px, -0.02px);}#el__AhPUUO3Tij{fill: #fff;-webkit-transform: translate(0.01px, -0.02px);transform: translate(0.01px, -0.02px);}#el_AJRDaJwRH8z{fill: #3b2314;-webkit-transform: translate(0.01px, -0.02px);transform: translate(0.01px, -0.02px);}#el_LGrsxGmRrxv{fill: #fff;-webkit-transform: translate(0.01px, -0.02px);transform: translate(0.01px, -0.02px);}#el_N-0J3YIPQdO{fill: #fff;-webkit-transform: translate(0.01px, -0.02px);transform: translate(0.01px, -0.02px);}#el_ZM-1Yxt37S4{fill: #603813;-webkit-transform: translate(0.01px, -0.02px);transform: translate(0.01px, -0.02px);}#el_1gyv_cBZVF8{fill: #754c28;-webkit-transform: translate(0.01px, -0.02px);transform: translate(0.01px, -0.02px);}#el_bD80_DoiZmZ{fill: #231f20;-webkit-transform: translate(0.01px, -0.02px);transform: translate(0.01px, -0.02px);}#el_OnDSQdN2dmr{fill: #6d6e70;-webkit-transform: translate(0.01px, -0.02px);transform: translate(0.01px, -0.02px);}#el_MuUIvn4rQde{fill: #6d6e70;-webkit-transform: translate(0.01px, -0.02px);transform: translate(0.01px, -0.02px);}#el_Y38s2ZD6IxM{fill: #919396;-webkit-transform: translate(0.01px, -0.02px);transform: translate(0.01px, -0.02px);}#el_xW97CCJ7-e_{fill: none;stroke: #6d6e70;stroke-miterlimit: 10;stroke-width: 1.4px;-webkit-transform: translate(0.01px, -0.02px);transform: translate(0.01px, -0.02px);}#el_JohoXg1Xpqj{fill: #231f20;-webkit-transform: translate(0.01px, -0.02px);transform: translate(0.01px, -0.02px);}#el_1X5xT0VZ4Qn{fill: #ff9d76;-webkit-transform: translate(0.01px, -0.02px);transform: translate(0.01px, -0.02px);}#el_KL6rPqMT3pr{fill: #ff7f6a;-webkit-transform: translate(0.01px, -0.02px);transform: translate(0.01px, -0.02px);}#el_9hlXdq1sEUC{fill: #ff7f6a;-webkit-transform: translate(0.01px, -0.02px);transform: translate(0.01px, -0.02px);}#el_TCXjUXcs_Mz{fill: #ff9d76;-webkit-transform: translate(0.01px, -0.02px);transform: translate(0.01px, -0.02px);}#el_lHkco6BR9LE{fill: #ff7f6a;-webkit-transform: translate(0.01px, -0.02px);transform: translate(0.01px, -0.02px);}#el_bbj2bUTm-kZ{fill: #ef3936;-webkit-transform: translate(0.01px, -0.02px);transform: translate(0.01px, -0.02px);}#el__lnB6iNaRMU{fill: #ef3936;-webkit-transform: translate(0.01px, -0.02px);transform: translate(0.01px, -0.02px);}#el_Has2b2vfvXo{fill: #314072;}#el_PP7ZdJHiNZA{fill: #314072;}#el_yQSOOKOQEQ-{fill: #7b3753;}#el_VwMMSzFR0X8{fill: #ff884e;}#el_zSZ9WtKAFek{fill: #065a8e;-webkit-transform: translate(0.01px, -0.02px);transform: translate(0.01px, -0.02px);}#el_tJMQqz2a5uO{fill: #1b75ba;-webkit-transform: translate(0.01px, -0.02px);transform: translate(0.01px, -0.02px);}#el_-h4MbjkKWg5{fill: #ff7f6a;-webkit-transform: translate(0.01px, -0.02px);transform: translate(0.01px, -0.02px);}#el_K2rE4Y9DTGW{fill: #ff9d76;-webkit-transform: translate(0.01px, -0.02px);transform: translate(0.01px, -0.02px);}#el_0Ll1pA-Aj7K{fill: #512b0c;-webkit-transform: translate(0.01px, -0.02px);transform: translate(0.01px, -0.02px);}#el_wI84uK0Cu-j{fill: #ffc239;-webkit-transform: translate(0.01px, -0.02px);transform: translate(0.01px, -0.02px);}#el_NitsW6_9IEE{fill: #ffc239;-webkit-transform: translate(0.01px, -0.02px);transform: translate(0.01px, -0.02px);}#el_LVE2Xt5YIea{fill: #ffd473;-webkit-transform: translate(0.01px, -0.02px);transform: translate(0.01px, -0.02px);}#el_AfyymDz7iB1{fill: #ff7f6a;-webkit-transform: translate(0.01px, -0.02px);transform: translate(0.01px, -0.02px);}#el_b6feh7OqHEO{fill: #ff7f6a;-webkit-transform: translate(0.01px, -0.02px);transform: translate(0.01px, -0.02px);}#el_CXHRa2Ptmoz{fill: #ff7f6a;-webkit-transform: translate(0.01px, -0.02px);transform: translate(0.01px, -0.02px);}#el_ECvUKBKRZ_2{fill: #ff9d76;-webkit-transform: translate(0.01px, -0.02px);transform: translate(0.01px, -0.02px);}#el_Law5jOzgg7P{fill: #603813;-webkit-transform: translate(0.01px, -0.02px);transform: translate(0.01px, -0.02px);}#el_GfgH8LUG1Ir{fill: #603813;-webkit-transform: translate(0.01px, -0.02px);transform: translate(0.01px, -0.02px);}#el_vv_R_rBMKi0{fill: #3b2314;-webkit-transform: translate(0.01px, -0.02px);transform: translate(0.01px, -0.02px);}#el_esQ8lh7awD-{fill: #3b2314;-webkit-transform: translate(0.01px, -0.02px);transform: translate(0.01px, -0.02px);}#el_kmTqgMoFLtF{fill: #fff;-webkit-transform: translate(0.01px, -0.02px);transform: translate(0.01px, -0.02px);}#el_shTZd_gBQB_{fill: #3b2314;}#el_kCpIKaf76Iz{fill: #fff;-webkit-transform: translate(0.01px, -0.02px);transform: translate(0.01px, -0.02px);}#el_VKX6_w6OpPY{fill: #fff;-webkit-transform: translate(0.01px, -0.02px);transform: translate(0.01px, -0.02px);}#el_8-p915O9ypZ{fill: #3b2314;-webkit-transform: translate(0.01px, -0.02px);transform: translate(0.01px, -0.02px);}#el_CL7Ce8yj2dy{fill: #3b2314;-webkit-transform: translate(0.01px, -0.02px);transform: translate(0.01px, -0.02px);}#el_Y7uWIl64TmB{fill: #fff;-webkit-transform: translate(0.01px, -0.02px);transform: translate(0.01px, -0.02px);}#el_-s4duFYZrN6{fill: #3b2314;}#el_zS-45EcMzW-{fill: #fff;-webkit-transform: translate(0.01px, -0.02px);transform: translate(0.01px, -0.02px);}#el_2Qu7_kX1WQe{fill: #fff;-webkit-transform: translate(0.01px, -0.02px);transform: translate(0.01px, -0.02px);}#el_64OYTPiHncZ{fill: #960b1f;-webkit-transform: translate(0.01px, -0.02px);transform: translate(0.01px, -0.02px);}#el_sFCo5XWjFia{fill: #630018;-webkit-transform: translate(0.01px, -0.02px);transform: translate(0.01px, -0.02px);}#el_TbzZRNsl6uw{fill: #bd1e2d;-webkit-transform: translate(0.01px, -0.02px);transform: translate(0.01px, -0.02px);}#el_NtUAAm4l1ly{fill: #f75d5f;-webkit-transform: translate(0.01px, -0.02px);transform: translate(0.01px, -0.02px);}#el_QR_FmkzFcJM{fill: #603813;-webkit-transform: translate(0.01px, -0.02px);transform: translate(0.01px, -0.02px);}#el_dy1IHavZ3x7{fill: #754c28;-webkit-transform: translate(0.01px, -0.02px);transform: translate(0.01px, -0.02px);}#el_9fvZOZFnkj0{fill: #ff7f6a;-webkit-transform: translate(0.01px, -0.02px);transform: translate(0.01px, -0.02px);}#el_6nhRcranSX3{fill: #6d6e70;-webkit-transform: translate(0.01px, -0.02px);transform: translate(0.01px, -0.02px);}#el_tRFvNBUCpJp{fill: #919396;-webkit-transform: translate(0.01px, -0.02px);transform: translate(0.01px, -0.02px);}#el_17UTs33MM19{fill: #ff9d76;-webkit-transform: translate(0.01px, -0.02px);transform: translate(0.01px, -0.02px);}#el_mXN49uNhKXe{fill: #ff9d76;-webkit-transform: translate(0.01px, -0.02px);transform: translate(0.01px, -0.02px);}#el_RcVv7y5lgE9{fill: #ff9d76;-webkit-transform: translate(0.01px, -0.02px);transform: translate(0.01px, -0.02px);}#el_xucgatlMpz8{fill: #ff7f6a;-webkit-transform: translate(0.01px, -0.02px);transform: translate(0.01px, -0.02px);}#el_Bccl0j7Y7Z6{fill: #314072;-webkit-transform: translate(0.01px, -0.02px);transform: translate(0.01px, -0.02px);}#el_VsbFm7svFs9{fill: #1a2d54;-webkit-transform: translate(0.01px, -0.02px);transform: translate(0.01px, -0.02px);}#el_PbHFEv7uYsE{fill: #1a2d54;-webkit-transform: translate(0.01px, -0.02px);transform: translate(0.01px, -0.02px);}#el_GrK754-EDiY{fill: #314072;-webkit-transform: translate(0.01px, -0.02px);transform: translate(0.01px, -0.02px);}#el_0oJkmCfC-O3{fill: #1a2d54;-webkit-transform: translate(0.01px, -0.02px);transform: translate(0.01px, -0.02px);}#el_kB5z0JQkpCl{fill: #1a2d54;}#el_UuQQaPsh5FC{fill: #374c89;-webkit-transform: translate(0.01px, -0.02px);transform: translate(0.01px, -0.02px);}#el_ZCBnP1yRZpm{fill: #314072;-webkit-transform: translate(0.01px, -0.02px);transform: translate(0.01px, -0.02px);}#el_Eb9D87hBhf5{fill: #1a2d54;-webkit-transform: translate(0.01px, -0.02px);transform: translate(0.01px, -0.02px);}#el_fdxTMEKiTw9{fill: #ccd9da;}#el_lGlJp8StK7X{fill: #314072;-webkit-animation-fill-mode: backwards;animation-fill-mode: backwards;opacity: 0;-webkit-animation-name: kf_el_lGlJp8StK7X_an_4tUtFBwNY;animation-name: kf_el_lGlJp8StK7X_an_4tUtFBwNY;-webkit-animation-timing-function: cubic-bezier(0, 0, 1, 1);animation-timing-function: cubic-bezier(0, 0, 1, 1);}#el_mJvMbOZkFbM{fill: #314072;-webkit-animation-fill-mode: backwards;animation-fill-mode: backwards;opacity: 0;-webkit-animation-name: kf_el_mJvMbOZkFbM_an_YCU_k4LUw;animation-name: kf_el_mJvMbOZkFbM_an_YCU_k4LUw;-webkit-animation-timing-function: cubic-bezier(0, 0, 1, 1);animation-timing-function: cubic-bezier(0, 0, 1, 1);}#el_3C2n4kdqWHm{fill: #314072;-webkit-transform: translate(0.01px, -0.02px);transform: translate(0.01px, -0.02px);-webkit-animation-fill-mode: backwards;animation-fill-mode: backwards;opacity: 0;-webkit-animation-name: kf_el_3C2n4kdqWHm_an_dIeJPiEoX;animation-name: kf_el_3C2n4kdqWHm_an_dIeJPiEoX;-webkit-animation-timing-function: cubic-bezier(0, 0, 1, 1);animation-timing-function: cubic-bezier(0, 0, 1, 1);}#el_jPhrja8liId{fill: #314072;-webkit-transform: translate(0.01px, -0.02px);transform: translate(0.01px, -0.02px);-webkit-animation-fill-mode: backwards;animation-fill-mode: backwards;opacity: 0;-webkit-animation-name: kf_el_jPhrja8liId_an_W3ecQwP5l;animation-name: kf_el_jPhrja8liId_an_W3ecQwP5l;-webkit-animation-timing-function: cubic-bezier(0, 0, 1, 1);animation-timing-function: cubic-bezier(0, 0, 1, 1);}#el_AcJ3ERFsnYw{fill: #ccd9da;-webkit-transform: translate(0.01px, -0.02px);transform: translate(0.01px, -0.02px);}#el_hT-EsRfdBA8{fill: #ccd9da;}#el_aJRzIlmB1pW{fill: #314072;-webkit-transform: translate(0.01px, -0.02px);transform: translate(0.01px, -0.02px);-webkit-animation-fill-mode: backwards;animation-fill-mode: backwards;opacity: 0;-webkit-animation-name: kf_el_aJRzIlmB1pW_an_8aomgguiN;animation-name: kf_el_aJRzIlmB1pW_an_8aomgguiN;-webkit-animation-timing-function: cubic-bezier(0, 0, 1, 1);animation-timing-function: cubic-bezier(0, 0, 1, 1);}#el_ESiPXvvA0Mn{fill: #314072;-webkit-transform: translate(0.01px, -0.02px);transform: translate(0.01px, -0.02px);-webkit-animation-fill-mode: backwards;animation-fill-mode: backwards;opacity: 0;-webkit-animation-name: kf_el_ESiPXvvA0Mn_an_asxmkxyYg;animation-name: kf_el_ESiPXvvA0Mn_an_asxmkxyYg;-webkit-animation-timing-function: cubic-bezier(0, 0, 1, 1);animation-timing-function: cubic-bezier(0, 0, 1, 1);}#el_oybNkI1aYRL{fill: #ccd9da;-webkit-transform: translate(0.01px, -0.02px);transform: translate(0.01px, -0.02px);}#el_zbX_E6DiSAH{fill: #acb4ff;-webkit-transform: translate(0.01px, -0.02px);transform: translate(0.01px, -0.02px);}#el_IilC2r4IjFO{fill: #acb4ff;-webkit-transform: translate(0.01px, -0.02px);transform: translate(0.01px, -0.02px);}#el_jtb7ONjK6kZ{fill: #acb4ff;-webkit-transform: translate(0.01px, -0.02px);transform: translate(0.01px, -0.02px);}#el_iPdhCBKZQDR{fill: #acb4ff;-webkit-transform: translate(0.01px, -0.02px);transform: translate(0.01px, -0.02px);}#el_dXFnMCIdvEx{fill: #acb4ff;}#el__Tc81QxyBXV{fill: #acb4ff;-webkit-transform: translate(0.01px, -0.02px);transform: translate(0.01px, -0.02px);}#el_x2Euz4p0doT{fill: #acb4ff;}#el_1Rvg4WmuHg4{fill: #acb4ff;-webkit-transform: translate(0.01px, -0.02px);transform: translate(0.01px, -0.02px);}#el_8qI-sp837rF{fill: #acb4ff;-webkit-transform: translate(0.01px, -0.02px);transform: translate(0.01px, -0.02px);}#el_SPgtpzb_uKg{fill: #acb4ff;}#el_0iaeDlWGVxy{fill: #acb4ff;}#el_6qKDu4mldkR{fill: #acb4ff;-webkit-transform: translate(0.01px, -0.02px);transform: translate(0.01px, -0.02px);}#el_38CO_KYkt32{fill: #acb4ff;-webkit-transform: translate(0.01px, -0.02px);transform: translate(0.01px, -0.02px);}#el_XvTb2v7icyM{fill: #acb4ff;-webkit-transform: translate(0.01px, -0.02px);transform: translate(0.01px, -0.02px);}#el_H06yghbjynY{fill: #acb4ff;-webkit-transform: translate(0.01px, -0.02px);transform: translate(0.01px, -0.02px);}#el_tok-LVOgYZr{fill: #acb4ff;-webkit-transform: translate(0.01px, -0.02px);transform: translate(0.01px, -0.02px);}#el_KENuWGCuM3I{fill: #acb4ff;-webkit-transform: translate(0.01px, -0.02px);transform: translate(0.01px, -0.02px);}#el_I6IJqeaoV1E{fill: #acb4ff;-webkit-transform: translate(0.01px, -0.02px);transform: translate(0.01px, -0.02px);}#el_crqZMfY74M3{fill: #ccd3ff;-webkit-transform: translate(0.01px, -0.02px);transform: translate(0.01px, -0.02px);}#el_pBOBKlX7DQ-{fill: #acb4ff;-webkit-transform: translate(0.01px, -0.02px);transform: translate(0.01px, -0.02px);}#el_nk_gLhkdrXF{fill: #ccd3ff;-webkit-transform: translate(0.01px, -0.02px);transform: translate(0.01px, -0.02px);}#el_yYBxne5pPxW{fill: #acb4ff;-webkit-transform: translate(0.01px, -0.02px);transform: translate(0.01px, -0.02px);}#el_ERgK1PdBv-a{fill: #acb4ff;-webkit-transform: translate(0.01px, -0.02px);transform: translate(0.01px, -0.02px);}#el_LDZ7Ho8r7SS{fill: #acb4ff;-webkit-transform: translate(0.01px, -0.02px);transform: translate(0.01px, -0.02px);}#el_1aYEAgUHIG-{fill: #acb4ff;-webkit-transform: translate(0.01px, -0.02px);transform: translate(0.01px, -0.02px);}#el_jPhrja8liId_an_Rc5eS2hWh{-webkit-transform: translate(245.99998474121094px, 98.80998992919922px) translate(-245.99998474121094px, -98.80998992919922px) translate(0px, 0px);transform: translate(245.99998474121094px, 98.80998992919922px) translate(-245.99998474121094px, -98.80998992919922px) translate(0px, 0px);}#el_ESiPXvvA0Mn_an_trgHJLrC0{-webkit-transform: translate(143.82949829101562px, 68.33966064453125px) rotate(20deg) translate(-143.82949829101562px, -68.33966064453125px);transform: translate(143.82949829101562px, 68.33966064453125px) rotate(20deg) translate(-143.82949829101562px, -68.33966064453125px);}#el_aJRzIlmB1pW_an_EjnVvIO4C{-webkit-transform: translate(149.9600372314453px, 92.76991271972656px) rotate(20deg) translate(-149.9600372314453px, -92.76991271972656px);transform: translate(149.9600372314453px, 92.76991271972656px) rotate(20deg) translate(-149.9600372314453px, -92.76991271972656px);}#el_ESiPXvvA0Mn_an_CxT_gkoLi{-webkit-transform: translate(143.82949829101562px, 68.33966064453125px) scale(1.3, 1.3) translate(-143.82949829101562px, -68.33966064453125px);transform: translate(143.82949829101562px, 68.33966064453125px) scale(1.3, 1.3) translate(-143.82949829101562px, -68.33966064453125px);}#el_hT-EsRfdBA8_an_U6a7cYlAL{-webkit-transform: translate(124.2300033569336px, 58.4900016784668px) rotate(20deg) translate(-124.2300033569336px, -58.4900016784668px);transform: translate(124.2300033569336px, 58.4900016784668px) rotate(20deg) translate(-124.2300033569336px, -58.4900016784668px);}#el_hT-EsRfdBA8_an_E4UKVrm3g{-webkit-transform: translate(124.2300033569336px, 58.4900016784668px) scale(1.2, 1.2) translate(-124.2300033569336px, -58.4900016784668px);transform: translate(124.2300033569336px, 58.4900016784668px) scale(1.2, 1.2) translate(-124.2300033569336px, -58.4900016784668px);}</style><defs/><title>contact</title><g id="el_bKduHFIVmL"><rect x="18.2" y="340.68" width="341.65" height="12.41" rx="6.2" id="el_fMCzOSUbh5"/><path d="M163.61,280.19h3.74V264.08c0-9.65-12.61-14-13.14-14.16L153,253.46c.1,0,10.59,3.66,10.59,10.62Z" id="el_XEUOmsZh4c"/><path d="M152.59,253.8h10a2.83,2.83,0,0,0,2.83-2.82h0a2.83,2.83,0,0,0-2.83-2.83h-10a2.83,2.83,0,0,0-2.84,2.82h0a2.82,2.82,0,0,0,2.82,2.82Z" id="el_gzy85L8Fxg"/><path d="M242.42,280.19h-3.74V264.08c0-9.65,12.6-14,13.14-14.16l1.19,3.54c-.1,0-10.59,3.66-10.59,10.62Z" id="el_YL4gtQvawo"/><path d="M253.44,253.8h-10a2.83,2.83,0,0,1-2.83-2.82h0a2.83,2.83,0,0,1,2.83-2.83h10a2.83,2.83,0,0,1,2.82,2.83h0a2.82,2.82,0,0,1-2.82,2.82Z" id="el_VfAffUU3B7"/><rect x="172" y="167.14" width="62.07" height="37.02" rx="17.16" id="el_EK_ZasiWtc"/><path d="M177.2,265.23h51.63A11.8,11.8,0,0,1,240.64,277v4.66H165.4V277A11.82,11.82,0,0,1,177.2,265.23Z" id="el_jq6JKc7EMF"/><path d="M236.81,332.67,203,327.73l-33.79,4.94a6.28,6.28,0,0,0-5.37,6.21v1.82L203,335.9l39.17,4.8v-1.82A6.28,6.28,0,0,0,236.81,332.67Z" id="el_Q9WFaFEYr3"/><path d="M198.62,328.41l-29.4,4.26a6.28,6.28,0,0,0-5.37,6.21v1.82L203,335.9Z" id="el_eiqokPva1s"/><path d="M244,341.08a3.62,3.62,0,1,1-3.62-3.62h0A3.62,3.62,0,0,1,244,341.08Z" id="el_RSzKvuuHca"/><path d="M242.14,341.08a1.81,1.81,0,1,1-1.81-1.81h0A1.81,1.81,0,0,1,242.14,341.08Z" id="el_dMSdmQUq8o"/><path d="M168.45,341.08a3.62,3.62,0,1,1-3.62-3.62h0a3.61,3.61,0,0,1,3.61,3.61Z" id="el_4jUXzYb56w"/><path d="M166.65,341.08a1.81,1.81,0,1,1-1.81-1.81h0A1.81,1.81,0,0,1,166.65,341.08Z" id="el_5UdAsZFc4e"/><rect x="198.64" y="281.68" width="8.78" height="52.91" id="el_b3uI9GK7Ib"/><rect x="203.03" y="281.68" width="4.4" height="52.91" id="el_BZIIbBwr65j"/><rect x="162.02" y="277.26" width="82.03" height="8.82" rx="1.72" id="el_GVKPreCYGYz"/><path d="M193.9,340.7v-4.62a7.73,7.73,0,0,1,2.6-5.79l2.12-1.89h8.79v8l-9,4.32Z" id="el_RBIkxbtDNQE"/><path d="M207.41,324.81v11.57l-9,4.32h-1.8V337a7.86,7.86,0,0,1,2.64-5.88l3.77-3.36Z" id="el_6MWn_BP9-u0"/><path d="M194.2,337.48c-1,0-1.82,1.62-1.82,3.62s.82,3.61,1.82,3.61h2.4v-7.23Z" id="el__v35zgJ1GOe"/><ellipse cx="196.61" cy="341.08" rx="1.82" ry="3.61" id="el_7EDmf1K0VXY"/><path d="M197.51,341.08c0,1-.41,1.81-.91,1.81s-.91-.81-.91-1.81.41-1.81.91-1.81S197.51,340.08,197.51,341.08Z" id="el_0cnFiB5eT55"/><path d="M248.31,228.27a5.55,5.55,0,0,1-1-.09,5.62,5.62,0,0,1-4.5-6.54c.33-1.77-1.47-9-7.13-17.63-5.89-9-13.32-15.58-20.38-18a5.61,5.61,0,0,1,3.6-10.63h0c21.76,7.36,37,37.26,34.95,48.26A5.63,5.63,0,0,1,248.31,228.27Z" id="el_EV6FGPW2dYI"/><path d="M158.19,223.64a7.74,7.74,0,0,1-6.44-3.56,5.61,5.61,0,0,1,5.62-8.79c1-1.61,2.29-4,3.39-6C166,195.64,174,181.05,187.52,175a5.61,5.61,0,0,1,4.61,10.24h0c-10.12,4.55-16.7,16.64-21.51,25.47-4.14,7.59-6.87,12.61-12,12.93Z" id="el_7g4w1TcYP_d"/><path d="M230.05,195.81v58.37a26.29,26.29,0,0,1-1.28,8.11H178.46a26.59,26.59,0,0,1-1.28-8.11V195.81a26.44,26.44,0,1,1,52.87-1c0,.34,0,.69,0,1Z" id="el_yiaePRfbtRg"/><path d="M230.05,215.08V235c-2-.25-12.39-1.77-17-6.28,0,0-6.47,3-9.12-1s9.87-13.14,9.87-13.14S224.64,217.41,230.05,215.08Z" id="el_B637wwQ4xwn"/><polygon points="208.79 181.54 203.61 178.38 198.44 181.54 202.24 187.95 198.44 232.24 203.61 235.59 207.85 232.24 204.99 187.95 208.79 181.54" id="el_vS9RWInQ57e"/><path d="M209.8,166.3c-3.22-1.49-5-.59-5.88,1.35-.89-1.94-2.65-2.84-5.87-1.35-10.49,4.83-2,21.67-2,21.67,3.12-5.93,7.52-6.2,7.52-6.2h.69s4.4.27,7.52,6.2C211.75,188,220.29,171.13,209.8,166.3Z" id="el_iA12yGLfn5r"/><path d="M230.06,256.4v2.3c0,9.91-11.84,18-26.44,18s-26.44-8.05-26.44-18v-2.3s7.62-2.6,26.44-2.6C220.67,253.8,230.06,256.4,230.06,256.4Z" id="el_XjPX1AZSm2g"/><path d="M213,172.37c0,5.07-9.18,9.18-9.18,9.18s-9.18-4.11-9.18-9.18a9.18,9.18,0,0,1,18.36,0Z" id="el_XpSX5nU8Nrj"/><path d="M188.75,257.22v-.11c1.73-4.66-1.24-9.82-5.73-9.82h-.19a6.25,6.25,0,0,0-5.73,4.26l-.07.18c-11.14,30.14,2.76,76.28,3.36,78.23l12-4.66C192.24,324.87,179.46,282.33,188.75,257.22Z" id="el_xUp841eWmRc"/><path d="M192.75,324.74s4.09,7.91,4.09,19.93h-44.3s-2.49-8.65,13.82-10.75c10.65-1.38,9.91-12.34,9.91-12.34s7.91-.53,8.54,4.85C184.81,326.43,186.61,323.47,192.75,324.74Z" id="el_gcgsHHWB2DW"/><path d="M217.9,257.22v-.11c-1.73-4.66,1.25-9.82,5.73-9.82h.12a6.25,6.25,0,0,1,5.74,4.26l.06.18c11.14,30.14-2.76,76.28-3.36,78.23l-12-4.66C214.39,324.87,227.17,282.33,217.9,257.22Z" id="el_uGcgyPY0okE"/><path d="M179.75,162.08c3.39-2.16,5.71-8.12,5.08-11.05s-5,2.38-5,2.21-6.79-3.38-5.29.3A47.81,47.81,0,0,0,179.75,162.08Z" id="el_Saf8qVB2p9i"/><path d="M213.91,324.74s-4.08,7.91-4.08,19.93h44.26s2.5-8.65-13.81-10.75c-10.66-1.38-9.92-12.34-9.92-12.34s-7.91-.53-8.54,4.85C221.82,326.43,220,323.47,213.91,324.74Z" id="el_NoejW75Njxi"/><path d="M217.08,108.54c4,2.41,14.59,10.59,13.35,29.63l-1.54-2.49s-.87-19.28-11.81-26.26Z" id="el_jht4gyOGb7V"/><path d="M206.68,106.94v-.86c27,.1,24.55,36.4,24.55,36.4h-.94S233.67,107.08,206.68,106.94Z" id="el_EwfQfrHjFSG"/><path d="M233,143.08c-.05,4.33-1.7,7.83-3.67,7.8s-3.53-3.56-3.48-7.89,1.7-7.82,3.67-7.8S233,138.79,233,143.08Z" id="el_rlAtnmLde8S"/><path d="M232.56,142.19c0,3.83-1.5,6.91-3.24,6.89s-3.11-3.14-3.07-7,1.5-6.91,3.24-6.89S232.61,138.37,232.56,142.19Z" id="el_FUv_k0vj8c_"/><path d="M231.92,143.08c-.07,5.5-2.15,9.93-4.66,9.9s-4.49-4.51-4.42-10,2.16-9.93,4.67-9.9S232,137.61,231.92,143.08Z" id="el_jSVKejRY8qz"/><path d="M204.64,109.08c-15.6,0-23.2,12.12-23.09,29.31s9.82,35.64,25,35.64c12.22,0,21.08-18.45,21.18-35.64S220.26,109.08,204.64,109.08Z" id="el_Aho9xfL085T"/><path d="M212.37,134l2.17-.23c.64,0,1.38-.11,2.17-.13a15.21,15.21,0,0,1,2.43.11,8,8,0,0,1,1.19.19,4.11,4.11,0,0,1,1.11.35,6,6,0,0,1,1,.46,5.56,5.56,0,0,1,.83.53l.67.54c.18.19.34.35.46.49l.43.43s-.06-.2-.21-.57c-.08-.18-.17-.41-.29-.65a6,6,0,0,0-.55-.77,4.55,4.55,0,0,0-.8-.78,5,5,0,0,0-1.06-.7,9.77,9.77,0,0,0-1.26-.51c-.44-.09-.89-.22-1.35-.27a10.84,10.84,0,0,0-2.67,0,10.14,10.14,0,0,0-1.2.23,8.05,8.05,0,0,0-1,.3A9.13,9.13,0,0,0,212.37,134Z" id="el_rFU16nXAJFB"/><path d="M202.67,134a9.36,9.36,0,0,0-2-.94c-.32-.11-.67-.21-1-.3a9.61,9.61,0,0,0-1.19-.23,10.92,10.92,0,0,0-2.68,0,7,7,0,0,0-1.35.27,9.1,9.1,0,0,0-1.25.51,5,5,0,0,0-1.06.7,3.94,3.94,0,0,0-.8.78c-.22.28-.4.54-.55.77a5.37,5.37,0,0,0-.29.65c-.15.37-.22.57-.22.57l.43-.43.46-.49c.21-.16.44-.34.67-.54a6.49,6.49,0,0,1,.83-.53,7.52,7.52,0,0,1,1-.46c.34-.16.74-.21,1.11-.35a4.3,4.3,0,0,1,1.2-.19,15.21,15.21,0,0,1,2.43-.11c.78,0,1.52.08,2.17.13Z" id="el_TFOWKUPzCLU"/><path d="M203.92,153.08c0-.6,1-1.12,2.4-1.38v-.83c0-5.24,1-13.29,2.16-13.29s2.17,8,2.17,13.29v.83c1.42.26,2.39.78,2.39,1.38s-1.09,1.18-2.65,1.44c-.36,1.83-1.08,2-1.9,2s-1.53-.21-1.9-2C205,154.23,203.92,153.69,203.92,153.08Z" id="el_MSImIRoDdmY"/><path d="M197.56,158.24a15.43,15.43,0,0,0,1.11,1.54c2.36,2.91,8.37,8.34,15.65,0,.41-.46.81-1,1.24-1.54Z" id="el__6JoN9DdoT7"/><path d="M197.56,158.24a15.43,15.43,0,0,0,1.11,1.54h15.65c.41-.46.81-1,1.24-1.54Z" id="el_Xo6Qd1QPSfh"/><path d="M203.16,162.43c0,.66,1.52,1.2,3.4,1.2s3.4-.54,3.4-1.2-1.52-1.2-3.4-1.2S203.16,161.77,203.16,162.43Z" id="el_jXJS-FuQDos"/><circle cx="216.94" cy="142.35" r="4.2" id="el_tL54cURV-EJ"/><path d="M212.75,142.51a2.74,2.74,0,1,0,2.74-2.74h0A2.74,2.74,0,0,0,212.75,142.51Z" id="el_AT3_D4Fd0Zo"/><path d="M213.47,141.16a.68.68,0,0,0,1.36,0h0a.68.68,0,0,0-1.36,0Z" id="el_oFPqsx-Rp7A"/><path d="M214.51,142a.37.37,0,1,0,.74,0,.37.37,0,0,0-.74,0Z" id="el_ZraI9giCp-O"/><path d="M191.67,142.37a4.21,4.21,0,1,0,4.22-4.2h0A4.2,4.2,0,0,0,191.67,142.37Z" id="el__AhPUUO3Tij"/><path d="M191.66,142.51a2.74,2.74,0,1,0,2.74-2.74,2.74,2.74,0,0,0-2.74,2.74Z" id="el_AJRDaJwRH8z"/><path d="M192.42,141.16a.68.68,0,1,0,.68-.68h0A.67.67,0,0,0,192.42,141.16Z" id="el_LGrsxGmRrxv"/><path d="M193.46,142a.38.38,0,0,0,.3.43.38.38,0,0,0,.43-.31.24.24,0,0,0,0-.12.38.38,0,0,0-.3-.43.38.38,0,0,0-.43.31A.24.24,0,0,0,193.46,142Z" id="el_N-0J3YIPQdO"/><path d="M227.75,141.53l-3.08-13-5.45-10.28s-14.7,5.06-27.2,0l-5.48,11.64-1.92,15.36s-1.08-8.23-4.76-11.71c0,0-1-11,4.08-16.56,0,0,2.06-10.6,18.67-10.12s21.42-.8,22.06-4.43c0,0,4,7.75-.7,12C224,114.45,232.57,123.84,227.75,141.53Z" id="el_ZM-1Yxt37S4"/><path d="M224,105.47a11.14,11.14,0,0,1-.28,1.51,13.52,13.52,0,0,1-1.53,3.68,7.54,7.54,0,0,1-.71,1.06,8.39,8.39,0,0,1-.88,1,12.3,12.3,0,0,1-2.26,1.81c-.42.27-.9.48-1.35.73s-1,.37-1.46.58a20.14,20.14,0,0,1-3.16.74,12.73,12.73,0,0,1-1.63.2,10.79,10.79,0,0,1-1.61.09,25.61,25.61,0,0,1-3.16-.13,27.26,27.26,0,0,1-5.52-1.17,28.19,28.19,0,0,1-3.75-1.5c-.88-.42-1.37-.71-1.37-.71a11.25,11.25,0,0,0,1.25.93,21.72,21.72,0,0,0,3.62,1.94,23.4,23.4,0,0,0,5.63,1.61,19.46,19.46,0,0,0,3.32.25,14.14,14.14,0,0,0,1.72-.07,14,14,0,0,0,1.71-.2,20.25,20.25,0,0,0,3.35-.83c.53-.22,1.07-.42,1.57-.68a12.24,12.24,0,0,0,1.45-.85,11.18,11.18,0,0,0,2.33-2.12,10,10,0,0,0,.87-1.18,10.54,10.54,0,0,0,.67-1.18,10.84,10.84,0,0,0,.81-2.21,13.14,13.14,0,0,0,.33-1.77A8.7,8.7,0,0,0,224,105.47Z" id="el_1gyv_cBZVF8"/><path d="M176.35,143.08c.06,5.5,2.15,9.93,4.66,9.9s4.48-4.51,4.42-10-2.16-9.9-4.68-9.9S176.28,137.61,176.35,143.08Z" id="el_bD80_DoiZmZ"/><path d="M177.32,136.7c1.43-10.62,2.12-30.62,29.24-30.62h.12v.83h-.12c-27.12,0-26.81,30.17-26.81,30.17Z" id="el_OnDSQdN2dmr"/><path d="M175.3,143.08c0,4.33,1.69,7.83,3.67,7.8s3.53-3.56,3.48-7.89-1.7-7.82-3.68-7.8S175.24,138.79,175.3,143.08Z" id="el_MuUIvn4rQde"/><path d="M175.75,142.19c.05,3.83,1.5,6.91,3.25,6.89s3.11-3.14,3.07-7-1.5-6.91-3.25-6.89S175.66,138.37,175.75,142.19Z" id="el_Y38s2ZD6IxM"/><path d="M179.75,149.87s4.6,16,20.17,16.21" id="el_xW97CCJ7-e_"/><path d="M200.25,167.33h1.66a1.25,1.25,0,0,0,1.25-1.25h0a1.25,1.25,0,0,0-1.25-1.25h-1.66a1.25,1.25,0,0,0-1.25,1.25h0A1.25,1.25,0,0,0,200.25,167.33Z" id="el_JohoXg1Xpqj"/><path d="M178.34,139.35a9.24,9.24,0,0,0-8.19,3c-3.65,4,.71,17.79.71,17.79s6.11,4.35,8.92,1.92-5-8.33-4.32-14.5c.2-1.71,4.12-3.4,1.87-5C177.33,142.6,179.8,141.29,178.34,139.35Z" id="el_1X5xT0VZ4Qn"/><path d="M209.3,212.62c-4-2.24-5.12-3.05-8.62-.83-2,1.25,6.85,3.9,6.85,3.9Z" id="el_KL6rPqMT3pr"/><path d="M204.31,223.45c-1-1.28-2.1-2.57-2.1-2.57s-1.59,1.88,1.35,4.07c0,.7.38,1.56,1.78,2.14,2.69,1.13,5.09-1.57,5.09-1.57S206.31,222.61,204.31,223.45Z" id="el_9hlXdq1sEUC"/><path d="M217.28,216.81s.08.26.16.67a3.06,3.06,0,0,1,.19,1.91,8.44,8.44,0,0,1-2.69,6.67s-4.93,2-7.29-1.09c0,0-1.08,1.22-2.24,1-2.09-.45-1.6-2.17-1.6-2.17s-2.85-.28-1.59-2.89c0,0-1.15-.25-.8-1.8l.53-.82c-4.26,2.67-4.09,1-3.42-.78a7.32,7.32,0,0,1,3.18-3.69c2.06-1.16,5.15-2.49,7.75-1.67C210.88,212.57,217.28,216.81,217.28,216.81Z" id="el_TCXjUXcs_Mz"/><path d="M202,218.27c-4.26,2.67-4.09,1-3.42-.78a7.32,7.32,0,0,1,1-1.79C199.81,216.71,200.48,218.19,202,218.27Z" id="el_lHkco6BR9LE"/><path d="M156.35,222.43a5.63,5.63,0,0,1-4.6-2.35c-2.33-3.23-4.13-9.42,2.64-28.73a195.57,195.57,0,0,1,15.29-33,12.7,12.7,0,0,1,6.22,1.43,8,8,0,0,1,3.42,4.33c-11.12,18.63-20,44.42-18.31,49.65a5.61,5.61,0,0,1-4.7,8.67Z" id="el_bbj2bUTm-kZ"/><path d="M239.87,231.72c-9,0-20.38-3.06-26-4.78a10.67,10.67,0,0,0,3.3-4.82,11.22,11.22,0,0,0,0-5.92c10.64,3.23,22.55,5.06,26.12,4.1a5.62,5.62,0,0,1,10.62,3.38,8.94,8.94,0,0,1-4.25,6C247.18,231.16,243.75,231.72,239.87,231.72Z" id="el__lnB6iNaRMU"/><polygon points="334.39 344.66 339.4 344.66 336.59 232.31 325.04 232.31 334.39 344.66" id="el_Has2b2vfvXo"/><polygon points="66.73 344.66 71.74 344.66 81.1 232.31 69.54 232.31 66.73 344.66" id="el_PP7ZdJHiNZA"/><rect x="78.82" y="230.91" width="248.5" height="16.37" id="el_yQSOOKOQEQ-"/><rect x="63.12" y="227.79" width="279.9" height="9.04" rx="2.49" id="el_VwMMSzFR0X8"/><path d="M91.75,211.22a59.34,59.34,0,0,1-58.4-49.32,57.55,57.55,0,0,1-.71-6.42c0-.55-.07-1.15-.08-1.78s0-1.08,0-1.64c0-1.81.09-3.61.25-5.36A59.13,59.13,0,0,1,91.75,92.88a60.06,60.06,0,0,1,6.84.39,58.45,58.45,0,0,1,20.07,6.07A59.16,59.16,0,0,1,91.75,211.22Z" id="el_zSZ9WtKAFek"/><path d="M148.3,152.08a56.6,56.6,0,0,1-112.41,9.41,60,60,0,0,1-.68-6.12c0-.56-.06-1.12-.07-1.69s0-1.06,0-1.6c0-1.73.08-3.44.23-5.12A56.58,56.58,0,0,1,96.81,95.7c.49,0,1,.09,1.46.15a56,56,0,0,1,19.2,5.8A56.61,56.61,0,0,1,148.3,152.08Z" id="el_tJMQqz2a5uO"/><path d="M131.65,175a73.68,73.68,0,0,0-2.43-7.36c-1.81-4.6-3.77-8.68-5.48-12.14s-3.23-6.24-4.16-8.15c-.48-1-.82-1.68-1-2l-.07-.17h0v0a3.25,3.25,0,0,0-6.48.57h0v.37a1,1,0,0,0,.07.44,1.28,1.28,0,0,1,.08.31c0,.11.1.38.16.58.24.76.58,1.64,1,2.71.89,2.12,2.19,5,3.69,8.45s3.18,7.45,4.65,11.76a65.79,65.79,0,0,1,1.93,6.61,26.51,26.51,0,0,1,.79,6.46,7.52,7.52,0,0,1-.05.82c-.6-1.44-1.14-3-1.67-4.49l-2-5.79a71,71,0,0,0-3.67-9,24.64,24.64,0,0,0-1.58-2.67c-.44-.64-.73-1-.73-1v-.05a4.3,4.3,0,0,0-6.73,5.34s.11.14.34.49.56.94,1,1.79a73.94,73.94,0,0,1,3.11,8l2,5.82a62.19,62.19,0,0,0,2.75,6.84c.33.68.69,1.35,1.09,2a11.17,11.17,0,0,0,1.83,2.28,7.21,7.21,0,0,0,1.82,1.28,6.16,6.16,0,0,0,6-.34l.31-.21.27-.19.18-.15h0l.19-.16h0l.14-.14.28-.26a11.78,11.78,0,0,0,3-5.06,17.59,17.59,0,0,0,.63-5A35.26,35.26,0,0,0,131.65,175Z" id="el_-h4MbjkKWg5"/><path d="M81.75,164.51l-.82.35-.44.19-.32.18-.38.19-.5.31a22.14,22.14,0,0,0-5.5,5.12A103.77,103.77,0,0,0,67,181a75.45,75.45,0,0,1-4.26,6.24,21,21,0,0,1-6.72,6c-.39.19-.79.36-1.19.53a13.24,13.24,0,0,1-1.26.41l-.16,0h0c-.17,0,.32-.06-.39.09h-.28l-.46.07H50.5A8.67,8.67,0,0,1,45,191.44a16.85,16.85,0,0,1-2.56-3.9,32.86,32.86,0,0,1-1.49-3.7A69.83,69.83,0,0,1,39.08,177c-.48-2.14-.86-4.14-1.21-6-.69-3.65-1.26-6.65-1.78-8.47a10.41,10.41,0,0,0-.6-1.7l-.06-.11h0l4.79-4.54.31.38q.15.18.36.48a6.05,6.05,0,0,1,.32.55,14.72,14.72,0,0,1,1.21,3c.73,2.32,1.37,5.4,2.15,9,.4,1.8.82,3.73,1.32,5.73a59.88,59.88,0,0,0,1.79,6,15.43,15.43,0,0,0,2.63,4.93c.47.5.8.53.78.51a.15.15,0,0,0-.13,0h.13l.45-.08h.21l-.33.07h.07c.16-.07.32-.11.49-.18l.49-.24a13.62,13.62,0,0,0,4-4c1.29-1.73,2.48-3.71,3.65-5.66a110.42,110.42,0,0,1,7.06-11.08,30.55,30.55,0,0,1,7.41-7.16l.8-.52.81-.45.7-.37.45-.21.81-.37Z" id="el_K2rE4Y9DTGW"/><path d="M67.53,125.21S71.45,138,63.24,147c0,0,11.32,8.65,41.9,5.89,23.71-2.14,14-45.73,14-45.73Z" id="el_0Ll1pA-Aj7K"/><path d="M105.14,152.91a48.56,48.56,0,0,1,16.13,11.55s-6.59,13.45-10.89,13.31S105.14,152.91,105.14,152.91Z" id="el_wI84uK0Cu-j"/><path d="M79.88,152.91a48.56,48.56,0,0,0-16.13,11.55s6.6,13.45,10.89,13.31S79.88,152.91,79.88,152.91Z" id="el_NitsW6_9IEE"/><path d="M113.53,176.08a19.4,19.4,0,0,1-.64,2,22.14,22.14,0,0,1-2.17,4.22c-2.52,3.85-4.84,8-5,10.57-.21,3.44,2,8,4.48,12.67a56.87,56.87,0,0,1-35,.64c2.69-4.85,5.06-9.72,4.85-13.31-.14-2.54-2.48-6.72-5-10.57a21.6,21.6,0,0,1-2.57-5.4,21.38,21.38,0,0,1-.66-10.2,22,22,0,0,1,8.07-13.56c.24-.19.48-.38.73-.56s.65-.44,1-.66.57-.35.86-.51.81-.45,1.23-.65a21,21,0,0,1,7.77-2c.48,0,1-.06,1.44-.06a11.32,11.32,0,0,1,1.43.06,20.75,20.75,0,0,1,7.88,2,5.79,5.79,0,0,1,.79.39,20.14,20.14,0,0,1,2.56,1.63c.22.16.43.33.64.5a21.63,21.63,0,0,1,5.26,6.28A21.89,21.89,0,0,1,113.53,176.08Z" id="el_LVE2Xt5YIea"/><path d="M102.2,150.85c-2.47,5-9.92,6.91-9.92,6.91s-7.26-1.6-9.82-6.33a20.52,20.52,0,0,1,9-2.62h2.86A20.35,20.35,0,0,1,102.2,150.85Z" id="el_AfyymDz7iB1"/><path d="M108.6,116.91h5.46a3.11,3.11,0,0,1,3.11,3c.14,4.75-.68,13.46-8.57,13.46Z" id="el_b6feh7OqHEO"/><path d="M71.82,116.91H66.37a3.11,3.11,0,0,0-3.12,3c-.14,4.75.68,13.46,8.57,13.46Z" id="el_CXHRa2Ptmoz"/><path d="M90.21,94.42c14.34,0,21.31,11.14,21.22,26.92S100,152.91,90.21,152.91,69.09,137.13,69,121.34,75.88,94.42,90.21,94.42Z" id="el_ECvUKBKRZ_2"/><path d="M70.06,119.21a2.94,2.94,0,0,1,.27-.53,7.21,7.21,0,0,1,3.9-3.19,7.5,7.5,0,0,1,1.32-.33,12.37,12.37,0,0,1,1.36,0c.44.06.89.07,1.3.16l1.18.31,1,.41a10.63,10.63,0,0,1,1.41.76l.52.31a.69.69,0,0,1-.68,1.2h-.06l-.49-.26c-.32-.15-.74-.45-1.29-.67l-.88-.39c-.33-.1-.67-.19-1-.31a10.63,10.63,0,0,0-1.1-.23,5,5,0,0,0-1.16,0,6.34,6.34,0,0,0-1.15.14,5.92,5.92,0,0,0-1.09.32c-.35.13-.67.31-1,.46a9,9,0,0,0-.82.55,8.33,8.33,0,0,0-1.14,1Z" id="el_Law5jOzgg7P"/><path d="M105.21,119.21a5.34,5.34,0,0,0-.39-.44,8.33,8.33,0,0,0-1.14-1,8,8,0,0,0-.83-.55,9.34,9.34,0,0,0-1-.46,5.92,5.92,0,0,0-1.09-.32,6.45,6.45,0,0,0-1.16-.14H98.45a3.72,3.72,0,0,0-1.1.23l-1,.31-.88.39a12,12,0,0,0-1.29.67l-.49.26h-.06A.69.69,0,0,1,93,117l.52-.31a9.58,9.58,0,0,1,1.41-.76l1-.41,1.19-.31c.41-.09.86-.1,1.3-.16a12.37,12.37,0,0,1,1.36,0,7.5,7.5,0,0,1,1.32.33,6.65,6.65,0,0,1,1.19.53,6.77,6.77,0,0,1,1,.68,8.86,8.86,0,0,1,.77.73,7.17,7.17,0,0,1,.94,1.25A4.78,4.78,0,0,1,105.21,119.21Z" id="el_GfgH8LUG1Ir"/><path d="M104.75,124.87a3.93,3.93,0,1,1-3.93-3.93h0A3.93,3.93,0,0,1,104.75,124.87Z" id="el_vv_R_rBMKi0"/><path d="M106.41,124.65v.13a.68.68,0,0,1-.18.26,1.34,1.34,0,0,1-.89.22,4.82,4.82,0,0,1-1-.14h-.09c.15-.1.31-.22.47-.35a1.7,1.7,0,0,0,.63-1,.78.78,0,0,0,0-.37l-.06-.12v.13a.55.55,0,0,1-.08.31,1.31,1.31,0,0,1-.75.53,4.24,4.24,0,0,1-1,.21,3.23,3.23,0,0,1-.44,0l.28,1.13s.25-.11.58-.3l-.09.83a6,6,0,0,0,1.63-.32,1.74,1.74,0,0,0,.94-.68.67.67,0,0,0,.08-.37S106.4,124.68,106.41,124.65Z" id="el_esQ8lh7awD-"/><path d="M104,125.21a3.59,3.59,0,1,1-3.59-3.59h0A3.58,3.58,0,0,1,104,125.2Z" id="el_kmTqgMoFLtF"/><circle cx="101.32" cy="125.67" r="2.92" id="el_shTZd_gBQB_"/><path d="M103.42,124.25a.77.77,0,1,1-.89-.72.49.49,0,0,1,.17,0,.72.72,0,0,1,.72.72Z" id="el_kCpIKaf76Iz"/><path d="M102.32,125.13a.4.4,0,1,1-.4-.4h0A.4.4,0,0,1,102.32,125.13Z" id="el_VKX6_w6OpPY"/><path d="M75.75,124.87a3.93,3.93,0,1,0,3.93-3.93h0a3.93,3.93,0,0,0-3.92,3.92Z" id="el_8-p915O9ypZ"/><path d="M74,124.65v.13a.65.65,0,0,0,.17.26,1.43,1.43,0,0,0,.9.22,4.82,4.82,0,0,0,1-.14h.1a3.19,3.19,0,0,1-.47-.35,1.62,1.62,0,0,1-.63-1,.78.78,0,0,1,0-.37l.06-.12v.13a.67.67,0,0,0,.07.31,1.33,1.33,0,0,0,.76.53,4.24,4.24,0,0,0,1,.21,3.23,3.23,0,0,0,.44,0l-.28,1.13s-.25-.11-.59-.3l.1.83a6.11,6.11,0,0,1-1.64-.32,1.68,1.68,0,0,1-.93-.68.86.86,0,0,1-.07-.5Z" id="el_CL7Ce8yj2dy"/><path d="M76.39,125.21A3.59,3.59,0,1,0,80,121.62h0A3.59,3.59,0,0,0,76.39,125.21Z" id="el_Y7uWIl64TmB"/><circle cx="80.86" cy="125.67" r="2.92" id="el_-s4duFYZrN6"/><path d="M83,124.25a.72.72,0,1,1-.72-.72A.73.73,0,0,1,83,124.25Z" id="el_zS-45EcMzW-"/><path d="M81.85,125.13a.41.41,0,0,1-.39.39.39.39,0,0,1-.33-.46.4.4,0,0,1,.33-.33A.4.4,0,0,1,81.85,125.13Z" id="el_2Qu7_kX1WQe"/><path d="M84.12,141.22s-1,4.46,2.69,4.8c3.85.36,5.21-5.11,5.21-5.11l-4.45,1.58Z" id="el_64OYTPiHncZ"/><path d="M84.75,141.44s-.94,2.95,1.58,3.38c3,.51,5.06-3.38,5.06-3.38S86.88,142.87,84.75,141.44Z" id="el_sFCo5XWjFia"/><path d="M92,140.91a6.43,6.43,0,0,1-8.91,0,7.82,7.82,0,0,1,4.35.91C89,140.91,92,140.91,92,140.91Z" id="el_TbzZRNsl6uw"/><path d="M88.06,132.75c0,2.16-1,3.9-2.15,3.9s-2.14-1.74-2.14-3.9,1-8.13,2.14-8.13S88.06,130.6,88.06,132.75Z" id="el_NtUAAm4l1ly"/><path d="M111.43,95.08s-8-11.45-26.87-7.73C63.37,91.53,58.46,121,69.3,125.72c0,0,1.87-18.55,29.09-21.23,0,0,6.23,20.27,20.3,26.62C118.69,131.08,124.66,101.43,111.43,95.08Z" id="el_QR_FmkzFcJM"/><path d="M101.92,100.49s-2.63.28-6.5.92c-1,.17-2,.36-3.1.58s-2.25.49-3.44.76-2.39.63-3.6,1-2.44.79-3.63,1.27a31.92,31.92,0,0,0-3.47,1.59,25,25,0,0,0-3.12,1.94,21.06,21.06,0,0,0-2.58,2.23,13.24,13.24,0,0,0-1,1.2c-.3.39-.58.82-.86,1.21a11.09,11.09,0,0,0-.67,1.19c-.21.38-.35.77-.52,1.13a7.09,7.09,0,0,0-.38,1l-.29.9-.38,1.77v-1.83a14.63,14.63,0,0,1,.38-2.08,11.22,11.22,0,0,1,.38-1.25q.26-.64.57-1.35c.25-.44.5-.91.78-1.39a12.66,12.66,0,0,1,1-1.38,18.32,18.32,0,0,1,2.63-2.58,17.4,17.4,0,0,1,1.56-1.15c.53-.39,1.11-.71,1.68-1A32.67,32.67,0,0,1,81,103.4c1.25-.49,2.52-.91,3.79-1.27s2.53-.63,3.75-.88a54.59,54.59,0,0,1,6.75-.84A41.92,41.92,0,0,1,101.92,100.49Z" id="el_dy1IHavZ3x7"/><path d="M112.46,147.59c-2.52-1.61-4.25-6-3.78-8.21s3.67,1.77,3.71,1.64,5-2.51,3.93.23A35.67,35.67,0,0,1,112.46,147.59Z" id="el_9fvZOZFnkj0"/><path d="M116.22,137.86l-1.72-10.09a.67.67,0,0,0-.53-.56h0l-2-.23h-.13a.71.71,0,0,0-.6.28l-8.49,11.68a4,4,0,0,0-.54,3.74l3.16,8.68a.69.69,0,0,0,.5.44H106l1.91.24h0a.69.69,0,0,0,.65-.31l7.1-11A4,4,0,0,0,116.22,137.86Z" id="el_6nhRcranSX3"/><path d="M104.68,139.18l8.58-11.7a.69.69,0,0,1,1-.16.7.7,0,0,1,.28.45l1.72,10.09a4,4,0,0,1-.58,2.83l-7.1,11a.69.69,0,0,1-1.23-.14l-3.16-8.69A4,4,0,0,1,104.68,139.18Z" id="el_tRFvNBUCpJp"/><path d="M113.52,130.71a6.86,6.86,0,0,1,6.09,2.24c2.7,2.94-.53,13.21-.53,13.21s-4.54,3.23-6.62,1.43,3.73-6.19,3.2-10.77c-.14-1.27-3.06-2.53-1.39-3.7C114.27,133.08,112.44,132.15,113.52,130.71Z" id="el_17UTs33MM19"/><path d="M118.53,145.08v.27h0l.06.13.32.66c.25.53.61,1.22,1,2l1.44,2.7c1.06,2,2.31,4.39,3.6,7,.65,1.29,1.29,2.65,1.92,4s1.26,2.83,1.86,4.29,1.17,2.93,1.69,4.42a43.85,43.85,0,0,1,1.35,4.51,39.8,39.8,0,0,1,.92,4.47c.1.73.15,1.49.22,2.2s0,1.45,0,2.16a16.64,16.64,0,0,1-.6,4.09,9.68,9.68,0,0,1-.65,1.8,9.42,9.42,0,0,1-.79,1.51c-.3.45-.57.84-.82,1.17l-.75.78-.64.63a4.1,4.1,0,0,1-6.5-4.82l.86-1.66a1,1,0,0,1,.11-.17l.15-.16a1.11,1.11,0,0,1,.17-.3,1.89,1.89,0,0,0,.19-.44,2.57,2.57,0,0,0,.2-.65,9,9,0,0,0,.26-2v-1.38a11.89,11.89,0,0,0-.17-1.57,31.05,31.05,0,0,0-.64-3.57c-.27-1.26-.65-2.58-1.05-3.92s-.84-2.72-1.32-4.1c-1-2.75-2.07-5.49-3.13-8.07s-2.1-5-3-7.08c-.45-1.06-.85-2-1.21-2.9s-.68-1.65-.93-2.35c-.13-.33-.24-.69-.34-1l-.07-.22-.1-.33c-.06-.23-.11-.45-.15-.64a2.8,2.8,0,0,1-.09-.58v-.14a3.25,3.25,0,0,1,6.42-1Z" id="el_mXN49uNhKXe"/><path d="M41,157.76c-.58,4.15-5,3.72-5,3.72-3.23-.32-10.17-6-10.74-9.42s0-4.47,0-4.47a5,5,0,0,0,0-2.1s.28-2,2-1.33,1.57,3.87,2.86,4.6l1.65,1,1.79,1s.86-1.14-1.29-2.6,0-2.65,0-2.65,1.58.67,5.51,2.65S41.57,153.61,41,157.76Z" id="el_RcVv7y5lgE9"/><path d="M37.75,156.9s-1.16-1.43-4.63-2.15c-2.53-.52-1.9-3.48-1.38-5l1.79,1a4.73,4.73,0,0,0,2.22,3.33A4,4,0,0,1,37.75,156.9Z" id="el_xucgatlMpz8"/><path d="M257.62,222.9H210.83v4.91h46.79C261.75,227.81,261.62,222.9,257.62,222.9Z" id="el_Bccl0j7Y7Z6"/><path d="M210.83,222.9c-3,0-11.21,1.94-16.89,3.38a1.58,1.58,0,0,0-1.19,1.53h18.08C215,227.81,214.82,222.9,210.83,222.9Z" id="el_VsbFm7svFs9"/><path d="M309.32,214.49h-64.5a3.3,3.3,0,0,1-3.3-3.32,3.55,3.55,0,0,1,0-.46l8.2-56.06a4.79,4.79,0,0,1,4.74-4.09H319a3.3,3.3,0,0,1,3.3,3.32,3.55,3.55,0,0,1,0,.46l-8.21,56A4.8,4.8,0,0,1,309.32,214.49Z" id="el_PbHFEv7uYsE"/><path d="M314,214.49H249.5a3.3,3.3,0,0,1-3.3-3.32,3.55,3.55,0,0,1,0-.46l8.21-56.06a4.78,4.78,0,0,1,4.73-4.09h64.5a3.3,3.3,0,0,1,3.3,3.32,3.55,3.55,0,0,1,0,.46l-8.19,56A4.8,4.8,0,0,1,314,214.49Z" id="el_GrK754-EDiY"/><path d="M275.75,176.86l-.9,8a7.82,7.82,0,0,0,6.91,8.65,8.46,8.46,0,0,0,.87.05h6.52l1.25-13.66Z" id="el_0oJkmCfC-O3"/><polygon points="280.44 188.2 282.46 223.63 306.31 223.63 296.63 188.2 280.44 188.2" id="el_kB5z0JQkpCl"/><path d="M291.88,191.65h0c-6.15,0-12.24-4.37-14.51-10.41l-1.62-4.38h26.81v4.38A10.25,10.25,0,0,1,291.88,191.65Z" id="el_UuQQaPsh5FC"/><path d="M315.4,227.81H256.75a59.42,59.42,0,0,1,24.6-8.62,46.39,46.39,0,0,1,5-.27H305S315.4,222.9,315.4,227.81Z" id="el_ZCBnP1yRZpm"/><path d="M287.32,227.81H256.75a59.42,59.42,0,0,1,24.6-8.62C282.75,220.17,287.32,223.66,287.32,227.81Z" id="el_Eb9D87hBhf5"/><rect x="229.8" y="77.56" width="84.46" height="48.12" rx="14.5" id="el_fdxTMEKiTw9"/><circle cx="295.59" cy="101.28" r="2.49" id="el_lGlJp8StK7X"/><circle cx="279.89" cy="101.28" r="2.49" id="el_mJvMbOZkFbM"/><path d="M261.68,101.29a2.49,2.49,0,1,0,2.5-2.48h0a2.48,2.48,0,0,0-2.48,2.48Z" id="el_3C2n4kdqWHm"/><path d="M246,101.29a2.49,2.49,0,1,0,2.5-2.48h0a2.48,2.48,0,0,0-2.48,2.48Z" id="el_jPhrja8liId"/><path d="M267,123.83s-2.86,13.25-19.47,15.68c0,0,8.05-2.88,8.05-15.68Z" id="el_AcJ3ERFsnYw"/><rect x="124.23" y="58.49" width="56.38" height="48.12" rx="14.5" id="el_hT-EsRfdBA8"/><path d="M154.94,95.25a2.49,2.49,0,1,1-2.5-2.48h0A2.48,2.48,0,0,1,154.94,95.25Z" id="el_aJRzIlmB1pW"/><path d="M152.55,89.43a1.87,1.87,0,0,1-1.87-1.87c0-4.76,2.5-6.52,4.32-7.8,1.44-1,2.24-1.58,2.24-3.42a3.87,3.87,0,0,0-1.4-3.17,5.38,5.38,0,0,0-3.39-1.1c-1.81,0-4.88.9-4.88,4.27a1.87,1.87,0,0,1-3.74,0,7.62,7.62,0,0,1,2.81-6,9.21,9.21,0,0,1,5.81-2c4.24,0,8.53,2.75,8.53,8,0,3.78-2.21,5.34-3.83,6.48s-2.73,1.92-2.73,4.74a1.87,1.87,0,0,1-1.87,1.87Z" id="el_ESiPXvvA0Mn"/><path d="M146.61,103.46s-2.86,13.25-19.47,15.68c0,0,8-2.88,8-15.68Z" id="el_oybNkI1aYRL"/><path d="M193.11,39.23a7,7,0,0,1,.94-1.67,8,8,0,0,1,1.42-1.42,11.48,11.48,0,0,1,2.09-1.28c.75-.4,1.42-.73,2-1a13.79,13.79,0,0,0,1.46-.8,3.45,3.45,0,0,0,.87-.79,1.62,1.62,0,0,0,.3-1,1.41,1.41,0,0,0-.45-1,1.77,1.77,0,0,0-1.3-.43,3.55,3.55,0,0,0-2,.59,13,13,0,0,0-1.66,1.3l-1.57-2.43a7.23,7.23,0,0,1,1.06-.75,10.61,10.61,0,0,1,1.5-.77,11.71,11.71,0,0,1,1.82-.59,9,9,0,0,1,2-.23,4.69,4.69,0,0,1,3.2,1,3.11,3.11,0,0,1,1.09,2.47,4.22,4.22,0,0,1-.37,1.79,5.42,5.42,0,0,1-1,1.37,7.06,7.06,0,0,1-1.32,1.06c-.48.31-1,.58-1.41.83l-1,.51a7.86,7.86,0,0,0-1,.66,8.47,8.47,0,0,0-1,.79,5.53,5.53,0,0,0-.79.89h6.48l-.64,3h-11.4A12,12,0,0,1,193.11,39.23Z" id="el_zbX_E6DiSAH"/><path d="M212.43,40.69h-6.68l.64-2.93,10-10.59h2.24l-2.24,10.57h2.07l-.64,3h-2.07L215,44.41h-3.3Zm1-3,1.18-5.57-5,5.57Z" id="el_IilC2r4IjFO"/><path d="M223.9,23.26h3.3l-1.6,7.46a6.81,6.81,0,0,1,2.24-1.93,5.74,5.74,0,0,1,2.69-.68,4.14,4.14,0,0,1,1.44.23,2.58,2.58,0,0,1,.93.64,2.38,2.38,0,0,1,.51,1,5.39,5.39,0,0,1,.14,1.2,8.54,8.54,0,0,1-.24,2l-1.7,8h-3.3L229.84,34a5.39,5.39,0,0,0,.14-1.2c0-1.18-.5-1.78-1.5-1.78a2.45,2.45,0,0,0-.88.2,4.27,4.27,0,0,0-1,.56,5.63,5.63,0,0,0-.91.85A4.84,4.84,0,0,0,225,33.7l-1.61,7.53h-3.29Z" id="el_jtb7ONjK6kZ"/><path d="M214.38,71.14A35.56,35.56,0,1,1,245.23,18l-7.14,4.1a27.36,27.36,0,0,0-48.57,25.2q.48.91,1,1.8a27.36,27.36,0,0,0,51.11-14.83l8.2-.38A35.56,35.56,0,0,1,216,71.06c-.54,0-1.08,0-1.62,0Z" id="el_iPdhCBKZQDR"/><polygon points="248.29 16.23 235.05 23.77 246.7 28.82 248.29 16.23" id="el_dXFnMCIdvEx"/><path d="M350.52,148a27.37,27.37,0,0,1-7.2-1A26.85,26.85,0,0,1,327,134.28l5.42-3.08a20.79,20.79,0,1,0-2.7-9.3l-6.23.28a27,27,0,1,1,28.2,25.74q-.6,0-1.2,0Z" id="el__Tc81QxyBXV"/><polygon points="324.69 135.61 334.75 129.88 325.9 126.04 324.69 135.61" id="el_x2Euz4p0doT"/><path d="M350.46,136.54a15.61,15.61,0,1,1,15.61-15.61h0A15.63,15.63,0,0,1,350.46,136.54Zm0-29.38A13.78,13.78,0,1,0,364.23,121h0A13.8,13.8,0,0,0,350.46,107.16Z" id="el_1Rvg4WmuHg4"/><path d="M350.46,136.5c-4.8,0-8.56-6.83-8.56-15.56s3.76-15.57,8.56-15.57,8.57,6.84,8.57,15.57S355.27,136.5,350.46,136.5Zm0-29.37c-3.69,0-6.8,6.32-6.8,13.81s3.11,13.81,6.8,13.81,6.81-6.33,6.81-13.81S354.15,107.13,350.46,107.13Z" id="el_8qI-sp837rF"/><rect x="349.6" y="106.23" width="1.76" height="29.38" id="el_SPgtpzb_uKg"/><rect x="335.79" y="120.04" width="29.38" height="1.76" id="el_0iaeDlWGVxy"/><path d="M49.63,87.21h-.36a8.33,8.33,0,1,1,6.49-14l-1.42,1.3a6.4,6.4,0,1,0,1.45,2.6l1.85-.51a8.35,8.35,0,0,1-5.81,10.27,8.51,8.51,0,0,1-2.19.3Z" id="el_6qKDu4mldkR"/><path d="M49.17,83.17h-.08a1,1,0,0,1-.79-.55c-.77-1.65-2.15-3.46-2.83-3.39h0A1.23,1.23,0,0,1,46.66,78a1.26,1.26,0,0,1,.81.27,9.67,9.67,0,0,1,1.82,2.26,33.6,33.6,0,0,1,6.85-6.57,1.82,1.82,0,0,1,2.53.48.86.86,0,0,1,.1.16h0c-4.88,2.64-8.79,8.2-8.83,8.26A1,1,0,0,1,49.17,83.17Z" id="el_38CO_KYkt32"/><path d="M28.68,217.78h-.52a11.85,11.85,0,1,1,9.24-19.86l-2,1.85a9.15,9.15,0,1,0,2.38,6.57,8.93,8.93,0,0,0-.33-2.86l2.63-.74a11.86,11.86,0,0,1-11.4,15Z" id="el_XvTb2v7icyM"/><path d="M28,212.08h-.12a1.34,1.34,0,0,1-1.12-.79c-1.11-2.35-3.07-4.92-4-4.82h0a1.74,1.74,0,0,1,2.87-1.5,14.09,14.09,0,0,1,2.59,3.22A47.5,47.5,0,0,1,38,198.84a2.59,2.59,0,0,1,3.6.68,1.76,1.76,0,0,1,.14.23h0c-6.94,3.76-12.5,11.67-12.56,11.75A1.37,1.37,0,0,1,28,212.08Z" id="el_H06yghbjynY"/><path d="M16.83,131.93h-.74A16.82,16.82,0,1,1,29.2,103.75l-2.86,2.62a13,13,0,1,0,3.39,9.32,13.3,13.3,0,0,0-.47-4l3.74-1A16.83,16.83,0,0,1,16.81,132Z" id="el_tok-LVOgYZr"/><path d="M15.91,123.77h-.16a1.93,1.93,0,0,1-1.59-1.11c-1.57-3.35-4.36-7-5.73-6.85h0a2.48,2.48,0,0,1,2.23-2.7,2.44,2.44,0,0,1,1.85.58,19.3,19.3,0,0,1,3.68,4.56A67.24,67.24,0,0,1,30,105a3.68,3.68,0,0,1,5.1,1c.07.11.14.22.2.33h0c-9.84,5.34-17.74,16.56-17.82,16.68A2,2,0,0,1,15.91,123.77Z" id="el_KENuWGCuM3I"/><path d="M315.4,37.9V49.33a3,3,0,0,1-2.95,3H292.08a3,3,0,0,1-2.95-3V37.9a3,3,0,0,1,.87-2.09,3,3,0,0,1,2.08-.85h20.37a3,3,0,0,1,2.08.85,3.17,3.17,0,0,1,.66,1A2.93,2.93,0,0,1,315.4,37.9Z" id="el_I6IJqeaoV1E"/><path d="M314.53,35.81l-10.92,6.67a2.6,2.6,0,0,1-2.69,0L290,35.81a2.79,2.79,0,0,0-.65,1L300.3,43.5a3.73,3.73,0,0,0,3.94,0l10.95-6.69A3.17,3.17,0,0,0,314.53,35.81Z" id="el_crqZMfY74M3"/><path d="M322.26,57.71v6a1.54,1.54,0,0,1-1.54,1.54H310.09a1.54,1.54,0,0,1-1.54-1.54h0v-6a1.56,1.56,0,0,1,.11-.57,1.61,1.61,0,0,1,.34-.52,1.57,1.57,0,0,1,1.09-.44h10.66a1.56,1.56,0,0,1,1.08.44,1.64,1.64,0,0,1,.35.52A1.58,1.58,0,0,1,322.26,57.71Z" id="el_pBOBKlX7DQ-"/><path d="M321.8,56.62l-5.7,3.48a1.35,1.35,0,0,1-1.4,0L309,56.62a1.61,1.61,0,0,0-.34.52l5.72,3.49a1.89,1.89,0,0,0,1,.3,2,2,0,0,0,1-.3l5.72-3.49A1.68,1.68,0,0,0,321.8,56.62Z" id="el_nk_gLhkdrXF"/><path d="M90.69,50.08l7.14,2.67a3.08,3.08,0,0,0,3.83-1.51l3.9-7.79a3.07,3.07,0,0,0-1.09-4l-6.42-4.11a.54.54,0,0,0-.75.15.43.43,0,0,0,0,.07L90.39,49.28a.57.57,0,0,0,.24.77Z" id="el_yYBxne5pPxW"/><path d="M70.53,46.14l18.82,2.6,6.83-13.66L82.81,21.58a1,1,0,0,0-1.41-.09,1,1,0,0,0-.26.36L69.75,44.64a1.05,1.05,0,0,0,.48,1.41A1.49,1.49,0,0,0,70.53,46.14Z" id="el_ERgK1PdBv-a"/><path d="M103,53.08l-.91-.45L106.91,43l.91.45a5.39,5.39,0,0,1,2.4,7.22h0a5.37,5.37,0,0,1-7.2,2.4Z" id="el_LDZ7Ho8r7SS"/><path d="M98.84,54.3l-6.7-2.57s2,5.87-1.57,15c0,0,3.55,3.21,7,1.42C97.57,68.13,99.94,60.68,98.84,54.3Z" id="el_1aYEAgUHIG-"/></g></svg>