<svg id="OBJECTS" xmlns="http://www.w3.org/2000/svg" xmlns:xlink="http://www.w3.org/1999/xlink" viewBox="0 0 409.48 310.59"><defs><style>.cls-1{fill:#171717;}.cls-1,.cls-21{opacity:0.1;}.cls-2{fill:#989a9e;}.cls-3{fill:#161f29;}.cls-4{fill:#d3d3d3;}.cls-5{fill:#e0e0e0;}.cls-6{fill:#c6c4c4;}.cls-21,.cls-7{fill:#253747;}.cls-8{fill:url(#linear-gradient);}.cls-9{fill:#8ebae8;}.cls-10,.cls-33{fill:#fff;}.cls-11{fill:#b7babf;}.cls-12{font-size:25.57px;}.cls-12,.cls-32{fill:#006486;}.cls-12,.cls-33{font-family:Montserrat-Black, Montserrat Black;font-weight:800;}.cls-13{letter-spacing:-0.04em;}.cls-14{letter-spacing:0em;}.cls-15,.cls-20{fill:#b8a58f;}.cls-16{fill:#d0baa2;}.cls-17{fill:#f3f0e9;}.cls-18{fill:#e8e6e4;}.cls-19{fill:#f2efe8;}.cls-20,.cls-31{opacity:0.2;}.cls-22{fill:#131c2b;}.cls-23{fill:#696a6e;}.cls-24{fill:#92263e;}.cls-25{fill:#f3585e;}.cls-26{fill:#1b2435;}.cls-27{fill:#28364f;}.cls-28{fill:#222e45;}.cls-29{fill:#1f5255;}.cls-30{fill:#915e1f;}.cls-31{fill:#261908;}.cls-33{font-size:14.27px;}.cls-34{letter-spacing:-0.06em;}.cls-35{letter-spacing:0em;}.cls-36{letter-spacing:0em;}.cls-37{fill:#7f8185;}</style><linearGradient id="linear-gradient" x1="108.43" y1="50.7" x2="108.43" y2="148.81" gradientTransform="matrix(-1, 0, 0, 1, 348.45, -44.09)" gradientUnits="userSpaceOnUse"><stop offset="0" stop-color="#334c62"/><stop offset="1" stop-color="#66798a"/></linearGradient></defs><title>joinTeam</title><ellipse class="cls-1" cx="204.74" cy="304.49" rx="204.74" ry="6.1"/><path class="cls-2" d="M287.44,213l-.57-.87a10.77,10.77,0,0,0-9-4.9H224a10.78,10.78,0,0,0-9.23,5.23l-.32.54Z" transform="translate(-5.92 -44.09)"/><path class="cls-2" d="M161.13,44.09H344.89a4.41,4.41,0,0,1,4.41,4.41V169.63a6.36,6.36,0,0,1-6.36,6.36H163.08a6.36,6.36,0,0,1-6.36-6.36V48.51A4.41,4.41,0,0,1,161.13,44.09Z" transform="translate(500.11 175.99) rotate(180)"/><path class="cls-3" d="M349.31,50.58V151.34H156.72V50.58a6.49,6.49,0,0,1,6.48-6.49H342.82A6.5,6.5,0,0,1,349.31,50.58Z" transform="translate(-5.92 -44.09)"/><path class="cls-4" d="M154.71,44.09H338.47a4.41,4.41,0,0,1,4.41,4.41V169.63a6.36,6.36,0,0,1-6.36,6.36H156.66a6.36,6.36,0,0,1-6.36-6.36V48.51A4.41,4.41,0,0,1,154.71,44.09Z" transform="translate(487.25 175.99) rotate(180)"/><path class="cls-5" d="M240.29,167a5.62,5.62,0,1,1,7.85,1.28A5.62,5.62,0,0,1,240.29,167Z" transform="translate(-5.92 -44.09)"/><path class="cls-6" d="M281.14,213l-.57-.87a10.77,10.77,0,0,0-9-4.9H217.74a10.77,10.77,0,0,0-9.23,5.23l-.32.54Z" transform="translate(-5.92 -44.09)"/><path class="cls-7" d="M342.88,50.38v101H150.29v-101a6.29,6.29,0,0,1,6.29-6.29h180A6.29,6.29,0,0,1,342.88,50.38Z" transform="translate(-5.92 -44.09)"/><rect class="cls-8" x="149.42" y="6.49" width="181.2" height="95.14"/><path class="cls-9" d="M310.26,55.59a2.46,2.46,0,1,0-2.46,2.46A2.46,2.46,0,0,0,310.26,55.59Z" transform="translate(-5.92 -44.09)"/><path class="cls-9" d="M320.36,55.59a2.46,2.46,0,1,0-2.46,2.46A2.47,2.47,0,0,0,320.36,55.59Z" transform="translate(-5.92 -44.09)"/><path class="cls-9" d="M330.45,55.59A2.46,2.46,0,1,0,328,58.05,2.46,2.46,0,0,0,330.45,55.59Z" transform="translate(-5.92 -44.09)"/><path class="cls-10" d="M155.34,50.58H191a14.24,14.24,0,0,1,10.82,5h0a15.84,15.84,0,0,0,12,5.53H336.54v84.63H155.34Z" transform="translate(-5.92 -44.09)"/><path class="cls-2" d="M236.31,207.27h25.35a32.92,32.92,0,0,0,0-31.28H236.31a32.92,32.92,0,0,1,0,31.28Z" transform="translate(-5.92 -44.09)"/><path class="cls-11" d="M229.64,207.27H255A33,33,0,0,0,255,176H229.64a32.92,32.92,0,0,1,0,31.28Z" transform="translate(-5.92 -44.09)"/><text class="cls-12" transform="translate(183.42 54.06)">JOIN A<tspan class="cls-13" x="71.07" y="0"> </tspan><tspan x="75.57" y="0">WS</tspan><tspan x="24.21" y="30.68">TE</tspan><tspan class="cls-14" x="49.49" y="30.68">A</tspan><tspan x="65.04" y="30.68">M</tspan></text><polygon class="cls-15" points="104.01 304.49 93.55 304.49 108.58 190.02 119.05 190.02 104.01 304.49"/><polygon class="cls-16" points="99.55 304.49 89.08 304.49 104.11 190.02 114.58 190.02 99.55 304.49"/><path class="cls-15" d="M102.7,324.23H52.19v-7H102.7a3.5,3.5,0,0,1,3.47,3.95h0A3.5,3.5,0,0,1,102.7,324.23Z" transform="translate(-5.92 -44.09)"/><polygon class="cls-16" points="53.51 304.49 43.04 304.49 58.07 190.02 68.54 190.02 53.51 304.49"/><rect class="cls-17" x="27.17" y="168.95" width="255.54" height="8.89"/><rect class="cls-18" x="282.71" y="168.95" width="63.71" height="8.89"/><rect class="cls-17" x="38.57" y="177.84" width="232.73" height="12.18"/><rect class="cls-18" x="271.31" y="177.84" width="62.93" height="12.18"/><polygon class="cls-19" points="49.04 304.49 38.57 304.49 53.6 190.02 64.07 190.02 49.04 304.49"/><path class="cls-15" d="M321.67,324.23H271.16v-7h50.51a3.49,3.49,0,0,1,3.47,3.95h0A3.5,3.5,0,0,1,321.67,324.23Z" transform="translate(-5.92 -44.09)"/><polygon class="cls-16" points="256.36 304.49 266.83 304.49 251.8 190.02 241.33 190.02 256.36 304.49"/><polygon class="cls-19" points="260.82 304.49 271.29 304.49 256.26 190.02 245.79 190.02 260.82 304.49"/><polygon class="cls-15" points="319.3 304.49 329.77 304.49 314.74 190.02 304.27 190.02 319.3 304.49"/><polygon class="cls-16" points="323.77 304.49 334.24 304.49 319.2 190.02 308.74 190.02 323.77 304.49"/><rect class="cls-20" x="271.31" y="177.84" width="62.93" height="4.47"/><rect class="cls-21" x="38.57" y="177.84" width="232.73" height="4.47"/><rect class="cls-22" x="145.07" y="243.8" width="9.97" height="51.69"/><path class="cls-2" d="M145.35,268.15H132a32.92,32.92,0,0,1,0-31.28h13.35a32.92,32.92,0,0,0,0,31.28Z" transform="translate(-5.92 -44.09)"/><path class="cls-23" d="M144.15,239.43c-.31.72-.6,1.44-.86,2.17H130c.26-.73.54-1.45.85-2.17Z" transform="translate(-5.92 -44.09)"/><path class="cls-23" d="M141.83,247.43c-.11.72-.2,1.44-.26,2.17H128.22c.06-.73.15-1.45.27-2.17Z" transform="translate(-5.92 -44.09)"/><path class="cls-23" d="M141.83,257.6H128.49c-.12-.72-.21-1.44-.27-2.17h13.35C141.63,256.16,141.72,256.88,141.83,257.6Z" transform="translate(-5.92 -44.09)"/><path class="cls-23" d="M144.15,265.6H130.81c-.32-.71-.6-1.44-.86-2.17h13.34C143.55,264.16,143.84,264.89,144.15,265.6Z" transform="translate(-5.92 -44.09)"/><path class="cls-24" d="M180.13,236.87h-69a15.3,15.3,0,0,1-15-12.21L80.17,147a15.3,15.3,0,0,1,15-18.38h69a15.29,15.29,0,0,1,15,12.21l16,77.69A15.29,15.29,0,0,1,180.13,236.87Z" transform="translate(-5.92 -44.09)"/><path class="cls-25" d="M164.74,236.87h-69a15.29,15.29,0,0,1-15-12.21L64.79,147a15.29,15.29,0,0,1,15-18.38h69a15.3,15.3,0,0,1,15,12.21l16,77.69A15.29,15.29,0,0,1,164.74,236.87Z" transform="translate(-5.92 -44.09)"/><path class="cls-24" d="M212.42,268.15H136.15a14.43,14.43,0,0,0-14.27,12.27h0a6.5,6.5,0,0,0,6.42,7.48h92a6.51,6.51,0,0,0,6.43-7.48h0A14.45,14.45,0,0,0,212.42,268.15Z" transform="translate(-5.92 -44.09)"/><path class="cls-25" d="M194.11,268.15H117.83a14.44,14.44,0,0,0-14.27,12.27h0A6.51,6.51,0,0,0,110,287.9h92a6.51,6.51,0,0,0,6.43-7.48h0A14.43,14.43,0,0,0,194.11,268.15Z" transform="translate(-5.92 -44.09)"/><path class="cls-11" d="M140.74,265.6c.37.87.79,1.72,1.24,2.56H128.63c-.45-.84-.86-1.69-1.23-2.56-.32-.71-.6-1.44-.86-2.17a32.31,32.31,0,0,1-1.46-5.83c-.12-.72-.21-1.44-.27-2.17-.09-1-.13-1.94-.13-2.92s0-1.94.13-2.91c.06-.73.15-1.45.27-2.17a32.1,32.1,0,0,1,1.46-5.83c.26-.73.54-1.45.85-2.17s.79-1.72,1.24-2.56H142c-.45.84-.87,1.7-1.24,2.56s-.6,1.44-.86,2.17a33.84,33.84,0,0,0-1.46,5.83c-.11.72-.2,1.44-.26,2.17-.09,1-.13,1.94-.13,2.91s0,2,.13,2.92c.06.73.15,1.45.26,2.17a34.07,34.07,0,0,0,1.46,5.83C140.14,264.16,140.43,264.89,140.74,265.6Z" transform="translate(-5.92 -44.09)"/><path class="cls-26" d="M164.71,299.06H147.23A11.19,11.19,0,0,1,136,287.87H175.9A11.19,11.19,0,0,1,164.71,299.06Z" transform="translate(-5.92 -44.09)"/><path class="cls-27" d="M118.77,343.34a5.25,5.25,0,1,0-5.25,5.24A5.25,5.25,0,0,0,118.77,343.34Z" transform="translate(-5.92 -44.09)"/><path class="cls-26" d="M116,343.34a2.46,2.46,0,1,0-2.46,2.45A2.45,2.45,0,0,0,116,343.34Z" transform="translate(-5.92 -44.09)"/><path class="cls-2" d="M113.52,336.62a6.72,6.72,0,0,0-6.72,6.72h13.45A6.72,6.72,0,0,0,113.52,336.62Z" transform="translate(-5.92 -44.09)"/><path class="cls-27" d="M203.67,343.34a5.25,5.25,0,1,0-5.25,5.24A5.25,5.25,0,0,0,203.67,343.34Z" transform="translate(-5.92 -44.09)"/><path class="cls-26" d="M200.87,343.34a2.45,2.45,0,1,0-2.45,2.45A2.45,2.45,0,0,0,200.87,343.34Z" transform="translate(-5.92 -44.09)"/><path class="cls-2" d="M198.42,336.62a6.72,6.72,0,0,0-6.72,6.72h13.44A6.72,6.72,0,0,0,198.42,336.62Z" transform="translate(-5.92 -44.09)"/><path class="cls-27" d="M161.34,343.34a5.25,5.25,0,1,0-5.24,5.24A5.25,5.25,0,0,0,161.34,343.34Z" transform="translate(-5.92 -44.09)"/><path class="cls-26" d="M158.55,343.34a2.45,2.45,0,1,0-2.45,2.45A2.45,2.45,0,0,0,158.55,343.34Z" transform="translate(-5.92 -44.09)"/><path class="cls-11" d="M156.1,336.62a6.72,6.72,0,0,0-6.72,6.72h13.44A6.72,6.72,0,0,0,156.1,336.62Z" transform="translate(-5.92 -44.09)"/><path class="cls-26" d="M103,289.33h94a6.17,6.17,0,0,1,6.17,6.17v0a0,0,0,0,1,0,0H96.88a0,0,0,0,1,0,0v0A6.17,6.17,0,0,1,103,289.33Z"/><path class="cls-26" d="M145.15,278.22H155a2.48,2.48,0,0,1,2.48,2.48v14.8a0,0,0,0,1,0,0H142.67a0,0,0,0,1,0,0V280.7A2.48,2.48,0,0,1,145.15,278.22Z"/><path class="cls-28" d="M148.83,289.33h2.44a6.17,6.17,0,0,1,6.17,6.17v0a0,0,0,0,1,0,0H142.67a0,0,0,0,1,0,0v0A6.17,6.17,0,0,1,148.83,289.33Z"/><ellipse class="cls-29" cx="314.95" cy="134.29" rx="4.22" ry="13.86"/><ellipse class="cls-29" cx="311.07" cy="182.45" rx="4.22" ry="13.86" transform="translate(-43.82 229.3) rotate(-45)"/><ellipse class="cls-29" cx="314.95" cy="134.29" rx="4.22" ry="13.86"/><ellipse class="cls-29" cx="330.68" cy="182.45" rx="13.86" ry="4.22" transform="translate(-38.08 243.17) rotate(-45)"/><polygon class="cls-30" points="329.76 151.84 300.16 151.84 299.58 144.49 330.34 144.49 329.76 151.84"/><polygon class="cls-30" points="325.9 168.95 304 168.95 302.63 151.84 327.26 151.84 325.9 168.95"/><polygon class="cls-31" points="302.63 151.84 327.26 151.84 327.01 155.02 302.88 155.02 302.63 151.84"/><path class="cls-32" d="M197.1,158.37l-51.6,7.46a6.57,6.57,0,0,0-5.56,7.44L144,201.53a6.57,6.57,0,0,0,7.44,5.56l51.6-7.46a6.57,6.57,0,0,0,5.56-7.44l-4.09-28.26A6.57,6.57,0,0,0,197.1,158.37Zm-41.41,11.56a1.24,1.24,0,1,1,1.06-1.41A1.24,1.24,0,0,1,155.69,169.93Zm33.65-4.86a1.26,1.26,0,0,1-1.41-1.06,1.25,1.25,0,0,1,2.47-.36A1.26,1.26,0,0,1,189.34,165.07Z" transform="translate(-5.92 -44.09)"/><text class="cls-33" transform="translate(147.73 148.16) rotate(-8.23)"><tspan class="cls-34">V</tspan><tspan class="cls-35" x="7.15" y="0">AN</tspan><tspan class="cls-36" x="25.27" y="0">C</tspan><tspan x="33.59" y="0">Y</tspan></text><path class="cls-24" d="M155.49,128.54c-5.43,2.77-5,10.54-4.86,15.75A86.19,86.19,0,0,0,155,168.93c.2.62,1.16.35,1-.27a84.74,84.74,0,0,1-4.2-21.54c-.33-5.33-1.46-14.79,4.25-17.71C156.58,129.12,156.06,128.25,155.49,128.54Z" transform="translate(-5.92 -44.09)"/><path class="cls-24" d="M189.82,164.15c-3.06-11.58-5.09-27.7-17.69-32.93-.59-.25-.85.72-.26,1,12.13,5,14,21.11,17,32.24A.5.5,0,0,0,189.82,164.15Z" transform="translate(-5.92 -44.09)"/><path class="cls-37" d="M140.74,239.43c-.31.72-.6,1.44-.86,2.17H126.54c.26-.73.54-1.45.85-2.17Z" transform="translate(-5.92 -44.09)"/><path class="cls-37" d="M138.42,247.43c-.11.72-.2,1.44-.26,2.17H124.81c.06-.73.15-1.45.27-2.17Z" transform="translate(-5.92 -44.09)"/><path class="cls-37" d="M138.42,257.6H125.08c-.12-.72-.21-1.44-.27-2.17h13.35C138.22,256.16,138.31,256.88,138.42,257.6Z" transform="translate(-5.92 -44.09)"/><path class="cls-37" d="M140.74,265.6H127.4c-.32-.71-.6-1.44-.86-2.17h13.34C140.14,264.16,140.43,264.89,140.74,265.6Z" transform="translate(-5.92 -44.09)"/></svg>