<svg id="OBJECTS" xmlns="http://www.w3.org/2000/svg" viewBox="0 0 476.19 405.71"><defs><style>.cls-1{fill:#506de4;}.cls-10,.cls-16,.cls-17,.cls-18,.cls-2,.cls-22,.cls-23,.cls-25,.cls-26,.cls-27,.cls-33,.cls-36,.cls-42,.cls-45,.cls-46,.cls-47,.cls-51,.cls-52,.cls-6,.cls-7,.cls-8{fill:none;}.cls-2{stroke:#1f2641;stroke-width:0.19px;}.cls-2,.cls-42,.cls-47,.cls-6,.cls-7,.cls-8{stroke-miterlimit:10;}.cls-3{fill:#ffc873;}.cls-4{fill:#edf1ff;}.cls-5{fill:#e7ebfa;}.cls-6,.cls-7{stroke:#d6dfff;}.cls-7{stroke-width:0.78px;}.cls-10,.cls-8{stroke:#090e21;stroke-width:0.29px;}.cls-9{fill:#4dc7b8;}.cls-10,.cls-16,.cls-17,.cls-18,.cls-22,.cls-23,.cls-25,.cls-26,.cls-27,.cls-33,.cls-36,.cls-45,.cls-46,.cls-51,.cls-52{stroke-linecap:round;stroke-linejoin:round;}.cls-11{fill:#ffb440;}.cls-12{fill:#f3b595;}.cls-13{fill:#090e21;}.cls-14{fill:#1e2e6e;}.cls-15{fill:#19265c;}.cls-16,.cls-17,.cls-18,.cls-27,.cls-36{stroke:#fff;}.cls-16,.cls-17,.cls-18,.cls-36{stroke-width:0.27px;}.cls-17{stroke-dasharray:2.18 2.18;}.cls-18{stroke-dasharray:2.18 2.18;}.cls-19{fill:#4862cf;}.cls-20{fill:#f2ac88;}.cls-21{fill:#42210b;}.cls-22{stroke:#42210b;stroke-width:0.55px;}.cls-23{stroke:#172354;}.cls-23,.cls-25,.cls-27,.cls-33,.cls-45,.cls-46,.cls-47,.cls-51,.cls-52{stroke-width:1.1px;}.cls-24{fill:#915e44;}.cls-25,.cls-26{stroke:#4259ba;}.cls-26{stroke-width:2.2px;}.cls-28{fill:#dae2f5;}.cls-29{fill:#8ea3f5;}.cls-30{fill:#f38061;}.cls-31{fill:#fff;}.cls-32{fill:#53d6c6;}.cls-33{stroke:#44b0a3;}.cls-34{fill:#783c13;}.cls-35{fill:#57e0cf;}.cls-36{stroke-dasharray:2.2;}.cls-37{fill:#cc9033;}.cls-38{fill:#996c26;}.cls-39{fill:#c1c6db;}.cls-40{fill:#d6d9e6;}.cls-41{fill:#092229;}.cls-42{stroke:#e5e9fb;stroke-width:0.6px;}.cls-43{fill:#e5e9fb;}.cls-44{fill:#eb7150;}.cls-45{stroke:#f38061;}.cls-46{stroke:#d9a350;}.cls-47{stroke:#0b1129;}.cls-48{fill:#ffd38f;}.cls-49{fill:#ffb94d;}.cls-50{fill:#465fc7;}.cls-51{stroke:#43ada0;}.cls-52{stroke:#0d1430;}.cls-53{fill:#ffb29e;}.cls-54{fill:#e68c75;}.cls-55{fill:#784900;}</style></defs><title>newteam</title><path class="cls-1" d="M374.57,292.32s-8.29-3.38-5.07-8S375.63,288.83,374.57,292.32Z" transform="translate(-4.61 -50.5)"/><path class="cls-2" d="M378.78,323.7s2-23.32-7-36.61" transform="translate(-4.61 -50.5)"/><path class="cls-1" d="M373.28,296.4s-8,4-9.37-1.53S371.37,293.3,373.28,296.4Z" transform="translate(-4.61 -50.5)"/><path class="cls-2" d="M376.35,297.3s-1.78-1.1-6.23-1.45" transform="translate(-4.61 -50.5)"/><path class="cls-1" d="M375.25,307s-6.92,5.68-9.48.64S372.68,304.41,375.25,307Z" transform="translate(-4.61 -50.5)"/><path class="cls-2" d="M378.43,307.18s-2-.67-6.39,0" transform="translate(-4.61 -50.5)"/><path class="cls-1" d="M376,317.21s-7.94,4.13-9.4-1.33S374,314.14,376,317.21Z" transform="translate(-4.61 -50.5)"/><path class="cls-2" d="M379,318.05s-1.8-1.07-6.26-1.33" transform="translate(-4.61 -50.5)"/><path class="cls-1" d="M380.27,301.05s2-8.72,7.13-6.28S383.88,301.53,380.27,301.05Z" transform="translate(-4.61 -50.5)"/><path class="cls-2" d="M377.63,302.84s2-.67,5.07-3.89" transform="translate(-4.61 -50.5)"/><path class="cls-1" d="M381.48,311.79s2-8.71,7.13-6.27S385.1,312.28,381.48,311.79Z" transform="translate(-4.61 -50.5)"/><path class="cls-2" d="M378.84,313.59s2-.67,5.08-3.9" transform="translate(-4.61 -50.5)"/><path class="cls-3" d="M365.12,322a1.36,1.36,0,0,0-1.36,1.53c.09.67.26,1.79.57,3.15,3,13.07,21.21,14.85,26.35,2.48a18.6,18.6,0,0,0,1.36-5.71,1.36,1.36,0,0,0-1.36-1.45Z" transform="translate(-4.61 -50.5)"/><path class="cls-4" d="M76.32,357.16C68.41,343.86,66,328.93,72,315.1c6.39-14.62,19.65-27.6,18.16-43.78-1.75-19-19.61-35.12-26.23-53.06-13.86-37.61,19.72-45.54,60.68-51.41,13.83-2,28.7-3.89,40.33-10.67,15.49-9,22.11-24.28,39.43-32.07,31.15-14,56.26,3,79.91,18,27,17.06,63.83,11.87,91.82,26.82,30.38,16.22,39,52.35,19.73,77.18-6.27,8.06-15,16.77-18,26-5.15,15.8,6.52,29.36,17.5,42.08C414,335.71,424.74,372,400,393.44c-39.39,34.08-105.46,16-149.37,0-35.79-13.08-70,6.16-106.24,4.08C116.05,395.87,89.09,378.63,76.32,357.16Z" transform="translate(-4.61 -50.5)"/><path class="cls-5" d="M456.72,430.61c4.57,15.36-6.63,21.06-116.85,23.84C73.51,461.16,31.5,447.63,31.5,431.61s112.16-35.1,266.4-16.88C384.07,424.92,445.32,392.36,456.72,430.61Z" transform="translate(-4.61 -50.5)"/><path class="cls-6" d="M181.86,80.81c-2.84-1.67-3.72-3.53-1.55-5.26s7-3.46,6.51-5.48c-.63-2.38-7-4.39-9.41-6.64-5-4.7,7.07-5.7,21.76-6.43a105,105,0,0,0,14.47-1.34c5.55-1.13,7.92-3,14.13-4C238.94,49.9,248,52,256.43,53.9c9.69,2.13,22.89,1.48,32.93,3.35,10.89,2,14,6.55,7.07,9.66-2.25,1-5.38,2.1-6.45,3.25-1.85,2,2.34,3.67,6.27,5.27,6.68,2.69,10.55,7.23,1.66,9.92-14.13,4.26-37.82,2-53.57,0-12.83-1.63-25.09.77-38.09.51C196.1,85.65,186.43,83.49,181.86,80.81Z" transform="translate(-4.61 -50.5)"/><path class="cls-6" d="M435.32,134.38a19.15,19.15,0,0,0-5.47,2.94c-11.2,8.57-19.82,4.13-31.5-.89-4.91-2.11-8.35-2.2-13.54-1.56-3.13.39-9.94,2.47-12.58-.42-5.45-6,10.75-8.6,13.45-10.58,6.53-4.78-.93-16,10.22-15.85,6.12.06,11.91,1.15,17.58-1.69,5.18-2.6,8.58-7.75,14.29-9.51,15.92-4.91,30.11,7.2,44.63,11.36,5.39,1.54,6.33,3.63,7.34,8.66C485.15,143.79,449.72,129.33,435.32,134.38Z" transform="translate(-4.61 -50.5)"/><path class="cls-7" d="M44.67,197.59a18.88,18.88,0,0,1,4.82,2c9.88,6,17.49,2.88,27.79-.61,4.33-1.47,7.36-1.53,11.94-1.09,2.76.27,8.76,1.72,11.1-.29,4.8-4.16-9.49-6-11.87-7.36-5.75-3.32.82-11.1-9-11-5.4,0-10.51.8-15.5-1.18-4.57-1.81-7.58-5.39-12.61-6.61-14-3.42-26.56,5-39.37,7.9-4.75,1.07-5.58,2.52-6.47,6C.71,204.14,32,194.08,44.67,197.59Z" transform="translate(-4.61 -50.5)"/><path class="cls-1" d="M68.3,350.78s-12.71-19.35-1.52-18.69C66.78,332.09,75.91,332.55,68.3,350.78Z" transform="translate(-4.61 -50.5)"/><path class="cls-1" d="M69.66,359.86s2.46-14.82,7.25-15.11C76.91,344.75,89.19,346.14,69.66,359.86Z" transform="translate(-4.61 -50.5)"/><path class="cls-1" d="M71.14,366.71S59.22,355,57.91,360.32C57.91,360.32,55.27,366.94,71.14,366.71Z" transform="translate(-4.61 -50.5)"/><path class="cls-1" d="M72.7,372.4s5.61-14.7,12.77-14.1C85.47,358.3,95,361.09,72.7,372.4Z" transform="translate(-4.61 -50.5)"/><path class="cls-1" d="M73.83,376.8s-13-11.21-15.1-1.67C58.73,375.13,57.12,382,73.83,376.8Z" transform="translate(-4.61 -50.5)"/><path class="cls-1" d="M77,384.05s3.79-16.21,11.36-14.52C88.34,369.53,98.85,373.55,77,384.05Z" transform="translate(-4.61 -50.5)"/><path class="cls-1" d="M78.94,388.54s-13.48-8.11-15.86-2.29C63.08,386.25,59.36,394.8,78.94,388.54Z" transform="translate(-4.61 -50.5)"/><path class="cls-1" d="M83.55,395.24s4.89-17.46,12.55-11.06C96.1,384.18,101,390.79,83.55,395.24Z" transform="translate(-4.61 -50.5)"/><path class="cls-1" d="M86.69,400.6s-16.4-8-16.59,1.81C70.1,402.41,70,410.79,86.69,400.6Z" transform="translate(-4.61 -50.5)"/><path class="cls-1" d="M91,405.69s1.63-12.85,8.63-13.33C99.66,392.36,110.22,394.71,91,405.69Z" transform="translate(-4.61 -50.5)"/><path class="cls-1" d="M94,408.62S72.16,403.11,73.53,413C73.53,413,74.48,423.3,94,408.62Z" transform="translate(-4.61 -50.5)"/><path class="cls-1" d="M68.69,356.36s-18.18-2.74-12.13-10.11C56.56,346.25,60.29,341.75,68.69,356.36Z" transform="translate(-4.61 -50.5)"/><path class="cls-8" d="M67.65,341.32s-.06,47.71,31,71.19" transform="translate(-4.61 -50.5)"/><path class="cls-8" d="M69,356.15a96.83,96.83,0,0,1-9.94-6.59" transform="translate(-4.61 -50.5)"/><path class="cls-8" d="M69.91,358.42s6.24-4.43,7.64-9.89" transform="translate(-4.61 -50.5)"/><path class="cls-8" d="M72.62,372.14s8.29-6.06,10-9.92" transform="translate(-4.61 -50.5)"/><path class="cls-8" d="M71.14,366.71s-6.44-2.68-8.93-4.57" transform="translate(-4.61 -50.5)"/><path class="cls-8" d="M74.06,376.59s-7.72-.5-9.49-.95" transform="translate(-4.61 -50.5)"/><path class="cls-8" d="M76.9,383.85s5.35-4.84,7.27-7.47" transform="translate(-4.61 -50.5)"/><path class="cls-8" d="M79.06,388.43s-7.63.39-10.75-.86" transform="translate(-4.61 -50.5)"/><path class="cls-8" d="M83.55,395.24a72.22,72.22,0,0,0,6.88-6.57" transform="translate(-4.61 -50.5)"/><path class="cls-8" d="M85.17,399.93a30.08,30.08,0,0,1-9.74,1.92" transform="translate(-4.61 -50.5)"/><line class="cls-8" x1="86.34" y1="355.17" x2="93.12" y2="346.47"/><line class="cls-8" x1="89.38" y1="358.12" x2="75.56" y2="361.89"/><path class="cls-9" d="M113.12,359.49s2.43-17.29,8.44-11.35C121.56,348.14,126.51,353,113.12,359.49Z" transform="translate(-4.61 -50.5)"/><path class="cls-9" d="M109.37,365.32s8.77-7.18,11.63-5C121,360.36,127.27,367.26,109.37,365.32Z" transform="translate(-4.61 -50.5)"/><path class="cls-9" d="M106.8,369.93s-.91-12.59-4.32-10.2C102.48,359.73,97.69,362.17,106.8,369.93Z" transform="translate(-4.61 -50.5)"/><path class="cls-9" d="M104.85,373.94s10.5-5.54,14.26-1.64C119.11,372.3,123.12,378.63,104.85,373.94Z" transform="translate(-4.61 -50.5)"/><path class="cls-9" d="M103.3,377s-1.77-12.8-7.73-8.46C95.57,368.53,91.21,371.64,103.3,377Z" transform="translate(-4.61 -50.5)"/><path class="cls-9" d="M101.48,382.67s10.21-7.3,13.67-2.57C115.15,380.1,119.1,387.61,101.48,382.67Z" transform="translate(-4.61 -50.5)"/><path class="cls-9" d="M100.35,386.19s-3.6-11.3-7.85-9.19C92.5,377,86.13,380,100.35,386.19Z" transform="translate(-4.61 -50.5)"/><path class="cls-9" d="M99.63,392.28s11.46-7.46,12.62,0C112.25,392.26,111.73,398.44,99.63,392.28Z" transform="translate(-4.61 -50.5)"/><path class="cls-9" d="M98.74,396.89s-5.31-12.72-10.3-7.24C88.44,389.65,84.21,394.36,98.74,396.89Z" transform="translate(-4.61 -50.5)"/><path class="cls-9" d="M98.66,401.93s7.32-6.47,11.54-3.26C110.2,398.67,115,405.26,98.66,401.93Z" transform="translate(-4.61 -50.5)"/><path class="cls-9" d="M98.88,405.07s-9.63-14-13.79-7.69C85.09,397.38,80.52,403.67,98.88,405.07Z" transform="translate(-4.61 -50.5)"/><path class="cls-9" d="M110.56,362.85s-8.94-10.61-1.84-11.77C108.72,351.08,113.07,350.39,110.56,362.85Z" transform="translate(-4.61 -50.5)"/><path class="cls-10" d="M117.46,353.81s-23.79,27-17.89,55.76" transform="translate(-4.61 -50.5)"/><path class="cls-10" d="M110.86,362.89a72.83,72.83,0,0,1-2.36-8.68" transform="translate(-4.61 -50.5)"/><path class="cls-10" d="M110.23,364.62s5.74.59,9.25-1.8" transform="translate(-4.61 -50.5)"/><path class="cls-10" d="M104.94,373.75s7.71.69,10.58-.67" transform="translate(-4.61 -50.5)"/><path class="cls-10" d="M106.8,369.93a43.4,43.4,0,0,1-2.79-7" transform="translate(-4.61 -50.5)"/><path class="cls-10" d="M103.53,377s-4.13-4.13-4.9-5.26" transform="translate(-4.61 -50.5)"/><path class="cls-10" d="M101.53,382.52a57.06,57.06,0,0,0,7.84-.61" transform="translate(-4.61 -50.5)"/><path class="cls-10" d="M100.47,386.19s-4.51-3.58-5.66-5.85" transform="translate(-4.61 -50.5)"/><path class="cls-10" d="M99.63,392.28a55.18,55.18,0,0,0,7.17-.29" transform="translate(-4.61 -50.5)"/><path class="cls-10" d="M98.21,395.75A23,23,0,0,1,91.73,392" transform="translate(-4.61 -50.5)"/><line class="cls-10" x1="94.02" y1="351.37" x2="102.19" y2="349.82"/><line class="cls-10" x1="94.27" y1="354.57" x2="84.56" y2="349.82"/><polygon class="cls-11" points="65.61 359.47 105.35 359.47 98.87 384.11 73.51 384.11 65.61 359.47"/><polygon class="cls-3" points="62.51 357.83 108.66 357.83 105.35 366.04 66.25 366.04 62.51 357.83"/><polygon class="cls-12" points="206.72 370.78 207.09 378.02 214.83 378.02 214.49 368.1 206.72 370.78"/><path class="cls-13" d="M221.62,429.37c0,.74.12,2.32-1.61,2.88-3.95,1.27-12.48,1.11-17.74,1.11-5.69,0-8-1.57-8-4,0-1.81,4.47-.72,10.26-1.54,1.94-.27,4.87-3,6.58-2.15,5.47,2.6,6.75,1.45,8.54,1.11C220.47,426.63,221.62,428.27,221.62,429.37Z" transform="translate(-4.61 -50.5)"/><polygon class="cls-12" points="245.39 370.78 245.01 378.02 237.28 378.02 237.62 368.1 245.39 370.78"/><path class="cls-13" d="M239.7,429.37c0,.74-.12,2.32,1.61,2.88,4,1.27,12.48,1.11,17.74,1.11,5.69,0,8-1.57,8-4,0-1.81-4.47-.72-10.26-1.54-1.94-.27-4.87-3-6.58-2.15-5.47,2.6-6.75,1.45-8.54,1.11C240.85,426.63,239.7,428.27,239.7,429.37Z" transform="translate(-4.61 -50.5)"/><path class="cls-14" d="M204.07,276.92S201,336.83,198.94,358c0,0,6,41.77,10.44,66.5,0,0,3.92,1.73,10.06.05l3.82-60.49,16-87.13Z" transform="translate(-4.61 -50.5)"/><path class="cls-15" d="M255.13,276.61S258,336.68,260,357.84c0,0-3.85,40.78-8,65.51a13.16,13.16,0,0,1-10.31,1.38l-4.46-60.85-6.71-39.09-1.69-50Z" transform="translate(-4.61 -50.5)"/><path class="cls-16" d="M204.43,314.11s0,.39-.1,1.09" transform="translate(-4.61 -50.5)"/><path class="cls-17" d="M204.13,317.37c-.77,8.43-2.87,31-4.06,40.91l9.36,62" transform="translate(-4.61 -50.5)"/><line class="cls-16" x1="204.99" y1="370.83" x2="205.15" y2="371.92"/><path class="cls-16" d="M256.3,315.46s0,.39,0,1.09" transform="translate(-4.61 -50.5)"/><path class="cls-18" d="M256.37,318.73c.2,8.2.8,29.68,2,39.55l-5.67,59.52" transform="translate(-4.61 -50.5)"/><line class="cls-16" x1="247.97" y1="368.4" x2="247.87" y2="369.49"/><path class="cls-1" d="M258.35,216.52c-5.76-7.55-14-11.16-22.76-14.84a19.69,19.69,0,0,0-12.09-1.29,23.16,23.16,0,0,0-6.5,2.54,67.77,67.77,0,0,0-10.26,5.63c1.11,13.84-4.81,27-6.67,41.13.81-1.63,1.64-3.24,2.42-4.73h0c-1.75,15.38-.29,52-.29,52,36.17,6.93,54.28,2.59,54.28-3.16,0-17.87-1.53-42.47-3.34-52.79h0c1.13,1.79,2.46,3.77,3.78,5.69C257.6,236.46,258.46,226.54,258.35,216.52Z" transform="translate(-4.61 -50.5)"/><path class="cls-19" d="M206.88,289.29s-3.2-41.89-3.75-48.16c-.39.75-.21,3-.64,3.83-1.75,15.38-.29,52-.29,52,36.17,6.93,54.28,2.59,54.28-3.16,0-12.49-.32-36.28-4.05-56,.72,7.21-.68,11.57-5.45,43.35C247,281.1,221.86,294.72,206.88,289.29Z" transform="translate(-4.61 -50.5)"/><path class="cls-12" d="M196.62,298.15s1.46,9.22,8.85,14.14A32.33,32.33,0,0,0,209.76,300s-6.59-4.09-10.15-6.83Z" transform="translate(-4.61 -50.5)"/><path class="cls-12" d="M262.87,298.15s-1.46,9.22-8.85,14.14A32.33,32.33,0,0,1,249.73,300s6.59-4.09,10.15-6.83Z" transform="translate(-4.61 -50.5)"/><path class="cls-1" d="M206.74,208.56a33.47,33.47,0,0,0-7.84,7c-11.15,14.76-19.43,42.68-19.43,49.83,0,3.64,15.31,36.81,18.06,38.42,2.19,1.28,6.21-8,6.21-8-1.47-9.13-8.4-34.5-8.4-34.5.58-2.9,2.6-7.32,4.73-11.59C201.93,235.6,207.85,222.4,206.74,208.56Z" transform="translate(-4.61 -50.5)"/><path class="cls-1" d="M277.93,252.8c-1.18-8.76-13.28-26.65-18.12-34.2-.46-.73-1-1.41-1.46-2.08.11,10-.75,19.94-1.43,30.15,3.3,4.77,6.53,9.14,6.53,9.14,0,3-7,38-7,38s6,9.06,8,6.93C267.88,297.13,278.59,257.69,277.93,252.8Z" transform="translate(-4.61 -50.5)"/><path class="cls-12" d="M220.27,181.41l-4.48,21.7s11,6,19.89-.55l-5-23.13Z" transform="translate(-4.61 -50.5)"/><path class="cls-20" d="M220.27,181.41l-4.48,21.7s.35.19,1,.47a125.82,125.82,0,0,0,16.44-12.32l-2.58-11.83Z" transform="translate(-4.61 -50.5)"/><path class="cls-12" d="M241,177.43a15.11,15.11,0,0,1-15.12,14.9h-.19c-8.21,0-14.35-6.69-14.35-14.9V161.17c0-8.21,6.14-15,14.35-15h.19a15.18,15.18,0,0,1,15.12,15Z" transform="translate(-4.61 -50.5)"/><path class="cls-21" d="M220.27,165.65a.84.84,0,1,1-.83-.84A.84.84,0,0,1,220.27,165.65Z" transform="translate(-4.61 -50.5)"/><path class="cls-21" d="M232.32,165.65a.84.84,0,1,1-.84-.84A.85.85,0,0,1,232.32,165.65Z" transform="translate(-4.61 -50.5)"/><path class="cls-22" d="M225.5,167.84a23.37,23.37,0,0,1-1.32,8.39,8.69,8.69,0,0,1,2.65,1.1" transform="translate(-4.61 -50.5)"/><path class="cls-22" d="M223.63,183.35s7,2.37,10.22-5.56" transform="translate(-4.61 -50.5)"/><line class="cls-23" x1="211.54" y1="112.59" x2="214.96" y2="110.86"/><line class="cls-23" x1="229.74" y1="112.59" x2="226.32" y2="110.86"/><path class="cls-12" d="M215.79,170c0,3.2-2.17,5.8-4.84,5.8s-4.84-2.6-4.84-5.8,2.17-5.79,4.84-5.79S215.79,166.78,215.79,170Z" transform="translate(-4.61 -50.5)"/><path class="cls-12" d="M245.35,170c0,3.2-2.16,5.8-4.83,5.8s-4.84-2.6-4.84-5.8,2.16-5.79,4.84-5.79S245.35,166.78,245.35,170Z" transform="translate(-4.61 -50.5)"/><path class="cls-14" d="M235.44,146.62c.61-.59,3.14-1.06,3.87-1,3.42.12,2.7,10.58,2.71,11.81,0,2.83-2.24,11.45-2.26,11.9.23-5.52,0-10.79-1-14.32-.9-3-5.73-5.17-3.53-8.07A2.26,2.26,0,0,1,235.44,146.62Z" transform="translate(-4.61 -50.5)"/><path class="cls-14" d="M215.88,146.62a3.48,3.48,0,0,0-2.25-1c-3.23.12-3.74,5.27-3.9,8.13-.07,1.22-.06,2.45-.07,3.68a21.66,21.66,0,0,0,.4,5.69c.24,1.33,1.76,5.4,1.78,5.84-.22-5.52-.18-8.52.82-12.05.85-3,5.54-7.07,3.47-10A2.15,2.15,0,0,0,215.88,146.62Z" transform="translate(-4.61 -50.5)"/><path class="cls-14" d="M211.26,155.51c-5.51-1.45-7.09-4.21-7.3-4.24,1,.11,6-5,7.43-6.77,10.23-12.86,22.73-6.19,25.43-2.41,1.27,1.78,1.34,5.41-.13,7.13C235.47,150.63,222.58,158.51,211.26,155.51Z" transform="translate(-4.61 -50.5)"/><path class="cls-14" d="M206,147s4.06,1.92,15-7l-8.55,11.54S207.46,153.68,206,147Z" transform="translate(-4.61 -50.5)"/><path class="cls-24" d="M210,170a1.75,1.75,0,0,0-1.47-.4,1.71,1.71,0,0,1,.64-.72.49.49,0,0,0-.52-.84,2.36,2.36,0,0,0-1.14,1.74,2,2,0,0,0,1.18,1.67.59.59,0,0,0,.25.07.52.52,0,0,0,.43-.24.5.5,0,0,0,.06-.34,2.2,2.2,0,0,1-.09.94.49.49,0,0,0,.35.6l.13,0a.48.48,0,0,0,.47-.37A2.09,2.09,0,0,0,210,170Zm-.7.69a0,0,0,0,1,0,0,.41.41,0,0,1,.07.11A.36.36,0,0,0,209.32,170.64Zm.1.15a.09.09,0,0,1,0,.05A.09.09,0,0,0,209.42,170.79Z" transform="translate(-4.61 -50.5)"/><path class="cls-24" d="M240.75,172.08a.5.5,0,0,0,.48.37l.12,0a.48.48,0,0,0,.35-.6,2.34,2.34,0,0,1-.08-.94.5.5,0,0,0,.06.34.52.52,0,0,0,.42.24.59.59,0,0,0,.26-.07,2,2,0,0,0,1.18-1.67A2.36,2.36,0,0,0,242.4,168a.49.49,0,0,0-.52.84,1.71,1.71,0,0,1,.64.72,1.75,1.75,0,0,0-1.47.4A2.12,2.12,0,0,0,240.75,172.08Zm.91-1.32a.44.44,0,0,1,.08-.11,0,0,0,0,1,0,0Zm0,.08,0-.05Z" transform="translate(-4.61 -50.5)"/><path class="cls-25" d="M202.72,244.09c1-4.56,1.79-8.77,2.94-12.88" transform="translate(-4.61 -50.5)"/><path class="cls-25" d="M252.82,242c-.88-3.78-1.84-7.67-2.77-10.94" transform="translate(-4.61 -50.5)"/><path class="cls-26" d="M215.79,203.11s11.65,7.38,19.8-1.43" transform="translate(-4.61 -50.5)"/><path class="cls-27" d="M238.33,234.7a15.63,15.63,0,0,0,8-.5s2.88,10.17-3.35,10.53C243,244.73,236,245.16,238.33,234.7Z" transform="translate(-4.61 -50.5)"/><path class="cls-28" d="M120.58,155.22a10.48,10.48,0,1,1-10.48-10.48A10.48,10.48,0,0,1,120.58,155.22Z" transform="translate(-4.61 -50.5)"/><path class="cls-29" d="M115.16,148.44c-1.51-.38-3.72,2-5,5.4-1.8-2.93-4.24-4.82-5.6-4.29s-1.13,3.63.69,6.85c1.49,2.65,3.55,4.57,5,4.85l.23.08c1.55.39,3.86-2.17,5.16-5.73S116.71,148.83,115.16,148.44Z" transform="translate(-4.61 -50.5)"/><path class="cls-28" d="M347.34,148.49A10.48,10.48,0,1,1,336.86,138,10.48,10.48,0,0,1,347.34,148.49Z" transform="translate(-4.61 -50.5)"/><path class="cls-29" d="M341.92,141.71c-1.51-.39-3.72,2-5,5.4-1.8-2.93-4.24-4.83-5.6-4.29s-1.13,3.63.69,6.84c1.49,2.65,3.55,4.57,5,4.85l.23.08c1.56.4,3.86-2.17,5.16-5.73S343.47,142.1,341.92,141.71Z" transform="translate(-4.61 -50.5)"/><path class="cls-30" d="M270.2,126.53a14.68,14.68,0,1,1-14.68-14.68A14.67,14.67,0,0,1,270.2,126.53Z" transform="translate(-4.61 -50.5)"/><path class="cls-31" d="M249.56,127.13a2.7,2.7,0,1,1-2.7-2.69A2.69,2.69,0,0,1,249.56,127.13Z" transform="translate(-4.61 -50.5)"/><path class="cls-31" d="M257.92,127.13a2.7,2.7,0,1,1-2.69-2.69A2.69,2.69,0,0,1,257.92,127.13Z" transform="translate(-4.61 -50.5)"/><path class="cls-31" d="M266.28,127.13a2.69,2.69,0,1,1-2.69-2.69A2.68,2.68,0,0,1,266.28,127.13Z" transform="translate(-4.61 -50.5)"/><path class="cls-30" d="M455.42,174.8a14.68,14.68,0,1,1-14.67-14.68A14.67,14.67,0,0,1,455.42,174.8Z" transform="translate(-4.61 -50.5)"/><path class="cls-31" d="M434.78,175.4a2.69,2.69,0,1,1-2.69-2.69A2.69,2.69,0,0,1,434.78,175.4Z" transform="translate(-4.61 -50.5)"/><path class="cls-31" d="M443.14,175.4a2.69,2.69,0,1,1-2.69-2.69A2.68,2.68,0,0,1,443.14,175.4Z" transform="translate(-4.61 -50.5)"/><path class="cls-31" d="M451.51,175.4a2.69,2.69,0,1,1-2.69-2.69A2.69,2.69,0,0,1,451.51,175.4Z" transform="translate(-4.61 -50.5)"/><polygon class="cls-12" points="275.48 363.36 269.98 367.88 264.75 362.18 272.25 355.78 275.48 363.36"/><path d="M267.07,411.8c-.54.5-1.78,1.48-1,3.13,1.73,3.78,7.61,10,11.16,13.84,3.84,4.2,6.57,4.86,8.35,3.23,1.34-1.23-2.48-3.78-5.79-8.61-1.1-1.62-1.09-5.6-2.84-6.31-5.62-2.28-5.64-4-6.59-5.54C269.87,410.8,267.89,411.06,267.07,411.8Z" transform="translate(-4.61 -50.5)"/><polygon class="cls-12" points="281.9 370.78 282.28 378.02 290.02 378.02 289.67 368.1 281.9 370.78"/><path class="cls-13" d="M296.81,429.37c0,.74.12,2.32-1.61,2.88-4,1.27-12.48,1.11-17.74,1.11-5.7,0-8-1.57-8-4,0-1.81,4.47-.72,10.26-1.54,1.94-.27,4.87-3,6.57-2.15,5.48,2.6,6.76,1.45,8.55,1.11C295.66,426.63,296.81,428.27,296.81,429.37Z" transform="translate(-4.61 -50.5)"/><path class="cls-15" d="M322.3,290.61s4.8,51.71.92,72.6c0,0-6.44,10.75-43.15,53.43a25.72,25.72,0,0,0-7.88-8l29.47-53-5.72-67,1.47-15.3Z" transform="translate(-4.61 -50.5)"/><path class="cls-14" d="M270.81,276.87s-1.88,20.06,3.86,84.58c0,0,6,36.24,10.43,61a17.68,17.68,0,0,0,10.39,0l.45-58.15,2.81-43-1.48-46.52Z" transform="translate(-4.61 -50.5)"/><path class="cls-30" d="M318.49,213.43c-.31-.13-15.85-11.62-16.17-11.75a19.69,19.69,0,0,0-12.09-1.29,23.16,23.16,0,0,0-6.5,2.54s-15.19,11.77-15.52,11.91L271.89,236c-1.9,13.34,1.67,41.63,2.37,55,11.34,1.56,35.71,2.72,42.48,2.17-2.28-11.09.64-51.21,0-62.1Z" transform="translate(-4.61 -50.5)"/><path class="cls-32" d="M282.19,258.89c1.28-12.82,5-35.2,4.31-48.55-.26-5.27-1.26-2.4-3.27-7.19a69.21,69.21,0,0,0-9.76,5.41c1.11,13.84-4.81,27-6.67,41.13.81-1.63,1.64-3.24,2.42-4.73-1.75,15.38-.29,52-.29,52q6.44,1.23,12.08,2C280.31,285.59,280.28,272.24,282.19,258.89Z" transform="translate(-4.61 -50.5)"/><path class="cls-32" d="M325.08,216.52c-5.56-7.28-13.4-10.89-21.81-14.44-1.34,4.24-3.06,3.09-3.32,7.64-1.74,30.78,7.24,62.06,8.19,89.21,10-.81,15.08-2.14,15.08-5.16,0-17.87-1.54-42.47-3.35-52.79,1.13,1.79,2.46,3.77,3.79,5.69C324.33,236.46,325.19,226.54,325.08,216.52Z" transform="translate(-4.61 -50.5)"/><path class="cls-9" d="M281.25,267.08l-.15,1.45-12.7,6.22s-.39-6.44,0-8Z" transform="translate(-4.61 -50.5)"/><path class="cls-12" d="M317.73,252.44a41.19,41.19,0,0,0,11.08-2.21l-9.27-9.66s-10.59,8.69-11.36,13.48Z" transform="translate(-4.61 -50.5)"/><polygon class="cls-9" points="299.63 214.04 300.1 217.28 318.09 224.25 317.32 209.67 299.63 214.04"/><path class="cls-32" d="M273.47,208.56a33.47,33.47,0,0,0-7.84,7c-11.15,14.76-13.38,46.59-11.78,53.56,2.75,12,60.54-12.23,62.61-14.64,1.37-1.6-1.73-10.13-1.73-10.13-11.4,0-47.4,8.78-47.4,8.78l2.13-10.23C271.32,228.81,274.58,222.4,273.47,208.56Z" transform="translate(-4.61 -50.5)"/><path class="cls-12" d="M277.3,248.19a61.38,61.38,0,0,0-7.34-8.72l-2.73,13.61s11.52,2.38,16.14.93Z" transform="translate(-4.61 -50.5)"/><path class="cls-9" d="M291.23,247.82s19.53,1.51,25,1.62c0,0,.9,2.21.24,6.8C316.5,256.24,292,257,291.23,247.82Z" transform="translate(-4.61 -50.5)"/><path class="cls-9" d="M273.73,253.11s2.47,1.29-1.54.71c0,0,8.27,8,17.47,11.95,0,0,7-1.59,11-5.3Z" transform="translate(-4.61 -50.5)"/><path class="cls-32" d="M336.81,269.12c2.43-5.45-2.77-32.41-10.13-49.34-3.53-8.14-9.9-10.31-13-12.77-.67-.54,1.69,10.75,1,21l7.42,23.79c0,3-45.77-6.8-45.77-6.8s-6,7.82-3.61,9.44C281.77,260.4,332.42,279,336.81,269.12Z" transform="translate(-4.61 -50.5)"/><path class="cls-12" d="M287,181.41l-4.48,21.7s11,15.23,19.89-.55l-5-23.13Z" transform="translate(-4.61 -50.5)"/><path class="cls-20" d="M287,181.41l-4.48,21.7s.35.19,1,.47A125.82,125.82,0,0,0,300,191.26l-2.58-11.83Z" transform="translate(-4.61 -50.5)"/><path class="cls-12" d="M306.86,177.5A14.82,14.82,0,0,1,292,192.33h0A14.83,14.83,0,0,1,277.2,177.5V161A14.83,14.83,0,0,1,292,146.19h0A14.82,14.82,0,0,1,306.86,161Z" transform="translate(-4.61 -50.5)"/><path class="cls-21" d="M287,165.65a.84.84,0,1,1-.83-.84A.84.84,0,0,1,287,165.65Z" transform="translate(-4.61 -50.5)"/><path class="cls-21" d="M299.05,165.65a.84.84,0,1,1-.84-.84A.85.85,0,0,1,299.05,165.65Z" transform="translate(-4.61 -50.5)"/><path class="cls-22" d="M292.23,167.84a23.37,23.37,0,0,1-1.32,8.39,8.69,8.69,0,0,1,2.65,1.1" transform="translate(-4.61 -50.5)"/><line class="cls-23" x1="278.27" y1="112.59" x2="281.69" y2="110.86"/><line class="cls-23" x1="296.48" y1="112.59" x2="293.06" y2="110.86"/><path class="cls-12" d="M282.52,170c0,3.2-2.17,5.8-4.84,5.8s-4.84-2.6-4.84-5.8,2.17-5.79,4.84-5.79S282.52,166.78,282.52,170Z" transform="translate(-4.61 -50.5)"/><path class="cls-12" d="M312.08,170c0,3.2-2.16,5.8-4.83,5.8s-4.84-2.6-4.84-5.8,2.16-5.79,4.84-5.79S312.08,166.78,312.08,170Z" transform="translate(-4.61 -50.5)"/><path class="cls-24" d="M276.75,170a1.75,1.75,0,0,0-1.47-.4,1.71,1.71,0,0,1,.64-.72.49.49,0,0,0-.52-.84,2.36,2.36,0,0,0-1.14,1.74,2,2,0,0,0,1.18,1.67.59.59,0,0,0,.26.07.52.52,0,0,0,.42-.24.5.5,0,0,0,.06-.34,2.2,2.2,0,0,1-.09.94.5.5,0,0,0,.36.6l.12,0a.48.48,0,0,0,.47-.37A2.09,2.09,0,0,0,276.75,170Zm-.7.69a0,0,0,0,1,0,0,.44.44,0,0,1,.08.11A.62.62,0,0,0,276.05,170.64Zm.1.15a.09.09,0,0,1,0,.05A.09.09,0,0,0,276.15,170.79Z" transform="translate(-4.61 -50.5)"/><path class="cls-24" d="M307.49,172.08a.48.48,0,0,0,.47.37l.13,0a.5.5,0,0,0,.35-.6,2.2,2.2,0,0,1-.09-.94.45.45,0,0,0,.07.34.49.49,0,0,0,.41.24.59.59,0,0,0,.26-.07,2,2,0,0,0,1.18-1.67,2.36,2.36,0,0,0-1.14-1.74.49.49,0,1,0-.52.84,1.71,1.71,0,0,1,.64.72,1.75,1.75,0,0,0-1.47.4A2.09,2.09,0,0,0,307.49,172.08Zm.9-1.32a1,1,0,0,1,.08-.11h0A.62.62,0,0,0,308.39,170.76Zm0,.08a.09.09,0,0,1,0-.05A.09.09,0,0,0,308.37,170.84Z" transform="translate(-4.61 -50.5)"/><path class="cls-33" d="M272.39,231.21c-1.94,6.89-4,16.41-5.16,21.9" transform="translate(-4.61 -50.5)"/><path class="cls-33" d="M321.73,251.85c-1.2-5.65-3.14-14.41-5-20.81" transform="translate(-4.61 -50.5)"/><path class="cls-34" d="M278.63,170.46a6.28,6.28,0,0,0,.21-1.72c0-3.09-.39-6.46.73-9.41a7,7,0,0,1,2.83-3.51c2.58-1.58,5.25-.85,7.94,0a12,12,0,0,0,8.68-.08c1.72-.77,3.8-2.31,5.71-1.15,1.6,1,1.69,3.06,1.66,4.79a31,31,0,0,1-1.12,8.47,14.21,14.21,0,0,0-.38,3c0,.84-.09,2.58.94,1.37s.5-4.61,3.84-9.1c.83-1.11,2.88-2.23,3.69-3.17,1.1-1.28.69-3.08.48-4.61-.23-1.74-1-2.91-.82-4.64.41-3.17,1.4-4.64-1.74-6.48a4.72,4.72,0,0,1-2.4-3.41c-.31-1.4-.21-3.22-1.36-4.24-1.5-1.31-3.8-.48-5.41.06-2.59.87-5.35,1.48-8,.66-1.95-.59-3.78-2.33-5.91-2.13s-3,2.05-4.14,3.53c-1.49,1.91-3.28,2.63-5.42,3.38-1.89.66-3.34,1.54-3.33,3.88,0,1.81.61,3.41-.22,5.14-1.08,2.24-3,3.41-2.4,6.14a11.37,11.37,0,0,0,3.39,6.05c2.29,2,.61,3.85,1.76,6.7C278.21,171,278.47,170.91,278.63,170.46Z" transform="translate(-4.61 -50.5)"/><path class="cls-31" d="M288.74,182.29s8.28,2.53,12.92-4.6C301.66,177.69,300.64,192.08,288.74,182.29Z" transform="translate(-4.61 -50.5)"/><path class="cls-35" d="M281.67,200s-4,4.21-5.95,6.48L287,215.27l2.27-8.83Z" transform="translate(-4.61 -50.5)"/><path class="cls-35" d="M303.55,200s4.76,3,6.72,5.25l-11.14,10.06-.92-9.64Z" transform="translate(-4.61 -50.5)"/><path class="cls-33" d="M272.36,253.93s-2.49-1.06,4-9l9.82,2" transform="translate(-4.61 -50.5)"/><path class="cls-33" d="M316.81,252.14s-.9-5.77-2.08-7.79c0,0-6.68-.28-17.41,2.29" transform="translate(-4.61 -50.5)"/><path class="cls-31" d="M304.78,229.29a1.41,1.41,0,1,1-1.41-1.41A1.41,1.41,0,0,1,304.78,229.29Z" transform="translate(-4.61 -50.5)"/><path class="cls-31" d="M303.72,218.72a1.41,1.41,0,1,1-1.41-1.41A1.41,1.41,0,0,1,303.72,218.72Z" transform="translate(-4.61 -50.5)"/><path class="cls-31" d="M305.84,239.86a1.41,1.41,0,1,1-1.41-1.4A1.41,1.41,0,0,1,305.84,239.86Z" transform="translate(-4.61 -50.5)"/><path class="cls-31" d="M310.07,272.64a1.41,1.41,0,1,1-1.41-1.41A1.41,1.41,0,0,1,310.07,272.64Z" transform="translate(-4.61 -50.5)"/><path class="cls-31" d="M311.12,284.27a1.41,1.41,0,1,1-1.41-1.41A1.41,1.41,0,0,1,311.12,284.27Z" transform="translate(-4.61 -50.5)"/><path class="cls-31" d="M312.18,294.84a1.41,1.41,0,1,1-1.41-1.41A1.41,1.41,0,0,1,312.18,294.84Z" transform="translate(-4.61 -50.5)"/><polyline class="cls-36" points="267.78 250 270.06 310.95 276.33 342.38"/><polyline class="cls-36" points="317.12 250.53 318.51 308.81 297.35 339.35"/><polyline class="cls-27" points="293.6 155.13 294.52 164.77 304.78 155.5"/><polyline class="cls-27" points="284.66 155.94 282.4 164.77 273.82 158.06"/><path class="cls-37" d="M48.92,440.45c0,1.8-.79,2.35-1.86,2.35h-.2a2.13,2.13,0,0,1-2.29-2.35V324c0-1.8,1.21-3.09,2.29-3.09h.2c1.07,0,1.86,1.29,1.86,3.09Z" transform="translate(-4.61 -50.5)"/><path class="cls-38" d="M57.61,434c0,1.71-.78,2.18-1.86,2.18h-.19a2,2,0,0,1-2.3-2.18V323.79a2.75,2.75,0,0,1,2.3-2.93h.19c1.08,0,1.86,1.22,1.86,2.93Z" transform="translate(-4.61 -50.5)"/><path class="cls-38" d="M341.21,434c0,1.71-.79,2.18-1.86,2.18h-.2a2,2,0,0,1-2.29-2.18V323.79a2.75,2.75,0,0,1,2.29-2.93h.2c1.07,0,1.86,1.22,1.86,2.93Z" transform="translate(-4.61 -50.5)"/><path class="cls-37" d="M350.78,440.45c0,1.8-.79,2.35-1.86,2.35h-.2a2.14,2.14,0,0,1-2.29-2.35V324c0-1.8,1.22-3.09,2.29-3.09h.2c1.07,0,1.86,1.29,1.86,3.09Z" transform="translate(-4.61 -50.5)"/><path class="cls-37" d="M359.19,319.21c0,2.12-2.45,3.84-5.47,3.84H42.64c-3,0-5.47-1.72-5.47-3.84h0c0-2.12,2.45-3.84,5.47-3.84H353.72c3,0,5.47,1.72,5.47,3.84Z" transform="translate(-4.61 -50.5)"/><polygon class="cls-39" points="93.53 215.43 116.6 215.43 124.84 261.57 84.47 261.57 93.53 215.43"/><rect class="cls-14" x="52.89" y="168.19" width="103.26" height="70.31" rx="3.32"/><rect class="cls-31" x="58.38" y="172.59" width="92.28" height="45.04"/><path class="cls-40" d="M57.49,272.52v13.16A3.33,3.33,0,0,0,60.82,289h96.62a3.32,3.32,0,0,0,3.32-3.32V272.52Z" transform="translate(-4.61 -50.5)"/><path class="cls-41" d="M109.68,279.94a1.65,1.65,0,1,1-1.65-1.65A1.65,1.65,0,0,1,109.68,279.94Z" transform="translate(-4.61 -50.5)"/><rect class="cls-40" x="80.35" y="261.57" width="48.34" height="4.39" rx="1.92"/><rect class="cls-42" x="60.58" y="174.78" width="45.04" height="5.49"/><rect class="cls-43" x="60.58" y="183.57" width="32.96" height="14.28"/><rect class="cls-42" x="60.58" y="201.15" width="43.94" height="14.28"/><rect class="cls-43" x="96.83" y="183.57" width="48.34" height="2.2"/><rect class="cls-43" x="96.83" y="187.97" width="43.94" height="2.2"/><rect class="cls-43" x="96.83" y="192.36" width="36.25" height="2.2"/><rect class="cls-43" x="106.72" y="201.15" width="34.05" height="2.2"/><rect class="cls-43" x="106.72" y="206.64" width="39.55" height="2.2"/><rect class="cls-43" x="106.72" y="212.13" width="29.66" height="2.2"/><rect class="cls-42" x="107.81" y="175.88" width="36.25" height="2.2"/><path class="cls-13" d="M156.09,435.2c-1.31.55-1.42-2.33-3.52-2.17-4.06.32-9.4,2.85-12.87,2.85-5.69,0-7.16-1.77-7.16-4.19,0-1.81,10.17,1,16.37-3.9,1.53-1.22,5.57,1.56,7.36,1.23C157.11,428.86,157.06,434.81,156.09,435.2Z" transform="translate(-4.61 -50.5)"/><path class="cls-12" d="M155.8,367.94,161,323.8l-1.47-46.52-17.91,3.87s-10.14,19.85-4.4,84.37c0,0,7.75,36.11,12.34,60.92-.14.36-.93,1.85-4.76,3.35a32.9,32.9,0,0,1-4.78.95s-6.88,1,4.78.94c0,0,8.78-.11,11.48-2.66Z" transform="translate(-4.61 -50.5)"/><path class="cls-13" d="M180.41,435.2c-1.31.55-1.42-2.33-3.52-2.17-4.06.32-9.4,2.85-12.87,2.85-5.69,0-7.17-1.77-7.17-4.19,0-1.81,10.18,1,16.37-3.9,1.53-1.22,5.58,1.56,7.36,1.23C181.43,428.86,181.37,434.81,180.41,435.2Z" transform="translate(-4.61 -50.5)"/><path class="cls-12" d="M180.11,367.94l2.25-20.73-2-29.23,3.45-40.7-17.9,3.87s-10.14,19.85-4.4,84.37c0,0,7.75,36.11,12.34,60.92-.14.36-.93,1.85-4.76,3.35a33.21,33.21,0,0,1-4.78.95s-6.88,1,4.78.94c0,0,8.77-.11,11.47-2.66Z" transform="translate(-4.61 -50.5)"/><path class="cls-12" d="M105.57,178.62c.89,2.47-2.4,14.49-2.48,16.69-.17,4.23-.61,2.3-3.08,2.94s-15-11.08-13.77-13.21c.34-.62,6.09,5,5.41,2.34-1.19-4.53-4.44-11.46-3.61-12.33,1.2-1.26,5.14,10.71,5.42,8.2.26-2.2-3.45-13.07-1.67-13,.9,0,3.58,11.95,4.4,11.74s-1.76-12.26.35-11.56c1,.34,3.14,12.94,4.07,14C102.48,186.56,104,174.27,105.57,178.62Z" transform="translate(-4.61 -50.5)"/><path class="cls-14" d="M138.73,270.2s-17.18,35.16-7,77.31c0,0,19,12.67,51.85-.77,0,0-.33-29.44.9-37,0,0,9.63-26.09-5.15-41.8C179.28,267.91,153.81,278.46,138.73,270.2Z" transform="translate(-4.61 -50.5)"/><path class="cls-3" d="M179.28,267.94c.3,4.83.27-4.47.18-8q-.09,1-.15,2.07C179.3,263.44,179.29,265.38,179.28,267.94Z" transform="translate(-4.61 -50.5)"/><path class="cls-3" d="M179.28,267.91a48.41,48.41,0,0,1,0-5.89c0-4.18.11-3.92.15-2.07a133.19,133.19,0,0,1,2.65-16.45c1.14,1.79,3.32-4.84,3.2-14.86-5.76-7.55-9.53-12.62-18.3-16.31-4.1-1.72-6.7-2.11-10.69-1.25-2.16.47-6.86-.45-9,.78a38.19,38.19,0,0,0-14.53,9.46s-10.57,12.42,3.22,42.21a50,50,0,0,1,2.75,6.67c12.16,8.95,40.54-1.22,40.55-2.26Z" transform="translate(-4.61 -50.5)"/><path class="cls-3" d="M150.89,209.77c.14-.79-8.1,6.2-16.82,10.21l-15.72,13.76c-.91.49-3.2-4.91-5.72-11.87a117.39,117.39,0,0,1-11,10.77c3.27,14.1,7.78,26.51,12.64,26.13,5.57-.44,22.33-15.8,33-29.42C152.41,222.8,150.23,213.4,150.89,209.77Z" transform="translate(-4.61 -50.5)"/><path class="cls-12" d="M112.63,221.87c-4.24-11.71-10-27.84-10-27.84l-5.2.88c-.48,5.24.66,22.54,4.19,37.73A117.39,117.39,0,0,0,112.63,221.87Z" transform="translate(-4.61 -50.5)"/><path class="cls-12" d="M179.28,283.79l-9.12,5.46s1.11,5.87,11,9.14l4.1-14.6Z" transform="translate(-4.61 -50.5)"/><path class="cls-3" d="M203,258.77c0-5.6-16.63-31.6-25.7-39.72-6.2-5.56-2.17,8.61-3.09,18.16L188.36,260c0,1.27-2.29,6.57-4.72,11.92a85.81,85.81,0,0,1,10.4,3.68C198.66,268.7,203,261.49,203,258.77Z" transform="translate(-4.61 -50.5)"/><path class="cls-12" d="M183.64,271.93c-2.86,6.29-6,12.66-6,12.66s3.24,4.76,5.48,6.35c0,0,5.62-7.47,10.88-15.33A85.81,85.81,0,0,0,183.64,271.93Z" transform="translate(-4.61 -50.5)"/><path class="cls-44" d="M164.59,157a1.87,1.87,0,0,1,1.62.35c1.34,1.2.27,3.57,0,5-.58,2.88-.59,5.81-1.22,8.68-.66,3-1.66,6-2.51,9-1.42,5-5.69,15.5-2.11,19.37,11.49,12.43,22.82-2,23.18-5.14,0,0-7.56,4.8-9.69-2.79-1-3.4.95-8.06,1.81-11.29,2-7.4,5.12-17.8-.1-24.61a15.78,15.78,0,0,0-6.34-4.83c-1.91-.67-5.93-.12-6.87,2.11-.29.7-.73,3.88.4,4.24A4.3,4.3,0,0,0,164.59,157Z" transform="translate(-4.61 -50.5)"/><path class="cls-12" d="M151.78,190.16l-4.49,21.7s-7.45,36.47,19.72.47l-3.16-21.69Z" transform="translate(-4.61 -50.5)"/><path class="cls-20" d="M163.89,190.88l0-.24-12.07-.48L147.89,209C154.3,203.94,160,198.2,163.89,190.88Z" transform="translate(-4.61 -50.5)"/><path class="cls-12" d="M165.81,186.94A14.88,14.88,0,0,1,149.36,200l-.19,0a14.87,14.87,0,0,1-13.09-16.45l1.83-16.16a14.86,14.86,0,0,1,16.45-13.09l.19,0a14.86,14.86,0,0,1,13.09,16.44Z" transform="translate(-4.61 -50.5)"/><path class="cls-21" d="M143.58,172.56a.82.82,0,0,1-.92.73.83.83,0,0,1-.74-.92.84.84,0,0,1,.93-.74A.82.82,0,0,1,143.58,172.56Z" transform="translate(-4.61 -50.5)"/><path class="cls-30" d="M167,169s-1.77,16.11-2.84,23.1c0,0,1.64,2.82,5-24.27C169.21,167.84,169.2,165.89,167,169Z" transform="translate(-4.61 -50.5)"/><path class="cls-21" d="M155.55,173.91a.83.83,0,0,1-.92.74.84.84,0,0,1-.74-.93.84.84,0,0,1,1.66.19Z" transform="translate(-4.61 -50.5)"/><path class="cls-22" d="M147.45,175.2a23.62,23.62,0,0,1-2.26,8.19,8.44,8.44,0,0,1,2.5,1.39" transform="translate(-4.61 -50.5)"/><line class="cls-45" x1="135.23" y1="118.51" x2="138.82" y2="117.17"/><line class="cls-45" x1="153.32" y1="120.56" x2="150.11" y2="118.45"/><path class="cls-12" d="M171.28,180.06c-.36,3.18-2.81,5.51-5.46,5.21s-4.51-3.12-4.15-6.3,2.8-5.51,5.46-5.21S171.64,176.88,171.28,180.06Z" transform="translate(-4.61 -50.5)"/><path class="cls-24" d="M166.48,181.63a.5.5,0,0,0,.42.42H167a.49.49,0,0,0,.42-.55,2.22,2.22,0,0,1,0-1,.53.53,0,0,0,0,.35.5.5,0,0,0,.66.24,2.08,2.08,0,0,0,1.36-1.52,2.36,2.36,0,0,0-.94-1.86.49.49,0,1,0-.61.77,1.79,1.79,0,0,1,.56.79,1.75,1.75,0,0,0-1.51.23A2.09,2.09,0,0,0,166.48,181.63Zm1.05-1.21a.31.31,0,0,1,.08-.11h0A.29.29,0,0,0,167.53,180.42Zm0,.07a.08.08,0,0,1,0,0A.08.08,0,0,0,167.49,180.49Z" transform="translate(-4.61 -50.5)"/><path class="cls-30" d="M138.44,157a24.27,24.27,0,0,0-1.85,2.77,13.41,13.41,0,0,0-1.45,8.83c5.32-7.24,13.58-.71,24.21-8.14a13.18,13.18,0,0,0,2.78-2.54c1-1.2.87-3.91.1-5.16-1-1.7-3.32-2.53-5.17-3C149.71,147.66,142.78,151.35,138.44,157Z" transform="translate(-4.61 -50.5)"/><path class="cls-30" d="M169.52,159.91c1.66,5.81-3.71,19.94-4.62,18.34,0,0-.26-3.46-.3-4.22-.14-2.79-2.31-5.75-3.34-8.38s-2.31-5.26-1.6-8a4.39,4.39,0,0,1,5.63-2.66A7,7,0,0,1,169.52,159.91Z" transform="translate(-4.61 -50.5)"/><path class="cls-31" d="M144.72,189.26s5.09,1.43,12.08-2.77C156.8,186.49,152.59,198.24,144.72,189.26Z" transform="translate(-4.61 -50.5)"/><path class="cls-46" d="M130.34,247.67s-1.84-10.71,5.08-18.51" transform="translate(-4.61 -50.5)"/><line class="cls-46" x1="167.84" y1="183.06" x2="176.5" y2="197.83"/><path class="cls-47" d="M169.21,279.39s-3.63,15.52,14.32,19.28" transform="translate(-4.61 -50.5)"/><path class="cls-31" d="M150.11,233.93a1.41,1.41,0,1,1-1.41-1.41A1.41,1.41,0,0,1,150.11,233.93Z" transform="translate(-4.61 -50.5)"/><path class="cls-31" d="M147.54,210.64s-2.82,9.15,2.44,17.21l-3.39,3.23S131.88,216.93,147.54,210.64Z" transform="translate(-4.61 -50.5)"/><path class="cls-31" d="M167,211.08s-9.36,14.79-17.17,16.77l2,4S179.28,223.75,167,211.08Z" transform="translate(-4.61 -50.5)"/><path class="cls-48" d="M100,231.08a28,28,0,0,0,1.93,9.1s11.42-7.09,14.42-14c0,0-1.31-4.6-3.07-6.71C113.3,219.48,104.78,224.68,100,231.08Z" transform="translate(-4.61 -50.5)"/><circle class="cls-31" cx="109.12" cy="175.05" r="1.1"/><rect class="cls-49" x="185.81" y="261.57" width="45.04" height="3.3"/><rect class="cls-3" x="186.91" y="260.47" width="45.04" height="1.1"/><path class="cls-12" d="M352,340a20.56,20.56,0,0,0,2.68,8.06,5.3,5.3,0,0,0,1.64,1.69c1.87-1.47-1.27-6.18-.94-8.33.53-3.53,3.52-7,4.44-10.48a18.22,18.22,0,0,0,1-3.15A39.68,39.68,0,0,1,352,340Z" transform="translate(-4.61 -50.5)"/><path class="cls-12" d="M358,332.93a47.35,47.35,0,0,1-5.21,6.31A19.89,19.89,0,0,0,356,346a5.14,5.14,0,0,0,1.78,1.53c1.73-1.65-1.84-6-1.72-8.21A20.29,20.29,0,0,1,358,332.93Z" transform="translate(-4.61 -50.5)"/><path class="cls-12" d="M356.92,286.56c-1.53,8.81-2.71,35.81-1.59,38h5.49s7.31-23.64,8.46-39.42c.32-4,1-18.09,1.43-29-3.87-.82-7.76-1.6-11.67-2.07C357.62,269.45,356.92,286.56,356.92,286.56Z" transform="translate(-4.61 -50.5)"/><path class="cls-12" d="M371.28,242.76h0Z" transform="translate(-4.61 -50.5)"/><path class="cls-12" d="M440.05,252.42c4.23-11.71,11.94-30.19,11.94-30.19l5.2.88c.48,5.24-5.87,45.41-10.45,50.24-5.28,2.74-30.12-19.91-31.22-20.93-1.89-1.74,11.16-14.07,9.4-15.94A150.09,150.09,0,0,1,440.05,252.42Z" transform="translate(-4.61 -50.5)"/><polygon class="cls-12" points="377.83 386.64 377.46 393.81 369.73 393.81 370.07 383.93 377.83 386.64"/><path class="cls-13" d="M372.14,445.29c0,.74-.11,2.32,1.61,2.88,4,1.28,12.48,1.11,17.75,1.11,5.69,0,8-1.57,8-4,0-1.81-4.47-.72-10.27-1.54-1.93-.27-4.86-3-6.57-2.15-5.47,2.6-6.75,1.45-8.54,1.12C373.3,442.56,372.14,444.19,372.14,445.29Z" transform="translate(-4.61 -50.5)"/><path class="cls-1" d="M405.86,293.16s-5.83,19.69-11.57,84.21c0,0-6,36.24-10.43,61a17.68,17.68,0,0,1-10.39,0L373,380.19l-1.28-45.06c-7.76-21.79,10.71-44.81,10.71-44.81Z" transform="translate(-4.61 -50.5)"/><polygon class="cls-12" points="413.44 386.58 413.59 393.7 405.88 394.27 405.49 384.42 413.44 386.58"/><path class="cls-13" d="M408.38,446c.06.73.06,2.31,1.82,2.74,4,1,12.53.2,17.78-.19,5.68-.42,7.88-2.16,7.7-4.57-.13-1.81-4.5-.39-10.35-.78-1.94-.13-5.07-2.6-6.71-1.67-5.27,3-6.63,1.95-8.43,1.75C409.33,443.21,408.3,444.93,408.38,446Z" transform="translate(-4.61 -50.5)"/><path class="cls-50" d="M423.09,292s3.35,19.87,2.38,84.64c0,0-3.3,36.58-5.92,61.57a17.72,17.72,0,0,1-10.36.76l-4.73-58-6-42.67-1.95-46.5Z" transform="translate(-4.61 -50.5)"/><path class="cls-14" d="M436.28,245.33c-12.79-16.65-21.32-21.18-32.62-24.45a37.71,37.71,0,0,0-19.73.47c-2.46.8-5.27,9.68-8,10.71,2.23,13.4-2.1,19.54-5.38,33.57-.94,18.66-2.38,56.61-2.38,56.61,18.12,3.7,49.69,13.08,58.86,1.68-3.17-28.31-3.74-52.24-6.37-67,1.13,1.79,6.1,6.73,7.43,8.65C431.13,261.29,436.28,258.73,436.28,245.33Z" transform="translate(-4.61 -50.5)"/><path class="cls-12" d="M449.09,206.82c-.89,2.47,2.4,14.49,2.49,16.69.16,4.23.6,2.3,3.07,2.94s15-11.08,13.78-13.21c-.34-.62-6.1,4.95-5.42,2.34,1.19-4.53,4.45-11.46,3.62-12.33-1.21-1.26-5.14,10.71-5.43,8.2-.25-2.2,3.46-13.07,1.68-13-.91,0-3.59,12-4.41,11.74s1.76-12.26-.35-11.56c-1,.34-3.14,12.94-4.07,14C452.19,214.76,450.66,202.47,449.09,206.82Z" transform="translate(-4.61 -50.5)"/><path class="cls-12" d="M399.17,199.18l4.49,21.7s2.56,15.6-19.73.47l3.16-21.69Z" transform="translate(-4.61 -50.5)"/><path class="cls-20" d="M386.49,203.83l2.83-6.87,9.85,2.22,3.89,18.8C400.19,216.68,390.36,213.32,386.49,203.83Z" transform="translate(-4.61 -50.5)"/><path class="cls-12" d="M385.14,199.13a14.87,14.87,0,0,0,16.44,13.09l.19,0a14.86,14.86,0,0,0,13.09-16.45L413,179.59a14.85,14.85,0,0,0-16.44-13.09l-.19,0A14.87,14.87,0,0,0,383.3,183Z" transform="translate(-4.61 -50.5)"/><path class="cls-21" d="M407.36,184.75a.84.84,0,0,0,1.67-.19.84.84,0,0,0-1.67.19Z" transform="translate(-4.61 -50.5)"/><path class="cls-21" d="M395.39,186.1a.84.84,0,1,0,.74-.92A.84.84,0,0,0,395.39,186.1Z" transform="translate(-4.61 -50.5)"/><path class="cls-22" d="M403.5,187.39a23.37,23.37,0,0,0,2.26,8.19,8.55,8.55,0,0,0-2.51,1.39" transform="translate(-4.61 -50.5)"/><line class="cls-51" x1="406.5" y1="130.7" x2="402.91" y2="129.36"/><line class="cls-51" x1="388.41" y1="132.75" x2="391.62" y2="130.64"/><path class="cls-12" d="M379.67,192.25c.36,3.18,2.8,5.51,5.46,5.21s4.51-3.12,4.15-6.3-2.81-5.51-5.46-5.21S379.31,189.07,379.67,192.25Z" transform="translate(-4.61 -50.5)"/><path class="cls-24" d="M383.94,191.73a1.75,1.75,0,0,0-1.51-.23,1.71,1.71,0,0,1,.56-.79.5.5,0,0,0,.08-.69.49.49,0,0,0-.69-.08,2.33,2.33,0,0,0-.94,1.86,2,2,0,0,0,1.36,1.52.49.49,0,0,0,.26,0,.48.48,0,0,0,.39-.28.5.5,0,0,0,0-.34,2.18,2.18,0,0,1,0,.94.48.48,0,0,0,.41.55H384a.5.5,0,0,0,.43-.42A2.12,2.12,0,0,0,383.94,191.73Zm-.62.76h0a.33.33,0,0,1,.09.11A.4.4,0,0,0,383.32,192.49Zm.12.15a.08.08,0,0,0,0,0Z" transform="translate(-4.61 -50.5)"/><path class="cls-9" d="M412.5,169.7a21.89,21.89,0,0,1,1.85,2.77,13.37,13.37,0,0,1,1.46,8.83c-5.32-7.24-13.59-.71-24.22-8.15a12.87,12.87,0,0,1-2.78-2.53c-1-1.2-.86-3.92-.09-5.16,1-1.7,3.32-2.53,5.17-3C401.23,160.4,408.16,164.09,412.5,169.7Z" transform="translate(-4.61 -50.5)"/><path class="cls-9" d="M381.42,172.65c-1.65,5.81,2.68,12,3.66,17.35,0,.22.71,1.22,1,1,0,0,.26-3.46.3-4.22.14-2.79,2.32-5.75,3.35-8.39,1-2.49,2.31-5.25,1.59-8a4.37,4.37,0,0,0-5.62-2.66A7,7,0,0,0,381.42,172.65Z" transform="translate(-4.61 -50.5)"/><path class="cls-21" d="M406.22,201.45s-5.09,1.43-12.07-2.77C394.15,198.68,398.36,210.43,406.22,201.45Z" transform="translate(-4.61 -50.5)"/><path class="cls-14" d="M383.93,221.35c-8.37,3-20.11,13.15-20.11,13.15-5.44,5.86-6.89,16.09-10.2,30.8,0,0,4.6,7.19,17,5.23C370.27,273.24,386.17,234.75,383.93,221.35Z" transform="translate(-4.61 -50.5)"/><path class="cls-12" d="M361.88,329.43s1.21,11.07,0,11.33c0,0-1.26,3.84-4.46-11.69Z" transform="translate(-4.61 -50.5)"/><path class="cls-12" d="M361.23,323s.64,6.57.65,6.57c.07.74-1.24,2.56-1.53,3.2-1.46,3.26-5,6.23-6.07,9.63-.67,2.07,1.67,7.22-.42,8.38a5.41,5.41,0,0,1-1.34-1.93c-1.74-4.31-1.63-9.14-.72-13.63a45.87,45.87,0,0,1,1.92-6.61c.24-.68,2.07-6.19,2.68-6.19h1.54Z" transform="translate(-4.61 -50.5)"/><path class="cls-52" d="M370.49,270.53c.35-5.88,1.13-17.85,2.47-30.6" transform="translate(-4.61 -50.5)"/><path class="cls-52" d="M415.91,238.52a102.19,102.19,0,0,1,5.72,28.37" transform="translate(-4.61 -50.5)"/><path class="cls-36" d="M374.75,435.73c2.72-15.9,0-99.81,0-99.81s8.11-1.61,9.62-8.63" transform="translate(-4.61 -50.5)"/><path class="cls-31" d="M383.93,220.88s20.61,15,19.73,0c0,0,2.74,4.35-1.44,9.07,0,0-7,6.39-21.94-6.28C379,222.56,381.66,222.3,383.93,220.88Z" transform="translate(-4.61 -50.5)"/><path class="cls-27" d="M428.07,265.55s7.16-7,8.21-16.37" transform="translate(-4.61 -50.5)"/><rect class="cls-40" x="253.92" y="218.73" width="68.11" height="46.14" rx="1.45"/><path class="cls-41" d="M297.14,292.3a4.56,4.56,0,1,1-4.56-4.56A4.56,4.56,0,0,1,297.14,292.3Z" transform="translate(-4.61 -50.5)"/><path class="cls-53" d="M83.12,305.76c0-3.35-1.46-6.14-5.85-6.74v-2.33H58.59v18.68h.54c-.05,0-.08-.1-.08,0,0,1.06,4.16,1.79,9.3,1.79s9.3-.67,9.3-1.72c0-.08,0-.05-.08-.05h-.3v-2.88C81.66,311.89,83.12,309.1,83.12,305.76Zm-5.85,3.8V302a3.92,3.92,0,0,1,0,7.61Z" transform="translate(-4.61 -50.5)"/><path class="cls-54" d="M77.65,296.5c0,1.06-4.16,1.91-9.3,1.91s-9.3-.85-9.3-1.91,4.16-1.91,9.3-1.91S77.65,295.45,77.65,296.5Z" transform="translate(-4.61 -50.5)"/><path class="cls-55" d="M62.21,297.93a39.51,39.51,0,0,0,12.28,0,40.34,40.34,0,0,0-12.28,0Z" transform="translate(-4.61 -50.5)"/></svg>