<svg height="512pt" viewBox="0 0 512 512" width="512pt" xmlns="http://www.w3.org/2000/svg"><path d="m345.632812 132.765625h-179.265624c-24.070313 0-43.582032 19.511719-43.582032 43.578125v129.246094c0 24.066406 19.511719 43.578125 43.582032 43.578125h18.402343l-7.308593 45.851562c-1.398438 8.761719 9.410156 14.019531 15.445312 7.515625l49.5-53.367187h103.226562c24.070313 0 43.578126-19.511719 43.578126-43.578125v-129.246094c.003906-24.066406-19.507813-43.578125-43.578126-43.578125zm0 0" fill="#6dccf2"/><g fill="#65687f"><path d="m354.722656 202.355469h-190.976562c-4.328125 0-7.835938-3.507813-7.835938-7.835938s3.507813-7.839843 7.835938-7.839843h190.976562c4.328125 0 7.835938 3.511718 7.835938 7.839843s-3.507813 7.835938-7.835938 7.835938zm0 0"/><path d="m354.722656 247.285156h-190.976562c-4.328125 0-7.835938-3.507812-7.835938-7.835937s3.507813-7.835938 7.835938-7.835938h190.976562c4.328125 0 7.835938 3.507813 7.835938 7.835938s-3.507813 7.835937-7.835938 7.835937zm0 0"/><path d="m354.722656 292.226562h-190.976562c-4.328125 0-7.835938-3.507812-7.835938-7.835937s3.507813-7.835937 7.835938-7.835937h190.976562c4.328125 0 7.835938 3.507812 7.835938 7.835937s-3.507813 7.835937-7.835938 7.835937zm0 0"/></g><path d="m256 0c-141.386719 0-256 114.613281-256 256s114.613281 256 256 256 256-114.613281 256-256-114.613281-256-256-256zm-209.953125 256c0-71.15625 35.40625-134.03125 89.550781-172.003906l200.417969 366.152344c-24.664063 10.175781-51.679687 15.800781-80.015625 15.800781-115.953125.003906-209.953125-93.996094-209.953125-209.949219zm330.347656 172.007812-200.414062-366.15625c24.660156-10.175781 51.683593-15.804687 80.019531-15.804687 115.953125 0 209.941406 94 209.941406 209.953125 0 71.15625-35.402344 134.035156-89.546875 172.007812zm0 0" fill="#ff5a73"/></svg>