<?xml version="1.0" encoding="utf-8"?>
<!-- Generator: Adobe Illustrator 23.0.0, SVG Export Plug-In . SVG Version: 6.00 Build 0)  -->
<svg version="1.1" id="Layer_1" xmlns="http://www.w3.org/2000/svg" xmlns:xlink="http://www.w3.org/1999/xlink" x="0px" y="0px"
	 viewBox="0 0 512 512" style="enable-background:new 0 0 512 512;" xml:space="preserve">
<style type="text/css">
	.st0{fill:#0000FF;}
	.st1{fill:#BFD5DE;}
	.st2{fill:#DDE8ED;}
	.st3{fill:#D3A489;}
	.st4{fill:#F74F4F;}
	.st5{fill:#BF8E75;}
	.st6{fill:#3D4159;}
	.st7{fill:#FFFFFF;}
	.st8{fill:#2A2F4F;}
	.st9{fill:#66BAED;}
	.st10{fill:#2BA1CF;}
	.st11{fill:#EAB599;}
	.st12{fill:#F6CAAE;}
	.st13{fill:#E8C934;}
	.st14{fill:#FFE35F;}
	.st15{fill:#F2F0EC;}
	.st16{fill:#D8D5D0;}
	.st17{fill:#DD3033;}
</style>
<g>
	<path class="st0" d="M512,256c0,102.5-60.3,191-147.3,231.9c-27,12.7-56.6,20.8-87.8,23.3c-6.9,0.6-13.8,0.8-20.8,0.8
		c-8.2,0-16.4-0.4-24.4-1.2c-10.3-1-20.4-2.5-30.3-4.7c-20.2-4.4-39.4-11.1-57.5-20c-54.4-26.6-97.9-71.8-122.3-127.4
		C7.7,327.3,0,292.6,0,256C0,114.6,114.6,0,256,0C397.4,0,512,114.6,512,256z"/>
	<path class="st1" d="M489,330.1v32c-25.2,55.3-69.5,100-124.5,125.8c-10,4.7-20.3,8.7-30.9,12.1c-11.9,3.8-24.3,6.8-36.9,8.8
		c-0.1,0-0.1,0-0.2,0V330.1c0-38.1,29.3-69.3,66.7-72.3c2-0.2,3.9-0.2,5.9-0.2h47.3c5.6,0,11,0.6,16.3,1.8
		C464.9,266.7,489,295.6,489,330.1z"/>
	<path class="st2" d="M489,330.1v32c-25.2,55.3-69.5,100-124.5,125.8c-10,4.7-20.3,8.7-30.9,12.1V330.1c0-40.1,32.5-72.6,72.6-72.6
		h10.2C456.5,257.5,489,290,489,330.1z"/>
	<path class="st3" d="M321.7,177.5c0,12-8.8,21.9-20.2,23.8c-1.3,0.2-2.5,0.3-3.9,0.3c-13.3,0-24.1-10.8-24.1-24.1
		s10.8-24.1,24.1-24.1c1.3,0,2.6,0.1,3.9,0.3C313,155.5,321.7,165.5,321.7,177.5z"/>
	<path class="st4" d="M412.3,283.7L392.8,315l-19.5-31.3"/>
	<path class="st4" d="M419,403.3l-26.2,33.1l-26.2-33.1l26.2-96.4L419,403.3z"/>
	<path class="st5" d="M321.7,177.5c0,12-8.8,21.9-20.2,23.8c-2.1-7.6-3.2-15.5-3.2-23.8c0-8.2,1.1-16.2,3.2-23.8
		C313,155.5,321.7,165.5,321.7,177.5z"/>
	<path class="st5" d="M306.3,177.5c0,4.8-3.9,8.6-8.6,8.6s-8.6-3.9-8.6-8.6s3.9-8.6,8.6-8.6S306.3,172.7,306.3,177.5z"/>
	<path class="st1" d="M392.8,287.2l-32.7,18.2l-9.9-46.2l20.3-12"/>
	<path class="st1" d="M392.8,287.2l32.7,18.2l9.9-46.2l-20.3-12"/>
	<path class="st3" d="M463.8,177.5c0,12,8.8,21.9,20.2,23.8c1.3,0.2,2.5,0.3,3.9,0.3c13.3,0,24.1-10.8,24.1-24.1
		s-10.8-24.1-24.1-24.1c-1.3,0-2.6,0.1-3.9,0.3C472.6,155.5,463.8,165.5,463.8,177.5z"/>
	<g>
		<path class="st5" d="M463.8,177.5c0,12,8.8,21.9,20.2,23.8c2.1-7.6,3.2-15.5,3.2-23.8c0-8.2-1.1-16.2-3.2-23.8
			C472.6,155.5,463.8,165.5,463.8,177.5z"/>
		<path class="st5" d="M496.5,177.5c0,4.8-3.9,8.6-8.6,8.6s-8.6-3.9-8.6-8.6s3.9-8.6,8.6-8.6S496.5,172.7,496.5,177.5z"/>
		<path class="st5" d="M482.4,164.7c0,44.6-32.6,81.6-75.2,88.5c-4.7,0.8-9.5,1.2-14.4,1.2c-49.5,0-89.6-40.1-89.6-89.6
			c0-23.4,8.1-58.6,22.8-74.5C342.4,72.3,366.7,75,392.8,75c4.9,0,9.7,0.4,14.4,1.2C449.8,83.1,482.4,120.1,482.4,164.7z"/>
		<path class="st5" d="M418.7,229.6v31.8c0,11.6-7.7,21.5-18.2,24.7c-2.4,0.8-5,1.2-7.7,1.2c-14.3,0-25.9-11.6-25.9-25.9v-31.8
			H418.7z"/>
	</g>
	<path class="st3" d="M418.7,259.3v2c0,11.6-7.7,21.5-18.2,24.7c-9.5-2.9-16.7-11.2-18-21.4c1.7,0.1,3.5,0.2,5.2,0.2
		c4.9,0,9.7-0.4,14.4-1.2C407.8,262.8,413.4,261.3,418.7,259.3z"/>
	<path class="st3" d="M482.4,164.7c0,44.6-32.6,81.6-75.2,88.5c-42.7-6.9-75.2-43.9-75.2-88.5c0-27.5,12.4-52,31.8-68.5
		c12.1-10.3,27-17.3,43.4-20c39.8,6.4,70.8,39,74.8,79.5C482.3,158.7,482.4,161.7,482.4,164.7z"/>
	<path class="st5" d="M392.8,208.8c-7.5,0-15-1.9-21.8-5.6c-1.9-1.1-2.6-3.5-1.6-5.4s3.5-2.6,5.4-1.6c11.3,6.2,24.7,6.2,36,0
		c1.9-1.1,4.4-0.4,5.4,1.6c1.1,1.9,0.4,4.4-1.6,5.4C407.8,206.9,400.3,208.8,392.8,208.8z"/>
	<path class="st6" d="M373.7,159.4c0,5.6-4.6,10.2-10.2,10.2c-5.6,0-10.2-4.6-10.2-10.2c0-5.6,4.6-10.2,10.2-10.2
		C369.1,149.3,373.7,153.8,373.7,159.4z"/>
	<path class="st6" d="M432.2,159.4c0,5.6-4.6,10.2-10.2,10.2s-10.2-4.6-10.2-10.2c0-5.6,4.6-10.2,10.2-10.2S432.2,153.8,432.2,159.4
		z"/>
	<path class="st7" d="M371.6,157.7c0,2.4-2,4.4-4.4,4.4s-4.4-1.9-4.4-4.4s1.9-4.4,4.4-4.4S371.6,155.2,371.6,157.7z"/>
	<path class="st7" d="M430.6,157.7c0,2.4-2,4.4-4.4,4.4s-4.4-1.9-4.4-4.4s1.9-4.4,4.4-4.4S430.6,155.2,430.6,157.7z"/>
	<path class="st5" d="M402.9,185h-20.3c-2.4,0-4.4-2-4.4-4.4s2-4.4,4.4-4.4h20.3c2.4,0,4.4,2,4.4,4.4S405.4,185,402.9,185z"/>
	<path class="st1" d="M422.3,327.7h39.1v12h-39.1V327.7z"/>
	<path class="st8" d="M387.5,49.4c27.1,1.9,48.9,23.9,50.3,51.5l0.3,5.2h15.6l8.4,55.9l20.4-6.3l-2.7-54.8
		c-1.4-29-25.4-51.7-54.5-51.6L387.5,49.4z"/>
	<path class="st6" d="M478.1,27.8c21.6,21.6,21.6,56.7,0,78.3s-56.7,21.6-78.3,0L478.1,27.8z"/>
	<path class="st6" d="M399.8,106.1h-67.9l-8.4,55.9l-20.4-6.3l2.7-54.8c1.4-29,25.4-51.7,54.5-51.6l98.1,0.4l13,23.3"/>
	<path class="st8" d="M398,49.4c-27.1,1.9-48.9,23.9-50.3,51.5l-0.3,5.2h-15.6l-8.4,55.9l-20.4-6.3l2.7-54.8
		c1.4-29,25.4-51.7,54.4-51.6L398,49.4z"/>
	<path class="st6" d="M201.3,332.2v173.9C120.5,488.6,54,432.8,21.5,358.8v-26.5c0-31.4,21.3-57.8,50.2-65.5
		c1.1-0.3,2.1-0.6,3.2-0.8c2.9-0.6,5.8-1.1,8.8-1.3c1.8-0.1,3.7-0.2,5.6-0.2h44.2c4.9,0,9.7,0.5,14.4,1.5c0.3,0.1,0.5,0.1,0.8,0.2
		c0.8,0.2,1.6,0.4,2.3,0.6c0,0,0,0,0.1,0c7.6,2,14.7,5.4,21.1,9.8C189.7,288.7,201.3,309.1,201.3,332.2z"/>
	<path class="st9" d="M151.2,265.9l-0.2,0.8l-21.6,100.6c-1.1,0.1-2.2,0.2-3.4,0.3c-1.6,0.1-3.2,0.2-4.8,0.3
		c-3.3,0.2-6.6,0.2-9.9,0.2c-3.4,0-6.8-0.1-10.1-0.2c-1.5-0.1-3-0.2-4.5-0.3c-1.1-0.1-2.3-0.2-3.4-0.3L71.7,266.7l-0.2-0.8H151.2z"
		/>
	<path class="st2" d="M129.6,288.9l-18.2,29.2l-18.2-29.2"/>
	<path class="st2" d="M126,367.6c-1.6,0.1-11.3,51.7-14.6,51.7c-3.4,0-13.1-51.6-14.7-51.7l14.7-57.1L126,367.6z"/>
	<path class="st10" d="M111.4,292.2l-30.5,17L71.6,266l19-11.2"/>
	<path class="st10" d="M111.4,292.2l30.5,17l9.3-43.2l-19-11.2"/>
	<path class="st8" d="M152.4,324.3h9.7l-41.6,107.6l-8.2,21.2l-9.1-22.5l8.3-28.7L151,266.7l0.2-0.8l20.9,6.8L152.4,324.3z"/>
	<path class="st8" d="M120.5,431.8l-8.2,21.2l-9.1-22.5L60.5,324.3h9.7l-19.7-51.5l20.9-6.8l0.2,0.8l40,135.1L120.5,431.8z"/>
	<path class="st11" d="M135.6,238.3V268c0,10.9-7.2,20.1-17,23.1c-2.3,0.7-4.7,1.1-7.2,1.1c-13.4,0-24.2-10.8-24.2-24.2v-29.7H135.6
		z"/>
	<path class="st12" d="M135.6,266.1v1.9c0,10.9-7.2,20.1-17,23.1c-8.9-2.7-15.6-10.5-16.8-20c1.6,0.1,3.2,0.1,4.9,0.1
		c4.6,0,9.1-0.4,13.4-1.1C125.4,269.3,130.6,268,135.6,266.1z"/>
	<path class="st12" d="M45,189.6c0,11.2-8.2,20.5-18.9,22.2c-1.2,0.2-2.4,0.3-3.6,0.3C10.1,212.1,0,202.1,0,189.6
		c0-12.4,10.1-22.5,22.5-22.5c1.2,0,2.4,0.1,3.6,0.3C36.8,169.1,45,178.4,45,189.6z"/>
	<path class="st11" d="M45,189.6c0,11.2-8.2,20.5-18.9,22.2c-1.9-7.1-3-14.5-3-22.2s1-15.1,3-22.2C36.8,169.1,45,178.4,45,189.6z"/>
	<path class="st11" d="M30.5,189.6c0,4.4-3.6,8-8,8s-8-3.6-8-8s3.6-8,8-8S30.5,185.2,30.5,189.6z"/>
	<path class="st12" d="M177.8,189.6c0,11.2,8.2,20.5,18.9,22.2c1.2,0.2,2.4,0.3,3.6,0.3c12.4,0,22.5-10.1,22.5-22.5
		c0-12.4-10.1-22.5-22.5-22.5c-1.2,0-2.4,0.1-3.6,0.3C185.9,169.1,177.8,178.4,177.8,189.6z"/>
	<path class="st11" d="M177.8,189.6c0,11.2,8.2,20.5,18.9,22.2c1.9-7.1,3-14.5,3-22.2s-1-15.1-3-22.2
		C185.9,169.1,177.8,178.4,177.8,189.6z"/>
	<path class="st11" d="M195.1,145.8v31.9c0,41.7-30.4,76.2-70.3,82.6c-0.1,0-0.3,0-0.4,0.1c-4.2,0.7-8.6,1-13,1
		c-46.2,0-83.7-37.5-83.7-83.7v-31.9c0-9.7,1.7-19.1,4.7-27.8c11.4-32.6,42.5-55.9,79-55.9h0c4.4,0,8.8,0.3,13,1
		C164.5,69.3,195.1,104,195.1,145.8z"/>
	<path class="st11" d="M208.3,189.6c0,4.4-3.6,8-8,8c-4.4,0-8-3.6-8-8s3.6-8,8-8C204.7,181.6,208.3,185.2,208.3,189.6z"/>
	<path class="st12" d="M195.1,145.8v31.9c0,41.7-30.4,76.2-70.3,82.6c-0.1,0-0.3,0-0.4,0.1c-40-6.3-70.7-40.9-70.7-82.7v-31.9
		c0-41.8,30.6-76.5,70.7-82.7C164.5,69.3,195.1,104,195.1,145.8z"/>
	<path class="st6" d="M93.6,172.8c0,5.2-4.3,9.5-9.5,9.5c-5.2,0-9.5-4.3-9.5-9.5c0-5.2,4.3-9.5,9.5-9.5
		C89.3,163.3,93.6,167.6,93.6,172.8z"/>
	<path class="st6" d="M148.2,172.8c0,5.2-4.3,9.5-9.5,9.5s-9.5-4.3-9.5-9.5c0-5.2,4.3-9.5,9.5-9.5S148.2,167.6,148.2,172.8z"/>
	<path class="st7" d="M91.6,171.1c0,2.2-1.8,4.1-4.1,4.1c-2.2,0-4.1-1.8-4.1-4.1c0-2.3,1.8-4.1,4.1-4.1
		C89.8,167.1,91.6,168.9,91.6,171.1z"/>
	<path class="st7" d="M146.7,171.1c0,2.2-1.8,4.1-4.1,4.1s-4.1-1.8-4.1-4.1c0-2.3,1.8-4.1,4.1-4.1S146.7,168.9,146.7,171.1z"/>
	<path class="st11" d="M120.9,193h-19c-2.3,0-4.1-1.8-4.1-4.1c0-2.3,1.8-4.1,4.1-4.1h19c2.3,0,4.1,1.8,4.1,4.1S123.1,193,120.9,193z
		"/>
	<path class="st11" d="M111.4,218.9c-7,0-14-1.8-20.4-5.3c-1.8-1-2.5-3.3-1.5-5.1c1-1.8,3.3-2.5,5.1-1.5c10.5,5.8,23.1,5.8,33.6,0
		c1.8-1,4.1-0.3,5.1,1.5c1,1.8,0.3,4.1-1.5,5.1C125.4,217.1,118.4,218.9,111.4,218.9z"/>
	<path class="st13" d="M195.1,116.9v32.7h-15.6v-25.6L67,103l-23.8-4.4v50.9H27.7v-32.7c0-37.2,30.2-67.4,67.4-67.4h32.6
		c0.9,0,1.8,0,2.7,0.1C166.4,50.9,195.1,80.5,195.1,116.9z"/>
	<path class="st14" d="M195.1,116.9v32.7h-15.6v-25.6L67,103c6.2-29.8,32-52.3,63.3-53.5C166.4,50.9,195.1,80.5,195.1,116.9z"/>
	<path class="st13" d="M364.7,470.2v17.7c-33,15.5-69.8,24.1-108.7,24.1c-18.8,0-37.1-2-54.7-5.9c-7.1-1.5-14.1-3.4-20.9-5.5
		c-12.6-3.9-24.9-8.8-36.6-14.5v-16c0-38.5,26.2-71,61.7-80.5c1.3-0.3,2.6-0.7,3.9-0.9c3.5-0.8,7.2-1.3,10.8-1.6
		c2.2-0.2,4.5-0.3,6.8-0.3h54.2c6.1,0,12,0.6,17.7,1.9c0.3,0.1,0.7,0.1,1,0.2c1,0.2,1.9,0.5,2.9,0.7c0,0,0.1,0,0.1,0
		c9.4,2.5,18.1,6.6,25.9,12C350.5,416.7,364.7,441.8,364.7,470.2z"/>
	<path class="st14" d="M364.7,470.2v17.7c-33,15.5-69.8,24.1-108.7,24.1c-18.8,0-37.1-2-54.7-5.9c-7.1-1.5-14.1-3.4-20.9-5.5v-30.5
		c0-38.5,26.2-71,61.7-80.5c1.3-0.3,2.6-0.7,3.9-0.9c3.5-0.8,7.2-1.3,10.8-1.6c2.3-0.2,4.5-0.3,6.8-0.3h17.7c6.1,0,12,0.6,17.7,1.9
		c0.3,0.1,0.7,0.1,1,0.2c1,0.2,1.9,0.5,2.9,0.7c0,0,0.1,0,0.1,0c9.4,2.5,18.1,6.6,25.9,12C350.5,416.7,364.7,441.8,364.7,470.2z"/>
	<path class="st15" d="M303.1,388.8l-0.2,0.9l-26.1,121.5c-6.9,0.6-13.8,0.8-20.8,0.8c-8.2,0-16.4-0.4-24.4-1.2l-26-121.1l-0.2-0.9
		H303.1z"/>
	<path class="st16" d="M254.2,421l-37.5,20.8l-11.4-53.1l23.3-13.7"/>
	<path class="st16" d="M254.2,421l37.5,20.8l11.4-53.1L279.8,375"/>
	<path class="st4" d="M142.3,366.8V241.2c0-12.8,2.1-25.3,6.3-37.2c15.7-44.7,58.2-74.8,105.6-74.8c5.9,0,11.7,0.5,17.4,1.4
		c26.1,4.1,50,17.4,67.3,37.5c17.5,20.3,27.2,46.3,27.2,73.1v125.6"/>
	<path class="st17" d="M188.3,246.1c0,44.4,26,95.8,40.3,120.7h-86.4V241.2c0-12.8,2.1-25.3,6.3-37.2
		c15.6-44.5,57.7-74.5,104.8-74.8C219,130.1,188.3,185.3,188.3,246.1z"/>
	<path class="st11" d="M284,354.8v36.5c0,13.4-8.8,24.6-20.9,28.4c-2.8,0.9-5.7,1.3-8.8,1.3c-16.4,0-29.7-13.3-29.7-29.7v-36.5H284z
		"/>
	<path class="st12" d="M284,389v2.3c0,13.4-8.8,24.6-20.9,28.4c-10.9-3.4-19.2-12.9-20.7-24.5c2,0.1,4,0.2,6,0.2
		c5.6,0,11.1-0.4,16.5-1.3C271.4,392.9,277.8,391.2,284,389z"/>
	<path class="st12" d="M172.7,295c0,13.8-10.1,25.2-23.2,27.3c-1.4,0.2-2.9,0.4-4.4,0.4c-15.3,0-27.6-12.4-27.6-27.6
		c0-15.3,12.4-27.6,27.6-27.6c1.5,0,3,0.1,4.4,0.4C162.7,269.9,172.7,281.3,172.7,295z"/>
	<path class="st11" d="M172.7,295c0,13.8-10.1,25.2-23.2,27.3c-2.4-8.7-3.7-17.8-3.7-27.3c0-9.4,1.3-18.6,3.7-27.3
		C162.7,269.9,172.7,281.3,172.7,295z"/>
	<path class="st11" d="M155,295c0,5.5-4.4,9.9-9.9,9.9c-5.5,0-9.9-4.4-9.9-9.9c0-5.5,4.4-9.9,9.9-9.9C150.5,285.1,155,289.6,155,295
		z"/>
	<path class="st11" d="M325.2,259.7v95c-14.7,14-33.5,23.7-54.5,27.1c-0.2,0-0.3,0.1-0.5,0.1c-5.2,0.8-10.5,1.2-16,1.2
		c-56.8,0-102.8-46-102.8-102.8v-39.2c0-5,0.4-9.9,1.1-14.8c24.5,17.6,59.5,15.9,81.9-5.3c7.4-7,12.5-15.3,15.5-24.1
		c1.6,15.5,8.7,30.5,21.2,42.4C285.9,253.4,305.7,260.2,325.2,259.7z"/>
	<path class="st12" d="M325.2,259.7v95c-14.7,14-33.5,23.7-54.5,27.1c-0.2,0-0.3,0.1-0.5,0.1c-49.2-7.7-86.8-50.2-86.8-101.6v-39.2
		c0-1,0-2.1,0.1-3.1c18.1,1.9,37-3.8,50.9-16.9c7.4-7,12.5-15.3,15.5-24.1c1.6,15.5,8.7,30.5,21.2,42.4
		C285.9,253.4,305.7,260.2,325.2,259.7z"/>
	<path class="st11" d="M309.5,271.7c0-9.4-7.6-17.1-17.1-17.1c-9.4,0-17.1,7.6-17.1,17.1"/>
	<path class="st11" d="M233.2,271.7c0-9.4-7.6-17.1-17.1-17.1c-9.4,0-17.1,7.6-17.1,17.1"/>
	<path class="st6" d="M227.8,278.9c0,6.4-5.2,11.7-11.7,11.7s-11.7-5.2-11.7-11.7s5.2-11.7,11.7-11.7S227.8,272.5,227.8,278.9z"/>
	<path class="st6" d="M304,278.9c0,6.4-5.2,11.7-11.7,11.7c-6.4,0-11.7-5.2-11.7-11.7s5.2-11.7,11.7-11.7
		C298.8,267.3,304,272.5,304,278.9z"/>
	<path class="st11" d="M265.9,308.3h-23.3c-2.8,0-5-2.3-5-5c0-2.8,2.3-5,5-5h23.3c2.8,0,5,2.3,5,5
		C270.9,306,268.7,308.3,265.9,308.3z"/>
	<path class="st11" d="M254.2,340.1c-8.6,0-17.2-2.2-25.1-6.5c-2.2-1.2-3-4-1.8-6.2c1.2-2.2,4-3,6.2-1.8c12.9,7.1,28.4,7.1,41.3,0
		c2.2-1.2,5-0.4,6.2,1.8s0.4,5-1.8,6.2C271.5,338,262.9,340.1,254.2,340.1z"/>
	<path class="st7" d="M225.4,276.9c0,2.8-2.2,5-5,5s-5-2.2-5-5s2.2-5,5-5S225.4,274.1,225.4,276.9z"/>
	<path class="st7" d="M302.2,276.9c0,2.8-2.2,5-5,5s-5-2.2-5-5s2.2-5,5-5S302.2,274.1,302.2,276.9z"/>
	<path class="st11" d="M324.2,307.3c0,7.1-5.7,12.8-12.8,12.8s-12.8-5.7-12.8-12.8s5.7-12.8,12.8-12.8S324.2,300.3,324.2,307.3z"/>
	<path class="st11" d="M209.9,307.3c0,7.1-5.7,12.8-12.8,12.8s-12.8-5.7-12.8-12.8s5.7-12.8,12.8-12.8S209.9,300.3,209.9,307.3z"/>
</g>
</svg>
