<?xml version="1.0" encoding="utf-8"?>
<!-- Generator: Adobe Illustrator 23.0.0, SVG Export Plug-In . SVG Version: 6.00 Build 0)  -->
<svg version="1.1" id="Layer_1" xmlns="http://www.w3.org/2000/svg" xmlns:xlink="http://www.w3.org/1999/xlink" x="0px" y="0px"
	 viewBox="0 0 512 512" style="enable-background:new 0 0 512 512;" xml:space="preserve">
<style type="text/css">
	.st0{fill:#FFFFFF;}
	.st1{opacity:0.1;enable-background:new    ;}
	.st2{fill:#3A556A;}
	.st3{fill:#2F4859;}
	.st4{fill:#2D93BA;}
	.st5{fill:#27A2DB;}
	.st6{fill:#EBF0F3;}
</style>
<g>
	<circle class="st0" cx="256" cy="256" r="234.1"/>
	<path class="st1" d="M169.6,388.7v8c-1.1,0.1-1.9,1-1.9,2.1V412c0,1.2,1,2.2,2.1,2.2h0l75.7,75.7c3.5,0.2,7,0.3,10.5,0.3
		c120.4,0,219.5-90.9,232.6-207.8L295.1,88.6v0.1c-9.9-10.6-26.9-10.8-34.8-10.2c-2.9,0.3-5.7,0.3-8.6,0
		c-10.2-0.8-35.7-0.4-41.4,22.6c-7.2,29-14.5,53.5-15.5,73.9c-0.1,1.4-0.1,2.7-0.2,4.1c-0.6-0.7-1.4-1.2-2.2-1.6
		c-2.5-1-21-1.8-25.3,1.8c-2,1.6-3.7,4.8-4.8,7.9c-1.1,3.1-1.4,6-0.5,7.1l0.1,0.1c0,0,0.1,0,0.1,0.1l9.3,9.3l-1.1,24.3l-0.5,10.4
		l-0.2,5.2l-0.1,2.6l0,1.3c0,0.7,0,1.4,0.1,2.1c0.3,2.9,1.6,5.6,3.5,7.8l6,6c0,0.3,0,0.7,0.1,1c0,0.1,0,0.3,0,0.4
		c0.1,1.1,0.4,2.2,0.7,3.2c0.1,0.3,0.1,0.5,0.2,0.7c0.3,1,0.6,1.9,1,2.6c0,0,0,0.1,0,0.1c0.4,0.7,1,1.5,1.8,2.3l63.3,63.2v12.3
		C235.9,352.5,183.4,370.4,169.6,388.7z"/>
	<path class="st2" d="M340.7,387c-17.4-19.7-76.6-38.3-76.6-38.3v16l66.7,26v8.3h11.3v-8.3C342.1,389.4,341.6,388.1,340.7,387z"/>
	<path class="st2" d="M247.6,348.7c0,0-62.7,19.7-78,40v10.3h11.3v-8.3l66.7-26V348.7z"/>
	<path class="st3" d="M245.9,302.6h20.1v68.1h-20.1V302.6z"/>
	<path class="st2" d="M243,262.7h26v52.5h-26V262.7z"/>
	<path class="st2" d="M340.1,186.5l1.9,41.7l0.5,10.4l0.2,5.2l0.1,2.6l0.1,1.3c0,0.7,0,1.4-0.1,2.1c-0.3,2.8-1.6,5.6-3.5,7.7
		c-1.9,2.2-4.5,3.7-7.4,4.4c-0.7,0.1-1.4,0.3-2.2,0.3c-0.9,0.1-1.2,0.1-1.6,0.1l-2.6,0.1l-5.2,0.2v-12.8l9.2,0.4
		c1.1,0,2.2-0.9,2.5-2.1c0.1-0.1,0.1-0.3,0.1-0.5l0.1-1.3l0.1-2.6l0.2-5.2l0.5-10.4l1.9-41.7H340.1z"/>
	<path class="st3" d="M349.7,194.8c-2.9,0.6-18.8,1.5-23.9,1.3c-5.1-0.2-8.2-9.9-8.2-9.9c-1-2.2-1.2-3.9-1-5.2
		c0.3-1.8,1.6-2.8,3.1-3.3c2.5-1,21-1.8,25.4,1.8c2,1.6,3.7,4.8,4.7,7.9C351.1,191,351.3,194.5,349.7,194.8z"/>
	<path class="st2" d="M349.8,187.3c0,1.3-0.3,2.2-1.1,2.3c-2.9,0.6-18.8,1.4-23.9,1.3c-5-0.2-8-9.5-8.2-9.9c0.3-1.8,1.6-2.8,3.1-3.3
		c2.5-1,21-1.8,25.4,1.8C347,181,348.8,184.2,349.8,187.3z"/>
	<path class="st2" d="M171.9,186.5l-1.9,41.7l-0.5,10.4l-0.2,5.2l-0.1,2.6l-0.1,1.3c0,0.7,0,1.4,0.1,2.1c0.3,2.8,1.6,5.6,3.5,7.7
		c1.9,2.2,4.5,3.7,7.4,4.4c0.7,0.1,1.4,0.3,2.2,0.3c0.9,0.1,1.2,0.1,1.6,0.1l2.6,0.1l5.2,0.2v-12.8l-9.2,0.4c-1.1,0-2.2-0.9-2.5-2.1
		c-0.1-0.1-0.1-0.3-0.1-0.5l-0.1-1.3l-0.1-2.6l-0.2-5.2l-0.5-10.4l-1.9-41.7H171.9z"/>
	<path class="st3" d="M162.3,194.8c2.9,0.6,18.8,1.5,23.9,1.3c5.1-0.2,8.2-9.9,8.2-9.9c1-2.2,1.2-3.9,1-5.2
		c-0.3-1.8-1.6-2.8-3.1-3.3c-2.5-1-21-1.8-25.4,1.8c-2,1.6-3.7,4.8-4.7,7.9C160.9,191,160.7,194.5,162.3,194.8z"/>
	<path class="st2" d="M162.2,187.3c0,1.3,0.3,2.2,1.1,2.3c2.9,0.6,18.8,1.4,23.9,1.3c5-0.2,8-9.5,8.2-9.9c-0.3-1.8-1.6-2.8-3.1-3.3
		c-2.5-1-21-1.8-25.4,1.8C165,181,163.2,184.2,162.2,187.3z"/>
	<path class="st4" d="M317.3,175c-1-20.4-8.3-44.9-15.5-73.9c-5.8-23-31.2-23.4-41.4-22.6c-2.9,0.2-5.7,0.2-8.6,0
		c-10.2-0.8-35.7-0.4-41.4,22.6c-7.2,29-14.5,53.5-15.5,73.9c-1,20.4-2.8,45.6,14.8,52.8c17.6,7.2,46.4,5.5,46.4,5.5
		s28.8,1.7,46.4-5.5C320,220.6,318.3,195.4,317.3,175z"/>
	<path class="st5" d="M326.6,238.8c-7.6-9.8-68-5.5-68-5.5l-2.6,0l-2.6,0c0,0-60.3-4.3-68,5.5c-7.6,9.8-8.4,25.6-4.6,32.7
		c3.7,6.9,28.5,22.2,71,21c2.8-0.1,5.6-0.1,8.4,0c42.5,1.2,67.3-14.2,71-21C335,264.4,334.2,248.7,326.6,238.8z"/>
	<path class="st4" d="M331.2,271.5c-3.7,6.9-28.5,22.2-71,21.1c-2.8-0.1-5.6-0.1-8.4,0c-42.5,1.2-67.3-14.2-71-21.1
		c-2.5-4.6-3-12.8-1-20.7c1.1-4.3,2.9-8.5,5.6-12c7.6-9.8,68-5.5,68-5.5l2.7,0l2.6,0c0,0,60.3-4.3,68,5.5c2.7,3.5,4.5,7.7,5.6,12
		C334.2,258.7,333.6,266.9,331.2,271.5z"/>
	<path class="st5" d="M332.2,250.8c-0.3,0.9-0.6,1.8-1,2.5c-3.7,6.9-28.5,22.2-71,21.1c-2.8-0.1-5.6-0.1-8.4,0
		c-42.5,1.2-67.3-14.2-71-21.1c-0.4-0.7-0.8-1.6-1-2.5c1.1-4.3,2.9-8.5,5.6-12c7.6-9.8,68-5.5,68-5.5l2.7,0l2.6,0
		c0,0,60.3-4.3,68,5.5C329.3,242.3,331.1,246.5,332.2,250.8z"/>
	<path class="st2" d="M260.9,401.8h-9.8l-2.8-53h15.4L260.9,401.8z"/>
	<g>
		<path class="st3" d="M342.8,396.7h-11.1c-1.2,0-2.1,1-2.1,2.1V412c0,1.2,1,2.1,2.1,2.1h11.1c1.2,0,2.1-1,2.1-2.1v-13.1
			C344.9,397.7,343.9,396.7,342.8,396.7z"/>
		<path class="st3" d="M180.9,396.7h-11.1c-1.2,0-2.1,1-2.1,2.1V412c0,1.2,1,2.1,2.1,2.1h11.1c1.2,0,2.1-1,2.1-2.1v-13.1
			C183,397.7,182.1,396.7,180.9,396.7z"/>
		<path class="st3" d="M261.6,396.7h-11.1c-1.2,0-2.1,1-2.1,2.1V412c0,1.2,1,2.1,2.1,2.1h11.1c1.2,0,2.1-1,2.1-2.1v-13.1
			C263.7,397.7,262.7,396.7,261.6,396.7z"/>
	</g>
	<path class="st6" d="M251.9,162.7c0-1.1,0-1.9,0-2.4c0-3.1,0.4-5.9,1.3-8.2c0.7-1.7,1.7-3.5,3.2-5.2c1.1-1.3,3-3.1,5.8-5.6
		c2.8-2.4,4.6-4.4,5.4-5.9c0.8-1.5,1.2-3,1.2-4.8c0-3.1-1.2-5.9-3.7-8.2c-2.4-2.4-5.4-3.5-9-3.5c-3.4,0-6.3,1.1-8.6,3.2
		c-2.3,2.1-3.8,5.5-4.5,10l-8.2-1c0.7-6.1,2.9-10.7,6.6-14c3.7-3.2,8.5-4.9,14.5-4.9c6.4,0,11.5,1.7,15.3,5.2
		c3.8,3.5,5.7,7.7,5.7,12.6c0,2.9-0.7,5.5-2,7.9s-3.9,5.3-7.8,8.8c-2.6,2.3-4.3,4-5.1,5.1c-0.8,1.1-1.4,2.4-1.8,3.8
		c-0.4,1.4-0.6,3.7-0.7,6.9H251.9z M251.5,178.8v-9.1h9.1v9.1H251.5z"/>
</g>
</svg>
