<?xml version="1.0"?>
<svg xmlns="http://www.w3.org/2000/svg" enable-background="new 0 0 140 140" height="512px" viewBox="0 0 140 140" width="512px" class=""><g><circle cx="70" cy="70" fill="#e05b49" r="64" data-original="#E05B49" class="active-path" data-old_color="#e05b49" style="fill:#FDED0F"/><path d="m46.3712692 106.2982941v2.1800537c-.2999878.0299683-.5300293.2699585-.5300293.5799561v3.5900269c0 .3200073.2600098.5899658.5800171.5899658h.0100098l20.6889038 20.6889038c.9553833.0423584 1.9140015.0728149 2.8798218.0728149 32.9203491 0 60.0227737-24.859436 63.5896683-56.8277588l-52.8983841-52.93396v.0200195c-2.7200317-2.9099731-7.3500366-2.9500122-9.5100098-2.7799683-.789978.0699463-1.5700073.0699463-2.3599854 0-2.7999878-.2200317-9.75-.1100464-11.3300171 6.1799927-1.9799805 7.9299946-3.960022 14.6399555-4.2399902 20.2099628-.0200195.3699951-.0400391.75-.0599976 1.1300049-.1600342-.2000122-.3699951-.3299561-.6099854-.4299927-.6800537-.2600098-5.75-.4799805-6.9300537.4899902-.539978.4400024-1.0199585 1.3099976-1.2999878 2.1500244-.289978.8499756-.3800049 1.6499634-.1499634 1.9400024l.0199585.0299683c.0100098.0100098.0200195.0100098.0200195.0200195l2.5499878 2.539978-.2999878 6.6400146-.1300049 2.8500366-.0599976 1.4299927-.039978.7099609-.0100098.3600464c0 .1900024 0 .3799438.0299683.5699463.0900269.7800293.4400024 1.5300293.960022 2.1200562l1.6400146 1.6399536c.0100098.0900269.0100098.1799927.0199585.2700195 0 .0299683 0 .0700073.0100098.0999756.0400391.3099976.1000366.6100464.1799927.8800049.0200195.0700073.0400391.1300049.0599976.1900024.0800171.2700195.1700439.5100098.2800293.7200317.0100098.0100098.0100098.0199585.0100098.0199585.0999756.1900024.2699585.4000244.4899902.6300049l17.3200073 17.2900391v3.3499756c-2.7399901.890013-17.0900267 5.7700179-20.8800048 10.7899764z" opacity=".1" data-original="#000000" class=""/><path d="m93.165863 105.8310318c-4.7581635-5.3922272-20.9533691-10.4747772-20.9533691-10.4747772v4.3764496l18.2352142 7.1117401v2.2794037h3.0999908v-2.2609329c.0000001-.378769-.1312255-.7478715-.3818359-1.0318833z" fill="#3a556a" data-original="#3A556A"/><path d="m67.7095795 95.3562698s-17.1410904 5.3793793-21.3351898 10.941124v2.8264542h3.099987v-2.2794037l18.2352028-7.1117249z" fill="#3a556a" data-original="#3A556A"/><path d="m67.251236 82.747665h5.497522v18.625099h-5.497522z" fill="#2f4859" data-original="#2F4859"/><path d="m66.446053 71.827187h7.107888v14.365315h-7.107888z" fill="#3a556a" data-original="#3A556A"/><path d="m92.9995041 50.9863281.5109024 11.3953934.1277618 2.8488464.0638428 1.4244232.031929.7122116.0159607.3562469c-.0022736.1927567-.0011978.3864594-.0306396.579689-.0895233.7756424-.4373093 1.5248642-.9644165 2.1104736-.5251389.5898132-1.2427139 1.0156708-2.029068 1.2029877-.1968994.0392456-.3960953.0797729-.5964584.0902023-.236084.0180511-.3191528.0181351-.4427567.0245819l-.7122192.0319366-1.4244232.0638657v-3.5129318l2.5154648.1125183c.2874603-.009613.5988464-.2449951.6858902-.5743484.017067-.0403671.0157166-.085228.0285721-.1292496l.0159607-.3559723.031929-.7122116.0638733-1.4244232.1277313-2.8488464.5109329-11.3953934h1.4692306z" fill="#3a556a" data-original="#3A556A"/><path d="m95.624176 53.2670288c-.7909241.1763-5.1349487.3966904-6.5405045.3526154-1.4031067-.044075-2.2357101-2.7205162-2.2357101-2.7205162-.2742233-.6048431-.3403397-1.0652008-.2742233-1.4129143.0905685-.4897423.4431992-.7590942.8423462-.9133644.683197-.2620163 5.7495728-.4824066 6.9347763.4823875.5387039.4383316 1.0137405 1.3149605 1.2977982 2.1548653.3428268 1.0064354.4064941 1.9614258-.0244828 2.0569267z" fill="#2f4859" data-original="#2F4859"/><path d="m95.6486588 51.2101021c-.002449.3501816-.0955048.5950508-.3011856.6415787-.7909622.1738472-5.1349792.3942375-6.540535.3501625-1.3688278-.044075-2.1940384-2.5858421-2.2332001-2.7156296.0905685-.4897423.4431992-.7590942.8423462-.9133644.683197-.2620163 5.7495728-.4824066 6.9347763.4823875.5387039.4383316 1.0137405 1.3149605 1.2977982 2.1548653z" fill="#3a556a" data-original="#3A556A"/><path d="m47.0004959 50.9863281-.5109062 11.3953934-.1277542 2.8488464-.0638504 1.4244232-.0319252.7122116-.0159607.3562469c.0022736.1927567.001194.3864594.0306396.579689.0895233.7756424.4373131 1.5248642.9644203 2.1104736.525135.5898132 1.2427101 1.0156708 2.029068 1.2029877.1968956.0392456.3960915.0797729.5964546.0902023.236084.0180511.3191528.0181351.4427528.0245819l.7122269.0319366 1.4244194.0638657v-3.5129318l-2.515461.1125183c-.287468-.009613-.5988464-.2449951-.6858902-.5743484-.0170708-.0403671-.0157242-.085228-.0285759-.1292496l-.0159645-.3559723-.0319214-.7122116-.0638809-1.4244232-.1277275-2.8488464-.5109329-11.3953934h-1.4692306z" fill="#3a556a" data-original="#3A556A"/><path d="m44.3758202 53.2670288c.7909317.1763 5.1349487.3966904 6.5405083.3526154 1.4031105-.044075 2.2357063-2.7205162 2.2357063-2.7205162.2742271-.6048431.3403473-1.0652008.2742271-1.4129143-.0905724-.4897423-.443203-.7590942-.8423424-.9133644-.6832008-.2620163-5.7495804-.4824066-6.9347801.4823875-.5387039.4383316-1.0137405 1.3149605-1.2977982 2.1548653-.3428268 1.0064354-.4064941 1.9614258.024479 2.0569267z" fill="#2f4859" data-original="#2F4859"/><path d="m44.3513412 51.2101021c.002449.3501816.0955009.5950508.3011856.6415787.7909622.1738472 5.1349792.3942375 6.5405388.3501625 1.368824-.044075 2.1940384-2.5858421 2.2331963-2.7156296-.0905724-.4897423-.443203-.7590942-.8423424-.9133644-.6832008-.2620163-5.7495804-.4824066-6.9347801.4823875-.5387039.4383316-1.0137405 1.3149605-1.2977982 2.1548653z" fill="#3a556a" data-original="#3A556A"/><path d="m86.7532349 47.8640747c-.2831955-5.5695572-2.2655716-12.2718964-4.2479477-20.2014179-1.5734024-6.2935352-8.5267258-6.4027042-11.3289413-6.1798534-.7840576.0623531-1.5686646.0623531-2.3527222 0-2.8022079-.2228508-9.7555084-.113678-11.3288841 6.1798534-1.9824066 7.9295216-3.9647827 14.6318607-4.2479744 20.2014179-.2831955 5.5695572-.7552109 12.4606895 4.0591812 14.4430695 4.8143311 1.9823914 12.6940384 1.5103874 12.6940384 1.5103874s7.8797379.4720039 12.6940994-1.5103874c4.8143615-1.9823799 4.3423462-8.8735123 4.0591507-14.4430695z" fill="#2d93ba" data-original="#2D93BA" class=""/><path d="m89.3040009 65.3006287c-2.0876541-2.6928825-18.5801315-1.5080109-18.5801315-1.5080109l-.7238846.0081444-.7238541-.0081444s-16.4924774-1.1848717-18.580101 1.5080109c-2.0876846 2.6928864-2.2964478 7.0014954-1.2526054 8.9403687 1.0107841 1.8775024 7.7836685 6.0781097 19.4017601 5.7553024.7686005-.0213623 1.5410004-.0213623 2.3096008 0 11.6181183.3228073 18.391037-3.8778 19.4017868-5.7553024 1.0438461-1.9388734.835083-6.2474824-1.2525711-8.9403687z" fill="#27a2db" data-original="#27A2DB"/><path d="m90.5556183 74.2402649c-1.0089035 1.8781738-7.7820206 6.077713-19.4011612 5.7569275-.7689285-.0220261-1.5402527-.0220261-2.3091507 0-11.6191711.3207855-18.3922958-3.8787537-19.4011955-5.7569275-.6758156-1.2512894-.8276367-3.4967575-.2864799-5.6540756.2962837-1.1802826.8007355-2.3336334 1.5377998-3.286171 2.0887604-2.6911507 18.5808525-1.508419 18.5808525-1.508419l.7248077.0098076.7223892-.0098076s16.4920578-1.1827316 18.5808182 1.508419c.7370682.9525375 1.2415161 2.1058884 1.537796 3.286171.5411606 2.1573181.3893738 4.4027862-.2864761 5.6540756z" fill="#2d93ba" data-original="#2D93BA" class=""/><path d="m90.8420944 68.5861893c-.0807953.2497711-.1763.47995-.2864761.6831818-1.0089035 1.8781815-7.7820206 6.077713-19.4011612 5.7569351-.7689285-.0220337-1.5402527-.0220337-2.3091507 0-11.6191711.3207779-18.3922958-3.8787537-19.4011955-5.7569351-.1101799-.2032318-.2056541-.4334106-.2864799-.6831818.2962837-1.1802826.8007355-2.3336334 1.5377998-3.286171 2.0887604-2.6911507 18.5808525-1.508419 18.5808525-1.508419l.7248077.0098076.7223892-.0098076s16.4920578-1.1827316 18.5808182 1.508419c.7370682.9525375 1.2415161 2.1058884 1.537796 3.286171z" fill="#27a2db" data-original="#27A2DB"/><path d="m71.338913 109.8578415h-2.677826l-.7639389-14.5015717h4.2057038z" fill="#3a556a" data-original="#3A556A"/><g fill="#2f4859"><path d="m93.72229 108.4733963h-3.0408096c-.3216934 0-.5824661.2607727-.5824661.5824509v3.5952377c0 .3216934.2607727.5824661.5824661.5824661h3.0408096c.3216629 0 .5824356-.2607727.5824356-.5824661v-3.5952377c0-.3216782-.2607727-.5824509-.5824356-.5824509z" data-original="#000000" class=""/><path d="m49.4622765 108.4733963h-3.0408058c-.3216934 0-.5824661.2607727-.5824661.5824509v3.5952377c0 .3216934.2607727.5824661.5824661.5824661h3.0408058c.3216629 0 .5824356-.2607727.5824356-.5824661v-3.5952377c0-.3216782-.2607727-.5824509-.5824356-.5824509z" data-original="#000000" class=""/><path d="m71.5204163 108.4733963h-3.040802c-.3216934 0-.5824661.2607727-.5824661.5824509v3.5952377c0 .3216934.2607727.5824661.5824661.5824661h3.040802c.3216629 0 .5824356-.2607727.5824356-.5824661v-3.5952377c0-.3216782-.2607727-.5824509-.5824356-.5824509z" data-original="#000000" class=""/></g><path d="m68.891716 44.4845047c-.0081177-.2922935-.0121765-.5115166-.0121765-.6576653 0-.8606453.121788-1.6035614.3653641-2.2287483.178627-.4709206.4668579-.9459.8647079-1.4249382.2922974-.3491287.8180161-.8586159 1.5771713-1.5284576.7591553-.6698456 1.2524033-1.2036896 1.479744-1.6015358.2273407-.3978424.341011-.8322258.341011-1.3031464 0-.8525276-.3328857-1.601532-.9986725-2.2470169s-1.4817734-.9682274-2.4479675-.9682274c-.9337234 0-1.7131729.2922935-2.3383636.8768845-.6251831.5845909-1.0352097 1.4980125-1.230072 2.7402649l-2.2531128-.2679367c.2029877-1.6644592.8058472-2.9391899 1.8085785-3.824192 1.0027313-.885006 2.3282089-1.327507 3.9764328-1.327507 1.7456512 0 3.1381073.4749794 4.1773834 1.4249382 1.0392685.9499588 1.5589066 2.0988388 1.5589066 3.4466438 0 .7794533-.1826859 1.4980125-.5480576 2.1556778-.3653717.6576614-1.0798645 1.4574127-2.1434937 2.3992538-.7145004.6333046-1.1813583 1.1001663-1.4005814 1.4005775-.219223.300415-.3816071.6454849-.4871597 1.0352135-.1055527.3897247-.1664429 1.0230331-.1826859 1.8999176zm-.1339722 4.3966026v-2.496685h2.4966888v2.496685z" fill="#ebf0f3" data-original="#EBF0F3" class=""/></g> </svg>
