<svg id="OBJECTS" xmlns="http://www.w3.org/2000/svg" viewBox="0 0 308.51 371.32"><defs><style>.cls-1{fill:#e1faff;}.cls-2{fill:#41378c;}.cls-3{fill:#fce3c3;}.cls-4{fill:#edcdab;}.cls-5{fill:#fff;}.cls-6{fill:#ff3c3c;}.cls-7{fill:#263364;}.cls-8{fill:#afe6ff;}.cls-9{fill:#5d4658;}.cls-10{fill:#ff9e7f;}.cls-11{fill:#2979ff;}.cls-12{fill:#b4b6bb;}.cls-13{fill:#a5a5b5;}.cls-14{fill:#fcccab;}.cls-15{fill:#e87d09;}.cls-16{fill:#fa870a;}.cls-17{fill:#efefef;}.cls-18{fill:#965028;}.cls-19{fill:#05cdff;}.cls-20{fill:#a0ebff;}.cls-21{fill:none;stroke:#ffce00;stroke-linejoin:round;stroke-width:1.46px;}.cls-22{fill:#6e64c3;}.cls-23{fill:#fa503c;}.cls-24{fill:#d25a50;}.cls-25{fill:#39ae96;}.cls-26{fill:#fa735f;}.cls-27{fill:#ffc305;}.cls-28{fill:#c8e6eb;}.cls-29{fill:#dafffb;}.cls-30{fill:#97f4ec;}.cls-31{fill:#ffd23c;}.cls-32{fill:#ffe65a;}.cls-33{fill:#fab9af;}.cls-34{fill:#fa968c;}.cls-35{fill:#ff640a;}.cls-36{fill:#ffdc8c;}.cls-37{fill:#46738c;}.cls-38{fill:#1e87dc;}.cls-39{fill:#2896ff;}.cls-40{fill:#5acbe5;}.cls-41{fill:#6ee1ff;}.cls-42{fill:#3c82af;}.cls-43{fill:#b6fff6;}.cls-44{fill:#32285f;}.cls-45{fill:#827ddc;}.cls-46{fill:#13e275;}.cls-47{fill:#4b6ebc;}.cls-48{fill:#3c5064;}.cls-49{fill:#9e693e;}.cls-50{fill:#1c9585;}.cls-51{fill:#845430;}.cls-52{fill:#41b4e6;}.cls-53{fill:#4d4677;}.cls-54{fill:#c5ffff;}</style></defs><title>Newteam</title><path class="cls-1" d="M274.94,306.64a27.27,27.27,0,0,0-.1-47.24l-5.35-3.08a75.37,75.37,0,0,0-75.32.17l-94.86,55a27.27,27.27,0,0,0,.11,47.24l5.31,3.05a75.35,75.35,0,0,0,75.31-.15Z" transform="translate(-20.58 -12.9)"/><path class="cls-1" d="M296.09,212.61c.79-17.78,12.1-26.84,21.91-41.69,24.73-37.45,4.94-89.73-28.27-94.68-33.8-5-14.28-54.48-70-61.87C139,3.65,90.91,53.11,78.43,108.18c-8.61,37.95-2.4,45.48-28.13,65.25C-5.08,216,33.91,302.22,82.09,311.38c60.37,11.48,29.38,7.52,88.12-7.9,38.77-10.18,74.3,8.75,103.27-16.68S295.3,230.44,296.09,212.61Z" transform="translate(-20.58 -12.9)"/><path class="cls-2" d="M247.13,102.05c-1.38,13.74-6.74,50.48-5.53,56.53,1.37,6.87,19.17,39.85,46.23,39.6,12.85-.12,21.22-10.26,21.22-21.47,0-8.65.48-28.37.73-38.93s.41-36.37-8.65-43.32c-13-10-24.59-11.85-29.93-12.36C263.33,81.36,249.05,82.83,247.13,102.05Z" transform="translate(-20.58 -12.9)"/><path class="cls-3" d="M254.82,88.85c-7.58,4.34-15.1,16.26-17.29,34.45l-16.77,21,8.94,4.47s16.46-15.85,18.9-19.71S254.82,88.85,254.82,88.85Z" transform="translate(-20.58 -12.9)"/><path class="cls-4" d="M245.55,125.74c1.36-.22,2.38,1.4,3.57,2.09,2.42-7.48,5.7-39,5.7-39-7.24,4.14-14.41,15.18-16.95,32C238.72,122.65,243.74,126,245.55,125.74Z" transform="translate(-20.58 -12.9)"/><path class="cls-5" d="M250.33,122.66c2.17-11.54,4.49-33.81,4.49-33.81-6.75,3.86-14.82,12.83-18,27.59C240.57,122.18,245.49,122.37,250.33,122.66Z" transform="translate(-20.58 -12.9)"/><path class="cls-6" d="M265.33,89l24,13.4a10.14,10.14,0,0,1,5.18,8.75c.17,21.44-1,18.91-2.4,53.56a6.11,6.11,0,0,1-3.45,5.28,37.34,37.34,0,0,1-19.14,3.7c-7.67-.7-21.83-8.38-30-16a6.84,6.84,0,0,1-2.15-5.39c.61-10,8.53-18.46,7.87-44.93C245.17,103.3,250.5,81.65,265.33,89Z" transform="translate(-20.58 -12.9)"/><ellipse class="cls-5" cx="249.34" cy="86.49" rx="9.36" ry="5.71"/><path class="cls-4" d="M265.11,101.25c3.5,2.07,6.83,1.6,10.07-.35A3.36,3.36,0,0,0,276.82,98V81.64l-13.73,2.92v13A4.22,4.22,0,0,0,265.11,101.25Z" transform="translate(-20.58 -12.9)"/><path class="cls-3" d="M264.36,98.86c3.28-.39,7.66-3.51,11.06-6.37.75-.63,6-6.79,6-10.12,0-8.11-6.59-13-13.41-13-4.26,0-8.68.65-11,4.24-.88,1.39-1,5.4-.88,7.59C256.27,82.43,257,99.72,264.36,98.86Z" transform="translate(-20.58 -12.9)"/><path class="cls-7" d="M284.47,67.46c-4.25-8.83-15.13-9.46-23-5.54-6.22,3.11-18.56,8.72-5.41,18.65,6,4.56,18.33-3.83,18.33-3.83-1.54,1.39-1.25,5.68,1.51,8.17l3.51-2.7-.89,4.25c-2.91,3.1-1.69,8.48-1.69,8.48,0-2.41,5.66-7.83,7.15-11.11C285.4,80.77,287.57,73.87,284.47,67.46Z" transform="translate(-20.58 -12.9)"/><path class="cls-4" d="M275.9,85.07c0,2.32.44,4.25,1.88,4.25s3.17-3.08,3.17-5.4-.44-3.16-1.89-3.16S275.9,82.76,275.9,85.07Z" transform="translate(-20.58 -12.9)"/><path class="cls-3" d="M275.48,84.07c0,2.32.43,4.25,1.88,4.25s3.56-2.77,3.56-5.09-.83-3.48-2.28-3.48S275.48,81.75,275.48,84.07Z" transform="translate(-20.58 -12.9)"/><path class="cls-8" d="M153.44,307.39c2.29-1.34,2.72-3.92,1.17-5l-21-11.1-5.66,1.6c-1.8,1.11-.77,3.91.48,4.92,3.65,3,12.54,8.2,12.54,8.2C147.24,309.7,150.76,309,153.44,307.39Z" transform="translate(-20.58 -12.9)"/><path class="cls-5" d="M154,305.91c.83-.64,1.62-2.93.08-4l-19.94-12.1L128,292.93a3.47,3.47,0,0,0,.9,4.41,96.93,96.93,0,0,0,14.6,8.81C148.14,308.36,151.3,308,154,305.91Z" transform="translate(-20.58 -12.9)"/><path class="cls-9" d="M154.37,302.2c-.73-3.07-3.4-4.58-8-8a25.3,25.3,0,0,1-7.69-8.76,83.72,83.72,0,0,0-9.71,2.05c0,.1,0,.2,0,.3,0,.45-1,1-1.05,1.42-.23,2.86-.31,4.45.43,5.87,1.63,3.12,15.55,10.15,18.6,11.22S155.1,305.26,154.37,302.2Z" transform="translate(-20.58 -12.9)"/><path class="cls-10" d="M131.13,291.14c1.28.64,2.33,1.09,2.25,0,0-.24-.15-1.45-.11-1.7a1.93,1.93,0,0,1,1.73-1.73,23.59,23.59,0,0,1,4.64-.56,15.51,15.51,0,0,1-2.57-6.56l-9-3.71a60.51,60.51,0,0,1,.43,12.55A23.63,23.63,0,0,0,131.13,291.14Z" transform="translate(-20.58 -12.9)"/><path class="cls-8" d="M130,322.7c1.53-1.12,2.22-3.38.65-4.43l-20.34-10.94a.6.6,0,0,0-.58,0l-5.52,1c-1.91.93-1.51,4.35.1,5.73a48.83,48.83,0,0,0,14.24,9.19C122.36,324.86,126.43,325.28,130,322.7Z" transform="translate(-20.58 -12.9)"/><path class="cls-5" d="M130,321.84a2.38,2.38,0,0,0,.29-4.13l-20-12.12a.6.6,0,0,0-.58,0l-5.22,2.53c-1.9.92-1.81,3.68-.2,5.06a50.27,50.27,0,0,0,14.34,9C122.46,323.79,125.84,324.21,130,321.84Z" transform="translate(-20.58 -12.9)"/><path class="cls-9" d="M130.47,318.59a12.06,12.06,0,0,0-3.82-4.82c-1.36-1.13-3-2.34-4.63-3.52a25.34,25.34,0,0,1-7.71-8.82c-2.17.44-4.52.44-6.66.79l-3,.49a2.44,2.44,0,0,1,0,.27c0,.39-1,1-1,1.42-.24,3.05-.34,5.24.44,6.73,1.62,3.12,13.62,10.07,16.74,10.92C125.54,323.36,131.14,321.65,130.47,318.59Z" transform="translate(-20.58 -12.9)"/><path class="cls-10" d="M104.22,305.05c1.51.92,2.55,1.95,4.38,2.31,0-1.25-.69-1.55.05-2.8,1.09-1.85,5.26-2.65,6.39-1.86a32,32,0,0,1-4.19-11.44L103.76,293A56.89,56.89,0,0,1,104.22,305.05Z" transform="translate(-20.58 -12.9)"/><polygon class="cls-11" points="104.15 187.79 124.03 147.85 87.8 154.16 104.15 187.79"/><path class="cls-12" d="M124.93,161.6c-2.77,8.91.45,67.59,1.45,77.75s13.13-5.84,16.49-10.36,6.74-46.79,4.49-64.31C145.21,148,129.74,146.07,124.93,161.6Z" transform="translate(-20.58 -12.9)"/><path class="cls-13" d="M140.25,177.54s-.26-18.37-.61-25.75c-5.33-2.42-11.88.65-14.71,9.81-1.89,6.09-1,40,.41,61.3.74-8,1.17-11.05,2.6-13.09a38.87,38.87,0,0,0,6-14.12S135.3,180.16,140.25,177.54Z" transform="translate(-20.58 -12.9)"/><path class="cls-12" d="M146.79,204.19s-8,58-7.93,76c-3.42,2.65-9.59,2.9-11.44,1.11-.58-5.38-2.84-35.84-1.48-43.74a157,157,0,0,1,5.48-21.07Z" transform="translate(-20.58 -12.9)"/><path class="cls-12" d="M118.28,224.11c-4,61.09-5.91,57.83-4.24,70.43-2.17,4.61-10.75,3.17-12.85,1-.51-.54-4.25-39.75-2.52-47.19,1.81-7.8,8-17.75,8-17.75Z" transform="translate(-20.58 -12.9)"/><path class="cls-12" d="M102.4,167.79c-3.33,8.71-4.53,71.9-4.18,82.1s17.1,2.25,17.89-3.33c5.12-36.22,14.63-55.75,11.69-72.31S108.21,152.61,102.4,167.79Z" transform="translate(-20.58 -12.9)"/><path class="cls-12" d="M126.18,199l3.94-2.67a7.82,7.82,0,0,0,3.23-4.71l.87-4.2a8,8,0,0,0-3.35-8.24l-3.53-2.39Z" transform="translate(-20.58 -12.9)"/><path class="cls-14" d="M163.15,123.25l-19.3-39.72c-6.54-9.84-16.95,6-9.66,15a196,196,0,0,0,24.28,34C160.75,128.05,160.23,127.37,163.15,123.25Z" transform="translate(-20.58 -12.9)"/><path class="cls-14" d="M190.44,106.81,159.52,120a65.75,65.75,0,0,0-1.41,11.94l.95.45c9.95-3.43,22.55-11.87,35.51-21Z" transform="translate(-20.58 -12.9)"/><path class="cls-13" d="M100.85,161.5c.15,5.05.34,10.59.58,16.79,0,0,9.18,6.67,20.8,5.52a37.41,37.41,0,0,0,25.65-13.24,15.79,15.79,0,0,1-3-8.85Z" transform="translate(-20.58 -12.9)"/><path class="cls-15" d="M132.26,96.81l6.43,9.08a42.88,42.88,0,0,1,3.94-3c3-1.94,6-3.83,9-5.7a7.42,7.42,0,0,1,.48-.6L143,81.77c-.8-1.39-1.18.27-2.1,1.59C137.83,87.74,135.17,92.36,132.26,96.81Z" transform="translate(-20.58 -12.9)"/><path class="cls-5" d="M137.7,106.27l1.84,2.75a1,1,0,0,0,1.18.14c2.26-1.08,9.28-4.78,13.49-11.08a.87.87,0,0,0,0-1.08l-1.63-2.7a1.11,1.11,0,0,0-1.57.11c-2.07,2.14-7.57,7.55-12.86,10.38A1,1,0,0,0,137.7,106.27Z" transform="translate(-20.58 -12.9)"/><path class="cls-16" d="M127.64,76.42A48.4,48.4,0,0,0,99.76,96.71a13.21,13.21,0,0,0-2.06,5.9c-2.94,28.57,1.3,51.27,1.72,69.06a6.06,6.06,0,0,0,3.46,5.29,37.42,37.42,0,0,0,19.18,3.71,46.85,46.85,0,0,0,12.4-2.81c1-.39,4.1-1.82,4.62-2.1a40.21,40.21,0,0,0,8.29-5.9c1.52-1.41.08-3.48,0-5.55-.61-10-1-39-.36-65.57C147,94.68,146.38,71.37,127.64,76.42Z" transform="translate(-20.58 -12.9)"/><path class="cls-14" d="M189.25,108.11s6-6,8.54-6.92c1.81-.65,6.63-2.73,8.2-.72s1.85,9.69-.76,11.76c-2.22,1.75-12.2-.06-12.2-.06Z" transform="translate(-20.58 -12.9)"/><path class="cls-13" d="M114.82,181.82s-2.28,11.43-12.67,15.38l1.91-1.72a12.05,12.05,0,0,0,4-9.21l-.1-5.7Z" transform="translate(-20.58 -12.9)"/><path class="cls-17" d="M114.17,293.84c-3.57,2.8-9.51,2.72-12.85,1.24a1,1,0,0,0-1.33.78,25.41,25.41,0,0,0,.78,9.31c2.64,2.78,12.43,2.89,15.17-2.92a79.13,79.13,0,0,1-.74-8A.63.63,0,0,0,114.17,293.84Z" transform="translate(-20.58 -12.9)"/><path class="cls-12" d="M138.93,273.61c-3.39,2.8-9,2.73-12.18,1.24a.9.9,0,0,0-1.26.78,26.69,26.69,0,0,0,.74,9.31c2.5,2.78,11.78,2.89,14.37-2.92-.38-3-.61-5.47-.7-8A.59.59,0,0,0,138.93,273.61Z" transform="translate(-20.58 -12.9)"/><path class="cls-4" d="M128.07,87.26c-3.62,2.14-7.07,1.66-10.42-.37a3.49,3.49,0,0,1-1.7-3V67l14.22,3V83.48A4.38,4.38,0,0,1,128.07,87.26Z" transform="translate(-20.58 -12.9)"/><path class="cls-3" d="M131.84,81.32c-3.41.05-8.43-3.4-12-6.36-.77-.65-.25-6.18-1.07-6.82-3.18-2.51-7.68-.22-7.68-3.67C111.14,56.07,118,51,125,51c4.41,0,9,.67,11.35,4.39a15.25,15.25,0,0,1,1.82,7.11C138.15,63.79,136.84,81.23,131.84,81.32Z" transform="translate(-20.58 -12.9)"/><path class="cls-18" d="M123.07,59.35a8.13,8.13,0,0,0,6.35,3.45c12,0,15.44-9.62,12.35-14.16-3.43-5-6.47-1-10.35-2.91-5.1-2.5-17.73-4.56-22.14,4.58-3.2,6.64-2.21,12.5-.77,15.67,1.54,3.4,7.4,9,7.4,11.51l1.53-5,.2-4.9,2.59-.67h0A3.47,3.47,0,0,0,123,63.63Z" transform="translate(-20.58 -12.9)"/><path class="cls-4" d="M121.66,67.08c0,2.41-.47,4.42-2,4.42s-3.42-3.21-3.42-5.63.47-3.29,2-3.29S121.66,64.66,121.66,67.08Z" transform="translate(-20.58 -12.9)"/><path class="cls-3" d="M122.12,66c0,2.42-.47,4.42-2,4.42s-3.85-2.88-3.85-5.3.9-3.62,2.47-3.62S122.12,63.62,122.12,66Z" transform="translate(-20.58 -12.9)"/><polygon class="cls-19" points="176 162.71 171.12 160.03 171.12 254.52 176 257.21 176 162.71"/><polygon class="cls-20" points="176 162.71 180.84 160.03 180.84 254.49 176 257.21 176 162.71"/><path class="cls-21" d="M261.86,302" transform="translate(-20.58 -12.9)"/><polygon class="cls-19" points="241.28 200.07 236.31 197.38 236.31 291.88 241.28 294.56 241.28 200.07"/><polygon class="cls-20" points="241.28 200.07 246.03 197.38 246.03 291.84 241.28 294.56 241.28 200.07"/><polygon class="cls-19" points="66.84 225.03 61.96 222.34 61.96 316.84 66.84 319.52 66.84 225.03"/><polygon class="cls-20" points="66.84 225.03 71.68 222.34 71.68 316.8 66.84 319.52 66.84 225.03"/><path class="cls-21" d="M152.7,364.33" transform="translate(-20.58 -12.9)"/><polygon class="cls-19" points="132.12 262.38 127.14 259.7 127.14 354.19 132.12 356.88 132.12 262.38"/><polygon class="cls-20" points="132.12 262.38 136.87 259.7 136.87 354.15 132.12 356.88 132.12 262.38"/><path class="cls-20" d="M274.94,209a27.27,27.27,0,0,0-.1-47.24l-5.35-3.07a75.37,75.37,0,0,0-75.32.16l-114,64a27.27,27.27,0,0,0,.11,47.24l5.31,3.05a75.35,75.35,0,0,0,75.31-.15Z" transform="translate(-20.58 -12.9)"/><path class="cls-5" d="M274.94,203.15a27.27,27.27,0,0,0-.1-47.24l-5.35-3.07a75.37,75.37,0,0,0-75.32.16L87.83,214.45C69.67,225,62.08,253.82,80.3,264.27l5.31,3.05a75.35,75.35,0,0,0,75.31-.15Z" transform="translate(-20.58 -12.9)"/><path class="cls-22" d="M312.36,158.27c3-1.57,6.89-2.9,5-5.81-1.81-2.73-6.41-3.88-10.77-3.27-5.22.72-24.67,14.34-26.73,16.88s-1.45,5.93.73,7.27,4.6,1.21,7.38,0S308.36,160.32,312.36,158.27Z" transform="translate(-20.58 -12.9)"/><path class="cls-2" d="M312.36,156.27c3-1.56,6.89-2.9,5-5.81-1.81-2.72-6.41-3.87-10.77-3.26-5.22.72-24.67,14.34-26.73,16.88s-1.45,5.93.73,7.26,4.6,1.21,7.38,0S308.36,158.33,312.36,156.27Z" transform="translate(-20.58 -12.9)"/><path class="cls-3" d="M223.17,141.37,210.66,152l1.51,5.22s21.32-10.2,25.72-16.57Z" transform="translate(-20.58 -12.9)"/><polygon class="cls-20" points="234.57 175.06 193.44 151.99 257.65 159.27 257.63 161.18 234.57 175.06"/><polygon class="cls-19" points="234.57 173.14 193.44 150.08 216.5 136.2 257.63 159.26 234.57 173.14"/><path class="cls-3" d="M283.76,133.07c.49,7.91,1.89,16.51,3.6,19.59l12,2.35c.64-7.89-.44-17.27-.86-23.43Z" transform="translate(-20.58 -12.9)"/><path class="cls-4" d="M299,137.63c-.17-2.21-.35-4.27-.47-6l-14.73,1.49c.09,1.51.22,3,.37,4.56C289.61,139.53,294.7,140.07,299,137.63Z" transform="translate(-20.58 -12.9)"/><path class="cls-3" d="M257.18,160.37s-6.9-3-7.88-3a2.9,2.9,0,0,0-1.79.68s-.29.19.09.39,2.83,1.26,2.83,1.26c-.28,1.49-6,.25-6,.25s1.51,6.18,2.05,6.76,4.76,1,5.8.73c3.29-.75,4.68-1,4.68-1Z" transform="translate(-20.58 -12.9)"/><path class="cls-3" d="M291.43,147.09S261,160.21,255.15,160.78c-1.51,2.08-1.07,3.36.2,5.6,0,0,27.14,1.83,43.92-11.45Z" transform="translate(-20.58 -12.9)"/><polygon class="cls-20" points="235.72 173.72 234.59 175.05 183.57 121.73 184.72 120.31 225.85 143.37 235.72 173.72"/><polygon class="cls-7" points="234.57 175.06 193.44 151.99 183.57 121.65 224.7 144.71 234.57 175.06"/><path class="cls-3" d="M207.07,146.94s4.17.73,5.64,2.94a6.53,6.53,0,0,1,.62,1.24,7.87,7.87,0,0,1-1.61,7.92l-.88,1s-2.55-1.83-3.28-3.79S205.35,146.69,207.07,146.94Z" transform="translate(-20.58 -12.9)"/><path class="cls-5" d="M283,133.82a16.58,16.58,0,0,0,16.6,0,113.47,113.47,0,0,0-4.39-24c-1.25-4.32-5.43-5.33-9.46-3.33h0a6,6,0,0,0-3.28,6.47S282.33,123.4,283,133.82Z" transform="translate(-20.58 -12.9)"/><path class="cls-5" d="M283.13,133.18c9.44,5.06,14.95.89,16.6,0" transform="translate(-20.58 -12.9)"/><path class="cls-3" d="M232,213.79S206.72,201.12,201.69,199l-3.11,4.28a113.18,113.18,0,0,0,31.73,20.8Z" transform="translate(-20.58 -12.9)"/><path class="cls-23" d="M235.21,204.14c-1.19,4.73-3.27,5.93-6.09,4.77-7.42-3-16.34-7.29-23.2-8.74a2.13,2.13,0,0,0-1.56.26,8.53,8.53,0,0,0-4,4.46,2.62,2.62,0,0,0,.65,2.66c3.54,3.59,16.68,16,31.43,18.52Z" transform="translate(-20.58 -12.9)"/><ellipse class="cls-1" cx="211.45" cy="332.59" rx="32.94" ry="17.9"/><path class="cls-7" d="M217.93,329.18c-2-1.13-3.54-.26-3.54,1.95a7.72,7.72,0,0,0,3.54,6c2,1.13,3.54.25,3.54-2A7.7,7.7,0,0,0,217.93,329.18Z" transform="translate(-20.58 -12.9)"/><path class="cls-7" d="M217.32,339.09c2.05-.21,3.13-1.1,3.53-2l-5-8.37c-1.12.27-3.14,1.23-3.69,2.47Z" transform="translate(-20.58 -12.9)"/><path class="cls-7" d="M215.41,330.64c-1.95-1.13-3.54-.26-3.54,1.95a7.75,7.75,0,0,0,3.54,6c2,1.12,3.54.25,3.54-2A7.7,7.7,0,0,0,215.41,330.64Z" transform="translate(-20.58 -12.9)"/><ellipse class="cls-5" cx="215.41" cy="334.63" rx="2.13" ry="3.69" transform="translate(-162.59 146.71) rotate(-31.14)"/><ellipse class="cls-7" cx="255.56" cy="332.61" rx="4.95" ry="2.86" transform="translate(-181.86 366.46) rotate(-58.86)"/><path class="cls-7" d="M256.17,338.53c-2.05-.22-3.13-1.11-3.53-2l5-8.36c1.12.27,3.14,1.22,3.69,2.47Z" transform="translate(-20.58 -12.9)"/><path class="cls-7" d="M258.08,330.07c1.95-1.13,3.54-.25,3.54,1.95a7.75,7.75,0,0,1-3.54,6c-2,1.13-3.54.25-3.54-1.95A7.72,7.72,0,0,1,258.08,330.07Z" transform="translate(-20.58 -12.9)"/><path class="cls-5" d="M258.08,331.29c1.35-.78,2.45-.17,2.45,1.36a5.39,5.39,0,0,1-2.45,4.19c-1.36.78-2.46.17-2.46-1.36A5.38,5.38,0,0,1,258.08,331.29Z" transform="translate(-20.58 -12.9)"/><path class="cls-7" d="M211.19,353.17c1.95-1.12,3.54-.25,3.54,2a7.75,7.75,0,0,1-3.54,6c-2,1.12-3.54.25-3.54-2A7.74,7.74,0,0,1,211.19,353.17Z" transform="translate(-20.58 -12.9)"/><path class="cls-7" d="M211.8,363.09c-2.06-.22-3.13-1.1-3.54-2l5-8.36c1.12.27,3.13,1.23,3.68,2.47Z" transform="translate(-20.58 -12.9)"/><path class="cls-7" d="M213.7,354.63c2-1.12,3.54-.25,3.54,2a7.7,7.7,0,0,1-3.54,6c-1.95,1.13-3.54.26-3.54-1.95A7.75,7.75,0,0,1,213.7,354.63Z" transform="translate(-20.58 -12.9)"/><path class="cls-5" d="M213.7,355.88c1.35-.78,2.44-.17,2.44,1.34a5.33,5.33,0,0,1-2.44,4.16c-1.34.77-2.43.17-2.43-1.35A5.34,5.34,0,0,1,213.7,355.88Z" transform="translate(-20.58 -12.9)"/><path class="cls-7" d="M259.44,350.31c-2-1.13-3.55-.26-3.55,1.95a7.73,7.73,0,0,0,3.55,6c1.95,1.13,3.54.25,3.54-2A7.73,7.73,0,0,0,259.44,350.31Z" transform="translate(-20.58 -12.9)"/><path class="cls-7" d="M258.82,360.22c2.06-.21,3.13-1.1,3.54-2l-5-8.37c-1.12.27-3.13,1.23-3.68,2.47Z" transform="translate(-20.58 -12.9)"/><path class="cls-7" d="M256.92,351.77c-2-1.13-3.54-.26-3.54,2a7.72,7.72,0,0,0,3.54,6c1.95,1.12,3.54.25,3.54-2A7.73,7.73,0,0,0,256.92,351.77Z" transform="translate(-20.58 -12.9)"/><path class="cls-5" d="M256.92,352.86c-1.42-.82-2.57-.18-2.57,1.42a5.61,5.61,0,0,0,2.57,4.38c1.42.82,2.57.19,2.57-1.42A5.61,5.61,0,0,0,256.92,352.86Z" transform="translate(-20.58 -12.9)"/><path class="cls-4" d="M242.09,203.39c-3.34,3.08-7.08,3.27-11,1.74a3.93,3.93,0,0,1-2.42-2.9L225,183.62l15.61.4,2.89,14.8A4.92,4.92,0,0,1,242.09,203.39Z" transform="translate(-20.58 -12.9)"/><path class="cls-3" d="M216.44,184.53c1.8,9.21,4.76,15.49,10.28,14.65,5.37-.82.67-11.24,3.89-15.25.71-.88,6.79-1.1,7.55-2,3-3.43-2.73-18.93-10.47-17.42-4.83.95-9.7,2.66-11.49,7.24C215.51,173.53,216.2,183.3,216.44,184.53Z" transform="translate(-20.58 -12.9)"/><path class="cls-4" d="M224.57,185.6c.69,2.61,1.77,4.64,3.46,4.19s2.78-4.44,2.09-7-1.45-3.42-3.14-3S223.89,183,224.57,185.6Z" transform="translate(-20.58 -12.9)"/><path class="cls-3" d="M223.78,184.61c.69,2.6,1.77,4.63,3.46,4.19s3.33-4.21,2.64-6.82-2-3.65-3.69-3.21S223.1,182,223.78,184.61Z" transform="translate(-20.58 -12.9)"/><path class="cls-8" d="M188,348.11a1.89,1.89,0,0,0,.23-3.27l-15.79-9.58a.48.48,0,0,0-.45,0l-4.13,2c-1.5.73-1.43,2.9-.16,4,1.45,1.25,4.12,4,11.33,7.1C182,349.65,184.7,350,188,348.11Z" transform="translate(-20.58 -12.9)"/><path class="cls-8" d="M212.1,330.62a1.92,1.92,0,0,0,.23-3.34l-16.17-9.81a.47.47,0,0,0-.46,0l-4.22,2c-1.54.75-1.47,3-.17,4.09,1.48,1.28,4.22,4.07,11.6,7.27C206,332.2,208.77,332.54,212.1,330.62Z" transform="translate(-20.58 -12.9)"/><path class="cls-24" d="M212.76,327.37c-.12-.55.36-4.47-1.62-6.11-1.09-.91-3.44-2.81-5.09-2.92-3.51-.25-11.31-5.08-14.07-2-1.51,1.65-.91,4.47-.61,5,1.31,2.53,11,8.15,13.54,8.84C208.77,331.24,213.3,329.85,212.76,327.37Z" transform="translate(-20.58 -12.9)"/><path class="cls-24" d="M188.72,344.69c-.13-.56.36-4.48-1.62-6.12-1.1-.9-3.44-2.81-5.09-2.92-3.52-.24-11.31-5.08-14.08-2-1.5,1.65-.9,4.48-.61,5,1.32,2.52,11,8.15,13.55,8.84C184.72,348.55,189.26,347.17,188.72,344.69Z" transform="translate(-20.58 -12.9)"/><path class="cls-3" d="M182.14,343a5.63,5.63,0,0,1-2.73-4.24c-1.26-9.34-6.95-52.89-5.42-61.56,1.72-9.74,8.87-12.6,14-12.31s4,24,4,24l-4.52,3.59a47.8,47.8,0,0,1,2.87,13.08c.54,7.35-4.19,16.12-3.24,35.23C187.24,343,184.86,344.48,182.14,343Z" transform="translate(-20.58 -12.9)"/><path class="cls-3" d="M198.1,277.88c.65,17.87,7,43.52,7,43.52,1.75,5.84,5.67,3.93,5.91,1.51,1.42-13.85,1.69-14.63,1.76-25.08A105.78,105.78,0,0,0,210.81,278Z" transform="translate(-20.58 -12.9)"/><path class="cls-25" d="M189.45,264.3l7.15,2.58c7.16,2.58,47.81,18.89,47.81,18.89l18-9.48c4.15,32.6-11,33.09-18.89,35.92-3.75,1.35-30.32-6.68-36.91-9.26S189.9,294,189.9,294C182.55,285.78,182.88,273.55,189.45,264.3Z" transform="translate(-20.58 -12.9)"/><path class="cls-26" d="M241.35,196.09c-20.17,5.44-25.7,17.22-25.7,17.22-2.32,30.93-1.55,46.19-1.13,63.57,0,2.15,4.4,4,6.33,4.95,3.72,1.78,7.5,10.07,15.22,9.14,12.65-1.52,21.41-7.89,23.93-10.22a14,14,0,0,0,4.69-9.58c.3-10.58,1-33.36-2.08-58.18C262.61,209.15,259.07,191.32,241.35,196.09Z" transform="translate(-20.58 -12.9)"/><path class="cls-23" d="M224.44,209.93c-3.08-.93-8.43,1.61-10.19,4.29-1.31,1.58-2.6,3.16-.09,2.53V251.8c5.9-7.41,11.19-20.6,16-29.55C232.68,217.51,229.58,211.48,224.44,209.93Z" transform="translate(-20.58 -12.9)"/><path class="cls-3" d="M194.41,247.81s-26.19-11.72-30.17-15.53l-2.93,4.48s11.85,15.61,31.36,21.36Z" transform="translate(-20.58 -12.9)"/><path class="cls-26" d="M197.57,238.16c-1.18,4.73-3.27,5.93-6.09,4.77-7.7-3.15-19.87-6.15-24-8.9a9,9,0,0,0-4.73,4.88,2.63,2.63,0,0,0,.66,2.66c3.54,3.59,16.67,16,31.42,18.52Z" transform="translate(-20.58 -12.9)"/><path class="cls-26" d="M195.23,244c2.61-8.63,10.43-19.39,19-29.75,1.76-2.68,7.11-5.22,10.19-4.29,5.14,1.55,8.24,7.58,5.7,12.32-6.8,12.71-18.48,31.46-38.39,38.93C191.75,261.18,194.06,246.14,195.23,244Z" transform="translate(-20.58 -12.9)"/><path class="cls-3" d="M165.51,233.58s.85-4.53.29-5.86c-.17-.42-.5-1.26-2.31-.19-.42.25-.45-.9-4.41-2.8-.53-.25-2.36.06-2.48,1.23s-2.2,1.49-2.34,2.53-.79,1-1.42,1.72c-.42.47.22,1.34,0,1.81a2.37,2.37,0,0,0,.09,1.65c.7,1.17,5.47,3.55,8.74,3.43S165.51,233.58,165.51,233.58Z" transform="translate(-20.58 -12.9)"/><path class="cls-7" d="M262.65,349.41l-13.52-10.17a3,3,0,0,1,.21-4.89l11.48-7.22s-.25-1.45-2.61-1.64c-2.18-.16-16.8,5.63-19,6.49a12.06,12.06,0,0,0-3.41-.47,12.38,12.38,0,0,0-1.51.09l0-.07s-15.43-6.17-18-5.51a3.81,3.81,0,0,0-3,2.8L223.54,334a3,3,0,0,1,.45,5l-14.88,11.2a2.51,2.51,0,0,0,.79,3.67h0a2.49,2.49,0,0,0,2.94-.36l17-7.87a16.7,16.7,0,0,1,14.16.06l14.89,7a2.51,2.51,0,0,0,3.73-3.32Z" transform="translate(-20.58 -12.9)"/><ellipse class="cls-22" cx="215.24" cy="321.67" rx="2.62" ry="1.42"/><rect class="cls-22" x="212.62" y="302.46" width="5.24" height="19.2"/><path class="cls-2" d="M230.45,309.11l-36-12.84s11.08,13.93,22.21,18.25,19.63,4,26.27,2.48a45.78,45.78,0,0,0,16.85-8.19Z" transform="translate(-20.58 -12.9)"/><path class="cls-2" d="M274.17,222.23c-4.81-2.39-16.95,2.4-29.93,12.36-9.06,6.95-9.47,15.37-8.65,25.94s.46,28.07.46,36.73c0,11.21-9.2,10.58-9.2,10.58,7.83,8.1,19.54,8.23,25.4,5.82,10.59-4.36,21.73-11.65,25.46-26,1.56-6,2.57-26.79,3.82-40.54C282.73,234.08,280.52,225.39,274.17,222.23Z" transform="translate(-20.58 -12.9)"/><path class="cls-22" d="M209.54,306.28,203.86,304a11.51,11.51,0,0,1-7.18-10.66V262.74h3.68V293.3a7.84,7.84,0,0,0,4.88,7.26l2.28.92a3.68,3.68,0,0,1,2,4.8Z" transform="translate(-20.58 -12.9)"/><path class="cls-22" d="M194.86,270.51c-3.44-1.77-7.82-3.29-5.63-6.58,2.06-3.1,7.28-4.4,12.22-3.71,5.93.82,37,21.62,39.33,24.5s1.65,6.73-.82,8.24-5.22,1.37-8.37,0S199.39,272.85,194.86,270.51Z" transform="translate(-20.58 -12.9)"/><path class="cls-2" d="M194.86,268.26c-3.44-1.78-7.82-3.3-5.63-6.59,2.06-3.1,7.28-4.4,12.22-3.71,5.93.82,37,21.62,39.33,24.5s1.65,6.73-.82,8.24-5.22,1.37-8.37,0S199.39,270.59,194.86,268.26Z" transform="translate(-20.58 -12.9)"/><path class="cls-27" d="M262.64,202.13c-1.61-8.49-9.63-13.3-13.07-16.06s-4.82-12.38-4.82-12.38l-.08.07a30.94,30.94,0,0,0-4-9.85c-2.62-4.11-12.83-6-19.72.27-6.92,4-12.93-6.19-12.93,1.27,0,12,8.73,12,11.11,12.68s2.76,6.57,2.94,8.36c0,0,1.21.54,1.61-1.66s3.37-5.06,4.72-4.42c1.14.53,3.16,2.45.14,7.38.37,2,.78,4.37,1.2,6.62-.77,5.68-4.66,15.6-4.27,21.24.46,6.65,12.15,14.45,22.47,11.47S264.24,210.61,262.64,202.13Z" transform="translate(-20.58 -12.9)"/><path class="cls-28" d="M193.66,176.51l-7.26-4-8.33,3.91s6.14,3.61,6.7,3.88a11.13,11.13,0,0,0,9.49-.47,1.67,1.67,0,0,0,1.07-1.32C195.33,177.77,194.66,177.06,193.66,176.51Z" transform="translate(-20.58 -12.9)"/><path class="cls-29" d="M191.14,155.75h-17l2.64,19.05h0c.21,1.5,2.74,2.69,5.85,2.69s5.64-1.19,5.85-2.69h0Z" transform="translate(-20.58 -12.9)"/><ellipse class="cls-5" cx="162.05" cy="142.85" rx="8.51" ry="4.18"/><ellipse class="cls-30" cx="162.05" cy="142.85" rx="7.08" ry="3.02"/><path class="cls-31" d="M176.53,165.69l1.12,8.14c0,1.35,2.23,2.44,5,2.44s5-1.09,5-2.44l1.13-8.14Z" transform="translate(-20.58 -12.9)"/><path class="cls-32" d="M188.73,165.69c0,1.65-2.73,3-6.1,3s-6.1-1.34-6.1-3,2.73-3,6.1-3S188.73,164,188.73,165.69Z" transform="translate(-20.58 -12.9)"/><path class="cls-28" d="M205.49,214.19l-7.25-4-8.34,3.91s6.15,3.62,6.71,3.88a11.13,11.13,0,0,0,9.49-.47,1.67,1.67,0,0,0,1.07-1.32C207.17,215.45,206.5,214.74,205.49,214.19Z" transform="translate(-20.58 -12.9)"/><path class="cls-29" d="M203,193.43H186l2.64,19h0c.21,1.5,2.74,2.69,5.85,2.69s5.64-1.19,5.85-2.69h0Z" transform="translate(-20.58 -12.9)"/><ellipse class="cls-5" cx="173.89" cy="180.53" rx="8.51" ry="4.18"/><ellipse class="cls-30" cx="173.89" cy="180.53" rx="7.08" ry="3.02"/><path class="cls-33" d="M188.37,203.37l1.12,8.14c0,1.35,2.23,2.44,5,2.44s5-1.09,5-2.44l1.13-8.14Z" transform="translate(-20.58 -12.9)"/><path class="cls-34" d="M200.57,203.37c0,1.65-2.73,3-6.1,3s-6.1-1.34-6.1-3,2.73-3,6.1-3S200.57,201.71,200.57,203.37Z" transform="translate(-20.58 -12.9)"/><path class="cls-28" d="M169.66,256.8l-6.38-3.54L156,256.69s5.39,3.18,5.89,3.41a9.73,9.73,0,0,0,8.33-.41,1.45,1.45,0,0,0,.93-1.16C171.13,257.9,170.54,257.28,169.66,256.8Z" transform="translate(-20.58 -12.9)"/><path class="cls-29" d="M167.45,238.57H152.5l2.32,16.73h0c.18,1.31,2.4,2.35,5.13,2.35s5-1,5.14-2.35h0Z" transform="translate(-20.58 -12.9)"/><ellipse class="cls-5" cx="139.39" cy="225.67" rx="7.47" ry="3.67"/><ellipse class="cls-30" cx="139.39" cy="225.67" rx="6.22" ry="2.65"/><path class="cls-30" d="M164,254.64c0,1.08-1.79,2-4,2s-4-.88-4-2,1.78-2,4-2S164,253.56,164,254.64Z" transform="translate(-20.58 -12.9)"/><path class="cls-35" d="M161.82,254.78a2.06,2.06,0,0,1-2.42.76l-6.77-21.32,2.42-.77Z" transform="translate(-20.58 -12.9)"/><path class="cls-36" d="M155.05,233.45l-2.74-3.82.32,4.59A2.65,2.65,0,0,0,155.05,233.45Z" transform="translate(-20.58 -12.9)"/><path class="cls-37" d="M153.25,230.94l-.94-1.31.1,1.46A.62.62,0,0,0,153.25,230.94Z" transform="translate(-20.58 -12.9)"/><path class="cls-38" d="M158.9,255.41a2,2,0,0,1-2.47-.59l5.23-21.76,2.47.59Z" transform="translate(-20.58 -12.9)"/><path class="cls-36" d="M164.13,233.65l-.37-4.67-2.1,4.08A2.61,2.61,0,0,0,164.13,233.65Z" transform="translate(-20.58 -12.9)"/><path class="cls-37" d="M163.89,230.58l-.13-1.6-.67,1.3A.62.62,0,0,0,163.89,230.58Z" transform="translate(-20.58 -12.9)"/><path class="cls-27" d="M158.8,255.33a2,2,0,0,1-2.33-1l9-20.49,2.33,1Z" transform="translate(-20.58 -12.9)"/><path class="cls-36" d="M167.79,234.84l.47-4.67-2.8,3.65A2.65,2.65,0,0,0,167.79,234.84Z" transform="translate(-20.58 -12.9)"/><path class="cls-37" d="M168.1,231.77l.16-1.6-.89,1.16A.62.62,0,0,0,168.1,231.77Z" transform="translate(-20.58 -12.9)"/><path class="cls-5" d="M166.29,238.44a.59.59,0,0,1,0,.13c0,1-2.47,2.53-6.34,2.53s-6.34-1.5-6.34-2.53a.59.59,0,0,1,0-.13H152.5v.13c0,2,3.34,3.67,7.47,3.67s7.48-1.65,7.48-3.67c0,0,0-.09,0-.13Z" transform="translate(-20.58 -12.9)"/><path class="cls-39" d="M146,179.07,124.1,191.55s0,1,0,1.34a1.14,1.14,0,0,0,.57,1l30.47,17.88a1.12,1.12,0,0,0,1.17,0l21.51-13.1a1.11,1.11,0,0,0,.55-.91c0-.41,0-1.5,0-1.5l-31.18-17.23A1.15,1.15,0,0,0,146,179.07Z" transform="translate(-20.58 -12.9)"/><path class="cls-7" d="M146,177.65l-21.38,12.89a1.15,1.15,0,0,0,0,2l30.47,17.88a1.12,1.12,0,0,0,1.17,0l21.51-13.1a1.14,1.14,0,0,0,0-2l-30.61-17.68A1.15,1.15,0,0,0,146,177.65Z" transform="translate(-20.58 -12.9)"/><path class="cls-5" d="M147.09,181l-17,10.25a.91.91,0,0,0,0,1.56l24.25,14.24a.89.89,0,0,0,.93,0l17.12-10.42a.91.91,0,0,0,0-1.57L148,181A.91.91,0,0,0,147.09,181Z" transform="translate(-20.58 -12.9)"/><polygon class="cls-40" points="128.17 170.99 124.03 183.07 114.66 178.94 128.17 170.99"/><polygon class="cls-41" points="128.17 170.99 140.53 181.46 114.66 178.94 128.17 170.99"/><path class="cls-32" d="M154,196.46c-2.22,0-4,1.22-4,2.71s1.81,2.71,4,2.71,4-1.22,4-2.71S156.19,196.46,154,196.46Z" transform="translate(-20.58 -12.9)"/><circle class="cls-7" cx="38.23" cy="192.57" r="2.03"/><circle class="cls-7" cx="38.23" cy="187.2" r="4.55"/><circle class="cls-7" cx="38.23" cy="179.64" r="5.76"/><path class="cls-7" d="M68.07,184.69a5.59,5.59,0,1,1-5.59-5.59A5.6,5.6,0,0,1,68.07,184.69Z" transform="translate(-20.58 -12.9)"/><path class="cls-7" d="M73.77,181.15a3.89,3.89,0,1,1-3.89-3.89A3.89,3.89,0,0,1,73.77,181.15Z" transform="translate(-20.58 -12.9)"/><path class="cls-7" d="M81.33,185.74a3.13,3.13,0,1,0,3.13-3.13A3.13,3.13,0,0,0,81.33,185.74Z" transform="translate(-20.58 -12.9)"/><path class="cls-7" d="M82.41,189.07A3.13,3.13,0,1,0,85.53,186,3.13,3.13,0,0,0,82.41,189.07Z" transform="translate(-20.58 -12.9)"/><circle class="cls-7" cx="60.64" cy="170.59" r="2.85"/><circle class="cls-7" cx="65.81" cy="179.52" r="2.85"/><path class="cls-7" d="M71.36,182.61a4.72,4.72,0,1,0,4.71-4.71A4.71,4.71,0,0,0,71.36,182.61Z" transform="translate(-20.58 -12.9)"/><circle class="cls-7" cx="46.56" cy="167.03" r="2.47"/><path class="cls-7" d="M76.62,179.49a2.69,2.69,0,1,1-2.69-2.69A2.68,2.68,0,0,1,76.62,179.49Z" transform="translate(-20.58 -12.9)"/><path class="cls-7" d="M59.52,187.16A2.14,2.14,0,1,1,57.38,185,2.14,2.14,0,0,1,59.52,187.16Z" transform="translate(-20.58 -12.9)"/><polygon class="cls-20" points="81.71 212.87 122.99 237.12 93.92 254.07 52.59 229.75 81.71 212.87"/><polygon class="cls-42" points="121.2 235.23 121.2 236.72 93.41 253.01 53.61 229.51 53.61 228.02 121.2 235.23"/><polygon class="cls-19" points="93.41 251.52 93.41 253.01 53.61 229.51 53.61 228.02 93.41 251.52"/><polygon class="cls-41" points="81.44 211.8 121.2 235.23 93.41 251.52 53.61 228.02 81.44 211.8"/><polygon class="cls-19" points="80.93 213.89 117.64 235.52 102.9 244.16 66.15 222.47 80.93 213.89"/><polygon class="cls-19" points="77.41 230.39 91.09 238.44 82.16 243.68 68.48 235.6 77.41 230.39"/><polygon class="cls-41" points="81.55 236.12 81.72 236.21 75.58 239.81 75.4 239.71 81.55 236.12"/><polygon class="cls-43" points="81.44 178.52 82.58 178.05 82.58 171.43 81.44 172.13 81.44 178.52"/><polygon class="cls-43" points="82.58 171.43 82.58 211.1 122.34 234.48 122.34 194.81 82.58 171.43"/><polygon class="cls-42" points="121.2 195.51 121.2 235.18 122.34 234.48 122.34 194.81 121.2 195.51"/><polygon class="cls-44" points="81.44 172.13 81.44 211.8 121.2 235.18 121.2 195.51 81.44 172.13"/><path class="cls-5" d="M103.07,224.41l36.76,21.4a.68.68,0,0,0,1-.59V211.27a.68.68,0,0,0-.33-.58l-36.76-21.5a.68.68,0,0,0-1,.58v34A.7.7,0,0,0,103.07,224.41Z" transform="translate(-20.58 -12.9)"/><path class="cls-35" d="M132.21,208.5l5.5,3.21a.59.59,0,0,1,.29.5v1.93a.57.57,0,0,1-.87.49l-5.43-3.16a.51.51,0,0,1-.26-.44v-2.09A.51.51,0,0,1,132.21,208.5Z" transform="translate(-20.58 -12.9)"/><path class="cls-35" d="M130.69,207.9V210a.5.5,0,0,1-.76.43L124,207a.49.49,0,0,1-.26-.43v-2.13a.5.5,0,0,1,.76-.43l5.91,3.45A.5.5,0,0,1,130.69,207.9Z" transform="translate(-20.58 -12.9)"/><path class="cls-35" d="M122.81,203.39v2.16a.45.45,0,0,1-.68.39l-7.84-4.57a.61.61,0,0,1-.31-.53v-2.17a.46.46,0,0,1,.69-.4l7.84,4.59A.6.6,0,0,1,122.81,203.39Z" transform="translate(-20.58 -12.9)"/><path class="cls-45" d="M105.88,201l31.25,18.2a.58.58,0,0,0,.87-.5v-1.93a.56.56,0,0,0-.29-.49L106.46,198a.58.58,0,0,0-.87.5v2A.57.57,0,0,0,105.88,201Z" transform="translate(-20.58 -12.9)"/><path class="cls-46" d="M105.88,205.47l31.25,18.19a.58.58,0,0,0,.87-.5v-1.92a.57.57,0,0,0-.29-.5l-31.25-18.28a.58.58,0,0,0-.87.5v2A.59.59,0,0,0,105.88,205.47Z" transform="translate(-20.58 -12.9)"/><path class="cls-31" d="M130.26,220.89l7.45,4.36a.59.59,0,0,1,.29.5v1.93a.57.57,0,0,1-.87.49l-7.28-4.24a.84.84,0,0,1-.42-.73v-1.83A.56.56,0,0,1,130.26,220.89Z" transform="translate(-20.58 -12.9)"/><path class="cls-31" d="M106.46,207l21.75,12.72a.84.84,0,0,1,.43.74v1.88a.53.53,0,0,1-.79.45l-22-12.79a.57.57,0,0,1-.29-.5v-2A.57.57,0,0,1,106.46,207Z" transform="translate(-20.58 -12.9)"/><path class="cls-41" d="M105.88,214.49l31.25,18.2a.58.58,0,0,0,.87-.5v-1.93a.56.56,0,0,0-.29-.49l-31.25-18.28a.58.58,0,0,0-.87.5v2A.57.57,0,0,0,105.88,214.49Z" transform="translate(-20.58 -12.9)"/><path class="cls-45" d="M113.28,220.41a.27.27,0,0,1,.4-.23l24,14.1a.57.57,0,0,1,.29.5v1.92a.58.58,0,0,1-.87.5l-23.42-13.68a.85.85,0,0,1-.43-.75Z" transform="translate(-20.58 -12.9)"/><path class="cls-45" d="M106.46,216l5.67,3.32a.88.88,0,0,1,.43.76v2.1a.41.41,0,0,1-.62.35L105.88,219a.59.59,0,0,1-.29-.5v-2A.58.58,0,0,1,106.46,216Z" transform="translate(-20.58 -12.9)"/><path class="cls-41" d="M105.88,223.52l31.25,18.19a.57.57,0,0,0,.87-.49v-1.93a.59.59,0,0,0-.29-.5l-31.25-18.27a.57.57,0,0,0-.87.49v2A.57.57,0,0,0,105.88,223.52Z" transform="translate(-20.58 -12.9)"/><path class="cls-47" d="M121.9,197.67c-.13-.08-.24.05-.24.29a.79.79,0,0,0,.24.59c.14.08.24-.05.24-.29A.72.72,0,0,0,121.9,197.67Z" transform="translate(-20.58 -12.9)"/><path class="cls-48" d="M123.29,254.07l-1.25.7a.26.26,0,0,0,0,.46l1.34.79a.5.5,0,0,0,.49,0l1.23-.71a.26.26,0,0,0,0-.45l-1.33-.79A.48.48,0,0,0,123.29,254.07Z" transform="translate(-20.58 -12.9)"/><path class="cls-48" d="M120.51,252.44l-1.25.7a.27.27,0,0,0,0,.46l1.34.79a.5.5,0,0,0,.49,0l1.23-.71a.26.26,0,0,0,0-.45l-1.32-.79A.48.48,0,0,0,120.51,252.44Z" transform="translate(-20.58 -12.9)"/><path class="cls-48" d="M117.74,250.81l-1.25.7a.27.27,0,0,0,0,.46l1.34.79a.48.48,0,0,0,.48,0l1.23-.71a.26.26,0,0,0,0-.45l-1.32-.79A.48.48,0,0,0,117.74,250.81Z" transform="translate(-20.58 -12.9)"/><path class="cls-48" d="M98.34,239.39l-1.25.7a.26.26,0,0,0,0,.46l1.34.79a.5.5,0,0,0,.49,0l1.23-.71a.26.26,0,0,0,0-.45l-1.33-.79A.46.46,0,0,0,98.34,239.39Z" transform="translate(-20.58 -12.9)"/><path class="cls-48" d="M95.57,237.76l-1.25.7a.26.26,0,0,0,0,.46l1.34.79a.48.48,0,0,0,.49,0l1.23-.7a.27.27,0,0,0,0-.46l-1.32-.78A.46.46,0,0,0,95.57,237.76Z" transform="translate(-20.58 -12.9)"/><path class="cls-48" d="M92.79,236.13l-1.25.7a.27.27,0,0,0,0,.46l1.34.79a.46.46,0,0,0,.48,0l1.23-.7a.26.26,0,0,0,0-.46l-1.32-.79A.48.48,0,0,0,92.79,236.13Z" transform="translate(-20.58 -12.9)"/><path class="cls-48" d="M90,234.49l-1.25.71a.26.26,0,0,0,0,.45l1.35.8a.48.48,0,0,0,.48,0l1.23-.7a.27.27,0,0,0,0-.46l-1.33-.79A.48.48,0,0,0,90,234.49Z" transform="translate(-20.58 -12.9)"/><path class="cls-48" d="M100.64,241l-1.25.7a.27.27,0,0,0,0,.46l15.58,9a.5.5,0,0,0,.49,0l1.23-.71a.26.26,0,0,0,0-.45l-15.56-9A.48.48,0,0,0,100.64,241Z" transform="translate(-20.58 -12.9)"/><path class="cls-48" d="M126.06,252.37l-1.25.7a.26.26,0,0,0,0,.46l1.35.79a.46.46,0,0,0,.48,0l1.23-.7a.27.27,0,0,0,0-.46l-1.33-.79A.46.46,0,0,0,126.06,252.37Z" transform="translate(-20.58 -12.9)"/><path class="cls-48" d="M123.29,250.73l-1.25.71a.25.25,0,0,0,0,.45l1.34.8a.48.48,0,0,0,.49,0l1.23-.7a.27.27,0,0,0,0-.46l-1.33-.79A.48.48,0,0,0,123.29,250.73Z" transform="translate(-20.58 -12.9)"/><path class="cls-48" d="M120.51,249.1l-1.25.7a.27.27,0,0,0,0,.46l1.34.79a.48.48,0,0,0,.49,0l1.23-.7a.27.27,0,0,0,0-.46l-1.32-.79A.5.5,0,0,0,120.51,249.1Z" transform="translate(-20.58 -12.9)"/><path class="cls-48" d="M117.74,247.47l-1.25.7a.27.27,0,0,0,0,.46l1.34.79a.48.48,0,0,0,.48,0l1.23-.7a.26.26,0,0,0,0-.46l-1.32-.79A.5.5,0,0,0,117.74,247.47Z" transform="translate(-20.58 -12.9)"/><path class="cls-48" d="M115,245.84l-1.25.7a.27.27,0,0,0,0,.46l1.35.79a.48.48,0,0,0,.48,0l1.23-.71a.26.26,0,0,0,0-.45l-1.33-.79A.48.48,0,0,0,115,245.84Z" transform="translate(-20.58 -12.9)"/><path class="cls-48" d="M112.2,244.21l-1.25.7a.26.26,0,0,0,0,.46l1.34.79a.5.5,0,0,0,.49,0l1.23-.71a.26.26,0,0,0,0-.45l-1.33-.79A.46.46,0,0,0,112.2,244.21Z" transform="translate(-20.58 -12.9)"/><path class="cls-48" d="M109.43,242.58l-1.25.7a.26.26,0,0,0,0,.46l1.34.79a.5.5,0,0,0,.49,0l1.23-.71a.26.26,0,0,0,0-.45l-1.32-.79A.46.46,0,0,0,109.43,242.58Z" transform="translate(-20.58 -12.9)"/><path class="cls-48" d="M106.65,241l-1.25.7a.27.27,0,0,0,0,.46l1.34.79a.48.48,0,0,0,.49,0l1.23-.7a.27.27,0,0,0,0-.46l-1.32-.79A.5.5,0,0,0,106.65,241Z" transform="translate(-20.58 -12.9)"/><path class="cls-48" d="M103.88,239.31l-1.25.71a.26.26,0,0,0,0,.45l1.35.8a.46.46,0,0,0,.48,0l1.23-.7a.26.26,0,0,0,0-.46l-1.32-.79A.5.5,0,0,0,103.88,239.31Z" transform="translate(-20.58 -12.9)"/><path class="cls-48" d="M101.11,237.68l-1.25.7a.26.26,0,0,0,0,.46l1.35.8a.48.48,0,0,0,.48,0l1.23-.7a.27.27,0,0,0,0-.46l-1.33-.79A.48.48,0,0,0,101.11,237.68Z" transform="translate(-20.58 -12.9)"/><path class="cls-48" d="M98.34,236.05l-1.25.7a.26.26,0,0,0,0,.46l1.34.79a.48.48,0,0,0,.49,0l1.23-.7a.27.27,0,0,0,0-.46l-1.33-.79A.48.48,0,0,0,98.34,236.05Z" transform="translate(-20.58 -12.9)"/><path class="cls-48" d="M95.57,234.42l-1.25.7a.26.26,0,0,0,0,.46l1.34.79a.5.5,0,0,0,.49,0l1.23-.7a.27.27,0,0,0,0-.46l-1.32-.79A.48.48,0,0,0,95.57,234.42Z" transform="translate(-20.58 -12.9)"/><path class="cls-48" d="M92.79,232.79l-1.25.7a.27.27,0,0,0,0,.46l1.34.79a.48.48,0,0,0,.48,0L94.6,234a.26.26,0,0,0,0-.45l-1.32-.79A.5.5,0,0,0,92.79,232.79Z" transform="translate(-20.58 -12.9)"/><path class="cls-48" d="M128.83,250.66l-1.25.7a.27.27,0,0,0,0,.46l1.35.79a.48.48,0,0,0,.48,0l1.23-.7a.26.26,0,0,0,0-.46l-1.32-.79A.5.5,0,0,0,128.83,250.66Z" transform="translate(-20.58 -12.9)"/><path class="cls-48" d="M126.06,249l-1.25.7a.26.26,0,0,0,0,.46l1.35.79a.48.48,0,0,0,.48,0l1.23-.71a.26.26,0,0,0,0-.45l-1.33-.79A.48.48,0,0,0,126.06,249Z" transform="translate(-20.58 -12.9)"/><path class="cls-48" d="M123.29,247.4l-1.25.7a.26.26,0,0,0,0,.46l1.34.79a.5.5,0,0,0,.49,0l1.23-.71a.26.26,0,0,0,0-.45l-1.33-.79A.46.46,0,0,0,123.29,247.4Z" transform="translate(-20.58 -12.9)"/><path class="cls-48" d="M120.51,245.77l-1.25.7a.27.27,0,0,0,0,.46l1.34.79a.48.48,0,0,0,.49,0l1.23-.7a.27.27,0,0,0,0-.46l-1.32-.78A.48.48,0,0,0,120.51,245.77Z" transform="translate(-20.58 -12.9)"/><path class="cls-48" d="M117.74,244.14l-1.25.7a.27.27,0,0,0,0,.46l1.34.79a.46.46,0,0,0,.48,0l1.23-.7a.26.26,0,0,0,0-.46l-1.32-.79A.48.48,0,0,0,117.74,244.14Z" transform="translate(-20.58 -12.9)"/><path class="cls-48" d="M115,242.5l-1.25.71a.26.26,0,0,0,0,.45l1.35.8a.46.46,0,0,0,.48,0l1.23-.7a.27.27,0,0,0,0-.46l-1.33-.79A.48.48,0,0,0,115,242.5Z" transform="translate(-20.58 -12.9)"/><path class="cls-48" d="M112.2,240.87l-1.25.7a.26.26,0,0,0,0,.46l1.34.79a.48.48,0,0,0,.49,0l1.23-.7a.27.27,0,0,0,0-.46l-1.33-.79A.48.48,0,0,0,112.2,240.87Z" transform="translate(-20.58 -12.9)"/><path class="cls-48" d="M109.43,239.24l-1.25.7a.26.26,0,0,0,0,.46l1.34.79a.5.5,0,0,0,.49,0l1.23-.7a.27.27,0,0,0,0-.46l-1.32-.79A.48.48,0,0,0,109.43,239.24Z" transform="translate(-20.58 -12.9)"/><path class="cls-48" d="M106.65,237.61l-1.25.7a.27.27,0,0,0,0,.46l1.34.79a.5.5,0,0,0,.49,0l1.23-.71a.26.26,0,0,0,0-.45l-1.32-.79A.5.5,0,0,0,106.65,237.61Z" transform="translate(-20.58 -12.9)"/><path class="cls-48" d="M103.88,236l-1.25.7a.27.27,0,0,0,0,.46l1.35.79a.48.48,0,0,0,.48,0l1.23-.71a.25.25,0,0,0,0-.45l-1.32-.79A.48.48,0,0,0,103.88,236Z" transform="translate(-20.58 -12.9)"/><path class="cls-48" d="M101.11,234.35l-1.25.7a.26.26,0,0,0,0,.46l1.35.79a.48.48,0,0,0,.48,0l1.23-.71a.26.26,0,0,0,0-.45l-1.33-.79A.46.46,0,0,0,101.11,234.35Z" transform="translate(-20.58 -12.9)"/><path class="cls-48" d="M98.34,232.72l-1.25.7a.26.26,0,0,0,0,.46l1.34.79a.48.48,0,0,0,.49,0l1.23-.7a.27.27,0,0,0,0-.46l-1.33-.79A.48.48,0,0,0,98.34,232.72Z" transform="translate(-20.58 -12.9)"/><path class="cls-48" d="M95.57,231.08l-1.25.71a.25.25,0,0,0,0,.45l1.34.8a.48.48,0,0,0,.49,0l1.23-.7a.27.27,0,0,0,0-.46l-1.32-.79A.48.48,0,0,0,95.57,231.08Z" transform="translate(-20.58 -12.9)"/><path class="cls-48" d="M131.6,249l-1.25.7a.27.27,0,0,0,0,.46l1.34.79a.48.48,0,0,0,.49,0l1.23-.7a.27.27,0,0,0,0-.46l-1.32-.78A.48.48,0,0,0,131.6,249Z" transform="translate(-20.58 -12.9)"/><path class="cls-48" d="M128.83,247.32l-1.25.71a.27.27,0,0,0,0,.46l1.35.79a.46.46,0,0,0,.48,0l1.23-.7a.26.26,0,0,0,0-.46l-1.32-.79A.5.5,0,0,0,128.83,247.32Z" transform="translate(-20.58 -12.9)"/><path class="cls-48" d="M126.06,245.69l-1.25.7a.26.26,0,0,0,0,.46l1.35.8a.48.48,0,0,0,.48,0l1.23-.7a.27.27,0,0,0,0-.46l-1.33-.79A.48.48,0,0,0,126.06,245.69Z" transform="translate(-20.58 -12.9)"/><path class="cls-48" d="M123.29,244.06l-1.25.7a.26.26,0,0,0,0,.46l1.34.79a.48.48,0,0,0,.49,0l1.23-.7a.27.27,0,0,0,0-.46l-1.33-.79A.48.48,0,0,0,123.29,244.06Z" transform="translate(-20.58 -12.9)"/><path class="cls-48" d="M120.51,242.43l-1.25.7a.27.27,0,0,0,0,.46l1.34.79a.5.5,0,0,0,.49,0l1.23-.7a.27.27,0,0,0,0-.46l-1.32-.79A.5.5,0,0,0,120.51,242.43Z" transform="translate(-20.58 -12.9)"/><path class="cls-48" d="M117.74,240.8l-1.25.7a.27.27,0,0,0,0,.46l1.34.79a.48.48,0,0,0,.48,0l1.23-.71a.26.26,0,0,0,0-.45l-1.32-.79A.5.5,0,0,0,117.74,240.8Z" transform="translate(-20.58 -12.9)"/><path class="cls-48" d="M115,239.17l-1.25.7a.27.27,0,0,0,0,.46l1.35.79a.48.48,0,0,0,.48,0l1.23-.71a.26.26,0,0,0,0-.45l-1.33-.79A.46.46,0,0,0,115,239.17Z" transform="translate(-20.58 -12.9)"/><path class="cls-48" d="M112.2,237.54l-1.25.7a.26.26,0,0,0,0,.46l1.34.79a.48.48,0,0,0,.49,0l1.23-.7a.27.27,0,0,0,0-.46l-1.33-.78A.46.46,0,0,0,112.2,237.54Z" transform="translate(-20.58 -12.9)"/><path class="cls-48" d="M109.43,235.91l-1.25.7a.26.26,0,0,0,0,.46l1.34.79a.48.48,0,0,0,.49,0l1.23-.7a.27.27,0,0,0,0-.46l-1.32-.79A.46.46,0,0,0,109.43,235.91Z" transform="translate(-20.58 -12.9)"/><path class="cls-48" d="M106.65,234.27l-1.25.71a.26.26,0,0,0,0,.45l1.34.8a.48.48,0,0,0,.49,0l1.23-.7a.27.27,0,0,0,0-.46l-1.32-.79A.5.5,0,0,0,106.65,234.27Z" transform="translate(-20.58 -12.9)"/><path class="cls-48" d="M103.88,232.64l-1.25.7a.27.27,0,0,0,0,.46l1.35.79a.46.46,0,0,0,.48,0l1.23-.7a.26.26,0,0,0,0-.46l-1.32-.79A.5.5,0,0,0,103.88,232.64Z" transform="translate(-20.58 -12.9)"/><path class="cls-48" d="M101.11,231l-1.25.7a.26.26,0,0,0,0,.46l1.35.79a.48.48,0,0,0,.48,0l1.23-.7a.27.27,0,0,0,0-.46l-1.33-.79A.48.48,0,0,0,101.11,231Z" transform="translate(-20.58 -12.9)"/><path class="cls-48" d="M98.34,229.38l-1.25.7a.26.26,0,0,0,0,.46l1.34.79a.5.5,0,0,0,.49,0l1.23-.71a.26.26,0,0,0,0-.45l-1.33-.79A.48.48,0,0,0,98.34,229.38Z" transform="translate(-20.58 -12.9)"/><path class="cls-48" d="M134.38,247.4l-1.25.7a.26.26,0,0,0,0,.46l1.34.79a.5.5,0,0,0,.49,0l1.23-.71a.26.26,0,0,0,0-.45l-1.32-.79A.46.46,0,0,0,134.38,247.4Z" transform="translate(-20.58 -12.9)"/><path class="cls-48" d="M131.6,245.77l-1.25.7a.27.27,0,0,0,0,.46l1.34.79a.48.48,0,0,0,.49,0l1.23-.7a.27.27,0,0,0,0-.46l-1.32-.78A.48.48,0,0,0,131.6,245.77Z" transform="translate(-20.58 -12.9)"/><path class="cls-48" d="M128.83,244.14l-1.25.7a.27.27,0,0,0,0,.46l1.35.79a.46.46,0,0,0,.48,0l1.23-.7a.26.26,0,0,0,0-.46l-1.32-.79A.48.48,0,0,0,128.83,244.14Z" transform="translate(-20.58 -12.9)"/><path class="cls-48" d="M126.06,242.5l-1.25.71a.25.25,0,0,0,0,.45l1.35.8a.46.46,0,0,0,.48,0l1.23-.7a.27.27,0,0,0,0-.46l-1.33-.79A.48.48,0,0,0,126.06,242.5Z" transform="translate(-20.58 -12.9)"/><path class="cls-48" d="M123.29,240.87l-1.25.7a.26.26,0,0,0,0,.46l1.34.79a.48.48,0,0,0,.49,0l1.23-.7a.27.27,0,0,0,0-.46l-1.33-.79A.48.48,0,0,0,123.29,240.87Z" transform="translate(-20.58 -12.9)"/><path class="cls-48" d="M120.51,239.24l-1.25.7a.27.27,0,0,0,0,.46l1.34.79a.5.5,0,0,0,.49,0l1.23-.7a.27.27,0,0,0,0-.46l-1.32-.79A.5.5,0,0,0,120.51,239.24Z" transform="translate(-20.58 -12.9)"/><path class="cls-48" d="M117.74,237.61l-1.25.7a.27.27,0,0,0,0,.46l1.34.79a.48.48,0,0,0,.48,0l1.23-.71a.25.25,0,0,0,0-.45l-1.32-.79A.5.5,0,0,0,117.74,237.61Z" transform="translate(-20.58 -12.9)"/><path class="cls-48" d="M115,236l-1.25.7a.27.27,0,0,0,0,.46l1.35.79a.48.48,0,0,0,.48,0l1.23-.71a.26.26,0,0,0,0-.45l-1.33-.79A.46.46,0,0,0,115,236Z" transform="translate(-20.58 -12.9)"/><path class="cls-48" d="M112.2,234.35l-1.25.7a.26.26,0,0,0,0,.46l1.34.79a.5.5,0,0,0,.49,0l1.23-.71a.26.26,0,0,0,0-.45l-1.33-.79A.46.46,0,0,0,112.2,234.35Z" transform="translate(-20.58 -12.9)"/><path class="cls-48" d="M109.43,232.72l-1.25.7a.26.26,0,0,0,0,.46l1.34.79a.48.48,0,0,0,.49,0l1.23-.7a.27.27,0,0,0,0-.46l-1.32-.79A.48.48,0,0,0,109.43,232.72Z" transform="translate(-20.58 -12.9)"/><path class="cls-48" d="M106.65,231.08l-1.25.71a.26.26,0,0,0,0,.45l1.34.8a.48.48,0,0,0,.49,0l1.23-.7a.27.27,0,0,0,0-.46l-1.32-.79A.5.5,0,0,0,106.65,231.08Z" transform="translate(-20.58 -12.9)"/><path class="cls-48" d="M103.88,229.45l-1.25.7a.27.27,0,0,0,0,.46l1.35.8a.48.48,0,0,0,.48,0l1.23-.7a.26.26,0,0,0,0-.46l-1.32-.79A.5.5,0,0,0,103.88,229.45Z" transform="translate(-20.58 -12.9)"/><path class="cls-48" d="M101.11,227.82l-1.25.7a.26.26,0,0,0,0,.46l1.35.79a.46.46,0,0,0,.48,0l1.23-.7a.27.27,0,0,0,0-.46l-1.33-.79A.48.48,0,0,0,101.11,227.82Z" transform="translate(-20.58 -12.9)"/><path class="cls-49" d="M70.38,234.63s23.85-12,28.88-14c.48-4,1.43-9,2.76-10.07l.29,6.92c.08,1.14.33,1.65,1.47,1.8s1.4-.8,3.15-1c.5,1.74-4.19,5.63-4.19,5.63a96.6,96.6,0,0,1-30.62,21.12Z" transform="translate(-20.58 -12.9)"/><path class="cls-50" d="M73.31,229.75c7.39-3,16.28-7.27,23.13-8.74a2.32,2.32,0,0,1,1.63.25,8.62,8.62,0,0,1,4,4.45,2.64,2.64,0,0,1-.64,2.67,80.89,80.89,0,0,1-17.44,13.35c-6.84,3.78-14.86-3.29-11.8-10.47A2.7,2.7,0,0,1,73.31,229.75Z" transform="translate(-20.58 -12.9)"/><ellipse class="cls-1" cx="49.81" cy="353.42" rx="32.94" ry="17.9"/><path class="cls-7" d="M84.49,350c2-1.13,3.54-.25,3.54,2a7.7,7.7,0,0,1-3.54,6c-1.95,1.13-3.54.26-3.54-1.95A7.75,7.75,0,0,1,84.49,350Z" transform="translate(-20.58 -12.9)"/><path class="cls-7" d="M85.1,359.93c-2-.22-3.12-1.11-3.53-2l5-8.36c1.12.27,3.13,1.22,3.68,2.47Z" transform="translate(-20.58 -12.9)"/><path class="cls-7" d="M87,351.47c2-1.13,3.54-.25,3.54,1.95a7.72,7.72,0,0,1-3.54,6c-2,1.13-3.54.25-3.54-1.95A7.72,7.72,0,0,1,87,351.47Z" transform="translate(-20.58 -12.9)"/><path class="cls-5" d="M87,352.49c1.46-.84,2.64-.19,2.64,1.45A5.77,5.77,0,0,1,87,358.45c-1.46.84-2.64.18-2.64-1.46A5.75,5.75,0,0,1,87,352.49Z" transform="translate(-20.58 -12.9)"/><path class="cls-7" d="M46.86,349.45c-2-1.13-3.54-.26-3.54,1.95a7.75,7.75,0,0,0,3.54,6c2,1.13,3.54.25,3.54-2A7.7,7.7,0,0,0,46.86,349.45Z" transform="translate(-20.58 -12.9)"/><path class="cls-7" d="M46.25,359.36c2.06-.21,3.13-1.1,3.54-2l-5-8.37c-1.12.27-3.13,1.23-3.68,2.47Z" transform="translate(-20.58 -12.9)"/><path class="cls-7" d="M44.35,350.9c-2-1.12-3.54-.25-3.54,2a7.72,7.72,0,0,0,3.54,6c1.95,1.12,3.54.25,3.54-2A7.75,7.75,0,0,0,44.35,350.9Z" transform="translate(-20.58 -12.9)"/><path class="cls-5" d="M44.35,352.13c-1.36-.78-2.46-.18-2.46,1.35a5.36,5.36,0,0,0,2.46,4.19c1.35.78,2.45.18,2.45-1.35A5.38,5.38,0,0,0,44.35,352.13Z" transform="translate(-20.58 -12.9)"/><path class="cls-7" d="M91.24,374c-2-1.13-3.55-.25-3.55,1.95a7.73,7.73,0,0,0,3.55,6c2,1.13,3.54.25,3.54-1.95A7.75,7.75,0,0,0,91.24,374Z" transform="translate(-20.58 -12.9)"/><path class="cls-7" d="M90.63,383.93c2.05-.22,3.12-1.11,3.53-2l-5-8.36c-1.12.27-3.13,1.22-3.68,2.47Z" transform="translate(-20.58 -12.9)"/><path class="cls-7" d="M88.72,375.47c-2-1.13-3.54-.25-3.54,1.95a7.72,7.72,0,0,0,3.54,6c2,1.13,3.54.25,3.54-1.95A7.75,7.75,0,0,0,88.72,375.47Z" transform="translate(-20.58 -12.9)"/><path class="cls-5" d="M88.72,376.72c-1.35-.78-2.44-.18-2.44,1.34a5.29,5.29,0,0,0,2.44,4.15c1.34.78,2.44.18,2.44-1.34A5.32,5.32,0,0,0,88.72,376.72Z" transform="translate(-20.58 -12.9)"/><path class="cls-7" d="M43,371.14c1.95-1.13,3.54-.25,3.54,2a7.73,7.73,0,0,1-3.54,6c-2,1.13-3.54.26-3.54-1.95A7.72,7.72,0,0,1,43,371.14Z" transform="translate(-20.58 -12.9)"/><path class="cls-7" d="M43.6,381.06c-2.06-.22-3.13-1.11-3.54-2l5-8.36c1.12.27,3.13,1.22,3.68,2.47Z" transform="translate(-20.58 -12.9)"/><path class="cls-7" d="M45.5,372.6c2-1.13,3.54-.25,3.54,1.95a7.72,7.72,0,0,1-3.54,6c-2,1.13-3.54.25-3.54-1.95A7.75,7.75,0,0,1,45.5,372.6Z" transform="translate(-20.58 -12.9)"/><path class="cls-5" d="M45.5,373.69c1.42-.81,2.58-.18,2.58,1.42a5.62,5.62,0,0,1-2.58,4.39c-1.42.82-2.57.18-2.57-1.42A5.63,5.63,0,0,1,45.5,373.69Z" transform="translate(-20.58 -12.9)"/><path class="cls-49" d="M60.33,224.22c3.35,3.09,7.08,3.27,11,1.74a3.9,3.9,0,0,0,2.42-2.9l3.64-18.6-15.6.39-2.9,14.8A4.93,4.93,0,0,0,60.33,224.22Z" transform="translate(-20.58 -12.9)"/><path class="cls-49" d="M86,205.37c-1.8,9.2-4.76,15.48-10.27,14.64s-.68-11.24-3.9-15.24c-.7-.88-6.79-1.1-7.55-2-3-3.43,2.73-18.93,10.47-17.42,4.84.94,9.7,2.65,11.49,7.24C86.91,194.37,86.22,204.13,86,205.37Z" transform="translate(-20.58 -12.9)"/><path class="cls-7" d="M83.64,198.89c-2.39.64-3.13,6.65-3.31,8.44,0,0-1.21.54-1.61-1.66S76,200.05,75,203.08s-3.22,9.37-4.63,11.26c-.92,1.23-4.21,2.4-8.52.6a6.32,6.32,0,0,1-3.64-7.31c1.51-6.09-3.21-12.35,3.51-22.89,2.62-4.11,12.83-6,19.73.27C83.22,186,94.08,196.09,83.64,198.89Z" transform="translate(-20.58 -12.9)"/><path class="cls-51" d="M77.85,206.44c-.69,2.6-1.77,4.64-3.46,4.19s-2.78-4.44-2.09-7,1.45-3.42,3.14-3S78.54,203.83,77.85,206.44Z" transform="translate(-20.58 -12.9)"/><path class="cls-49" d="M78.64,205.44c-.69,2.61-1.77,4.64-3.46,4.19s-3.33-4.21-2.64-6.81,2-3.66,3.69-3.21S79.33,202.83,78.64,205.44Z" transform="translate(-20.58 -12.9)"/><path class="cls-8" d="M114.47,368.94a1.88,1.88,0,0,1-.22-3.26L130,356.1a.5.5,0,0,1,.46,0l4.12,2c1.5.72,1.43,2.9.16,4-1.45,1.25-4.12,4-11.33,7.09C120.4,370.48,117.73,370.81,114.47,368.94Z" transform="translate(-20.58 -12.9)"/><path class="cls-7" d="M113.83,365.77c0-.56-.34-6,1.59-7.61,1.07-.89,3.34-1.11,5-1.22,3.43-.23,11-4.95,13.74-2,1.47,1.61.88,4.38.59,4.93-1.28,2.47-10.76,8-13.22,8.63C117.73,369.54,113.78,369.39,113.83,365.77Z" transform="translate(-20.58 -12.9)"/><path class="cls-8" d="M90.32,351.46a1.94,1.94,0,0,1-.23-3.35l16.17-9.8a.49.49,0,0,1,.47,0l4.22,2.05c1.54.74,1.46,3,.17,4.09-1.49,1.28-4.23,4.07-11.61,7.27C96.39,353,93.66,353.37,90.32,351.46Z" transform="translate(-20.58 -12.9)"/><path class="cls-7" d="M89.66,348.21c.12-.56-.34-6.16,1.63-7.79,1.1-.91,3.43-1.14,5.08-1.25,3.52-.24,11.31-5.08,14.08-2.05,1.5,1.65.9,4.48.6,5.05-1.31,2.52-11,8.15-13.54,8.84C93.66,352.07,89.12,350.69,89.66,348.21Z" transform="translate(-20.58 -12.9)"/><path class="cls-39" d="M123.86,360.67c.81-5.94,6.18-53.53,4.57-62.65-1.71-9.73-8.87-12.59-14-12.31s-4,24.05-4,24.05l4.52,3.58a47.93,47.93,0,0,0-2.87,13.09c-.53,7.35,2.3,15.87,1.35,35C117.2,365.45,123.8,361.12,123.86,360.67Z" transform="translate(-20.58 -12.9)"/><path class="cls-39" d="M104.32,298.71c-.64,17.87-3,43.59-3,43.59-1.34,3-9.77,4-12.13,1.45,1.47-13.26.53-14.64.46-25.08a105.15,105.15,0,0,1,1.93-19.85Z" transform="translate(-20.58 -12.9)"/><path class="cls-39" d="M115.55,286s-2.57-.86-9.73,1.72S58,306.61,58,306.61l-18-9.49c-4.15,32.6,11,33.09,18.9,35.92,3.74,1.35,30.32-6.68,36.9-9.25s19.75-11.45,19.75-11.45C122.91,304.08,122.12,295.24,115.55,286Z" transform="translate(-20.58 -12.9)"/><path class="cls-25" d="M61.07,216.93c20.17,5.43,25.71,17.21,25.71,17.21,2.31,30.94,1.69,48.76,1.27,66.14,0,2.15-5.85,6.23-7.78,7.16-3.72,1.78-6.2,5.29-13.91,4.37-12.65-1.52-21.42-7.89-23.94-10.22A14,14,0,0,1,37.73,292c-.3-10.58-1-33.36,2.08-58.18C39.81,230,43.35,212.15,61.07,216.93Z" transform="translate(-20.58 -12.9)"/><path class="cls-50" d="M78,230.76c3.07-.93,8.42,1.61,10.18,4.3,1.31,1.57,2.6,3.16.09,2.53v35c-5.9-7.41-11.18-20.6-16-29.56C69.74,238.35,72.85,232.32,78,230.76Z" transform="translate(-20.58 -12.9)"/><path class="cls-49" d="M108,268.65s26.18-11.72,30.16-15.54l2.93,4.49S129.27,273.21,109.75,279Z" transform="translate(-20.58 -12.9)"/><path class="cls-25" d="M104.85,259c1.19,4.74,3.27,5.93,6.09,4.78,7.7-3.15,20.56-8.12,23.72-9.38a10.35,10.35,0,0,1,5,5.36,2.63,2.63,0,0,1-.65,2.66c-3.54,3.59-16.68,16-31.43,18.52Z" transform="translate(-20.58 -12.9)"/><path class="cls-25" d="M107.2,264.8c-2.62-8.62-10.43-19.39-19-29.74-1.76-2.69-7.11-5.23-10.18-4.3-5.14,1.56-8.25,7.59-5.71,12.32,6.81,12.72,18.48,31.46,38.39,38.93C110.67,282,108.36,267,107.2,264.8Z" transform="translate(-20.58 -12.9)"/><path class="cls-49" d="M136.92,254.41s-.86-4.52-.3-5.86c.17-.41.5-1.26,2.31-.18.42.25.45-.91,4.42-2.8.52-.26,2.35.05,2.47,1.22s2.2,1.49,2.34,2.54.79,1,1.42,1.72c.42.46-.22,1.34,0,1.8a2.46,2.46,0,0,1-.08,1.66c-.7,1.17-5.48,3.55-8.75,3.43S136.92,254.41,136.92,254.41Z" transform="translate(-20.58 -12.9)"/><path class="cls-7" d="M39.77,370.25l13.52-10.18a3,3,0,0,0-.2-4.88L41.61,348s.24-1.45,2.6-1.63c2.18-.17,16.8,5.62,19,6.49a12.64,12.64,0,0,1,4.92-.38l0-.07s15.43-6.17,18.05-5.52a3.83,3.83,0,0,1,3,2.81L78.89,354.8a3,3,0,0,0-.46,5L93.31,371a2.51,2.51,0,0,1-.79,3.68h0a2.51,2.51,0,0,1-2.94-.36l-17-7.88a16.71,16.71,0,0,0-14.15.06l-14.9,7a2.5,2.5,0,0,1-3.73-3.31Z" transform="translate(-20.58 -12.9)"/><path class="cls-22" d="M64,355.41c0,.78,1.17,1.42,2.62,1.42s2.61-.64,2.61-1.42S68.05,354,66.61,354,64,354.62,64,355.41Z" transform="translate(-20.58 -12.9)"/><rect class="cls-22" x="63.98" y="336.2" width="5.24" height="19.2" transform="translate(112.62 678.69) rotate(180)"/><path class="cls-2" d="M72,330l36-12.84S96.85,331,85.72,335.36s-19.62,4-26.27,2.47a45.69,45.69,0,0,1-16.84-8.19Z" transform="translate(-20.58 -12.9)"/><path class="cls-2" d="M20.89,268c1.25,13.75,3.82,40.54,5,46.58,1.37,6.87,13.67,15.55,24.26,19.91,5.85,2.41,17.56,2.28,25.39-5.82,0,0-9.2.62-9.2-10.59,0-8.65-.36-26.15.46-36.72s.41-19-8.65-26c-13-9.95-25.12-14.74-29.93-12.35C21.9,246.22,19.7,254.91,20.89,268Z" transform="translate(-20.58 -12.9)"/><path class="cls-22" d="M92.88,327.11l5.69-2.31a11.53,11.53,0,0,0,7.17-10.67V283.58h-3.68v30.55a7.84,7.84,0,0,1-4.88,7.26l-2.28.93a3.67,3.67,0,0,0-2,4.79Z" transform="translate(-20.58 -12.9)"/><path class="cls-22" d="M107.56,291.35c3.44-1.77,7.82-3.29,5.63-6.59-2-3.09-7.28-4.39-12.22-3.71-5.92.83-37,21.63-39.33,24.51s-1.65,6.73.82,8.24,5.22,1.37,8.38,0S103,293.68,107.56,291.35Z" transform="translate(-20.58 -12.9)"/><path class="cls-2" d="M107.56,289.09c3.44-1.77,7.82-3.29,5.63-6.59-2-3.09-7.28-4.39-12.22-3.71-5.92.83-37,21.63-39.33,24.51s-1.65,6.73.82,8.24,5.22,1.37,8.38,0S103,291.42,107.56,289.09Z" transform="translate(-20.58 -12.9)"/><path class="cls-15" d="M142.05,173.39A253.14,253.14,0,0,1,124.34,153a240.48,240.48,0,0,0-6.54-29.18c.27-.13.53-.25.79-.39a1.07,1.07,0,0,0,.54-1.09l-.54-3.72a1,1,0,0,0-1.14-.88l-3.93-16.11c-.66-3.33-2.83-7.3-6.21-7.61-5.66-.51-10.8,6.06-9.63,11.62.54,2.58,2,10.17,2.9,14.57a1.07,1.07,0,0,0-.47,1l.69,3.89a1,1,0,0,0,.89.88l.41.06a137.34,137.34,0,0,0,9,27l.07.05c7.13,12.55,18.57,20.31,25,24C138.36,176,141,175.1,142.05,173.39Z" transform="translate(-20.58 -12.9)"/><path class="cls-3" d="M163.79,182.14c0-.62-2.95-3.61-4.29-5.86,1.38.54,2.77.95,2.6.32-.41-1.51-4.71-3.73-6-4.37a2.85,2.85,0,0,0-.58-.29c-1-.36-4,1-7.18.24a213.87,213.87,0,0,1-21.25-21.4c-4.47-.87-13.11.79-13.11.79,10.48,16.48,28.92,24,31.1,25,1.93,1.28,7.08,6.2,8.1,6.72,1.45.74,4.23-.21,4.94-.17S163.71,183.31,163.79,182.14Z" transform="translate(-20.58 -12.9)"/><path class="cls-3" d="M127.61,153.38c-1.9-11.37-9.36-37.15-15.08-46.76-1.62-2.72-3.4-4.74-6.58-4.36a6.9,6.9,0,0,0-5.76,8.09A142.72,142.72,0,0,0,114,151.59C114,151.71,123.87,156.63,127.61,153.38Z" transform="translate(-20.58 -12.9)"/><path class="cls-16" d="M119.38,119.13l-5.7-19c-.83-3.29-3.21-7.15-6.6-7.28-5.67-.22-10.47,6.61-9,12.1,1,3.67,4.46,17.63,4.46,17.63A34.64,34.64,0,0,0,119.38,119.13Z" transform="translate(-20.58 -12.9)"/><path class="cls-5" d="M101.3,120.37l.89,3.85a1.06,1.06,0,0,0,.93.84c2.44.22,10.16.53,16.75-3.45a1.06,1.06,0,0,0,.48-1.12l-.73-3.69a1.06,1.06,0,0,0-1.39-.8c-2.77,1-10,3.3-15.87,3.1A1.05,1.05,0,0,0,101.3,120.37Z" transform="translate(-20.58 -12.9)"/><path class="cls-3" d="M186.72,199c.68.13,1.41.83,1.65,2.2a2.42,2.42,0,0,1-.8,2.21,2,2,0,0,1,1.16,2,3.89,3.89,0,0,1-.87,1.79,4.38,4.38,0,0,1,.93,1.49,1.87,1.87,0,0,1-.86,1.5c-.79.45-3,.73-2.68-2.45.12-1.07-1.16-2-.86-3.41.24-1.16.79-1.25.81-2.12s-.54-1.07-.41-2.06S186.17,198.86,186.72,199Z" transform="translate(-20.58 -12.9)"/><polygon class="cls-52" points="182.93 106.24 183.76 105.74 182.93 104.53 182.93 106.24"/><polygon class="cls-5" points="173.29 80.97 174.75 80.12 174.37 78.63 173.29 79.26 173.29 80.97"/><path class="cls-52" d="M194.53,112.39a1.3,1.3,0,0,0,.65,1.13l8.64,5.08a.58.58,0,0,0,.88-.5V97.78a1.29,1.29,0,0,0-.64-1.13l-8.58-5.05a.63.63,0,0,0-.95.54Z" transform="translate(-20.58 -12.9)"/><path class="cls-5" d="M203,97.1l-.53-.33-7.93-2.61v-2a.63.63,0,0,1,.95-.54l8.58,5.05h0a.27.27,0,0,1,0,.48l-.08,0A1,1,0,0,1,203,97.1Z" transform="translate(-20.58 -12.9)"/><path class="cls-44" d="M193.62,112.93a1.33,1.33,0,0,0,.65,1.13l8.64,5.08a.58.58,0,0,0,.88-.51V98.31a1.32,1.32,0,0,0-.64-1.13l-8.6-5.05a.62.62,0,0,0-.93.53Z" transform="translate(-20.58 -12.9)"/><path class="cls-53" d="M194.43,112.42l8.63,5a.11.11,0,0,0,.17-.09V99.19a.38.38,0,0,0-.2-.33l-8.56-5a.15.15,0,0,0-.23.13v18.07A.37.37,0,0,0,194.43,112.42Z" transform="translate(-20.58 -12.9)"/><polygon class="cls-7" points="183.32 92.65 184.07 92.25 184.07 91.97 183.32 92.38 183.32 92.65"/><polygon class="cls-7" points="183.32 93.27 184.07 92.86 184.07 92.58 183.32 92.99 183.32 93.27"/><polygon class="cls-7" points="183.32 93.88 184.07 93.48 184.07 93.2 183.32 93.61 183.32 93.88"/><polygon class="cls-7" points="183.32 94.5 184.07 94.09 184.07 93.82 183.32 94.22 183.32 94.5"/><polygon class="cls-7" points="183.32 95.11 184.07 94.71 184.07 94.43 183.32 94.84 183.32 95.11"/><path class="cls-53" d="M204.19,104.1l.26-.15a.08.08,0,0,0,0-.08v-1.81a.09.09,0,0,0-.13-.08l-.26.16a.08.08,0,0,0,0,.07V104A.09.09,0,0,0,204.19,104.1Z" transform="translate(-20.58 -12.9)"/><polygon class="cls-53" points="183.51 91.2 183.63 91.28 183.63 91.05 183.51 90.98 183.51 91.2"/><polygon class="cls-53" points="183.87 89.31 183.98 89.38 183.98 89.16 183.87 89.08 183.87 89.31"/><path class="cls-54" d="M204.3,104.18l.26-.16a.08.08,0,0,0,.05-.07v-1.82a.09.09,0,0,0-.14-.07l-.26.15s0,0,0,.08v1.81A.09.09,0,0,0,204.3,104.18Z" transform="translate(-20.58 -12.9)"/><path class="cls-14" d="M189.77,108.16s.73-3.88,2.83-5.79c1.27-1.16,3.33-.78,4.61-1.23a.7.7,0,0,1,.87.93l-4.6,5.37Z" transform="translate(-20.58 -12.9)"/></svg>