<svg id="OBJECTS" xmlns="http://www.w3.org/2000/svg" xmlns:xlink="http://www.w3.org/1999/xlink" viewBox="0 0 453.31 325.52"><defs><style>.cls-1,.cls-11,.cls-12,.cls-14,.cls-20,.cls-27{fill:none;}.cls-2{fill:#eff0f0;}.cls-3{fill:#00b94e;}.cls-4{fill:#bfc4c4;}.cls-5{fill:#b57053;}.cls-6{fill:#da5955;}.cls-7{fill:#393762;}.cls-8{fill:#e69d35;}.cls-9{fill:#f2957e;}.cls-10{fill:#f6ba99;}.cls-11,.cls-12,.cls-14{stroke:#333;}.cls-11,.cls-14,.cls-20,.cls-27{stroke-linecap:round;}.cls-11,.cls-12,.cls-14,.cls-20,.cls-27{stroke-miterlimit:10;}.cls-11,.cls-12,.cls-20{stroke-width:0.5px;}.cls-13{fill:#333;}.cls-14{stroke-width:0.75px;}.cls-15{fill:#82819c;}.cls-16{fill:#e9a94d;}.cls-17{fill:#68addb;}.cls-18{fill:#7eb9f5;}.cls-19{fill:#fff;}.cls-20,.cls-27{stroke:#393762;}.cls-21{fill:#005d8e;}.cls-22{clip-path:url(#clip-path);}.cls-23{fill:#eeb3b1;}.cls-24{fill:#1d1d1d;}.cls-25{fill:#bfbfc0;}.cls-26{fill:#c2defa;}</style><clipPath id="clip-path" transform="translate(-8.75 -13.52)"><path class="cls-1" d="M147.55,37.71,27.07,49.66l4.33,94.46a7.52,7.52,0,0,1,.85-3.34c3.55-6.77,12.58-7.1,16.45-9s2.9-6.45,0-11,1.29-13.23,9-16.78A18.42,18.42,0,0,1,72,103.56a4.81,4.81,0,0,1,1.52,0,15.41,15.41,0,0,1,7.4,2.12,12,12,0,0,1,1.15.75c.22.16.4.32.6.49l.37.31a9.51,9.51,0,0,1,.71.71l.1.11a13.75,13.75,0,0,1,3.1,9.88c-.41,1,3.41,5,3.21,6.63s-2.21,2.81-2.21,2.81-1.61,6.23-3.62,9c-.89,1.25-2.49,1.43-4,1.24a12,12,0,0,1-1.85,5.72,21.8,21.8,0,0,1,3.72,1.09l10.9,70.82L143.56,210,156.85,64.72Z"/></clipPath></defs><title>forgotp</title><path class="cls-2" d="M383.48,283.11c31.26-17.95,53.65-55.15,62-89.41,14.95-61.38-.79-128.27-41.71-138.5S352.62,89,281,60.71C243.85,46,202.38,16.3,160,25.8,105.24,38.08,128,91,111.83,129.17,95,168.83,9.16,176.63,30.49,233.43c12.72,33.86,57.39,50.76,90.78,50.76,47.22,0,74.76-29.11,129.84-18.88,25.71,4.77,47.35,19.21,72.26,25.91C345.6,297.2,365.94,293.19,383.48,283.11Z" transform="translate(-8.75 -13.52)"/><path class="cls-3" d="M387.31,146.29s-7.32,7.36-11.13,9.14S365,163.29,365,163.29l2.54,10.41s11.92-5.33,16-5.33,8.12-3.05,8.12-3.05S390.82,146,387.31,146.29Z" transform="translate(-8.75 -13.52)"/><ellipse class="cls-4" cx="404.22" cy="307.99" rx="49.09" ry="10.86"/><ellipse class="cls-4" cx="331.64" cy="306.75" rx="21.09" ry="4.66"/><path class="cls-5" d="M412,100.38a11.91,11.91,0,0,1,8.83-.22c5.17,1.72,6.89,5.39,7.11,9.7a16.6,16.6,0,0,0,2.8,9c1.51,2.37,1.72,4.1,1.72,11.42S428.59,140,429,142.38s8.4,5.39,9.69,11.42-3.45,7.76-4.09,11.2,1.5,6,.43,9.91-4.74,8.83-12.71,9.26S407,170.6,401,163.71s-10.77-13.79-9.91-20.25,5.6-6.89,5.6-11.63-4.95-8.4-3-13.57,3.66-4.74,4.74-9.91S403.81,100.59,412,100.38Z" transform="translate(-8.75 -13.52)"/><path class="cls-6" d="M384.48,196.73s-6.73,42.85-5.72,56,15.58,59.34,15.58,59.34-9.63,5.73-9.86,8c-.39,3.93,15.14-3.22,15.65-6.25s-6.09-45.68-4.65-57.9c.46-3.89,2.25-13.18,2.75-16.72s3.92-18.92,3.92-18.92,7.94,34.11,11,40.68,12.36,23.7,21.31,39.18a77.3,77.3,0,0,1,5.13,11.34s-.58,14.13,1.52,15c3.53,1.42,4-13.15,4-14.66s-3.49-9.18-7-25.87-9.34-24.68-9.85-30.24-1.22-47.21-4.3-56.47S388,188.83,384.48,196.73Z" transform="translate(-8.75 -13.52)"/><path class="cls-7" d="M400.13,313.83v-.05a12.58,12.58,0,0,1-5.79-1.72s-9.63,5.73-9.86,8C384.09,324,399.62,316.86,400.13,313.83Z" transform="translate(-8.75 -13.52)"/><path class="cls-7" d="M439.56,311.49s-.58,14.13,1.52,15c3.53,1.42,4-13.15,4-14.66C440.89,314.4,439.56,311.49,439.56,311.49Z" transform="translate(-8.75 -13.52)"/><path class="cls-8" d="M423.83,198.55c-2-10.71-3.28-12.46-3.28-13.77S424.7,164,424.7,164s9.14-2.82,4.15-16c-1.38-3.66-14-7.22-17.49-7.87s-12.24.44-12.24.44-10.5,3.93-11.81,5.68,0,8.31,0,11.15.44,2.85,0,3.94-2.62,3.06-2.41,7.43,2.63,8.53,2.85,11.37c.16,2.13-1.51,8.16-3.27,16.55,3.18,2,8.71,4.29,17.26,4.66a87.28,87.28,0,0,0,22.2-2.16C423.9,199,423.87,198.77,423.83,198.55Z" transform="translate(-8.75 -13.52)"/><path class="cls-9" d="M404.15,127.6s.65,2-1.53,7.87-1.75,16.18.87,15.31,7.65-10.72,8.31-15.09,1.31-9.84,1.31-9.84Z" transform="translate(-8.75 -13.52)"/><path class="cls-10" d="M422.54,119.28s-.31.55-1.28-7.49c-1.08-9-7.07-8.68-14.43-9-4.31-.22-4.46,3.64-5.6,8s-2.16,9.26-2.16,9.26a13.17,13.17,0,0,0-1.5,5,29.53,29.53,0,0,0,3,10.56c.65,1.08,1.72,1.94,4.31,1.94,8.83-1.51,14-10.19,14-10.19s2.5,2,5-1.59S426.41,118.14,422.54,119.28Z" transform="translate(-8.75 -13.52)"/><line class="cls-11" x1="394.58" y1="115.88" x2="395.66" y2="116.43"/><path class="cls-5" d="M407,107.92s-3.23-1.94-5,.21-1.51,6.25-2.16,7.54-2.58,4.09-2.58,4.09,1.29-4.3.22-7.75-1.94-8.83,1.5-11.63,11.2-1.3,13.79.86S407,107.92,407,107.92Z" transform="translate(-8.75 -13.52)"/><path class="cls-5" d="M407,107.92s3.23-.22,4.74,4.52,3.66,11.42,6.9,13.79,3.44,3,1.93,6.89-3,5.39-2.15,8.4,8,3.88,8,3.88-3-4.09-1.72-6.89,5.6-8.41,4.52-13.14-5.6-5.61-5.17-8.84,3.66-8,1.51-11.84-7.11-2.81-9.48-3.88S408.12,99.08,407,107.92Z" transform="translate(-8.75 -13.52)"/><path class="cls-5" d="M407,107.92s-.64,5.38,1.94,8.4a6.32,6.32,0,0,0,6,2.15s-5.38-1.29-5.17-6.46-1.72-7.11-1.72-7.11Z" transform="translate(-8.75 -13.52)"/><path class="cls-5" d="M405.75,107.7s-1.29-.65-2.8,1.72-1.72,4.31-2.8,5.61-3.88,1.5-3.88,1.5,2.59-.86,3.23-4.74,2.59-6,5.17-6" transform="translate(-8.75 -13.52)"/><path class="cls-5" d="M396.49,106s1.94,4.31.21,6.24a6.26,6.26,0,0,1-4.3,1.94,5.93,5.93,0,0,0,3.87,2.37c2.37.22,5-5.17,5-5.17" transform="translate(-8.75 -13.52)"/><path class="cls-12" d="M405.67,122.36s0,2.13-1.5,2.34.64,1.93.64,1.93" transform="translate(-8.75 -13.52)"/><path class="cls-13" d="M411.33,123.56c-.19.94-.64,1.64-1,1.57s-.47-.9-.27-1.84.64-1.64,1-1.57S411.53,122.62,411.33,123.56Z" transform="translate(-8.75 -13.52)"/><path class="cls-13" d="M403.64,121.18c-.2.94-.64,1.64-1,1.57s-.47-.9-.27-1.84.64-1.64,1-1.57S403.84,120.24,403.64,121.18Z" transform="translate(-8.75 -13.52)"/><path class="cls-14" d="M401.51,117.42s1.92-2,3.5.23" transform="translate(-8.75 -13.52)"/><path class="cls-14" d="M410,119.34a2,2,0,0,1,2.93,1.24" transform="translate(-8.75 -13.52)"/><path class="cls-10" d="M355.28,136.15s-2.18,16.24-1.21,24.72,6.79,11.63,9.69,9.45,2.67-13.81,1.22-21.08-2.67-12.36-3.88-14.54S356.25,131.31,355.28,136.15Z" transform="translate(-8.75 -13.52)"/><path class="cls-10" d="M339.23,134.22s5.87,3.15,9.27,3.63,10.42-1.94,10.42-1.94a12.53,12.53,0,0,0-6.06-1.94c-3.15,0-10.42-1.45-11.87-1.45S339.23,134.22,339.23,134.22Z" transform="translate(-8.75 -13.52)"/><path class="cls-15" d="M322,209.33v-6.27c0-32.25,40.84-33.65,40.84-56.62,0-10-8.13-16.47-20.19-16.47-13.23,0-21.58,7.19-21.58,17.4v2.55c0,2.55-1.39,3.71-3.95,3.71l-24.82-.92c-2.32,0-3.95-1.16-3.95-2.79v-2.55c0-28.08,22.28-47.34,55-47.34,32,0,52.68,18.1,52.68,45.25,0,38.52-41.54,38.75-41.54,59.87v4.18c0,2.55-1.39,3.94-3.94,3.94h-24.6C323.34,213.27,322,211.88,322,209.33Zm-2.09,37.35c0-10.21,9.05-18.56,19.95-18.56,10.45,0,19.73,8.35,19.73,18.56s-9.28,18.57-20,18.57C328.68,265.25,319.86,256.89,319.86,246.68Z" transform="translate(-8.75 -13.52)"/><path class="cls-7" d="M322,212.38v-6.27c0-32.25,40.84-33.65,40.84-56.62,0-10-8.13-16.47-20.19-16.47-13.23,0-21.58,7.19-21.58,17.4V153c0,2.55-1.39,3.71-3.95,3.71l-24.82-.92c-2.32,0-3.95-1.16-3.95-2.79v-2.55c0-28.08,22.28-47.34,55-47.34,32,0,52.68,18.1,52.68,45.25,0,38.52-41.54,38.75-41.54,59.87v4.18c0,2.55-1.39,3.94-3.94,3.94h-24.6C323.34,216.32,322,214.93,322,212.38Zm-2.09,37.35c0-10.21,9.05-18.56,19.95-18.56,10.45,0,19.73,8.35,19.73,18.56s-9.28,18.57-20,18.57C328.68,268.3,319.86,259.94,319.86,249.73Z" transform="translate(-8.75 -13.52)"/><path class="cls-10" d="M429.21,150.43s-1.89-4.31-7.54-2.15-12.93,17.23-19.93,20.2-23.17,10.23-27.48,13.19-23.7,9.16-23.7,9.16L345.71,189s-4.28-1.53-4.44-.64,1.54,2.17,3.4,2.91l-3,.35c-1.35.14-2.72.08-4.06.26a3.07,3.07,0,0,0-1.69.49c-.48.48-.48,1.33.33,1.33,1.35,0,5.18.4,5.18.4l-5,1a1.09,1.09,0,0,0,.52,2.11s10.39-2.39,2.05.53c-1.1.38-2,.65-1.7,1.78.47,1.71,5.82-.76,7-1.06-.87.39-1.73.81-2.58,1.25-.4.21-1.54.58-1.69,1-.26.72.84,1.33,1.44,1.16a8.42,8.42,0,0,0,1.3-.67l4-2.08,7.41-3.83c6.8-1.63,24.16-5.73,30.6-6.59,8.08-1.08,20.47-5.93,24.78-7.81s15.08-13.47,18.58-19.13A13.09,13.09,0,0,0,429.21,150.43Z" transform="translate(-8.75 -13.52)"/><path class="cls-16" d="M428.13,161.74a13.09,13.09,0,0,0,1.08-11.31s-1.89-4.31-7.54-2.15-12.93,17.23-19.93,20.2c-5.39,2.28-16.17,7.1-22.83,10.55l3.24,10.06c1-.17,1.88-.31,2.62-.41,8.08-1.08,20.47-5.93,24.78-7.81S424.63,167.4,428.13,161.74Z" transform="translate(-8.75 -13.52)"/><path class="cls-10" d="M340.88,130.24s-2.89,3.62-1.65,4,2.69-3.07,2.89-3.8S341.71,129.7,340.88,130.24Z" transform="translate(-8.75 -13.52)"/><path class="cls-10" d="M343.17,129.37s-3.4,4.85-1.94,5.33,3.15-4.12,3.39-5.09S344.14,128.64,343.17,129.37Z" transform="translate(-8.75 -13.52)"/><path class="cls-10" d="M345.1,129.61s-3.39,4.85-1.93,5.33,3.15-4.12,3.39-5.09S346.07,128.88,345.1,129.61Z" transform="translate(-8.75 -13.52)"/><path class="cls-10" d="M347,130.58s-3.39,4.85-1.94,5.33,3.16-4.12,3.4-5.09S348,129.85,347,130.58Z" transform="translate(-8.75 -13.52)"/><ellipse class="cls-4" cx="100.36" cy="316.42" rx="21.09" ry="4.66"/><path class="cls-7" d="M72.25,103.68a18.33,18.33,0,0,0-14.52.32c-7.74,3.55-11.93,12.26-9,16.78s3.87,9,0,11-12.9,2.26-16.45,9,5.16,15.81,5.16,19.68S32.25,164,30,172.08s1.29,16.77,17.42,17.74S69,177.24,70.64,170.46s-2.26-17.1,1-20S80,144,80.32,137.56s-4.2-17.42-4.52-23.23-.32-8.07-.32-8.07l-1.94-1.93Z" transform="translate(-8.75 -13.52)"/><path class="cls-17" d="M84.23,146.63s1.56-1.22,3.75,2.58,7.34,17.84,10.75,22.38,7.79,10.48,7.79,10.48-4.73,1.8-7.12,4.67-2.69,4.19-2.69,4.19a61.74,61.74,0,0,1-9-13.89,118.64,118.64,0,0,1-7.09-25.15c-.68-5.22,2.88-5.9,2.88-5.9Z" transform="translate(-8.75 -13.52)"/><ellipse class="cls-4" cx="52.66" cy="308.48" rx="52.66" ry="10.12"/><path class="cls-10" d="M46.14,243.13s1.21,8,.6,9-8.29,12.75-11.1,20.59S26.25,303.39,25,308.42s-4.42,9.24-3.61,11.45,12,9.64,13.66,9.44.8-2.41-.61-6-5.62-8.24-5.22-11.45,14.26-28.33,19.09-35.16,7.43-13.46,9.84-19.08a104.82,104.82,0,0,0,4.42-14.46Z" transform="translate(-8.75 -13.52)"/><path class="cls-7" d="M30.58,316.31l-3.93,1.75-3.3-4.84c-1.24,2.86-2.45,5.19-1.92,6.65.8,2.21,12,9.64,13.66,9.44s.8-2.41-.61-6C33.65,321.14,31.84,318.65,30.58,316.31Z" transform="translate(-8.75 -13.52)"/><path class="cls-10" d="M75.87,245.13A43.52,43.52,0,0,1,77,255.61c0,6.23,4.25,24.48,4.45,33.12S83.7,307,83.1,310.63s-.4,5,.2,5.22,19.08,1,20.29,0,2.41-.6,1.41-2-15.67-8-15.67-9.64,0-26.12.4-36,1.41-19.69.6-24.11S75.87,245.13,75.87,245.13Z" transform="translate(-8.75 -13.52)"/><path class="cls-18" d="M64.42,143.89S51,146.3,50.76,147.5s2.81,21.9,4.82,27.12,1.81,5.23.8,10.25-7,12.45-9.64,26.31-3,33.15-3,33.95,8.84,5,24.71,4,22.91-3.81,23.71-5.22-4.62-40.58-6.23-47.21S82.5,181.25,83.7,178s3.62-6,3.82-10.45-3.42-10.85-3.22-13.86,2.62-4.22,1.21-6.83-8-4-11.85-4A63,63,0,0,0,64.42,143.89Z" transform="translate(-8.75 -13.52)"/><path class="cls-19" d="M69.84,139.67s-5.62.6-7,2.81,0,12.46,1,14.66,6.23-4.62,8.24-4.62,5.42,4.22,6.63,2.62S79.68,142.48,69.84,139.67Z" transform="translate(-8.75 -13.52)"/><path class="cls-10" d="M86.92,118s1-8.24-6-12.25-14.26-2-19.09,3.21S59.39,126,61,129s5.83,3.82,6.83,5.83.4,4.42-.6,7.43,3.21,10.24,4.82,10.24,1.61-6,2.61-9.44,2-6.43,2-6.43,5.63,2.62,7.63-.2,3.62-9,3.62-9,2-1.2,2.21-2.81S86.51,119,86.92,118Z" transform="translate(-8.75 -13.52)"/><path class="cls-7" d="M85.68,120.14c0,1.06-.35,1.92-.78,1.92s-.78-.86-.78-1.92.35-1.91.78-1.91S85.68,119.09,85.68,120.14Z" transform="translate(-8.75 -13.52)"/><path class="cls-7" d="M85.73,130c-.24,1-.78,1.78-1.19,1.68s-.56-1-.32-2,.77-1.78,1.19-1.69S86,129,85.73,130Z" transform="translate(-8.75 -13.52)"/><path class="cls-20" d="M82.78,116.88s.21-1.65,1.34-2S86,116,86,116" transform="translate(-8.75 -13.52)"/><path class="cls-7" d="M80.89,105.72c-7-4-15.12-1.75-19.94,3.47a9,9,0,0,0-.66.84c-4.33,9-1.7,14-1.7,14a14.51,14.51,0,0,0,2,5.24c1.24,2.33,4.48,3.14,6.16,4.4,1.7-1.16,1.76-3.07,2.93-5.4a50.51,50.51,0,0,1,3.21-6c1-1.41-3.21-3.62,1.41-9.44,3.14-4,7.67-4.11,10.25-3.81A11.35,11.35,0,0,0,80.89,105.72Z" transform="translate(-8.75 -13.52)"/><path class="cls-21" d="M74.05,103.79s-9.56,5.22-6.81,19c0,0-6.22-9.85,1.89-18.39C69.13,104.37,72.31,102.92,74.05,103.79Z" transform="translate(-8.75 -13.52)"/><path class="cls-10" d="M72.05,125.2s-3-5-5.83-1.6,1.21,6.63,2.21,7,4.62-1.21,4.62-1.21" transform="translate(-8.75 -13.52)"/><path class="cls-5" d="M83.58,184.83a43.83,43.83,0,0,1-12.73,2.85c-7.74.76-12.26-1-14.56-2.47-1.19,5-7,12.42-9.55,26-2.61,13.87-3,33.15-3,33.95s8.84,5,24.71,4,22.91-3.81,23.71-5.22-4.62-40.58-6.23-47.21A113.41,113.41,0,0,1,83.58,184.83Z" transform="translate(-8.75 -13.52)"/><path class="cls-19" d="M108.51,181s-2.48-3.31-5.69-2.1-8.1,8.23-7.27,11.54,2.58,3.71,4.82,3.56,9.11-5.79,9.8-8.86A3.5,3.5,0,0,0,108.51,181Z" transform="translate(-8.75 -13.52)"/><path class="cls-10" d="M122.74,201.13s-11.38-12.19-13-14.21-3.6-3-6.45-1.45-4,5.54-1.88,7.91,19.18,11.45,19.18,11.45.61,3.17,2.93,3.9a14.35,14.35,0,0,0,5.55.21s5.08-2.74,4.73-3.91-.61-2.67-.61-2.67l-9.57-.93Z" transform="translate(-8.75 -13.52)"/><path class="cls-7" d="M92.62,306.78l-1.69,5.05-7.94-.5c-.45,3.08-.25,4.33.31,4.52s19.08,1,20.29,0,2.41-.6,1.41-2C104.3,312.86,97,309.36,92.62,306.78Z" transform="translate(-8.75 -13.52)"/><g class="cls-22"><path class="cls-23" d="M92.88,157.73l-1.59-6.06c-8.22-31.19,30.92-42.94,25.07-65.16-2.54-9.65-12-13.86-23.72-10.79-12.79,3.37-19,12.46-16.43,22.33l.65,2.47c.65,2.47-.4,3.94-2.87,4.59l-24.25,5.43c-2.24.59-4.11-.12-4.52-1.69l-.65-2.47C37.42,79.23,54.05,54.94,85.69,46.6c31-8.16,55.55,4.09,62.46,30.34,9.81,37.25-30.29,48.05-24.91,68.47l1.06,4c.65,2.47-.34,4.17-2.81,4.82L97.7,160.53C95.24,161.18,93.54,160.19,92.88,157.73Zm7.5,36.65c-2.6-9.87,4-20.25,14.57-23,10.1-2.66,21.2,3.05,23.8,12.93s-4.24,20.31-14.56,23C113.64,210.09,103,204.26,100.38,194.38Z" transform="translate(-8.75 -13.52)"/><path class="cls-6" d="M92.88,159.63l-1.59-6.06c-8.22-31.19,30.92-42.94,25.07-65.15-2.54-9.65-12-13.86-23.72-10.79C79.85,81,73.61,90.08,76.21,100l.65,2.46c.65,2.47-.4,4-2.87,4.6l-24.25,5.43c-2.24.59-4.11-.12-4.52-1.69l-.65-2.47c-7.15-27.15,9.48-51.45,41.12-59.78,31-8.16,55.55,4.08,62.46,30.33,9.81,37.25-30.29,48.06-24.91,68.48l1.06,4c.65,2.46-.34,4.16-2.81,4.81L97.7,162.44C95.24,163.09,93.54,162.1,92.88,159.63Zm7.5,36.66c-2.6-9.87,4-20.26,14.57-23,10.1-2.66,21.2,3.06,23.8,12.93s-4.24,20.32-14.56,23C113.64,212,103,206.16,100.38,196.29Z" transform="translate(-8.75 -13.52)"/></g><path class="cls-10" d="M106.51,200.91s5.52-.75,7.1-.75,9.06,1.47,6.7,2.6-5.92,0-5.92,0a10.55,10.55,0,0,1,4,3.12c1.56,2.11,5.13,3.51,5.13,3.51s-7.52,2.34-11.46,2-9.47-7.47-9.47-7.47Z" transform="translate(-8.75 -13.52)"/><path class="cls-18" d="M50.76,147.5s-3.51,2.71,0,12.83S58.55,181.28,63,186s14.83,10.6,14.83,10.6-.71-8.24,0-9.65a7.75,7.75,0,0,1,1.88-2.36l-.47-1.65a59.61,59.61,0,0,1-8.71-10.82c-3.53-5.89-8.71-15.3-10.83-20S54.26,145.74,50.76,147.5Z" transform="translate(-8.75 -13.52)"/><path class="cls-19" d="M86.56,190s0-3.53-2.12-5.17-5-3.3-7.06-2.59-5.18,7.06-4.71,10.12,4.94,5.88,7.06,5.88S86.56,190,86.56,190Z" transform="translate(-8.75 -13.52)"/><path class="cls-10" d="M106.51,200.91s-12.42-7.63-17.84-10.69-7.29-5.41-10.35-1.65-1.89,5.89,3.29,8.71c3.52,1.92,21,6.61,21,6.61Z" transform="translate(-8.75 -13.52)"/><ellipse class="cls-4" cx="223.56" cy="314.66" rx="53.81" ry="10.86"/><path class="cls-7" d="M193.11,205l1,12-5.5,53.5,9.5,47.5s-9.5,10.5-7.5,13,13.5-12,13.5-12l-1.5-47,16-44,22,43,21,46.5s3,10.5,8,11-4-13-4-13l-12-49-19.5-70S209.11,207,193.11,205Z" transform="translate(-8.75 -13.52)"/><path class="cls-24" d="M234.11,196.51s-25,10.5-41,8.5l.24,2.83c4.12,1.87,14.75,6.14,22.26,4.17,7-1.83,15.53-8.23,19.61-11.51Z" transform="translate(-8.75 -13.52)"/><polygon class="cls-25" points="201.3 195.74 202.41 199.38 208.88 198.27 208.09 194.8 201.3 195.74"/><polyline class="cls-7" points="218.51 194.32 217.25 189.11 218.35 188.32 220.41 193.85"/><polyline class="cls-7" points="188.83 196.69 188.19 192.11 189.93 192.43 190.56 197.48"/><path class="cls-10" d="M224.61,130l25.24,12.84a3.36,3.36,0,0,0,4.64-1.73l12.12-29.61,7,2-11.5,40a6.85,6.85,0,0,1-8.82,5l-25.68-6Z" transform="translate(-8.75 -13.52)"/><path class="cls-5" d="M250.52,143.11a3.44,3.44,0,0,1-.67-.26L224.61,130l3,22.5,20.22,4.7Z" transform="translate(-8.75 -13.52)"/><path class="cls-5" d="M195.11,132.51l-19,11,17,61.5s12,6,22,4,19-12.5,19-12.5l-9.5-66.5-23.5,1Z" transform="translate(-8.75 -13.52)"/><path class="cls-10" d="M187,116.4s-4.35-4.68-5-1.34,4,6,5.69,6.36S187,116.4,187,116.4Z" transform="translate(-8.75 -13.52)"/><path class="cls-10" d="M206.88,115s.88-6.33,3.35-4,.15,7.24-1,8.47S206.88,115,206.88,115Z" transform="translate(-8.75 -13.52)"/><path class="cls-9" d="M191.58,126l2.07,11.47,3.41,2.58a7,7,0,0,0,10.3-2l1.69-2.88-2.72-11.5Z" transform="translate(-8.75 -13.52)"/><path class="cls-10" d="M195,96.66s-4.78-1-8.6,5c-3.06,4.81.53,18.72,2.08,24.07a5,5,0,0,0,2.61,3.08l6.59,3.15a4.94,4.94,0,0,0,6.34-1.86l3.75-6.06a4.91,4.91,0,0,0,.65-3.53l-3.11-16.37a9.26,9.26,0,0,0-7.94-7.48A10.42,10.42,0,0,0,195,96.66Z" transform="translate(-8.75 -13.52)"/><path class="cls-7" d="M199.5,123.18c.19.81,0,1.56-.46,1.67s-1-.47-1.16-1.28,0-1.56.45-1.67S199.3,122.36,199.5,123.18Z" transform="translate(-8.75 -13.52)"/><path class="cls-7" d="M187,116.4a1.67,1.67,0,0,0,1.34-2c-.33-1.67-1.67-4.35-1-7.69s4.68-5.36,4.68-5.36.67,1.34,5,3a21.71,21.71,0,0,0,7,1.68s0,4.35,1,5.69,2.68,3.68,3,1.34-1.34-9.71-1.34-9.71,2.34,0,1-4.35S198,92.64,192,92.64s-13,9.37-11,13a30.15,30.15,0,0,1,2.67,6.36S186,117.07,187,116.4Z" transform="translate(-8.75 -13.52)"/><path class="cls-26" d="M217.64,116.47l1.55-6.07c8-31.25,47.92-22.45,53.63-44.7,2.47-9.67-3.78-18-15.47-21-12.81-3.28-22.69,1.61-25.22,11.5l-.64,2.47c-.63,2.48-2.27,3.26-4.74,2.62l-23.82-7.06c-2.25-.58-3.53-2.11-3.13-3.68l.63-2.47c7-27.2,33.33-40.32,65-32.2,31,8,46.53,30.61,39.79,56.91-9.57,37.31-49.86,27.22-55.1,47.68l-1,4.05c-.64,2.47-2.33,3.47-4.8,2.84l-23.83-6.11C218,120.63,217,118.94,217.64,116.47Zm-11.3,35.67c2.53-9.89,13.38-15.74,23.94-13,10.11,2.59,17,13,14.5,22.88s-13.6,15.68-23.94,13C210.27,172.31,203.8,162,206.34,152.14Z" transform="translate(-8.75 -13.52)"/><path class="cls-18" d="M217.64,119.52l1.55-6.07c8-31.25,47.92-22.45,53.63-44.7,2.47-9.67-3.78-18-15.47-21-12.81-3.28-22.69,1.61-25.22,11.5l-.64,2.47c-.63,2.48-2.27,3.26-4.74,2.62L202.93,57.3c-2.25-.58-3.53-2.11-3.13-3.68l.63-2.47c7-27.2,33.33-40.32,65-32.2,31,8,46.53,30.61,39.79,56.91-9.57,37.31-49.86,27.22-55.1,47.68l-1,4c-.64,2.47-2.33,3.47-4.8,2.84l-23.83-6.11C218,123.68,217,122,217.64,119.52Zm-11.3,35.67c2.53-9.89,13.38-15.74,23.94-13,10.11,2.59,17,13,14.5,22.88s-13.6,15.68-23.94,13C210.27,175.36,203.8,165.08,206.34,155.19Z" transform="translate(-8.75 -13.52)"/><path class="cls-10" d="M273.61,113.51l8.5-8.5,2-14.5s-1,0-4,2-6,9.5-6,9.5-4.5,4-6,5.5a6.34,6.34,0,0,0-1.5,4Z" transform="translate(-8.75 -13.52)"/><polygon class="cls-10" points="196.36 156.49 210.36 152.99 218.86 154.49 217.86 156.99 210.86 156.99 217.36 161.49 224.86 163.49 222.36 165.99 209.86 166.99 198.86 161.49 196.36 156.49"/><path class="cls-10" d="M176.11,143.51l-14.78,36.3a3.74,3.74,0,0,0,4.32,5.05l42.44-9.73-3-5.12-25,.5,2-6Z" transform="translate(-8.75 -13.52)"/><path class="cls-5" d="M180.11,170.51l2-6-6-21-9.49,23.32C175.37,165.79,180.11,170.51,180.11,170.51Z" transform="translate(-8.75 -13.52)"/><ellipse class="cls-7" cx="192.83" cy="115.52" rx="0.73" ry="1.32" transform="translate(-25.58 20.93) rotate(-9.79)"/><path class="cls-7" d="M201.08,114.07c.12.72-.1,1.36-.5,1.43s-.81-.46-.94-1.18.1-1.36.5-1.43S201,113.35,201.08,114.07Z" transform="translate(-8.75 -13.52)"/><path class="cls-27" d="M190.51,111.21s.4-1.46,2.78-1.46" transform="translate(-8.75 -13.52)"/><path class="cls-27" d="M198.37,111.36s1.08-2.25,2.93-1.54" transform="translate(-8.75 -13.52)"/><polyline class="cls-20" points="188.51 98.83 189.96 105.3 188.24 105.7"/><path class="cls-5" d="M204.11,319c-5,1-6-1-6-1s-9.5,10.5-7.5,13S204.11,319,204.11,319Z" transform="translate(-8.75 -13.52)"/><path class="cls-5" d="M261.79,318.1c.72,2.22,3.54,10,7.82,10.41,5,.5-4-13-4-13A6.06,6.06,0,0,1,261.79,318.1Z" transform="translate(-8.75 -13.52)"/></svg>