<svg xmlns="http://www.w3.org/2000/svg" viewBox="0 0 941.57 701.52"><defs><style>.cls-1{fill:#f7f7f7;}.cls-2{fill:#3b455a;}.cls-3{fill:#bcbec0;}.cls-4{fill:#587bc9;}.cls-5{fill:#efbfa5;}.cls-6{fill:#d7e8f4;}.cls-7{fill:#305399;}.cls-8,.cls-9{fill:#1e1e1e;}.cls-8{opacity:0.15;}.cls-9{opacity:0.2;}.cls-10,.cls-17{fill:#7db5db;}.cls-11{fill:#babcbc;}.cls-12{fill:#c6cac9;}.cls-13{fill:#000100;opacity:0.14;}.cls-14{fill:#babcbe;}.cls-15{fill:#5a5a5c;}.cls-16{fill:#2e3849;}.cls-17{opacity:0.3;}.cls-18,.cls-24{fill:#fff;}.cls-18{opacity:0.66;}.cls-19{fill:#ccdfe1;}.cls-20{fill:#a06652;}.cls-21{fill:#aaa;}.cls-22{fill:#67859a;}.cls-23{fill:#474ebb;}</style></defs><title>preset</title><g id="shadow"><path class="cls-1" d="M439.5,612c-27.35.09-54.7.77-82,3.93-10.29,1.19-20.37,3.81-30.69,4.87-20.61,2.11-40.85,6-61.53,7.86-16.65,1.46-33.38,2.32-50,4.18A169,169,0,0,1,167,631.32c-11.44-2.12-22.93-3.32-34.17-6.74-12.58-3.82-26.25-6.55-39.36-6.46-18.69.14-36.89.16-54.78,6.91-6.28,2.37-14,6.26-18.73,11.24-10.92,11.38-12.39,39.78-1.5,51.58,18.36,19.87,57.54,27.67,83.27,28,28.19.4,55.58-1.78,83.82-3.06C211.82,711.64,238,710,264.27,710c53.68.12,107.36,0,160.94-3.73,50.34-3.5,100.8-2.3,151.25-2.3,51.73,0,103.12.43,154.48,7.58,22.38,3.11,45.18,4.2,67.67,6.38,20.14,2,39.49,0,59.56-1.84a138.05,138.05,0,0,0,48.88-13.62c12.12-6,33.71-24.73,37.43-39.1,10.41-40.29-146.78-39.32-170.92-39.23-27,.1-54.21,1-81.19,0-11.35-.45-22.53-2.75-33.61-5.28s-22.15-1.88-33.34-2.94c-46.65-4.41-93.41-3.77-140.21-3.77C470,612.11,454.74,612,439.5,612Z" transform="translate(-11.02 -17.23)"/></g><g id="object"><polygon class="cls-2" points="153.88 651.75 155.78 660.16 173.69 665.3 179.78 655.25 169.88 648.48 151.97 643.34 153.88 651.75"/><polygon class="cls-2" points="104.17 643.76 103.7 652.56 86.71 660.41 78.93 651.14 87.66 642.81 104.17 643.76"/><polygon class="cls-3" points="171.7 392.57 180.05 419.62 176.54 432.21 176.91 432.15 174.46 504.21 169.05 649.3 152.43 649.21 117.39 480.9 115.46 488.8 104.16 645.7 88.89 644.83 59.02 441.44 57.74 400.05 171.7 392.57"/><path class="cls-4" d="M109.79,248.54l19.4-2.22c43.37-5,48.33,55.56,54.9,85.55,9.51,43.42,14.48,88.06,11.67,132.52-13.9-7-32.81-4.91-48.37-5-28.66-.11-58.31,0-85.78,5.28-5.13,1-4-36.23-3.19-43.16q2.55-21.18,5.09-42.37,4.59-38.28,9.19-76.56l.27-2.24a22.44,22.44,0,0,1,2.45-7.86l17-32.16A22.52,22.52,0,0,1,109.79,248.54Z" transform="translate(-11.02 -17.23)"/><path class="cls-5" d="M105.74,184.53a47.38,47.38,0,0,1,4.86-12.3c4.26-7.31,11.55-13.3,20-14.06,15.5-1.4,32.94,8.27,34.42,24.82.93,10.44,2.4,21.64-.57,31.89a28.44,28.44,0,0,1-8.82,14c-3.12,2.55-9.7,3.19-12,6-7.54,9.33,3.35,13.74-10.37,20.1a4.1,4.1,0,0,1-5.12-.53l-5.23-3.43a1.2,1.2,0,0,1-.58-1.64c3.27-14.45-13.32-18.73-17-31.84a52.81,52.81,0,0,1-1.73-21.16A102.21,102.21,0,0,1,105.74,184.53Z" transform="translate(-11.02 -17.23)"/><path class="cls-2" d="M167.08,191.56a1.94,1.94,0,0,0-1.2-3.29c-6.76-.33-14.56-.7-21.16,1.06-3.55.95-3.33,3.59-3.31,7,0,.59,0,1.15,0,1.7-.75,0-1.54,0-2.28,0-2.09,0-4.22,0-6.3.22h0a21,21,0,0,0-1.29-6.11.84.84,0,0,0-.3-.37,1.57,1.57,0,0,0-1.07-.89,71.66,71.66,0,0,0-14.81-2.36c-2.57-.12-7.71-1.08-9.94.73a5.94,5.94,0,0,0-1.56,3.64l-.93-.87-.27-.24c-.09.73-.17,1.47-.2,2.21a3.49,3.49,0,0,1-.16,1c.44.4.87.79,1.33,1.17,0,3.12.62,6.34,1.59,7.59,1.71,2.22,4.64,1.9,7.06,1.95,5.21.09,10.46.24,15.67.11,2.34-.06,3.88.16,4.54-2.43a14.33,14.33,0,0,0,.35-2.38,1,1,0,0,0,.26.06,60,60,0,0,0,6.29-.28,20.47,20.47,0,0,0,2.4-.19,4.18,4.18,0,0,0,3.8,3.22c6.65,1.11,13.55.89,20.26,2a1.64,1.64,0,0,0,1.88-1.77C167.78,200.17,168.75,195.13,167.08,191.56ZM130,197.9c-.49,4.69-2.28,4.94-6.17,4.84-3.46-.09-13.4,1.33-15.6-1.3-1.38-1.64-1.06-3.92-1-6.06-.77-2.53,0-3.73,2.41-3.59,1.25,0,2.5,0,3.75,0a71.08,71.08,0,0,1,16.25,2.47,1.81,1.81,0,0,0,.31.05A24.09,24.09,0,0,1,130,197.9Zm34.57,4.32c-3.53-.55-7.07-1-10.63-1.31-1.95-.16-3.9-.27-5.85-.37-2.53-.12-2.9-.29-3.32-3-.93-6,5.12-5.48,9.07-5.73,2.26-.14,8.45-1.32,10.13.38S164.44,199.89,164.52,202.22Z" transform="translate(-11.02 -17.23)"/><polygon class="cls-5" points="223.06 144.64 234.31 146.36 239.31 128.11 230.47 120.19 220.67 123.08 223.66 131.57 221.55 131.25 219.78 128.79 217.34 130.61 223.06 144.64"/><path class="cls-4" d="M153.42,282.14c-5.23-16.23-8.9-31.52-8.64-31.52,11.71,0,23.43.06,35.14-.28,7.41-.22,18,2.95,22.56-2.81,5.76-7.33,7.59-24,10.43-32.95q4.74-15,9.49-30.07c1.87-5.93,4.85-24.39,10.18-26.17,1.13-.38,15.16,2,15.18,1.7L245,205.82q-1,17.1-2.09,34.21c-1.23,20-6.69,27.72-21.34,41.28S191.45,307,175.9,319.21C169.09,324.57,160,302.61,153.42,282.14Z" transform="translate(-11.02 -17.23)"/><path class="cls-5" d="M779.86,139.61l.13.2c1.88,3-.7,5.25-.64,8.07.06,2.64,4.08,4.56,2.48,7-.68,1-2.48,2.68-3.74,4.63-1.84,2.86-2.67,7.3-2.64,11.22.13,15.37,0,30.77-1.68,46.13a5,5,0,0,0,.14,2.57c.64,1.48,2.08,2,3.47,2.6a110.13,110.13,0,0,1,18.44,10.2c5.16,3.69,9.95,7.77,12.95,13.42s3.69,12.39.56,17.89c-2.34,4.12-6.19,7.13-11,7.08-11.89-.13-18.22-12.42-24.9-20.38-6.31-7.55-11.66-14-17.29-21.67a8.12,8.12,0,0,1-1.6-3,8.29,8.29,0,0,1,.24-3.6c3.37-15,7.05-29.59,7.1-45,0-4.24,1.65-7.76,1.15-11.85-.31-2.61-2.46-4.39-3.14-6.87a20.59,20.59,0,0,1-.94-7.92c1-6.92,10.72-14.41,17.68-12.6A5.63,5.63,0,0,1,779.86,139.61Z" transform="translate(-11.02 -17.23)"/><path class="cls-6" d="M774.42,253.83c-7.06-7.85-13.91-15.89-20.41-24.22a13.15,13.15,0,0,1-2.87-5.15,13.34,13.34,0,0,1,0-4.23,264.44,264.44,0,0,1,6.32-34.78,2,2,0,0,1,.6-1.18,2,2,0,0,1,1-.33c3.62-.46,18.23-4.36,20.52-1.87,2.57,2.79-1.28,10.5-1.78,13.59q-1.35,8.21-2.06,16.49c-.17,1.95-.28,4.06.77,5.72s2.78,2.38,4.46,3.16c9.9,4.58,19,11,28.48,16.38,6.58,3.71,13.68,7,19.88,11.36,12.19,8.53,17.73,10.85,23.15,20.2,5.19,8.95,6.26,21.09-2.23,28.46-8.78,7.62-21.91,5.73-31.42.8-3.93-2-7.09-5.25-10.19-8.41C797.1,278,785.5,266.13,774.42,253.83Z" transform="translate(-11.02 -17.23)"/><path class="cls-5" d="M794.1,662.4c-3,.1-6-.58-8.93-.86-1.54-29.55,1.25-60.52,2.47-90.21l22.77,1.21a265.34,265.34,0,0,0-11.27,48.82C798.79,624,794.54,662.38,794.1,662.4Z" transform="translate(-11.02 -17.23)"/><path class="cls-2" d="M784.25,655.81c-1.87-.33-3,.5-4.23,1.64-.72.67-1.22,1.6-2.09,2.08a6.93,6.93,0,0,1-2.78.67c-5.47.55-18.09.32-11.37,9.48,6.11,8.32,22.32,5,31.68,2.75a3.2,3.2,0,0,0,1.72-.72,4.33,4.33,0,0,0,1-1.86c1.07-3.91,2.53-8.8-2.28-10.44-2.06-.7-4,.66-6.12-.09C788,658.7,786.12,656.15,784.25,655.81Z" transform="translate(-11.02 -17.23)"/><path class="cls-7" d="M770.61,589.15l46.45-.9q18.78-89.43,33.07-179.73c.74-4.66,1.46-9.52.12-14-2.55-8.57-11.72-13.46-20.5-15.1-13.65-2.55-38.72,1-45.72,15.19-7.4,15-6.15,41.78-7.95,58.35A1007.9,1007.9,0,0,0,770.61,589.15Z" transform="translate(-11.02 -17.23)"/><path class="cls-5" d="M882.64,662.4c3,.1,6-.58,8.93-.86,1.54-29.55-1.25-60.52-2.46-90.21l-22.78,1.21a265.34,265.34,0,0,1,11.27,48.82C878,624,882.21,662.38,882.64,662.4Z" transform="translate(-11.02 -17.23)"/><path class="cls-2" d="M892.49,655.81c1.88-.33,3,.5,4.23,1.64.73.67,1.22,1.6,2.1,2.08a6.85,6.85,0,0,0,2.77.67c5.48.55,18.09.32,11.37,9.48-6.1,8.32-22.31,5-31.68,2.75a3.2,3.2,0,0,1-1.72-.72,4.44,4.44,0,0,1-.95-1.86c-1.06-3.91-2.53-8.8,2.29-10.44,2.05-.7,3.94.66,6.11-.09C888.79,658.7,890.62,656.15,892.49,655.81Z" transform="translate(-11.02 -17.23)"/><path class="cls-7" d="M906.13,589.15l-46.45-.9q-18.78-89.43-33.07-179.73c-.74-4.66-1.46-9.52-.11-14C829,385.91,838.21,381,847,379.38c13.65-2.55,38.73,1,45.72,15.19,7.4,15,6.16,41.78,7.95,58.35A1006.27,1006.27,0,0,1,906.13,589.15Z" transform="translate(-11.02 -17.23)"/><path class="cls-6" d="M866.43,262.22a110.68,110.68,0,0,1,27.31,42.71c9.92,27.83,10.11,57.56,10.2,86.68l.09,29.08c0,9.54-.81,11.59-11.18,10.33-19.2-2.33-39.17-6.29-56.57-14.82-8.28-4.06-16-9.19-24.7-12.39-12.63-4.65-25.58-2.55-38.08-5.57,5.43-16.4,9.31-30.37,12.09-47.26,2.87-17.4,5.48-36.37,9.68-53.54,2.52-10.29,7.21-19.92,12-29.39,3.21-6.36,6.6-12.87,12-17.48C835.68,236.72,854.07,250.45,866.43,262.22Z" transform="translate(-11.02 -17.23)"/><path class="cls-5" d="M821.86,217.75c2.59,5.64,6.81,10.35,10.26,15.51s4.55,9.58,5.44,15.4c.65,4.21,2.15,7.5,7.22,8.22,9.56,1.36,6.83-6.54,9-12.29,2.48-6.56,7.78-11.76,11.47-17.62,10.69-16.94,7.64-50.43-14.58-57.57C826.38,161.58,814,200.61,821.86,217.75Z" transform="translate(-11.02 -17.23)"/><path class="cls-2" d="M860.59,201.35c2.76.11,5.79.33,7.84,2.18s1.82,5.9-.88,6.33c-2.45.4-5.62-2.16-7.11-.29-.88,1.09-.11,2.68.55,4a23.21,23.21,0,0,1,2.12,15.77c1,.93,2.58,0,3.47-1a50.8,50.8,0,0,0,10.07-16.54,10.09,10.09,0,0,0,3.7,3.58c-.92-2.28-.34-4.78.23-7.12,2.07-8.57,3.49-18.61-2.5-25.61-3.2-3.75-8.07-5.9-13-6.81s-9.89-.68-14.82-.46c-2.11.09-4.71.55-5.22,2.5,4.63,1.86,9.42,5.48,11.74,9.86C857.52,189,860.31,201.34,860.59,201.35Z" transform="translate(-11.02 -17.23)"/><path class="cls-2" d="M850.8,180.76l.5.37c2.1,1.6,4.07,3.54,6.61,4.25,3.66,1,7.59-.74,11.2.5,4,1.4,6.68,6.22,9.62,9.07A42.74,42.74,0,0,0,896,205a43.35,43.35,0,0,0,10.1,1.8,17.7,17.7,0,0,0,5.14,0c2-.54,2-1.46-.2-2.16-6.79-2.17-8.91-11.7-8.4-18,.4-5,2.12-10.2.22-14.82-1.45-3.54-4.57-5.36-7.58-7.38-3.33-2.23-6.93-1.63-10.71-2.7-3.94-1.12-7.14-4.22-11.16-5-4.24-.84-8.48,1-12.73,1.87a26.3,26.3,0,0,1-10.64-.14c-3.13-.68-6.18-1.95-9.38-1.92-4.72,0-9.06,3-11.82,6.83-3.89,5.42-6.41,14.7-5,21.84-.21-1.11,3.51-5.12,4.28-6,1.62-1.82,3.58-3.53,6.05-3.82C839.67,174.71,846.3,177.49,850.8,180.76Z" transform="translate(-11.02 -17.23)"/><path class="cls-3" d="M217.08,317.33l2.81,6.81,16.72-7-2.81-6.81c-13.89-33.67-52.32-49.72-85.67-35.78S99,327.24,112.85,360.91l23,55.82,16.71-7-23-55.82c-10-24.37,1.4-52.39,25.53-62.48A47.39,47.39,0,0,1,217.08,317.33Z" transform="translate(-11.02 -17.23)"/><path class="cls-7" d="M293.62,478.9a7,7,0,0,1-6.09,7.9L116.45,508.09a7,7,0,0,1-7.84-6.17l-14-112.17a7.06,7.06,0,0,1,6.09-7.9l171.08-21.29a7,7,0,0,1,7.84,6.16Z" transform="translate(-11.02 -17.23)"/><path class="cls-8" d="M293.62,478.9l-8.55-68.73c-50.37,55.13-129.39,83.33-174.62,95.7a7,7,0,0,0,6,2.22L287.53,486.8A7,7,0,0,0,293.62,478.9Z" transform="translate(-11.02 -17.23)"/><path class="cls-2" d="M207.06,413.41a15.41,15.41,0,1,0-22.84,15.42l-.52,35.49,27.91-3.47-9.21-34.28A15.56,15.56,0,0,0,207.06,413.41Z" transform="translate(-11.02 -17.23)"/><path class="cls-8" d="M102.18,395.18l3,24.16c-.64-10.34,1.47-33.27,32.07-37.08l-27.78,3.46A8.48,8.48,0,0,0,102.18,395.18Z" transform="translate(-11.02 -17.23)"/><path class="cls-9" d="M183.7,464.32s20-8.48,18.7-37.75l9.21,34.28Z" transform="translate(-11.02 -17.23)"/><path class="cls-5" d="M428.17,541.75l-23.52,41.8c-9.69,19-22.86,36.19-32.55,55.17-2.23,4.36-3.61,9.5-7,13.17s-7,2.51-9.31-1.47c-3-5.34,1.32-11.53,3.2-16.76,12.51-34.85,21.55-70.33,32.88-105.64.15-.47.35-1,.81-1.16a1.58,1.58,0,0,1,1.14.16C397.14,528.42,427.67,542.66,428.17,541.75Z" transform="translate(-11.02 -17.23)"/><polygon class="cls-2" points="345.21 624.12 338.37 629.28 344.19 648.64 355.68 656.47 363.37 652.62 356.1 628.95 345.21 624.12"/><path class="cls-2" d="M440.33,529c9.62-19.5,18.82-39,25.46-59.8a302.91,302.91,0,0,0,8.42-33c2.05-10.29-.84-20-2.72-30.35a8.81,8.81,0,0,0-1.62-4.32,8.48,8.48,0,0,0-3.64-2.08,239.34,239.34,0,0,0-60.46-13.6,7.59,7.59,0,0,0-4.61.55c-1.72,1-2.36,3.14-2.87,5.06-4.21,16.08-11.59,34.28-12.07,50.8-.26,8.74.5,17.84.53,26.64q.12,23.46.22,46.91L355.63,629.33l20.05,16.39,43.71-78.14C426.65,554.6,433.73,541.85,440.33,529Z" transform="translate(-11.02 -17.23)"/><path class="cls-5" d="M507.87,530.93l-6.71,47.49c-2.11,21.21-8.11,42-10.23,63.24-.49,4.87.09,10.16-1.73,14.82s-5.66,4.9-9.22,2c-4.76-3.86-3-11.22-3.11-16.77-1-37-5.52-73.35-7.83-110.36a1.66,1.66,0,0,1,.33-1.37,1.63,1.63,0,0,1,1.13-.27C474.11,529.81,507.72,532,507.87,530.93Z" transform="translate(-11.02 -17.23)"/><polygon class="cls-2" points="466.09 632.65 461.59 639.95 474.06 655.86 487.61 658.97 493.38 652.59 477.98 633.18 466.09 632.65"/><path class="cls-2" d="M514.55,514.63c3.21-31.38,4.09-62.33-1.54-94.85-.75-4.33-1.63-8.76-3.95-12.5-6.34-10.2-20.57-11.56-32.52-10.29a142.34,142.34,0,0,0-32.09,7.23c-18.15,6.36-12,31.62-12.15,47.48L460,521.76l12.84,123.93,23.93,1.19,12.27-88.69C511.12,543.45,513.08,529,514.55,514.63Z" transform="translate(-11.02 -17.23)"/><path class="cls-3" d="M520.14,314.16c0-.3,0-.61-.1-.91-3-17.3.08-34.94-2.74-52.21-2.5-15.31-8.76-23.42-21.93-30.47A74,74,0,0,0,454.66,222c-14,1.19-28.71,3.62-39.9,12.77-4.8,3.92-7.79,8.45-10.6,13.85-12,23-9.68,50.3-8.78,75.67.92,25.81-7.51,54-14.43,78.7a203.55,203.55,0,0,0,127,15.91c2.39-.48,5-1.17,6.39-3.34a11,11,0,0,0,1.19-5.1c.93-13.64,2.1-27.28,2.8-40.94C519.25,351.4,521.6,332.28,520.14,314.16Z" transform="translate(-11.02 -17.23)"/><path class="cls-2" d="M476,168.11a35.08,35.08,0,0,1,4.28,15.77c.06,1.46.16,3.15,1.34,4s.16,3,1.12,1.71,4.22-5.52,4.37-7.08a57.65,57.65,0,0,0,0-11c-.31-3.17-1-6.49-3-8.91a18,18,0,0,0-4.49-3.42,22.92,22.92,0,0,0-7.47-3.35c-4.64-.87-7.49.8-3.39,4A28.54,28.54,0,0,1,476,168.11Z" transform="translate(-11.02 -17.23)"/><path class="cls-5" d="M446.91,230.43c0,2.25-.43,4.58,1.55,6.32a6.76,6.76,0,0,0,3.5,1.37,21.56,21.56,0,0,0,9.74-.69,8.62,8.62,0,0,0,3.55-1.87c1.15-1.1,1.21-2.15,1.26-3.6.07-1.69.41-3.41.63-5.13a113.1,113.1,0,0,0,.81-11.34c5.57-1,12.12-2.75,14-8.59a19.26,19.26,0,0,0,.64-5.79l.18-24.24a23.62,23.62,0,0,0-.93-8.27c-1.68-4.55-5.95-7.26-10.14-9-10.67-4.35-23.12-4.18-33,2a18,18,0,0,0-6.61,6.65c-2.33,4.44-2,9.92-1.67,15q.5,7.09,1,14.19c.38,5.44,1.2,11.7,5.42,14.57,2.25,1.52,5.14,1.8,7.08,3.78,3.37,3.44,1.76,8.59,2.76,12.76A8.27,8.27,0,0,1,446.91,230.43Z" transform="translate(-11.02 -17.23)"/><path class="cls-2" d="M484.57,197.89c-.09-1.5-.75-5.89-3-3.13a4.46,4.46,0,0,0-.77,2.7,10.12,10.12,0,0,1-.3,2.86c-.69,2.07-3,3-5,3a4.86,4.86,0,0,1-2.36-.56,7.39,7.39,0,0,1-1.8-1.65l-3.94-4.52c-2.26-2.59-6.74-1.47-9.78-1.07a19.4,19.4,0,0,0-9.88,3.82c-.29.23-.57.48-.85.72a10.67,10.67,0,0,1-2.19,1.58c-2.71,1.32-6.07-.06-8-2.53-.87-1.13-1.69-2.58-3-2.77a2.79,2.79,0,0,0-2.63,1.6,8.07,8.07,0,0,0-.76,3.31,24.41,24.41,0,0,0,2.12,12.18c3.92,8,11.51,9,19.13,8.84l9-.21c5.51-.13,11.33-.36,16-3.57,4.1-2.82,6.53-7.62,7.53-12.65A31.46,31.46,0,0,0,484.57,197.89Zm-20.16,11.38a10.53,10.53,0,0,1-9.33,1.08c-1.37-.41-.79-2.72.59-2.3a8.51,8.51,0,0,0,7.62-.84C464.51,206.39,465.62,208.46,464.41,209.27Z" transform="translate(-11.02 -17.23)"/><path class="cls-2" d="M485.72,154.1a43,43,0,0,0,1.17-6,11.94,11.94,0,0,1-5.84.5c0-1.17,0-2.33,0-3.49,0-1-13.09-1.64-14.15-1.73-9.94-.82-19-1.59-28,3.75-7.68,4.55-12.61,11.36-13.79,20.23-1.12,8.46,1.65,19.52,6.54,26.55,0-2.26-1.32-7.57-.79-9.72a19.3,19.3,0,0,1,2.09-6.12,25.18,25.18,0,0,1,8.87-9.32c5.82-3.66,12.6-5.59,19.37-6.53,6.2-.86,13.76-1.66,19.89,0,2.94.79,3.43,1.53,5.21-1.44.32-.53,2.81-6.65,2.57-6.65Z" transform="translate(-11.02 -17.23)"/><path class="cls-7" d="M525.41,311.64c.45-9.63,1.55-19.25,1.17-28.89a108.09,108.09,0,0,0-10.36-41c-2.79-6-4.7-9.08-10.91-11.59s-13-2.42-18.88-5.44c4.07-3.45,8-7.22,10.61-11.88,4.43-7.87,2-16.2,1.44-24.69-.62-9.35-1.26-18.89-4.71-27.7-5.1-13-16.54-25-27.74-33.06-5.33-3.85-14.67-1.26-20.67.31a102.29,102.29,0,0,0-21.53,8.72c-7.2,3.78-10.77,7.66-12.86,15.55-2,7.38-2.37,15.08-2.79,22.67-1,18,.6,34.91,11.19,50.19,1.45,2.1,3.06,4.19,3.66,6.67-4.08.36-8.23.74-12.07,2.16-9,3.32-8.44,10-10.73,18A131,131,0,0,0,395,281.15c-.43,8.56.23,17.15-.38,25.69-1.14,16-6.69,31.46-8.67,47.43-1.89,15.28-.47,30.82,2.45,45.94,1.05,5.42,2.52,11.2,6.76,14.72a23.54,23.54,0,0,0,8.13,3.9,154.88,154.88,0,0,0,24.42,5.62c2.77.4,10.35,2.59,12.84,1.33,2.15-1.09,3.25-6.55,4.1-9.07,5.38-15.86,5.81-32.84,6.61-49.4,1-19.59,2.5-39.18,5.66-58.53,2.3-14,5.45-28,4.87-42.22a28.13,28.13,0,0,0-1.87-10.05c-1.22-2.86-3.43-3.95-5.17-6.21-1.38-1.8-1.69-3.91-2.69-6-2.58-5.32-7.23-9.34-10.91-13.86-8.49-10.42-11.92-24.35-10.53-37.6a50.63,50.63,0,0,1,5.85-19.36c3.39-6,14.68-10.37,21.18-10.16,8.35.27,18.21,2.28,23.44,9.42,5.06,6.92,4.21,16.37,3.14,24.87q-1.41,11.08-2.81,22.17a20.37,20.37,0,0,1-1.36,5.95c-2.52,5.58-9.28,7.77-13.38,12.31-3.71,4.12-5,9.82-6,15.26q-4,21-6.48,42.28c-4.9,42.31-5.16,85.05-3.61,127.62a349.39,349.39,0,0,0,64,2.91c2.51-.12,5.26-.36,7-2.14,1.39-1.38,1.88-3.4,2.27-5.32C531,383.62,523.76,347.36,525.41,311.64Z" transform="translate(-11.02 -17.23)"/><path class="cls-2" d="M308.57,218.11H567.42a5.45,5.45,0,0,1,5.45,5.45V398.2a0,0,0,0,1,0,0H303.11a0,0,0,0,1,0,0V223.56A5.45,5.45,0,0,1,308.57,218.11Z"/><rect class="cls-10" x="313.87" y="230.58" width="248.32" height="157.68"/><path class="cls-11" d="M583.87,438.7l-269.76-.8a18.83,18.83,0,0,1-16.05-9.08h0l301.91.9h0A18.8,18.8,0,0,1,583.87,438.7Z" transform="translate(-11.02 -17.23)"/><rect class="cls-12" x="286.64" y="397.76" width="302.7" height="16.24" rx="1.98"/><rect class="cls-13" x="413.03" y="402.53" width="49.93" height="5.74" rx="2.24"/><path class="cls-2" d="M395.32,88.35l-38-24.77a5.66,5.66,0,0,0-5.61-.33L318.07,79.94a53.83,53.83,0,0,0-9.4-22.51L334.2,34.27l40.2,12.5A5.67,5.67,0,1,0,377.77,36l-43.3-13.47A5.68,5.68,0,0,0,329,23.7L301.21,48.89a64.84,64.84,0,0,0-87.49,0L186,23.7a5.67,5.67,0,0,0-5.49-1.22L137.17,36a5.66,5.66,0,0,0,3.36,10.82l40.21-12.5,25.52,23.16a54,54,0,0,0-9.4,22.51L163.2,63.25a5.65,5.65,0,0,0-5.61.33l-38,24.77a5.67,5.67,0,0,0,6.19,9.49l35.27-23,35.2,17.46a52.94,52.94,0,0,0,3.09,14.51l-24.2-3.13a5.68,5.68,0,0,0-5.2,2.14l-27.83,35.79a5.67,5.67,0,1,0,9,7l25.84-33.23,28.78,3.71a58.17,58.17,0,0,0,9.29,10.5l8.71,24.73h17.69V144h4.31v10.33h23.54V144h4.3v10.33h17.69L300,129.55a58.17,58.17,0,0,0,9.29-10.5L338,115.34l25.85,33.23a5.62,5.62,0,0,0,4.47,2.19,5.66,5.66,0,0,0,4.47-9.15L345,105.82a5.67,5.67,0,0,0-5.2-2.14l-24.19,3.13a52.57,52.57,0,0,0,3.08-14.51l35.21-17.46,35.26,23a5.67,5.67,0,1,0,6.19-9.49ZM229.57,110.24a17.71,17.71,0,0,1-17.21-18.65c.22-5.67,2.88-8.51,9-9.08,3-.29,16.4-.27,19.91.38,5.2,1,7.68,4.45,7.55,9.69C248.56,102.78,240.06,110.59,229.57,110.24Zm34.21,17H252.6a3.77,3.77,0,0,1-3.06-6l5.59-7.75a3.77,3.77,0,0,1,6.12,0l5.59,7.75A3.78,3.78,0,0,1,263.78,127.2Zm2.34-34.62c-.12-5.24,2.36-8.72,7.56-9.69,3.5-.65,16.87-.67,19.9-.38,6.12.57,8.78,3.41,9,9.08a17.69,17.69,0,0,1-17.2,18.65C274.88,110.59,266.37,102.78,266.12,92.58Z" transform="translate(-11.02 -17.23)"/><rect class="cls-1" x="313.87" y="284.22" width="396.98" height="72.68"/><path class="cls-7" d="M380.19,329.45h0a3.6,3.6,0,0,1-1.89,5.14l-8.58,3.2,8.57,3.13a3.6,3.6,0,0,1,1.92,5.13l-.09.17a3.6,3.6,0,0,1-5.41,1.07l-7.09-5.66,1.39,9.21a3.61,3.61,0,0,1-3.57,4.15h-.18a3.61,3.61,0,0,1-3.58-4.1l1.27-9.26-7.21,5.83a3.61,3.61,0,0,1-5.41-1l-.22-.4a3.61,3.61,0,0,1,1.88-5.15l8.49-3.18-8.41-3.12a3.61,3.61,0,0,1-1.9-5.13l0-.08a3.61,3.61,0,0,1,5.36-1.1L363,334l-1.33-9.24a3.61,3.61,0,0,1,3.57-4.12h.25a3.6,3.6,0,0,1,3.57,4.14L367.62,334l7.22-5.59A3.6,3.6,0,0,1,380.19,329.45Z" transform="translate(-11.02 -17.23)"/><path class="cls-7" d="M430,329.45h0a3.6,3.6,0,0,1-1.89,5.14l-8.58,3.2,8.57,3.13a3.61,3.61,0,0,1,1.92,5.13l-.09.17a3.6,3.6,0,0,1-5.41,1.07l-7.09-5.66,1.39,9.21a3.62,3.62,0,0,1-3.57,4.15h-.18a3.61,3.61,0,0,1-3.58-4.1l1.27-9.26-7.21,5.83a3.61,3.61,0,0,1-5.41-1l-.22-.4a3.61,3.61,0,0,1,1.88-5.15l8.49-3.18-8.41-3.12a3.61,3.61,0,0,1-1.9-5.13l0-.08a3.61,3.61,0,0,1,5.36-1.1l7.38,5.68-1.33-9.24a3.61,3.61,0,0,1,3.57-4.12h.25a3.61,3.61,0,0,1,3.57,4.14L417.41,334l7.21-5.59A3.61,3.61,0,0,1,430,329.45Z" transform="translate(-11.02 -17.23)"/><path class="cls-7" d="M480,329.45h0a3.6,3.6,0,0,1-1.88,5.14l-8.58,3.2,8.57,3.13a3.61,3.61,0,0,1,1.92,5.13l-.1.17a3.59,3.59,0,0,1-5.4,1.07l-7.1-5.66,1.39,9.21a3.61,3.61,0,0,1-3.57,4.15h-.18a3.61,3.61,0,0,1-3.57-4.1l1.27-9.26-7.21,5.83a3.61,3.61,0,0,1-5.41-1l-.22-.4a3.61,3.61,0,0,1,1.87-5.15l8.5-3.18-8.41-3.12a3.59,3.59,0,0,1-1.9-5.13l0-.08a3.6,3.6,0,0,1,5.35-1.1l7.39,5.68-1.33-9.24a3.61,3.61,0,0,1,3.57-4.12h.24a3.6,3.6,0,0,1,3.57,4.14L467.43,334l7.22-5.59A3.6,3.6,0,0,1,480,329.45Z" transform="translate(-11.02 -17.23)"/><path class="cls-7" d="M530,329.45h0a3.6,3.6,0,0,1-1.89,5.14l-8.58,3.2,8.57,3.13a3.6,3.6,0,0,1,1.92,5.13l-.09.17a3.6,3.6,0,0,1-5.41,1.07l-7.09-5.66,1.39,9.21a3.61,3.61,0,0,1-3.57,4.15h-.18a3.61,3.61,0,0,1-3.58-4.1l1.27-9.26-7.21,5.83a3.61,3.61,0,0,1-5.41-1L500,346a3.61,3.61,0,0,1,1.88-5.15l8.49-3.18-8.41-3.12a3.61,3.61,0,0,1-1.9-5.13l0-.08a3.61,3.61,0,0,1,5.36-1.1l7.38,5.68-1.33-9.24a3.61,3.61,0,0,1,3.57-4.12h.25a3.6,3.6,0,0,1,3.57,4.14L517.46,334l7.22-5.59A3.6,3.6,0,0,1,530,329.45Z" transform="translate(-11.02 -17.23)"/><path class="cls-7" d="M580.05,329.45h0a3.6,3.6,0,0,1-1.88,5.14l-8.58,3.2,8.57,3.13a3.61,3.61,0,0,1,1.92,5.13l-.1.17a3.59,3.59,0,0,1-5.4,1.07l-7.1-5.66,1.39,9.21A3.61,3.61,0,0,1,565.3,355h-.18a3.61,3.61,0,0,1-3.57-4.1l1.27-9.26-7.21,5.83a3.61,3.61,0,0,1-5.41-1L550,346a3.61,3.61,0,0,1,1.87-5.15l8.5-3.18-8.41-3.12a3.6,3.6,0,0,1-1.9-5.13l0-.08a3.6,3.6,0,0,1,5.35-1.1l7.39,5.68-1.33-9.24a3.61,3.61,0,0,1,3.57-4.12h.24a3.6,3.6,0,0,1,3.57,4.14L567.48,334l7.22-5.59A3.6,3.6,0,0,1,580.05,329.45Z" transform="translate(-11.02 -17.23)"/><path class="cls-14" d="M763.27,408.22a128.1,128.1,0,0,1-4.43,23.11A129.84,129.84,0,0,1,752.3,449L812,466.27l13-40.23ZM796.41,461l0,0Z" transform="translate(-11.02 -17.23)"/><path class="cls-2" d="M940.77,456.13,832,423.78l-.12.39a3.19,3.19,0,0,1-.08,1.53l-.67,2.12-12.59,40.34-1,3a2.75,2.75,0,0,1-.2.5L927.25,503c9.53,2.76,20.26-5.39,24-18.19l.14-.47C955,471.5,950.3,458.89,940.77,456.13Z" transform="translate(-11.02 -17.23)"/><path class="cls-15" d="M540.89,346.68l.38-.75C541.14,346.18,541,346.43,540.89,346.68Z" transform="translate(-11.02 -17.23)"/><path class="cls-16" d="M712.65,479.33a114.61,114.61,0,0,1-70.48,29.17A112.71,112.71,0,0,1,570.4,487a114.14,114.14,0,0,1,91.74-203.72c25.56,5.55,48.58,20.55,64.6,41.23a114.74,114.74,0,0,1,23.65,72.2c0,2.55-.19,5.1-.42,7.63l13.3,3.85c5.88-59.76-31.1-117-90.45-134.13-67-19.36-137.06,19.65-156.54,87.13s19,137.88,86,157.24c60.88,17.6,124.32-13,150-69.44l-13.82-4A116.35,116.35,0,0,1,712.65,479.33Z" transform="translate(-11.02 -17.23)"/><path class="cls-15" d="M667.9,291.16A108.27,108.27,0,0,1,692,301.45a108.83,108.83,0,0,0-28.72-11.9,107.6,107.6,0,0,0-74.25,8.4A108.77,108.77,0,0,0,542,344.56C565.8,300.12,617.85,276.7,667.9,291.16Z" transform="translate(-11.02 -17.23)"/><path class="cls-16" d="M763.27,408.22,750,404.37A113.93,113.93,0,0,1,738.48,445l13.82,4a129.84,129.84,0,0,0,6.54-17.69A128.1,128.1,0,0,0,763.27,408.22Z" transform="translate(-11.02 -17.23)"/><path class="cls-17" d="M726.21,333.64A105.52,105.52,0,0,0,692,301.45a108.27,108.27,0,0,0-24.14-10.29c-50-14.46-102.1,9-125.9,53.4-.25.46-.5.91-.73,1.37l-.38.75q-2.14,4.31-3.9,8.79a108.18,108.18,0,0,0,48.35,134.2c22.27,12.39,48.83,16,73.72,10.81A107.93,107.93,0,0,0,708.8,475a109.93,109.93,0,0,0,35.08-67.94c.18-1.44.31-2.89.42-4.34A109.6,109.6,0,0,0,726.21,333.64ZM650.63,489.45a92.29,92.29,0,0,1-98.94-44.59c-19.54-34.28-13.82-77.78,11.9-107.27a84.12,84.12,0,0,1,8.06-8c7.37-6.45,17.87,4.55,10.45,11.05-26.18,22.94-34.54,60.89-19.42,92.36a76.73,76.73,0,0,0,84.26,41.6C656.52,472.66,660.23,487.46,650.63,489.45Zm34.88-14.74a10,10,0,1,1-6.8-12.45A10,10,0,0,1,685.51,474.71Z" transform="translate(-11.02 -17.23)"/><path class="cls-18" d="M551.69,444.86a92.29,92.29,0,0,0,98.94,44.59c9.6-2,5.89-16.79-3.69-14.81A76.73,76.73,0,0,1,562.68,433c-15.12-31.47-6.76-69.42,19.42-92.36,7.42-6.5-3.08-17.5-10.45-11.05a84.12,84.12,0,0,0-8.06,8C537.87,367.08,532.15,410.58,551.69,444.86Z" transform="translate(-11.02 -17.23)"/><path class="cls-19" d="M673.12,481.6a10.07,10.07,0,1,0-6.8-12.44A10,10,0,0,0,673.12,481.6Z" transform="translate(-11.02 -17.23)"/><path class="cls-18" d="M673.12,481.6a10.07,10.07,0,1,0-6.8-12.44A10,10,0,0,0,673.12,481.6Z" transform="translate(-11.02 -17.23)"/><path class="cls-20" d="M831.85,424.17a3.16,3.16,0,0,0-2.07-2.43l-.06,0a3.17,3.17,0,0,0-4.05,2l-.74,2.28,5.81,1.68Z" transform="translate(-11.02 -17.23)"/><path class="cls-21" d="M818.15,468.06l-6.2-1.79-.94,2.91a3.19,3.19,0,0,0,2.37,4.11l.52.1a3.17,3.17,0,0,0,3.46-1.68l-.32-.09Z" transform="translate(-11.02 -17.23)"/><polygon class="cls-21" points="819.71 410.48 813.91 408.81 800.93 449.03 807.13 450.83 819.71 410.48"/><path class="cls-20" d="M831.1,427.82l.67-2.12a3.19,3.19,0,0,0,.08-1.53l-1.11,3.55Z" transform="translate(-11.02 -17.23)"/><path class="cls-21" d="M818.51,468.16l-.36-.1L817,471.62l.32.09a2.75,2.75,0,0,0,.2-.5Z" transform="translate(-11.02 -17.23)"/><polygon class="cls-21" points="807.13 450.83 807.49 450.93 820.08 410.59 819.71 410.48 807.13 450.83"/><path class="cls-7" d="M712.61,475.09a2.78,2.78,0,0,1,0,4.24A116.35,116.35,0,0,0,738.48,445l-3.35-1A109.08,109.08,0,0,1,712.61,475.09Z" transform="translate(-11.02 -17.23)"/><path class="cls-7" d="M712.61,475.09c-1.34,1.3-2.71,2.55-4.11,3.77a2.73,2.73,0,0,0,4.15.47A2.78,2.78,0,0,0,712.61,475.09Z" transform="translate(-11.02 -17.23)"/><path class="cls-7" d="M726.74,324.54c-16-20.68-39-35.68-64.6-41.23a113.78,113.78,0,0,0-74.24,8.74,114.42,114.42,0,0,0-17.5,195,112.71,112.71,0,0,0,71.77,21.47,114.61,114.61,0,0,0,70.48-29.17,2.73,2.73,0,0,1-4.15-.47,108.28,108.28,0,0,1-101.28,22.53c-57.62-16.65-90.75-77.22-74-135.27a111.19,111.19,0,0,1,7.66-19.44c.12-.25.25-.5.38-.75l.73-1.37A108.77,108.77,0,0,1,589.07,298a107.6,107.6,0,0,1,74.25-8.4A110.32,110.32,0,0,1,746,403.22l4,1.15c.23-2.53.37-5.08.42-7.63A114.74,114.74,0,0,0,726.74,324.54Z" transform="translate(-11.02 -17.23)"/><path class="cls-7" d="M741.89,426.43a110.27,110.27,0,0,1-6.76,17.63l3.35,1A113.93,113.93,0,0,0,750,404.37l-4-1.15A110.47,110.47,0,0,1,741.89,426.43Z" transform="translate(-11.02 -17.23)"/><path class="cls-7" d="M708.8,475a2.7,2.7,0,0,1,3.81.08,109.08,109.08,0,0,0,22.52-31l-2.29-.66A110.22,110.22,0,0,1,708.8,475Z" transform="translate(-11.02 -17.23)"/><path class="cls-22" d="M541.27,345.93c.23-.46.48-.91.73-1.37Z" transform="translate(-11.02 -17.23)"/><path class="cls-7" d="M708.8,475a2.73,2.73,0,0,0-.3,3.85c1.4-1.22,2.77-2.47,4.11-3.77A2.7,2.7,0,0,0,708.8,475Z" transform="translate(-11.02 -17.23)"/><path class="cls-23" d="M726.21,333.64a109.6,109.6,0,0,1,18.09,69.09l1.68.49A109.25,109.25,0,0,0,692,301.45,105.52,105.52,0,0,1,726.21,333.64Z" transform="translate(-11.02 -17.23)"/><path class="cls-7" d="M708.8,475a107.93,107.93,0,0,1-49.74,25.47c-24.89,5.2-51.45,1.58-73.72-10.81A108.18,108.18,0,0,1,537,355.47q1.75-4.49,3.9-8.79a111.19,111.19,0,0,0-7.66,19.44c-16.76,58.05,16.37,118.62,74,135.27A108.28,108.28,0,0,0,708.5,478.86,2.73,2.73,0,0,1,708.8,475Z" transform="translate(-11.02 -17.23)"/><path class="cls-7" d="M743.88,407.07a109.16,109.16,0,0,1-11,36.33l2.29.66A110.88,110.88,0,0,0,746,403.22l-1.68-.49C744.19,404.18,744.06,405.63,743.88,407.07Z" transform="translate(-11.02 -17.23)"/><path class="cls-7" d="M758.69,20.23,683.61,150.28a6,6,0,0,0,5.19,9H839a6,6,0,0,0,5.19-9l-75.08-130A6,6,0,0,0,758.69,20.23Z" transform="translate(-11.02 -17.23)"/><path class="cls-24" d="M758.75,117.91l-5.43-54.67,21.12.12-5.3,54.55Zm-4.07,7.68h18.41v18.18H754.68Z" transform="translate(-11.02 -17.23)"/><path class="cls-5" d="M796.24,450.14a.89.89,0,0,1,0-.22c.56-3.29,3.82-3.27,5.56-5.3s0-5.81,2.68-6.51c1.12-.29,3.44-.32,5.58-.9,3.11-.86,6.51-3.47,9-6.26,9.64-11,19.51-21.74,30.42-31.56a4.64,4.64,0,0,0,1.52-1.91c.49-1.45-.22-2.71-.8-4a105.24,105.24,0,0,1-6.58-18.9c-1.31-5.88-2.11-11.8-.66-17.69s5.25-11.1,10.94-13c4.27-1.43,8.9-1.12,12.26,1.95,8.32,7.63,5,20.32,4.69,30.19-.32,9.33-.61,17.27-1.5,26.28a7.68,7.68,0,0,1-.79,3.15,7.91,7.91,0,0,1-2.45,2.4c-11.91,8.49-23.74,16.46-33.53,27.32-2.69,3-6.08,4.44-8.32,7.64-1.43,2-1,4.66-2.13,6.85a19.44,19.44,0,0,1-4.36,6.2c-5.07,4.27-16.71,3.4-20.48-2.29A5.32,5.32,0,0,1,796.24,450.14Z" transform="translate(-11.02 -17.23)"/><path class="cls-6" d="M872.45,372.82c0,10-.23,20.05-.91,30.06a12.65,12.65,0,0,1-1.23,5.46,12.34,12.34,0,0,1-2.69,3,249.86,249.86,0,0,1-26.5,20.59,2,2,0,0,1-1.17.46,2,2,0,0,1-1-.43c-2.85-2-15.65-8.47-15.69-11.68,0-3.59,7.55-6.62,9.87-8.48q6.15-4.95,11.9-10.35c1.36-1.28,2.77-2.7,3.08-4.54s-.46-3.45-1.15-5.06c-4.1-9.52-6.45-19.81-9.77-29.63-2.29-6.79-5.21-13.64-6.85-20.63-3.22-13.75-5.67-18.9-3.57-28.95,2-9.62,8.94-18.88,19.6-18.71,11.05.17,19.13,9.82,22.73,19.34,1.49,3.93,1.69,8.21,1.88,12.4C871.72,341.37,872.41,357.1,872.45,372.82Z" transform="translate(-11.02 -17.23)"/><polygon class="cls-5" points="75.06 404.05 64.77 408.89 70.8 426.82 82.56 428.48 89.08 420.61 81.86 415.23 83.79 414.32 86.63 415.37 87.64 412.5 75.06 404.05"/><path class="cls-4" d="M79.38,266.85l4.89-3.32c4.89-3.3,9.94-6.68,15.72-7.92,3.83,8.38,7.56,16.92,9.18,26s1,18.83-3.58,26.84c-2.44,4.31-5.9,7.94-9.32,11.53L71.44,346c-1.54,1.62-3.15,3.36-3.56,5.54a10.9,10.9,0,0,0,.65,5.1c2.1,6.79,6.11,12.37,8.75,18.8S81.2,389.32,83.16,396c1.75,6,9.58,22.94,6.15,27.39-.73.95-13.68,6.83-13.55,7.05L52.54,390.88c-9.46-16.12-19.31-30-19.91-49.27a74,74,0,0,1,13.93-45.78C55.25,284,67.22,275.16,79.38,266.85Z" transform="translate(-11.02 -17.23)"/><path class="cls-5" d="M317.39,319a2.68,2.68,0,0,1,1.61-.49c.85.13,1.35,1,1.59,1.84a8.12,8.12,0,0,1-3,8.61c3.55,2.2,9.44-2,11.88,1.41a6,6,0,0,1,.8,3.41q.19,7.15.09,14.33c0,1.4-.11,2.95-1.08,4s-2.54,1.2-4,1.29l-6.17.42c-3.42.24-7.28.32-9.77-2-2.12-2-2.55-5.21-2.78-8.13q-.54-6.88-.58-13.79C306,322.71,312.13,321.89,317.39,319Z" transform="translate(-11.02 -17.23)"/><path class="cls-7" d="M302.54,325.86q-1.2,9-2.38,18c-.44,3.28-.87,6.68.06,9.86a12.23,12.23,0,0,0,8.95,8.34c2.6.56,6.13-.54,6.16-3.19a6,6,0,0,0-1-2.83c-7.07-12.8-3.63-26.41-4.05-40.13C304.6,315.62,303.13,321.34,302.54,325.86Z" transform="translate(-11.02 -17.23)"/></g></svg>