<svg id="Layer_1" data-name="Layer 1" xmlns="http://www.w3.org/2000/svg" viewBox="0 0 869.91 676.76"><defs><style>.cls-1{opacity:0.4;}.cls-2{fill:#f7f7f7;}.cls-3{fill:#e8bdb8;}.cls-4{fill:#ccd2d9;}.cls-5{fill:#3b455a;}.cls-6{fill:#d34e4e;}.cls-7{fill:#dae1e8;}.cls-8{fill:#193edb;}.cls-29,.cls-9{fill:#fff;}.cls-10,.cls-21{opacity:0.3;}.cls-11,.cls-21{fill:#a0a1a3;}.cls-12{fill:blue;}.cls-13{fill:#1c35f2;}.cls-14{fill:#b28070;}.cls-15{fill:#474ebb;}.cls-16{opacity:0.22;}.cls-17,.cls-22,.cls-24{fill:#6d6e6f;}.cls-17{opacity:0.49;}.cls-17,.cls-20,.cls-21,.cls-22,.cls-29,.cls-34,.cls-35{isolation:isolate;}.cls-18{fill:#ebb044;}.cls-19{fill:#7fc5a3;}.cls-20{fill:#7f7f7f;opacity:0.16;}.cls-22{opacity:0.33;}.cls-23{opacity:0.2;}.cls-25{opacity:0.44;}.cls-26{fill:#8ec3cb;}.cls-27{fill:#de882c;}.cls-28{fill:none;}.cls-29{font-size:36px;}.cls-29,.cls-35{font-family:AvenirNextLTPro-Bold, Avenir Next LT Pro;font-weight:700;}.cls-30{letter-spacing:-0.02em;}.cls-31{letter-spacing:-0.01em;}.cls-32{letter-spacing:0em;}.cls-33{letter-spacing:-0.01em;}.cls-35{font-size:30px;fill:#fcfafa;}.cls-36{letter-spacing:-0.04em;}.cls-37{letter-spacing:-0.02em;}.cls-38{letter-spacing:0em;}.cls-39{letter-spacing:-0.02em;}.cls-40{letter-spacing:-0.03em;}</style></defs><title>payment2</title><g id="shadow"><g class="cls-1"><path class="cls-2" d="M411.2,619.7c-24.8,0-49.7.4-74.5,2.1-9.3.6-18.5,2-27.9,2.6-18.7,1.1-37.1,3.2-55.9,4.2-15.1.8-30.3,1.2-45.4,2.2a256.2,256.2,0,0,1-43.8-.8c-10.4-1.1-20.8-1.8-31-3.6A203.72,203.72,0,0,0,97,622.9c-17,.1-33.5.1-49.7,3.7-5.7,1.3-12.7,3.3-17,6-9.9,6.1-11.3,21.3-1.4,27.6,16.7,10.6,52.2,14.8,75.6,15,25.6.2,50.5-1,76.1-1.6,23.8-.6,47.6-1.5,71.4-1.5,48.7.1,97.5,0,146.1-2,45.7-1.9,91.5-1.2,137.3-1.2,47,0,93.6.2,140.2,4,20.3,1.7,41,2.3,61.4,3.4,18.3,1,35.8,0,54.1-1a196.91,196.91,0,0,0,44.4-7.2c11-3.2,30.6-13.2,34-20.9,9.5-21.5-133.3-21-155.2-21-24.5,0-49.2.5-73.7,0a283.31,283.31,0,0,1-30.5-2.8c-10-1.3-20.1-1-30.3-1.6-42.4-2.4-84.8-2-127.3-2C438.9,619.7,425,619.7,411.2,619.7Z" transform="translate(-0.04 0.05)"/></g></g><g id="object"><polygon class="cls-3" points="648.76 321.25 642.86 318.05 641.16 312.35 639.76 312.05 639.36 313.75 636.66 309.35 632.76 308.05 628.26 311.25 626.56 316.75 630.26 320.95 636.56 322.95 644.56 327.75 648.76 321.25"/><polygon class="cls-4" points="645.36 314.65 680.46 339.15 716.36 300.65 720.66 344.35 685.66 367.35 638.96 326.15 645.36 314.65"/><polygon class="cls-5" points="771.76 634.45 772.36 640.35 761.66 647.65 755.46 642.55 760.46 635.85 771.26 628.55 771.76 634.45"/><polygon class="cls-6" points="771.56 454.15 773.36 472.05 757.26 533.55 772.26 632.45 761.26 636.25 732.26 539.75 727.66 511.65 727.86 452.15 771.56 454.15"/><polygon class="cls-6" points="687.06 474.05 710.16 639.75 720.66 639.75 722.56 533.55 741.66 459.05 687.06 474.05"/><polygon class="cls-5" points="720.66 638.45 720.66 644.45 709.26 650.35 703.56 644.45 709.26 638.45 720.66 638.45"/><path class="cls-7" d="M713,304a8.82,8.82,0,0,1,3.5-3.4c10.4-5.9,27.7-.7,39-.7,3.3,35.2,12.5,68.7,18.5,103.3q9.45,55.05,21.4,109.8c.5,2.1-31.5,1-34.5,1.1-30.7.5-71,.4-100.6-8.9,18.9-50.8,25.8-105.5,40.7-157.6,2.6-9.1,5.7-18.2,8.1-27.4C710.5,314.8,710.2,308.3,713,304Z" transform="translate(-0.04 0.05)"/><path class="cls-5" d="M726.8,252A20.88,20.88,0,0,0,712,269.4a18.21,18.21,0,0,1-.9-25.8,17.59,17.59,0,0,1,4.9-3.7,21.11,21.11,0,0,1,10.2,12.3Z" transform="translate(-0.04 0.05)"/><path class="cls-3" d="M711,262.4c4-21.2,30.5-17.6,38.2-.4,4.3,9.8-.2,23.6-8.9,30.4-.2,1.9-.4,7.1-1.9,8.3s-6.5.1-8.4-.4a3.4,3.4,0,0,1-1.5-.7c-.5-.5-.6-1.8-.6-3.2a15.69,15.69,0,0,1-4.3-.9c-6.2-2-10.6-7.7-12.5-14S709.8,268.8,711,262.4Z" transform="translate(-0.04 0.05)"/><path class="cls-5" d="M750.2,346.7a1.27,1.27,0,0,1-.6-.1c-4.7-.8-12.2-2.3-14.3-7.2s1.7-14.2,2.4-19.5c1-8,1.3-16,1.7-24,.3-7.2-2.2-14.4-6-20.5s-8.7-11.5-13.6-16.9c-2-2.2-4.1-4.6-4.7-7.6a11.11,11.11,0,0,1,2.8-9.3,15.44,15.44,0,0,1,12.2-6c17.5-.4,30.7,10,35.7,27.1,7.1,24.5-1.8,48-.5,72.4a23.32,23.32,0,0,0,3.9,11.7C768.6,345.9,754,346.9,750.2,346.7Z" transform="translate(-0.04 0.05)"/><path class="cls-4" d="M757.2,371.9a11.63,11.63,0,0,0,5.3-9.1c.3-3.9-.7-7.7-1.3-11.5a97,97,0,0,1,.8-36.8c2.7-12,16.6,3.1,18.4,8.5,1.9,6,1.4,12.5,1.8,18.7.6,8.3.9,16.7.9,25,0,5.3,1.3,17.7-4.3,20.8a16.26,16.26,0,0,1-4.9,1.4c-2.7.4-34.3,4.4-34.8,2.9L734.7,378C741.3,376.5,751.2,375.9,757.2,371.9Z" transform="translate(-0.04 0.05)"/><polygon class="cls-3" points="738.56 379.55 731.46 381.85 725.66 378.75 724.46 379.65 725.46 381.25 719.96 380.15 715.86 382.25 715.06 388.35 718.26 393.75 724.26 393.95 730.66 390.55 740.46 387.75 738.56 379.55"/><path class="cls-4" d="M761.3,375.7a22.11,22.11,0,0,1-4-2.8c-.4-.2-.8-.3-1.2-.5-6.1,3.5-15.2,4.1-21.5,5.4l4.4,13.8c.4,1.3,22.3-1.2,31.2-2.4C767.4,384.7,765.2,379.4,761.3,375.7Z" transform="translate(-0.04 0.05)"/><polygon class="cls-8" points="163.36 302.05 141.56 310.65 105.86 340.25 89.56 287.25 69.66 290.85 82.46 355.55 103.26 374.35 163.46 341.25 163.36 302.05"/><path class="cls-6" d="M211.6,244.3,33.5,284.5a6.87,6.87,0,0,1-8.2-5.2L.2,167.8a7,7,0,0,1,5.2-8.3l178.1-40.1a6.87,6.87,0,0,1,8.2,5.2L216.8,236A6.93,6.93,0,0,1,211.6,244.3Z" transform="translate(-0.04 0.05)"/><path class="cls-9" d="M18.6,201.8l32.2-7.3a.62.62,0,0,1,.8.5L57,218.8a.62.62,0,0,1-.5.8l-32.2,7.3a.62.62,0,0,1-.8-.5l-5.4-23.8A.64.64,0,0,1,18.6,201.8Z" transform="translate(-0.04 0.05)"/><g class="cls-10"><path class="cls-11" d="M56.2,215.2l-2.3-10.5c-6.4,9.7-21.7,17-30.5,20.8.3,1.7.5,1.5,2.3,1l30-6.7C57.5,219.4,57.1,219.5,56.2,215.2Z" transform="translate(-0.04 0.05)"/></g><rect class="cls-4" x="26.4" y="231" width="39.7" height="12.7" transform="translate(-51.08 16.02) rotate(-12.7)"/><rect class="cls-4" x="69.68" y="221.19" width="39.7" height="12.7" transform="translate(-47.87 25.29) rotate(-12.7)"/><rect class="cls-4" x="112.79" y="211.51" width="39.7" height="12.7" transform="translate(-44.68 34.53) rotate(-12.7)"/><rect class="cls-4" x="156" y="201.8" width="39.7" height="12.7" transform="translate(-41.49 43.79) rotate(-12.7)"/><path class="cls-9" d="M26.4,185.3a5.54,5.54,0,0,1-3.4,2.4,5.43,5.43,0,1,1-2.4-10.6h0a5.69,5.69,0,0,1,4.2.7l.2.2,1.1-1.6-.3-.2a7.59,7.59,0,0,0-5.7-1,7.44,7.44,0,1,0,8,11.2l.2-.3-1.7-.9Z" transform="translate(-0.04 0.05)"/><path class="cls-9" d="M36.3,176a4.15,4.15,0,0,0-5-3.2h0l-4.3,1L30.2,188l1.9-.4-1.4-6,2.1-.5,4.3,5.3,2.2-.5-4.6-5.6A4.43,4.43,0,0,0,36.3,176Zm-2,.4a2.12,2.12,0,0,1-1.7,2.6l-2.4.6-1-4.3,2.4-.6a2.25,2.25,0,0,1,2.7,1.7Z" transform="translate(-0.04 0.05)"/><polygon class="cls-9" points="39.96 185.85 47.46 184.15 46.96 182.25 41.46 183.45 40.26 178.15 45.06 177.05 44.66 175.15 39.86 176.25 39.16 173.15 44.66 171.85 44.26 169.95 36.76 171.65 39.96 185.85"/><path class="cls-9" d="M49.3,168.8l-3.3.8,3.2,14.2,3.3-.8c4.4-1,6.6-4.4,5.7-8.8S53.7,167.8,49.3,168.8ZM52,181l-1.4.3L48.3,171l1.4-.3c3.4-.8,5.8.7,6.5,3.9S55.4,180.3,52,181Z" transform="translate(-0.04 0.05)"/><rect class="cls-9" x="59.59" y="166.39" width="2" height="14.5" transform="translate(-36.73 17.61) rotate(-12.7)"/><polygon class="cls-9" points="61.06 168.15 64.66 167.35 67.36 179.65 69.26 179.15 66.56 166.95 70.06 166.15 69.56 164.25 60.66 166.25 61.06 168.15"/><path class="cls-9" d="M88.7,171.1l-.2.3a5.4,5.4,0,0,1-7.5,1.7,5.48,5.48,0,0,1-1.7-7.5,5.4,5.4,0,0,1,7.5-1.7l.3.2,1.1-1.6-.3-.2a7.45,7.45,0,1,0,2.2,10.3h0l.1-.1.2-.3Z" transform="translate(-0.04 0.05)"/><path class="cls-9" d="M94.3,158.6l-3.5,15.7,2.1-.5,1-4.7,6-1.4,3,3.8,2.1-.5L95,158.4Zm4.3,7.5-4.2.9,1.1-4.8Z" transform="translate(-0.04 0.05)"/><path class="cls-9" d="M112,159a4.15,4.15,0,0,0-5-3.2h0l-4.4,1,3.2,14.1,1.9-.4-1.4-6,2.1-.5,4.3,5.3,2.2-.5-4.6-5.6A4.07,4.07,0,0,0,112,159Zm-2,.4a2.12,2.12,0,0,1-1.7,2.6l-2.4.6-1-4.3,2.4-.6A2.25,2.25,0,0,1,110,159.4Z" transform="translate(-0.04 0.05)"/><path class="cls-9" d="M115.8,153.8l-3.3.8,3.2,14.2,3.3-.8c4.4-1,6.6-4.4,5.6-8.8S120.2,152.8,115.8,153.8Zm6.9,5.8c.7,3.3-.8,5.6-4.2,6.4l-1.4.3-2.3-10.4,1.4-.3c3.4-.7,5.8.8,6.5,4Z" transform="translate(-0.04 0.05)"/><rect class="cls-9" x="116.09" y="227.9" width="84" height="3.9" transform="translate(-46.7 40.42) rotate(-12.7)"/><polygon class="cls-3" points="281.66 335.65 290.06 327.35 303.36 327.65 304.86 334.45 284.86 343.05 281.66 335.65"/><path class="cls-5" d="M192.3,271c-1.6-18.1-8.6-21.4-8.6-21.4h0a16.37,16.37,0,0,0-6.3-3.2,18.59,18.59,0,0,0-6,12.6H171a17,17,0,0,1,6.3,1.4c1.5,10.8,3.9,27.9,3.9,32.9.1,7.5,1.9,7.6,6.9,9.3s10.3-2.7,10.3-2.7S194,289,192.3,271Z" transform="translate(-0.04 0.05)"/><polygon class="cls-5" points="142.76 629.85 142.16 635.55 152.56 642.65 158.56 637.65 153.66 631.25 143.36 624.15 142.76 629.85"/><polygon class="cls-3" points="143.06 455.55 141.26 472.85 156.76 532.35 142.36 627.95 152.96 631.55 180.96 538.25 185.36 511.05 185.26 453.55 143.06 455.55"/><polygon class="cls-3" points="224.56 474.85 202.26 634.95 192.16 634.95 190.36 532.35 171.86 460.25 224.56 474.85"/><polygon class="cls-5" points="192.16 633.75 192.16 639.45 203.16 645.25 208.66 639.45 203.16 633.75 192.16 633.75"/><path class="cls-12" d="M143.6,434.2c8.7-58.3,5.6-100.7,6-112.4a24.65,24.65,0,0,1,8.4-17.7c3.5-.8,6.5-3.1,10.1-4,23.9-6.2,37,12.5,45.9,32.7a582.18,582.18,0,0,1,27.9,76.8c6.6,23,13.2,46.2,15.9,70.1,1.1,9.9,2.1,19.2-8.5,23.5-16.8,6.9-35.6,6.8-53.4,9-20.4,2.5-40.8,4.4-61.3,5.3C124.1,518.1,135,492.5,143.6,434.2Z" transform="translate(-0.04 0.05)"/><polygon class="cls-3" points="73.56 290.15 64.56 281.15 67.66 265.35 76.26 265.35 78.86 279.15 83.26 281.75 83.26 288.35 73.56 290.15"/><polygon class="cls-12" points="179.76 298.95 202.66 303.05 244.06 343.05 281.16 330.05 293.06 345.25 243.36 374.35 190.96 340.75 179.76 298.95"/><polygon class="cls-4" points="185.36 300.15 189.56 362.15 157.86 303.25 167.06 299.95 173.76 297.95 185.36 300.15"/><path class="cls-3" d="M186.5,264.6c-7.9-17.2-29.6-8.5-32.5,7.7-1.6,9.2,3.3,25.3,14.3,25.4.5,1.5,1.5,4.5,3,5.3s5.5-1.3,7-2.1a3.13,3.13,0,0,0,1.1-.9c.3-.5.1-1.6-.2-2.9a15.76,15.76,0,0,0,3.5-1.6c4.8-3,7.4-8.8,7.6-14.5C190.7,275.3,188.9,269.7,186.5,264.6Z" transform="translate(-0.04 0.05)"/><path class="cls-5" d="M177,246.5s4.6,9.2-7.2,15.1-17.5,17.6-12.8,27.5,15.8,15.1,11.6,19-22.8,5.7-22.8,5.7-20-33.7-9.2-53.1C147.4,241.1,168.5,235.3,177,246.5Z" transform="translate(-0.04 0.05)"/><path class="cls-5" d="M108,371.8l3.5-1.9,2.5-10.6a25.88,25.88,0,0,0-4.8-21.8l-2.3,1.9a22.45,22.45,0,0,1,4.2,19.2Z" transform="translate(-0.04 0.05)"/><path class="cls-13" d="M97.1,351.6c2.8-4.3,5.2-8.9,8.3-12.9L89.6,287.2l-19.9,3.6,12.7,64.7,7.8,7C92.4,358.8,94.7,355.2,97.1,351.6Z" transform="translate(-0.04 0.05)"/><polygon class="cls-5" points="595.66 438.75 599.76 466.85 591.56 625.25 577.86 622.35 555.06 442.25 595.66 438.75"/><polygon class="cls-5" points="528.16 433.45 525.56 538.45 552.16 629.15 567.76 623.35 554.66 542.55 566.66 432.55 528.16 433.45"/><path class="cls-5" d="M567.8,614.8l-18.6,8.5,6.2,13-9.8,6.2s-.9,5.4,2.4,7.7,24.5-15.5,24.5-15.5Z" transform="translate(-0.04 0.05)"/><path class="cls-5" d="M595.7,617.9l-20.2,3.4,2.7,14.2-11,3.4s-2.3,5,.3,8,27.7-8.7,27.7-8.7Z" transform="translate(-0.04 0.05)"/><path class="cls-5" d="M556.5,262.2a55.17,55.17,0,0,0,6.1,13.3,95.13,95.13,0,0,1,3.7-25.4,2.12,2.12,0,0,0,0-1.9,2.37,2.37,0,0,0-1.5-.9C554.2,244.7,554,254,556.5,262.2Z" transform="translate(-0.04 0.05)"/><path class="cls-14" d="M562.3,275.7c1.1,3.5,2.9,7.5,6.6,9.7,4.3,2.5,8.9,1.2,12.1-.7,10.6-6.4,29-41.9,1.3-50.6C557.2,226.1,557.7,261,562.3,275.7Z" transform="translate(-0.04 0.05)"/><path class="cls-5" d="M584.2,275.8c1.7,2.4,5.4,1.9,8.1.6,11-5.2,17.7-18.1,15.5-30.1-1.8-10-14.1-17.8-17-5.5-1,4.4,1.5,10.5.8,15.3C590.6,263,587.2,269.6,584.2,275.8Z" transform="translate(-0.04 0.05)"/><path class="cls-5" d="M557.1,221.3c-12.6,7-18.3,22.3-29.8,31a42.33,42.33,0,0,0,33.3.8c10.4-4.1,35-6.7,31.8-21.1C589.1,217.4,568.2,215.1,557.1,221.3Z" transform="translate(-0.04 0.05)"/><path class="cls-6" d="M606.1,311.9c7.2,12.5,7.2,26.7,6.2,40.3-2.3,30.8.7,66.4-9.9,95.8-20,0-58.4-9.2-78.3-11.2-3.9-26.7-1.6-42.4.6-72.6,1.1-14.9,3.4-35,8.7-49.2,4.3-11.6,15.9-26.7,33.3-26.2C582.8,289.2,599.5,300.5,606.1,311.9Z" transform="translate(-0.04 0.05)"/><path class="cls-14" d="M573.5,295c-1.8.8-4,.5-6.2-1.6-1.9-1.8-1.3-2.4-.9-5,.6-3.9,1.6-7.8,2.4-11.7l10.8,2.2s-2.2,10.5-2.3,11.2A7.09,7.09,0,0,1,573.5,295Z" transform="translate(-0.04 0.05)"/><polygon class="cls-14" points="622.86 221.25 618.16 208.45 612.66 210.35 613.96 219.75 610.96 219.45 616.36 229.85 622.26 228.75 622.86 221.25"/><path class="cls-6" d="M578.7,342.9a13.85,13.85,0,0,1-1-3.3c-.8-5.2.9-10.5,3.6-15,4.3-7.1,10.9-12.9,16-19.5l17.5-22.6-1.5-55.6,11.9-1.6,14.6,66.8c-8.2,9.6-16.3,19-23.9,29-6.8,9-12.3,20.1-22.6,25.5C587.6,349.6,581.3,348.3,578.7,342.9Z" transform="translate(-0.04 0.05)"/><polygon class="cls-14" points="465.76 322.85 457.26 314.55 444.06 314.85 442.56 321.65 462.56 330.25 465.76 322.85"/><polygon class="cls-6" points="564.56 297.85 554.96 289.15 503.36 330.25 466.26 317.25 454.36 332.45 503.96 361.55 556.46 327.95 564.56 297.85"/><path class="cls-15" d="M722.4,224.9,533.7,211.2a7.17,7.17,0,0,1-6.6-7.7l8.6-118.1a7.14,7.14,0,0,1,7.6-6.6L732,92.5a7.17,7.17,0,0,1,6.6,7.7h0l-8.6,118A7.22,7.22,0,0,1,722.4,224.9Z" transform="translate(-0.04 0.05)"/><path class="cls-9" d="M543.1,149.6l1.8-25.3a.6.6,0,0,1,.7-.6l34.2,2.4a.6.6,0,0,1,.6.7l-1.8,25.3a.6.6,0,0,1-.7.6l-34.2-2.4A.67.67,0,0,1,543.1,149.6Z" transform="translate(-0.04 0.05)"/><g class="cls-16"><path class="cls-11" d="M577,151.1l.9-12.9c-9.3,7.7-26.7,10.6-36.5,11.6,0,.7-.5,1.6,1.7,1.5l32.1,2.3C577.1,153.9,576.7,153.7,577,151.1Z" transform="translate(-0.04 0.05)"/></g><rect class="cls-9" x="554" y="147.7" width="13.2" height="41.1" transform="translate(352.18 715.26) rotate(-85.85)"/><rect class="cls-9" x="599.75" y="150.98" width="13.2" height="41.1" transform="translate(391.34 763.93) rotate(-85.85)"/><rect class="cls-9" x="645.49" y="154.27" width="13.2" height="41.1" transform="translate(430.51 812.6) rotate(-85.85)"/><rect class="cls-9" x="691.31" y="157.65" width="13.2" height="41.1" transform="translate(469.63 861.44) rotate(-85.85)"/><path class="cls-2" d="M556.5,110.7a5.57,5.57,0,0,1-4.1,1.4,5.63,5.63,0,0,1-5.2-6.1,5.69,5.69,0,0,1,6.1-5.2,5.39,5.39,0,0,1,3.8,1.9l.2.2,1.5-1.3-.2-.3a7.73,7.73,0,1,0-.9,10.9h0l.1-.1.3-.2-1.4-1.4Z" transform="translate(-0.04 0.05)"/><path class="cls-2" d="M569.1,104.4a4.37,4.37,0,0,0-4-4.7l-4.6-.3-1.1,15,2,.2.5-6.3,2.2.2,2.7,6.6,2.3.2-2.9-6.9A5.05,5.05,0,0,0,569.1,104.4Zm-2-.1a2.24,2.24,0,0,1-2.4,2.1h0l-2.6-.2.3-4.6,2.6.2a2.49,2.49,0,0,1,2.1,2.5Z" transform="translate(-0.04 0.05)"/><polygon class="cls-2" points="569.76 115.25 577.76 115.85 577.86 113.85 571.96 113.35 572.46 107.75 577.56 108.15 577.66 106.15 572.56 105.75 572.76 102.45 578.66 102.85 578.76 100.85 570.86 100.25 569.76 115.25"/><path class="cls-2" d="M584.1,101.2l-3.5-.3-1.1,15,3.5.3c4.7.3,7.9-2.4,8.2-7S588.8,101.5,584.1,101.2Zm-.9,13-1.5-.1.8-10.9,1.5.1c3.6.3,5.5,2.4,5.3,5.8s-2.5,5.3-6.1,5.1Z" transform="translate(-0.04 0.05)"/><rect class="cls-2" x="586.31" y="108.42" width="15.1" height="2" transform="translate(441.71 693.86) rotate(-85.85)"/><polygon class="cls-2" points="596.06 104.15 599.76 104.45 598.86 117.35 600.86 117.55 601.86 104.55 605.56 104.85 605.66 102.75 596.26 102.15 596.06 104.15"/><path class="cls-2" d="M622.6,115.3l-.3.2a5.57,5.57,0,0,1-4.1,1.4,5.63,5.63,0,0,1-5.2-6.1,5.69,5.69,0,0,1,6.1-5.2,5.39,5.39,0,0,1,3.8,1.9l.2.3,1.5-1.3-.2-.3a7.73,7.73,0,1,0-.9,10.9h0l.1-.1.3-.2Z" transform="translate(-0.04 0.05)"/><path class="cls-2" d="M631.9,104.7l-8.3,14.5,2.3.2,2.5-4.3,6.4.5,1.8,4.6,2.2.2-6.1-15.6Zm2,8.6-4.4-.3,2.5-4.5Z" transform="translate(-0.04 0.05)"/><path class="cls-2" d="M649.3,110.3a4.37,4.37,0,0,0-4-4.7l-4.6-.3-1.1,15,2,.2.5-6.4,2.2.2,2.7,6.6,2.3.2-2.8-7A4.84,4.84,0,0,0,649.3,110.3Zm-2-.2a2.27,2.27,0,0,1-2.5,2.1l-2.6-.2.3-4.6,2.6.2a2.56,2.56,0,0,1,2.2,2.5Z" transform="translate(-0.04 0.05)"/><path class="cls-2" d="M654.7,106.3l-3.5-.3-1.1,15,3.5.3c4.7.3,7.9-2.4,8.2-7S659.3,106.7,654.7,106.3Zm5.1,7.9c-.3,3.4-2.5,5.3-6.1,5.1l-1.5-.1.8-10.9,1.5.1C658.1,108.6,660,110.7,659.8,114.2Z" transform="translate(-0.04 0.05)"/><rect class="cls-4" x="671.66" y="150.94" width="4" height="87" transform="translate(430.94 852.32) rotate(-85.85)"/><path class="cls-4" d="M444.7,29.3l13.1,1.6a4.16,4.16,0,0,1,3.7,4.6h0L440,210a4.18,4.18,0,0,1-4.7,3.6h0L422.2,212h0Z" transform="translate(-0.04 0.05)"/><rect class="cls-17" x="352.38" y="115.15" width="171.39" height="12.2" transform="translate(264.24 541.31) rotate(-82.99)"/><path class="cls-4" d="M415.5,228.5,306.1,215a8.78,8.78,0,0,1-7.6-9.8h0L322.7,7.7A8.92,8.92,0,0,1,332.5,0L442,13.5a8.78,8.78,0,0,1,7.6,9.8L425.3,220.8A8.87,8.87,0,0,1,415.5,228.5Z" transform="translate(-0.04 0.05)"/><rect class="cls-9" x="315.86" y="186.05" width="16.1" height="26.4" transform="translate(86.59 496.48) rotate(-82.99)"/><rect class="cls-18" x="354.02" y="190.7" width="16.1" height="26.4" transform="translate(115.48 538.44) rotate(-82.99)"/><rect class="cls-19" x="392.19" y="195.46" width="16.1" height="26.4" transform="translate(144.27 580.51) rotate(-82.99)"/><polygon class="cls-20" points="412.36 218.25 388.06 199.05 414.36 202.25 412.36 218.25"/><path class="cls-9" d="M341,16.5l89.6,11a5.57,5.57,0,0,1,4.8,6.1h0l-7.8,63.2a5.57,5.57,0,0,1-6.1,4.8h0l-89.6-11a5.57,5.57,0,0,1-4.8-6.1h0l7.8-63.2a5.51,5.51,0,0,1,6.1-4.8Z" transform="translate(-0.04 0.05)"/><path class="cls-21" d="M422.7,81.5c-15.1,10.5-34.8,11.3-52.5,11A230.41,230.41,0,0,1,340.3,90c-4-.6-8.1-1.1-12.2-1.6a5.72,5.72,0,0,0,4.1,2.6l89.1,11a5.73,5.73,0,0,0,6.4-4.9h0l2.7-22.3A49.36,49.36,0,0,1,422.7,81.5Z" transform="translate(-0.04 0.05)"/><path class="cls-22" d="M341.2,8.9l.3-2.2a2.39,2.39,0,0,1,2.5-2l68.8,8.5a2.39,2.39,0,0,1,2,2.5l-.3,2.2a2.39,2.39,0,0,1-2.5,2l-68.8-8.5A2.14,2.14,0,0,1,341.2,8.9Z" transform="translate(-0.04 0.05)"/><rect class="cls-4" x="347.73" y="42.24" width="3.3" height="15.5" transform="translate(257.1 390.71) rotate(-82.99)"/><rect class="cls-4" x="367.75" y="44.72" width="3.3" height="15.5" transform="translate(272.22 412.76) rotate(-82.99)"/><rect class="cls-4" x="387.89" y="47.21" width="3.3" height="15.5" transform="translate(287.42 434.94) rotate(-82.99)"/><rect class="cls-4" x="408.03" y="49.68" width="3.3" height="15.5" transform="translate(302.66 457.1) rotate(-82.99)"/><g class="cls-23"><path class="cls-24" d="M324.9,111.6l1.4-11.7a1.59,1.59,0,0,1,1.8-1.4l21.7,2.7a1.59,1.59,0,0,1,1.4,1.8l-1.4,11.7a1.59,1.59,0,0,1-1.8,1.4l-21.7-2.7A1.59,1.59,0,0,1,324.9,111.6Z" transform="translate(-0.04 0.05)"/><path class="cls-24" d="M360.7,116l1.4-11.7a1.59,1.59,0,0,1,1.8-1.4l21.7,2.7a1.59,1.59,0,0,1,1.4,1.8l-1.4,11.7a1.59,1.59,0,0,1-1.8,1.4l-21.7-2.7A1.59,1.59,0,0,1,360.7,116Z" transform="translate(-0.04 0.05)"/><path class="cls-24" d="M396.5,120.4l1.4-11.7a1.59,1.59,0,0,1,1.8-1.4l21.7,2.7a1.59,1.59,0,0,1,1.4,1.8l-1.4,11.7a1.59,1.59,0,0,1-1.8,1.4l-21.7-2.7A1.59,1.59,0,0,1,396.5,120.4Z" transform="translate(-0.04 0.05)"/></g><g class="cls-23"><path class="cls-24" d="M322.2,133.9l1.4-11.7a1.59,1.59,0,0,1,1.8-1.4l21.7,2.7a1.59,1.59,0,0,1,1.4,1.8L347.1,137a1.59,1.59,0,0,1-1.8,1.4l-21.7-2.7A1.59,1.59,0,0,1,322.2,133.9Z" transform="translate(-0.04 0.05)"/><path class="cls-24" d="M358,138.3l1.4-11.7a1.59,1.59,0,0,1,1.8-1.4l21.7,2.7a1.59,1.59,0,0,1,1.4,1.8l-1.4,11.7a1.59,1.59,0,0,1-1.8,1.4l-21.7-2.7A1.59,1.59,0,0,1,358,138.3Z" transform="translate(-0.04 0.05)"/><path class="cls-24" d="M393.8,142.7l1.4-11.7a1.59,1.59,0,0,1,1.8-1.4l21.7,2.7a1.59,1.59,0,0,1,1.4,1.8l-1.4,11.7a1.59,1.59,0,0,1-1.8,1.4l-21.7-2.7A1.59,1.59,0,0,1,393.8,142.7Z" transform="translate(-0.04 0.05)"/></g><g class="cls-23"><path class="cls-24" d="M319.4,156.3l1.4-11.7a1.59,1.59,0,0,1,1.8-1.4l21.7,2.7a1.59,1.59,0,0,1,1.4,1.8l-1.4,11.7a1.59,1.59,0,0,1-1.8,1.4l-21.7-2.7A1.71,1.71,0,0,1,319.4,156.3Z" transform="translate(-0.04 0.05)"/><path class="cls-24" d="M355.2,160.6l1.4-11.7a1.59,1.59,0,0,1,1.8-1.4l21.7,2.7a1.59,1.59,0,0,1,1.4,1.8l-1.4,11.7a1.59,1.59,0,0,1-1.8,1.4l-21.7-2.7A1.59,1.59,0,0,1,355.2,160.6Z" transform="translate(-0.04 0.05)"/><path class="cls-24" d="M391,165l1.4-11.7a1.59,1.59,0,0,1,1.8-1.4l21.7,2.7a1.59,1.59,0,0,1,1.4,1.8l-1.4,11.7a1.59,1.59,0,0,1-1.8,1.4l-21.7-2.7A1.67,1.67,0,0,1,391,165Z" transform="translate(-0.04 0.05)"/></g><g class="cls-23"><path class="cls-24" d="M316.7,178.6l1.4-11.7a1.59,1.59,0,0,1,1.8-1.4l21.7,2.7A1.59,1.59,0,0,1,343,170l-1.4,11.7a1.59,1.59,0,0,1-1.8,1.4l-21.7-2.7A1.58,1.58,0,0,1,316.7,178.6Z" transform="translate(-0.04 0.05)"/><path class="cls-24" d="M352.5,183l1.4-11.7a1.59,1.59,0,0,1,1.8-1.4l21.7,2.7a1.59,1.59,0,0,1,1.4,1.8l-1.4,11.7a1.59,1.59,0,0,1-1.8,1.4l-21.7-2.7A1.71,1.71,0,0,1,352.5,183Z" transform="translate(-0.04 0.05)"/><path class="cls-24" d="M388.3,187.4l1.4-11.7a1.59,1.59,0,0,1,1.8-1.4l21.7,2.7a1.59,1.59,0,0,1,1.4,1.8l-1.4,11.7a1.59,1.59,0,0,1-1.8,1.4l-21.7-2.7A1.65,1.65,0,0,1,388.3,187.4Z" transform="translate(-0.04 0.05)"/></g><rect class="cls-4" x="396.89" y="57.48" width="4" height="31.9" transform="translate(277.3 460.43) rotate(-82.99)"/><path class="cls-3" d="M426.2,235.5l3.3-16.9L419.4,207l-5.3,4.8,2.4,12-2.6,2.8,2.9,12.2C416.8,238.9,426.3,235.2,426.2,235.5Z" transform="translate(-0.04 0.05)"/><polygon class="cls-3" points="294.26 201.25 293.06 183.65 307.36 172.55 313.36 180.35 306.86 191.85 309.16 197.85 302.86 207.35 294.26 201.25"/><polygon class="cls-5" points="407.46 401.75 408.56 501.65 397.96 630.25 383.46 630.25 366.16 511.55 346.36 392.75 407.46 401.75"/><polygon class="cls-4" points="383.56 636.35 399.16 644.15 407.06 636.35 399.16 628.45 383.56 628.45 383.56 636.35"/><polygon class="cls-5" points="308.16 401.75 307.96 459.55 317.66 630.25 332.16 630.25 356.36 516.95 369.26 392.75 308.16 401.75"/><polygon class="cls-4" points="332.06 636.35 316.46 644.15 308.56 636.35 316.46 628.45 332.06 628.45 332.06 636.35"/><path class="cls-15" d="M293.2,436.5c-.3,9.2-.1,21.4,3.8,21.9a5.37,5.37,0,0,0,2.1-.5c6.7-3.3,11.5-7.9,18.1-11,6.9-3.3,14.8-5,22.5-6.2a224.74,224.74,0,0,1,34.7-3c9.9-.1,20.3,4.5,29.7,6.9,3.6,1,6.6,3.6,9.6,5.7,4.4,3.1,6.4,4.3,5.8-2-1-10.2-2-20.4-3.3-30.5-2.5-20.3-5.9-40.4-11.6-60-2.2-7.5-4.7-14.9-7.3-22.3l-9.3-27c-3.8-11.2-10.3-19-21.6-23-9.8-3.4-22-4.3-31.5.4-10.6,5.3-15.6,23.1-20.8,32.7-4.5,8.4-10.2,31.2-11.9,40.3-2,10.9-3.9,21.7-5.4,32.5a328.55,328.55,0,0,0-3.1,35.7C293.6,428.4,293.3,432.1,293.2,436.5Z" transform="translate(-0.04 0.05)"/><path class="cls-2" d="M345.5,287.5l19.6.2s21,73.3,21.8,86c.8,12.4,6.1,62.7,6.1,62.7s-21.7.5-46.6,3.5C322,445.1,320,442,320,442s13.1-52.9,13.6-68.1C334,358.4,336,307,336,307Z" transform="translate(-0.04 0.05)"/><path class="cls-3" d="M357.4,287.9a2.18,2.18,0,0,1-.8.5,3.08,3.08,0,0,1-1.9,0l-7.8-.9c.9-7.9-3.8-9.7-8.3-14.8s-3.2-12.1-2.9-18.5a15.38,15.38,0,0,1,.9-5.2c1.3-2.8,4.4-4.4,7.3-5.3,7.5-2.3,16.1-1.8,22.8,2.5a13.22,13.22,0,0,1,4.4,4.4c1.5,2.9,1.1,6.3.7,9.5a32.21,32.21,0,0,1-4.9,14c-2.6,3.9-7.6,5.7-8.1,10.4A5.78,5.78,0,0,1,357.4,287.9Z" transform="translate(-0.04 0.05)"/><path class="cls-5" d="M371.5,254.5c-.4,2-1.4,4-.9,6,3.2-1.1,5.2-4.3,6.3-7.6a12.4,12.4,0,0,0,.8-4.6,5.56,5.56,0,0,0-2-4c-1.7-1.3-4.9-.8-5.4,1.5S372.2,251.5,371.5,254.5Z" transform="translate(-0.04 0.05)"/><path class="cls-5" d="M388.3,237a7.09,7.09,0,0,0-3.1-6c-1.8-1.2-4-2.3-5.1-4.2-.9-1.5-1-3.4-1.9-5-1.6-2.8-4.9-3.6-7.9-4.5-7.3-2.4-11.3-5.1-19.1-2.1-5.5,2.1-12.7,2.4-17.8,5.6a19,19,0,0,0-5.5,5.8c-5.2,8.1-6.4,19.5-3,28a52.78,52.78,0,0,0,2.7,5.3c2,3.3,4.3,7.4,7.9,9.1.2-1.6,1.4-2.4,1.8-4a9.72,9.72,0,0,0,.1-3.4c-.2-4.4-1.6-11.5,2.9-13.7,5.6-2.8,16.1-.3,21.6,2.1,4.8,2.1,12.9,4.8,18,2.6C384.6,250.4,388.5,242.1,388.3,237Z" transform="translate(-0.04 0.05)"/><polygon class="cls-15" points="371.06 287.15 417.56 286.55 413.06 236.65 428.06 231.25 446.16 291.35 437.66 309.45 385.76 324.65 371.06 287.15"/><polygon class="cls-15" points="339.16 284.95 289.56 270.35 307.96 208.25 292.76 197.35 256.26 269.25 266.36 294.15 313.76 318.65 339.16 284.95"/><path class="cls-18" d="M630.6,569l-357.3-1.2a13.44,13.44,0,0,1-13.4-13.6l.8-223.7A13.51,13.51,0,0,1,274.2,317l357.3,1.2A13.53,13.53,0,0,1,645,331.8l-.8,223.7A13.72,13.72,0,0,1,630.6,569Z" transform="translate(-0.04 0.05)"/><path class="cls-4" d="M278.7,421.5l64.5-4.1a1.4,1.4,0,0,1,1.4,1.2l3,47.7a1.4,1.4,0,0,1-1.2,1.4l-64.5,4.1a1.4,1.4,0,0,1-1.4-1.2l-3-47.7A1.27,1.27,0,0,1,278.7,421.5Z" transform="translate(-0.04 0.05)"/><g class="cls-25"><path class="cls-11" d="M347.4,461.6,345.9,438c-15.3,16.7-47.2,26.6-65.4,31.2,0,2.7.6,2.6,3.1,2.5l61.4-4C348.4,467.7,347.7,466.6,347.4,461.6Z" transform="translate(-0.04 0.05)"/></g><rect class="cls-9" x="282.51" y="486.32" width="77.7" height="24.9" transform="translate(-31.22 21.58) rotate(-3.66)"/><rect class="cls-9" x="369.02" y="480.82" width="77.7" height="24.9" transform="translate(-30.7 27.09) rotate(-3.66)"/><rect class="cls-9" x="455.52" y="475.22" width="77.7" height="24.9" transform="translate(-30.16 32.6) rotate(-3.66)"/><rect class="cls-9" x="542.02" y="469.72" width="77.7" height="24.9" transform="translate(-29.63 38.11) rotate(-3.66)"/><path class="cls-9" d="M298.9,392.1a10.7,10.7,0,1,1-1-15.1h0l.5.4,2.6-2.8-.5-.5a14.27,14.27,0,0,0-10.6-3.7,14.58,14.58,0,0,0,1.9,29.1,14.9,14.9,0,0,0,10.1-5l.4-.5-3-2.4Z" transform="translate(-0.04 0.05)"/><path class="cls-9" d="M320.8,377.1a8.32,8.32,0,0,0-8.7-7.7l-8.7.6,1.8,28.4,3.8-.2-.8-12,4.2-.3,6.7,11.6,4.3-.3-7.1-12.3A8.05,8.05,0,0,0,320.8,377.1Zm-3.8.2a4.34,4.34,0,0,1-4,4.6l-4.9.3-.6-8.7,4.9-.3a4.57,4.57,0,0,1,4.6,4.1Z" transform="translate(-0.04 0.05)"/><polygon class="cls-9" points="324.96 397.15 339.96 396.15 339.66 392.35 328.66 393.05 327.96 382.45 337.66 381.85 337.36 377.95 327.66 378.65 327.26 372.35 338.36 371.65 338.16 367.75 323.06 368.75 324.96 397.15"/><path class="cls-9" d="M348.2,367.1l-6.7.4,1.8,28.4,6.7-.4c8.8-.6,14.2-6.5,13.6-15.2S357,366.5,348.2,367.1Zm1.5,24.5-2.8.2-1.3-20.7,2.9-.2c6.8-.4,10.9,3.1,11.4,9.6s-3.5,10.7-10.2,11.1Z" transform="translate(-0.04 0.05)"/><rect class="cls-9" x="366.61" y="365.81" width="3.9" height="28.4" transform="translate(-23.55 24.35) rotate(-3.66)"/><polygon class="cls-9" points="371.26 369.55 378.36 369.05 379.86 393.65 383.76 393.35 382.16 368.85 389.16 368.35 388.96 364.55 371.06 365.65 371.26 369.55"/><path class="cls-9" d="M423.7,383.7l-.4.4a11.13,11.13,0,0,1-7.4,3.6,10.72,10.72,0,0,1-1.4-21.4h0a10.88,10.88,0,0,1,7.8,2.6l.5.4,2.6-2.8-.5-.5a14.59,14.59,0,1,0,1.1,20.6l.2-.2.4-.5Z" transform="translate(-0.04 0.05)"/><path class="cls-9" d="M438.4,361.3l-11.7,29.3,4.3-.3,3.5-8.7,12-.8,4.6,8.2,4.2-.3L440,361.2Zm6,15.8-8.3.5,3.6-9Z" transform="translate(-0.04 0.05)"/><path class="cls-9" d="M472.4,367.4a8.25,8.25,0,0,0-8.7-7.7l-8.7.6,1.8,28.4,3.8-.3-.8-12,4.1-.3,6.8,11.6,4.3-.3-7.1-12.3A7.91,7.91,0,0,0,472.4,367.4Zm-3.8.2a4.34,4.34,0,0,1-4,4.6l-4.9.3-.5-8.7,4.9-.3a4.55,4.55,0,0,1,4.5,4.1Z" transform="translate(-0.04 0.05)"/><path class="cls-9" d="M481.4,358.6l-6.7.4,1.8,28.4,6.7-.4c8.8-.6,14.2-6.5,13.6-15.2S490.3,358,481.4,358.6ZM493,372c.4,6.5-3.3,10.7-10,11.1l-2.9.2-1.4-20.6,2.9-.2C488.5,362,492.6,365.5,493,372Z" transform="translate(-0.04 0.05)"/><path class="cls-6" d="M540.2,371.7A23.14,23.14,0,0,1,549,352a23.2,23.2,0,1,0-10.3,43.1,22.83,22.83,0,0,0,12.8-5A23.43,23.43,0,0,1,540.2,371.7Z" transform="translate(-0.04 0.05)"/><path class="cls-26" d="M566.4,369.9a23.32,23.32,0,0,1,8.7-19.7,22.76,22.76,0,0,0-26.1,1.7,23.27,23.27,0,0,1,7.8,32,22.38,22.38,0,0,1-5.4,6.1,22.91,22.91,0,0,0,26.2-1.7A22.78,22.78,0,0,1,566.4,369.9Z" transform="translate(-0.04 0.05)"/><path class="cls-27" d="M560.1,370.3A23.16,23.16,0,0,0,549,351.9a23.35,23.35,0,0,0-3.7,32.8,22.23,22.23,0,0,0,6.1,5.3A23.32,23.32,0,0,0,560.1,370.3Z" transform="translate(-0.04 0.05)"/><path class="cls-15" d="M587.9,345.3a22.83,22.83,0,0,0-12.8,5,23.39,23.39,0,0,1,7.9,32,24.61,24.61,0,0,1-5.4,6.2,23.24,23.24,0,1,0,10.3-43.2Z" transform="translate(-0.04 0.05)"/><path class="cls-5" d="M586.3,368.7a23,23,0,0,0-11.2-18.4,23.24,23.24,0,0,0-3.7,32.7,24.17,24.17,0,0,0,6.1,5.4A23.25,23.25,0,0,0,586.3,368.7Z" transform="translate(-0.04 0.05)"/><rect class="cls-4" x="457.52" y="515.02" width="164.41" height="7.5" transform="translate(-32.06 35.56) rotate(-3.66)"/><rect class="cls-18" x="263.5" y="346.4" width="377.59" height="184.7" transform="translate(-10.35 10.93) rotate(-1.36)"/></g><rect class="cls-28" x="304.46" y="364.45" width="285.7" height="36"/><text class="cls-29" transform="translate(304.5 391.68)">DON’<tspan class="cls-30" x="97.74" y="0">T</tspan><tspan class="cls-31" x="117.79" y="0" xml:space="preserve"> W</tspan><tspan class="cls-32" x="162.83" y="0">OR</tspan><tspan class="cls-33" x="217.33" y="0">R</tspan><tspan class="cls-32" x="240.84" y="0">Y!</tspan></text><rect class="cls-28" x="277.76" y="422.75" width="349" height="98"/><g class="cls-34"><text class="cls-35" transform="translate(305.23 445.45)"><tspan class="cls-36">W</tspan><tspan x="29.67" y="0">e don’t sha</tspan><tspan class="cls-37" x="189.54" y="0">r</tspan><tspan class="cls-38" x="200.88" y="0">e your </tspan></text><text class="cls-35" transform="translate(285.73 481.45)">c<tspan class="cls-39" x="15.09" y="0">r</tspan><tspan x="26.43" y="0">edit ca</tspan><tspan class="cls-37" x="123.66" y="0">r</tspan><tspan x="135" y="0">d details with </tspan></text><text class="cls-35" transform="translate(393.93 517.45)">anyone<tspan class="cls-40" x="107.79" y="0">.</tspan></text></g></svg>