<svg xmlns="http://www.w3.org/2000/svg" viewBox="0 0 500 424.42"><defs><style>.cls-1{fill:#cae6fe;}.cls-2{fill:#007ce6;}.cls-3{fill:#61b3ff;}.cls-4{fill:#61c2ff;}.cls-5{fill:#abd3f2;}.cls-6{fill:#90c3ef;}.cls-7{fill:#3b3e7d;}.cls-8{fill:#18285d;}.cls-13,.cls-14,.cls-15,.cls-9{fill:#fff;}.cls-10{fill:#e9e2e8;}.cls-11{fill:#005ec9;}.cls-12{fill:#009ef3;}.cls-13{opacity:0.2;}.cls-14{opacity:0.3;}.cls-15{font-size:21px;font-family:AvenirNextLTPro-Bold, Avenir Next LT Pro;font-weight:700;letter-spacing:-0.06em;}.cls-16{letter-spacing:-0.02em;}</style></defs><title>2919100</title><g id="OBJECTS"><path class="cls-1" d="M317.09,60A5.17,5.17,0,0,1,312,65.14H201.8A5.16,5.16,0,0,1,196.66,60a5.17,5.17,0,0,1,5.14-5.15H207a13.42,13.42,0,0,1,21.85-4.16,18.66,18.66,0,0,1,16.08-9.2,18.88,18.88,0,0,1,5.41.8,21.32,21.32,0,0,1,39.38,4.31,13.26,13.26,0,0,1,6-1.42,13.42,13.42,0,0,1,12.9,9.67H312A5.16,5.16,0,0,1,317.09,60Z"/><path class="cls-1" d="M163.65,40.47a3.78,3.78,0,0,1-1.11,2.68,3.74,3.74,0,0,1-2.67,1.11h-81a3.8,3.8,0,0,1-3.79-3.79,3.82,3.82,0,0,1,3.79-3.79H82.7a9.87,9.87,0,0,1,16.07-3.06,13.71,13.71,0,0,1,15.8-6.17,15.68,15.68,0,0,1,29,3.16,9.88,9.88,0,0,1,13.9,6.07h2.44A3.8,3.8,0,0,1,163.65,40.47Z"/><path class="cls-1" d="M437.9,36a3.82,3.82,0,0,1-3.79,3.79h-81A3.8,3.8,0,0,1,349.33,36a3.81,3.81,0,0,1,3.78-3.79h3.83A9.87,9.87,0,0,1,373,29.1a13.71,13.71,0,0,1,15.8-6.17,15.68,15.68,0,0,1,29,3.16,9.88,9.88,0,0,1,13.9,6.07h2.44A3.8,3.8,0,0,1,437.9,36Z"/><path class="cls-1" d="M453.86,204.07a15.25,15.25,0,0,0-4,1.37l-4.2-4.66-5.12,4.6,4,4.47a15.06,15.06,0,0,0-2.18,4l-7-.37-.36,6.88,6.48.33a15.4,15.4,0,0,0,1.61,5.59l-4.66,4.21,4.6,5.11,4.47-4A15.5,15.5,0,0,0,452.3,234l-.3,5.82,6.87.36.29-5.63a15.26,15.26,0,0,0,5.81-2.1l4,4.47,5.12-4.61-4.21-4.66a16,16,0,0,0,1.78-3.79l6.63.34.36-6.87-6.44-.34a15.3,15.3,0,0,0-2.09-5.8l4.46-4L470,202l-4.66,4.2a15.62,15.62,0,0,0-4.59-2l.33-6.44-6.87-.36ZM461.6,215a6.31,6.31,0,1,1-8.9-.46A6.32,6.32,0,0,1,461.6,215Z"/><path class="cls-1" d="M69.68,118.55a15.34,15.34,0,0,0-4,1.38l-4.21-4.67-5.11,4.61,4,4.46a15.26,15.26,0,0,0-2.19,4l-7-.36-.36,6.87,6.48.34A15.52,15.52,0,0,0,59,140.73l-4.66,4.2,4.6,5.12,4.47-4a15.39,15.39,0,0,0,4.76,2.45l-.31,5.83,6.88.35L75,149a15.41,15.41,0,0,0,5.81-2.09l4,4.46,5.11-4.6-4.2-4.67a15.78,15.78,0,0,0,1.78-3.79l6.63.34.36-6.87-6.44-.33a15.2,15.2,0,0,0-2.1-5.81l4.47-4-4.61-5.12-4.66,4.21a15.39,15.39,0,0,0-4.59-2l.33-6.44L70,111.91Zm7.75,10.94a6.31,6.31,0,1,1-8.91-.47A6.32,6.32,0,0,1,77.43,129.49Z"/><path class="cls-1" d="M446.45,174.24a8.53,8.53,0,0,0-2.16.75l-2.3-2.55L439.2,175l2.2,2.45a8.16,8.16,0,0,0-1.19,2.16l-3.84-.2-.2,3.76,3.54.18a8.59,8.59,0,0,0,.88,3.06L438,188.65l2.52,2.8,2.44-2.2a8.69,8.69,0,0,0,2.6,1.34l-.16,3.18,3.75.2.16-3.08a8.3,8.3,0,0,0,3.18-1.15l2.2,2.44,2.79-2.51-2.3-2.55a8.37,8.37,0,0,0,1-2.08l3.63.19.19-3.75-3.52-.19a8.47,8.47,0,0,0-1.14-3.17l2.44-2.2-2.52-2.79-2.55,2.3a8.52,8.52,0,0,0-2.51-1.11l.19-3.52-3.76-.19Zm4.24,6a3.45,3.45,0,1,1-4.87-.25A3.45,3.45,0,0,1,450.69,180.21Z"/><path class="cls-1" d="M44.31,163.8a8.53,8.53,0,0,0-2.16.75L39.85,162l-2.79,2.52,2.2,2.44a8.32,8.32,0,0,0-1.19,2.16l-3.84-.2-.2,3.76,3.54.18a8.59,8.59,0,0,0,.88,3.06l-2.55,2.3L38.42,181l2.44-2.2a8.46,8.46,0,0,0,2.6,1.34l-.16,3.18,3.75.2.16-3.08a8.45,8.45,0,0,0,3.18-1.14l2.2,2.44,2.79-2.52-2.3-2.55a8.3,8.3,0,0,0,1-2.07l3.63.19.19-3.76-3.52-.18a8.45,8.45,0,0,0-1.14-3.18l2.44-2.2-2.52-2.79L50.58,165a8.24,8.24,0,0,0-2.51-1.1l.19-3.52-3.76-.2Zm4.24,6a3.45,3.45,0,1,1-4.87-.25A3.45,3.45,0,0,1,48.55,169.77Z"/><ellipse class="cls-1" cx="240.29" cy="393.86" rx="219.38" ry="16.26"/><path class="cls-2" d="M386.87,173.74a5.92,5.92,0,1,1-5.92-5.92A5.93,5.93,0,0,1,386.87,173.74Zm-1.85,0A4.07,4.07,0,1,0,381,177.8,4.07,4.07,0,0,0,385,173.74Z"/><path class="cls-3" d="M413,156.45a5.92,5.92,0,1,1-5.92-5.92A5.92,5.92,0,0,1,413,156.45Zm-1.86,0a4.06,4.06,0,1,0-4.06,4.06A4.06,4.06,0,0,0,411.09,156.45Z"/><path class="cls-2" d="M409.65,134.11a.93.93,0,0,0-.93.93v4.1a.93.93,0,1,0,1.85,0V135A.93.93,0,0,0,409.65,134.11Z"/><path class="cls-2" d="M409.65,127a.92.92,0,0,0-.93.93V132a.93.93,0,1,0,1.85,0v-4.09A.92.92,0,0,0,409.65,127Z"/><path class="cls-2" d="M415.39,132.58h-3.67a.93.93,0,1,0,0,1.85h3.67a.93.93,0,1,0,0-1.85Z"/><path class="cls-2" d="M407.58,132.58H403.9a.93.93,0,1,0,0,1.85h3.68a.93.93,0,1,0,0-1.85Z"/><path class="cls-4" d="M377.58,149.57a.93.93,0,0,0-.93.93v4.1a.93.93,0,0,0,1.86,0v-4.1A.93.93,0,0,0,377.58,149.57Z"/><path class="cls-4" d="M377.58,142.41a.93.93,0,0,0-.93.92v4.1a.93.93,0,0,0,1.86,0v-4.1A.93.93,0,0,0,377.58,142.41Z"/><path class="cls-4" d="M383.33,148h-3.68a.93.93,0,1,0,0,1.85h3.68a.93.93,0,1,0,0-1.85Z"/><path class="cls-4" d="M375.51,148h-3.68a.93.93,0,1,0,0,1.85h3.68a.93.93,0,1,0,0-1.85Z"/><path class="cls-2" d="M120.42,71.06a5.92,5.92,0,1,1,5.92-5.92A5.93,5.93,0,0,1,120.42,71.06Zm0-1.86a4.06,4.06,0,1,0-4.06-4.06A4.06,4.06,0,0,0,120.42,69.2Z"/><path class="cls-3" d="M137.34,90.61a5.92,5.92,0,1,1,5.92-5.92A5.93,5.93,0,0,1,137.34,90.61Zm0-1.85a4.07,4.07,0,1,0-4.06-4.07A4.08,4.08,0,0,0,137.34,88.76Z"/><path class="cls-2" d="M152.41,60.84a.93.93,0,0,0-.93-.93h-4.09a.93.93,0,0,0,0,1.86h4.09A.93.93,0,0,0,152.41,60.84Z"/><path class="cls-2" d="M159.58,60.84a.93.93,0,0,0-.93-.93h-4.09a.93.93,0,0,0,0,1.86h4.09A.93.93,0,0,0,159.58,60.84Z"/><path class="cls-2" d="M154,66.59V62.91a.93.93,0,0,0-1.86,0v3.68a.93.93,0,0,0,1.86,0Z"/><path class="cls-2" d="M154,58.77V55.09a.93.93,0,1,0-1.86,0v3.68a.93.93,0,1,0,1.86,0Z"/><path class="cls-4" d="M105.91,95.43a.93.93,0,0,0-.93-.93h-4.09a.93.93,0,1,0,0,1.86H105A.93.93,0,0,0,105.91,95.43Z"/><path class="cls-4" d="M113.08,95.43a.93.93,0,0,0-.93-.93h-4.1a.93.93,0,0,0,0,1.86h4.1A.93.93,0,0,0,113.08,95.43Z"/><path class="cls-4" d="M107.44,101.18V97.5a.93.93,0,1,0-1.85,0v3.68a.93.93,0,1,0,1.85,0Z"/><path class="cls-4" d="M107.44,93.36V89.69a.93.93,0,1,0-1.85,0v3.67a.93.93,0,1,0,1.85,0Z"/><path class="cls-5" d="M327.07,117l2.37,1.4,1.25.74,3.55,2.1S401.44,87.66,392.86,57C390.21,47.5,376.49,45,362.65,71.66,349.81,96.33,327.07,117,327.07,117Z"/><path class="cls-6" d="M329.44,118.43l1.25.74c14.11-9.55,26.09-21.87,33.92-30.89a208.15,208.15,0,0,0,15-19.3.66.66,0,0,0-.19-.91.65.65,0,0,0-.91.18A204.32,204.32,0,0,1,363.6,87.44C355.73,96.5,343.65,108.91,329.44,118.43Z"/><path class="cls-1" d="M314.77,125l2.23,3.07,1.19,1.62,3.36,4.61s103.63-6,109.5-49.64c1.81-13.43-14.26-24-46.37,2.17C354.92,111.14,314.77,125,314.77,125Z"/><path class="cls-5" d="M317,128.07l1.19,1.62c23.12-4.41,45.05-13.51,59.91-20.68a286.17,286.17,0,0,0,29.54-16.33.91.91,0,0,0-1-1.52,285.15,285.15,0,0,1-29.36,16.22C362.35,114.59,340.24,123.75,317,128.07Z"/><path class="cls-5" d="M189.31,343.5l-2.38,1.39-1.25.73-3.57,2.08s-67-34-58.22-64.67c2.7-9.44,16.43-11.82,30.12,14.88C166.7,322.67,189.31,343.5,189.31,343.5Z"/><path class="cls-6" d="M186.93,344.89l-1.25.73c-14.06-9.63-26-22-33.74-31.09a205.19,205.19,0,0,1-14.85-19.4.66.66,0,1,1,1.11-.71A202.33,202.33,0,0,0,153,313.69C160.77,322.8,172.78,335.29,186.93,344.89Z"/><path class="cls-1" d="M201.56,351.55l-2.25,3.05-1.2,1.62-3.39,4.59s-103.59-6.61-109.2-50.3c-1.72-13.45,14.41-24,46.36,2.45C161.49,337.45,201.56,351.55,201.56,351.55Z"/><path class="cls-5" d="M199.31,354.6l-1.2,1.62c-23.1-4.55-45-13.78-59.78-21.05a283.07,283.07,0,0,1-29.44-16.51.91.91,0,1,1,1-1.51,281.12,281.12,0,0,0,29.26,16.4C154.05,340.85,176.1,350.15,199.31,354.6Z"/><path class="cls-5" d="M328.25,300.91c13.1-16.85,25.78-35.23,32.75-48.39,9.1-17.2,12.75-31,10.85-41a1.22,1.22,0,1,0-2.4.46c3.33,17.46-11.87,48.05-44,88.52Z"/><path class="cls-1" d="M367.84,236.51s8.47,5.7,17.89-9.58C385.73,226.93,370.3,221.89,367.84,236.51Z"/><path class="cls-1" d="M363.39,244.64s6.15-8.14-8.58-18.4C354.81,226.24,348.92,241.37,363.39,244.64Z"/><path class="cls-1" d="M371,219.42s8.52-5.62-1.95-20.21C369,199.21,358.45,211.51,371,219.42Z"/><path class="cls-1" d="M354.93,261.27s6,8.22,20.08-3C375,258.3,362.19,248.34,354.93,261.27Z"/><path class="cls-1" d="M349.14,268.86s7.47-6.95-5.26-19.6C343.88,249.26,335.46,263.14,349.14,268.86Z"/><path class="cls-1" d="M342.24,280.05s5.89,8.33,20.14-2.59C362.38,277.46,349.75,267.26,342.24,280.05Z"/><path class="cls-5" d="M182.76,195.9c-17.33-12.46-34.69-26.51-45.1-37.16-13.59-13.92-21-26.1-22-36.23a1.23,1.23,0,0,1,1.1-1.33,1.21,1.21,0,0,1,1.33,1.1c1.74,17.69,25,42.73,67.22,72.47Z"/><path class="cls-1" d="M126.58,145.32s-6.52,7.86-19.88-4.13C106.7,141.19,120.08,132,126.58,145.32Z"/><path class="cls-1" d="M133.15,151.86s-8.21-6.06,3-20.07C136.16,131.79,146.09,144.63,133.15,151.86Z"/><path class="cls-1" d="M118.72,129.82s-9.76-3-3.85-19.93C114.87,109.89,128.51,118.69,118.72,129.82Z"/><path class="cls-1" d="M146,165.42s-3.47,9.59-20.1,2.83C125.86,168.25,135.33,155.07,146,165.42Z"/><path class="cls-1" d="M153.66,171.06s-9.13-4.55-.5-20.29C153.16,150.77,165.16,161.7,153.66,171.06Z"/><path class="cls-1" d="M163.44,179.84s-3.29,9.66-20.05,3.22C143.39,183.06,152.62,169.7,163.44,179.84Z"/><path class="cls-7" d="M348.21,91.35V376.68A16.19,16.19,0,0,1,332,392.87H189.93a16.18,16.18,0,0,1-16.2-16.19V91.35a16.2,16.2,0,0,1,16.2-16.2H332a16.19,16.19,0,0,1,16.19,16.2Z"/><path class="cls-8" d="M342.18,91.35V376.68A16.19,16.19,0,0,1,326,392.87H183.89a16.18,16.18,0,0,1-16.19-16.19V91.35a16.19,16.19,0,0,1,16.19-16.2H326a16.19,16.19,0,0,1,16.2,16.2Z"/><path class="cls-8" d="M345.25,145.33h2.24a3.79,3.79,0,0,0,3.78-3.79v-18.2a3.78,3.78,0,0,0-3.78-3.78h-2.24Z"/><path class="cls-8" d="M167.7,145.33h-1.76a3,3,0,0,1-3-3V122.52a3,3,0,0,1,3-3h1.76Z"/><path class="cls-8" d="M167.7,179.14h-1.76a3,3,0,0,1-3-3V156.33a3,3,0,0,1,3-3h1.76Z"/><path class="cls-9" d="M334.1,90.36v287.3a7.14,7.14,0,0,1-7.14,7.13h-144a7.12,7.12,0,0,1-6.56-4.34,7,7,0,0,1-.57-2.79V90.36a7.13,7.13,0,0,1,7.13-7.13H327a6.85,6.85,0,0,1,1.37.13,7.06,7.06,0,0,1,1.44.44A7.17,7.17,0,0,1,334,89.19,7.49,7.49,0,0,1,334.1,90.36Z"/><path class="cls-2" d="M298.39,331.94v25.78a3.3,3.3,0,0,1-3.42,3.17H218.68a3.3,3.3,0,0,1-3.42-3.17V331.94a3.3,3.3,0,0,1,3.42-3.16H295A3.3,3.3,0,0,1,298.39,331.94Z"/><rect class="cls-10" x="176.23" y="171.85" width="72.07" height="127.53"/><path class="cls-8" d="M270.77,161.92V294.44a13.93,13.93,0,0,1-9.52,13.18,13.75,13.75,0,0,1-4.37.71A13.93,13.93,0,0,1,243,294.44V161.92a13.93,13.93,0,0,1,13.9-13.9,13.75,13.75,0,0,1,4.37.71,14,14,0,0,1,9.52,13.19Z"/><path class="cls-7" d="M270.77,161.92V294.44a13.93,13.93,0,0,1-9.52,13.18,13.94,13.94,0,0,1-9.52-13.18V161.92a14,14,0,0,1,9.52-13.19,14,14,0,0,1,9.52,13.19Z"/><path class="cls-10" d="M334.1,90.36v29.55H175.78V90.36a7.13,7.13,0,0,1,7.13-7.13H327a6.85,6.85,0,0,1,1.37.13,7.06,7.06,0,0,1,1.44.44A7.17,7.17,0,0,1,334,89.19,7.49,7.49,0,0,1,334.1,90.36Z"/><path class="cls-2" d="M171.73,120.9l0,0v9.87a14.85,14.85,0,0,1-29.6,1.66,15,15,0,0,1-.09-1.66v-9.68l36.25-36.25a5.69,5.69,0,0,1,4-1.66h26.52Z"/><path class="cls-11" d="M171.69,121v9.87a14.85,14.85,0,0,1-29.6,1.66L142,121.14l29.73-.24Z"/><path class="cls-2" d="M268.18,83.23l-37.09,37.09v10.5a14.85,14.85,0,1,1-29.7,0V120.65l37.09-37.42Z"/><path class="cls-11" d="M231.09,120.41v10.41a14.85,14.85,0,1,1-29.7,0V120.65Z"/><path class="cls-2" d="M291.36,119.91v10.91a14.85,14.85,0,0,1-14.85,14.85c-8.2,0-15.75-6.65-15.75-14.85l.06-10.5.16-.16,36.87-36.93h30.6Z"/><path class="cls-11" d="M291.37,130.82a14.85,14.85,0,0,1-14.85,14.85c-8.2,0-15.75-6.65-15.75-14.85l.06-10.5.16-.16,30.37-.25Z"/><path class="cls-9" d="M321.05,119.66h0v11.15a14.85,14.85,0,0,1-29.7,0V119.91l37-36.55a7.06,7.06,0,0,1,1.44.44A7.17,7.17,0,0,1,334,89.19a7.49,7.49,0,0,1,.1,1.17v16.49Z"/><path class="cls-10" d="M321.06,130.82a14.85,14.85,0,0,1-29.7,0V119.91l29.69-.24Z"/><path class="cls-9" d="M238.47,83.23l-37.09,37.42v10.17a14.85,14.85,0,1,1-29.69,0V121l0,0,37.05-37.67Z"/><path class="cls-10" d="M201.38,120.65v10.17a14.85,14.85,0,1,1-29.69,0V121l0,0Z"/><path class="cls-9" d="M297.86,83.23l-37.09,37.09v10.5a14.85,14.85,0,1,1-29.69,0v-10.5l37.1-37.09Z"/><path class="cls-10" d="M260.93,120.16l-.16.16v10.5a14.85,14.85,0,1,1-29.69,0V120.41Z"/><path class="cls-2" d="M265,173.44V283.11A8.94,8.94,0,0,1,256,292H69.77a8.92,8.92,0,0,1-8.93-8.93V173.44a8.93,8.93,0,0,1,8.93-8.93H256A8.94,8.94,0,0,1,265,173.44Z"/><rect class="cls-7" x="60.84" y="187.06" width="204.11" height="24.31"/><rect class="cls-12" x="202.2" y="258.74" width="48.01" height="16.82" rx="4.24"/><rect class="cls-12" x="72.69" y="231.03" width="15.6" height="9.17" rx="1.07"/><rect class="cls-12" x="100.16" y="231.03" width="15.6" height="9.17" rx="1.07"/><rect class="cls-12" x="127.63" y="231.03" width="15.6" height="9.17" rx="1.07"/><rect class="cls-12" x="155.1" y="231.03" width="15.6" height="9.17" rx="1.07"/><rect class="cls-12" x="182.57" y="231.03" width="15.6" height="9.17" rx="1.07"/><rect class="cls-12" x="210.04" y="231.03" width="15.6" height="9.17" rx="1.07"/><rect class="cls-12" x="237.51" y="231.03" width="15.6" height="9.17" rx="1.07"/><rect class="cls-12" x="60.84" y="174.18" width="204.11" height="4.66"/><rect class="cls-12" x="72.69" y="250.49" width="27.47" height="27.47" rx="6.93"/><rect class="cls-12" x="106.71" y="263.37" width="88.93" height="7.57" rx="2.38"/><path class="cls-13" d="M189.33,164.51,64,289.89a8.94,8.94,0,0,1-3.11-6.78V244.63L141,164.51Z"/><polygon class="cls-13" points="255.64 164.51 128.11 292.04 104.45 292.04 231.98 164.51 255.64 164.51"/><path class="cls-3" d="M417.1,395.54H399c-2.46,0-4.65-2.79-5.41-6.91l-7.67-41.57c-.32-1.7.36-3.47,1.37-3.61a151.46,151.46,0,0,1,41.51,0c1,.14,1.69,1.9,1.38,3.6l-7.68,41.58C421.74,392.75,419.56,395.54,417.1,395.54Z"/><ellipse class="cls-8" cx="408.16" cy="345.54" rx="19.85" ry="2.22"/><path class="cls-2" d="M442.44,290.29C431.57,287.42,415,310,409.92,332V299.93c2.53-4.49,7.37-11.26,16.15-18.41,13.65-11.12,26.21-25.38,15.32-28.25-10.2-2.69-25.47,17-31.47,37.66V249.77a43.9,43.9,0,0,1,9.24-10.07c8.61-7,16.53-16,9.66-17.8-5.95-1.57-14.65,9-18.9,20.86V229.42a63.17,63.17,0,0,1,4.43-16c6.32-14,9.74-28.35,1.4-27.28s-13.77,25.94-9.2,45V238c-3.08-14-13.67-28.44-20.57-26.62s1,10.8,9.65,17.81c6.55,5.33,9.62,10.32,10.92,13v32.43c-4.95-22.11-21.68-44.94-32.6-42.06s1.67,17.14,15.32,28.26c10.32,8.4,15.19,16.27,17.28,20.55v38.89c-5.29-21.71-21.59-43.61-32.31-40.79-10.89,2.87-1.55,13.3,13.79,25.91a72.34,72.34,0,0,1,18.52,22.53v18.32a5.68,5.68,0,0,0,3.37,0v-7.29c2.13-4.32,7-12.1,17.2-20.4C440.77,307.42,453.33,293.16,442.44,290.29Z"/><path class="cls-12" d="M120.26,388.58v.11a5.42,5.42,0,0,1-2.07,3.91,12.84,12.84,0,0,1-1.1.88,21.43,21.43,0,0,1-4.14,2.27c-.35.16-.71.31-1.09.45-1.26.5-2.65,1-4.14,1.4l-1.09.3c-1.31.35-2.69.67-4.14,1l-1.09.21c-1.33.25-2.72.48-4.14.68-.37.06-.73.11-1.1.15-1.34.18-2.72.33-4.14.46l-1.09.1c-1.35.11-2.73.19-4.14.26l-1.09,0q-2,.08-4.14.09H80.47c-1.4,0-2.78,0-4.14-.08l-1.1,0c-1-.05-2.06-.11-3.06-.18l-1.08-.08c-.36,0-.73-.05-1.09-.09-1.41-.12-2.8-.27-4.14-.44l-1.09-.14q-1.29-.18-2.52-.39l-1.62-.28-1.09-.21c-1.45-.29-2.84-.6-4.15-.94l-.76-.21-.33-.09-1.72-.51c-.85-.27-1.65-.55-2.42-.84l-1.09-.44A25,25,0,0,1,45.4,394c-.16-.1-.32-.2-.47-.31s-.37-.25-.55-.38l-.54-.43c-1.58-1.32-2.44-2.75-2.44-4.23,0-.11,0-.21,0-.31V380h78.84v8.74Z"/><path class="cls-2" d="M44.93,380v13.78c-.19-.12-.37-.25-.55-.38l-.54-.43V380Z"/><path class="cls-2" d="M50.16,380v16.4l-1.09-.44V380Z"/><path class="cls-2" d="M55.39,379.94V398l-.76-.21-.33-.09V379.94Z"/><path class="cls-2" d="M60.63,379.93v19.22l-1.09-.21v-19Z"/><path class="cls-2" d="M65.86,379.92v20l-1.09-.14v-19.9Z"/><path class="cls-2" d="M71.09,379.91v20.58c-.36,0-.73-.05-1.09-.09V379.92Z"/><path class="cls-2" d="M76.33,379.91v20.88l-1.1,0V379.91Z"/><path class="cls-2" d="M81.56,379.9v21H80.47v-21Z"/><path class="cls-2" d="M86.79,379.89v20.84l-1.09,0V379.89Z"/><path class="cls-2" d="M92,379.88v20.49l-1.09.1V379.89Z"/><path class="cls-2" d="M97.26,379.88v19.88c-.37.06-.73.11-1.1.15v-20Z"/><path class="cls-2" d="M102.49,379.87v19l-1.09.21V379.87Z"/><path class="cls-2" d="M107.72,379.86V397.6l-1.09.3v-18Z"/><path class="cls-2" d="M113,379.85v15.9c-.35.16-.71.31-1.09.45V379.85Z"/><path class="cls-2" d="M118.19,379.85V392.6a12.84,12.84,0,0,1-1.1.88V379.85Z"/><path class="cls-4" d="M120.25,380c0,6.18-17.65,11.19-39.42,11.19q-4.47,0-8.66-.27c-3.5-.22-6.83-.58-9.91-1-2.76-.42-5.31-.93-7.62-1.52-.71-.17-1.39-.36-2-.55a33.36,33.36,0,0,1-7.18-2.89c-.36-.21-.7-.42-1-.64-1.93-1.32-3-2.77-3-4.28a3,3,0,0,1,0-.42c.77-6,18.11-10.78,39.39-10.78a129.62,129.62,0,0,1,14.81.82c.88.1,1.75.21,2.6.33a79.94,79.94,0,0,1,10,2c.65.18,1.27.36,1.88.55a32.5,32.5,0,0,1,5.52,2.25,11.54,11.54,0,0,1,3.55,2.68,4.27,4.27,0,0,1,1,2.14A3,3,0,0,1,120.25,380Z"/><path class="cls-14" d="M119.22,377.39l-47,13.48c-3.5-.22-6.83-.58-9.91-1l53.41-15.12A11.54,11.54,0,0,1,119.22,377.39Z"/><path class="cls-14" d="M98.24,369.9l-52.83,15c-.36-.21-.7-.42-1-.64l51.24-14.66C96.52,369.67,97.39,369.78,98.24,369.9Z"/><path class="cls-14" d="M110.15,372.46,54.64,388.31c-.71-.17-1.39-.36-2-.55l55.68-15.85C108.92,372.09,109.54,372.27,110.15,372.46Z"/><path class="cls-2" d="M112.34,380c0,.14,0,.27,0,.41-.76,4.74-14.59,8.54-31.48,8.54s-30.72-3.8-31.48-8.54c0-.14,0-.27,0-.41,0-4.94,14.14-8.95,31.51-8.95S112.34,375,112.34,380Z"/><path class="cls-12" d="M112.31,380.36c-.76,4.74-14.59,8.54-31.48,8.54H79.7A101.82,101.82,0,0,1,69,388.24a71.14,71.14,0,0,1-9-1.58c-.67-.17-1.32-.35-1.94-.53a22.37,22.37,0,0,1-6.59-2.94,6.6,6.6,0,0,1-1-.81,3.77,3.77,0,0,1-1.16-2c.76-4.74,14.59-8.54,31.48-8.54,2.14,0,4.23.06,6.25.18,1,.06,2,.13,3,.22a77.21,77.21,0,0,1,10.94,1.69c.69.17,1.35.34,2,.52a27.41,27.41,0,0,1,6.1,2.42,6.67,6.67,0,0,1,3,2.84A2.71,2.71,0,0,1,112.31,380.36Z"/><path class="cls-13" d="M112.11,379.69l-32.41,9.2A101.82,101.82,0,0,1,69,388.24l40.14-11.39A6.67,6.67,0,0,1,112.11,379.69Z"/><path class="cls-13" d="M90.12,372.22l-38.65,11a6.6,6.6,0,0,1-1-.81L87.08,372C88.11,372.06,89.12,372.13,90.12,372.22Z"/><path class="cls-13" d="M103.05,374.43,60,386.66c-.67-.17-1.32-.35-1.94-.53l43-12.22C101.75,374.08,102.41,374.25,103.05,374.43Z"/><path class="cls-2" d="M85.21,385v1.48H78.56v-1.42a86.3,86.3,0,0,1-12.12-.94l3.59-2.3a71.15,71.15,0,0,0,10.89.86c3.16,0,4.29-.19,4.29-.51C85.21,381,67,382,67,378.48c0-1.52,3.87-2.79,11.6-3.1v-1.46h6.65v1.44a76.2,76.2,0,0,1,9.58.77l-3.35,2.29a64.45,64.45,0,0,0-9.2-.69c-3.25,0-4.29.26-4.29.59,0,1.12,18.25.18,18.25,3.64C96.2,383.4,92.52,384.66,85.21,385Z"/><path class="cls-4" d="M85,384.53V386H78.37V384.6a86.17,86.17,0,0,1-12.12-.94l3.58-2.3a71.43,71.43,0,0,0,10.9.85c3.16,0,4.29-.18,4.29-.51,0-1.17-18.25-.22-18.25-3.72,0-1.51,3.86-2.78,11.6-3.09v-1.46H85v1.43a75.89,75.89,0,0,1,9.57.78l-3.35,2.29a64.39,64.39,0,0,0-9.19-.7c-3.26,0-4.29.27-4.29.59C77.76,379,96,378,96,381.46,96,382.91,92.33,384.17,85,384.53Z"/><path class="cls-12" d="M122.74,374.77v.11a5.4,5.4,0,0,1-2.08,3.91,11.27,11.27,0,0,1-1.09.88,21.73,21.73,0,0,1-4.14,2.27c-.35.16-.72.31-1.09.45-1.26.5-2.65,1-4.14,1.4l-1.09.3c-1.31.35-2.69.67-4.14,1l-1.1.21c-1.33.25-2.71.48-4.14.68-.36.06-.72.11-1.09.15-1.34.18-2.72.33-4.14.46l-1.09.09c-1.35.12-2.74.2-4.14.27l-1.09.05q-2,.07-4.14.09h-1.1c-1.4,0-2.78,0-4.14-.08l-1.09,0c-1-.05-2.06-.11-3.07-.18l-1.07-.08c-.37,0-.73-.05-1.09-.09-1.42-.12-2.8-.27-4.14-.44-.37,0-.73-.09-1.09-.15-.86-.11-1.7-.24-2.52-.38l-1.62-.28-1.1-.21c-1.45-.29-2.83-.6-4.14-.94L57.1,384l-.32-.09c-.59-.17-1.17-.34-1.73-.52-.84-.26-1.65-.54-2.41-.83l-1.09-.44a25,25,0,0,1-3.67-1.87,5.46,5.46,0,0,1-.47-.31c-.19-.12-.38-.25-.55-.38l-.55-.43c-1.57-1.32-2.44-2.75-2.44-4.23a3,3,0,0,1,0-.31v-8.42h78.83l0,8.74Z"/><path class="cls-2" d="M47.41,366.14v13.78c-.19-.12-.38-.25-.55-.38l-.55-.43v-13Z"/><path class="cls-2" d="M52.64,366.13v16.41l-1.09-.44v-16Z"/><path class="cls-2" d="M57.87,366.13v18.06L57.1,384l-.32-.09V366.13Z"/><path class="cls-2" d="M63.11,366.12v19.22l-1.1-.21v-19Z"/><path class="cls-2" d="M68.34,366.11v20c-.37,0-.73-.09-1.09-.15V366.11Z"/><path class="cls-2" d="M73.57,366.1v20.58c-.37,0-.73-.05-1.09-.09V366.11Z"/><path class="cls-2" d="M78.8,366.1V387l-1.09,0V366.1Z"/><path class="cls-2" d="M84,366.09v21h-1.1v-21Z"/><path class="cls-2" d="M89.27,366.08v20.84l-1.09.05V366.08Z"/><path class="cls-2" d="M94.5,366.07v20.49l-1.09.09V366.07Z"/><path class="cls-2" d="M99.73,366.07V386c-.36.06-.72.11-1.09.15v-20Z"/><path class="cls-2" d="M105,366.06v19l-1.1.21V366.06Z"/><path class="cls-2" d="M110.2,366.05v17.74l-1.09.3v-18Z"/><path class="cls-2" d="M115.43,366v15.9c-.35.16-.72.31-1.09.45V366Z"/><path class="cls-2" d="M120.66,366v12.75a11.27,11.27,0,0,1-1.09.88V366Z"/><path class="cls-4" d="M122.73,366.14c0,6.18-17.65,11.19-39.42,11.19-3,0-5.88-.09-8.66-.27-3.51-.22-6.83-.58-9.92-1-2.75-.42-5.3-.93-7.62-1.52-.7-.17-1.39-.36-2-.55a33,33,0,0,1-7.17-2.89c-.36-.21-.7-.42-1-.64-1.92-1.32-3-2.77-3-4.28a3,3,0,0,1,0-.42c.76-6,18.11-10.78,39.39-10.78a129.44,129.44,0,0,1,14.8.82c.89.1,1.75.21,2.6.33a79.75,79.75,0,0,1,10,2c.65.18,1.27.36,1.88.55a32.5,32.5,0,0,1,5.52,2.25,11.61,11.61,0,0,1,3.54,2.68,4.29,4.29,0,0,1,1,2.14A3,3,0,0,1,122.73,366.14Z"/><path class="cls-14" d="M121.69,363.58l-47,13.48c-3.51-.22-6.83-.58-9.92-1l53.42-15.12A11.61,11.61,0,0,1,121.69,363.58Z"/><path class="cls-14" d="M100.71,356.09l-52.82,15c-.36-.21-.7-.42-1-.64l51.24-14.66C99,355.86,99.86,356,100.71,356.09Z"/><path class="cls-14" d="M112.63,358.65,57.11,374.5c-.7-.17-1.39-.36-2-.55l55.69-15.85C111.4,358.28,112,358.46,112.63,358.65Z"/><path class="cls-2" d="M114.82,366.14a2.85,2.85,0,0,1,0,.41c-.76,4.74-14.58,8.54-31.47,8.54s-30.72-3.8-31.48-8.54a2.83,2.83,0,0,1,0-.41c0-4.94,14.13-8.95,31.51-8.95S114.82,361.2,114.82,366.14Z"/><path class="cls-12" d="M114.78,366.55c-.76,4.74-14.58,8.54-31.47,8.54H82.18a101.48,101.48,0,0,1-10.69-.65,71.14,71.14,0,0,1-9-1.58c-.67-.17-1.32-.35-1.94-.53A22.13,22.13,0,0,1,54,369.38a6.6,6.6,0,0,1-1-.81,3.77,3.77,0,0,1-1.16-2c.76-4.75,14.59-8.54,31.48-8.54,2.13,0,4.22.06,6.24.18,1,.06,2,.13,3,.22a77.14,77.14,0,0,1,11,1.69c.69.17,1.35.34,2,.52a27.12,27.12,0,0,1,6.09,2.42,6.65,6.65,0,0,1,3,2.84A2.69,2.69,0,0,1,114.78,366.55Z"/><path class="cls-13" d="M114.59,365.88l-32.41,9.2a101.48,101.48,0,0,1-10.69-.65L111.62,363A6.65,6.65,0,0,1,114.59,365.88Z"/><path class="cls-13" d="M92.59,358.41,54,369.38a6.6,6.6,0,0,1-1-.81l36.56-10.38C90.58,358.25,91.6,358.32,92.59,358.41Z"/><path class="cls-13" d="M105.53,360.62,62.48,372.85c-.67-.17-1.32-.35-1.94-.53l43-12.22C104.23,360.27,104.89,360.44,105.53,360.62Z"/><path class="cls-2" d="M87.69,371.22v1.48H81v-1.42a86.17,86.17,0,0,1-12.12-.94L72.5,368a71.38,71.38,0,0,0,10.9.86c3.16,0,4.29-.19,4.29-.51,0-1.18-18.25-.23-18.25-3.72,0-1.52,3.87-2.79,11.6-3.1v-1.46h6.65v1.44a76,76,0,0,1,9.57.77l-3.35,2.29a64.21,64.21,0,0,0-9.19-.69c-3.26,0-4.29.26-4.29.59,0,1.12,18.25.18,18.25,3.64C98.68,369.59,95,370.85,87.69,371.22Z"/><path class="cls-4" d="M87.5,370.72v1.49H80.85v-1.42a86.17,86.17,0,0,1-12.12-.94l3.58-2.3a71.19,71.19,0,0,0,10.89.85c3.16,0,4.3-.18,4.3-.51,0-1.17-18.26-.22-18.26-3.72,0-1.51,3.87-2.78,11.61-3.09v-1.46H87.5v1.43a75.89,75.89,0,0,1,9.57.78l-3.35,2.29a64.42,64.42,0,0,0-9.2-.7c-3.25,0-4.29.27-4.29.59,0,1.13,18.25.19,18.25,3.64C98.48,369.1,94.81,370.36,87.5,370.72Z"/><path class="cls-12" d="M122.37,361a.37.37,0,0,1,0,.11A5.42,5.42,0,0,1,120.3,365a12.64,12.64,0,0,1-1.09.88,21.73,21.73,0,0,1-4.14,2.27c-.35.16-.72.31-1.09.45-1.27.5-2.65,1-4.14,1.4l-1.09.3c-1.31.35-2.69.67-4.15,1l-1.09.21c-1.33.25-2.71.48-4.14.68-.36.06-.72.1-1.09.15-1.34.18-2.73.33-4.14.46l-1.09.09c-1.36.12-2.74.2-4.14.27l-1.1.05q-2,.07-4.14.09H82.58c-1.4,0-2.78,0-4.14-.08l-1.09,0c-1-.05-2.06-.11-3.07-.18l-1.07-.08c-.37,0-.73-.05-1.09-.09-1.42-.12-2.8-.27-4.14-.44l-1.1-.15c-.85-.11-1.69-.24-2.52-.38l-1.62-.28-1.09-.21c-1.45-.29-2.83-.6-4.14-.94l-.77-.21-.32-.09c-.59-.17-1.17-.34-1.73-.52-.84-.26-1.65-.54-2.41-.83l-1.09-.44a25.68,25.68,0,0,1-3.68-1.87l-.46-.31c-.19-.12-.38-.25-.55-.38L46,365.3c-1.58-1.32-2.44-2.75-2.44-4.23a3,3,0,0,1,0-.31v-8.42h78.83l0,8.74Z"/><path class="cls-2" d="M47.05,352.33v13.78c-.19-.12-.38-.25-.55-.38L46,365.3v-13Z"/><path class="cls-2" d="M52.28,352.32v16.41l-1.09-.44v-16Z"/><path class="cls-2" d="M57.51,352.32v18.06l-.77-.21-.32-.09V352.32Z"/><path class="cls-2" d="M62.74,352.31v19.22l-1.09-.21v-19Z"/><path class="cls-2" d="M68,352.3v20l-1.1-.15V352.3Z"/><path class="cls-2" d="M73.21,352.29v20.58c-.37,0-.73-.05-1.09-.09V352.3Z"/><path class="cls-2" d="M78.44,352.29v20.88l-1.09,0V352.29Z"/><path class="cls-2" d="M83.67,352.28v21H82.58v-21Z"/><path class="cls-2" d="M88.91,352.27v20.84l-1.1.05V352.27Z"/><path class="cls-2" d="M94.14,352.26v20.49l-1.09.09V352.26Z"/><path class="cls-2" d="M99.37,352.26v19.88c-.36.06-.72.1-1.09.15v-20Z"/><path class="cls-2" d="M104.6,352.25v19l-1.09.21V352.25Z"/><path class="cls-2" d="M109.84,352.24V370l-1.09.3v-18Z"/><path class="cls-2" d="M115.07,352.23v15.9c-.35.16-.72.31-1.09.45V352.23Z"/><path class="cls-2" d="M120.3,352.22V365a12.64,12.64,0,0,1-1.09.88V352.23Z"/><path class="cls-4" d="M122.37,352.33c0,6.18-17.65,11.19-39.42,11.19-3,0-5.88-.09-8.66-.27-3.51-.22-6.83-.58-9.92-1-2.75-.42-5.31-.93-7.62-1.52-.7-.17-1.39-.36-2-.55a33,33,0,0,1-7.17-2.89c-.36-.21-.7-.42-1-.64-1.92-1.32-3-2.77-3-4.28a3,3,0,0,1,0-.42c.76-6,18.11-10.78,39.39-10.78a129.44,129.44,0,0,1,14.8.82c.88.1,1.75.21,2.6.33a79.75,79.75,0,0,1,10,2c.64.18,1.27.36,1.87.55a32.29,32.29,0,0,1,5.53,2.25,11.61,11.61,0,0,1,3.54,2.68,4.29,4.29,0,0,1,1,2.14A3,3,0,0,1,122.37,352.33Z"/><path class="cls-14" d="M121.33,349.77l-47,13.48c-3.51-.22-6.83-.58-9.92-1l53.42-15.12A11.61,11.61,0,0,1,121.33,349.77Z"/><path class="cls-14" d="M100.35,342.28l-52.82,15c-.36-.21-.7-.42-1-.64L97.75,342C98.63,342.05,99.5,342.16,100.35,342.28Z"/><path class="cls-14" d="M112.26,344.84,56.75,360.69c-.7-.17-1.39-.36-2-.55l55.69-15.85C111,344.47,111.66,344.65,112.26,344.84Z"/><path class="cls-2" d="M114.45,352.33a2.83,2.83,0,0,1,0,.41c-.76,4.74-14.58,8.54-31.47,8.54s-30.72-3.8-31.48-8.54a2.83,2.83,0,0,1,0-.41c0-4.94,14.13-8.95,31.51-8.95S114.45,347.39,114.45,352.33Z"/><path class="cls-12" d="M114.42,352.74c-.76,4.74-14.58,8.54-31.47,8.54H81.82a101.48,101.48,0,0,1-10.69-.65,70.82,70.82,0,0,1-9-1.58c-.68-.17-1.32-.35-1.95-.53a22.37,22.37,0,0,1-6.59-2.94,7.06,7.06,0,0,1-.95-.81,3.74,3.74,0,0,1-1.16-2C52.23,348,66.06,344.2,83,344.2c2.13,0,4.22.06,6.24.18,1,.06,2,.13,3,.22a77.14,77.14,0,0,1,11,1.69c.68.17,1.35.34,2,.52a27,27,0,0,1,6.1,2.42,6.76,6.76,0,0,1,3,2.84A2.69,2.69,0,0,1,114.42,352.74Z"/><path class="cls-13" d="M114.23,352.07l-32.41,9.2a101.48,101.48,0,0,1-10.69-.65l40.13-11.39A6.76,6.76,0,0,1,114.23,352.07Z"/><path class="cls-13" d="M92.23,344.6l-38.65,11a7.06,7.06,0,0,1-.95-.81l36.56-10.38C90.22,344.44,91.24,344.51,92.23,344.6Z"/><path class="cls-13" d="M105.16,346.81,62.12,359c-.68-.17-1.32-.35-1.95-.53l43-12.22C103.86,346.46,104.53,346.63,105.16,346.81Z"/><path class="cls-2" d="M87.33,357.4v1.49H80.68v-1.42a86.17,86.17,0,0,1-12.12-.94l3.58-2.3a71.28,71.28,0,0,0,10.9.86c3.16,0,4.29-.19,4.29-.51,0-1.18-18.25-.23-18.25-3.72,0-1.52,3.86-2.79,11.6-3.1V346.3h6.65v1.43a77.81,77.81,0,0,1,9.57.78l-3.35,2.29a64.32,64.32,0,0,0-9.19-.69c-3.26,0-4.29.26-4.29.58,0,1.13,18.25.19,18.25,3.65C98.32,355.78,94.64,357,87.33,357.4Z"/><path class="cls-4" d="M87.13,356.91v1.49H80.48V357A86.3,86.3,0,0,1,68.36,356l3.59-2.3a71.19,71.19,0,0,0,10.89.85c3.16,0,4.29-.18,4.29-.51,0-1.17-18.25-.22-18.25-3.72,0-1.51,3.87-2.78,11.6-3.09v-1.46h6.65v1.43a76.06,76.06,0,0,1,9.58.78l-3.35,2.29a64.42,64.42,0,0,0-9.2-.7c-3.25,0-4.29.27-4.29.59,0,1.13,18.25.19,18.25,3.64C98.12,355.29,94.44,356.55,87.13,356.91Z"/><path class="cls-12" d="M120.41,348.61v.11a5.4,5.4,0,0,1-2.07,3.9,12.69,12.69,0,0,1-1.09.89,22.89,22.89,0,0,1-4.14,2.27l-1.09.45c-1.27.5-2.65,1-4.14,1.39l-1.1.31c-1.3.35-2.69.67-4.14,1l-1.09.21c-1.33.25-2.71.48-4.14.68l-1.09.15c-1.35.18-2.73.33-4.14.46l-1.1.09q-2,.17-4.14.27l-1.09,0q-2,.09-4.14.09H80.62c-1.4,0-2.78,0-4.14-.08l-1.09,0c-1,0-2.06-.11-3.07-.18l-1.07-.08-1.1-.09c-1.41-.12-2.79-.27-4.14-.44l-1.09-.15c-.86-.11-1.69-.24-2.52-.38l-1.62-.28L59.69,359c-1.45-.29-2.83-.6-4.14-1l-.77-.2-.32-.09c-.6-.17-1.17-.34-1.73-.52-.85-.27-1.65-.55-2.41-.84l-1.1-.43a26.07,26.07,0,0,1-3.67-1.87c-.16-.1-.32-.2-.47-.31l-.54-.39c-.19-.14-.38-.28-.55-.43a5.68,5.68,0,0,1-2.44-4.22c0-.11,0-.21,0-.32V340H120.4v8.74Z"/><path class="cls-2" d="M45.08,340v13.78l-.54-.39c-.19-.14-.38-.28-.55-.43V340Z"/><path class="cls-2" d="M50.32,340v16.4l-1.1-.43V340Z"/><path class="cls-2" d="M55.55,340V358l-.77-.2-.32-.09V340Z"/><path class="cls-2" d="M60.78,340v19.22L59.69,359V340Z"/><path class="cls-2" d="M66,340v20l-1.09-.15V340Z"/><path class="cls-2" d="M71.25,339.94v20.58l-1.1-.09V339.94Z"/><path class="cls-2" d="M76.48,339.93v20.89l-1.09,0V339.94Z"/><path class="cls-2" d="M81.71,339.93v21H80.62v-21Z"/><path class="cls-2" d="M86.94,339.92v20.84l-1.09,0V339.92Z"/><path class="cls-2" d="M92.18,339.91V360.4l-1.1.09V339.91Z"/><path class="cls-2" d="M97.41,339.9v19.89l-1.09.15v-20Z"/><path class="cls-2" d="M102.64,339.9v19l-1.09.21V339.9Z"/><path class="cls-2" d="M107.88,339.89v17.73l-1.1.31v-18Z"/><path class="cls-2" d="M113.11,339.88v15.9l-1.09.45V339.88Z"/><path class="cls-2" d="M118.34,339.87v12.75a12.69,12.69,0,0,1-1.09.89V339.87Z"/><path class="cls-4" d="M120.4,340c0,6.18-17.64,11.19-39.42,11.19-3,0-5.87-.09-8.66-.27-3.5-.22-6.83-.58-9.91-1a76.68,76.68,0,0,1-7.62-1.51c-.71-.18-1.39-.36-2-.55a33.36,33.36,0,0,1-7.18-2.89c-.36-.21-.7-.43-1-.64-1.93-1.32-3-2.77-3-4.28a3,3,0,0,1,0-.42c.77-6,18.11-10.78,39.39-10.78a129.49,129.49,0,0,1,14.81.82c.88.1,1.75.21,2.6.33a79.94,79.94,0,0,1,10,2c.65.18,1.28.36,1.88.55a33.15,33.15,0,0,1,5.53,2.24,11.78,11.78,0,0,1,3.54,2.69,4.19,4.19,0,0,1,1,2.14A2,2,0,0,1,120.4,340Z"/><path class="cls-14" d="M119.37,337.42,72.32,350.9c-3.5-.22-6.83-.58-9.91-1l53.42-15.12A11.78,11.78,0,0,1,119.37,337.42Z"/><path class="cls-14" d="M98.39,329.93l-52.83,15c-.36-.21-.7-.43-1-.64L95.79,329.6C96.67,329.7,97.54,329.81,98.39,329.93Z"/><path class="cls-14" d="M110.3,332.49,54.79,348.34c-.71-.18-1.39-.36-2-.55l55.68-15.85C109.07,332.12,109.7,332.3,110.3,332.49Z"/><path class="cls-2" d="M112.49,340a2.93,2.93,0,0,1,0,.41c-.76,4.74-14.59,8.53-31.48,8.53s-30.71-3.79-31.47-8.53a2.93,2.93,0,0,1,0-.41c0-4.94,14.13-9,31.5-9S112.49,335,112.49,340Z"/><path class="cls-12" d="M112.46,340.39c-.76,4.74-14.59,8.53-31.48,8.53H79.86a104.24,104.24,0,0,1-10.69-.65,69.17,69.17,0,0,1-9-1.59c-.67-.16-1.31-.34-1.94-.52a22.63,22.63,0,0,1-6.59-2.94,7.87,7.87,0,0,1-1-.81,3.72,3.72,0,0,1-1.15-2c.76-4.75,14.58-8.54,31.47-8.54,2.14,0,4.23.06,6.25.18,1,.05,2,.13,3,.22a75.73,75.73,0,0,1,11,1.69c.68.17,1.35.34,2,.52a27,27,0,0,1,6.1,2.41,6.74,6.74,0,0,1,3,2.85A2.34,2.34,0,0,1,112.46,340.39Z"/><path class="cls-13" d="M112.26,339.72l-32.4,9.2a104.24,104.24,0,0,1-10.69-.65l40.13-11.4A6.74,6.74,0,0,1,112.26,339.72Z"/><path class="cls-13" d="M90.27,332.25l-38.65,11a7.87,7.87,0,0,1-1-.81L87.23,332C88.26,332.08,89.28,332.16,90.27,332.25Z"/><path class="cls-13" d="M103.2,334.46,60.15,346.68c-.67-.16-1.31-.34-1.94-.52l43-12.22C101.9,334.11,102.57,334.28,103.2,334.46Z"/><path class="cls-2" d="M85.37,345.05v1.49H78.72v-1.42a86.17,86.17,0,0,1-12.12-.94l3.58-2.3a71.15,71.15,0,0,0,10.89.86c3.16,0,4.3-.19,4.3-.51,0-1.18-18.26-.23-18.26-3.73,0-1.51,3.87-2.78,11.61-3.09V334h6.65v1.43a77.81,77.81,0,0,1,9.57.78l-3.35,2.29a64.42,64.42,0,0,0-9.2-.7c-3.25,0-4.29.27-4.29.59,0,1.13,18.25.19,18.25,3.65C96.35,343.43,92.68,344.69,85.37,345.05Z"/><path class="cls-4" d="M85.17,344.56v1.49H78.52v-1.42a89.46,89.46,0,0,1-12.12-.94L70,341.38a69.9,69.9,0,0,0,10.89.86c3.16,0,4.29-.19,4.29-.51,0-1.18-18.25-.23-18.25-3.72,0-1.51,3.87-2.79,11.6-3.09v-1.46h6.65v1.43a76.06,76.06,0,0,1,9.58.78L91.4,338a64.53,64.53,0,0,0-9.2-.7c-3.25,0-4.29.27-4.29.59,0,1.12,18.25.19,18.25,3.64C96.16,342.94,92.48,344.2,85.17,344.56Z"/><path class="cls-12" d="M189.94,388.58a.41.41,0,0,1,0,.11,5.4,5.4,0,0,1-2.08,3.91,12.64,12.64,0,0,1-1.09.88,21.73,21.73,0,0,1-4.14,2.27c-.35.16-.72.31-1.09.45-1.27.5-2.65,1-4.14,1.4l-1.09.3c-1.31.35-2.69.67-4.15,1l-1.09.21c-1.33.25-2.71.48-4.14.68-.36.06-.72.11-1.09.15-1.34.18-2.73.33-4.14.46l-1.09.1c-1.36.11-2.74.19-4.14.26l-1.1,0q-2,.08-4.14.09h-1.09c-1.4,0-2.78,0-4.14-.08l-1.09,0c-1-.05-2.06-.11-3.07-.18l-1.07-.08c-.37,0-.73-.05-1.09-.09-1.42-.12-2.8-.27-4.14-.44l-1.1-.14q-1.27-.18-2.52-.39l-1.62-.28-1.09-.21c-1.45-.29-2.83-.6-4.14-.94l-.77-.21-.32-.09-1.73-.51c-.84-.27-1.65-.55-2.41-.84l-1.09-.44a25.68,25.68,0,0,1-3.68-1.87l-.46-.31c-.19-.12-.38-.25-.55-.38l-.55-.43c-1.58-1.32-2.44-2.75-2.44-4.23a3,3,0,0,1,0-.31V380h78.83l0,8.74Z"/><path class="cls-2" d="M114.62,380v13.78c-.19-.12-.38-.25-.55-.38l-.55-.43V380Z"/><path class="cls-2" d="M119.85,380v16.4l-1.09-.44V380Z"/><path class="cls-2" d="M125.08,379.94V398l-.77-.21-.32-.09V379.94Z"/><path class="cls-2" d="M130.31,379.93v19.22l-1.09-.21v-19Z"/><path class="cls-2" d="M135.55,379.92v20l-1.1-.14v-19.9Z"/><path class="cls-2" d="M140.78,379.91v20.58c-.37,0-.73-.05-1.09-.09V379.92Z"/><path class="cls-2" d="M146,379.91v20.88l-1.09,0V379.91Z"/><path class="cls-2" d="M151.24,379.9v21h-1.09v-21Z"/><path class="cls-2" d="M156.48,379.89v20.84l-1.1,0V379.89Z"/><path class="cls-2" d="M161.71,379.88v20.49l-1.09.1V379.89Z"/><path class="cls-2" d="M166.94,379.88v19.88c-.36.06-.72.11-1.09.15v-20Z"/><path class="cls-2" d="M172.17,379.87v19l-1.09.21V379.87Z"/><path class="cls-2" d="M177.41,379.86V397.6l-1.09.3v-18Z"/><path class="cls-2" d="M182.64,379.85v15.9c-.35.16-.72.31-1.09.45V379.85Z"/><path class="cls-2" d="M187.87,379.85V392.6a12.64,12.64,0,0,1-1.09.88V379.85Z"/><path class="cls-4" d="M189.94,380c0,6.18-17.65,11.19-39.42,11.19-3,0-5.88-.09-8.66-.27-3.51-.22-6.83-.58-9.92-1-2.75-.42-5.31-.93-7.62-1.52-.7-.17-1.39-.36-2-.55a33,33,0,0,1-7.17-2.89c-.36-.21-.7-.42-1-.64-1.92-1.32-3-2.77-3-4.28a2,2,0,0,1,0-.42c.76-6,18.1-10.78,39.39-10.78a129.44,129.44,0,0,1,14.8.82c.88.1,1.75.21,2.6.33a79.75,79.75,0,0,1,10,2c.64.18,1.27.36,1.87.55a32.29,32.29,0,0,1,5.53,2.25,11.61,11.61,0,0,1,3.54,2.68,4.29,4.29,0,0,1,1,2.14A3,3,0,0,1,189.94,380Z"/><path class="cls-14" d="M188.9,377.39l-47,13.48c-3.51-.22-6.83-.58-9.92-1l53.42-15.12A11.61,11.61,0,0,1,188.9,377.39Z"/><path class="cls-14" d="M167.92,369.9l-52.82,15c-.36-.21-.7-.42-1-.64l51.24-14.66C166.2,369.67,167.07,369.78,167.92,369.9Z"/><path class="cls-14" d="M179.83,372.46l-55.51,15.85c-.7-.17-1.39-.36-2-.55L178,371.91C178.6,372.09,179.23,372.27,179.83,372.46Z"/><path class="cls-2" d="M182,380a2.83,2.83,0,0,1,0,.41c-.76,4.74-14.58,8.54-31.47,8.54s-30.72-3.8-31.48-8.54a2.83,2.83,0,0,1,0-.41c0-4.94,14.13-8.95,31.51-8.95S182,375,182,380Z"/><path class="cls-12" d="M182,380.36c-.76,4.74-14.58,8.54-31.47,8.54h-1.13a101.48,101.48,0,0,1-10.69-.65,70.82,70.82,0,0,1-9-1.58c-.68-.17-1.32-.35-2-.53a22.37,22.37,0,0,1-6.59-2.94,7.06,7.06,0,0,1-1-.81,3.71,3.71,0,0,1-1.16-2c.76-4.74,14.59-8.54,31.48-8.54,2.13,0,4.22.06,6.24.18,1,.06,2.05.13,3,.22a77.14,77.14,0,0,1,10.95,1.69c.68.17,1.35.34,2,.52a27,27,0,0,1,6.1,2.42,6.76,6.76,0,0,1,3,2.84A2.69,2.69,0,0,1,182,380.36Z"/><path class="cls-13" d="M181.8,379.69l-32.41,9.2a101.48,101.48,0,0,1-10.69-.65l40.13-11.39A6.76,6.76,0,0,1,181.8,379.69Z"/><path class="cls-13" d="M159.8,372.22l-38.65,11a7.06,7.06,0,0,1-1-.81L156.76,372C157.79,372.06,158.81,372.13,159.8,372.22Z"/><path class="cls-13" d="M172.73,374.43l-43,12.23c-.68-.17-1.32-.35-2-.53l43-12.22C171.43,374.08,172.1,374.25,172.73,374.43Z"/><path class="cls-2" d="M154.9,385v1.48h-6.65v-1.42a86.17,86.17,0,0,1-12.12-.94l3.58-2.3a71.28,71.28,0,0,0,10.9.86c3.16,0,4.29-.19,4.29-.51,0-1.18-18.25-.23-18.25-3.72,0-1.52,3.86-2.79,11.6-3.1v-1.46h6.65v1.44a76,76,0,0,1,9.57.77l-3.35,2.29a64.32,64.32,0,0,0-9.19-.69c-3.26,0-4.29.26-4.29.59,0,1.12,18.25.18,18.25,3.64C165.89,383.4,162.21,384.66,154.9,385Z"/><path class="cls-4" d="M154.7,384.53V386h-6.65V384.6a86.3,86.3,0,0,1-12.12-.94l3.59-2.3a71.19,71.19,0,0,0,10.89.85c3.16,0,4.29-.18,4.29-.51,0-1.17-18.25-.22-18.25-3.72,0-1.51,3.87-2.78,11.6-3.09v-1.46h6.65v1.43a76.06,76.06,0,0,1,9.58.78l-3.35,2.29a64.42,64.42,0,0,0-9.2-.7c-3.25,0-4.29.27-4.29.59,0,1.13,18.25.19,18.25,3.64C165.69,382.91,162,384.17,154.7,384.53Z"/><path class="cls-12" d="M192.42,374.77v.11a5.42,5.42,0,0,1-2.07,3.91,12.64,12.64,0,0,1-1.09.88,21.73,21.73,0,0,1-4.14,2.27c-.35.16-.72.31-1.09.45-1.27.5-2.65,1-4.14,1.4l-1.1.3c-1.3.35-2.69.67-4.14,1l-1.09.21c-1.33.25-2.71.48-4.14.68-.36.06-.73.11-1.09.15-1.35.18-2.73.33-4.14.46-.37,0-.73.07-1.1.09-1.35.12-2.73.2-4.14.27l-1.09.05q-2,.07-4.14.09h-1.09c-1.4,0-2.78,0-4.14-.08l-1.09,0c-1-.05-2.06-.11-3.07-.18l-1.07-.08c-.37,0-.73-.05-1.1-.09-1.41-.12-2.79-.27-4.14-.44-.36,0-.73-.09-1.09-.15-.86-.11-1.69-.24-2.52-.38l-1.62-.28-1.09-.21c-1.45-.29-2.83-.6-4.14-.94l-.77-.21-.32-.09c-.6-.17-1.17-.34-1.73-.52-.85-.26-1.65-.54-2.41-.83l-1.1-.44a25.53,25.53,0,0,1-3.67-1.87c-.16-.1-.32-.2-.47-.31s-.37-.25-.54-.38l-.55-.43c-1.58-1.32-2.44-2.75-2.44-4.23,0-.11,0-.21,0-.31v-8.42h78.83v8.74Z"/><path class="cls-2" d="M117.09,366.14v13.78c-.19-.12-.37-.25-.54-.38l-.55-.43v-13Z"/><path class="cls-2" d="M122.33,366.13v16.41l-1.1-.44v-16Z"/><path class="cls-2" d="M127.56,366.13v18.06l-.77-.21-.32-.09V366.13Z"/><path class="cls-2" d="M132.79,366.12v19.22l-1.09-.21v-19Z"/><path class="cls-2" d="M138,366.11v20c-.36,0-.73-.09-1.09-.15V366.11Z"/><path class="cls-2" d="M143.26,366.1v20.58c-.37,0-.73-.05-1.1-.09V366.11Z"/><path class="cls-2" d="M148.49,366.1V387l-1.09,0V366.1Z"/><path class="cls-2" d="M153.72,366.09v21h-1.09v-21Z"/><path class="cls-2" d="M159,366.08v20.84l-1.09.05V366.08Z"/><path class="cls-2" d="M164.19,366.07v20.49c-.37,0-.73.07-1.1.09V366.07Z"/><path class="cls-2" d="M169.42,366.07V386c-.36.06-.73.11-1.09.15v-20Z"/><path class="cls-2" d="M174.65,366.06v19l-1.09.21V366.06Z"/><path class="cls-2" d="M179.89,366.05v17.74l-1.1.3v-18Z"/><path class="cls-2" d="M185.12,366v15.9c-.35.16-.72.31-1.09.45V366Z"/><path class="cls-2" d="M190.35,366v12.75a12.64,12.64,0,0,1-1.09.88V366Z"/><path class="cls-4" d="M192.41,366.14c0,6.18-17.64,11.19-39.42,11.19-3,0-5.87-.09-8.66-.27-3.5-.22-6.83-.58-9.91-1-2.75-.42-5.31-.93-7.62-1.52-.71-.17-1.39-.36-2-.55a33.36,33.36,0,0,1-7.18-2.89c-.36-.21-.7-.42-1-.64-1.93-1.32-3-2.77-3-4.28a3,3,0,0,1,0-.42c.77-6,18.11-10.78,39.39-10.78a129.49,129.49,0,0,1,14.81.82c.88.1,1.75.21,2.6.33a79.94,79.94,0,0,1,10,2c.65.18,1.28.36,1.88.55a31.83,31.83,0,0,1,5.52,2.25,11.54,11.54,0,0,1,3.55,2.68,4.19,4.19,0,0,1,1,2.14A2,2,0,0,1,192.41,366.14Z"/><path class="cls-14" d="M191.38,363.58l-47,13.48c-3.5-.22-6.83-.58-9.91-1l53.41-15.12A11.54,11.54,0,0,1,191.38,363.58Z"/><path class="cls-14" d="M170.4,356.09l-52.83,15c-.36-.21-.7-.42-1-.64l51.24-14.66C168.68,355.86,169.55,356,170.4,356.09Z"/><path class="cls-14" d="M182.31,358.65,126.8,374.5c-.71-.17-1.39-.36-2-.55l55.68-15.85C181.08,358.28,181.71,358.46,182.31,358.65Z"/><path class="cls-2" d="M184.5,366.14a2.83,2.83,0,0,1,0,.41c-.76,4.74-14.59,8.54-31.48,8.54s-30.71-3.8-31.47-8.54a2.83,2.83,0,0,1,0-.41c0-4.94,14.13-8.95,31.5-8.95S184.5,361.2,184.5,366.14Z"/><path class="cls-12" d="M184.47,366.55c-.76,4.74-14.59,8.54-31.48,8.54h-1.12a101.48,101.48,0,0,1-10.69-.65,71,71,0,0,1-9-1.58c-.67-.17-1.31-.35-1.94-.53a22.37,22.37,0,0,1-6.59-2.94,7.87,7.87,0,0,1-1-.81,3.69,3.69,0,0,1-1.15-2C122.28,361.8,136.1,358,153,358c2.14,0,4.23.06,6.25.18,1,.06,2,.13,3,.22a77.14,77.14,0,0,1,10.95,1.69c.68.17,1.34.34,2,.52a27,27,0,0,1,6.1,2.42,6.67,6.67,0,0,1,3,2.84A2.34,2.34,0,0,1,184.47,366.55Z"/><path class="cls-13" d="M184.27,365.88l-32.4,9.2a101.48,101.48,0,0,1-10.69-.65L181.31,363A6.67,6.67,0,0,1,184.27,365.88Z"/><path class="cls-13" d="M162.28,358.41l-38.65,11a7.87,7.87,0,0,1-1-.81l36.57-10.38C160.27,358.25,161.29,358.32,162.28,358.41Z"/><path class="cls-13" d="M175.21,360.62l-43.05,12.23c-.67-.17-1.31-.35-1.94-.53l43-12.22C173.91,360.27,174.57,360.44,175.21,360.62Z"/><path class="cls-2" d="M157.38,371.22v1.48h-6.65v-1.42a86.17,86.17,0,0,1-12.12-.94l3.58-2.3a71.15,71.15,0,0,0,10.89.86c3.16,0,4.3-.19,4.3-.51,0-1.18-18.26-.23-18.26-3.72,0-1.52,3.87-2.79,11.61-3.1v-1.46h6.65v1.44a76,76,0,0,1,9.57.77l-3.35,2.29a64.35,64.35,0,0,0-9.2-.69c-3.25,0-4.29.26-4.29.59,0,1.12,18.25.18,18.25,3.64C168.36,369.59,164.69,370.85,157.38,371.22Z"/><path class="cls-4" d="M157.18,370.72v1.49h-6.65v-1.42a86.3,86.3,0,0,1-12.12-.94l3.59-2.3a71.19,71.19,0,0,0,10.89.85c3.16,0,4.29-.18,4.29-.51,0-1.17-18.25-.22-18.25-3.72,0-1.51,3.87-2.78,11.6-3.09v-1.46h6.65v1.43a76.06,76.06,0,0,1,9.58.78l-3.35,2.29a64.53,64.53,0,0,0-9.2-.7c-3.25,0-4.29.27-4.29.59,0,1.13,18.25.19,18.25,3.64C168.17,369.1,164.49,370.36,157.18,370.72Z"/><path class="cls-11" d="M359.73,178.09v29.68a3.43,3.43,0,0,1-3.43,3.42H326.63a6.5,6.5,0,0,1-5.56-3.94,1.54,1.54,0,0,1-.15-.35l-.18-.54s0,0,0-.05v-.09l-.06-23.41V176a3.43,3.43,0,0,1,3.06-3.41l.36,0,30.28.12a1.84,1.84,0,0,1,.41,0h0C357.83,173,359.73,176.29,359.73,178.09Z"/><path class="cls-2" d="M357.18,176v29.66a3.42,3.42,0,0,1-3.42,3.43H324.08a3.43,3.43,0,0,1-3-1.79,1.54,1.54,0,0,1-.15-.35l-.18-.54s0,0,0-.05,0-.06,0-.09a3.08,3.08,0,0,1-.06-.61V176a3.43,3.43,0,0,1,3.06-3.41l.36,0h29.68a3.1,3.1,0,0,1,1,.16h0A3.4,3.4,0,0,1,357.18,176Z"/><path class="cls-9" d="M341.09,200.85l0,3-3.75,0,0-2.82A15.64,15.64,0,0,1,330.5,199l2.06-4.57a12.76,12.76,0,0,0,6.14,1.75c1.79,0,2.43-.35,2.43-1,0-2.34-10.31-.54-10.25-7.49,0-3,2.23-5.53,6.61-6.1l0-2.91,3.76,0,0,2.85a14.09,14.09,0,0,1,5.39,1.59l-1.93,4.54a11.54,11.54,0,0,0-5.18-1.42c-1.84,0-2.43.51-2.44,1.15,0,2.24,10.31.46,10.26,7.33C347.32,197.67,345.23,200.16,341.09,200.85Z"/><polygon class="cls-11" points="377.32 323.44 314.07 323.28 314.07 401.83 377.32 402.03 377.32 323.44"/><path class="cls-12" d="M330.29,333.16a1.19,1.19,0,0,0,1.25-1.08c.37-3.95,2.1-17.17,8.59-21.94a8.33,8.33,0,0,1,6-1.63c11.41,1.07,13.15,18.95,13.4,23.68a1.21,1.21,0,0,0,1.21,1.13h0a1.2,1.2,0,0,0,1.19-1.26c-.26-5.18-2.13-24.34-15.54-25.6a11,11,0,0,0-7.77,2.12c-7.23,5.31-9,19-9.43,23.28a1.19,1.19,0,0,0,1.14,1.3Z"/><polygon class="cls-2" points="371.81 323.44 308.57 323.28 308.57 401.83 371.81 402.03 371.81 323.44"/><path class="cls-11" d="M327.41,332.77a2.27,2.27,0,1,1-2.27-2.27A2.27,2.27,0,0,1,327.41,332.77Z"/><path class="cls-11" d="M357.87,332.77a2.27,2.27,0,1,1-2.27-2.27A2.27,2.27,0,0,1,357.87,332.77Z"/><path class="cls-3" d="M325.23,333.34a1.18,1.18,0,0,0,1.24-1.08c.38-3.95,2.1-17.17,8.6-21.94a8.33,8.33,0,0,1,6-1.63c11.41,1.07,13.14,19,13.4,23.68a1.19,1.19,0,0,0,1.2,1.13h0a1.19,1.19,0,0,0,1.19-1.26c-.26-5.18-2.12-24.34-15.54-25.6a11,11,0,0,0-7.77,2.12c-7.22,5.31-9,19-9.42,23.28a1.18,1.18,0,0,0,1.14,1.3Z"/></g><g id="DESIGNED_BY_FREEPIK" data-name="DESIGNED BY FREEPIK"><text class="cls-15" transform="translate(237.51 351.94)">PA<tspan class="cls-16" x="26.23" y="0">Y</tspan></text></g></svg>