<svg xmlns="http://www.w3.org/2000/svg" viewBox="0 0 1500.08 1001.21"><defs><style>.cls-1{isolation:isolate;}.cls-2{fill:#e4e4e4;}.cls-3,.cls-5{fill:#737373;mix-blend-mode:color-burn;}.cls-4{fill:#f6e194;}.cls-5{opacity:0.7;}.cls-6{fill:#fff;}.cls-10,.cls-21,.cls-7{mix-blend-mode:multiply;}.cls-10,.cls-8{fill:#b8b8b8;}.cls-9{fill:#d7d7d7;}.cls-11{fill:#342c27;}.cls-12{opacity:0.8;}.cls-13{fill:#343435;}.cls-14{fill:#bce1d2;}.cls-15{fill:#5ba0a4;}.cls-16{fill:#f6dfc8;}.cls-17{fill:#e2bd97;}.cls-18{fill:#f5f5f5;}.cls-19{fill:#3b5374;}.cls-20{fill:#2a4a45;}.cls-21{fill:#b0b0b0;}.cls-22{fill:#686869;}.cls-23{fill:#e1c6b2;}.cls-24{opacity:0.71;}.cls-25{fill:#c7c5ca;}.cls-26{mix-blend-mode:soft-light;}.cls-27{fill:#d1cfd5;}.cls-28{fill:none;}.cls-29{fill:#6a6b6d;}.cls-30{fill:#c9cfd1;}.cls-31{fill:#dc473d;}.cls-32{fill:#603813;}.cls-33{fill:#846239;}.cls-34{fill:#c73931;}.cls-35{fill:#cd9b24;}.cls-36{fill:#f0c735;}.cls-37{fill:#593322;}.cls-38{fill:#84726a;}.cls-39{fill:#bfbdbe;}.cls-40{fill:#8ac0a8;}.cls-41{fill:#e9e9e9;}.cls-42{fill:#9ea1a5;}.cls-43{fill:#8cc3d1;}.cls-44{fill:#2f2b70;}.cls-45{fill:#7c380f;}.cls-46{fill:#debd9b;}.cls-47{fill:#507bae;}.cls-48{fill:#2b2c31;}.cls-49{fill:#cc6b4d;}.cls-50{fill:#47474a;}.cls-51{fill:#a98e79;}.cls-52{fill:#97806c;}.cls-53{fill:#fcf8f3;}.cls-54{fill:#ddd;}.cls-55{fill:#e4c9b4;}.cls-56{fill:#939393;}.cls-57{fill:#f0c8a1;}.cls-58{fill:#9d9d9d;}.cls-59{fill:#f2d0b3;}</style></defs><title>Jumbotron</title><g class="cls-1"><g id="BG"><rect class="cls-2" y="0.6" width="1500" height="1000"/></g><g id="paper"><rect class="cls-3" x="112" y="84" width="1272" height="871" transform="translate(-5.69 8.88) rotate(-0.63)"/><rect class="cls-4" x="118" y="78" width="1272" height="871" transform="translate(-5.62 8.95) rotate(-0.63)"/><polygon class="cls-5" points="1447.61 792.52 481.33 1001.22 220.21 1000.6 191.21 1000.58 20.39 209.69 991.24 0 1229 0.64 1276.57 0.6 1447.61 792.52"/><polygon class="cls-6" points="1453.04 758.83 428.87 1000.6 215.07 1000.6 203.16 1000.6 14.96 203.37 873.92 0.6 1222.34 0.6 1274.11 0.87 1453.04 758.83"/></g><g id="Hand"><g class="cls-7"><path class="cls-8" d="M317.56,140.33q3.58,11.31,6.86,20.5L156.74,242.07a4,4,0,0,0-1.85,5.32l61.06,126a4,4,0,0,0,5.32,1.84l162.44-78.69c.87.29,2.11.65,3.9,1.07-3.22,3.14-5.85,6.58-6.08,10.09a.12.12,0,0,1,0,.07,3.82,3.82,0,0,1-1,.89,1.66,1.66,0,0,1-.35.13l-.08,0,0,0c-4.28,2.33-6.35,4.62-7.23,6.79a7.56,7.56,0,0,0-.49,1.72c-.36,2.25.3,4.33.7,6.14h.05c.63.28,2.33-.28,4.5-1.18l.06,0c.43-.16.85-.33,1.23-.49,1-.43,1.78-.79,2-.9l.4-.18.81-.38,7.65-3.51,2.73-1.25c.75-.34,1.22-.6,1.25-.6h0v0l.05,0c.28-.19,1.92-1.28,3.66-2.65.63-.5,1.27-1,1.87-1.57v0s0,.16,0,.15a40.77,40.77,0,0,0,2.93-2.95h.08l.06-.08c.19-.24.84-1.07,1.7-2.11l1.12-1.33,0,0,.43-.5a25,25,0,0,0,2.86-3.34c.47-.55.91-1.05,1.3-1.48.11-.13.23-.27.34-.42l.77-.87H411V298h.64l.36-.18h0c2,0,3.89.23,5.91-.52a75.58,75.58,0,0,0,7.08-3c1.54-.65,2.77-1.19,3.79-1.67,0,0,0,0,0,0l.23-.11a11,11,0,0,0,2.89-1.75v0a.43.43,0,0,0,0,0,1,1,0,0,0,.14-.16c.15-.18,0-.34,0-.5a5,5,0,0,0,0-4.49v-.05s.18-.06.18-.09c4-4.91,11.54-9.47,12.05-13,0-.06.06-.13.07-.19s0-.11,0-.16a2.13,2.13,0,0,0-.09-.71h0c-.12-.59-.15-.64-.32-1.33-2.74-11.14-6.21-21.91-8.95-27.39-5.84-7.49-12-19.91-19.32-36.22v0l0,0c-3.59-8.82-6.9-16.14-9.43-21.49,8.56-8.21,22.53-20,26.27-27.89-11.86-18.52-35.3-55.37-35.3-55.37L380.25,60,370,34.93l-.24,0C363.49,23,347,11,327.33,1H150.67L266.51,52.35S289.25,103.5,317.56,140.33Z" transform="translate(0 0.6)"/><path class="cls-8" d="M336,807.37l-9.52-7.08,4.3-5.72c.51-.68.64-1.45.28-1.71l-2.24-1.66c-.35-.27-1.06.07-1.57.75l-4.3,5.72-5.57-4.13,4.3-5.73c.51-.68.64-1.45.28-1.71l-2.24-1.66c-.35-.27-1.06.07-1.57.75l-4.3,5.72-5.58-4.13,4.31-5.73c.51-.68.64-1.45.28-1.71l-2.24-1.66c-.35-.27-1.06.07-1.57.75l-4.31,5.72L299.15,780l4.31-5.73c.51-.68.63-1.45.28-1.71l-2.24-1.66c-.36-.27-1.06.07-1.58.75l-4.3,5.72-5.57-4.13,4.3-5.73c.52-.68.64-1.45.29-1.71l-2.24-1.66c-.36-.27-1.06.07-1.58.75l-4.3,5.72L281,766.5l4.3-5.72c.52-.69.64-1.46.28-1.72l-2.23-1.66c-.36-.27-1.06.07-1.58.75l-4.3,5.72-5.57-4.14,4.3-5.72c.51-.68.64-1.45.28-1.71l-2.23-1.66c-.36-.27-1.07.07-1.58.75l-4.3,5.72L262.75,753l4.3-5.73c.51-.68.64-1.45.28-1.71l-2.23-1.66c-.36-.27-1.07.07-1.58.75l-4.3,5.72-5.57-4.13,4.3-5.73c.51-.68.64-1.45.28-1.71L256,737.12c-.36-.27-1.07.07-1.58.75l-4.3,5.72-5.57-4.13,4.3-5.73c.51-.68.64-1.45.28-1.71l-2.23-1.66c-.36-.27-1.07.07-1.58.75l-4.3,5.72-5.57-4.13,4.3-5.73c.51-.68.64-1.45.28-1.71l-2.23-1.66c-.36-.27-1.07.07-1.58.75l-4.3,5.72-5.57-4.13,4.3-5.72c.51-.69.64-1.46.28-1.72l-2.23-1.66c-.36-.27-1.07.07-1.58.75l-4.31,5.72-9.52-7.07a3.15,3.15,0,0,0-4.4.63l-106,141c-30.15,4.9-78,15-96.88,19L0,941.75c15-7,47-23,75.41-31.15l117.38,87.07a1.55,1.55,0,0,0,.92.33h1.95a2.06,2.06,0,0,0,1.53-1L336.62,811.69A3,3,0,0,0,336,807.37Z" transform="translate(0 0.6)"/><path class="cls-8" d="M755.88,115.49c-6.56-3.88-20.27-22.28-20.27-22.28S718,67.34,706.9,57.86c-8.68-7.44-21.14-21.51-27.67-33.77L668.78,1H607.51L610,10l-3.85,16.14s-10.23,33.79-9.92,46l-.07-.14s0,.21.05.59l-.3-.57s3.11,40.46,3.18,41.4c0,.3-.28,3.55-.7,7.81l.27-.44c-.89,8.76-2.32,22.25-2.27,22.89a157.18,157.18,0,0,0,3.06,21.76h0c0,.23.11.48.16.72.12.58.25,1.16.38,1.76,0,.15.06.3.1.45.2.93.42,1.88.65,2.84,3.69,15.37,6.06,17.38,11,16.38s5.81-11.75,3.63-17.35l-.37-.9h0c-6.38-15.12-4.67-12.62,1-36.1-.34,7.76-.63,16.19-.41,19,1,4.69,3.63,14.61,6.37,24.7h0c2.83,10.45,5.74,21.08,6.93,26.25a12.72,12.72,0,0,0,3.8,3.86,7.91,7.91,0,0,0,4.11,1.26c3.53.06,6.92-2.39,8.9-6.42,0-.11,0-.22-.07-.33-.12-.54-.24-1.08-.36-1.64-.06-.29-.13-.59-.19-.88s-.19-.86-.28-1.3c-.06-.29-.12-.58-.19-.88l-.42-2c-.07-.31-.13-.63-.2-.94-.1-.46-.19-.92-.29-1.39s-.13-.64-.19-1l-.39-1.88c0-.17-.07-.34-.1-.51-.15-.75-.3-1.5-.46-2.26,0-.27-.11-.55-.16-.83-.11-.54-.22-1.07-.32-1.61-.06-.31-.13-.62-.19-.93-.09-.47-.19-.95-.28-1.42-2.74-13.9-5.15-27.1-5.15-27.1s-.48-6.33.5-22.42c.45-6.3,1.55-5.88,2,1.57l.66-1c2,11.16,4.41,30.94,5.14,36.56.49,3.76,1.62,12.46,2.69,21.25h0c.6,5,1.18,10,1.61,14.12,1.2,11.49,4.74,12.78,8.55,13.43a12.53,12.53,0,0,0,2.34.16c3.54-.06,7.6-1.54,8.36-5.68.93-5.08-.4-13.74-1.12-23.07s-3.25-29.1-4.18-56.15c-.22-6.71,4-5.88,6-.32h0c2,8,2,16.09,2.42,19.52.79,6.2,2.37,19.52,4.65,32.81.08.51.17,1,.26,1.48h0c2.15,12.13,3.81,16.42,8.39,17.27a8.34,8.34,0,0,0,1.88.12,10,10,0,0,0,9.5-10.38c-.11-7.51-.4-21.26-3.36-51.71-2.87-29.35-3.76-32.67.15-46.64,1.07-4.1,10.44-4.79,10.44-4.79s4.71,4,15.71,15.5h0C741,132,762.29,119.28,755.88,115.49Z" transform="translate(0 0.6)"/><path class="cls-8" d="M1304.75,555c3-4.89,17.1-14.55,17.1-14.55s19.77-12.92,27.08-21.11c5.74-6.42,16.53-15.6,25.87-20.34l9.19-2.66h.1l.91-.24v0c15-4.73,34.51-8.17,43.84-9.64l2.52,5.64s52.23-12.9,52.86-12.9l15.78-.1.08-86.41-41.88,26.78-50.15,20.4.34.77c-8,2.09-24.91,6.19-33.41,6.31l-.28-.07-.57.06s-25.07-11.1-34.26-11.05l-1.78.67,1.89-.86-31.24,1.76c-.71,0-22.07-2.73-22.77-2.69a118.09,118.09,0,0,0-16.45,2h0c-1.4.26-2.86.56-4.37.89-11.64,2.54-13.19,4.29-12.51,8s8.76,4.56,13,3l.68-.27c11.5-4.57,9.59-3.32,27.19,1.28-5.84-.37-12.19-.72-14.3-.6-3.55.67-11.07,2.52-18.71,4.42h0c-7.4,1.85-14.92,3.75-19.07,4.66h0l-.78.17a9.83,9.83,0,0,0-2.67,2.38,6.19,6.19,0,0,0-1.32,3.5c-.09,2.66,1.7,5.25,4.71,6.8l1.23-.24h0l1.23-.24.17,0,3.71-.7.56-.1,1-.19,1-.19.78-.14,1.66-.31.37-.06,3.91-.69h0c10.24-1.8,19.76-3.34,19.76-3.34s4.78-.26,16.89.72c4.74.44,4.41,1.26-1.21,1.51l.74.51c-8.44,1.35-23.38,2.85-27.62,3.32-2.85.31-9.42,1-16.06,1.69h0c-3.76.38-7.53.74-10.67,1-8.67.73-9.7,3.38-10.25,6.23a9.71,9.71,0,0,0,0,3.64c.41,2.07,1.59,4,4,4.48,3.82.78,10.37-.12,17.42-.52s22-1.74,42.39-2c5.06-.06,4.23,4.73.18,4.73h0c-6.08,1-12.19,1.05-14.78,1.32-4.68.5-14.78,1.45-24.83,3l-1.09.17,0-.16c-9.17,1.42-12.43,2.61-13.14,6a6.68,6.68,0,0,0-.12,1.43,7.48,7.48,0,0,0,7.68,7.29c5.66,0,16-.05,39-1.82,22.16-1.7,24.68-2.44,35.14.72,3.07.87,3.44,7.8,3.44,7.8S1320.85,518,1312,527h0C1292.53,544,1301.8,559.78,1304.75,555Z" transform="translate(0 0.6)"/><path class="cls-8" d="M1036.64,208.55q-2.67-1.41-5.19-3h0c1.67,1,3.4,2.06,5.17,3a52,52,0,0,0-38.49-96.3l0-.07a52.62,52.62,0,0,0-27.67,20.67l-14.22-7.64a5.07,5.07,0,0,0-2-.52,45.6,45.6,0,0,0,18.59,18.86h0a45.52,45.52,0,0,1-18.62-18.79,5,5,0,0,0-2.82,9.48l14.23,7.64,0,.13a52,52,0,0,0,71,66.54Z" transform="translate(0 0.6)"/><path class="cls-8" d="M245.2,470.33a52,52,0,0,0-81.27-64.42s0-.05,0-.07a52.59,52.59,0,0,0-13.74,31.68l1.25,0-1.24,0-16.13.44a5,5,0,0,0-2,.54,46,46,0,0,0,19.18,6.83v0a45.47,45.47,0,0,1-19.23-6.77,5,5,0,0,0,2.26,9.63l16.15-.44s0,.07,0,.14a52,52,0,0,0,94.71,22.42c-.62,0-1.25,0-1.87,0h0Z" transform="translate(0 0.6)"/><path class="cls-8" d="M449.38,890l-2.56-7.12-.73.26c-1.86-5.9-3.43-12.22-6.73-23.16-2-8.31-2.2-20.31-4.16-33-1.19-7.73-1-9.92-1.7-10.92h0c.28,0-.12-.53-.58-1.5,0,0,0-.09,0-.1s-.14-.34-.21-.5a13.79,13.79,0,0,0-1.55-2.45c-.24-.32-.49-.67-.76-1a12.59,12.59,0,0,0-1.25-1.59c-6.08-8.79-5-10.58-25.42-13.07-2.92-.35-6.28-.55-10.16-.95,0,0-.05.16-.08.16h0a16.72,16.72,0,0,0-6.89-1h0a5.8,5.8,0,0,1-.72-.17c-1.44-.17-2.59-.35-3.49-.46l-5.66-.94h0l-.53-.13-.17,0-.48-.09-.24,0-.51-.07h-.26a6.74,6.74,0,0,0-.79,0h0c-8,0-9.6,2.66-10,8.67-.11.88-.2,1.84-.27,2.94V806c-.05.62-.11,1.22-.17,1.83-.14,1.33-.28,2.62-.31,4.06l-.13-.27a1.8,1.8,0,0,0-.2-.5,11.51,11.51,0,0,0-5.25-5.12c-.44-.17-.77-.3-1.07-.4a3.74,3.74,0,0,0-.45-.12,7.53,7.53,0,0,0-1.69-.13h-.55A6,6,0,0,0,351,806h0a7.85,7.85,0,0,0-1.21.76c-5.87,4.57.33,5.42,2.28,18.46-.14,7,.06,9.78.81,12.78H353v-.41c0,1.67,1.22,3,2.45,5.11,7.58,15.28,6.26,13,10.48,16.76h0A96.35,96.35,0,0,0,376.32,868a278.63,278.63,0,0,1,20.76,18.65c2.33,4.12,4.46,8,6.43,11.75l-.51.19,2.56,7.12,1.45-.52a216.24,216.24,0,0,1,16.3,42,114.89,114.89,0,0,1,3.36,22,229.7,229.7,0,0,0,6.64,30.79H493.5c-9.93-24-36.93-89.8-44.83-109.79Z" transform="translate(0 0.6)"/><path class="cls-8" d="M344.35,577.28l3.77-2.51a1.28,1.28,0,1,0-1.42-2.13l-3.77,2.5-.2-.3c-.25-.37-.65-.62-.91-.55l-7.35,2a6,6,0,0,0-4.32,1L328,578.67a5.87,5.87,0,0,0-4.69.9l-19.64,13c-3.12-4.88-6.19-10.5-7.5-15.39a6.38,6.38,0,0,0-8.72,1.54h0l-3.77-4.64s-8.53,2.27-6.86,11.43,6.62,10.9,7.49,11c0,0,.09,0,.15.1a17.39,17.39,0,0,0-2.89-.13,35.39,35.39,0,0,0-3.55.3,95.37,95.37,0,0,0-10.45,2.11l-.31.07h.07l1,0h0l-1,0A116.58,116.58,0,0,0,251,606c-14.36-1.69-43.08-16.92-61.49-3.85-1.65,1-4.53.27-8.27.55-2.21-5.24-5.77-4.91-7.28-4.77s-5.62,3.69-15.3,3.53-30.59,1.53-38.08-.93a11.34,11.34,0,0,0-1.11-.29c-20.71-11-22.15-7.09-40.63-6.78-14.77.24-60.29,1.9-78.84,2.59v85l52.08-4.33s33.47-9,35-9,17.83-.31,26.88-9.68l.52-.54a8.52,8.52,0,0,0,3.26.54c.94,0,59.94-5,59.94-5s3.12-.76,4-4.87a15.55,15.55,0,0,0,.26-2.22l7.17-1,2.2-.27.73.2-.12,0c51.82,15.92,55.88,21.54,64.93,17.79s35.59-15.3,40.27-17.79c4.37-5.94,21.85-41.52,21.85-41.52a1.5,1.5,0,0,0-.15-.19l13.91-9.23a5.86,5.86,0,0,0,2.65-4l2.16-1.43a6,6,0,0,0,2.57-3.61l4.68-6a1,1,0,0,0-.14-1Z" transform="translate(0 0.6)"/><path class="cls-8" d="M887,895.08s0-.05,0-.07c-.49-3.12-.79-6.84-1.21-11.3-.87-34-.2-28-8.65-39.07A39.19,39.19,0,0,0,872,834h-.14l0,0v0h-.05l0,0a10.88,10.88,0,0,0-1.23-1.32l-.1-.1-.15-.12-.26-.21h0l-.23-.17,0,0-.24-.15c-.85-.49-3.24-.86-5.94-1.46-3.48-.77-7.48-1.92-9.41-4.2-1.51-1.77-4-2.42-6.91-2.39a25.76,25.76,0,0,0-5.12.66,37.79,37.79,0,0,0-6.17,2c-1.88-5.37-10.55-4.94-16.71-3.4-.18.05-.37.1-.55.17l-.19.07-.33.13-.25.11-.13.06-.12.06-.29.16-.19.11L817,824l-.16.1-.14.09-.34.24-.09.07c-.13.09-.25.19-.37.29l0,0a24.21,24.21,0,0,0-1.79,1.68c-.55.54-1.06,1.48-1.55,1.48h0a2.36,2.36,0,0,0-.58.15s-.06,0-.09,0c-2.73-.14-3.36-1.2-5.37-5.47-3-6.74-5.72-14.67-7.9-19.67h0a1.73,1.73,0,0,1-.14-.19c-.16-.85-.38-2-.64-3.29v-.06c0-.19-.09-.4-.13-.6s-.06-.33-.1-.5-.06-.31-.1-.46-.09-.46-.14-.7-.06-.29-.1-.44l-.15-.73c0-.16-.07-.32-.11-.48s-.1-.49-.16-.74-.07-.31-.11-.47-.11-.51-.17-.77-.07-.31-.11-.47l-.18-.77c0-.16-.07-.32-.11-.48s-.13-.51-.19-.77-.07-.3-.11-.46-.13-.51-.19-.76-.08-.31-.12-.45-.13-.5-.2-.75-.07-.29-.11-.43-.15-.52-.22-.77-.06-.24-.1-.36c-.1-.36-.21-.72-.32-1.06a14.1,14.1,0,0,0-2.2-4.68,4.76,4.76,0,0,0-4.13-1.9,15.71,15.71,0,0,0-3.14.48c-5.85,3.33-3,22-2.17,27.36,0,.23.08.49.12.76l.06.36c0,.2.08.4.11.61a17.43,17.43,0,0,1,.77,3.6h0s0,0-.08.08c.06.19.07.4.13.6h0a8.08,8.08,0,0,1,.35.73c.25.94.55,1.92.88,2.94.17.72.35,1.47.58,2.23,1.54,4.91,3.46,10.52,5.81,16.76,0,0,.51,1.19,1.19,3-2.88,9.3-.15,8.52-2.42,19,1.33,5.91,2.21,6,10.19,27h0c.16,0,.33.35.49.52l-.5-.06q2.77,2.4,5.32,4.65c7.24,6.36,13.26,11.83,18.4,16.68,1.41,1.33,2.75,2.62,4,3.86,2,1,7.48,3.59,12.22,6a29,29,0,0,0,4.44,2h0a17.16,17.16,0,0,0,2.06,2.22c.5.56,1,1.09,1.52,1.66s1.06,1.41,1.6,2c.33.37.65.85,1,1.22a210.76,210.76,0,0,1,18.19,23.38c-.85-1.4-1.65-2.74-2.41-4.06a110,110,0,0,1,5.94,9.66l0-.06a.43.43,0,0,0,0,.07,1,1,0,0,1,.08.14h0l0,0,0,0h0s0-.13,0-.11.17.27.25.27h0c6,11,11,25,14.33,45h72.31c-17.24-22-60.22-76.77-72.91-104.88Z" transform="translate(0 0.6)"/><path class="cls-8" d="M76,211.23c28,3.91,104.61,4.08,104.61,4.08s16.66-9.17,16.85-38.17c6.4-2.74,17.3-6.6,36.61-11.52,7.19-1.2,9-1.13,10.79-1.9.15-.31.81-1.19,2.07-3.09a45.3,45.3,0,0,0,3.17-5.6,45.42,45.42,0,0,1-3.17,5.61c-1.26,1.89-1.92,2.77-2.07,3.08s.57-.29,2.09-1a22.89,22.89,0,0,0,3.94-2.78,15.31,15.31,0,0,0,1.82-1.51c11.58-8.37,12.68-5.57,15.71-42v-.09c.3-2.75.54-5.46.78-8.1.42-4.28.63-6.45.78-7.81.08-.65.16-1.3.25-1.93a33.53,33.53,0,0,0,.88-5.36,13.48,13.48,0,0,0-.45-3.78,6.69,6.69,0,0,0-1.58-3.52.68.68,0,0,0-.14-.22c0-.19,0-.37,0-.55h0A10.18,10.18,0,0,0,266.24,83l-.05,0h0s-.16-.17-.16-.17h0l-.12,0a3.5,3.5,0,0,0-.71-.28c-4.52-1.57-13-1.79-17.53-2.1,2-1.47,5.8-4.42,7.05-8.42h0c.1,0,.18-.62.23-.92a1.11,1.11,0,0,1,0-.17,6.79,6.79,0,0,1-.25,1.53A4,4,0,0,0,255,71h0v.06c0-.14,0-.26,0-.39a.05.05,0,0,0,0,0v0h0v0h0a7.72,7.72,0,0,0-1.78-5c-5.49-6.75-6.1.51-21.3,3.13-18.69,0-13.71,1-29.55,9.4,0,0-3.38,3.44-6.81,3.89a105.33,105.33,0,0,0-13.37,16.1l-.08.1c-1,3.37-2.18,6.69-3.43,10l-1.42-2.68C135.7,109.15,89.57,122.11,87.59,121S42.55,116,0,116.83v97.91C19.33,213.39,67.63,210.2,76,211.23ZM255,70.61v0h0v0Z" transform="translate(0 0.6)"/><path class="cls-8" d="M1163.49,295.56l-.07,0,.17,0a25.85,25.85,0,0,0,7.14-2.19c13.53-5.6,29.2-19.18,37.4-26.73l.9-.79s.2-.21.57-.56l1.49-1.4c8.65-.67,7.3-2.75,16.74-4.34,4.46-3,4.24-3.79,19.2-17.39.72-2.06,1.42-4,2.1-5.92,2.14-5.65,4.65-11.44,7.72-20.65,2.65-6.68,5-12.17,7.28-17,3.72-7.32,8.85-16.9,14.89-27.91l2.29-4.09c12.76-22.8,20-35.77,24.07-43l3.56.47c.79.11,4.06.52,7.06.95h0c15,2,32.79,4.62,49,6.94,0,.05,0,.1,0,.15-.19,12.1,3.37,17.06,4.71,18.48h0a5.06,5.06,0,0,0,.49.47l49.54,19,.07,0s4.42,1.37,10.56-4.88c11.45,2.43,69.74,13.46,69.74,13.46V67.2c-1-.23-40.86.81-54.91.77a16.16,16.16,0,0,0-2.69-3.56L1385,67.89s-2.16-1.34-10.68,12c-3.15.23-6.37.53-9.6,1a119,119,0,0,1-22.53,2.43c-4.69,0-9.29-.22-13.92-.56,17.19-30.61,37.59-67.7,44.58-81.7h-83.69c-7.79,22-16.49,57-19.68,67.72L1267,67.14c-7.28-4.75-13.35-9.22-13.36-9.23a89.44,89.44,0,0,0-14.77-10.09c-2.92.43-6.5-1.61-6.5-1.61-15-3.14-11.13-5.16-26.49-.79-13.11,1.42-15.31-4.41-18.23,2.43a6.38,6.38,0,0,0-.3,4.48l0,.06v0c2,7.23,3.8,6,6.57,7.32-5,1.67-9,2.71-11.78,4.92l-1,.43a4.52,4.52,0,0,0-1.68,2.43,4.15,4.15,0,0,0,.5,1.59,7.6,7.6,0,0,0-.13,2.4,11.34,11.34,0,0,0,.52,3.2,27.77,27.77,0,0,0,2,4.2l.66,1.54c.44,1.08,1.12,2.81,2.47,6.23.82,2.11,1.65,4.28,2.54,6.47l0,.08c11,29.2,11.28,26.64,22.77,30.81a13.25,13.25,0,0,0,1.84.81,19.23,19.23,0,0,0,3.89,1.36c.31,0,.57.1.81.15a1.23,1.23,0,0,1,.16.15c.21,0,.42,0,.63,0s.44.1.37,0c1.6,0,3.79-.56,10.22-1.23,1.35-.14,2.7-.3,4-.47h0c4-.47,15-2.09,15-2.09s0-.08.09-.21l2.86-.37c-4.69,13-9,24.52-10.67,28.18-4.6,9.79-4.74,13.28-16.44,21.25L1192.21,189c-8.08,6.09-11,10.21-11.86,12.57v0c-.08.21-.14.4-.19.58l0,.11a4.33,4.33,0,0,0-.11.51c-.28,2,2.59,10.39.37,14.57s2.17,10.87,6.19,15c-3.82,3.33-.61,10.35,2.68,14.94a8.47,8.47,0,0,0,.66.78l0,0a6.74,6.74,0,0,0,.71.61l.08.07c.23.17.47.33.71.48l.15.08a7.44,7.44,0,0,0,.67.37l.25.13.53.25c.89.42,1.75.76,2.41,1.14,1.81,1.7-.21,4.41,1.07,2.6A8.9,8.9,0,0,1,1195,256c-8.75,9.31-20.65,19.8-20.65,19.8s-8.42,5.53-13.1,9.49-4,6.22-1.6,9.48A5.52,5.52,0,0,0,1163.49,295.56Z" transform="translate(0 0.6)"/><path class="cls-8" d="M1398.5,856.62c-6.25-4.06-7.8-9.68-14.67-5.62-.59.68-1.15,1.36-1.72,2-25.22-15.23-75.84-37.73-76.63-38.25s-63-32.47-72.11-38.4-12.48-6.55-18.74-19.26c-3.69-9.72-8.35-22-12.75-33.54-4.9-8.84-8.58-12.27-10.79-13.5l0,0c-.19-.11-.37-.19-.53-.27l-.11,0a4.83,4.83,0,0,0-.49-.17c-1.93-.56-10.66,1.11-14.48-1.68s-11.06.63-15.69,4c-2.76-4.25-10.17-2.06-15.18.57a6.91,6.91,0,0,0-.86.54l0,0a6.89,6.89,0,0,0-.7.62l-.08.07c-.2.21-.39.42-.57.64l-.11.13c-.16.2-.31.41-.46.61l-.16.23-.32.49c-.54.83-1,1.63-1.47,2.23-1.93,1.56-4.34-.83-2.72.69a8.61,8.61,0,0,1-2-1.88c-8-10-16.71-23.21-16.71-23.21s-4.29-9.11-7.56-14.3-5.59-4.86-9.16-2.92a5.43,5.43,0,0,0-1.3,3.74.19.19,0,0,1,0-.07c0,.06,0,.11,0,.17a25.82,25.82,0,0,0,1.17,7.38c3.64,14.17,14.86,31.56,21.19,40.75.23.34.45.68.69,1l.5.69,1.14,1.63c-.54,8.66,1.71,7.62,2,17.18,2.39,4.85,3.17,4.74,14.53,21.45l5.58,2.91c5.29,2.92,10.68,6.21,19.36,10.54,6.24,3.56,11.34,6.68,15.83,9.6,6.72,4.7,15.47,11.11,25.51,18.62l3.76,2.87c40.17,30.59,46.91,35.76,46.91,35.76s-2.57-2-6.71-5.28c36.83,28.17,76.38,58.67,97.26,73.43h0l0,0,2.75,1.92a34.29,34.29,0,0,0,1.76,11.66c51.17,18.42,81.48,39.33,81.48,39.33l47.24,28.2H1500V911.21c-16-7-36-13.84-36-13.84S1404.74,860.67,1398.5,856.62Z" transform="translate(0 0.6)"/></g><path class="cls-9" d="M645.62,816.11l-2.73-.73a31.51,31.51,0,0,0-59.41-15.94,28.93,28.93,0,0,0-20.7-5.49,31.51,31.51,0,0,0-59.51-15.57l-2.73-.72a1,1,0,0,0-1.22.72l-2.08,7.85a1,1,0,0,0,.71,1.22l2.2.58a31.41,31.41,0,0,0,3.26,19.43c-.07.33-.16.65-.22,1l-1.62,9c-1.22,6.83-1.2,8.52,2.45,10.9,2.1,1.64,3.56,1.18,4.05-1.57l1.62-9.05c.1-.61.22-1.18.33-1.75a31.49,31.49,0,0,0,49.13-8.53l8.08,1.44,12.68,4.49a31.5,31.5,0,0,0,38.47,31.32c-.2.65-.42,1.32-.67,2l-3.07,8.67c-.93,2.63.11,3.75,2.74,3.37,4.35-.28,5.21-1.73,7.52-8.27l3.07-8.67c.15-.43.27-.86.39-1.3a31.36,31.36,0,0,0,12.46-15.27l2.2.58a1,1,0,0,0,1.23-.71l2.08-7.85A1,1,0,0,0,645.62,816.11Zm-139.24-15a26.12,26.12,0,0,1-.72-13.93l22,7.8-4.07-.73A17.58,17.58,0,0,0,506.38,801.08Zm18.19,17.09a26.07,26.07,0,0,1-12.92-8c3.5-9.29,9.35-8.29,18.46-6.66l13.17,2.36.22-1.21,10.17,1.82A26.26,26.26,0,0,1,524.57,818.17Zm32.34-19.65-49.14-17.39a26.25,26.25,0,0,1,49.14,17.39ZM581.24,805l-12.37-2.21-7-2.47c0-.18.09-.35.13-.53a23.29,23.29,0,0,1,19.26,5.11ZM619.8,838.9a26.26,26.26,0,0,1-34.62-23.61l9.6,3.4-.41,1.16L607,824.31C615.62,827.37,621.17,829.37,619.8,838.9Zm9-5.22a17.59,17.59,0,0,0-11.56-14.27l-8.73-3.08,28.09,5A26.09,26.09,0,0,1,628.81,833.68ZM586.45,805.9a26.25,26.25,0,0,1,51.19,9.16Z" transform="translate(0 0.6)"/><path class="cls-10" d="M1087.76,913.05h0a45.87,45.87,0,0,0,19.92,8.17,5.23,5.23,0,0,0-1.14-1.71l-11.86-11h0a52.5,52.5,0,0,0,10.44-32.88,1,1,0,0,0-.13,0,50,50,0,0,0-13-33,51.81,51.81,0,0,0-36.54-17.46h-.2c-.67,0-1.34-.05-2-.05h-.45c-.39,0-.77,0-1.15,0l-.58,0a50.6,50.6,0,0,0-21.58,5.6l-.13.07c-.56.29-1.12.6-1.66.91-.34.19-.68.38-1,.58l-.62.38a51.78,51.78,0,0,0-24.55,37.93h0a52,52,0,0,0,86,45.48c.05,0,.1-.1.11-.09l11.86,11a5,5,0,0,0,8.05-5.75A45.57,45.57,0,0,1,1087.76,913.05Z" transform="translate(0 0.6)"/><path class="cls-11" d="M412.69,273a4,4,0,0,1-1.85,5.32l-181.57,88a4,4,0,0,1-5.32-1.84l-61.06-126a4,4,0,0,1,1.85-5.32l181.57-88a4,4,0,0,1,5.32,1.84Z" transform="translate(0 0.6)"/><g class="cls-12"><path class="cls-13" d="M378.59,211.7a1.93,1.93,0,1,1-2.58-.9A1.92,1.92,0,0,1,378.59,211.7Z" transform="translate(0 0.6)"/><path d="M378,212a1.23,1.23,0,1,1-2.21,1.07A1.23,1.23,0,0,1,378,212Z" transform="translate(0 0.6)"/></g><path class="cls-14" d="M391.13,270a3.29,3.29,0,0,1-1.53,4.4L239.37,347.18a3.29,3.29,0,0,1-4.4-1.53L184.45,241.38A3.29,3.29,0,0,1,186,237l150.23-72.79a3.29,3.29,0,0,1,4.4,1.53Z" transform="translate(0 0.6)"/><path class="cls-15" d="M202.78,279.21,235,345.65a3.29,3.29,0,0,0,4.4,1.53L389.6,274.39a3.29,3.29,0,0,0,1.53-4.4l-9.7-20Z" transform="translate(0 0.6)"/><path class="cls-16" d="M362.15,797.35h0Z" transform="translate(0 0.6)"/><path class="cls-16" d="M456,880.13v.21c-3-8.28-4.31-14.62-8.77-29.4-2-8.31-2.13-20.48-4.09-33.19-1.19-7.72-1-9.37-1.67-11.09.33.16-.24-.51-.78-1.8a19.63,19.63,0,0,0-2.3-3.42,12.52,12.52,0,0,0-1.25-1.58c-6.95-10.05-4.53-11-35.58-14.2h-.08c-2.35-.3-4.66-.56-6.91-.81l-4.21-.51-5.66-.92a17.17,17.17,0,0,0-3-.48c-8-.37-9.6,2.7-10,8.7-.11.88-.2,1.86-.27,3V797c-.18,2-.43,4-.48,6.09a5.5,5.5,0,0,0-.33-1,11.51,11.51,0,0,0-5.25-5.12c-.44-.17-.77-.3-1.07-.4a3.74,3.74,0,0,0-.45-.12,9.36,9.36,0,0,0-2.24-.13h0A6,6,0,0,0,359,797h0a7.85,7.85,0,0,0-1.21.76c-5.87,4.57.33,5.42,2.28,18.46-.14,7,.06,9.78.81,12.78H361v-.41c0,1.67,1.22,3,2.45,5.11,7.58,15.28,6.26,13,10.48,16.76h0A96.35,96.35,0,0,0,384.32,859a278.63,278.63,0,0,1,20.76,18.65c13.82,24.45,21,41.3,26.23,60.53a114.89,114.89,0,0,1,3.36,22c2.69,20.7,9.55,39.79,9.36,39.79h61.18S465,903,456,880.13Z" transform="translate(0 0.6)"/><path class="cls-17" d="M390.33,797.93c16.87-2.93,35.58-2.13,48.56,6.91,1.6,1.11,2.34,1.68,2.6,1.82s-.24-.49-.79-1.8a18.7,18.7,0,0,0-2.31-3.42c-.37-.48-.76-1-1.15-1.43l-.1-.15c-6.95-10.05-4.53-11-35.58-14.2h-.08l-6.91-.81-6.65-.81-1.62-.24h0a28.2,28.2,0,0,0-4.56-.85,11.6,11.6,0,0,0-3.24.32,5.52,5.52,0,0,0-3.07,1.32h1l-.14,0c-.45,0-.9.11-1.36.2l-.12,0C379.16,784.09,384.71,791.25,390.33,797.93Z" transform="translate(0 0.6)"/><path class="cls-17" d="M388.94,831.76c-.56-1.18-1.06-2.11-1.52-3.1-.06-.12-.11-.16-.17-.28s-.1-.19-.15-.3c-2.46-5.31-3.48-8-4-11.06a.37.37,0,0,1,0-.09l-.06-.34c-.2-1.36-.33-2.76-.44-4.59-.22-3.49-1.31-6.27-2.5-6.86A1.19,1.19,0,0,1,380,805h0c0-.29-.76-.43-.88-.46-.65.09-1.32.9-2.32,2.1,0,0-.12-.15-.19,0-.64.76-1.39,1.38-2.31,2.38h0c-.63,0-1-.86-1.29-2.38-.06-.36-.12-.69-.17-1.08-.16-1.19-.38-3.31-.56-5.77-.13-1.9-.23-3.94-.26-5.85v-.85h0a2.83,2.83,0,0,1-.06.42c-.1.69-.18,1.26-.24,1.74h0c0,.27-.19.54-.21.8-.17,2.47-.5,4.44-.56,6.86-.65-1.37-2.84-5.16-7.16-6.27h0a9,9,0,0,0-1.21-.22c4,.71,6.91,7.37,8.72,13.44,0,.44.11.89.17,1.37a22.32,22.32,0,0,0,5.23,10.84,10.88,10.88,0,0,0,2.62,3,1.67,1.67,0,0,0,.28.18,3,3,0,0,0,.44.22h0a15.61,15.61,0,0,1,3.88,2.85c.94.85,2,1.83,3,2.87s2.17,2.23,3.18,3.36h0v0s0-.26,0-.26a2.64,2.64,0,0,0,0-.28h0A8.76,8.76,0,0,0,388.94,831.76ZM380,805.05l.05.07-.05,0h0Z" transform="translate(0 0.6)"/><path class="cls-18" d="M194.79,991.54l-122.7-91.7a3.14,3.14,0,0,1-.63-4.4L210.89,708.88a3.14,3.14,0,0,1,4.4-.64L338,799.94a3.14,3.14,0,0,1,.64,4.4L199.19,990.9A3.14,3.14,0,0,1,194.79,991.54Z" transform="translate(0 0.6)"/><rect class="cls-19" x="261.64" y="709.31" width="1.2" height="130.76" transform="translate(-515.28 521.58) rotate(-53.23)"/><rect class="cls-19" x="253.76" y="719.84" width="1.2" height="130.76" transform="translate(-526.88 519.49) rotate(-53.23)"/><rect class="cls-19" x="245.89" y="730.38" width="1.2" height="130.76" transform="translate(-538.49 517.41) rotate(-53.23)"/><rect class="cls-19" x="238.01" y="740.92" width="1.2" height="130.76" transform="translate(-550.09 515.34) rotate(-53.23)"/><rect class="cls-19" x="230.14" y="751.46" width="1.2" height="130.76" transform="translate(-561.69 513.25) rotate(-53.23)"/><rect class="cls-19" x="222.26" y="761.99" width="1.2" height="130.76" transform="translate(-573.29 511.18) rotate(-53.23)"/><rect class="cls-19" x="214.39" y="772.53" width="1.2" height="130.76" transform="translate(-584.89 509.1) rotate(-53.23)"/><rect class="cls-19" x="206.51" y="783.07" width="1.2" height="130.76" transform="translate(-596.49 507.02) rotate(-53.23)"/><rect class="cls-19" x="198.63" y="793.61" width="1.2" height="130.76" transform="translate(-608.1 504.95) rotate(-53.23)"/><rect class="cls-19" x="190.76" y="804.15" width="1.2" height="130.76" transform="translate(-619.7 502.87) rotate(-53.23)"/><rect class="cls-19" x="182.88" y="814.69" width="1.2" height="130.76" transform="translate(-631.3 500.79) rotate(-53.23)"/><rect class="cls-19" x="175.01" y="825.22" width="1.2" height="130.76" transform="translate(-642.91 498.71) rotate(-53.23)"/><rect class="cls-19" x="167.13" y="835.76" width="1.2" height="130.76" transform="translate(-654.51 496.63) rotate(-53.23)"/><rect class="cls-19" x="159.26" y="846.3" width="1.2" height="130.76" transform="translate(-666.11 494.55) rotate(-53.23)"/><rect class="cls-19" x="151.38" y="856.84" width="1.2" height="130.76" transform="translate(-677.71 492.47) rotate(-53.23)"/><rect class="cls-19" x="143.51" y="867.37" width="1.2" height="130.76" transform="matrix(0.6, -0.8, 0.8, 0.6, -689.31, 490.39)"/><path class="cls-20" d="M222.55,724.41l-2.24-1.67c-.35-.27-.23-1,.28-1.73l8.53-11.41c.51-.68,1.22-1,1.58-.75l2.23,1.67c.36.26.23,1-.28,1.72l-8.52,11.41C223.61,724.33,222.91,724.67,222.55,724.41Z" transform="translate(0 0.6)"/><path class="cls-20" d="M231.65,731.21l-2.24-1.67c-.35-.27-.23-1,.29-1.73l8.52-11.4c.51-.69,1.22-1,1.58-.76l2.23,1.67c.36.26.23,1-.28,1.72l-8.52,11.41C232.71,731.14,232,731.48,231.65,731.21Z" transform="translate(0 0.6)"/><path class="cls-20" d="M240.75,738l-2.23-1.67c-.36-.27-.24-1,.28-1.73l8.52-11.4c.51-.69,1.22-1,1.58-.76l2.23,1.67c.36.27.23,1-.28,1.73l-8.52,11.4C241.81,737.94,241.11,738.28,240.75,738Z" transform="translate(0 0.6)"/><path class="cls-20" d="M249.85,744.81l-2.23-1.67c-.36-.26-.24-1,.28-1.72L256.42,730c.51-.69,1.22-1,1.58-.76l2.23,1.67c.36.27.23,1-.28,1.73l-8.52,11.4C250.91,744.74,250.21,745.08,249.85,744.81Z" transform="translate(0 0.6)"/><path class="cls-20" d="M259,751.61,256.72,750c-.36-.27-.23-1.05.28-1.73l8.52-11.41c.51-.68,1.22-1,1.58-.76l2.23,1.67c.36.27.23,1-.28,1.73l-8.52,11.41C260,751.54,259.31,751.88,259,751.61Z" transform="translate(0 0.6)"/><path class="cls-20" d="M268.05,758.42l-2.23-1.67c-.36-.27-.23-1,.28-1.73l8.52-11.41c.51-.68,1.22-1,1.58-.75l2.23,1.66c.36.27.23,1.05-.28,1.73l-8.52,11.41C269.12,758.34,268.41,758.68,268.05,758.42Z" transform="translate(0 0.6)"/><path class="cls-20" d="M277.15,765.22l-2.23-1.67c-.36-.27-.23-1,.28-1.73l8.52-11.4c.52-.69,1.22-1,1.58-.76l2.23,1.67c.36.26.24,1-.28,1.72l-8.52,11.41C278.22,765.14,277.51,765.48,277.15,765.22Z" transform="translate(0 0.6)"/><path class="cls-20" d="M286.25,772,284,770.35c-.36-.27-.23-1,.28-1.73l8.52-11.4c.52-.69,1.22-1,1.58-.76l2.24,1.67c.35.27.23,1-.29,1.73l-8.52,11.4C287.32,772,286.61,772.29,286.25,772Z" transform="translate(0 0.6)"/><path class="cls-20" d="M295.36,778.82l-2.24-1.67c-.36-.27-.23-1,.28-1.73l8.52-11.4c.52-.69,1.22-1,1.58-.76l2.24,1.67c.35.27.23,1-.28,1.73l-8.53,11.4C296.42,778.75,295.71,779.09,295.36,778.82Z" transform="translate(0 0.6)"/><path class="cls-20" d="M304.46,785.62,302.22,784c-.36-.26-.23-1,.28-1.73l8.53-11.4c.51-.69,1.22-1,1.57-.76l2.24,1.67c.36.27.23,1-.28,1.73L306,784.86C305.52,785.55,304.81,785.89,304.46,785.62Z" transform="translate(0 0.6)"/><path class="cls-20" d="M313.56,792.42l-2.24-1.67c-.36-.26-.23-1,.28-1.72l8.53-11.41c.51-.68,1.22-1,1.57-.76l2.24,1.67c.36.27.23,1-.28,1.73l-8.53,11.41C314.62,792.35,313.91,792.69,313.56,792.42Z" transform="translate(0 0.6)"/><path class="cls-20" d="M322.66,799.22l-2.24-1.66c-.35-.27-.23-1,.29-1.73l8.52-11.41c.51-.68,1.22-1,1.57-.75l2.24,1.66c.36.27.23,1-.28,1.73l-8.52,11.41C323.72,799.15,323,799.49,322.66,799.22Z" transform="translate(0 0.6)"/><path class="cls-21" d="M248.7,852.1c-1.11-2.35-2.59-4.41-10.25-3.09s-19.71,3.1-23.66,3.68c-3.77.55-17,2.61-24.59,3.34l.53-.6c-4.91,1-5.38.41-1.39-1A131.45,131.45,0,0,1,203.76,850s20.17-1.91,32-2.58c4-3.58,3.94-9.13-2.23-11.1-7,.33-28.85.22-35.39.68-1.85.37-7.25,2.09-12.21,3.73,14.44-8.08,12.14-8.6,23.83-7.13,4,.38,10.8-2.15,10.56-5.52s-2-4.54-12.6-4.12a111.93,111.93,0,0,0-18.61,2.21c-.61.13-18.43,7.32-19,7.44l-27.36,5.5,1.82.31-1.69-.17c-7.94,2-27.94,14.86-27.94,14.86l-2,.4c-.92.12-1.78.25-2.77.4C73.14,860.55,0,876.6,0,876.6v64c17-6.85,71-37.6,120-39.23v0l7.07.2c9.12,2,20.41,7.48,26.8,11.74,8.15,5.42,28.07,12.12,28.07,12.12s14.31,5.27,18,8.8,8-12.57-12.57-22.49h0c-9.51-5.17-12.83-7.08-12.83-7.08s-1.23-6.07,1.23-7.51c8.32-5.07,10.64-5,30.16-8.55,20.24-3.63,29.19-5.93,34.07-7.22a6.66,6.66,0,0,0,4.58-9.18c-1.45-2.92-4.7-3.14-13.71-2.19s-18,2.19-22.13,2.81c-2.3.34-7.52,1.83-13.13,1.83-3.86,0-5.21-2.7-.83-3.78,17.67-4.33,31.05-6.24,37.11-7.45s12-1.92,15.15-3.45S249.82,854.44,248.7,852.1Z" transform="translate(0 0.6)"/><path class="cls-16" d="M248.7,847.1c-1.11-2.35-2.59-4.41-10.25-3.09s-19.71,3.1-23.66,3.68c-3.77.55-17,2.61-24.59,3.34l.53-.6c-4.91,1-5.38.41-1.39-1A131.45,131.45,0,0,1,203.76,845s20.17-1.91,32-2.58c4-3.58,3.94-9.13-2.23-11.1-7,.33-28.85.22-35.39.68-1.85.37-7.25,2.09-12.21,3.73,14.44-8.08,12.14-8.6,23.83-7.13,4,.38,10.8-2.15,10.56-5.52s-2-4.54-12.6-4.12a111.93,111.93,0,0,0-18.61,2.21c-.61.13-18.43,7.32-19,7.44l-27.36,5.5,1.82.31-1.69-.17c-7.94,2-27.94,14.86-27.94,14.86l-2,.4c-.92.12-1.78.25-2.77.4C73.14,855.55,0,871.6,0,871.6v64c17-6.85,71-37.6,120-39.23v0l7.07.2c9.12,2,20.41,7.48,26.8,11.74,8.15,5.42,28.07,12.12,28.07,12.12s14.31,5.27,18,8.8,8-12.57-12.57-22.49h0c-9.51-5.17-12.83-7.08-12.83-7.08s-1.23-6.07,1.23-7.51c8.32-5.07,10.64-5,30.16-8.55,20.24-3.63,29.19-5.93,34.07-7.22a6.66,6.66,0,0,0,4.58-9.18c-1.45-2.92-4.7-3.14-13.71-2.19s-18,2.19-22.13,2.81c-2.3.34-7.52,1.83-13.13,1.83-3.86,0-5.21-2.7-.83-3.78,17.67-4.33,31.05-6.24,37.11-7.45s12-1.92,15.15-3.45S249.82,849.44,248.7,847.1Z" transform="translate(0 0.6)"/><polygon class="cls-22" points="1466.14 411.06 1500 389.2 1500 469.74 1492.15 470.78 1459.27 436.65 1466.14 411.06"/><path class="cls-16" d="M687.23,15.09c6.53,12.26,19,26.33,27.67,33.77,11.06,9.48,28.71,35.35,28.71,35.35s13.71,18.4,20.27,22.28S749,123,727,97.6h0c-11-11.51-15.71-15.5-15.71-15.5s-9.37.69-10.44,4.79h0c-3.91,14-3,17.29-.15,46.64,3,30.45,3.25,44.2,3.36,51.71a9.93,9.93,0,0,1-11.32,10.26c-4.76-.89-6.4-5.46-8.67-18.75s-3.86-26.61-4.65-32.81c-.44-3.43-.42-11.54-2.42-19.52h0c-2-5.56-6.24-6.39-6,.32.93,27.05,3.47,47,4.18,56.15s2.05,18,1.12,23.07-6.85,6.16-10.66,5.52-7.37-1.94-8.57-13.43-3.53-29.47-4.3-35.36c-.73-5.62-3.12-25.4-5.14-36.56h0c-.5-7.45-2.25-6.87-2.7-.57-1,16.09-.5,22.42-.5,22.42s5.41,29.64,9.24,46.88c-3.52,7.16-11.49,9.34-16.81,1.3-2.34-10.16-11.32-41.4-13.3-50.95-.22-2.8.07-11.23.41-19-5.75,23.94-7.42,20.86-.6,37,2.18,5.6,1.3,16.34-3.63,17.35s-7.3-1-11-16.38a165.45,165.45,0,0,1-4.34-27.53c-.07-.93,3-29.35,3-30.28S604.16,63,604.16,63l1.19,2.48-.93-2.34c-.31-12.19,10-46,10-46l0-16.12h66.88Z" transform="translate(0 0.6)"/><path class="cls-23" d="M624.85,29.94a38.9,38.9,0,0,0-3,3.77c-5.12,7.56-8.53,15.07-9.85,24.2-.93,6.44-2.31,12.8-2.87,19.29A81.09,81.09,0,0,0,609.32,94c-.31,2.55-.62,5.1-1,7.64-.45,3.43-1.1,6.72-1.65,10l-.33.54c.42-4.26.72-7.51.7-7.81-.07-.94-3.18-41.4-3.18-41.4l1.31,2.47-1-2.34c-.31-12.18,9.92-46,9.92-46L614.38,1H620C621.22,8.81,623.1,22.22,624.85,29.94Z" transform="translate(0 0.6)"/><path class="cls-17" d="M125.11,853.5a26.15,26.15,0,0,1,1.9-2.6,37.74,37.74,0,0,1,13.86-10.79c4-1.78,7.86-3.83,12-5.37a54.23,54.23,0,0,1,10.9-3c1.59-.67,3.19-1.33,4.77-2,2.14-.92,4.15-1.94,6.18-2.89l.3-.32c-2.68,1.05-4.73,1.84-4.93,1.88l-27.37,5.49,1.84.41-1.69-.22c-7.94,2-28,14.82-28,14.82l-6.59,1.32,2.71,1.59C115,853.52,119.8,853.77,125.11,853.5Z" transform="translate(0 0.6)"/><path class="cls-16" d="M1420,430.64c-4.25,1.22-26.78,7.15-37,7.29l-.28-.07-.57.06s-25.07-11.1-34.26-11.05l-1.78.67,1.89-.86-31.24,1.76c-.71,0-22.07-2.73-22.77-2.69a124.57,124.57,0,0,0-20.81,2.85c-11.64,2.54-13.19,4.29-12.51,8s8.76,4.56,13,3c12.27-4.89,9.92-3.68,27.87,1-5.84-.37-12.19-.72-14.3-.6-7.23,1.35-30.91,7.64-38.59,9.25-6.14,3.88-4.62,9.92.72,12.68,13-2.62,35.46-6.24,35.46-6.24s4.78-.26,16.89.72c4.74.44,5.41,2.26-.21,2.51l-.17.06c-8.44,1.35-23.47,2.3-27.71,2.77-4.45.48-18,2-26.71,2.69s-9.71,3.39-10.25,6.24.18,7.32,4,8.1,10.37-.12,17.42-.52,22-1.74,42.39-2c5.06-.06,4.23,4.73.18,4.73h0c-6.08,1-12.19,1.05-14.78,1.32-4.68.5-14.78,1.45-24.83,3s-13.52,2.58-14.26,6.16a7.43,7.43,0,0,0,7.56,8.62c5.66,0,16-.05,39-1.82,22.16-1.7,24.68-2.44,35.14.72,3.07.87,3.44,7.8,3.44,7.8S1328.85,509,1320,518h0c-19.48,17-10.21,32.78-7.26,28s17.1-14.55,17.1-14.55,19.77-12.92,27.08-21.11c5.74-6.42,16.53-15.6,25.87-20.34l9.19-2.66h.1l.91-.24v0c20-6.41,49.15-10.45,49.15-10.45s17.85-6.45,17.65-7.07S1424.37,429.39,1420,430.64Z" transform="translate(0 0.6)"/><path class="cls-22" d="M1416.05,430.85l23.31,52.23s52.23-12.9,52.86-12.9-26-59.73-26-59.73Z" transform="translate(0 0.6)"/><path class="cls-11" d="M621.83,813.57l-20.2-7.14-.14.41-89.37-31.63-2.13,6,89.37,31.63L599,814l12.62,4.46c10.62,3.76,16.57,5.92,10.72,22.47l-3.07,8.67c-.93,2.63.11,3.75,2.74,3.37,4.35-.28,5.21-1.73,7.52-8.27l3.07-8.67A17.62,17.62,0,0,0,621.83,813.57Z" transform="translate(0 0.6)"/><path class="cls-11" d="M642.53,809.27,549.2,792.58l.08-.43-21.09-3.77a17.6,17.6,0,0,0-20.42,14.23l-1.62,9c-1.22,6.83-1.2,8.52,2.45,10.9,2.1,1.64,3.56,1.18,4-1.57l1.62-9c3.09-17.28,9.33-16.21,20.43-14.23l13.17,2.36.21-1.21,93.32,16.69Z" transform="translate(0 0.6)"/><path class="cls-11" d="M650.2,810.26l-2.73-.72a31.51,31.51,0,0,0-59.41-15.94,28.93,28.93,0,0,0-20.7-5.49,31.51,31.51,0,0,0-59.51-15.57l-2.72-.72a1,1,0,0,0-1.23.71l-2.08,7.86a1,1,0,0,0,.71,1.22l2.2.58A31.51,31.51,0,0,0,566.33,795c.09-.36.18-.73.26-1.1A23.26,23.26,0,0,1,585.85,799c-.11.36-.21.72-.31,1.09a31.5,31.5,0,0,0,59.87,19.35l2.19.58a1,1,0,0,0,1.23-.71l2.08-7.85A1,1,0,0,0,650.2,810.26Zm-121.05,2.07a26.25,26.25,0,1,1,32.1-18.65A26.24,26.24,0,0,1,529.15,812.33Zm80.12,21.23a26.25,26.25,0,1,1,32.1-18.65A26.25,26.25,0,0,1,609.27,833.56Z" transform="translate(0 0.6)"/><g class="cls-24"><g class="cls-7"><path class="cls-25" d="M636.7,791.05a43.66,43.66,0,0,1-44.14,28,26.25,26.25,0,1,0,44.14-28Z" transform="translate(0 0.6)"/></g><g class="cls-7"><path class="cls-25" d="M554.09,787.92a43.58,43.58,0,0,1-41.21,10.71,26.26,26.26,0,0,0,48.33-19.57A43.2,43.2,0,0,1,554.09,787.92Z" transform="translate(0 0.6)"/></g><g class="cls-26"><path class="cls-27" d="M590.61,800.46A26.21,26.21,0,0,0,592.55,819a43.67,43.67,0,0,0,44.15-28,26.26,26.26,0,0,0-46.09,9.41Z" transform="translate(0 0.6)"/></g><g class="cls-26"><path class="cls-27" d="M553.28,766.3a26.26,26.26,0,0,0-40.4,32.33,43.68,43.68,0,0,0,48.33-19.57A26.36,26.36,0,0,0,553.28,766.3Z" transform="translate(0 0.6)"/></g></g><path class="cls-28" d="M1003.47,113.3s0,0,0,.06a43.22,43.22,0,0,0-17.55,14.73h0A43.33,43.33,0,0,1,1003.47,113.3Z" transform="translate(0 0.6)"/><path class="cls-29" d="M1003.47,113.3a43.33,43.33,0,0,0-17.57,14.78,5.5,5.5,0,0,0-1-.8l-6.41-3.44a52.62,52.62,0,0,1,27.67-20.67l0,.07h0A81,81,0,0,0,1003.47,113.3Z" transform="translate(0 0.6)"/><path class="cls-29" d="M981.26,136.72a43.51,43.51,0,0,0,54.47,57.36,80.7,80.7,0,0,0,8.91,5.47,52,52,0,0,1-71-66.54l0-.13,6.39,3.44A5.54,5.54,0,0,0,981.26,136.72Z" transform="translate(0 0.6)"/><path class="cls-30" d="M1060,173.47a43.52,43.52,0,0,0-56.57-60.11s0,0,0-.06a81,81,0,0,1,2.66-10h0a52,52,0,0,1,38.49,96.3,80.19,80.19,0,0,1-8.91-5.48c.4-.13.79-.27,1.18-.42A43.27,43.27,0,0,0,1060,173.47Z" transform="translate(0 0.6)"/><path class="cls-31" d="M1060,173.47a43.27,43.27,0,0,1-23.12,20.17,63,63,0,0,1-5.39-4,38.08,38.08,0,0,0-8.53-74.85,38.29,38.29,0,0,0-12.56,1.7c.71-2.11,1.52-4.19,2.45-6.25A43.51,43.51,0,0,1,1060,173.47Z" transform="translate(0 0.6)"/><path class="cls-32" d="M1021.65,117.18a53.19,53.19,0,0,0,17.52,69.53,38.08,38.08,0,1,1-28.74-70.2,38.29,38.29,0,0,1,12.56-1.7C1022.53,115.59,1022.08,116.37,1021.65,117.18Z" transform="translate(0 0.6)"/><path class="cls-33" d="M1021.65,117.18c.43-.81.88-1.59,1.34-2.37a38.08,38.08,0,0,1,16.18,71.9A53.19,53.19,0,0,1,1021.65,117.18Z" transform="translate(0 0.6)"/><path class="cls-34" d="M962.25,115.76A45.47,45.47,0,0,0,981,134.65c1.18.64,2.38,1.2,3.58,1.72a4.87,4.87,0,0,0,2.32-2.15v0a5.06,5.06,0,0,0-1.05-6.09,43.55,43.55,0,0,1,27-17.83c-.93,2.06-1.74,4.14-2.45,6.25a38.07,38.07,0,0,0,21.09,73.15,63,63,0,0,0,5.39,4c-.39.15-.78.29-1.18.42a43.51,43.51,0,0,1-54.46-57.34h0a5.54,5.54,0,0,1-1.21-.4l-6.39-3.44-14.23-7.64a5,5,0,0,1,2.82-9.48Z" transform="translate(0 0.6)"/><path class="cls-31" d="M985.9,128.08h0a5.06,5.06,0,0,1,1.05,6.09v0a5,5,0,0,1-2.32,2.15c-1.2-.52-2.41-1.07-3.58-1.71a45.55,45.55,0,0,1-18.76-19,5.07,5.07,0,0,1,2,.52l14.22,7.64,6.41,3.44A5.5,5.5,0,0,1,985.9,128.08Z" transform="translate(0 0.6)"/><path class="cls-28" d="M174.61,407l0,.06a43.22,43.22,0,0,0-7.91,21.51h0A43.32,43.32,0,0,1,174.61,407Z" transform="translate(0 0.6)"/><path class="cls-35" d="M174.61,407a43.32,43.32,0,0,0-7.9,21.57,5.27,5.27,0,0,0-1.26-.21l-7.27.2a52.59,52.59,0,0,1,13.74-31.68s0,0,0,.07h0A79.26,79.26,0,0,0,174.61,407Z" transform="translate(0 0.6)"/><path class="cls-35" d="M167,438.33A43.51,43.51,0,0,0,242.75,461a80.54,80.54,0,0,0,10.45.32,52,52,0,0,1-94.71-22.42c0-.07,0-.14,0-.14l7.26-.2A5.23,5.23,0,0,0,167,438.33Z" transform="translate(0 0.6)"/><path class="cls-36" d="M253.6,431.06a43.52,43.52,0,0,0-79-24l0-.06a79.26,79.26,0,0,1-2.69-10h0a52,52,0,0,1,81.27,64.42,80.54,80.54,0,0,1-10.45-.32l.81-.95A43.39,43.39,0,0,0,253.6,431.06Z" transform="translate(0 0.6)"/><path class="cls-6" d="M253.6,431.06a43.39,43.39,0,0,1-10,29,66.51,66.51,0,0,1-6.66-.78,38.07,38.07,0,1,0-54.66-53,65.94,65.94,0,0,1-1-6.64,43.52,43.52,0,0,1,72.34,31.41Z" transform="translate(0 0.6)"/><path class="cls-37" d="M192.31,401.29a53.21,53.21,0,0,0,49.77,51.63,38.08,38.08,0,1,1-49.78-54.34C192.28,399.47,192.28,400.38,192.31,401.29Z" transform="translate(0 0.6)"/><path class="cls-38" d="M192.31,401.29c0-.91,0-1.82,0-2.71a38.08,38.08,0,0,1,49.78,54.34A53.21,53.21,0,0,1,192.31,401.29Z" transform="translate(0 0.6)"/><path class="cls-39" d="M140.06,429.59a45.58,45.58,0,0,0,25.7,7.05c1.34,0,2.65-.14,4-.29a5.08,5.08,0,0,0,1.11-3l.17,0v0a5.14,5.14,0,0,0-4.11-4.76A43.31,43.31,0,0,1,174.71,407a44,44,0,0,1,6.59-7.37c.22,2.25.53,4.46,1,6.64a38.07,38.07,0,0,0,54.65,53,66,66,0,0,0,6.65.78l-.81.95A43.52,43.52,0,0,1,167,438.32h0a5.23,5.23,0,0,1-1.25.25l-7.26.2-16.15.44a5,5,0,0,1-2.26-9.63Z" transform="translate(0 0.6)"/><path class="cls-6" d="M166.71,428.53h.18a5.14,5.14,0,0,1,4.11,4.76h0a5.31,5.31,0,0,1-1.11,3c-1.3.15-2.71.27-4,.3a45.79,45.79,0,0,1-25.74-7.13,5,5,0,0,1,2-.54l16.13-.44,7.27-.2A5.19,5.19,0,0,1,166.71,428.53Z" transform="translate(0 0.6)"/><path class="cls-28" d="M1104.52,872.5l0,0a43.43,43.43,0,0,1-8.21,21.4h0A43.33,43.33,0,0,0,1104.52,872.5Z" transform="translate(0 0.6)"/><path class="cls-15" d="M1104.44,872.5a43.27,43.27,0,0,1-8.21,21.43,5.39,5.39,0,0,1,1.1.67l5.35,4.94a52.55,52.55,0,0,0,10.45-32.89,1,1,0,0,0-.13,0v0C1110,868.85,1107.41,870.78,1104.44,872.5Z" transform="translate(0 0.6)"/><path class="cls-15" d="M1089.61,901.13a43.51,43.51,0,0,1-72-32.81,80.2,80.2,0,0,1-8.07-6.65,52,52,0,0,0,86,45.49c.05,0,.1-.1.11-.09l-5.34-4.93A6.13,6.13,0,0,1,1089.61,901.13Z" transform="translate(0 0.6)"/><path class="cls-40" d="M1029.21,838.63a43.53,43.53,0,0,1,75.26,33.9s0,0,0,0c3-1.72,5.56-3.65,8.56-5.79v0a50,50,0,0,0-13-33,52,52,0,0,0-90.48,28,82.87,82.87,0,0,0,8.09,6.64c0-.42,0-.83,0-1.25A43.37,43.37,0,0,1,1029.21,838.63Z" transform="translate(0 0.6)"/><path class="cls-41" d="M1029.21,838.63a43.3,43.3,0,0,0-11.54,28.43c1.79,1.37,3.63,2.63,5.52,3.8a38,38,0,0,1,10-28.54,38.06,38.06,0,0,1,66,24.64,65.15,65.15,0,0,0,5.11-4.34,43.51,43.51,0,0,0-75.12-24Z" transform="translate(0 0.6)"/><path class="cls-37" d="M1094.94,856.58a53.2,53.2,0,0,1-71.45,6.08,37.52,37.52,0,0,0-.3,8.2,38.07,38.07,0,1,0,73.54-16.32C1096.15,855.23,1095.55,855.91,1094.94,856.58Z" transform="translate(0 0.6)"/><path class="cls-38" d="M1094.94,856.58c.61-.67,1.21-1.35,1.79-2a38.08,38.08,0,0,0-73.24,8.12A53.2,53.2,0,0,0,1094.94,856.58Z" transform="translate(0 0.6)"/><path class="cls-42" d="M1115.63,912.28a45.53,45.53,0,0,1-24-11.62q-1.47-1.36-2.79-2.82a4.91,4.91,0,0,1,1.28-2.89l0,0h0a5,5,0,0,1,6.1-1,43.54,43.54,0,0,0,8.07-31.31,65.15,65.15,0,0,1-5.11,4.34,38.07,38.07,0,0,1-76,3.9c-1.89-1.17-3.73-2.43-5.52-3.8,0,.42,0,.83,0,1.25a43.52,43.52,0,0,0,72,32.81h0a6.13,6.13,0,0,0,.77,1l5.34,4.93,11.86,11a5,5,0,0,0,8.05-5.75Z" transform="translate(0 0.6)"/><path class="cls-41" d="M1096.27,893.93h0a5,5,0,0,0-6.1,1h0a5,5,0,0,0-1.29,2.89c.89,1,1.8,1.93,2.79,2.83a45.58,45.58,0,0,0,24,11.56,5.23,5.23,0,0,0-1.14-1.71l-11.86-11-5.34-4.94A5.26,5.26,0,0,0,1096.27,893.93Z" transform="translate(0 0.6)"/><path class="cls-36" d="M448.15,885.4l-.25-.71-3.28,1.18-2.76-7.7,2.56-.92,3,8.41.71-.26-.25-.71.25.71.72-.26L445.59,876a.78.78,0,0,0-.39-.43.83.83,0,0,0-.58,0l-4,1.44a.73.73,0,0,0-.42.39.71.71,0,0,0,0,.57l3.28,9.12a.73.73,0,0,0,.38.43.78.78,0,0,0,.58,0l4-1.43a.78.78,0,0,0,.43-.39.83.83,0,0,0,0-.58Z" transform="translate(0 0.6)"/><path class="cls-36" d="M426.51,893.18l-.26-.71L423,893.65,420.21,886l2.57-.93,3,8.41.71-.26-.26-.71.26.71.71-.26-3.28-9.11a.75.75,0,0,0-.39-.43.8.8,0,0,0-.57,0l-4,1.44a.75.75,0,0,0-.43.39.73.73,0,0,0,0,.58l3.28,9.11a.78.78,0,0,0,.39.43.83.83,0,0,0,.58,0l4-1.44a.75.75,0,0,0,.43-.39.73.73,0,0,0,0-.58Z" transform="translate(0 0.6)"/><rect class="cls-19" x="445.19" y="875.52" width="11.24" height="7.57" transform="matrix(0.94, -0.34, 0.34, 0.94, -270.86, 204.93)"/><rect class="cls-19" x="411.99" y="887.73" width="9.91" height="7.57" transform="matrix(0.94, -0.34, 0.34, 0.94, -277, 194.2)"/><path class="cls-36" d="M445.15,881.24A12,12,0,1,1,429.74,874,12,12,0,0,1,445.15,881.24Z" transform="translate(0 0.6)"/><path class="cls-43" d="M443.29,881.91a10.07,10.07,0,1,1-12.89-6.08A10.07,10.07,0,0,1,443.29,881.91Z" transform="translate(0 0.6)"/><path class="cls-44" d="M431.44,878.71a.31.31,0,0,1-.39-.19l-.62-1.71a.3.3,0,0,1,.19-.38.29.29,0,0,1,.38.18l.62,1.71A.32.32,0,0,1,431.44,878.71Z" transform="translate(0 0.6)"/><path class="cls-44" d="M436.86,893.8a.3.3,0,0,1-.39-.18l-.61-1.71a.31.31,0,0,1,.18-.39.32.32,0,0,1,.39.18l.61,1.71A.3.3,0,0,1,436.86,893.8Z" transform="translate(0 0.6)"/><path class="cls-44" d="M442.15,882.57l-1.71.62a.3.3,0,0,1-.38-.19.29.29,0,0,1,.18-.38L442,882a.32.32,0,0,1,.39.18A.31.31,0,0,1,442.15,882.57Z" transform="translate(0 0.6)"/><path class="cls-44" d="M427.06,888l-1.71.61a.3.3,0,0,1-.39-.18.31.31,0,0,1,.18-.39l1.71-.61a.3.3,0,0,1,.39.18A.31.31,0,0,1,427.06,888Z" transform="translate(0 0.6)"/><path class="cls-44" d="M438.53,879.74a.14.14,0,0,1-.15,0,.14.14,0,0,1,0-.21l.7-.83a.16.16,0,0,1,.24.2l-.71.83Z" transform="translate(0 0.6)"/><path class="cls-44" d="M428.17,892a.14.14,0,0,1-.15,0,.16.16,0,0,1,0-.21l.71-.83a.14.14,0,0,1,.21,0,.16.16,0,0,1,0,.21l-.71.83Z" transform="translate(0 0.6)"/><path class="cls-44" d="M435,878.09H435a.15.15,0,0,1-.12-.18l.19-1.07a.15.15,0,0,1,.18-.12.15.15,0,0,1,.12.17l-.19,1.08A.18.18,0,0,1,435,878.09Z" transform="translate(0 0.6)"/><path class="cls-44" d="M432.18,893.88h-.08a.14.14,0,0,1-.12-.17l.19-1.07a.15.15,0,0,1,.3.05l-.19,1.07A.15.15,0,0,1,432.18,893.88Z" transform="translate(0 0.6)"/><path class="cls-44" d="M427.92,880.56a.16.16,0,0,1-.15,0l-.69-.59a.16.16,0,0,1,0-.21.15.15,0,0,1,.22,0l.69.58a.17.17,0,0,1,0,.22Z" transform="translate(0 0.6)"/><path class="cls-44" d="M440.17,890.92a.16.16,0,0,1-.15,0l-.69-.59a.15.15,0,0,1,0-.21.14.14,0,0,1,.21,0l.7.59a.14.14,0,0,1,0,.21S440.19,890.91,440.17,890.92Z" transform="translate(0 0.6)"/><path class="cls-44" d="M426.25,884.11h-.08l-.89-.16a.14.14,0,0,1-.12-.17.15.15,0,0,1,.18-.13l.89.16a.16.16,0,0,1,.12.18A.17.17,0,0,1,426.25,884.11Z" transform="translate(0 0.6)"/><path class="cls-44" d="M442,887H442l-.89-.16a.15.15,0,0,1-.12-.18.15.15,0,0,1,.17-.12l.89.16a.16.16,0,0,1,.13.18A.17.17,0,0,1,442,887Z" transform="translate(0 0.6)"/><polygon class="cls-6" points="430.74 881.16 432.71 886.65 438.61 889.76 439.52 888.03 434.3 885.27 432.58 880.5 430.74 881.16 430.74 881.16"/><path class="cls-31" d="M189.45,594.15c-2.18-5.78-5.93-5.41-7.49-5.27s-5.62,3.69-15.3,3.53-30.59,1.53-38.08-.93-15.3,3.77-15.61,31.11S124.83,649,125.77,649s59.94-5,59.94-5,3.12-.76,4-4.87.32-34.77,0-36.61S189.45,594.15,189.45,594.15Z" transform="translate(0 0.6)"/><path class="cls-45" d="M189.45,594c-10-5.87-13.73-3-12.17,21.62s9.05,28.5,12.17,21.73a106.54,106.54,0,0,0,2.5-25.84Z" transform="translate(0 0.6)"/><path class="cls-31" d="M128.32,591.64c-21.54-11.52-22.74-7.54-41.48-7.23S0,587.3,0,587.3v85.37l60.08-5s33.47-9,35-9,17.83-.31,26.88-9.68S142.92,626,142.92,626s-13.72-18.76-16.22-21.18S128.32,591.64,128.32,591.64Z" transform="translate(0 0.6)"/><path class="cls-46" d="M260,614.82s-3.83-3.07-4.89-2.88-7.32,4.37-7.38,4.69-4.06,11.37-4.12,11.87,9.87,10.5,12.5,10.19,27.75-9.25,25.09-15.19C256.32,628.63,249,617.44,260,614.82Z" transform="translate(0 0.6)"/><path class="cls-17" d="M291.67,565.1s-8.53,2.27-6.86,11.43,6.62,10.9,7.49,11,3.56,10.05,3.56,10.05,11.22-1.72,11-3-.84-10.41-.84-12.28-10.59-12.61-10.59-12.61Z" transform="translate(0 0.6)"/><path class="cls-16" d="M314.36,601.08l6-5.41s-13.11-15.81-16.23-27.47c-6.87-4.16-15.19,4-8.12,19.28s9.22,19.56,6.22,23.32S314.36,601.08,314.36,601.08Z" transform="translate(0 0.6)"/><path class="cls-47" d="M243.64,633.2,240.9,635a4.85,4.85,0,1,0,5.36,8.09l2.75-1.82a4.86,4.86,0,0,0-5.37-8.09Z" transform="translate(0 0.6)"/><path class="cls-48" d="M243.44,636.32l2.61,3.94c1.35,2,4.46,2.32,6.95.67l5.47-3.63L251,626l-5.47,3.63C243,631.32,242.1,634.3,243.44,636.32Z" transform="translate(0 0.6)"/><rect class="cls-49" x="254.17" y="623.03" width="6.81" height="13.52" transform="translate(-305.22 247.98) rotate(-33.56)"/><path class="cls-50" d="M338.15,568.24l-81.47,54,7.47,11.27,81.47-54c2.5-1.66,3.43-4.63,2.09-6.66l-2.61-3.94C343.76,566.88,340.65,566.58,338.15,568.24Z" transform="translate(0 0.6)"/><path class="cls-15" d="M331.3,571.07,302.45,590.2c-2.49,1.66-3.43,4.64-2.08,6.66l4.64,7c1.35,2,4.46,2.32,6.95.67l28.85-19.14c2.5-1.65,3.43-4.63,2.09-6.66l-4.65-7C336.91,569.71,333.8,569.41,331.3,571.07Z" transform="translate(0 0.6)"/><polygon class="cls-50" points="288.31 596.94 242.13 627.56 241.6 627.91 240.76 628.47 245.03 634.91 246.4 634.01 243.54 629.7 289.72 599.07 288.31 596.94"/><path class="cls-15" d="M354.7,563.64l-8.24,5.46a1.28,1.28,0,1,0,1.42,2.14l8.24-5.47a1.28,1.28,0,1,0-1.42-2.13Z" transform="translate(0 0.6)"/><path class="cls-50" d="M349.82,565.29l-7.48,2c-1,.28-1.53,1.2-1,2l4.49,6.76a1.34,1.34,0,0,0,2.26-.11l4.76-6.1a1,1,0,0,0-.14-1l-2-3C350.48,565.47,350.08,565.22,349.82,565.29Z" transform="translate(0 0.6)"/><path class="cls-16" d="M294.13,599.83c.2-.22.38-.44.56-.65C294.52,599.41,294.31,599.61,294.13,599.83Z" transform="translate(0 0.6)"/><path class="cls-16" d="M288.13,604.86a24.3,24.3,0,0,0,6-5A33.84,33.84,0,0,1,288.13,604.86Z" transform="translate(0 0.6)"/><path class="cls-16" d="M279.07,609.23a67.08,67.08,0,0,0,8.79-4.21C284.39,606.74,281.44,608.15,279.07,609.23Z" transform="translate(0 0.6)"/><polygon class="cls-16" points="248.64 621.72 248.64 621.72 248.64 621.72 248.64 621.72"/><path class="cls-17" d="M264.93,653.63c9.06-3.75,35.59-15.3,40.27-17.79,4.37-5.94,21.85-41.52,21.85-41.52s-5.93-9.68-31.84,25.6c-4.25,1.84-16.48,4.2-28.56,6.22h0c-2.9.49-5.79,1.39-8.56,1.83-14.55,1.76-15-2-9.4-6l.33-.46v-.19c7-5.48,10.18-6.31,10.18-6.31a3.74,3.74,0,0,1,.84-.22,116.45,116.45,0,0,0,13.07-3c.25-.12.49-.25.74-.36h0l0,0c1.13-.4,2.89-1.15,5.23-2.21s5.32-2.49,8.79-4.21L288,605l.14-.1a31.29,31.29,0,0,0,6.56-5.68c.27-.33.53-.66.75-1s.48-.72.68-1.06l.06-.11a12,12,0,0,0,.67-1.42,12.67,12.67,0,0,0,.74-3.34c0-.41.08-.82.12-1.21A5.34,5.34,0,0,0,296,589c-1.39-1.05-3.46-1.53-6.48-1.44a35.39,35.39,0,0,0-3.55.3,95.37,95.37,0,0,0-10.45,2.11l-.31.07h.07l1,0h0l-1,0A116.58,116.58,0,0,0,259,597c-14.36-1.69-43.08-16.92-61.49-3.85-2.5,1.53-7.81-1-14.68,2.15-3.43,4.38-6.86,15.3-3.12,30s6.87,12.18,6.87,12.18l10.61-1.51,2.2-.27.73.2-.12,0C251.82,651.76,255.88,657.38,264.93,653.63Z" transform="translate(0 0.6)"/><path class="cls-16" d="M264.93,653.63c9.06-3.75,35.59-15.3,40.27-17.79,4.37-5.94,21.85-41.52,21.85-41.52s-5.93-9.68-31.84,25.6c-4.25,1.84-16.48,4.2-28.56,6.22h0c-2.9.49-5.79,1.39-8.56,1.83-14.55,1.76-15-2-9.4-6H249v-.65c7-5.48,10.18-6.31,10.18-6.31a3.74,3.74,0,0,1,.84-.22,116.45,116.45,0,0,0,13.07-3c.25-.12.49-.25.74-.36h0c10-6.22,19.87-7.63,13-16.84-4.67-6.21-4.81-4.89-11.47-4.63A116.58,116.58,0,0,0,259,597c-14.36-1.69-43.08-16.92-61.49-3.85-2.5,1.53-7.81-1-14.68,2.15-3.43,4.38-6.86,15.3-3.12,30s6.87,12.18,6.87,12.18l10.61-1.51,2.2-.27.73.2-.12,0C251.82,651.76,255.88,657.38,264.93,653.63Z" transform="translate(0 0.6)"/><path class="cls-15" d="M243.64,633.2,240.9,635a4.85,4.85,0,1,0,5.36,8.09l2.75-1.82a4.86,4.86,0,0,0-5.37-8.09Z" transform="translate(0 0.6)"/><path class="cls-50" d="M243.44,636.32l2.61,3.94c1.35,2,4.46,2.32,6.95.67l5.47-3.63L251,626l-5.47,3.63C243,631.32,242.1,634.3,243.44,636.32Z" transform="translate(0 0.6)"/><rect class="cls-14" x="254.17" y="623.03" width="6.81" height="13.52" transform="translate(-305.22 247.98) rotate(-33.56)"/><path class="cls-50" d="M256.68,622.27l7.47,11.27,19-12.61c-3-1.47-5.9-3-8.9-4.47-1.73-.85-3.48-1.6-5.2-2.39Z" transform="translate(0 0.6)"/><path class="cls-50" d="M259.31,615.57,242.13,627l-.53.35-.84.56,4.28,6.44,1.36-.91-2.86-4.3,18-11.93A5.64,5.64,0,0,1,259.31,615.57Z" transform="translate(0 0.6)"/><path class="cls-51" d="M895,886.12v0s0-.05,0-.07c-.49-3.12-.79-6.84-1.21-11.3-.87-34-.2-28-8.65-39.07A39.19,39.19,0,0,0,880,825h-.14l0,0v0h-.05c-.44-1-.87-1-1.25-1.35l-.1-.1-.15-.12-.26-.21h0l-.23-.17,0,0-.24-.15c-2-1.12-11.92-1.61-15.35-5.66s-12.24-2.24-18.2.25c-1.88-5.37-10.55-4.94-16.71-3.4-.18.05-.37.1-.55.17l-.19.07-.33.13-.25.11-.25.12-.29.16-.19.11-.31.19-.14.09-.34.24-.09.07c-.13.09-.25.19-.37.29l0,0c-1.3,1-2.36,2.29-3.34,3.06a2.5,2.5,0,0,1-.65.22c-2.75-.13-3.38-1.18-5.4-5.46-3-6.74-5.72-14.66-7.9-19.66h0a1.73,1.73,0,0,1-.14-.19c-.66-3.47-2.25-11.51-3.88-16.77-2.11-6.87-4.84-7.21-9.47-6.1-5.85,3.33-3,22-2.17,27.36.18,1.2.5,3.08,1,5.33l-.07.08c.06.19.07.4.12.6h0a8.08,8.08,0,0,1,.35.73c.25.94.55,1.92.88,2.93.17.73.35,1.48.58,2.24,1.54,4.91,3.46,10.52,5.81,16.76,0,0,.51,1.19,1.19,3-2.88,9.3-.15,8.52-2.42,19,1.33,5.91,2.21,6,10.19,27h0a64.93,64.93,0,0,0,5.31,4.88c7.24,6.36,13.26,12,18.4,16.8,1.41,1.33,2.75,2.67,4,3.91,2,1,7.48,3.62,12.22,6a29.9,29.9,0,0,0,4.44,2,18,18,0,0,0,2.11,2.27c.48.54,1,1,1.47,1.61s1.06,1.41,1.6,2c.33.37.65.85,1,1.22a210.76,210.76,0,0,1,18.19,23.38c-.85-1.4-1.65-2.74-2.41-4.06a110,110,0,0,1,5.94,9.66l0-.06a.43.43,0,0,0,0,.07,1,1,0,0,1,.08.14h0l0,0,0,0h0s0-.13,0-.11.17.27.25.27h0c6.82,13,12.4,29,15.67,54h78.22S911,921.55,895,886.12Z" transform="translate(0 0.6)"/><path class="cls-52" d="M803.25,835.55a8.47,8.47,0,0,0-1.76,2.86l-.45,6.15s1.09,5.8,4,7.91,9.82,12.45,7.54,9C810.51,858.42,807.43,846.71,803.25,835.55Z" transform="translate(0 0.6)"/><path class="cls-52" d="M817.2,819c1.69,3,1.61,10.81,2.4,7.58s1.11-5.87,8.69-7a137.37,137.37,0,0,1,14.6,2.17,6.91,6.91,0,0,1,1.72.15c4.08,1,8.18,1.88,12.28,2.79,7.65.35,15.36.48,23.05.49a11.06,11.06,0,0,0-1.4-1.54l-.1-.1-.15-.12-.26-.21h0l-.23-.17,0,0-.24-.15c-2-1.12-11.92-1.61-15.35-5.66s-12.24-2.24-18.2.25c-1.88-5.37-10.55-4.94-16.71-3.4-.18.05-.37.1-.55.17l-.19.07-.33.13-.25.11-.25.12-.29.16-.19.11-.31.19-.14.09-.34.24-.09.07c-.13.09-.25.19-.37.29l0,0c-1.3,1-2.56,2.29-3.54,3.06-2.53,1.19-4.36-2-3.36,0V819Z" transform="translate(0 0.6)"/><path class="cls-52" d="M863.06,895.87c-.08,0-.18.19-.28.19h0c-.74,0-1.57.76-2.52,1.26h0c-.16.1-.32.14-.48.24a.5.5,0,0,0-.13.05c-.18.1-.36.19-.54.3l-.17.09-.44.24c-.06,0-.12-.27-.19-.24s-.41,0-.62,0h0c-4.37,3-10.46,5.06-16.05,1.44-.61-.46-1.21-.75-1.81-1.23v.08h0a138.51,138.51,0,0,1-21.94-22.6,13.81,13.81,0,0,0-5.63.18l-.16,0a5.08,5.08,0,0,1-3.51.54q2.77,2.4,5.32,4.65c7.24,6.36,13.26,11.83,18.4,16.68,1.41,1.33,2.75,2.62,4,3.86,2,1,7.48,3.59,12.22,6a29,29,0,0,0,4.44,2V909h0a26.29,26.29,0,0,0,3.63,4.48c.54.6,1.06,1.41,1.6,2,.33.37.65.85,1,1.22a210.76,210.76,0,0,1,18.19,23.38c-1-1.6-1.88-3.12-2.73-4.61-13.24-23.33-12-34-10.91-38.71.17-.76,0-1.06-.35-1.06-.07,0-.15.06-.24.08S863.08,895.87,863.06,895.87Z" transform="translate(0 0.6)"/><path class="cls-19" d="M1409,429.45a4.43,4.43,0,1,1-5.11-3.64A4.43,4.43,0,0,1,1409,429.45Z" transform="translate(0 0.6)"/><path class="cls-19" d="M1413.09,436.53a4.43,4.43,0,1,1-5.11-3.63A4.43,4.43,0,0,1,1413.09,436.53Z" transform="translate(0 0.6)"/><path class="cls-19" d="M1416.43,444.72a4.44,4.44,0,1,1-5.12-3.63A4.44,4.44,0,0,1,1416.43,444.72Z" transform="translate(0 0.6)"/><path class="cls-19" d="M1418.81,453.08a4.43,4.43,0,1,1-5.11-3.63A4.43,4.43,0,0,1,1418.81,453.08Z" transform="translate(0 0.6)"/><path class="cls-19" d="M1422.15,461.27a4.44,4.44,0,1,1-5.12-3.63A4.43,4.43,0,0,1,1422.15,461.27Z" transform="translate(0 0.6)"/><path class="cls-19" d="M1423.59,469.78a4.44,4.44,0,1,1-5.11-3.63A4.44,4.44,0,0,1,1423.59,469.78Z" transform="translate(0 0.6)"/><path class="cls-19" d="M1425,478.3a4.43,4.43,0,1,1-5.11-3.64A4.44,4.44,0,0,1,1425,478.3Z" transform="translate(0 0.6)"/><path class="cls-17" d="M186,835.71s4.43-3.77,7.18-5.8,4-3.2,6.75-3.37,4.76.46,9.63.46,9.15-.66,9.83-1.58-2.6,3.18-8.84,3.19-9.66-.48-11.27.64S187,835.54,186,835.71Z" transform="translate(0 0.6)"/><path class="cls-17" d="M186.7,850.84s-.57-.53.8-1.46,9.16-4,11.73-4.94c3.46-1.27,2.78-1.61,3.46-2.61s.56-.45,1.81,0,5,.38,9.63.63,12.56-.75,14.68-.56,7,.52,7,.52-12.43.59-14.73,1.06-13.86,1.2-15.36,1.34a32.78,32.78,0,0,0-4.56.84c-1.12.3-11.22,3.52-12.14,3.88S186.59,850.49,186.7,850.84Z" transform="translate(0 0.6)"/><path class="cls-17" d="M192.11,868s-1.23-1.15.58-2.47,8.27-3.41,11.39-4,11.23-1.08,12.92-1.64a86.58,86.58,0,0,1,12.19-1.94c3.37-.25,8.49-.58,9.42-.76s-11.48,2.36-15,2.86c-3,.43-8.4,1.67-10.12,2s-9.33,1.54-12,2.46C199,865.36,192.55,865.56,192.11,868Z" transform="translate(0 0.6)"/><path class="cls-23" d="M619.72,178.58a8.08,8.08,0,0,0,4.47-6.88,27.86,27.86,0,0,0-2-13.16c-1.92-4.87-3.69-12.29-2.88-15.87s4.6-18.44,4.6-18.44-4.12,8.77-6.28,14.44-3.69,7.64-2.18,12.73,5,14.6,5.18,17.6A64.32,64.32,0,0,1,619.72,178.58Z" transform="translate(0 0.6)"/><path class="cls-23" d="M647,199s7.3-2.83,6.22-7.87-5.46-27-6.71-33.62-2.29-14.49-2.25-17.32.55-18.82,1.54-21c0,0-2.84-3.17-4.17,11.66s-2.17,22.84,0,27.5S652,191.6,647,199Z" transform="translate(0 0.6)"/><path class="cls-23" d="M673,208.43s3.91-1.46,3.51-9.45-2.93-34.55-3.51-41.67-1.79-27.37-1.88-30-.1-6.35,1.5-7.26c0,0-4.58-1.91-4.91,8.92s.16,26.5,1.33,34.17,3.5,24.83,4,28.66-1.17,17-6.17,17.83S671.42,209.2,673,208.43Z" transform="translate(0 0.6)"/><path class="cls-19" d="M185.26,96.54C143.7,100.15,97.57,113.11,95.59,112S45,106.42,0,108.05v98.26s73.48-5.38,84-4.08c28,3.91,104.61,4.08,104.61,4.08s18.7-10.27,16.72-43.51-9.91-46.92-9.91-46.92Z" transform="translate(0 0.6)"/><path class="cls-17" d="M262.69,63c-1.25,3.72-5,7-7,8.44,4.8.33,14,.59,18.29,2.41A39.32,39.32,0,0,0,259.4,85.13l-17.76,9.53a70.65,70.65,0,0,1-15.89,5.82c-9.61,2.44-11.73,7.33-12.13,1.06s-1.63-9.21,0-12.55,7.57-11.13,7.57-11.13,10.68-5.73,12.39-6.63,9.79-2.85,9.79-2.85,3.57-.65,5.93-1S262.69,63,262.69,63Z" transform="translate(0 0.6)"/><path class="cls-17" d="M277.08,76.86c0,.39,0,.77,0,1.16a.88.88,0,0,0,0-.16c-.07-.52-.15-1-.26-1.58l0-.15a4.53,4.53,0,0,1,.07,1c-.14,5-7.82,11.23-15,17.55a113.42,113.42,0,0,1,2.22,22.6C264,129.83,261.36,142,255,151.64c-1.26,1.89-1.92,2.77-2.07,3.08s.57-.29,2.09-1a22.89,22.89,0,0,0,3.94-2.78c.55-.45,1.1-.92,1.64-1.38l.18-.13c11.58-8.37,12.68-5.57,15.71-42v-.09c.32-3.33.58-6,.78-8.1.42-4.28.63-6.45.78-7.81.1-.83.16-1.36.24-1.9,0,0,0,0,0,0a33.53,33.53,0,0,0,.88-5.36,13.48,13.48,0,0,0-.45-3.78A6.55,6.55,0,0,0,277.08,76.86Z" transform="translate(0 0.6)"/><path class="cls-16" d="M274.19,73.84h0a43.88,43.88,0,0,1-6.39-.71c-.24,0-.47,0-.69-.06h.05l-.74-.06-.37.06c-2.24.07-4.66.27-6.88.47-2.87.27-5.41.6-6.8.81-.46.07-.94.15-1.36.24a11.89,11.89,0,0,0-1.91.53,2.24,2.24,0,0,0-.44.23h0a1.55,1.55,0,0,0-.42.37h0a.3.3,0,0,0-.06.2h0a1.64,1.64,0,0,1,0,.22H248c1.16,1,2.18,1.91,3.08,2.63.19.09.28,0,.25,0,1.59,1.28,2.66,2.32,2.52,2.81h0a.28.28,0,0,1,0,.08,1.28,1.28,0,0,1,0,.19h0a4.43,4.43,0,0,1-.5,1.18h0l0-.18s-.11,0-.17,0c-.66,1.41-3.89,2.61-8,3.1h0c-.26,0-.52,0-.77,0-1.76.16-3.19.31-4.59.55l-.4.06h-.1l-.14,0c-3.35.71-6.34,1.94-11.84,4.51l-.87.41-.2.09-.19.09c-.14.07-.25.14-.39.2-1.14.57-2.14,1.16-3.51,1.85-1,.59-2.32,1-2.74,1.36h-.1l-.17,0s-.09,0-.09,0,0,0,0,0,0,.05,0,.05,0,0,0,0h0l-.07,0-.08-.05h0a1.25,1.25,0,0,1,.06-.18l.07-.19h0c1.2-2,2.62-2.27,3.87-3.55s2.31-2.39,3.28-3.52a18.76,18.76,0,0,0,3.24-4.65,4.86,4.86,0,0,1,2.32-2.5c2.77-2.73,7.84-6.8,14.15-7.83.55-.09,1.08-.15,1.6-.23,7-2.26,14.77-5.84,15.5-10.53,0-.13,0-.26,0-.39s0-.06,0-.08a7.42,7.42,0,0,0-1.77-4.95c-5.48-6.75-6.09.51-21.29,3.12-18.68,0-13.7,1.06-29.54,9.41,0,0-3.39,3.44-6.81,3.89a104.74,104.74,0,0,0-13.37,16.1l-.08.1a176.07,176.07,0,0,1-11.6,28.27c1.78,5.5,3.75,10.94,5.85,16.32v0c2.47,16.63,7.93,27.6,9.68,30.79,2,5.22.95,1.81,3.6,7.43,3.58-2.12,12.54-7.33,44.45-15.47,7.19-1.2,9-1.13,10.79-1.9.15-.31.81-1.19,2.07-3.09,6.4-9.63,9-21.8,9.1-34.37a112.68,112.68,0,0,0-2.21-22.6h0c7.33-6.33,15-12.57,15.12-17.55,0-.34,0-.66,0-1h0a10.24,10.24,0,0,0-2.76-2.25Z" transform="translate(0 0.6)"/><path class="cls-50" d="M186,101c-6,13.26-4.89,40.3,10.84,71.67a44.42,44.42,0,0,0,6.5-3.38s1.37,16.05-12.31,29.45c-10.61-27.75-19.84-56.43-18.13-76.33S182.11,91.64,186,101Z" transform="translate(0 0.6)"/><path class="cls-40" d="M1447.36,59c1.23-.21,51.64.3,52.64.6V169.16s-61.8-13.2-63-13.45,5.64-45,5.64-45,2.44-36.9,2.19-39.59S1447.36,59,1447.36,59Z" transform="translate(0 0.6)"/><path class="cls-53" d="M1383.26,71c8.56-13.4,10.73-12.06,10.73-12.06l57.44-3.48s15.15,12.92,5.62,60-28.35,45.65-28.35,45.65L1379.08,142s-8.9-6.65-3.53-33.78S1383.26,71,1383.26,71Z" transform="translate(0 0.6)"/><path class="cls-54" d="M1373,123.92c.49,8,.92,13.37,4.8,18.64,3.43,1.58,50.63,19.53,50.63,19.53s13.91,4.22,26.3-35.73c-12.64,15-8.19,12.91-52-2.44-13.34-2.48-28.81-2-28.81-2Z" transform="translate(0 0.6)"/><path class="cls-55" d="M1196.1,41.63c2.11,7.94,3,7.76,5.88,9.11-6.23,2.08-10.15,2.93-12.94,6.54,13.94,2.75,28.66,14.6,32.17,15.21s10.35.49,15.6,0,11.61-4.4,12.59-5.5a15.22,15.22,0,0,0,2.44-6.48c.13-1.83-1.34-4.35-4.15-7.37s-2.14-3.26-9.75-6.43a127.32,127.32,0,0,1-13-5.87c-3.67-2-11.76-3.05-13.27-2.93S1196.1,41.63,1196.1,41.63Z" transform="translate(0 0.6)"/><path class="cls-55" d="M1206.05,70.25c1.45,17.06,7,35,19,45.22,1.48,1.26,2.23,1.83,2.43,2s-.54-.11-2-.31a19.23,19.23,0,0,1-3.89-1.36c-.56-.24-1.12-.5-1.67-.75l-.17-.06c-11.49-4.17-11.74-1.61-22.77-30.81l0-.08c-1-2.66-1.87-4.77-2.54-6.47-1.35-3.42-2-5.15-2.47-6.23l-.64-1.51,0,0a27.77,27.77,0,0,1-2-4.2,11.34,11.34,0,0,1-.52-3.2,5.68,5.68,0,0,1,.5-3.31c.08.32.17.64.27.95a.59.59,0,0,1,0-.13c-.07-.45-.12-.9-.15-1.37,0,0,0-.08,0-.13C1189.84,63,1198.17,66.51,1206.05,70.25Z" transform="translate(0 0.6)"/><path class="cls-16" d="M1401.06,82.22c-.42-4.46-1.46-10.76-6.63-11.85a195.46,195.46,0,0,0-20.72,1.46,119.11,119.11,0,0,1-22.53,2.43c-19.92-.16-38-2.84-65.21-10a278.54,278.54,0,0,1-23.31-15.35,89.44,89.44,0,0,0-14.77-10.09c-2.92.43-6.5-1.61-6.5-1.61-15-3.14-11.13-5.16-26.49-.79-13.11,1.42-15.31-4.41-18.23,2.43a6.32,6.32,0,0,0-.3,4.48l0,.06c0,.11.09.21.13.32,1.69,3.68,8.89,4.81,15.21,5,.44-.06.89-.13,1.37-.18,5.42-.64,10.55,1.53,13.47,3.12a4.15,4.15,0,0,1,2.49,1.53,16.24,16.24,0,0,0,3.77,3.09c1.06.7,2.28,1.46,3.54,2.2a30,30,0,0,0,4.06,2.15h.06v0s0,0,0,0h0s0,0,0,0l0,0h0c-.49-.15-1.8-.22-2.76-.48l-3.57-.66-.37-.07-.35-.07c-5.74-.92-8.61-1.28-11.73-1.05h-.09l-.35,0c-1.37.15-2.75.39-4.55.75-3.43.67-6.4.34-7.27-.67-.06,0-.09.08-.14.06l0,.14h0a5.06,5.06,0,0,1-.69-.8v0h0c-.24-.45.39-1.59,1.4-3,0,0,0-.1.19-.22.57-.8,1.24-1.75,2-2.89h0c-.16-.61-1.33-.7-2.87-.58-.36,0-.81.09-1.21.14-1.14.14-3.18.46-5.47.88a1.81,1.81,0,0,1-.43.14,36.14,36.14,0,0,0-7.42,2.05,17.14,17.14,0,0,1-3.55,1.22l-1.09.45h0a4.52,4.52,0,0,0-1.68,2.43c.42,4.44,8.72,8,16.61,11.73,1.44,17,7,35,19,45.21,1.48,1.26,2.22,1.83,2.42,2.05,1.85.22,3.39-.37,11.22-1.19,12.79-1.34,24.67-4.22,33.2-4.44,15.43.56,22,.08,30.8,1.06h0c17.26,2.08,66.93,9.21,94.43,13.2a29.54,29.54,0,0,0,3.32-10.52c.9-5.85.75-11.74,1.22-17.62A91.41,91.41,0,0,0,1401.06,82.22Z" transform="translate(0 0.6)"/><path class="cls-55" d="M1270.81,80a176,176,0,0,0,7.12-20.85l-3-2c1.5,3.84-25.68,53.52-34.15,58.66,4-.48,15-2.13,15-2.13l.09-.2c15.89-2.18,29.57-3,60.93,1.5l-.19,0,7.13,1a28,28,0,0,1,.64-6.59c1.06-10.91,2-16.24,10-31.21.09-.22,2-4.22,2.13-4.44C1332.15,67.15,1279.9,78.21,1270.81,80Z" transform="translate(0 0.6)"/><path class="cls-55" d="M1391.52,70.85c4.88,2.22,16.68,31.22,0,54.62C1393,114.9,1400.09,96.5,1391.52,70.85Z" transform="translate(0 0.6)"/><path class="cls-56" d="M1387.42,70.68c10.24-10.53,10.78,44.1,5.13,54.79l-7.12-1s2.94,9,7.34,6.82,11-2.44,13-23S1397.47,56.76,1387.42,70.68Z" transform="translate(0 0.6)"/><path class="cls-16" d="M1296.3,1c-9.94,28-20,62.89-20.32,63.58-.49,1-23.31,67-27.91,76.78s-4.74,13.28-16.44,21.25L1200.21,180c-9.72,7.33-11.92,11.82-12.2,13.8s2.59,10.39.37,14.57,2.17,10.87,6.19,15c-3.82,3.33-.62,10.35,2.68,14.94,3.16,4.4,11,2.9,5.7,8.78-8.75,9.31-20.65,19.8-20.65,19.8s-8.42,5.53-13.1,9.49-4,6.22-1.6,9.48c4.57,3.48,18.3-5.06,22.2-7.48s13.82-9.3,27.23-21.47c0,0,.81-.81,2.06-2,8.65-.67,7.3-2.75,16.74-4.34,4.46-3,4.24-3.79,19.2-17.39,2.87-8.91,6.4-15.57,11.29-31.09,0-.1.13-.21.19-.31a.36.36,0,0,0,0-.09C1275.08,179,1356.89,40,1375.89,1Z" transform="translate(0 0.6)"/><path class="cls-55" d="M1225.87,251.54l5.24-1.65s4.45-2.81,5.23-5.91,7.07-12.22,5-9.22c-1.87,2.73-10.55,9.13-18.41,16.26A7.35,7.35,0,0,0,1225.87,251.54Z" transform="translate(0 0.6)"/><path class="cls-55" d="M1171.42,286.58c16.42-2.81,39.78-24.27,47.67-31.7-12.57,8-28.5,18.63-31.33,20.92A47.13,47.13,0,0,1,1171.42,286.58Z" transform="translate(0 0.6)"/><path class="cls-55" d="M1188,193.75c-.28,2,2.59,10.39.37,14.57s2.17,10.87,6.19,15c-3.82,3.33-.62,10.35,2.68,14.94,1.64,2.28,4.54,3,6.21,3.94,1.81,1.7-.21,4.41,1.07,2.6,1.58-2.25,8.47-4.82,5.54-4.4s-5.19,1-8.61-4.86a119.79,119.79,0,0,1-3-12.79,5.67,5.67,0,0,1-.42-1.46c-.53-3.7-1.11-7.39-1.71-11.08-2.23-6.47-4.69-12.9-7.17-19.32A8.17,8.17,0,0,0,1188,193.75Z" transform="translate(0 0.6)"/><path class="cls-55" d="M1265,184.16c2,11.4-8.38,33.1-13.59,41.54a12.52,12.52,0,0,0,2,4.6l.08.12a4.55,4.55,0,0,1,1.6,2.73c15.6-44.54,21.44-52.53,34.28-75.59,24.65-44.06,28.82-51.46,28.82-51.46S1273.22,184.67,1265,184.16Z" transform="translate(0 0.6)"/><path class="cls-15" d="M1500,898.22c-16-7-28-11.85-28-11.85s-59.3-36.7-65.54-40.75-7.8-9.68-14.67-5.62c-35.9,41.52-33.68,72.73-30.28,81.47,51.17,18.42,81.48,39.33,81.48,39.33l56.48,33.72s.49,0,.49-.07Z" transform="translate(0 0.6)"/><path class="cls-16" d="M1384.89,891.71c3.44-7.81,6.41-15.84,9.41-23.82,2.33-6.22,5.93-13,4.11-19.65-18.41-14.27-85-43.85-85.93-44.45s-63-32.47-72.11-38.4-12.48-6.55-18.74-19.26c-3.69-9.72-8.35-22-12.75-33.54-5.9-10.65-10-13.45-12-14s-10.66,1.11-14.48-1.68-11.06.63-15.69,4c-2.76-4.25-10.17-2.06-15.18.57-4.79,2.51-4.41,10.48-9.49,4.4-8-10-16.71-23.21-16.71-23.21s-4.29-9.11-7.56-14.3-5.59-4.86-9.16-2.92c-4.09,4,2.45,18.83,4.29,23s7.28,15,17.45,30c0,0,.68.93,1.64,2.32-.54,8.66,1.71,7.62,2,17.18,2.39,4.85,3.17,4.74,14.53,21.45,8.43,4.1,14.52,8.53,29.2,15.54l.29.23.09,0c23.12,12.73,170.68,130.66,190.58,141C1376.62,910.1,1380.63,901.35,1384.89,891.71Z" transform="translate(0 0.6)"/><path class="cls-17" d="M1134.39,728l.91,5.42s2.15,4.79,5.12,6,11.1,8.72,8.42,6.25c-2.44-2.24-7.56-11.73-13.52-20.51A7.48,7.48,0,0,0,1134.39,728Z" transform="translate(0 0.6)"/><path class="cls-17" d="M1196.92,698.58c-1.93-.56-10.66,1.11-14.48-1.68s-11.06.63-15.69,4c-2.76-4.25-10.17-2.06-15.18.57-2.49,1.3-3.58,4.07-4.77,5.59-1.94,1.56-4.34-.83-2.72.69,2,1.88,3.58,9.07,3.58,6.1s-.3-5.28,6-7.84a119.68,119.68,0,0,1,13.07-1.16,5.56,5.56,0,0,1,1.51-.22q5.61,0,11.21-.14c6.72-1.3,13.43-2.84,20.14-4.38A8.13,8.13,0,0,0,1196.92,698.58Z" transform="translate(0 0.6)"/><path class="cls-17" d="M1195.63,776.11c-11.57.34-31.6-12.94-39.22-19.28a12.39,12.39,0,0,0-4.84,1.32.75.75,0,0,1-.13.06,4.46,4.46,0,0,1-2.93,1.2c41.92,21.69,49,28.6,70,44.54,40.17,30.59,46.91,35.76,46.91,35.76S1194,784.22,1195.63,776.11Z" transform="translate(0 0.6)"/><path class="cls-19" d="M1391.21,843.33c5.71-2.08,9.46-2.08,10.71,3.38s.62,22.79-16.39,51-22.94,21.38-23.72,21.85c-.78-5.62-1-8.43-1-8.43l4.42,1.79,1,.4s13.11-12.33,22-37,8.59-25.29,8.12-28.72C1392.87,844.68,1391.21,843.33,1391.21,843.33Z" transform="translate(0 0.6)"/><path class="cls-57" d="M1363.65,912.34c.64.26,4.87,2.73,5.34,2.73s11.18-5.14,22.16-32.62,7.33-33.56,7.33-33.56L1395,846.5s4.92,3.52-12.09,34.29-19.72,28-26.87,27.07C1362.12,912.11,1363.65,912.34,1363.65,912.34Z" transform="translate(0 0.6)"/><path class="cls-17" d="M1107.33,669.14c.48,16.65,18.45,42.79,24.7,51.64-6.12-13.56-14.44-30.83-16.31-33.95A47.14,47.14,0,0,1,1107.33,669.14Z" transform="translate(0 0.6)"/><g class="cls-7"><path class="cls-58" d="M446.26,270.36h0c-.12-.59-.15-.64-.32-1.33-2.74-11.14-6.21-21.91-8.95-27.39-6.39-8.19-13.12-22.27-21.42-40.9.71,1.48,1.41,3,2.1,4.69-3.6-8.85-6.92-16.19-9.46-21.55,8.56-8.21,22.53-20,26.27-27.89-11.86-18.52-35.3-55.37-35.3-55.37L382.25,59,372,33.93l-.24,0c-6.29-12-20.9-23-40.53-33H150.67L268.51,51.35s22.74,51.15,51.05,88c13.52,42.66,24.34,62.86,24.34,62.86l4.92,1.61,6.64-.12c-1.19,6.73-2.17,16.41,3.06,38.11,1.32,6.48,2.81,7.11,3.64,8.83.23,1.59.45,3.3.6,5,.05,2.2.19,3.66.24,4.84,0,.73,0,1.43-.11,2.07a39.48,39.48,0,0,1-2.89,5.8h0a38.5,38.5,0,0,0-2.05,4.33,8.39,8.39,0,0,0-1.18,3.11h0c0,.19,0,.23,0,.15a2.55,2.55,0,0,0,1.09,2.31c2.51,3.24,7.48,1,9.7-.23,2.71-1.44,10.28-6.88,10.73-15,.77-8.83-1-20.74,1.78-22,0,0,0,.09.05.08,9.61,11.33,14.5,24.91,18.72,27.89,1.64,15.88,2.18,15.09,1.91,17.56l-.1.11c-16.24-3.86-16.89,8-16.89,8s.69.74,5.86,1.95c-3.22,3.14-5.85,6.58-6.08,10.09a.12.12,0,0,1,0,.07,3.82,3.82,0,0,1-1,.89,1.66,1.66,0,0,1-.35.13l-.08,0,0,0c-4.28,2.33-6.35,4.62-7.23,6.79a7.56,7.56,0,0,0-.49,1.72c-.36,2.25.3,4.33.7,6.14h.05c.63.28,2.33-.28,4.5-1.18h.05l1.24-.5c1-.43,1.78-.79,2-.9l.4-.18,2-.93,9.18-4.21c.75-.34,1.22-.6,1.25-.6h0v0s1.82-1.18,3.71-2.67c.63-.5,1.27-1,1.87-1.57v0c0,.05,0,.16,0,.15a40.77,40.77,0,0,0,2.93-2.95h.08l.23-.29c.43-.56,1.46-1.85,2.65-3.23,0,0,0,0,.05-.05l.41-.48a24.62,24.62,0,0,0,2.87-3.35c.46-.54.9-1.05,1.29-1.47l.36-.43c.42-.48.68-.79.75-.86H413V297h.64l.36-.18h0c2,0,3.89.23,5.91-.52a75.58,75.58,0,0,0,7.08-3c1.54-.65,2.77-1.19,3.79-1.67,0,0,0,0,0,0l.23-.11a11,11,0,0,0,2.89-1.75l0,0a.08.08,0,0,0,0,0,1,1,0,0,0,.14-.16c.28-.33.09-.61.18-.93a1.94,1.94,0,0,0,.07-.33,4.6,4.6,0,0,0-.28-3.73v-.05s.18-.06.18-.09l.19-.23v0c.41-.5.86-1,1.33-1.49,2.55-2.62,5.8-5.12,8-7.38C445.56,273.54,446.71,271.86,446.26,270.36Z" transform="translate(0 0.6)"/><path class="cls-58" d="M374.3,316.37a10.89,10.89,0,0,0,.69,6.14C374.6,320.7,373.94,318.62,374.3,316.37Z" transform="translate(0 0.6)"/><path class="cls-58" d="M395.69,314.06l-1.25.57C394.85,314.46,395.26,314.27,395.69,314.06Z" transform="translate(0 0.6)"/><path class="cls-58" d="M401.27,309.79a51.87,51.87,0,0,1-5.58,4.26A21.4,21.4,0,0,0,401.27,309.79Z" transform="translate(0 0.6)"/><path class="cls-58" d="M382,307.86c-4.06,1.77-6.25,4.23-7.24,6.79C375.67,312.48,377.73,310.19,382,307.86Z" transform="translate(0 0.6)"/></g><path class="cls-19" d="M405.18,92.62,388.25,51,378,25.93l-.24,0c-6.29-12-15-15-34.69-25H181.79l92.72,42.35s22.74,51.15,51.05,88c13.52,42.66,24.34,62.86,24.34,62.86l4.92,1.61,8.23-.15s36.8-8.33,36.38-8.74,1.88-3.12,2.5-3.54,8.53-3.74,8.53-3.74c7.39-7.92,25.65-22.48,30-31.64C428.62,129.47,405.18,92.62,405.18,92.62Z" transform="translate(0 0.6)"/><path class="cls-50" d="M411.36,161.93c-9.84,2.5-16-2.6-27.69,4.06-10,5.69-11.63,7-24.68,19h0c-4.08,4-6.62,6-7.17,7.14-.09.08-.17.27-.25.35s.13,0,.2-.08c-.38,1,1.09,1,4.85.16,7.8-1.79,6.72-.45,7,.65s-.57-5.29-.57-5.29l.63-3.21c20.6-13.11,37.61-21.67,47.41-11.92-.32,4.34.37,3.91,13.29-9.2s12.18-13.95,14-15.61C427.74,154.44,421.2,159.44,411.36,161.93Z" transform="translate(0 0.6)"/><path class="cls-16" d="M452.26,262.36h0c-.12-.59-.15-.64-.32-1.33-2.74-11.14-6.21-21.91-8.95-27.39-7.12-9.13-14.66-25.56-24.34-47.47-.93-2.12-1.65-4.77-3.65-7.44h0a1.37,1.37,0,0,0-.07-.63c-.85-1.81-1.6-3.62-2.39-5.28,0,0,0,0,0,0-.83-1.71-1.85-3.89-3.26-6.83-35-.5-42.31,15.17-46.65,20.6.17,9.1-6,14.57,1.87,47.19,1.32,6.48,2.81,7.11,3.64,8.83.23,1.59.45,3.3.6,5,.05,2.2.19,3.66.24,4.84,0,.73,0,1.43-.11,2.07a39.48,39.48,0,0,1-2.89,5.8h0a38.5,38.5,0,0,0-2.05,4.33,8.39,8.39,0,0,0-1.18,3.11h0c0,.19,0,.23,0,.15a2.55,2.55,0,0,0,1.09,2.31c2.51,3.24,7.48,1,9.7-.23,2.71-1.44,10.28-6.88,10.73-15,.77-8.83-1-20.74,1.78-22,0,0,0,.09.05.08,9.61,11.33,14.5,24.91,18.72,27.89,1.64,15.88,2.18,15.09,1.91,17.56l-.1.11c-16.24-3.86-16.89,8-16.89,8s.69.74,5.86,1.95c-3.24,3.16-5.89,6.62-6.09,10.16a4,4,0,0,1-1,.89,1.74,1.74,0,0,1-.36.13l-.08,0,0,0c-4.29,2.33-6.35,4.62-7.24,6.79a7.56,7.56,0,0,0-.49,1.72c-.36,2.25.3,4.33.7,6.14h.05c.63.28,2.33-.28,4.5-1.18.46-.17.89-.35,1.29-.51,1-.43,1.78-.79,2-.9l.4-.18,11.19-5.14c.75-.34,1.22-.6,1.25-.6h0v0a50.39,50.39,0,0,0,5.58-4.24,1,1,0,0,0,0,.17,40.77,40.77,0,0,0,2.93-2.95h.08s1.29-1.68,2.88-3.52c.76-.87,1.57-1.91,2.36-2.81.11-.11.21-.28.32-.39l-2.68,3c1.4-1.05,2.2-2.35,3.72-4.21,1.17-1.29,1.89-2.15,2-2.27,2.24-.11,4.57.31,6.85-.54a73.77,73.77,0,0,0,7.16-3c1.54-.65,2.8-1.19,3.82-1.67h0l.24-.11a11.15,11.15,0,0,0,2.9-1.75l0,0a.08.08,0,0,0,0,0,1,1,0,0,0,.14-.16c.15-.17,0-.33,0-.48a5,5,0,0,0,0-4.51v-.05s.18-.06.18-.09C444.59,271,453.38,266,452.26,262.36Z" transform="translate(0 0.6)"/><path class="cls-17" d="M452.25,262.36l-.3.3c-1.1.15-1.51.24-2.23.28a9.38,9.38,0,0,1-9.7-5.59,4.52,4.52,0,0,1,0-1.08h0a.72.72,0,0,0-.23.52c-.16-.4-.45-.78-.53-1.1.07,2.82.07,10.19.79,16.55a9.89,9.89,0,0,0,.21,1.76h0c0,1,.08,1.55.13,2.24C444.78,270.83,453.39,266,452.25,262.36Zm-11.79,13-.07.05v0l.08-.05Z" transform="translate(0 0.6)"/><path class="cls-17" d="M406.74,278.75l-.1,0c-16.24-3.86-16.89,8-16.89,8s.69.74,5.86,1.95l.1,0C399.68,284.8,404.49,281.38,406.74,278.75Z" transform="translate(0 0.6)"/><path class="cls-59" d="M429.93,274.54c0,.09,0,.19,0,.29a7,7,0,0,1-1.3,3.6l0-.05c-.22.32-.47.64-.75,1,.53-.23.65-.21-.12.14l.12-.14-.15.06a23.78,23.78,0,0,1-3.2,2.73l-1.93,1.74-.12.17-.13.14a10.88,10.88,0,0,1-2.68,3.47c-.19.2-.38.84-.57,1l.57-.6.4.07c-.09.15-.18.49-.29.65,0,0-.06.18-.08.18H419v-.34s-.24,0-.28,0,.07.09,0,.13c1.32-.08,2.83-.14,4-.13,2.9.05,4.84-1.13,10.09-3.42,3.95-1.66,6.1-2.66,7-3.54h0a1.1,1.1,0,0,0,.15-.16c.28-.33.09-.61.18-.93a2.59,2.59,0,0,0,.09-.74c0-.15,0-.3,0-.45a3.42,3.42,0,0,1,.09-.38l-.07.09C437.76,282.27,430.22,277.44,429.93,274.54Zm-4.11,13.12.13-.05.76-.16Z" transform="translate(0 0.6)"/><path class="cls-17" d="M419.61,287.67a11.06,11.06,0,0,0,2.68-3.5s0-.17.06-.17h0l.19-.14,1.93-1.72a24.56,24.56,0,0,0,3.2-2.72l.15-.07c.28-.33.53-.66.75-1a6.82,6.82,0,0,0,1.34-3.59,3,3,0,0,0,0-.31c0-1.24-.22-2.39-.28-3.66v-.14c-.1-3.16.86-14.16,1-17.77,0-1.36,0-1.68-.28-.12-2.69,15.45-6.12,18.46-7.2,19.18-.22-4-.47-8.45-.65-10.77-.36-4.93.55-11.14-4.2-17.53-.13,2.16-.22,4.27-.2,6.23a22.4,22.4,0,0,0,1.12,7.83l.06.15a2.49,2.49,0,0,1,.11.29c.1.24.19.47.28.72.81,2.26,1.13,5.15,2.54,14.36,0,.11-.24.22-.24.34h0s.23.07.23.1a22.1,22.1,0,0,0,.68,3.84c.16.75.37,1.54.5,2.37,0,0,0,.09,0,.14s0,.39,0,.58a2.84,2.84,0,0,1-.08.66,8.47,8.47,0,0,1-1,1.66c-5.18,5.66-16.57,11.39-21.9,15.16-4.27,1-10.5,3.54-10.5,1.13h0c0-.14-.26-.31-.26-.49s-.11-.07-.11-.1h-.05a.58.58,0,0,1-.1.16,3.82,3.82,0,0,1-1,.89,1.66,1.66,0,0,1-.35.13l-.08,0,0,0c-4.28,2.33-6.35,4.62-7.23,6.79a7.56,7.56,0,0,0-.49,1.72c-.36,2.25.3,4.33.7,6.14h0a19.23,19.23,0,0,0,5.84-1.69c1-.43,1.78-.79,2-.9l.07,0,.33-.15,11.19-5.14c.75-.35,1.22-.6,1.25-.6h0v0a50.39,50.39,0,0,0,5.58-4.24,1,1,0,0,0,0,.17,40.77,40.77,0,0,0,2.93-2.95h.08s1.29-1.68,2.88-3.52,3.36-4,4.62-5.35c.24-.28.5-.61.77-.91,0,0,0-.05,0-.05s0,0,0,0l.29-.3.13-.13C419.23,288.51,419.42,287.87,419.61,287.67Z" transform="translate(0 0.6)"/><path class="cls-17" d="M378.19,171.89c12.89-4.39,31.81-7.54,45.48,25.54C415.83,178.17,409.3,166,409.3,166S389.72,164.44,378.19,171.89Z" transform="translate(0 0.6)"/></g></g></svg>