<svg xmlns="http://www.w3.org/2000/svg" viewBox="0 0 439.2 345.49"><defs><style>.cls-1{isolation:isolate;}.cls-2{fill:#597acc;}.cls-3{fill:#fdfdfb;}.cls-15,.cls-4{fill:none;}.cls-4{stroke:#e8ebed;stroke-miterlimit:10;stroke-width:1.5px;}.cls-5{fill:#1c1e1d;}.cls-6{fill:#c7dbf5;}.cls-7{fill:#84aad7;}.cls-8{fill:#344b7e;}.cls-9{fill:#dae6f5;}.cls-10,.cls-14{fill:#fff;}.cls-11{fill:#91b1fa;}.cls-12,.cls-18{fill:#162844;}.cls-13{fill:#1f367c;}.cls-14{opacity:0.67;mix-blend-mode:soft-light;}.cls-15{stroke:#1c1e1d;stroke-linecap:round;stroke-linejoin:round;stroke-width:2.14px;}.cls-16{fill:#293d5f;}.cls-17{fill:#d6d7d8;}.cls-18{fill-rule:evenodd;}.cls-19{fill:#b2b3b3;}.cls-20{fill:#274663;}</style></defs><title>403851-PD6NQN-735</title><g class="cls-1"><g id="OBJECTS"><rect class="cls-2" x="308.13" y="66.58" width="91.42" height="15.48"/><rect class="cls-3" x="308.13" y="82.06" width="91.42" height="52.02"/><line class="cls-4" x1="384.42" y1="82.06" x2="384.42" y2="134.08"/><line class="cls-4" x1="369.13" y1="82.06" x2="369.13" y2="134.08"/><line class="cls-4" x1="353.83" y1="82.06" x2="353.83" y2="134.08"/><line class="cls-4" x1="338.53" y1="82.06" x2="338.53" y2="134.08"/><line class="cls-4" x1="323.24" y1="82.06" x2="323.24" y2="134.08"/><line class="cls-4" x1="308.13" y1="94.66" x2="399.56" y2="94.66"/><line class="cls-4" x1="308.13" y1="107.8" x2="399.56" y2="107.8"/><line class="cls-4" x1="308.13" y1="120.94" x2="399.56" y2="120.94"/><path class="cls-5" d="M376,130.77a58.7,58.7,0,0,0,9.87,7.37,1,1,0,0,0,1-1.66,56.46,56.46,0,0,1-9.48-7.07c-.91-.84-2.27.52-1.36,1.36Z" transform="translate(-4.43 -18.63)"/><path class="cls-5" d="M385.81,128q-6.06,5.62-12.65,10.65c-1,.73,0,2.4,1,1.66q6.78-5.16,13-10.95c.91-.84-.45-2.2-1.36-1.36Z" transform="translate(-4.43 -18.63)"/><path class="cls-6" d="M158.55,195.38H288.82a0,0,0,0,1,0,0v4.54a8.62,8.62,0,0,1-8.62,8.62h-113a8.62,8.62,0,0,1-8.62-8.62v-4.54A0,0,0,0,1,158.55,195.38Z"/><rect class="cls-7" x="210.58" y="208.54" width="26.73" height="11.52"/><path class="cls-8" d="M166.52,119.47H280.85a8,8,0,0,1,8,8v68.15a0,0,0,0,1,0,0H158.55a0,0,0,0,1,0,0V127.44A8,8,0,0,1,166.52,119.47Z"/><rect class="cls-9" x="163.85" y="124.95" width="120.5" height="65.95"/><circle class="cls-10" cx="223.69" cy="201.37" r="2.94"/><rect class="cls-10" x="171.84" y="155.51" width="39.72" height="28.75" rx="2.42"/><rect class="cls-9" x="176.36" y="174.13" width="30.65" height="1.72" rx="0.82"/><rect class="cls-9" x="176.36" y="178.17" width="18.18" height="1.72" rx="0.82"/><path class="cls-6" d="M190.7,182.92a5.46,5.46,0,1,1-5.46-5.46A5.46,5.46,0,0,1,190.7,182.92Z" transform="translate(-4.43 -18.63)"/><path class="cls-6" d="M253.18,242.54H203.09a3.85,3.85,0,0,1,3.85-3.85h42.39a3.85,3.85,0,0,1,3.85,3.85Z" transform="translate(-4.43 -18.63)"/><rect class="cls-10" x="172.18" y="138.86" width="31.96" height="1.72" rx="0.82"/><rect class="cls-10" x="172.18" y="149.69" width="31.96" height="1.72" rx="0.82"/><rect class="cls-10" x="172.18" y="144.25" width="39.17" height="1.72" rx="0.82"/><rect class="cls-10" x="169.9" y="203.53" width="18.26" height="10.77"/><rect class="cls-8" x="175.34" y="201.52" width="6.66" height="4.03"/><rect class="cls-10" x="220.78" y="133.9" width="52.56" height="50.36" rx="2.51"/><rect class="cls-11" x="230.26" y="142.47" width="34.4" height="34.4"/><polygon class="cls-10" points="248.72 166.09 254.86 158.74 264.65 167.59 264.65 176.86 248.72 176.86 248.72 166.09"/><polygon class="cls-8" points="230.26 165.95 237.19 155.31 259.27 176.86 230.26 176.86 230.26 165.95"/><circle class="cls-10" cx="131.59" cy="134.84" r="7.71" transform="translate(-61.24 113.91) rotate(-45)"/><path class="cls-12" d="M61.3,173.47a1.56,1.56,0,0,1-1.13-.47,1.58,1.58,0,0,1,0-2.22l49-47.56a1.58,1.58,0,0,1,1-.44l9.61-.72a1.56,1.56,0,0,1,.24,3.12l-9,.68L62.39,173A1.55,1.55,0,0,1,61.3,173.47Z" transform="translate(-4.43 -18.63)"/><path class="cls-12" d="M83.32,237.54a1.56,1.56,0,0,1-1.5-1.12l-19-64.07a1.57,1.57,0,1,1,3-.89l19,64.07a1.57,1.57,0,0,1-1,1.95A1.74,1.74,0,0,1,83.32,237.54Z" transform="translate(-4.43 -18.63)"/><path class="cls-13" d="M130.76,124.25l-8.86,5.12-7.68-13.3a5.14,5.14,0,0,1,1.87-7h0a5.13,5.13,0,0,1,7,1.88Z" transform="translate(-4.43 -18.63)"/><path class="cls-2" d="M65.14,242.53s5-7.8,18.41-7.8,18,7.8,18,7.8Z" transform="translate(-4.43 -18.63)"/><path class="cls-13" d="M68,168.49H60.86v6.73h6.32a3.59,3.59,0,0,0,.81.1,3.42,3.42,0,1,0,0-6.83Z" transform="translate(-4.43 -18.63)"/><path class="cls-2" d="M64.58,171.91a3.42,3.42,0,1,1-3.42-3.42A3.42,3.42,0,0,1,64.58,171.91Z" transform="translate(-4.43 -18.63)"/><path class="cls-2" d="M131.13,118.37a16.86,16.86,0,0,0-14.85,24.84l29.7-16A16.86,16.86,0,0,0,131.13,118.37Z" transform="translate(-4.43 -18.63)"/><polygon class="cls-14" points="111.84 124.58 109.33 223.77 285.32 223.25 141.54 108.63 111.84 124.58"/><polygon class="cls-10" points="333.32 190.37 364.46 190.37 359.85 223.83 338.16 223.83 333.32 190.37"/><path class="cls-10" d="M341.85,234.78c-2,0-6.49-.29-9.58-2.73a7.9,7.9,0,0,1-3.07-6.5,8.38,8.38,0,0,1,3.16-7c3.39-2.66,8.19-2.31,8.39-2.29l-.38,3.63s-3.17-.19-5.16,1.37a5.15,5.15,0,0,0-1.75,4.27,4.52,4.52,0,0,0,1.7,3.81c2.55,2,7.25,1.76,7.3,1.76l.35,3.63C342.75,234.76,342.4,234.78,341.85,234.78Z" transform="translate(-4.43 -18.63)"/><circle class="cls-2" cx="86.16" cy="51.9" r="33.27" transform="translate(2.64 95.43) rotate(-69.23)"/><circle class="cls-10" cx="86.16" cy="51.9" r="26.25" transform="translate(11.6 105.39) rotate(-76.87)"/><polyline class="cls-15" points="81.72 15.12 81.72 33.27 71.08 40"/><rect class="cls-2" x="24.8" y="301.21" width="94.55" height="4.36" transform="translate(-244.08 292.9) rotate(-78.13)"/><rect class="cls-2" x="93.94" y="256.11" width="4.36" height="94.55" transform="translate(-64.74 7.6) rotate(-11.86)"/><rect class="cls-2" x="60.42" y="316.94" width="38.89" height="4.36"/><rect class="cls-16" x="54.89" y="235.54" width="50.74" height="5.91"/><rect class="cls-2" x="300.51" y="301.21" width="94.55" height="4.36" transform="matrix(0.21, -0.98, 0.98, 0.21, -25.05, 562.74)"/><rect class="cls-2" x="369.65" y="256.11" width="4.36" height="94.55" transform="translate(-58.85 64.27) rotate(-11.86)"/><rect class="cls-2" x="336.14" y="316.94" width="38.89" height="4.36"/><rect class="cls-16" x="330.61" y="235.54" width="50.74" height="5.91"/><rect class="cls-8" x="41.1" y="224.09" width="355.02" height="11.44"/><path class="cls-17" d="M442.18,351.11H5.89a1.46,1.46,0,1,1,0-2.91H442.18a1.46,1.46,0,0,1,0,2.91Z" transform="translate(-4.43 -18.63)"/><path class="cls-18" d="M262.68,364.12a4.29,4.29,0,1,1,4.28-4.29A4.3,4.3,0,0,1,262.68,364.12Z" transform="translate(-4.43 -18.63)"/><path class="cls-18" d="M218.13,364.12a4.29,4.29,0,1,1,4.28-4.29A4.3,4.3,0,0,1,218.13,364.12Z" transform="translate(-4.43 -18.63)"/><rect class="cls-19" x="252.03" y="300.94" width="7.57" height="29.35"/><path class="cls-18" d="M263.64,345.28h-6.78a1.71,1.71,0,0,0-1.71,1.71v3.1l-34.61,2a4.76,4.76,0,0,0-4.48,4.75h88.38A4.76,4.76,0,0,0,300,352.1l-34.6-2V347A1.72,1.72,0,0,0,263.64,345.28Z" transform="translate(-4.43 -18.63)"/><path class="cls-18" d="M264.68,330.41h-8.85a1.7,1.7,0,0,1-1.7-1.69v-9.88h12.24v9.88A1.69,1.69,0,0,1,264.68,330.41Z" transform="translate(-4.43 -18.63)"/><path class="cls-18" d="M267.46,321.08H253.05a1.94,1.94,0,0,1-1.94-1.94v-14h18.28v14A1.93,1.93,0,0,1,267.46,321.08Z" transform="translate(-4.43 -18.63)"/><path class="cls-18" d="M276.51,305.18H244a8.26,8.26,0,0,1-8.26-8.27h49.08A8.26,8.26,0,0,1,276.51,305.18Z" transform="translate(-4.43 -18.63)"/><path class="cls-12" d="M305.65,359.83a4.29,4.29,0,1,1-8.57,0h8.57Z" transform="translate(-4.43 -18.63)"/><path class="cls-12" d="M301.36,355.55a4.29,4.29,0,0,1,4.29,4.28h-8.57A4.28,4.28,0,0,1,301.36,355.55Z" transform="translate(-4.43 -18.63)"/><path class="cls-12" d="M262.68,355.55a4.28,4.28,0,0,1,4.28,4.28h-8.57A4.29,4.29,0,0,1,262.68,355.55Z" transform="translate(-4.43 -18.63)"/><path class="cls-12" d="M218.13,355.55a4.28,4.28,0,0,1,4.28,4.28h-8.57A4.29,4.29,0,0,1,218.13,355.55Z" transform="translate(-4.43 -18.63)"/><path class="cls-20" d="M268.17,304.28h1.22a0,0,0,0,1,0,0v15.91a0,0,0,0,1,0,0h-3a0,0,0,0,1,0,0v-14.1A1.81,1.81,0,0,1,268.17,304.28Z" transform="translate(531.33 605.83) rotate(180)"/><path class="cls-20" d="M265.15,320.18h1.22a0,0,0,0,1,0,0v9.33a0,0,0,0,1,0,0h-3a0,0,0,0,1,0,0V322A1.81,1.81,0,0,1,265.15,320.18Z" transform="translate(525.28 631.06) rotate(180)"/><path class="cls-13" d="M263.68,170.75h-2.27a8.76,8.76,0,0,0-6.22,2.6h0a8.7,8.7,0,0,0-2.33,4.3L236.2,254.21l3.08,24.64H210.84a9,9,0,0,0-9,9h0a9,9,0,0,0,9,9h42.43Z" transform="translate(-4.43 -18.63)"/><path class="cls-2" d="M313.31,296.91h-60a4.19,4.19,0,0,1-4.12-3.42l-5.89-32.94a24,24,0,0,1,.11-9.32l16.21-77.14a4.18,4.18,0,0,1,4.1-3.34h50a4.2,4.2,0,0,1,4.18,4.58l-6.93,75.07a3.91,3.91,0,0,0,0,1.08l6.5,40.55A4.2,4.2,0,0,1,313.31,296.91Z" transform="translate(-4.43 -18.63)"/></g></g></svg>