<svg width="512" height="512" xmlns="http://www.w3.org/2000/svg">

 <g>
  <title>background</title>
  <rect fill="none" id="canvas_background" height="402" width="582" y="-1" x="-1"/>
 </g>
 <g>
  <title>Layer 1</title>
  <circle id="svg_1" fill="#00d4ff" r="256" cy="256" cx="256"/>
  <path id="svg_2" fill="#666666" d="m65.979,52.788l380.037,0c12.485,0 22.702,10.217 22.702,22.702l0,234.107l-425.436,0l0,-234.107c0,-12.485 10.217,-22.702 22.702,-22.702l-0.005,0z"/>
  <path id="svg_3" fill="#ECF0F1" d="m58.695,294.178l394.609,0l0,-218.688c0,-3.977 -3.308,-7.289 -7.284,-7.289l-380.036,0c-3.977,0 -7.284,3.307 -7.284,7.289l0,218.69l-0.005,0l0,-0.002z"/>
  <path id="svg_4" fill="#FF5B62" d="m164.479,228.482c8.456,-8.397 8.356,-22.203 -0.222,-30.844c-5.806,-5.848 -14.004,-7.829 -21.315,-5.898l-7.122,-7.173c-0.85,-0.854 -2.227,-0.877 -3.067,-0.046l-11.224,11.14c-0.836,0.831 -0.826,2.208 0.023,3.067l6.707,6.753c-2.545,7.584 -0.744,16.387 5.38,22.554c8.577,8.64 22.387,8.838 30.84,0.447z"/>
  <path id="svg_5" fill="#FAD24D" d="m136.646,168.465l-16.23,-16.35c-5.556,-5.598 -14.678,-5.63 -20.276,-0.074l-11.63,11.542c-5.598,5.561 -5.63,14.683 -0.074,20.281l16.235,16.355c-3.751,14.448 -0.148,31.597 15.228,47.084l63.726,-63.263c-15.376,-15.487 -32.498,-19.214 -46.977,-15.57l0,-0.006l-0.002,0l0,0.001z"/>
  <path id="svg_6" fill="#EDB937" d="m88.815,163.283l-0.304,0.3c-5.598,5.561 -5.63,14.683 -0.074,20.281l16.235,16.355c-3.751,14.448 -0.148,31.597 15.228,47.084l1.935,-1.921c-14.101,-15.575 -17.306,-32.507 -13.569,-46.885l-17.044,-17.168c-4.846,-4.882 -5.64,-12.318 -2.401,-18.041l-0.006,-0.005z"/>
  <path id="svg_7" fill="#C2C2C4" d="m287.126,412.428l36.096,17.912l-170.323,0l29.121,-17.912l0,-55.305l105.105,0l0,55.305l0.001,0z"/>
  <path id="svg_8" fill="#B6B6B8" d="m287.126,407.159l-105.105,-50.035l105.105,0l0,50.035z"/>
  <path id="svg_9" fill="#ECF0F1" d="m182.021,418.752l105.105,0l36.096,8.101l0,3.487l-85.161,0l-85.166,0l0,-3.487l29.121,-8.101l0.005,0z"/>
  <path id="svg_10" fill="#FFFFFF" d="m468.718,309.596l0,24.826c0,12.49 -11.261,22.702 -25.024,22.702l-375.387,0c-13.764,0 -25.024,-10.212 -25.024,-22.702l0,-24.826l425.435,0z"/>
  <g id="svg_11">
   <rect id="svg_12" fill="#4D4D4D" height="99.614" width="2.849" transform="matrix(0.9412,0.3378,-0.3378,0.9412,125.555,-45.7182) " y="288.088" x="192.714"/>
   <rect id="svg_13" fill="#4D4D4D" height="99.614" width="2.849" transform="matrix(0.9412,0.3378,-0.3378,0.9412,126.5244,-47.4174) " y="290.023" x="198.081"/>
  </g>
  <rect id="svg_14" fill="#666666" height="99.614" width="4.73" transform="matrix(-0.9412,-0.3378,0.3378,-0.9412,267.5798,724.2758) " y="289.049" x="194.443"/>
  <path id="svg_15" fill="#FFFFFF" d="m220.814,272.014l-3.146,21.412l-8.05,-2.886l11.196,-18.526z"/>
  <rect id="svg_16" fill="#ECF0F1" height="3.146" width="8.551" transform="matrix(0.9412,0.3378,-0.3378,0.9412,141.3581,-37.862) " y="385.657" x="175.191"/>
  <path id="svg_17" fill="#15BDB2" d="m175.74,394.24l2.129,0.763c1.631,0.587 3.436,-0.267 4.023,-1.898l1.062,-2.96l-8.05,-2.891l-1.062,2.96c-0.587,1.631 0.267,3.436 1.898,4.023l0,0.003z"/>
  <path id="svg_18" fill="#4D4D4D" d="m221.165,270.517l0.337,0.12l-1.866,9.409l-3.002,-1.076l4.531,-8.453z"/>
  <path id="svg_19" fill="#FF5B62" d="m101.987,171.615l-65.914,114.209l0,131.898l22.157,0l-9.326,-131.898l61.555,-109.779c2.276,-5.003 -5.502,-8.814 -8.472,-4.43z"/>
  <path id="svg_20" fill="#807D7D" d="m0.009,451.526l511.982,0l0,-21.187l-511.982,0l0,21.187z"/>
  <g id="svg_21">
   <path id="svg_22" fill="#FAD24D" d="m111.733,417.726l-86.981,0c-6.42,0 -14.179,12.882 -7.755,12.882l99.909,0c6.42,0 1.251,-12.882 -5.173,-12.882z"/>
   <path id="svg_23" fill="#FAD24D" d="m42.493,276.895c-5.076,0 -9.191,4.115 -9.191,9.191c0,5.076 4.115,9.191 9.191,9.191s9.191,-4.115 9.191,-9.191c0,-5.076 -4.115,-9.191 -9.191,-9.191z"/>
  </g>
  <path id="svg_24" fill="#FFFFFF" d="m42.493,281.551c-2.503,0 -4.535,2.032 -4.535,4.535c0,2.503 2.032,4.535 4.535,4.535c2.508,0 4.535,-2.028 4.535,-4.535c0,-2.507 -2.027,-4.535 -4.535,-4.535z"/>
  <path id="svg_25" fill="#FF5B62" d="m96.093,413.787l-23.718,-3.944l0,7.885l23.718,0l0,-3.941z"/>
  <g id="svg_26">
   <path id="svg_27" fill="#FAD24D" d="m279.126,364.121l45.44,0c2.545,0 4.623,2.083 4.623,4.628l0,56.968c0,2.545 -2.078,4.628 -4.623,4.628l-45.439,0c-2.545,0 -4.628,-2.083 -4.628,-4.628l0,-56.968c-0.001,-2.545 2.082,-4.628 4.627,-4.628z"/>
   <path id="svg_28" fill="#FAD24D" d="m329.189,377.136l12.789,0c4.226,0 7.681,2.993 7.681,6.66l0,31.468c0,3.663 -3.455,6.66 -7.681,6.66l-12.789,0l0,-5.298l12.789,0c0.721,0 2.301,-0.471 2.301,-1.362l0,-31.468c0,-0.891 -1.58,-1.362 -2.301,-1.362l-12.789,0l0,-5.293l0,-0.005z"/>
  </g>
  <path id="svg_29" fill="#EDB937" d="m322.963,430.34l0,-66.22l1.603,0c2.545,0 4.628,2.051 4.628,4.549l0,57.12c0,2.503 -2.083,4.554 -4.628,4.554l-1.603,0l0,-0.003z"/>
  <path id="svg_30" fill="#FF5B62" d="m292.586,395.136l13.768,0l0,12.235l-13.768,0l0,-12.235z"/>
  <path id="svg_31" fill="#ED4C54" d="m292.586,395.136l13.768,0l-0.767,-2.536l-11.88,0l-1.121,2.536z"/>
  <path id="svg_32" fill="#FFFFFF" d="m300.031,364.121l0,29.694c-0.005,0.402 -0.956,0.42 -0.965,0l0,-29.694l0.965,0z"/>
  <path id="svg_33" fill="#666666" d="m41.006,459.212l429.984,0l0,-7.681l-429.984,0l0,7.681z"/>
  <path id="svg_34" fill="#D0D1D4" d="m256,339.54c3.949,0 7.173,-3.224 7.173,-7.173c0,-3.949 -3.22,-7.173 -7.173,-7.173c-3.949,0 -7.173,3.22 -7.173,7.173c0,3.949 3.22,7.173 7.173,7.173z"/>
  <path id="svg_35" fill="#15BDB2" d="m374.092,367.812l104.828,0l0,3.779c-4.96,6.757 -4.143,14.272 0,19.902l0,3.779l-104.828,0c-16.374,0 -16.378,-27.454 0,-27.454l0,-0.006z"/>
  <path id="svg_36" fill="#FFFFFF" d="m478.921,391.487c-4.231,-6.633 -4.549,-13.265 0,-19.902l-104.829,0c-4.928,0 -8.969,4.485 -8.969,9.949s4.041,9.949 8.969,9.949l104.828,0l0,0.005l0.001,0l0,-0.001z"/>
  <path id="svg_37" fill="#ECF0F1" d="m477.914,373.192c0.304,-0.536 0.638,-1.067 1.002,-1.603l-104.828,0c-10.027,0 -12.836,15.344 -2.725,19.422c-6.906,-3.589 -4.328,-15.824 2.919,-17.824l103.628,0l0.004,0.005z"/>
  <path id="svg_38" fill="#FF5B61" d="m487.908,395.265l-121.597,0l0,4.822c5.76,8.632 4.804,18.235 0,25.431l0,4.827l121.599,0c18.996,-0.001 18.996,-35.08 -0.002,-35.08z"/>
  <path id="svg_39" fill="#FFFFFF" d="m366.311,425.518c4.909,-8.475 5.28,-16.951 0,-25.431l121.599,0c5.718,0 10.411,5.732 10.411,12.715s-4.693,12.715 -10.411,12.715l-121.599,0l0,0.001z"/>
  <path id="svg_40" fill="#ECF0F1" d="m367.478,402.138c-0.351,-0.684 -0.739,-1.367 -1.164,-2.046l121.599,0c11.63,0 14.891,19.607 3.159,24.817c8.009,-4.586 5.02,-20.221 -3.385,-22.771l-120.204,0l-0.005,0z"/>
  <path id="svg_41" fill="#FBB429" d="m469.433,340.311l-80.939,0l0,3.774c3.834,6.757 3.201,14.272 0,19.902l0,3.774l80.939,0c12.646,0 12.646,-27.454 0,-27.454l0,0.004l0,0z"/>
  <path id="svg_42" fill="#FFFFFF" d="m388.494,363.987c3.266,-6.633 3.515,-13.27 0,-19.902l80.939,0c3.806,0 6.928,4.485 6.928,9.954c0,5.464 -3.122,9.949 -6.928,9.949l-80.939,-0.001l0,0z"/>
  <path id="svg_43" fill="#ECF0F1" d="m389.27,345.687c-0.236,-0.536 -0.49,-1.067 -0.776,-1.603l80.939,0c7.741,0 9.912,15.344 2.102,19.422c5.335,-3.589 3.339,-15.824 -2.254,-17.819l-80.016,0l0.005,0z"/>
  <path id="svg_44" fill="#FFFFFF" d="m105.742,171.98c-1.529,0 -2.772,1.238 -2.772,2.772c0,1.529 1.238,2.767 2.772,2.767c1.533,0 2.772,-1.238 2.772,-2.767c-0.001,-1.534 -1.239,-2.772 -2.772,-2.772z"/>
  <path id="svg_45" fill="#D0D1D4" d="m203.863,353.013l7.981,3.132l27.029,-68.926l-7.985,-3.132l-27.029,68.926l0.004,0z"/>
  <path id="svg_46" fill="#FF5B61" d="m202.099,369.262l9.746,-13.117l-7.981,-3.132l-1.765,16.249z"/>
  <path id="svg_47" fill="#FF5B62" d="m235.17,278.004l4.707,1.847c1.293,0.508 1.898,2.079 1.344,3.487l-12.567,32.04l-9.413,-3.691l12.567,-32.045c0.554,-1.408 2.065,-2.153 3.357,-1.644l0.005,0.006z"/>
  <path id="svg_48" fill="#666666" d="m201.521,370.259l0.332,0.13l3.902,-6.046l-2.979,-1.169l-1.257,7.08l0,0.005l0.002,0z"/>
  <path id="svg_49" fill="#D0D1D4" d="m230.653,282.613l11.469,4.596l0.721,0.291l-0.309,0.785l-9.358,23.865l-0.097,0.245l-0.213,0.157l-1.76,1.271c-0.868,0.568 -1.796,-0.494 -0.831,-1.371l1.543,-1.118l8.956,-22.835l-10.748,-4.305l0.624,-1.575l0.003,-0.006z"/>
  <path id="svg_50" fill="#1B1B1A" d="m162.503,382.033c0.942,2.028 1.719,3.478 1.967,3.381c0.25,-0.097 -0.162,-1.686 -0.836,-3.82l-1.131,0.439z"/>
  <g id="svg_51">
   <path id="svg_52" fill="#21D0C3" d="m130.236,290.886c0.236,0.605 -0.065,1.288 -0.67,1.529l-2.351,0.919c-0.605,0.236 -1.288,-0.065 -1.524,-0.67l-3.095,-7.939c-0.236,-0.605 0.065,-1.288 0.67,-1.524l2.351,-0.919c0.605,-0.236 1.288,0.065 1.529,0.67l3.095,7.939l-0.005,-0.005z"/>
   <path id="svg_53" fill="#21D0C3" d="m123.885,291.754c0,0 -2.776,2.665 -3.492,4.236c-0.716,1.57 -0.845,3.067 0.25,5.417c1.095,2.351 9.113,18.373 10.022,19.791c0.91,1.418 2.004,0.817 2.301,-0.009c0.3,-0.826 -0.286,-2.55 -0.712,-2.739c-0.425,-0.19 -0.125,1.113 -1.16,0.808c-1.035,-0.304 -5.178,-10.924 -6.906,-15.126c-1.728,-4.203 -1.986,-6.231 1.889,-5.612l-2.192,-6.766z"/>
  </g>
  <path id="svg_54" fill="#EC4953" d="m130.134,287.615l-6.577,2.563c-0.605,0.236 -0.905,0.924 -0.67,1.529l13.506,34.645c0,0 10.97,27.302 19.099,44.021l5.417,-2.111c-5.335,-17.805 -15.741,-45.333 -15.741,-45.333l-13.506,-34.645c-0.235,-0.604 -0.918,-0.908 -1.528,-0.669z"/>
  <path id="svg_55" fill="#666666" d="m130.134,287.615l-6.577,2.563c-0.605,0.236 -0.905,0.924 -0.67,1.529l13.506,34.645c0,0 10.97,27.302 19.099,44.021l5.417,-2.111c-5.335,-17.805 -15.741,-45.333 -15.741,-45.333l-13.506,-34.645c-0.235,-0.604 -0.918,-0.908 -1.528,-0.669z"/>
  <path id="svg_56" fill="#21D0C3" d="m136.544,326.976l-0.937,-2.411l8.933,-3.482l0.937,2.406l-8.933,3.482l0,0.005z"/>
  <path id="svg_57" fill="#FFFFFF" d="m155.486,370.375c3.737,7.686 6.869,13.135 8.06,12.669c1.192,-0.466 -0.19,-6.595 -2.642,-14.78l-5.418,2.111z"/>
  <path id="svg_58" fill="#D0D1D4" d="m155.925,311.6l-5.916,1.746l-6.101,-20.674l5.916,-1.746l6.101,20.674z"/>
  <path id="svg_59" fill="#FF5B62" d="m143.907,292.673c0,0 -3.779,-0.36 -3.802,-7.293c-0.023,-6.932 -1.39,-12.715 -5.252,-15.736c0,0 15.796,4.041 14.974,21.283l-5.916,1.746l-0.004,0z"/>
  <path id="svg_60" fill="#0E7886" d="m163.26,329.535c-3.834,-9.857 -7.34,-17.935 -7.34,-17.935l-5.912,1.746c0,0 1.436,8.683 3.57,19.043l9.682,-2.854z"/>
  <path id="svg_61" fill="#FF5B62" d="m153.579,332.395c1.483,7.201 3.303,15.209 5.215,21.676c4.651,15.754 23.5,71.189 27.158,70.196l0,0c0,0 0.005,0 0.005,-0.005l0.005,0l0,0c3.612,-1.15 -10.655,-57.938 -15.307,-73.692c-1.907,-6.466 -4.73,-14.179 -7.395,-21.029l-9.681,2.854z"/>
  <path id="svg_62" fill="#FFFFFF" d="m143.912,349.456l71.558,0l0,72.875c0,4.42 -3.617,8.032 -8.036,8.032l-55.491,0c-4.42,0 -8.036,-3.617 -8.036,-8.032l0,-72.875l0.005,0z"/>
  <g id="svg_63">
   <path id="svg_64" fill="#ECF0F1" d="m214.75,425.648c-1.271,2.776 -4.074,4.716 -7.312,4.716l-55.49,0c-3.238,0 -6.041,-1.94 -7.312,-4.716l70.118,0l-0.004,0z"/>
   <path id="svg_65" fill="#ECF0F1" d="m143.912,354.19c3.427,0.231 6.138,3.085 6.138,6.572s-2.712,6.342 -6.138,6.572l0,-13.144zm71.558,0l0,0l0,13.145c-3.427,-0.231 -6.138,-3.085 -6.138,-6.572s2.711,-6.341 6.138,-6.573zm0,36.433l0,0l0,13.145c-3.427,-0.231 -6.138,-3.085 -6.138,-6.572c0,-3.487 2.711,-6.341 6.138,-6.573zm-71.558,13.145l0,0l0,-13.145c3.427,0.231 6.138,3.085 6.138,6.572c0,3.487 -2.711,6.343 -6.138,6.573zm35.781,5.871l0,0c3.64,0 6.586,2.951 6.586,6.586c0,3.64 -2.951,6.586 -6.586,6.586c-3.64,0 -6.586,-2.951 -6.586,-6.586c0,-3.64 2.951,-6.586 6.586,-6.586zm-24.151,0l0,0c3.64,0 6.586,2.951 6.586,6.586c0,3.64 -2.951,6.586 -6.586,6.586c-3.64,0 -6.586,-2.951 -6.586,-6.586c-0.001,-3.64 2.95,-6.586 6.586,-6.586zm48.303,0l0,0c3.64,0 6.586,2.951 6.586,6.586c0,3.64 -2.951,6.586 -6.586,6.586c-3.64,0 -6.586,-2.951 -6.586,-6.586c0,-3.64 2.951,-6.586 6.586,-6.586zm-12.074,-19.03l0,0c3.64,0 6.586,2.951 6.586,6.586c0,3.64 -2.951,6.586 -6.586,6.586c-3.64,0 -6.586,-2.951 -6.586,-6.586c0,-3.639 2.952,-6.586 6.586,-6.586zm-24.151,0l0,0c3.64,0 6.586,2.951 6.586,6.586c0,3.64 -2.951,6.586 -6.586,6.586c-3.64,0 -6.586,-2.951 -6.586,-6.586c-0.001,-3.639 2.951,-6.586 6.586,-6.586zm12.073,-17.403l0,0c3.64,0 6.586,2.951 6.586,6.586c0,3.64 -2.951,6.586 -6.586,6.586c-3.64,0 -6.586,-2.947 -6.586,-6.586c0,-3.639 2.951,-6.586 6.586,-6.586zm-24.151,0l0,0c3.64,0 6.586,2.951 6.586,6.586c0,3.64 -2.951,6.586 -6.586,6.586c-3.64,0 -6.586,-2.947 -6.586,-6.586c0,-3.639 2.95,-6.586 6.586,-6.586zm48.303,0l0,0c3.64,0 6.586,2.951 6.586,6.586c0,3.64 -2.951,6.586 -6.586,6.586c-3.64,0 -6.586,-2.947 -6.586,-6.586c0,-3.639 2.951,-6.586 6.586,-6.586zm-12.074,-19.03l0,0c3.64,0 6.586,2.947 6.586,6.586s-2.951,6.586 -6.586,6.586c-3.64,0 -6.586,-2.947 -6.586,-6.586s2.952,-6.586 6.586,-6.586zm-24.151,0l0,0c3.64,0 6.586,2.947 6.586,6.586s-2.951,6.586 -6.586,6.586c-3.64,0 -6.586,-2.947 -6.586,-6.586s2.951,-6.586 6.586,-6.586z"/>
   <path id="svg_66" fill="#ECF0F1" d="m144.633,346.915l70.113,0c1.113,0 2.023,0.91 2.023,2.023s-0.91,2.023 -2.023,2.023l-70.113,0c-1.113,0 -2.023,-0.91 -2.023,-2.023s0.909,-2.023 2.023,-2.023z"/>
  </g>
  <path id="svg_67" fill="#FAD24D" d="m172.216,278.341l19.528,0c0.485,0 0.887,0.397 0.887,0.887l0,67.688l-21.301,0l0,-67.688c-0.002,-0.489 0.396,-0.887 0.886,-0.887z"/>
  <path id="svg_68" fill="#EDB937" d="m189.762,278.341l1.981,0c0.49,0 0.887,0.397 0.887,0.887l0,67.688l-2.868,0l0,-68.575l0,0z"/>
  <path id="svg_69" fill="#FFFFFF" d="m171.328,281.265l5.349,0l0,1.302l-5.349,0l0,-1.302zm0,60.08l0,0l3.238,0l0,1.302l-3.238,0l0,-1.302zm0,-4.004l0,0l5.349,0l0,1.302l-5.349,0l0,-1.302zm0,-4.004l0,0l3.238,0l0,1.302l-3.238,0l0,-1.302zm0,-4.005l0,0l5.349,0l0,1.302l-5.349,0l0,-1.302zm0,-4.004l0,0l3.238,0l0,1.302l-3.238,0l0,-1.302zm0,-4.005l0,0l5.349,0l0,1.302l-5.349,0l0,-1.302zm0,-4.004l0,0l3.238,0l0,1.302l-3.238,0l0,-1.302zm0,-4.005l0,0l5.349,0l0,1.297l-5.349,0l0,-1.297zm0,-4.004l0,0l3.238,0l0,1.302l-3.238,0l0,-1.302zm0,-4.004l0,0l5.349,0l0,1.297l-5.349,0l0,-1.297zm0,-4.005l0,0l3.238,0l0,1.302l-3.238,0l0,-1.302zm0,-4.005l0,0l5.349,0l0,1.302l-5.349,0l0,-1.302zm0,-4.004l0,0l3.238,0l0,1.302l-3.238,0l0,-1.302zm0,-4.004l0,0l5.349,0l0,1.302l-5.349,0l0,-1.302zm0,-4.005l0,0l3.238,0l0,1.302l-3.238,0l0,-1.302z"/>
  <g id="svg_70"/>
  <g id="svg_71"/>
  <g id="svg_72"/>
  <g id="svg_73"/>
  <g id="svg_74"/>
  <g id="svg_75"/>
  <g id="svg_76"/>
  <g id="svg_77"/>
  <g id="svg_78"/>
  <g id="svg_79"/>
  <g id="svg_80"/>
  <g id="svg_81"/>
  <g id="svg_82"/>
  <g id="svg_83"/>
  <g id="svg_84"/>
 </g>
</svg>