<svg id="Слой_1" data-name="Слой 1" xmlns="http://www.w3.org/2000/svg" xmlns:xlink="http://www.w3.org/1999/xlink" viewBox="0 0 523.53 368.15"><defs><style>.cls-1{fill:#73c0ff;}.cls-2{fill:#4da8f2;}.cls-3{fill:#1e36e2;}.cls-4{fill:#fff;}.cls-5{fill:url(#linear-gradient);}.cls-6{fill:#dfe1e8;}.cls-7{fill:#b5deff;}.cls-8{fill:#eef0f7;}.cls-9{fill:#3c4145;}.cls-10{fill:#eea886;}.cls-11{fill:#e55353;}.cls-12{fill:#a77860;}.cls-13{fill:#bd4444;}.cls-14{fill:#323657;}.cls-15{fill:#706865;}.cls-16{fill:#b59074;}.cls-17{fill:#918783;}.cls-18{fill:#1d3b54;}.cls-19{fill:#cf8c6c;}.cls-20{fill:#eb4747;}.cls-21{fill:#db9c7c;}.cls-22{fill:#152c3d;}.cls-23{fill:#eddad3;}.cls-24{fill:#1428e0;}.cls-25{fill:#3043ef;}.cls-26{fill:#bfb2ac;}.cls-27{fill:#d9c7c1;}.cls-28{fill:#eea987;}.cls-29{fill:#e8734d;}.cls-30{fill:#c78d71;}.cls-31{fill:#5073ab;}.cls-32{fill:#f5f7ff;}.cls-33{fill:#78c2ff;}.cls-34{fill:#1a598c;}.cls-35{fill:#2273b5;}.cls-36{fill:#f3f3f3;}.cls-37{fill:#1d2033;}.cls-38{fill:#50558a;}.cls-39{fill:#292c47;}.cls-40{fill:#3a4066;}.cls-41{fill:#e2d2ca;}.cls-42{fill:#ccbdb7;}.cls-43{fill:#4667a8;}.cls-44{fill:#2730cc;}.cls-45{fill:#424773;}.cls-46{fill:#3a3f47;}.cls-47{fill:#5e5854;}.cls-48{fill:#5f8be3;}.cls-49{fill:#cecfd6;}.cls-50{fill:#5c5552;}.cls-51{fill:#2e436e;}.cls-52{fill:#4545ef;}.cls-53{fill:#949494;}</style><linearGradient id="linear-gradient" x1="152.92" y1="48.82" x2="442.53" y2="48.82" gradientTransform="translate(595.45 97.63) rotate(-180)" gradientUnits="userSpaceOnUse"><stop offset="0" stop-color="#40d5e6"/><stop offset="1" stop-color="#57f"/></linearGradient></defs><title>sjob</title><path class="cls-1" d="M484.38,40.08a34.63,34.63,0,0,0-3.7-8.93l3.77-5.67-5.23-5.23L474,15l-5.67,3.77a34.6,34.6,0,0,0-8.93-3.71L458,8.41H443.25l-1.34,6.67A34.45,34.45,0,0,0,433,18.79L427.31,15l-5.23,5.23-5.23,5.23,3.77,5.67a34.31,34.31,0,0,0-3.71,8.93l-6.67,1.34V56.21l6.67,1.34a34.31,34.31,0,0,0,3.71,8.93l-3.77,5.67,5.23,5.23,5.23,5.23L433,78.84a34.45,34.45,0,0,0,8.93,3.71l1.34,6.67H458l1.35-6.67a34.6,34.6,0,0,0,8.93-3.71L474,82.61l5.23-5.23,5.23-5.23-3.77-5.67a34.63,34.63,0,0,0,3.7-8.93l6.67-1.34V41.42ZM450.65,74.74a25.92,25.92,0,1,1,25.92-25.92A25.92,25.92,0,0,1,450.65,74.74Z" transform="translate(-5.15 -8.41)"/><path class="cls-1" d="M494.47,103a15.51,15.51,0,0,0-1.7-4.09l1.73-2.6-2.4-2.4-2.39-2.4-2.6,1.73a16.28,16.28,0,0,0-4.1-1.7l-.61-3h-6.78l-.62,3a16.06,16.06,0,0,0-4.09,1.7l-2.6-1.73-2.4,2.4-2.4,2.4,1.73,2.6a15.85,15.85,0,0,0-1.7,4.09l-3.05.62v6.78l3.05.62a15.85,15.85,0,0,0,1.7,4.09l-1.73,2.6,2.4,2.4,2.4,2.39,2.6-1.72a15.68,15.68,0,0,0,4.09,1.69l.62,3.06h6.78l.61-3.06a15.89,15.89,0,0,0,4.1-1.69l2.6,1.72,2.39-2.39,2.4-2.4-1.73-2.6a15.51,15.51,0,0,0,1.7-4.09l3.06-.62V103.6ZM479,118.87A11.88,11.88,0,1,1,490.89,107,11.88,11.88,0,0,1,479,118.87Z" transform="translate(-5.15 -8.41)"/><rect class="cls-2" x="279.53" y="228.12" width="36.39" height="110.53" transform="translate(590.31 558.35) rotate(180)"/><rect class="cls-3" x="140.62" y="59.69" width="314.22" height="221.67" rx="15.98" transform="translate(590.31 332.64) rotate(180)"/><rect class="cls-4" x="152.92" y="36.1" width="289.61" height="210.52" transform="translate(590.31 274.31) rotate(180)"/><rect class="cls-5" x="152.92" y="36.1" width="289.61" height="25.43" transform="translate(590.31 89.22) rotate(180)"/><path class="cls-2" d="M287.59,262.52a10.14,10.14,0,1,0,10.14-10.14A10.13,10.13,0,0,0,287.59,262.52Z" transform="translate(-5.15 -8.41)"/><rect class="cls-6" x="247.16" y="79.61" width="93.53" height="7.53" rx="3.52" transform="translate(582.7 158.35) rotate(180)"/><rect class="cls-6" x="247.16" y="93.2" width="93.53" height="7.53" rx="3.52" transform="translate(582.7 185.53) rotate(180)"/><rect class="cls-6" x="247.16" y="106.79" width="93.53" height="7.53" rx="3.52" transform="translate(582.7 212.71) rotate(180)"/><path class="cls-6" d="M291.31,231.81H182.75a16.44,16.44,0,0,1-16.42-16.42v-66a16.44,16.44,0,0,1,16.42-16.42H291.31a16.44,16.44,0,0,1,16.41,16.42v66A16.43,16.43,0,0,1,291.31,231.81ZM182.75,135a14.37,14.37,0,0,0-14.36,14.36v66a14.37,14.37,0,0,0,14.36,14.36H291.31a14.38,14.38,0,0,0,14.36-14.36v-66A14.38,14.38,0,0,0,291.31,135Z" transform="translate(-5.15 -8.41)"/><rect class="cls-6" x="184.08" y="141.95" width="105.89" height="15.88" rx="7.25" transform="translate(468.91 291.36) rotate(180)"/><rect class="cls-7" x="210.73" y="326.06" width="163.71" height="8.34"/><path class="cls-8" d="M410,154.64A23.55,23.55,0,0,1,393.82,177l-.42.14a23.81,23.81,0,0,1-7,1A23.57,23.57,0,1,1,410,154.64Z" transform="translate(-5.15 -8.41)"/><path class="cls-9" d="M380.77,152.15s-1.61-10.41,7-10.22,8.51,5.34,8.36,10.45-3.46,4.73.27,11.84-3.23,7.1-3.23,7.1l-5.4-7.41Z" transform="translate(-5.15 -8.41)"/><path class="cls-10" d="M386.84,142.93s-5.84.92-6.07,9.22,1.57,10.07,6.68,8.34,6.73-10.41,6.84-11.76S394.72,141.93,386.84,142.93Z" transform="translate(-5.15 -8.41)"/><path class="cls-11" d="M397.09,171.8a5.65,5.65,0,0,1-3.27,5.21l-.42.14a23.81,23.81,0,0,1-7,1,23.46,23.46,0,0,1-10.48-2.45c-.71-1.41.32-3.43,2.41-6.51,1.44-2.13,2.84-4.29,5.25-5.35,3.55-.56,7.31-.6,10,.9C395.65,166,397.06,168.15,397.09,171.8Z" transform="translate(-5.15 -8.41)"/><path class="cls-11" d="M379.47,169.11l-2.68,4.23s.18-.66.49-2.52c.06-.35.12-.75.18-1.19a2.74,2.74,0,0,1,.09-.39h0c1.15-2.65,4.73-4.62,4.86-4.69Z" transform="translate(-5.15 -8.41)"/><path class="cls-10" d="M398.29,175a23.42,23.42,0,0,1-4.47,2l-.42.14c-.6-1.54-1.12-2.87-1.23-3.22,0-.1-.11-.28-.21-.54a17.59,17.59,0,0,1-1.58-5.84c0-1.32.42-2.4,1.75-2.71a3.41,3.41,0,0,1,1.41-.05,4.12,4.12,0,0,1,2.83,2.78l0,.06a9.05,9.05,0,0,1,.52,1.89s0,.09.07.25c.08.33.24,1,.45,1.78S398,173.69,398.29,175Z" transform="translate(-5.15 -8.41)"/><path class="cls-10" d="M390.74,156.75c-.51,1-1,6.89-1,6.89s-7.15,2.7-6.41,1.17a5.89,5.89,0,0,0,.43-2.36,10.14,10.14,0,0,0-.08-1.45l0-.24S391.24,155.79,390.74,156.75Z" transform="translate(-5.15 -8.41)"/><path class="cls-9" d="M384.46,148.88s3,4.88,5.72,6.81,1.35,3.45,1.35,3.45,7.11-15,.35-16-10.92-1.11-11.11,9C380.77,152.15,383.84,148.81,384.46,148.88Z" transform="translate(-5.15 -8.41)"/><path class="cls-12" d="M387.72,160.39c-1.1,1.62-4,2.06-4,2.06h0a10.14,10.14,0,0,0-.08-1.45A8.19,8.19,0,0,0,387.72,160.39Z" transform="translate(-5.15 -8.41)"/><path class="cls-13" d="M377.56,169.21h0a5.66,5.66,0,0,0-.28,1.61l1.05-1.58s1.88-2.7,2.52-3.4a10.36,10.36,0,0,1,1.58-1.32S378.68,166.3,377.56,169.21Z" transform="translate(-5.15 -8.41)"/><path class="cls-11" d="M391.78,173.23a40.65,40.65,0,0,1,5.94-1.91s-.93-7.36-5.43-6.58S391.78,173.23,391.78,173.23Z" transform="translate(-5.15 -8.41)"/><path class="cls-10" d="M383.58,163.89s-3.36,5.18-2.23,5.63,7.31-.6,9.93-5.52C391.28,164,387.36,162,383.58,163.89Z" transform="translate(-5.15 -8.41)"/><rect class="cls-14" x="98.97" y="277.77" width="36.72" height="3.36" transform="translate(-7.26 -7.52) rotate(-0.43)"/><rect class="cls-14" x="121.12" y="261.26" width="36.72" height="3.36" transform="translate(-157.91 311.02) rotate(-73)"/><rect class="cls-15" x="193.68" y="276.97" width="2.87" height="88.28"/><rect class="cls-16" x="91.32" y="280.36" width="125.94" height="5.02" transform="translate(303.44 557.33) rotate(180)"/><rect class="cls-15" x="107.44" y="285.38" width="2.87" height="88.28" transform="translate(212.59 650.63) rotate(180)"/><rect class="cls-17" x="44.73" y="307.28" width="3.44" height="43.48"/><path class="cls-18" d="M94.83,354.05a18.87,18.87,0,0,0,.66,4.16c.46,1.64,1.38,8,2.55,8.88s4.95,3.25,4.4,5.67-1,4.11-5.11,2.67-6.82-2.25-7.6-5.84a22.59,22.59,0,0,0-3-6.84l-2.95,7.34-1.56-.63s2.36-7.93,2.15-8.64,1.08-7,6-8.57S94.83,354.05,94.83,354.05Z" transform="translate(-5.15 -8.41)"/><path class="cls-18" d="M122.11,356.36a18.56,18.56,0,0,0,2.17,3.62c1,1.35,4.26,6.9,5.68,7.29s5.8,1.16,6.19,3.61.58,4.2-3.74,4.39-7.17.45-9.23-2.58a22.67,22.67,0,0,0-5.36-5.23v7.92h-1.67s-.78-8.24-1.23-8.82-1.61-6.9,2.39-10.2S122.11,356.36,122.11,356.36Z" transform="translate(-5.15 -8.41)"/><path class="cls-10" d="M78.15,248.83s1-3.41,1-3.86a7.32,7.32,0,0,1,2.14-2.24,8.14,8.14,0,0,1,3.32-1.59,1.26,1.26,0,0,1,.91.55,2.4,2.4,0,0,1,.45,1.16,1.48,1.48,0,0,1,.79,1.2,1.31,1.31,0,0,1,.58,1.33s.7.42.54,1.07a10.73,10.73,0,0,0-1.16,1.31,20.61,20.61,0,0,1-4.45,3.49S79.53,253.31,78.15,248.83Z" transform="translate(-5.15 -8.41)"/><path class="cls-19" d="M82.33,246.13a7.13,7.13,0,0,1,.33,1.89c-.09.46,3.28.53,3.28.53S84.09,245.67,82.33,246.13Z" transform="translate(-5.15 -8.41)"/><path class="cls-18" d="M44.46,254.69c1.36-2.2,3.17-3.19,8.93.79s4.4,3.2,5.78,4.46,7.41,4.42,7.41,4.42a54.09,54.09,0,0,0,5.22-6c1.91-2.81,5.89-10.31,5.89-10.31l5.58,4.16s-10.84,19.65-13.11,21.1-9.08-1-12.64-2.47-7.31-3.43-8.93-3.84S40.92,260.42,44.46,254.69Z" transform="translate(-5.15 -8.41)"/><rect class="cls-20" x="78.2" y="237.58" width="12.61" height="1.07" transform="translate(-171.33 261.22) rotate(-77.63)"/><path class="cls-21" d="M84.35,241.37s-2.81,2.41-2.48,2.91a.93.93,0,0,0,.76.48l-.71,1.52s.1,1.27,1.45.79c0,0,0,1.19,1.22.58,0,0,.33.79,1,.61a12.27,12.27,0,0,0,2.38-1.81s.21-.5-.54-1.07a1.28,1.28,0,0,0-.58-1.33,1.37,1.37,0,0,0-.79-1.2s0-1.61-1.36-1.71C84.66,241.14,84.47,241.27,84.35,241.37Z" transform="translate(-5.15 -8.41)"/><path class="cls-10" d="M79.24,245a12.68,12.68,0,0,1,3.33-2.18c.32-.11.66-.16.88.1s.13.92-.65,1.7a9.26,9.26,0,0,0-1.43,2.15S80.34,247.34,79.24,245Z" transform="translate(-5.15 -8.41)"/><path class="cls-22" d="M71.29,266.63s1.13-4.11-.2-7.29a9.56,9.56,0,0,1-.94,5.63C69.11,266.67,71.29,266.63,71.29,266.63Z" transform="translate(-5.15 -8.41)"/><path class="cls-23" d="M91.85,267.26s3-22.51,8.33-32.32H92.39s-8.72,15.37-7.09,30.89Z" transform="translate(-5.15 -8.41)"/><path class="cls-10" d="M93.71,250.41s.89-1.66,1.11-2.2,1.08.4,1,1.09S93.71,250.41,93.71,250.41Z" transform="translate(-5.15 -8.41)"/><path class="cls-10" d="M100.62,254.17a4.08,4.08,0,0,1-.51,1.12s-.54.51-.91.9l-.27.32a6.89,6.89,0,0,1-1.42,1.73c-.78.63-3.75,2.56-3.75,2.56l-2.1-2.24L90,256.82s1.41-5.33,2.07-6c.07-.06.13-.13.2-.18a8.79,8.79,0,0,1,1.63-.86c.13-.09,1.47-.84,1.9-.67a1.49,1.49,0,0,1,1,1.06,3.57,3.57,0,0,1,1.53,1.25,2.24,2.24,0,0,1,1.28,1.5S100.65,253.48,100.62,254.17Z" transform="translate(-5.15 -8.41)"/><path class="cls-10" d="M114.41,312.3l-8.82,19.84c-.62,1.4-1.19,2.69-1.7,3.82-.59,1.33-1.08,2.43-1.41,3.19-2.34,5.26-8.09,16.73-8.09,16.73s-4.33.16-4.58-3.51c0,0,4.15-8,4.15-13.56s.75-22.07,6.1-25.64C106.57,308.83,110.81,308,114.41,312.3Z" transform="translate(-5.15 -8.41)"/><path class="cls-10" d="M66.82,290.29a5.91,5.91,0,0,0,2,1.34c.92.25,16.29,1.42,23.39,3.76s16.53,3.84,18.29,5.84,4.67,13,4.59,15.12,6.24,37.27,7,40c.42,1.46-5.71.9-5.71.9s-8.72-20.79-10.58-24.63c-3.42-7.05-3.59-15.7-4.84-17s-15.2-4.34-23.22-4.34-26,.67-27.89-.41-13.95-9-8.94-19.63S66.82,290.29,66.82,290.29Z" transform="translate(-5.15 -8.41)"/><path class="cls-18" d="M101.5,297.89,88.78,322.36S85,313.28,78.26,311.71,44.9,311,44.9,311s-12.24-15.48-1.76-23.61,22.73,1.28,22.73,1.28,2.53,2.74,3.75,2.8C78.52,291.91,88,293.56,101.5,297.89Z" transform="translate(-5.15 -8.41)"/><path class="cls-10" d="M130,367.27s-3.88,1-5.36,0-6.53-9.5-8.2-10c0,0,1.62-3.28,5.71-.9C122.11,356.36,128.86,365.85,130,367.27Z" transform="translate(-5.15 -8.41)"/><path class="cls-10" d="M98,367.09s-4-.54-5-2-2.52-11.24-3.88-12.34c0,0,2.73-2.45,5.64,1.3C94.83,354.05,97.55,365.37,98,367.09Z" transform="translate(-5.15 -8.41)"/><path class="cls-10" d="M57.64,213.43a10.35,10.35,0,0,1,10.88,9.48,25.66,25.66,0,0,1-.78,3.9c-.53,1.71,1,6.77.61,7a11.08,11.08,0,0,1-2.06.57s-1.78,5.52-3.72,5.48-9.28-1.57-12.74-8.44S45.31,214,57.64,213.43Z" transform="translate(-5.15 -8.41)"/><path class="cls-10" d="M60,237.36s-.24.77-.51,1.92c-.14.59-.29,1.27-.41,2a13.53,13.53,0,0,0,0,5.94s-4.29,1.48-7.67-4.58c0,0,1.45-6.52-.44-10.48S60,237.36,60,237.36Z" transform="translate(-5.15 -8.41)"/><path class="cls-18" d="M68.52,222.91s-4.69,4.21-9.65,3.88-8.3,6-8.3,6-7.49-9.4-1.45-17S69.59,213.48,68.52,222.91Z" transform="translate(-5.15 -8.41)"/><path class="cls-10" d="M56.59,226.75a1.52,1.52,0,0,0-2.65-1.08c-1.56,1.3.54,5.83,1.82,5.39S56.62,227.73,56.59,226.75Z" transform="translate(-5.15 -8.41)"/><path class="cls-12" d="M59.44,239.28c-.14.59-.29,1.27-.41,2a21.19,21.19,0,0,1-6-5.6A24.19,24.19,0,0,0,59.44,239.28Z" transform="translate(-5.15 -8.41)"/><path class="cls-18" d="M71.06,262.44c-.9,4.18-3.28,4.4-3.13,7.49s1.07,3.35-.53,8.22a22.6,22.6,0,0,0-.73,2.89c0,.12,0,.24-.07.35-.1.57-.19,1.13-.27,1.69-.14,1-.24,2.05-.31,3a6.16,6.16,0,0,0,1.58,4.26S52,299.67,41.24,298.36c0,0,2.77-11.68,4.3-15.69s1.07-22.55,0-26.53c-1.67-5.87,1.65-14.67,6.19-15.81l7,3.26s7.08,8.46,8.67,9.74S72,258.19,71.06,262.44Z" transform="translate(-5.15 -8.41)"/><path class="cls-18" d="M47.81,245.3c2-1.65,4.86-4.49,9,1.12s7.25,9.21,8.15,10.84,8.79,13,8.79,13,4.19-3.88,6.59-5.71c2.69-2.06,10-9.72,10-9.72l4.86,5.39S78.44,279,75.83,279.61s-9.92-5.92-12.81-8.46S52,259.32,50.6,258.43,42.63,249.61,47.81,245.3Z" transform="translate(-5.15 -8.41)"/><path class="cls-12" d="M105.59,332.14c-.62,1.4-1.19,2.69-1.7,3.82-1.89-6.08-1.74-16.26-1.74-16.26A57.18,57.18,0,0,0,105.59,332.14Z" transform="translate(-5.15 -8.41)"/><rect class="cls-24" x="18.94" y="302.58" width="54.18" height="5.96"/><path class="cls-7" d="M52.28,292s-1.37,5.53,5.06,6.78,14.34,2.86,14.34,12.78H49.38Z" transform="translate(-5.15 -8.41)"/><polygon class="cls-10" points="80.2 223.43 81.12 221.73 81.24 223.66 80.2 223.43"/><path class="cls-25" d="M24.09,317,5.15,237.35s34.24-5.35,38.32,10,10.79,61.05,19,63.87S24.09,317,24.09,317Z" transform="translate(-5.15 -8.41)"/><path class="cls-22" d="M68.13,275.49s-.35,1.47-.72,2.67l-8.33-10.8Z" transform="translate(-5.15 -8.41)"/><path class="cls-18" d="M47.24,226s3.3,8.7,2.4,11.08a7.35,7.35,0,0,0,4.2-7.9C52.91,223.46,47.24,226,47.24,226Z" transform="translate(-5.15 -8.41)"/><polygon class="cls-18" points="53.98 235.66 53.98 233.93 46.67 230.37 44.14 233.29 53.98 235.66"/><path class="cls-26" d="M85,370.4a2.83,2.83,0,1,1-2.83-2.83A2.83,2.83,0,0,1,85,370.4Z" transform="translate(-5.15 -8.41)"/><polygon class="cls-17" points="16.11 359.18 16.82 361.2 47.13 351.81 45.68 347.72 16.11 359.18"/><polygon class="cls-17" points="77.05 359.18 76.34 361.2 46.03 351.81 47.36 347.47 77.05 359.18"/><polygon class="cls-17" points="55.7 360.98 55.7 363.33 46.03 351.81 47.36 347.47 55.7 360.98"/><path class="cls-26" d="M61.09,370.4a2.84,2.84,0,1,1-2.83-2.83A2.83,2.83,0,0,1,61.09,370.4Z" transform="translate(-5.15 -8.41)"/><circle class="cls-26" cx="16.11" cy="361.99" r="2.83"/><path class="cls-8" d="M418.67,85.89a30.7,30.7,0,0,1-10.62,23.2L407,110c-.41.32-.84.64-1.26.94a30.53,30.53,0,0,1-14,5.4q-1.36.17-2.76.21l-1,0c-1,0-2,0-2.94-.14a30.63,30.63,0,0,1-18.82-8.92c-.18-.19-.37-.38-.55-.58a28.1,28.1,0,0,1-1.95-2.27,30.66,30.66,0,1,1,54.93-18.75Z" transform="translate(-5.15 -8.41)"/><path class="cls-27" d="M408,102.81l-2.26,8.11a30.53,30.53,0,0,1-14,5.4q-1.36.17-2.76.21l-1,0c-1,0-2,0-2.94-.14a30.36,30.36,0,0,1-15.72-6.19c-.43-2.69-.9-5.66-1.31-8.43,2.25-.84,9.43-3.28,14-4.81l.19-.06.3-.1.77-.26.7-.24,1.81-.61h0l.09,0h0l6.09.45,1,.08.32,0,.14,0c.36.09,1.43.37,2.84.8h0C399.92,98.18,405.77,100.27,408,102.81Z" transform="translate(-5.15 -8.41)"/><path class="cls-28" d="M389.6,70.66s7.3,1.23,6.06,12.66S388,93.74,387.55,93.73s-6.48.14-6.8-13.84C380.75,79.89,380.66,69.56,389.6,70.66Z" transform="translate(-5.15 -8.41)"/><path class="cls-28" d="M392.8,90.41s-.25,4.71.19,5.73-5.86,4.26-9.78.58c0,0,.79-5.15.55-7S392.8,90.41,392.8,90.41Z" transform="translate(-5.15 -8.41)"/><path class="cls-28" d="M395.81,80.09s.81-.84,1.09,0-1.29,4.72-1.19,4.89c0,0-.15.34-.34.15A42,42,0,0,1,395.81,80.09Z" transform="translate(-5.15 -8.41)"/><path class="cls-28" d="M380.83,79.78s-.77-.87-1.09,0,.85,4.71,1,4.94c0,0,.25.4.45.22A41.79,41.79,0,0,0,380.83,79.78Z" transform="translate(-5.15 -8.41)"/><path class="cls-29" d="M396.28,79.12c-.25,1.57-.49,2.73-.49,2.73l-1.06,1.38a28.29,28.29,0,0,0-.1-3.54c-.06-.19-.14-.51-.21-.86-.12-.58-.25-1.23-.33-1.45s-6.26-2.13-11.71.38c0,0,0,.47,0,1s-.07,1.3-.35,1.41c-.52.19-.3,3.59-.3,3.59l-.85-1s-.25-1.78-.49-3.82v0c-.06-.47-.11-1-.17-1.45-.12-2,.08-5.78,2.76-8,1.8-.77,4.68-1.43,9.48,0a3.42,3.42,0,0,1,1.41.37C396.9,73.21,396.28,79.12,396.28,79.12Z" transform="translate(-5.15 -8.41)"/><path class="cls-30" d="M384.26,92.2a4.64,4.64,0,0,0,3.87,1.56A5.23,5.23,0,0,0,392,92.28s-1.28,2.68-3.89,2.66S384.26,92.2,384.26,92.2Z" transform="translate(-5.15 -8.41)"/><path class="cls-28" d="M382.47,96.81a7.93,7.93,0,0,0,5.67,3.73c2.35.2,4.39-2.78,5.34-4.25A14.28,14.28,0,0,0,382.47,96.81Z" transform="translate(-5.15 -8.41)"/><path class="cls-23" d="M392.81,95.22a20.39,20.39,0,0,1-4.67,4l2,3,3.37-6Z" transform="translate(-5.15 -8.41)"/><path class="cls-23" d="M383.36,95.67a13.66,13.66,0,0,0,4.78,3.6L386,102.4l-3.8-5.49Z" transform="translate(-5.15 -8.41)"/><path class="cls-31" d="M388.14,99.27l1.69,2.57a3.52,3.52,0,0,1-3.43-.06Z" transform="translate(-5.15 -8.41)"/><path class="cls-14" d="M409.94,102.33l-.05.17c-.19.66-.9,3.2-1.84,6.59L407,110c-.41.32-.84.64-1.26.94a30.53,30.53,0,0,1-14,5.4c.45-10.61,1.71-20,1.71-20l2.83.78h0A65.76,65.76,0,0,1,409.39,102l0,0C409.77,102.22,409.94,102.33,409.94,102.33Z" transform="translate(-5.15 -8.41)"/><path class="cls-14" d="M381.87,115.94a30.68,30.68,0,0,1-15.63-8.45c-.18-.19-.37-.38-.55-.58-.54-2.28-.9-3.76-.92-3.86h0S368.56,100.55,382,97h0C382,97.29,382,105.9,381.87,115.94Z" transform="translate(-5.15 -8.41)"/><path class="cls-31" d="M389.11,102.13c-.13,2.79-.14,8.22-.1,14.4l-1,0c-1,0-2,0-2.94-.14a94.35,94.35,0,0,1,2-14.29c.15-.62.24-.93.24-.93l1.8.3C389.13,101.68,389.12,101.9,389.11,102.13Z" transform="translate(-5.15 -8.41)"/><path class="cls-14" d="M411.48,105.61a30.46,30.46,0,0,1-3.43,3.48L407,110l2.41-8h0l0,0a1.88,1.88,0,0,1,.47.47A15.19,15.19,0,0,1,411.48,105.61Z" transform="translate(-5.15 -8.41)"/><path class="cls-14" d="M366.24,107.49c-.18-.19-.37-.38-.55-.58a28.1,28.1,0,0,1-1.95-2.27,3.6,3.6,0,0,1,1-1.6h0Z" transform="translate(-5.15 -8.41)"/><rect class="cls-32" x="159.87" y="35.6" width="41.31" height="9.61" rx="3.45"/><path class="cls-33" d="M182.1,116.55A19.84,19.84,0,0,0,208.3,98c0-.44,0-.89,0-1.32a19.82,19.82,0,0,0-19.56-18.77,19.85,19.85,0,0,0-6.62,38.64Zm-8.51-19a14.88,14.88,0,0,1,28.86-4.89h0a14.67,14.67,0,0,1,.87,4.27c0,.32,0,.66,0,1a14.88,14.88,0,1,1-29.75-.38Z" transform="translate(-5.15 -8.41)"/><path class="cls-34" d="M200.22,106.86l3.93,3a19.87,19.87,0,0,1-22.05,6.65l1.59-4.71a14.9,14.9,0,0,0,16.53-5Z" transform="translate(-5.15 -8.41)"/><path class="cls-35" d="M203.32,96.94l5-.26c0,.43,0,.88,0,1.32a19.79,19.79,0,0,1-4.15,11.9l-3.93-3a14.84,14.84,0,0,0,3.12-8.92C203.34,97.61,203.33,97.27,203.32,96.94Z" transform="translate(-5.15 -8.41)"/><path class="cls-35" d="M203.32,97a14.67,14.67,0,0,0-.87-4.27h0l4.67-1.7a20,20,0,0,1,1.16,5.71Z" transform="translate(-5.15 -8.41)"/><path class="cls-2" d="M176.53,81.9A19.85,19.85,0,0,1,207.12,91l-4.67,1.71h0a14.88,14.88,0,0,0-23-6.74Z" transform="translate(-5.15 -8.41)"/><path class="cls-33" d="M318.07,125.56h12.85a4.63,4.63,0,0,1,4.63,4.63V143a4.62,4.62,0,0,1-4.62,4.62H318.07a4.63,4.63,0,0,1-4.62-4.62V130.18A4.62,4.62,0,0,1,318.07,125.56Z"/><path class="cls-36" d="M328.94,149.89,323.35,145a1.1,1.1,0,1,1,1.45-1.66l3.95,3.44,5.63-6.28A1.1,1.1,0,1,1,336,142Z" transform="translate(-5.15 -8.41)"/><path class="cls-33" d="M318.07,153.88h12.85a4.63,4.63,0,0,1,4.63,4.63v12.85a4.62,4.62,0,0,1-4.62,4.62H318.07a4.63,4.63,0,0,1-4.62-4.62V158.5A4.62,4.62,0,0,1,318.07,153.88Z"/><path class="cls-36" d="M328.94,178.21l-5.59-4.87a1.1,1.1,0,1,1,1.45-1.66l3.95,3.44,5.63-6.28a1.11,1.11,0,0,1,1.56-.08,1.09,1.09,0,0,1,.08,1.55Z" transform="translate(-5.15 -8.41)"/><path class="cls-33" d="M318.07,182.2h12.85a4.62,4.62,0,0,1,4.62,4.62v12.85a4.63,4.63,0,0,1-4.62,4.63H318.07a4.62,4.62,0,0,1-4.62-4.62V186.83A4.63,4.63,0,0,1,318.07,182.2Z"/><path class="cls-37" d="M248.57,343.59s.67,4.48,1.11,6.39,4.58,7.39,4.51,8.32-1.82,2-2.7,1.28-6.72-6.75-8-9.32-5.37-5.92-5.79-7.06,4.86-4.48,6.23-5S248.57,343.59,248.57,343.59Z" transform="translate(-5.15 -8.41)"/><path class="cls-10" d="M238.22,263.88a16.81,16.81,0,0,0,.95,3.39,25,25,0,0,1,1.6,3.56c.11.37.78,3.05.89,3.39s-.65.87-1.17.15a21.21,21.21,0,0,1-1.13-2.74c-.23-.56-.94-2.33-1.13-2a19.76,19.76,0,0,0-.18,3.31,20.32,20.32,0,0,0,.54,3.28c.18.77,1.22,4,.8,4.21s-.77.13-1.3-.75c0,0-.85.48-1.35-.59,0,0-.76.27-1.23-1.13a1.91,1.91,0,0,1-.75-.8,30.61,30.61,0,0,1-1.42-6.55c0-1.75.42-3,.34-4.2a31.79,31.79,0,0,0-.71-3.88Z" transform="translate(-5.15 -8.41)"/><polygon class="cls-38" points="240.4 329.08 238.81 329.78 243.42 335.17 244.95 333.48 240.4 329.08"/><path class="cls-37" d="M261.66,348.79a16.66,16.66,0,0,1-1.89,3.46c-.86,1-4.18,2.73-4.19,5.65,0,3.16,5.58,2.28,7.77,2.16s2.36-1.8,3.29-3.59,1.85-1.48,2-2.93a18.13,18.13,0,0,0-.7-4.67Z" transform="translate(-5.15 -8.41)"/><path class="cls-38" d="M261.57,347.88l-.16,1.5a11.41,11.41,0,0,0,6.71.13l-.18-2.05Z" transform="translate(-5.15 -8.41)"/><path class="cls-39" d="M280.69,309.82c0-3.9-2.84-37.88-2.71-39.18.09-.84-.82-9-1.46-14.53a.77.77,0,0,0,0-.15v0c-.18-1.56-.34-2.91-.44-3.81-.05-.42-.09-.74-.11-1a1.68,1.68,0,0,1,0-.26s-18.34-3.61-27.85-.2c-.4.15-.78.3-1.14.47,0,0,0,.16-.07.46-.09.71-.29,2.17-.56,4.17,0,.33-.09.68-.14,1.05-1.35,10.24-.48,21.38,1.89,32.77,2.32,11.18,3.6,19.55,3.84,21.17.31,2.13,1.25,8,2.28,14.42-5,6.23-9.35,11.52-9,12,.8,1.3,7.88,8.63,8.27,7.33,0,0,1.28-1.45,3.28-3.75.64,3.93,1.07,6.61,1.07,6.61s7.77,1.86,10.62.17c0,0-1.12-8.53-2.29-17.8C273.21,321.29,280.69,311.86,280.69,309.82ZM263.48,307c-.1-5.23-2.42-34.53-2.18-34.53,1.15,0,7.6,27.91,7.83,31.83.05.81-.95,2.61-2.58,5-.73,1.07-1.58,2.25-2.53,3.51h0C263.7,309.91,263.49,307.79,263.48,307Z" transform="translate(-5.15 -8.41)"/><path class="cls-27" d="M283.76,202.31,278.82,220c-.17.58-.37,1.28-.58,2.1v0a0,0,0,0,1,0,0,69.46,69.46,0,0,0-2.14,13.3c-.21,3.64.47,18.28.47,18.28s-7.46,2.78-18.63,2.08c0,0-12-.28-11-7.65,2.59-19.49.06-27.53-.28-29.48,0,0-1.63-9.47-2.8-17.4,3.38-1.26,17.82-6.11,17.82-6.11l7.48.56S280.47,198.54,283.76,202.31Z" transform="translate(-5.15 -8.41)"/><path class="cls-28" d="M265.38,170.17s7.3,1.23,6.06,12.66-7.68,10.42-8.11,10.4-6.48.14-6.8-13.83C256.53,179.4,256.43,169.06,265.38,170.17Z" transform="translate(-5.15 -8.41)"/><path class="cls-28" d="M268.58,189.92s-.25,4.7.19,5.73-5.86,4.26-9.78.57c0,0,.79-5.14.55-7S268.58,189.92,268.58,189.92Z" transform="translate(-5.15 -8.41)"/><path class="cls-28" d="M271.59,179.6s.81-.85,1.09,0-1.29,4.72-1.19,4.89c0,0-.15.34-.34.15A41.81,41.81,0,0,1,271.59,179.6Z" transform="translate(-5.15 -8.41)"/><path class="cls-28" d="M256.61,179.29s-.77-.88-1.09,0,.84,4.7,1,4.94c0,0,.25.39.45.21A41.63,41.63,0,0,0,256.61,179.29Z" transform="translate(-5.15 -8.41)"/><path class="cls-29" d="M272.06,178.62c-.26,1.57-.49,2.73-.49,2.73l-1.07,1.39a26.63,26.63,0,0,0-.1-3.55c-.06-.18-.13-.51-.2-.86-.13-.58-.25-1.23-.34-1.45s-6.25-2.13-11.7.38c0,0,0,.47,0,1s-.07,1.3-.35,1.4c-.52.19-.3,3.59-.3,3.59l-.85-1s-.25-1.78-.49-3.82h0c-.06-.48-.12-1-.17-1.45-.12-2.06.08-5.78,2.76-8,1.8-.78,4.68-1.43,9.48,0a3.27,3.27,0,0,1,1.41.37C272.68,172.72,272.06,178.62,272.06,178.62Z" transform="translate(-5.15 -8.41)"/><path class="cls-30" d="M260,191.7a4.64,4.64,0,0,0,3.87,1.56,5.25,5.25,0,0,0,3.88-1.47s-1.28,2.68-3.89,2.65S260,191.7,260,191.7Z" transform="translate(-5.15 -8.41)"/><path class="cls-28" d="M258.25,196.32a7.93,7.93,0,0,0,5.66,3.72c2.36.21,4.4-2.78,5.35-4.24A14.23,14.23,0,0,0,258.25,196.32Z" transform="translate(-5.15 -8.41)"/><path class="cls-23" d="M268.59,194.72a20.32,20.32,0,0,1-4.68,4.05l2,3,3.37-6Z" transform="translate(-5.15 -8.41)"/><path class="cls-23" d="M259.14,195.18a13.59,13.59,0,0,0,4.77,3.59l-2.17,3.14L258,196.42Z" transform="translate(-5.15 -8.41)"/><path class="cls-31" d="M263.91,198.77l1.7,2.58a3.55,3.55,0,0,1-3.44-.07Z" transform="translate(-5.15 -8.41)"/><path class="cls-37" d="M246.48,257.14s9.16,3.38,29.87.2l-.27-3.75s-12,3.54-29.23.51Z" transform="translate(-5.15 -8.41)"/><path class="cls-14" d="M269.26,195.8a228.91,228.91,0,0,0-1.85,29.8c.3,13.8,10.72,38.86,10.72,38.86s4.56-4.41,6.54-6.9c0,0-7.09-20.47-7-24.16s8-31.57,8-31.57S281.34,199,269.26,195.8Z" transform="translate(-5.15 -8.41)"/><path class="cls-14" d="M257.76,196.47s0,15.33-.27,29.13-2.11,39.49-2.11,39.49-10.21-1.62-12.19-4.11c0,0,4.13-23.89,4-27.58s-6.64-30.85-6.64-30.85S244.34,200.05,257.76,196.47Z" transform="translate(-5.15 -8.41)"/><rect class="cls-40" x="253.83" y="246.33" width="5.63" height="4.18"/><path class="cls-31" d="M263.12,200.69s-2.52,8.58-2.73,25.62.3,21.93.3,21.93l2,3.88,2.61-4.05s-.84-39.21-.35-47.08Z" transform="translate(-5.15 -8.41)"/><path class="cls-10" d="M277.56,264.6a3.4,3.4,0,0,0,.79-.7s.26-.55.47-.93a2.61,2.61,0,0,1,.18-.29,5.63,5.63,0,0,0,1-1.56,32,32,0,0,0,.51-4.27l-2.16-.64-1.92-.84s-4.2,3.22-4.56,3.9c0,.07-.06.14-.08.2a5.83,5.83,0,0,0-.2,1.46c0,.12-.23,1.33,0,1.59a1.48,1.48,0,0,0,1.24.44,3.32,3.32,0,0,0,1.57.76,2.22,2.22,0,0,0,1.7.51S277,264.83,277.56,264.6Z" transform="translate(-5.15 -8.41)"/><path class="cls-14" d="M274.81,255a22.81,22.81,0,0,0,7,4s13.55-22.09,13.72-23.69-6.72-31.51-9.83-33.41l-5.64,16.52c.37-.11,6.42,12.55,6.45,14.18C286.55,234.71,274.81,255,274.81,255Z" transform="translate(-5.15 -8.41)"/><path class="cls-14" d="M239.82,266.87a34.16,34.16,0,0,1-7.45.32s1.71-28.35,1.54-29.95,3.53-32.79,6.64-34.69l5.54,16.69c-.38-.11-3.72,17.08-3.74,18.7C242.32,240.13,239.82,266.87,239.82,266.87Z" transform="translate(-5.15 -8.41)"/><polygon class="cls-39" points="266.12 249.71 274.83 254.22 271.4 260.56 263.99 252.64 266.12 249.71"/><path class="cls-37" d="M266.55,309.27l-.88,17.24L264,312.78h0C265,311.52,265.82,310.34,266.55,309.27Z" transform="translate(-5.15 -8.41)"/><rect class="cls-33" x="217.56" y="91.33" width="5.08" height="16.67"/><path class="cls-8" d="M410,210.8a23.57,23.57,0,1,1-23.56-23.57A23.56,23.56,0,0,1,410,210.8Z" transform="translate(-5.15 -8.41)"/><rect class="cls-33" x="209.23" y="96" width="5.08" height="11.99"/><rect class="cls-33" x="225.9" y="83.6" width="5.08" height="24.4"/><rect class="cls-41" x="442.86" y="278.33" width="32.7" height="1.94" transform="translate(913.28 550.19) rotate(180)"/><rect class="cls-15" x="463.17" y="276.91" width="2.87" height="88.28"/><rect class="cls-42" x="425.25" y="277.78" width="22.73" height="2.77" transform="translate(868.09 549.92) rotate(180)"/><rect class="cls-43" x="432.31" y="254.13" width="8.61" height="26.14" transform="translate(868.09 525.99) rotate(180)"/><rect class="cls-16" x="361.36" y="280.3" width="125.94" height="5.02" transform="translate(843.51 557.22) rotate(180)"/><path class="cls-44" d="M511.47,249.92s1.37,19.32-2.4,21.63c-2.37,1.45-11.79,6.33-11.51,7.25s5.32,8.15,5.32,8.15S521,275,521.57,271.27s-.89-28.28-3.38-29.42c-1.86-.85-2.85-.14-5.2,1.6C509.7,245.9,511.47,249.92,511.47,249.92Z" transform="translate(-5.15 -8.41)"/><path class="cls-45" d="M489.19,361.55s.56,3.91.63,4.5,6.26-.35,6.26-.35l.51-4.65S490,361,489.19,361.55Z" transform="translate(-5.15 -8.41)"/><path class="cls-39" d="M489.76,365.55a16.66,16.66,0,0,1-3.87,3.38c-1.89,1-4.88,1.44-6,2.5-.81.76-2.95,4.07,4.93,4s11.69.47,12.53-.8-1.22-9.34-1.22-9.34S494.26,366,489.76,365.55Z" transform="translate(-5.15 -8.41)"/><path class="cls-45" d="M449.51,361.59s.56,3.91.63,4.49,6.26-.34,6.26-.34l.5-4.65S450.28,361,449.51,361.59Z" transform="translate(-5.15 -8.41)"/><path class="cls-39" d="M450.07,365.59a16.76,16.76,0,0,1-3.86,3.38c-1.89,1-8.88,1.87-10,2.93-.81.77-2.16,3.86,8.93,3.57,7.88-.21,11.69.46,12.53-.8s-1.22-9.35-1.22-9.35S454.69,366,450.07,365.59Z" transform="translate(-5.15 -8.41)"/><path class="cls-39" d="M509.16,294s-22.51,3.81-27.6,4.61-32.66,7.66-36.11,9.75c-2.74,1.66,1.44,41.64,2.42,56.89h10.86l.79-45.75c13,.32,22.33-3.05,31.82-1.61s17.41,3.49,23.44-4.6C514.78,313.33,515,295.8,509.16,294Z" transform="translate(-5.15 -8.41)"/><path class="cls-39" d="M487,365.32l10.58-.65,1-45.13a64.32,64.32,0,0,0,12.07-.77l8.55-19.86c-7.49,1.49-31.49,7.55-34.69,9.49C481.78,310.06,486,350.07,487,365.32Z" transform="translate(-5.15 -8.41)"/><path class="cls-10" d="M498.8,209.63s-8.26-2.28-11.41,4.13-1.72,18.56,2.44,19.7,10.15-.17,11.87-4.16,3.11-9.66,2.69-13.33S501,210.51,498.8,209.63Z" transform="translate(-5.15 -8.41)"/><path class="cls-10" d="M492,232.18s.09,4.87-.45,5.91,11.5.78,11.5.78-1.9-5.85-.82-10.84S492,232.18,492,232.18Z" transform="translate(-5.15 -8.41)"/><path class="cls-46" d="M502.86,226.19s-.64,1.31-3.75,1.09-7.22-4-8.54-4.3-1.41-1.09-1.41-1.09l-.7,1.25-1.35.2s.92-3.76-1.09-5.09.91-12,11.06-9.43c0,0,7.75,1.42,7.86,5.75S504.37,223.9,502.86,226.19Z" transform="translate(-5.15 -8.41)"/><path class="cls-41" d="M490.91,238s0-2,.93-2.18,9.46-1.37,10.57-.93l.47,2.62S500.75,238.79,490.91,238Z" transform="translate(-5.15 -8.41)"/><path class="cls-10" d="M488.44,221c.23-1.62,2.08-3.49,3.13-1s-.71,6.23-1.9,6S488.12,223.21,488.44,221Z" transform="translate(-5.15 -8.41)"/><path class="cls-14" d="M455.07,261.42h0C455,261.45,455,261.45,455.07,261.42Z" transform="translate(-5.15 -8.41)"/><path class="cls-46" d="M501.21,210.8s10.06-.48,1.75,15.23Z" transform="translate(-5.15 -8.41)"/><polygon class="cls-17" points="518.48 362.26 517.74 364.37 486.1 354.57 487.62 350.3 518.48 362.26"/><rect class="cls-17" x="490.16" y="327.09" width="3.6" height="34.39" transform="translate(978.77 680.15) rotate(180)"/><rect class="cls-47" x="481.36" y="325.26" width="21.21" height="2.03" transform="translate(978.77 644.13) rotate(180)"/><polygon class="cls-17" points="454.87 362.26 455.62 364.37 487.25 354.57 485.86 350.03 454.87 362.26"/><polygon class="cls-17" points="477.15 364.14 477.15 366.59 487.25 354.57 485.86 350.03 477.15 364.14"/><path class="cls-26" d="M457.06,373.6a3,3,0,1,0,2.95-3A3,3,0,0,0,457.06,373.6Z" transform="translate(-5.15 -8.41)"/><path class="cls-26" d="M482.05,373.6a3,3,0,1,0,3-3A3,3,0,0,0,482.05,373.6Z" transform="translate(-5.15 -8.41)"/><path class="cls-26" d="M520.67,373.6a3,3,0,1,0,3-3A3,3,0,0,0,520.67,373.6Z" transform="translate(-5.15 -8.41)"/><rect class="cls-41" x="466.7" y="317.58" width="50.24" height="7.68" rx="3.79" transform="translate(978.5 634.43) rotate(180)"/><rect class="cls-15" x="377.47" y="285.32" width="2.86" height="88.28" transform="translate(752.66 650.52) rotate(180)"/><rect class="cls-48" x="399.45" y="214.29" width="74.33" height="52.43" rx="3.78" transform="translate(868.09 472.6) rotate(180)"/><rect class="cls-32" x="402.36" y="217.12" width="68.5" height="41.38" transform="translate(868.09 467.22) rotate(180)"/><rect class="cls-49" x="402.36" y="217.12" width="68.5" height="3.29" transform="translate(868.09 429.13) rotate(180)"/><rect class="cls-49" x="404.9" y="222.89" width="8.26" height="33.06" rx="2.34" transform="translate(812.91 470.44) rotate(180)"/><rect class="cls-49" x="453.86" y="222.89" width="15.07" height="3.06" rx="1.26" transform="translate(917.65 440.44) rotate(180)"/><rect class="cls-49" x="453.86" y="228.01" width="15.07" height="28.79" rx="2.61" transform="translate(917.65 476.4) rotate(180)"/><path class="cls-50" d="M434.22,262.37a2.4,2.4,0,1,0,2.4-2.4A2.4,2.4,0,0,0,434.22,262.37Z" transform="translate(-5.15 -8.41)"/><path class="cls-51" d="M421.23,280.37v-.93s1.31-5.8,10.59-5.8,9.09,6.73,9.09,6.73Z" transform="translate(-5.15 -8.41)"/><path class="cls-10" d="M441,274.5a9.3,9.3,0,0,1-2.75-.6c-.74-.45-5.16-3.42-6.2-2.95s-7.94,2.6-7.7,3.61.88.91,1.37.73,5.5-1.23,5.94-1.05c0,0-4.92,1.79-4.94,3.1s1,1.63,1.49,2.13,1,1.73,2.3,1.82,7.46-2.06,8.74-2.16,3.63.08,3.8-.13S441,274.5,441,274.5Z" transform="translate(-5.15 -8.41)"/><path class="cls-52" d="M477.72,240.72c6.43-1.13,13.19-2.75,13.19-2.75l12-.49s11,2.42,15.31,4.37c.41.19.41,9.8,1.54,12.32l-3.59,7.57s-2.07,15-2.5,21.66c-.2,3.06.56,29.57.56,29.57s-1.08.53-9.24,1.43-28.58-.32-28.71-1.29,3.95-35.92,4.13-37.73c.28-2.78-.8-15.62-.8-15.62-1.54,2.06-5.46,11.4-9.55,15.84-2.41,2.62-14.32,4.22-16.57,4.29-4.89.17-13.8,1.14-14.06.66-.21-.28-.78-7.91-.22-8.1s17.05-1.11,21.29-3.36c1.55-.83,6.19-10.94,6.19-10.94S474.17,242.31,477.72,240.72Z" transform="translate(-5.15 -8.41)"/><rect class="cls-41" x="494.03" y="264.22" width="34.65" height="47.99" rx="7.28" transform="translate(1017.56 568.02) rotate(180)"/><path class="cls-41" d="M500.17,323.35a15.9,15.9,0,0,0,12.32-5.1c6.92-7.65,5.68-21.09,5.62-21.66a1.93,1.93,0,0,0-3.84.38c0,.16,1.12,12.34-4.65,18.7-2.33,2.57-5.42,3.82-9.45,3.82a1.93,1.93,0,0,0,0,3.86Z" transform="translate(-5.15 -8.41)"/><path class="cls-8" d="M437.61,234a9.6,9.6,0,0,1-2.27,6.22,9.35,9.35,0,0,1-1.08,1.1l-.34.28-.4.3a9.62,9.62,0,0,1-4.4,1.7,8.06,8.06,0,0,1-.87.07h-.31c-.32,0-.63,0-.93,0a8.48,8.48,0,0,1-1-.15,9.69,9.69,0,0,1-4-1.81,8.77,8.77,0,0,1-1-.86c-.06,0-.12-.12-.18-.18-.21-.23-.42-.47-.61-.72a9.57,9.57,0,0,1-2-5.91,9.68,9.68,0,1,1,19.35,0Z" transform="translate(-5.15 -8.41)"/><path class="cls-27" d="M434.24,239.38l-.72,2.56a9.62,9.62,0,0,1-4.4,1.7,8.06,8.06,0,0,1-.87.07h-.31c-.32,0-.63,0-.93,0a8.48,8.48,0,0,1-1-.15,9.69,9.69,0,0,1-4-1.81c-.13-.84-.28-1.78-.41-2.65.71-.27,3-1,4.41-1.52l0,0,.1,0,.24-.09.22-.07.57-.19h0l1.92.14.32,0h.15l.9.26h0A9.48,9.48,0,0,1,434.24,239.38Z" transform="translate(-5.15 -8.41)"/><path class="cls-28" d="M428.44,229.23s2.3.39,1.91,4-2.42,3.29-2.56,3.28-2,.05-2.14-4.36C425.65,232.15,425.62,228.89,428.44,229.23Z" transform="translate(-5.15 -8.41)"/><path class="cls-28" d="M429.45,235.47a8.24,8.24,0,0,0,.06,1.8c.14.33-1.85,1.35-3.09.19a12.67,12.67,0,0,0,.17-2.2C426.52,234.69,429.45,235.47,429.45,235.47Z" transform="translate(-5.15 -8.41)"/><path class="cls-28" d="M430.4,232.21s.25-.27.34,0-.4,1.49-.37,1.54-.05.11-.11.05A13.23,13.23,0,0,1,430.4,232.21Z" transform="translate(-5.15 -8.41)"/><path class="cls-28" d="M425.67,232.11s-.24-.27-.34,0a4.48,4.48,0,0,0,.31,1.55s.08.13.14.07A13.9,13.9,0,0,0,425.67,232.11Z" transform="translate(-5.15 -8.41)"/><path class="cls-29" d="M430.55,231.9c-.08.5-.16.86-.16.86l-.33.44a7.6,7.6,0,0,0,0-1.12c0-.06,0-.16-.06-.27a4.56,4.56,0,0,0-.11-.46,4.93,4.93,0,0,0-3.69.12s0,.15,0,.32,0,.41-.11.44-.09,1.13-.09,1.13l-.27-.31s-.08-.56-.16-1.2h0c0-.15,0-.3-.05-.45a3,3,0,0,1,.87-2.52,4.18,4.18,0,0,1,3,0,1.15,1.15,0,0,1,.45.12A4.31,4.31,0,0,1,430.55,231.9Z" transform="translate(-5.15 -8.41)"/><path class="cls-30" d="M426.75,236a1.47,1.47,0,0,0,1.22.49,1.68,1.68,0,0,0,1.23-.46,1.48,1.48,0,0,1-1.23.83A1.52,1.52,0,0,1,426.75,236Z" transform="translate(-5.15 -8.41)"/><path class="cls-28" d="M426.19,237.49a2.49,2.49,0,0,0,1.79,1.17c.74.07,1.38-.87,1.68-1.34A4.48,4.48,0,0,0,426.19,237.49Z" transform="translate(-5.15 -8.41)"/><path class="cls-23" d="M429.45,237a6.35,6.35,0,0,1-1.47,1.28l.62,1,1.06-1.9Z" transform="translate(-5.15 -8.41)"/><path class="cls-23" d="M426.47,237.13a4.27,4.27,0,0,0,1.51,1.13l-.69,1-1.2-1.73Z" transform="translate(-5.15 -8.41)"/><path class="cls-31" d="M428,238.26l.53.81a1.1,1.1,0,0,1-1.08,0Z" transform="translate(-5.15 -8.41)"/><path class="cls-14" d="M434.86,239.23l-.6,2.13-.34.28-.4.3a9.62,9.62,0,0,1-4.4,1.7c.15-3.35.54-6.32.54-6.32l.9.25h0A21.23,21.23,0,0,1,434.86,239.23Z" transform="translate(-5.15 -8.41)"/><path class="cls-14" d="M426,243.52a9.69,9.69,0,0,1-4-1.81,8.77,8.77,0,0,1-1-.86c-.06,0-.12-.12-.18-.18-.17-.72-.28-1.19-.29-1.22h0a22.26,22.26,0,0,1,5.44-1.91h0C426,237.63,426,240.35,426,243.52Z" transform="translate(-5.15 -8.41)"/><path class="cls-31" d="M428.28,239.16c0,.88,0,2.6,0,4.55h-.31c-.32,0-.63,0-.93,0a29.44,29.44,0,0,1,.64-4.51c.05-.2.08-.29.08-.29l.56.09A1.41,1.41,0,0,1,428.28,239.16Z" transform="translate(-5.15 -8.41)"/><path class="cls-14" d="M435.34,240.26a9.35,9.35,0,0,1-1.08,1.1l-.34.28.94-2.41C435.1,239.37,435.24,240,435.34,240.26Z" transform="translate(-5.15 -8.41)"/><path class="cls-14" d="M421.07,240.85c-.06,0-.12-.12-.18-.18-.21-.23-.42-.47-.61-.72a1.21,1.21,0,0,1,.32-.5h0Z" transform="translate(-5.15 -8.41)"/><path class="cls-53" d="M386.4,220.19a1.19,1.19,0,0,1-1.19-1.19V202.59a1.19,1.19,0,1,1,2.37,0V219A1.18,1.18,0,0,1,386.4,220.19Z" transform="translate(-5.15 -8.41)"/><path class="cls-53" d="M394.61,212H378.19a1.19,1.19,0,1,1,0-2.37h16.42a1.19,1.19,0,0,1,0,2.37Z" transform="translate(-5.15 -8.41)"/></svg>