<svg xmlns="http://www.w3.org/2000/svg" xmlns:xlink="http://www.w3.org/1999/xlink" viewBox="0 0 217.11 175.41"><defs><style>.cls-1{isolation:isolate;}.cls-2{fill:#329394;}.cls-3{fill:#f9b826;}.cls-4{fill:#6ea200;}.cls-5{fill:#6e8e00;}.cls-6{fill:#a86f49;}.cls-7{fill:#91552c;}.cls-8{fill:#ce955b;}.cls-9{fill:#3a3133;}.cls-10{fill:#126687;}.cls-11,.cls-12,.cls-31{opacity:0.5;}.cls-11{fill:url(#Áåçûìÿííûé_ãðàäèåíò_143);}.cls-13{fill:url(#Áåçûìÿííûé_ãðàäèåíò_143-2);}.cls-14{fill:#f4be84;}.cls-15{fill:#e2a36a;}.cls-16{fill:#11a3a3;}.cls-17{fill:#0e9699;}.cls-18{fill:#4ac4c0;}.cls-19,.cls-79{fill:#f9e8ca;}.cls-20{fill:#efd9b4;}.cls-21{fill:#fb2;}.cls-22{fill:#ffab24;}.cls-23{fill:#d69356;}.cls-24{fill:#fff4e3;}.cls-25{fill:#794830;}.cls-26{fill:#875539;}.cls-27{fill:#703f2c;}.cls-28{fill:#ffe5cc;}.cls-29{fill:#6b3d2b;}.cls-30{fill:#9b6335;}.cls-31,.cls-41,.cls-68,.cls-79{mix-blend-mode:multiply;}.cls-31{fill:url(#Áåçûìÿííûé_ãðàäèåíò_241);}.cls-32{fill:#d6b799;}.cls-33{fill:#c48c58;}.cls-34{fill:#a8693f;}.cls-35{fill:#9e623a;}.cls-36{fill:#d39b67;}.cls-37{fill:#b7784e;}.cls-38{fill:#e8ab73;}.cls-39{fill:#809eb4;}.cls-40,.cls-41{fill:#a2cad7;}.cls-41{opacity:0.2;}.cls-42{fill:#b7e0f2;}.cls-43{fill:#1eb0b0;}.cls-44{fill:#ffcab1;}.cls-45{fill:#f4a08c;}.cls-46{fill:#ffb99e;}.cls-47{fill:#ffddca;}.cls-48,.cls-67{fill:#fff;}.cls-48,.cls-51,.cls-79{opacity:0.6;}.cls-48,.cls-51,.cls-80{mix-blend-mode:screen;}.cls-49{fill:#c62734;}.cls-50,.cls-51{fill:#4c3d45;}.cls-52{fill:#80d0d0;}.cls-53{fill:#ef9330;}.cls-54{fill:#797589;}.cls-55{fill:#418b9d;}.cls-56{fill:#6fc3c6;}.cls-57{fill:#ffd4cc;}.cls-58{fill:#b21825;}.cls-59{fill:#ffe0b3;}.cls-60{fill:#ef8220;}.cls-61{fill:#9de0de;}.cls-62{fill:#e6d2d8;}.cls-63{fill:#3f3038;}.cls-64{fill:#cbeef2;}.cls-65{fill:#9ad0d8;}.cls-66{opacity:0.7;}.cls-68{fill:#efb720;opacity:0.4;}.cls-69{fill:#9e7657;}.cls-70{fill:#896146;}.cls-71{fill:#75a025;}.cls-72{fill:#83af2f;}.cls-73{fill:#8bba38;}.cls-74{fill:#f2ece1;}.cls-75{fill:#d8c3b0;}.cls-76{fill:#c4a891;}.cls-77{fill:#5e4e57;}.cls-78{fill:#e29817;}.cls-80{opacity:0.3;}</style><linearGradient id="Áåçûìÿííûé_ãðàäèåíò_143" x1="88.29" y1="103.03" x2="62.74" y2="97.57" gradientUnits="userSpaceOnUse"><stop offset="0" stop-color="#126687"/><stop offset="1" stop-color="#003b57"/></linearGradient><linearGradient id="Áåçûìÿííûé_ãðàäèåíò_143-2" x1="70.85" y1="102.78" x2="51.75" y2="98.06" xlink:href="#Áåçûìÿííûé_ãðàäèåíò_143"/><linearGradient id="Áåçûìÿííûé_ãðàäèåíò_241" x1="48.23" y1="2.54" x2="41.31" y2="2.41" gradientTransform="translate(23.71 23.37) rotate(10.85)" gradientUnits="userSpaceOnUse"><stop offset="0" stop-color="#9b6335"/><stop offset="0.3" stop-color="#996134"/><stop offset="0.48" stop-color="#905a31"/><stop offset="0.62" stop-color="#824d2c"/><stop offset="0.75" stop-color="#6e3c25"/><stop offset="0.86" stop-color="#54251c"/><stop offset="0.97" stop-color="#350a11"/><stop offset="1" stop-color="#29000d"/></linearGradient></defs><title>student</title><g class="cls-1"><g id="_1" data-name="1"><path class="cls-2" d="M-49.07,177.55h.87c.05-.27.1-.55.14-.81l-.86-.06C-49,177-49,177.26-49.07,177.55Z" transform="translate(49.07 -2.14)"/><circle class="cls-3" cx="133.07" cy="77.46" r="68.67"/><g id="character_sit" data-name="character sit"><g id="chair"><path class="cls-4" d="M101.07,105.83h27.84a3,3,0,0,1,3,3v.32a0,0,0,0,1,0,0H98.08a0,0,0,0,1,0,0v-.32A3,3,0,0,1,101.07,105.83Z"/><path class="cls-5" d="M79.52,108H65.3a3.31,3.31,0,0,1,3.31,3.3H82.83A3.31,3.31,0,0,0,79.52,108Z" transform="translate(49.07 -2.14)"/><path class="cls-5" d="M49.07,110.7a2.69,2.69,0,0,0-.06.57H82.83a3.55,3.55,0,0,0,0-.57Z" transform="translate(49.07 -2.14)"/><rect class="cls-6" x="46.73" y="130.95" width="38.39" height="2.15" transform="translate(247.02 63.96) rotate(90)"/><rect class="cls-7" x="47.41" y="131.63" width="38.39" height="0.79" transform="translate(247.7 63.28) rotate(90)"/><rect class="cls-7" x="61.54" y="116.68" width="8.77" height="2.15" transform="translate(232.75 49.7) rotate(90)"/><rect class="cls-6" x="96.76" y="109" width="36.47" height="4.47"/><rect class="cls-7" x="109.66" y="109" width="23.57" height="4.47"/><polygon class="cls-6" points="126.03 151.15 103.95 151.15 103.95 150.42 112.82 148.66 117.16 148.66 126.03 150.42 126.03 151.15"/><polygon class="cls-6" points="117.68 148.86 112.31 148.86 113.3 143.39 116.68 143.39 117.68 148.86"/><polygon class="cls-7" points="113.3 143.39 116.68 143.39 117.68 148.86 126.03 150.42 111.31 150.42 113.92 149.08 114.62 144.05 113.3 143.39"/><rect class="cls-8" x="96.76" y="109" width="36.47" height="0.54"/></g><g id="right_leg" data-name="right leg"><path id="foot_right" data-name="foot right" class="cls-9" d="M80.7,140.28a8.5,8.5,0,0,0-.46,1.89c.06.41,1.8,4.68,3.2,4.49s.26-2.2-.61-3.25c-1.61-1.92-1.14-2.85-1.14-2.85Z" transform="translate(49.07 -2.14)"/><path id="shin_right" data-name="shin right" class="cls-10" d="M82.21,141.65l-2-.7s.6-23.4,2.15-28.36c.77-2.47,5-9.76,7.27-12.74s8.86-1.31,7.24,3.83C94.3,110.83,89.42,122.34,82.21,141.65Z" transform="translate(49.07 -2.14)"/><g id="hip_right" data-name="hip right"><path class="cls-10" d="M77.29,91.34S94.23,98,95.27,99s-6.8,9.09-6.8,9.09L66.79,108l-5-14.41S74.27,89.32,77.29,91.34Z" transform="translate(49.07 -2.14)"/><path class="cls-11" d="M77.29,91.34S94.23,98,95.27,99s-6.8,9.09-6.8,9.09L66.79,108l-5-14.41S74.27,89.32,77.29,91.34Z" transform="translate(49.07 -2.14)"/></g></g><g id="left_leg" data-name="left leg"><path id="foot_left" data-name="foot left" class="cls-9" d="M74.57,140.85s-.13,2-.33,3.52c-.17,1.26.39,2.49,1.17,2.55s1.08-1.23,1-2.43-.26-2-.39-3.49C76,140.13,74.57,140.85,74.57,140.85Z" transform="translate(49.07 -2.14)"/><path id="shin_left" data-name="shin left" class="cls-10" d="M67,101.21S65.54,112.66,65.76,117s8.38,24.21,8.38,24.21l2.31-.23c-1-33.65-.32-41.66-.32-41.66C75.84,96.51,67.66,95.92,67,101.21Z" transform="translate(49.07 -2.14)"/><g id="hip_left" data-name="hip left"><path class="cls-10" d="M51.8,88.83s-2.27,9.62-2,12.54c.19,2,2.39,5.06,3.27,6.13s20,2.28,21.47.67,1.8-8.06,1.49-9.17c-.67-2.35-18.63-7.48-18.63-7.48Z" transform="translate(49.07 -2.14)"/><g class="cls-12"><path class="cls-13" d="M51.8,88.83s-2.27,9.62-2,12.54c.19,2,2.39,5.06,3.27,6.13s20,2.28,21.47.67,1.8-8.06,1.49-9.17c-.67-2.35-18.63-7.48-18.63-7.48Z" transform="translate(49.07 -2.14)"/></g></g></g><g id="right_hand" data-name="right hand"><g id="wrist_right" data-name="wrist right"><path class="cls-14" d="M100.43,78.59s4,1.4,4.49,1.62c2.07.84,1.88,1.48,1.86,1.69,0,0,.7,1.08.57,1.25s-.41-.06-1.42-1.16c-.22-.24-.86-.83-1-.76s.51.55.88.91,1.14,1.82.65,2c-.32.12-.93-1.22-1.27-1.6s-1-.82-1.16-.73.59.85.71,1,.74,1.21.45,1.34-.68-.6-1.26-1.26a7.26,7.26,0,0,0-2.12-1.38c-.23,0,0,.58.28,1s.5,1.18.15,1.24-.89-1.3-1.59-2.21a4.12,4.12,0,0,1-.77-2.08S100.2,78.59,100.43,78.59Z" transform="translate(49.07 -2.14)"/><path class="cls-15" d="M102.41,83.67c-.35.06-.89-1.3-1.6-2.21a4.79,4.79,0,0,1-.81-2.19l-.1.29a4.12,4.12,0,0,0,.77,2.08c.7.91,1.24,2.27,1.59,2.21.1,0,.15-.09.17-.19Z" transform="translate(49.07 -2.14)"/></g><g id="shoulder_right" data-name="shoulder right"><path class="cls-16" d="M80.19,46.69c-5.5.67-6.33,33.69,2.29,33.81,8.37.12,7.26-9.31,4.67-18.37C84.89,54.22,81.7,46.51,80.19,46.69Z" transform="translate(49.07 -2.14)"/><path class="cls-17" d="M85.42,76c-3.22.16-6.61-21.6-6-28.95-4.8,3.45-5.16,33.39,3,33.5,4.08.06,6.1-2.24,6.8-5.65C88.18,75.83,87.45,75.85,85.42,76Z" transform="translate(49.07 -2.14)"/><path class="cls-18" d="M89.82,71.9c1.34,2.75-.41,6.37-3.91,8.09s-7.45.89-8.8-1.86S77.52,71.76,81,70,88.47,69.15,89.82,71.9Z" transform="translate(49.07 -2.14)"/></g><g id="forearm_right" data-name="forearm right"><path class="cls-14" d="M80.12,74c1.06-2.48,4.07-4,8.31-2.2a87.7,87.7,0,0,1,12,6.85L100,80s-11.1,2-15.79.62C81.06,79.68,78.81,77,80.12,74Z" transform="translate(49.07 -2.14)"/><path class="cls-15" d="M85.94,80c-3-.92-6.06-2.91-4.83-6.29.67-1.83,2.37-2.31,3.63-2.76a5,5,0,0,0-4.62,3c-1.31,3,.94,5.71,4.09,6.61C88.9,81.93,100,80,100,80l.07-.24C97.75,80.08,89.68,81.2,85.94,80Z" transform="translate(49.07 -2.14)"/></g></g><g id="body"><path class="cls-16" d="M42.74,50.52c2.14-2.92,20.82-10,20.82-10s16,4.17,17.84,7.21c.77,1.26,0,9.41-.23,13.43S79.34,72.44,79.3,76.6c0,4.6,1.29,14.22,1.29,15.27,0,.52-3.55,5-15.21,4.24-7.83-.5-15.07-5.39-15.13-6.69,0-.49,2.72-10.51,2.72-10.51l-8.33-15S41.94,51.7,42.74,50.52Z" transform="translate(49.07 -2.14)"/><path class="cls-17" d="M66.64,58.08s-.29,7.13-.66,10.35c0,0,3.35,6.33,3.9,6.39s2.27-5.09,2.27-5.09l-4.5-11Z" transform="translate(49.07 -2.14)"/><path class="cls-17" d="M55.62,90.53l.74-9s6.21,0,6.21-.87-5.83-1.49-5.83-1.49,2.85-.12,3-.87-3.35-1.12-3.35-1.12-6.94-11.34-6.2-16.92,9.18-15.88,9.18-15.88l-.61-1.94c-5.69,2.31-14.56,6.14-16,8.09-.8,1.18-.06,8.72,1.9,13.42s8.33,15,8.33,15-2.75,10-2.72,10.51c.06,1.3,7.3,6.19,15.13,6.69s11.86-1.28,13.8-2.7C67.42,98.27,55.62,90.53,55.62,90.53Z" transform="translate(49.07 -2.14)"/><path class="cls-19" d="M51.59,45.47c2.38,3.13,10,9.72,17.59,14.18A134.81,134.81,0,0,0,77,45a67.66,67.66,0,0,0-13.46-4.44A108.47,108.47,0,0,0,51.59,45.47Z" transform="translate(49.07 -2.14)"/><polygon class="cls-20" points="114.74 46.39 115.85 47.44 115.71 55.94 116.72 56.62 117.16 46.94 115.11 44.96 114.74 46.39"/><path class="cls-20" d="M55.6,43.63l8.76,8.74L67.63,47l-8-5C58.42,42.44,57.05,43,55.6,43.63Z" transform="translate(49.07 -2.14)"/><path class="cls-20" d="M74.22,43.85l-.14-.17c-1.16-.45-2.32-.86-3.43-1.22l-3,4.52,4.72,4.54Z" transform="translate(49.07 -2.14)"/><path class="cls-20" d="M55.5,49.52a74.09,74.09,0,0,1,5.66-5.12l-4.82-1.09-4.75,2.16A50.87,50.87,0,0,0,55.5,49.52Z" transform="translate(49.07 -2.14)"/><path class="cls-21" d="M70.52,73.28c.48,0,2.3-5.47,2.3-5.47s-2-12.34-4.18-18.65c-.19-.79-1.45-1.07-1.43.09a116.77,116.77,0,0,1,0,19S70,73.29,70.52,73.28Z" transform="translate(49.07 -2.14)"/><polygon class="cls-21" points="114.05 43.96 118.82 43.7 117.71 47.02 116.28 47.11 114.47 45.36 114.05 43.96"/><path class="cls-22" d="M70.42,72.07a27.7,27.7,0,0,1-2.15-3.64c.62-4.71-.49-18.73-.49-18.73l.86-.54-1-.16L67,48.13l1.14-2.2-2.35.13-.4,1.23.06.21,1.81,1.75a116.77,116.77,0,0,1,0,19s2.84,5.06,3.32,5,2.3-5.47,2.3-5.47S70.67,72.07,70.42,72.07Z" transform="translate(49.07 -2.14)"/><polygon class="cls-23" points="121.2 40.86 116.7 43.77 106.47 41.64 107.28 33.06 119.56 33.09 121.2 40.86"/><polygon class="cls-24" points="104.42 40.19 106.4 37.37 116.7 43.77 113.43 49.17 104.42 40.19"/><polygon class="cls-24" points="116.75 43.78 121.47 48.33 123.29 40.66 120.8 37.6 116.75 43.78"/></g><g id="head_smile"><path class="cls-25" d="M74.45,17.05c-.71,2.07-2.29,3.41-3.52,3s-1.65-2.45-.93-4.52,2.29-3.41,3.52-3S75.17,15,74.45,17.05Z" transform="translate(49.07 -2.14)"/><path class="cls-25" d="M55.87,8.44s-.49-2.75,2-3.57c1.91-.64,10.92.61,12.9,0S72.6,3,72.6,3s3.26,2.94,2.1,8.6a8.46,8.46,0,0,1-6.42,6.61L57,13.41Z" transform="translate(49.07 -2.14)"/><path class="cls-25" d="M60.37,22.28c.24,6.78-.48,10-2.95,10.37-3.07.44-7.37-14.45-6-20.17a5.52,5.52,0,0,1,5.72-4.09C59.62,8.65,60.14,15.51,60.37,22.28Z" transform="translate(49.07 -2.14)"/><path class="cls-15" d="M58.33,28.07a2.75,2.75,0,1,1-2.55-2.95A2.74,2.74,0,0,1,58.33,28.07Z" transform="translate(49.07 -2.14)"/><path class="cls-14" d="M73.61,19.69c0,8.35,2,11.9,1.5,14.15-1,4.38-5.7,7.94-8.3,8.4-2.26.39-10.26-3.63-11-8.24s-.64-18.08,4.48-20.59C69.41,9,74.11,15.24,73.61,19.69Z" transform="translate(49.07 -2.14)"/><path class="cls-25" d="M59,21.47a54.12,54.12,0,0,1,5.61-2.26L64.16,18a12,12,0,0,0-5.4,3Z" transform="translate(49.07 -2.14)"/><path class="cls-25" d="M74,22a25.89,25.89,0,0,0-4-2.41l.62-1.13a8.89,8.89,0,0,1,3.76,3Z" transform="translate(49.07 -2.14)"/><path class="cls-15" d="M58.61,35.29c-1-2.55-3-21.84,7.49-23.39a13.28,13.28,0,0,0-5.77,1.51C55.21,15.92,55.17,29.52,55.85,34s8.83,8.73,11,8.24a5.22,5.22,0,0,0,2.66-1.13,5.84,5.84,0,0,1-4.06.55C61.52,40.52,59.07,36.54,58.61,35.29Z" transform="translate(49.07 -2.14)"/><path class="cls-23" d="M68.21,21.86a3.65,3.65,0,0,0-1.1,2.26c-.2,2.55,3.12,4.62,2.78,5.8-.18.64-3.37.95-3.42,1.19s4.1.27,4.3-.94-3.39-4.1-3.19-6.75A2.85,2.85,0,0,1,68.21,21.86Z" transform="translate(49.07 -2.14)"/><path class="cls-23" d="M54.79,27.89a1.07,1.07,0,0,1,1.14-1l.23.05a1.2,1.2,0,0,0-2,.83,1.21,1.21,0,0,0,1.12,1.3,1.27,1.27,0,0,0,.48-.06A1.07,1.07,0,0,1,54.79,27.89Z" transform="translate(49.07 -2.14)"/><path class="cls-25" d="M66.8,11.82c-9.24-.61-9.79,8.75-10,16.17l-.91-.24C52.2,15.69,55.55,6.79,66.8,11.82Z" transform="translate(49.07 -2.14)"/><path class="cls-26" d="M58.41,5.26A1.3,1.3,0,0,0,57.53,7c.43,1.35,5.5,3.25,9,3.25,4,0,8.24-2.67,6-7.22,0,0,.49,1.41-1.7,2.2C68.39,6.12,60.5,4.52,58.41,5.26Z" transform="translate(49.07 -2.14)"/><path class="cls-26" d="M52.12,11.82s1.12-2.88,3.43-2.44,2.23,2.89,1.71,3.93-2.83,5.9-4.15,5.84S51.07,15,52.12,11.82Z" transform="translate(49.07 -2.14)"/><path class="cls-27" d="M55.87,8.44a33,33,0,0,0,6,4.32l-.47.28S57.38,10.56,55.87,8.44Z" transform="translate(49.07 -2.14)"/><path class="cls-27" d="M72.6,3l.14.21C72.66,3.09,72.6,3,72.6,3Z" transform="translate(49.07 -2.14)"/><path class="cls-27" d="M69.29,12.51l0,0s7-3.87,3.41-9.31c.62,1,2.8,5.51-4,9.1l.1,0Z" transform="translate(49.07 -2.14)"/><path class="cls-27" d="M74,5a6.77,6.77,0,0,1-3.41,8.21l.28.21S76.2,10.81,74,5Z" transform="translate(49.07 -2.14)"/><polygon class="cls-27" points="106.44 18.58 100.85 18.76 100.92 19.1 106.37 18.98 106.44 18.58"/><polygon class="cls-27" points="106.25 19.84 101.13 20.07 101.21 20.42 106.18 20.42 106.25 19.84"/><path class="cls-15" d="M68.89,37.89c0,.42-.89.69-1.92.62s-1.85-.48-1.82-.89.89-.7,1.92-.62S68.92,37.47,68.89,37.89Z" transform="translate(49.07 -2.14)"/><path class="cls-28" d="M60.82,25.18a2.44,2.44,0,0,0,2.41,1.27c1.21-.24,1.28-2.42,1.28-2.42S62.71,23.09,60.82,25.18Z" transform="translate(49.07 -2.14)"/><path class="cls-25" d="M64.24,25.51a1.1,1.1,0,1,1-2.16-.42,1.1,1.1,0,1,1,2.16.42Z" transform="translate(49.07 -2.14)"/><path class="cls-29" d="M60.62,25.39a6.45,6.45,0,0,1,4-1.3l.2-.73a5.52,5.52,0,0,0-4.38,1.81Z" transform="translate(49.07 -2.14)"/><path class="cls-28" d="M69.39,25.32a2.21,2.21,0,0,0,2.22,1.18c1.52-.34.86-2.36.86-2.36S71.13,23.39,69.39,25.32Z" transform="translate(49.07 -2.14)"/><path class="cls-25" d="M72.56,25.64a1,1,0,1,1-.8-1.28A1.08,1.08,0,0,1,72.56,25.64Z" transform="translate(49.07 -2.14)"/><path class="cls-29" d="M69.2,25.52a5.94,5.94,0,0,1,3.73-1.21l.19-.67a5.11,5.11,0,0,0-4.05,1.67Z" transform="translate(49.07 -2.14)"/><path class="cls-30" d="M63.08,33c.38-.43,7.86-.19,8.06.24S69.92,36.11,67,36C63.53,35.84,62.81,33.28,63.08,33Z" transform="translate(49.07 -2.14)"/><path class="cls-31" d="M63.08,33c.38-.43,7.86-.19,8.06.24S69.92,36.11,67,36C63.53,35.84,62.81,33.28,63.08,33Z" transform="translate(49.07 -2.14)"/><path class="cls-19" d="M63.47,33.27c.13-.43,6.37-.2,6.54.19,0,0-.88,2.54-3.29,2.25S63.34,33.69,63.47,33.27Z" transform="translate(49.07 -2.14)"/><path class="cls-32" d="M64.66,33.06c-.68,0-1.16.09-1.19.21-.09.28.26,1.17,1.27,1.8A18.46,18.46,0,0,1,64.66,33.06Z" transform="translate(49.07 -2.14)"/><path class="cls-29" d="M63.74,34.17s2.11,0,2.12.08a12.52,12.52,0,0,1-1.88.2A1.45,1.45,0,0,1,63.74,34.17Z" transform="translate(49.07 -2.14)"/></g><g id="table"><rect class="cls-33" x="88.24" y="87.31" width="2.22" height="65.01"/><rect class="cls-34" x="183.66" y="87.31" width="2.22" height="65.01"/><rect class="cls-33" x="115.76" y="87.31" width="1.32" height="65.01"/><rect class="cls-34" x="117.09" y="87.31" width="1.32" height="65.01"/><rect class="cls-33" x="88.24" y="87.5" width="28.85" height="6.48"/><rect class="cls-35" x="156.95" y="87.31" width="2.22" height="65.01"/><rect class="cls-34" x="117.09" y="87.5" width="68.8" height="6.48"/><rect class="cls-36" x="84.27" y="85.27" width="33.64" height="4.25"/><rect class="cls-37" x="117.04" y="85.27" width="73.3" height="4.25"/><rect class="cls-38" x="84.27" y="85.27" width="106.08" height="0.88"/></g><g id="laptop"><polygon class="cls-39" points="167.89 82.7 131.53 82.67 139.21 54.48 175.56 54.52 167.89 82.7"/><rect class="cls-40" x="116.95" y="83.09" width="50.74" height="2.19"/><polygon class="cls-40" points="167.91 82.67 132.4 82.67 139.92 55.04 175.43 55.04 167.91 82.67"/><ellipse class="cls-39" cx="105.55" cy="70.69" rx="3.02" ry="2.17" transform="translate(27.67 63.96) rotate(-31.74)"/><polygon class="cls-41" points="132.4 82.67 139.92 55.04 175.43 55.04 132.4 82.67"/><rect class="cls-39" x="116.95" y="83.09" width="14.48" height="2.19"/><rect class="cls-39" x="136" y="82.67" width="6.66" height="0.96"/><rect class="cls-39" x="159.77" y="82.67" width="5.7" height="0.96"/><polygon class="cls-42" points="140.15 55.39 175.34 55.39 175.43 55.04 139.92 55.04 132.4 82.67 132.73 82.67 140.15 55.39"/></g><g id="left_hand_with_cup" data-name="left hand with cup"><g id="shoulder_left" data-name="shoulder left"><path class="cls-17" d="M48.92,47.67c-4.7-2.3-26,21-19.63,26.4C40.63,83.62,53.63,50,48.92,47.67Z" transform="translate(49.07 -2.14)"/><path class="cls-43" d="M40.87,67.12c1.61,2.93-.12,7-3.86,9s-8.08,1.34-9.69-1.59.13-7,3.87-9S39.26,64.19,40.87,67.12Z" transform="translate(49.07 -2.14)"/></g><g id="forearm_left" data-name="forearm left"><path class="cls-14" d="M27.89,73.39c-.85-2.72,1.33-6.79,7.27-8.72,7.12-2.31,18.16-3.28,18.16-3.28l.23,1.3s-9.95,10-16,12.6C33.47,77.05,28.93,76.76,27.89,73.39Z" transform="translate(49.07 -2.14)"/><path class="cls-15" d="M38.72,74c-3.83,1.71-8.06,1.49-9-1.66-.67-2.27.91-5.58,5.22-7.61-5.77,2-7.89,6-7,8.65,1,3.37,5.58,3.66,9.65,1.9,6.06-2.63,16-12.6,16-12.6l0-.23C51.76,64.18,43.77,71.76,38.72,74Z" transform="translate(49.07 -2.14)"/></g><g id="wrist_left_cup" data-name="wrist left cup"><path class="cls-44" d="M58.3,64.51a2.31,2.31,0,0,1-.46,0,2.06,2.06,0,0,1,0-4.1,2.31,2.31,0,0,1,.46,0v-.86a3.07,3.07,0,0,0-.53,0,2.93,2.93,0,0,0,0,5.82,3.07,3.07,0,0,0,.53,0Z" transform="translate(49.07 -2.14)"/><path class="cls-45" d="M55.17,62.39s0,.08,0,.12a2.61,2.61,0,0,0,2.61,2.91,3.07,3.07,0,0,0,.53,0v-.23a3.07,3.07,0,0,1-.53,0A2.59,2.59,0,0,1,55.17,62.39Z" transform="translate(49.07 -2.14)"/><path class="cls-45" d="M56,62.28a.37.37,0,0,0,0,.11,1.81,1.81,0,0,1,1.83-1.93,2.31,2.31,0,0,1,.46,0v-.23a1.75,1.75,0,0,0-.46-.05A1.84,1.84,0,0,0,56,62.28Z" transform="translate(49.07 -2.14)"/><rect class="cls-44" x="107.19" y="55.92" width="6.63" height="8.91"/><rect class="cls-46" x="110.42" y="55.92" width="3.4" height="8.91"/><rect class="cls-45" x="111.51" y="55.92" width="1.8" height="8.91"/><rect class="cls-47" x="107.19" y="55.92" width="6.63" height="0.39"/><path class="cls-47" d="M58.59,58.29h2.23S59.94,63,59.5,63,58.59,58.29,58.59,58.29Z" transform="translate(49.07 -2.14)"/><path class="cls-47" d="M59,66.68h1.26s-.48-1.59-.76-1.59S59,66.68,59,66.68Z" transform="translate(49.07 -2.14)"/><rect class="cls-45" x="107.19" y="64.62" width="6.63" height="0.2"/><path class="cls-48" d="M61.14,57.59A3.49,3.49,0,0,0,61,56c-.58-1.39-1.53-2.07-.12-2.81s1.72-1.18,1.6-1.45-1.37-.55-1.52-.82.78-1,.86-1.53A10.48,10.48,0,0,0,61.92,47a11.89,11.89,0,0,1,.43,2.42c-.07.51-.19,1.18-.19,1.18s1.29.7,1.41,1.13.39,1.68.19,2-2.27,1.22-2.34,1.61a6.35,6.35,0,0,0,.19,1.33A3.22,3.22,0,0,1,61.14,57.59Z" transform="translate(49.07 -2.14)"/><path class="cls-14" d="M57.58,60.73a19.45,19.45,0,0,0-4.33.68c-.82.81.23,1.36.23,1.36s2.62,1.73,3.33,1.68c0,0,.59.09.49-.63v0a.62.62,0,0,0,.29-.93v0a.78.78,0,0,0,.2-1.16v-.08C57.91,61.41,58.2,60.79,57.58,60.73Z" transform="translate(49.07 -2.14)"/><path class="cls-15" d="M57.63,60.74c.23.19,0,.6,0,.73v.08a.76.76,0,0,1-.19,1.12h0a.6.6,0,0,1-.28.9v0c.1.7-.47.61-.47.61-.65,0-3.38-1.76-3.69-2.15,0,.39.54.7.54.7s2.62,1.73,3.33,1.68c0,0,.59.09.49-.63v0a.62.62,0,0,0,.29-.93v0a.78.78,0,0,0,.2-1.16v-.08C57.91,61.41,58.19,60.83,57.63,60.74Z" transform="translate(49.07 -2.14)"/></g></g></g><path class="cls-49" d="M129.35,84.83l-1.65.49s-.38-.52-.33-.7a4.37,4.37,0,0,1,1.86-.62C129.39,84.11,129.35,84.83,129.35,84.83Z" transform="translate(49.07 -2.14)"/><path class="cls-50" d="M122.31,87.38h15.14s-.42-2.67-4.08-3.07C131.12,84.06,127.65,84.74,122.31,87.38Z" transform="translate(49.07 -2.14)"/><path class="cls-50" d="M132.51,84.54l.12-.42c.09-.28.2-.7.36-1.22.28-1.06.68-2.58,1.07-4.43.2-.92.39-1.93.57-3s.36-2.19.5-3.36.25-2.38.32-3.61a33,33,0,0,0,0-3.72,17.28,17.28,0,0,0-.54-3.63,6.63,6.63,0,0,0-1.58-3,3.47,3.47,0,0,0-1.29-.81l-.36-.1-.36-.06-.21,0h-.55a5.05,5.05,0,0,0-2.61,1,6.45,6.45,0,0,0-1.64,1.72,7.51,7.51,0,0,0-.8,1.66,9,9,0,0,0-.31,1.15l-.07.42-2.26-.77.24-.44c.17-.28.4-.7.73-1.2A13.86,13.86,0,0,1,125.17,59a9.68,9.68,0,0,1,2.18-1.76,7.07,7.07,0,0,1,3.15-1,3.38,3.38,0,0,1,.45,0h.24l.21,0,.47.08.46.12a4.45,4.45,0,0,1,1.66,1,7.56,7.56,0,0,1,1.87,3.4,20,20,0,0,1,.67,3.83,38,38,0,0,1,.12,3.84c0,1.26-.07,2.5-.16,3.7s-.18,2.35-.3,3.45-.25,2.12-.38,3.07c-.25,1.9-.5,3.49-.68,4.59-.09.56-.17,1-.22,1.29l-.08.47Z" transform="translate(49.07 -2.14)"/><polygon class="cls-50" points="168.85 64.55 171.64 59.94 174.62 60.8 175.61 65.6 168.85 64.55"/><path class="cls-50" d="M119.78,66.69s-3.6,2.2-4.48,5.32l13.83,1.6s-.5-3.93-2.59-5.87C126.54,67.74,121.2,65.63,119.78,66.69Z" transform="translate(49.07 -2.14)"/><path class="cls-51" d="M116.25,71.43s3.17-5.28,6.67-4.8,3.41,6,3.41,6Z" transform="translate(49.07 -2.14)"/><path class="cls-51" d="M120.62,66.42l2.18-3.6,1.39.39.39,3.62A3.92,3.92,0,0,0,120.62,66.42Z" transform="translate(49.07 -2.14)"/><path class="cls-51" d="M123.18,62.25l1.07.31s1.91-4.69,4.46-5.77C128.71,56.79,125.34,57.62,123.18,62.25Z" transform="translate(49.07 -2.14)"/><path class="cls-51" d="M131.7,84.29a25.37,25.37,0,0,0-8.92,2.79,11,11,0,0,0,4.17-.17C129.66,86.35,131.72,85.2,131.7,84.29Z" transform="translate(49.07 -2.14)"/><polygon class="cls-52" points="169.78 23.63 163.1 23.63 161.8 2.77 168.56 0.95 169.78 23.63"/><polygon class="cls-49" points="176.11 23.72 171.16 23.72 169.78 0 176.8 0.52 176.11 23.72"/><polygon class="cls-16" points="182.43 8.15 177.57 6.99 176.97 23.63 181.6 23.63 182.43 8.15"/><polygon class="cls-53" points="202.42 8.15 197.56 6.99 196.96 23.63 201.59 23.63 202.42 8.15"/><polygon class="cls-54" points="194.56 23.72 189.71 23.72 189.79 5.01 195.13 3.85 194.56 23.72"/><path class="cls-55" d="M117.66,8.09a1.78,1.78,0,0,1,.19,2.47,1.78,1.78,0,0,1-2.46-.39,1.79,1.79,0,0,1-.19-2.48A1.79,1.79,0,0,1,117.66,8.09Z" transform="translate(49.07 -2.14)"/><path class="cls-56" d="M117.37,8.26a1.41,1.41,0,0,1,.14,2,1.4,1.4,0,0,1-1.92-.31A1.4,1.4,0,0,1,115.44,8,1.41,1.41,0,0,1,117.37,8.26Z" transform="translate(49.07 -2.14)"/><path class="cls-57" d="M125.46,21.41a1.51,1.51,0,0,1,.16,2.1,1.52,1.52,0,0,1-2.09-.33,1.52,1.52,0,0,1-.16-2.11A1.52,1.52,0,0,1,125.46,21.41Z" transform="translate(49.07 -2.14)"/><path class="cls-58" d="M125.21,21.56A1.05,1.05,0,1,1,123.7,23a1.06,1.06,0,1,1,1.51-1.39Z" transform="translate(49.07 -2.14)"/><path class="cls-59" d="M151.68,11.79a1.52,1.52,0,0,1,.16,2.11,1.52,1.52,0,0,1-2.09-.33,1.52,1.52,0,0,1-.16-2.11A1.52,1.52,0,0,1,151.68,11.79Z" transform="translate(49.07 -2.14)"/><path class="cls-60" d="M151.43,11.94a1.2,1.2,0,0,1,.12,1.66,1.19,1.19,0,0,1-1.63-.26,1.19,1.19,0,0,1-.13-1.66A1.19,1.19,0,0,1,151.43,11.94Z" transform="translate(49.07 -2.14)"/><polygon class="cls-55" points="167.84 21 164.74 21 164.19 10.34 167.28 10.34 167.84 21"/><polygon class="cls-57" points="175.02 16.59 172.23 16.57 171.53 3.85 175.39 4.05 175.02 16.59"/><polygon class="cls-61" points="180.91 11.47 178.8 11.13 178.28 21.3 180.41 21.3 180.91 11.47"/><polygon class="cls-61" points="182.32 10.26 177.49 9.34 177.47 9.83 182.29 10.74 182.32 10.26"/><polygon class="cls-61" points="182.37 9.24 177.52 8.32 177.5 8.8 182.35 9.72 182.37 9.24"/><polygon class="cls-59" points="201.06 13.52 198.46 13.3 198.31 22.18 200.46 22.18 201.06 13.52"/><polygon class="cls-62" points="193.34 22.18 190.95 22.18 191.01 6.84 193.75 6.46 193.34 22.18"/><polygon class="cls-54" points="194.19 12.18 190.27 12.46 190.27 11.13 194.19 10.84 194.19 12.18"/><polygon class="cls-54" points="194.19 17.89 190.27 18.18 190.27 16.84 194.19 16.56 194.19 17.89"/><path class="cls-63" d="M101,4a1.93,1.93,0,0,1,.22,2.67,1.94,1.94,0,0,1-2.63-.52,1.94,1.94,0,0,1-.22-2.68A1.93,1.93,0,0,1,101,4Z" transform="translate(49.07 -2.14)"/><path class="cls-63" d="M165.49,4a1.93,1.93,0,0,1,.21,2.67,1.94,1.94,0,0,1-2.63-.52,1.94,1.94,0,0,1-.21-2.68A1.93,1.93,0,0,1,165.49,4Z" transform="translate(49.07 -2.14)"/><polygon class="cls-63" points="148.58 23.96 147.91 23.96 148.48 2.9 149.15 2.9 148.58 23.96"/><polygon class="cls-63" points="214.18 23.96 213.51 23.96 213.02 2.9 213.69 2.9 214.18 23.96"/><rect class="cls-64" x="144.54" y="23.57" width="72.58" height="2.98"/><rect class="cls-65" x="144.54" y="25.56" width="72.58" height="1"/><g class="cls-66"><polygon class="cls-67" points="162.07 23.57 159.09 26.56 169.32 26.56 172.31 23.57 162.07 23.57"/><polygon class="cls-67" points="174.78 23.57 171.79 26.56 174.68 26.56 177.66 23.57 174.78 23.57"/><polygon class="cls-67" points="196.15 23.57 193.16 26.56 197.51 26.56 200.5 23.57 196.15 23.57"/><polygon class="cls-67" points="202.25 23.57 199.27 26.56 200.56 26.56 203.54 23.57 202.25 23.57"/></g><polygon class="cls-68" points="144.54 26.56 152.99 30.45 215.88 33 217.11 26.56 144.54 26.56"/><path class="cls-69" d="M21.9,109.92H19.39a122.85,122.85,0,0,1,.8,13.86c0,13.77-2.93,18.53-2.93,18.53,1.46,2,3.32,2.09,7.13.89,0,0-2.81-5.33-2.81-19.5C21.58,115,21.9,109.92,21.9,109.92Z" transform="translate(49.07 -2.14)"/><path class="cls-70" d="M21.6,120.18c-.49.11-1,.2-1.46.28a1.62,1.62,0,0,0,0,.22c.46-.08,1-.17,1.45-.28Z" transform="translate(49.07 -2.14)"/><path class="cls-70" d="M23.23,139.77A35.59,35.59,0,0,1,18.78,138l-.06.21A35.05,35.05,0,0,0,23.29,140Z" transform="translate(49.07 -2.14)"/><path class="cls-70" d="M21.66,116.27c-.57.23-1.15.44-1.67.62a1.62,1.62,0,0,0,0,.22c.52-.18,1.08-.39,1.66-.61Z" transform="translate(49.07 -2.14)"/><path class="cls-70" d="M21.58,122c-.45-.08-.94-.17-1.41-.29V122c.48.12,1,.21,1.41.29Z" transform="translate(49.07 -2.14)"/><path class="cls-70" d="M23.66,141.27a1.59,1.59,0,0,1-.07-.2,20.27,20.27,0,0,1-5.8.09l-.08.21a27.71,27.71,0,0,0,3,.17A14.59,14.59,0,0,0,23.66,141.27Z" transform="translate(49.07 -2.14)"/><path class="cls-70" d="M21.61,119c-.5-.13-1-.27-1.54-.43a1.77,1.77,0,0,0,0,.23c.51.15,1,.3,1.53.42Z" transform="translate(49.07 -2.14)"/><path class="cls-70" d="M21.58,123.74c-.48.19-.95.35-1.39.5,0,.07,0,.14,0,.22.45-.14.92-.31,1.4-.5Z" transform="translate(49.07 -2.14)"/><path class="cls-70" d="M21.92,131.73a20,20,0,0,1-2.18.69l0,.23a19.34,19.34,0,0,0,2.23-.7A1.8,1.8,0,0,0,21.92,131.73Z" transform="translate(49.07 -2.14)"/><path class="cls-70" d="M21.83,130.61c-.56-.09-1.2-.21-1.88-.39,0,.07,0,.15,0,.22.69.18,1.35.3,1.91.39C21.84,130.76,21.83,130.68,21.83,130.61Z" transform="translate(49.07 -2.14)"/><path class="cls-70" d="M21.78,112.59c-.69.28-1.41.52-2.05.71,0,.07,0,.14,0,.22.62-.19,1.33-.42,2-.7Z" transform="translate(49.07 -2.14)"/><path class="cls-70" d="M21.7,114.82c-.62-.06-1.27-.15-1.87-.27,0,.07,0,.14,0,.22.59.12,1.24.21,1.84.27A1.7,1.7,0,0,0,21.7,114.82Z" transform="translate(49.07 -2.14)"/><path class="cls-70" d="M22.53,136.48A23.08,23.08,0,0,1,19,137c0,.07,0,.14-.05.22a23.63,23.63,0,0,0,3.61-.51A1.55,1.55,0,0,0,22.53,136.48Z" transform="translate(49.07 -2.14)"/><path class="cls-70" d="M21.83,111.27c-.74-.11-1.58-.25-2.34-.44l0,.22c.75.19,1.58.33,2.3.44Z" transform="translate(49.07 -2.14)"/><path class="cls-70" d="M21.64,127c-.47-.21-1-.46-1.49-.75v.24c.52.29,1,.54,1.49.74Z" transform="translate(49.07 -2.14)"/><path class="cls-70" d="M22.27,134.75c-.89-.35-1.86-.74-2.68-1.12l0,.22c.85.39,1.84.8,2.74,1.15Z" transform="translate(49.07 -2.14)"/><path class="cls-70" d="M21.71,128.82a16.4,16.4,0,0,1-1.7.48,1.62,1.62,0,0,1,0,.22c.53-.12,1.13-.28,1.73-.48C21.72,129,21.72,128.9,21.71,128.82Z" transform="translate(49.07 -2.14)"/><path class="cls-71" d="M6.11,85.43s.06,5.87,5.23,5.34C11.34,90.77,12.3,85.9,6.11,85.43Z" transform="translate(49.07 -2.14)"/><path class="cls-71" d="M28.49,87.32s-5-3.15-7.34,1.46C21.15,88.78,24.71,92.25,28.49,87.32Z" transform="translate(49.07 -2.14)"/><path class="cls-71" d="M37.34,100.82s-1.54-4.23-5.14-2.54C32.2,98.28,32.75,102.05,37.34,100.82Z" transform="translate(49.07 -2.14)"/><path class="cls-71" d="M15.53,93.24s.06,5.87,5.23,5.35C20.76,98.59,21.72,93.71,15.53,93.24Z" transform="translate(49.07 -2.14)"/><path class="cls-71" d="M24.79,102.77s.07,5.87,5.23,5.34C30,108.11,31,103.24,24.79,102.77Z" transform="translate(49.07 -2.14)"/><path class="cls-71" d="M24.58,80.6s-5.17,2.79-2.3,7.11C22.28,87.71,27,86.29,24.58,80.6Z" transform="translate(49.07 -2.14)"/><path class="cls-71" d="M9.7,82.3s-1.13,3.11,1.69,3.77C11.39,86.07,12.71,83.9,9.7,82.3Z" transform="translate(49.07 -2.14)"/><path class="cls-71" d="M20.8,77.21s-2.39,2.3-.14,4.12C20.66,81.33,22.8,80,20.8,77.21Z" transform="translate(49.07 -2.14)"/><path class="cls-71" d="M11.34,90.77s-1.7-2-5.95,0C5.39,90.81,9.77,93.59,11.34,90.77Z" transform="translate(49.07 -2.14)"/><path class="cls-71" d="M18.21,103.68s-1.5,2.12,1.44,5.77C19.65,109.45,21.31,104.54,18.21,103.68Z" transform="translate(49.07 -2.14)"/><path class="cls-71" d="M22.52,108.82s-.42,2.56,3.83,4.56C26.35,113.38,25.69,108.23,22.52,108.82Z" transform="translate(49.07 -2.14)"/><path class="cls-71" d="M12.51,106.71s-2.46.8-2.28,5.49C10.23,112.2,14.49,109.24,12.51,106.71Z" transform="translate(49.07 -2.14)"/><path class="cls-71" d="M9,102.48s-2.59,0-3.94,4.45C5.05,106.93,10,105.52,9,102.48Z" transform="translate(49.07 -2.14)"/><path class="cls-71" d="M15.53,93.45s2.19,1.38,5.69-1.75C21.22,91.7,16.22,90.3,15.53,93.45Z" transform="translate(49.07 -2.14)"/><path class="cls-71" d="M27.7,84.43s2.52.63,4.85-3.45C32.55,81,27.37,81.23,27.7,84.43Z" transform="translate(49.07 -2.14)"/><path class="cls-71" d="M5.39,91.76a3.1,3.1,0,0,0-3,.91S4.67,93.45,5.39,91.76Z" transform="translate(49.07 -2.14)"/><path class="cls-71" d="M34.66,89.88a3.09,3.09,0,0,0,3.11-.48S35.61,88.3,34.66,89.88Z" transform="translate(49.07 -2.14)"/><path class="cls-71" d="M10.36,95S7,92.48,2.91,96.82C2.91,96.82,8.46,99.23,10.36,95Z" transform="translate(49.07 -2.14)"/><path class="cls-71" d="M6.63,98.1s-1.7-.72-3.27,1.43C3.36,99.53,5.78,99.8,6.63,98.1Z" transform="translate(49.07 -2.14)"/><path class="cls-71" d="M11.4,108.78s-1.7-.72-3.26,1.44C8.14,110.22,10.55,110.48,11.4,108.78Z" transform="translate(49.07 -2.14)"/><path class="cls-71" d="M12.32,93.26s-1-2.19-5.08-.41C7.24,92.85,10.42,95.35,12.32,93.26Z" transform="translate(49.07 -2.14)"/><path class="cls-71" d="M17,109.31s-2.14,1.11-.14,5.09C16.84,114.4,19.17,111.09,17,109.31Z" transform="translate(49.07 -2.14)"/><path class="cls-71" d="M27.57,91s1.19,2.09,5.09,0C32.66,91,29.27,88.77,27.57,91Z" transform="translate(49.07 -2.14)"/><path class="cls-71" d="M17.58,93.8s1.2,2.09,5.1,0C22.68,93.76,19.28,91.55,17.58,93.8Z" transform="translate(49.07 -2.14)"/><path class="cls-71" d="M29.75,90.11s2.14,1.1,4.24-2.82C34,87.29,29.94,87.29,29.75,90.11Z" transform="translate(49.07 -2.14)"/><path class="cls-71" d="M19.05,89.6s2.28-.8.88-5C19.93,84.58,17.14,87.52,19.05,89.6Z" transform="translate(49.07 -2.14)"/><path class="cls-71" d="M15.21,94.49s-2.1-1.18-4.35,2.65C10.86,97.14,14.91,97.3,15.21,94.49Z" transform="translate(49.07 -2.14)"/><path class="cls-71" d="M22.62,108.75s-1.7,1.71,1.41,4.89C24,113.64,25.25,109.78,22.62,108.75Z" transform="translate(49.07 -2.14)"/><path class="cls-71" d="M26.11,97.12s-.53,2.35,3.79,3.4C29.9,100.52,28.89,96.6,26.11,97.12Z" transform="translate(49.07 -2.14)"/><path class="cls-71" d="M21.94,98.53s-.53,2.35,3.79,3.4C25.73,101.93,24.72,98,21.94,98.53Z" transform="translate(49.07 -2.14)"/><path class="cls-71" d="M17.07,99s-2.38-.35-3.1,4C14,103,17.8,101.71,17.07,99Z" transform="translate(49.07 -2.14)"/><path class="cls-71" d="M21.61,102.5s-1.24,2.07,2.55,4.41C24.16,106.91,24.41,102.87,21.61,102.5Z" transform="translate(49.07 -2.14)"/><path class="cls-71" d="M30.32,103.82s-.53,2.35,3.79,3.4C34.11,107.22,33.09,103.3,30.32,103.82Z" transform="translate(49.07 -2.14)"/><path class="cls-71" d="M31.45,96.15s1.37,2,5.07-.47C36.52,95.68,33,93.76,31.45,96.15Z" transform="translate(49.07 -2.14)"/><path class="cls-71" d="M33.68,92.94s1,2.21,5.07.53C38.75,93.47,35.63,90.89,33.68,92.94Z" transform="translate(49.07 -2.14)"/><path class="cls-71" d="M12.84,90.25s-1.5-2.13,1.31-4.82C14.15,85.43,15.39,89.27,12.84,90.25Z" transform="translate(49.07 -2.14)"/><path class="cls-71" d="M15.2,86.45s-.69-1.69,1.71-2.54A2,2,0,0,1,15.2,86.45Z" transform="translate(49.07 -2.14)"/><path class="cls-71" d="M26.7,83.8s-1.25-1.33.67-3A2,2,0,0,1,26.7,83.8Z" transform="translate(49.07 -2.14)"/><path class="cls-71" d="M12.51,98.52s-5,3.18-1.51,7C11,105.5,14.24,103.82,12.51,98.52Z" transform="translate(49.07 -2.14)"/><path class="cls-71" d="M5,103.34s5.72,1.44,6.1-3.69C11.13,99.65,7.69,98.45,5,103.34Z" transform="translate(49.07 -2.14)"/><path class="cls-71" d="M17.22,103.68s-5.3,2.59-2.28,6.76C14.94,110.44,18.35,109.14,17.22,103.68Z" transform="translate(49.07 -2.14)"/><path class="cls-71" d="M23.83,94.63s2.81-3.62,8-.37C31.87,94.26,26.18,98.29,23.83,94.63Z" transform="translate(49.07 -2.14)"/><path class="cls-71" d="M6.11,85.43s.06,5.87,5.23,5.34C11.34,90.77,12.3,85.9,6.11,85.43Z" transform="translate(49.07 -2.14)"/><path class="cls-71" d="M28.49,87.32s-5-3.15-7.34,1.46C21.15,88.78,24.71,92.25,28.49,87.32Z" transform="translate(49.07 -2.14)"/><path class="cls-71" d="M37.34,100.82s-1.54-4.23-5.14-2.54C32.2,98.28,32.75,102.05,37.34,100.82Z" transform="translate(49.07 -2.14)"/><path class="cls-71" d="M15.53,93.24s.06,5.87,5.23,5.35C20.76,98.59,21.72,93.71,15.53,93.24Z" transform="translate(49.07 -2.14)"/><path class="cls-71" d="M24.79,102.77s.07,5.87,5.23,5.34C30,108.11,31,103.24,24.79,102.77Z" transform="translate(49.07 -2.14)"/><path class="cls-71" d="M24.58,80.6s-5.17,2.79-2.3,7.11C22.28,87.71,27,86.29,24.58,80.6Z" transform="translate(49.07 -2.14)"/><path class="cls-71" d="M9.7,82.3s-1.13,3.11,1.69,3.77C11.39,86.07,12.71,83.9,9.7,82.3Z" transform="translate(49.07 -2.14)"/><path class="cls-71" d="M20.8,77.21s-2.39,2.3-.14,4.12C20.66,81.33,22.8,80,20.8,77.21Z" transform="translate(49.07 -2.14)"/><path class="cls-71" d="M11.34,90.77s-1.7-2-5.95,0C5.39,90.81,9.77,93.59,11.34,90.77Z" transform="translate(49.07 -2.14)"/><path class="cls-71" d="M18.21,103.68s-1.5,2.12,1.44,5.77C19.65,109.45,21.31,104.54,18.21,103.68Z" transform="translate(49.07 -2.14)"/><path class="cls-71" d="M22.52,108.82s-.42,2.56,3.83,4.56C26.35,113.38,25.69,108.23,22.52,108.82Z" transform="translate(49.07 -2.14)"/><path class="cls-71" d="M12.51,106.71s-2.46.8-2.28,5.49C10.23,112.2,14.49,109.24,12.51,106.71Z" transform="translate(49.07 -2.14)"/><path class="cls-71" d="M9,102.48s-2.59,0-3.94,4.45C5.05,106.93,10,105.52,9,102.48Z" transform="translate(49.07 -2.14)"/><path class="cls-71" d="M15.53,93.45s2.19,1.38,5.69-1.75C21.22,91.7,16.22,90.3,15.53,93.45Z" transform="translate(49.07 -2.14)"/><path class="cls-71" d="M27.7,84.43s2.52.63,4.85-3.45C32.55,81,27.37,81.23,27.7,84.43Z" transform="translate(49.07 -2.14)"/><path class="cls-71" d="M5.39,91.76a3.1,3.1,0,0,0-3,.91S4.67,93.45,5.39,91.76Z" transform="translate(49.07 -2.14)"/><path class="cls-71" d="M34.66,89.88a3.09,3.09,0,0,0,3.11-.48S35.61,88.3,34.66,89.88Z" transform="translate(49.07 -2.14)"/><path class="cls-71" d="M10.36,95S7,92.48,2.91,96.82C2.91,96.82,8.46,99.23,10.36,95Z" transform="translate(49.07 -2.14)"/><path class="cls-71" d="M6.63,98.1s-1.7-.72-3.27,1.43C3.36,99.53,5.78,99.8,6.63,98.1Z" transform="translate(49.07 -2.14)"/><path class="cls-71" d="M11.4,108.78s-1.7-.72-3.26,1.44C8.14,110.22,10.55,110.48,11.4,108.78Z" transform="translate(49.07 -2.14)"/><path class="cls-71" d="M12.32,93.26s-1-2.19-5.08-.41C7.24,92.85,10.42,95.35,12.32,93.26Z" transform="translate(49.07 -2.14)"/><path class="cls-71" d="M17,109.31s-2.14,1.11-.14,5.09C16.84,114.4,19.17,111.09,17,109.31Z" transform="translate(49.07 -2.14)"/><path class="cls-71" d="M27.57,91s1.19,2.09,5.09,0C32.66,91,29.27,88.77,27.57,91Z" transform="translate(49.07 -2.14)"/><path class="cls-71" d="M17.58,93.8s1.2,2.09,5.1,0C22.68,93.76,19.28,91.55,17.58,93.8Z" transform="translate(49.07 -2.14)"/><path class="cls-71" d="M29.75,90.11s2.14,1.1,4.24-2.82C34,87.29,29.94,87.29,29.75,90.11Z" transform="translate(49.07 -2.14)"/><path class="cls-71" d="M19.05,89.6s2.28-.8.88-5C19.93,84.58,17.14,87.52,19.05,89.6Z" transform="translate(49.07 -2.14)"/><path class="cls-71" d="M15.21,94.49s-2.1-1.18-4.35,2.65C10.86,97.14,14.91,97.3,15.21,94.49Z" transform="translate(49.07 -2.14)"/><path class="cls-71" d="M22.62,108.75s-1.7,1.71,1.41,4.89C24,113.64,25.25,109.78,22.62,108.75Z" transform="translate(49.07 -2.14)"/><path class="cls-71" d="M26.11,97.12s-.53,2.35,3.79,3.4C29.9,100.52,28.89,96.6,26.11,97.12Z" transform="translate(49.07 -2.14)"/><path class="cls-71" d="M21.94,98.53s-.53,2.35,3.79,3.4C25.73,101.93,24.72,98,21.94,98.53Z" transform="translate(49.07 -2.14)"/><path class="cls-71" d="M17.07,99s-2.38-.35-3.1,4C14,103,17.8,101.71,17.07,99Z" transform="translate(49.07 -2.14)"/><path class="cls-71" d="M21.61,102.5s-1.24,2.07,2.55,4.41C24.16,106.91,24.41,102.87,21.61,102.5Z" transform="translate(49.07 -2.14)"/><path class="cls-71" d="M30.32,103.82s-.53,2.35,3.79,3.4C34.11,107.22,33.09,103.3,30.32,103.82Z" transform="translate(49.07 -2.14)"/><path class="cls-71" d="M31.45,96.15s1.37,2,5.07-.47C36.52,95.68,33,93.76,31.45,96.15Z" transform="translate(49.07 -2.14)"/><path class="cls-71" d="M33.68,92.94s1,2.21,5.07.53C38.75,93.47,35.63,90.89,33.68,92.94Z" transform="translate(49.07 -2.14)"/><path class="cls-71" d="M12.84,90.25s-1.5-2.13,1.31-4.82C14.15,85.43,15.39,89.27,12.84,90.25Z" transform="translate(49.07 -2.14)"/><path class="cls-71" d="M15.2,86.45s-.69-1.69,1.71-2.54A2,2,0,0,1,15.2,86.45Z" transform="translate(49.07 -2.14)"/><path class="cls-71" d="M26.7,83.8s-1.25-1.33.67-3A2,2,0,0,1,26.7,83.8Z" transform="translate(49.07 -2.14)"/><path class="cls-71" d="M12.51,98.52s-5,3.18-1.51,7C11,105.5,14.24,103.82,12.51,98.52Z" transform="translate(49.07 -2.14)"/><path class="cls-71" d="M5,103.34s5.72,1.44,6.1-3.69C11.13,99.65,7.69,98.45,5,103.34Z" transform="translate(49.07 -2.14)"/><path class="cls-71" d="M17.22,103.68s-5.3,2.59-2.28,6.76C14.94,110.44,18.35,109.14,17.22,103.68Z" transform="translate(49.07 -2.14)"/><path class="cls-71" d="M23.83,94.63s2.81-3.62,8-.37C31.87,94.26,26.18,98.29,23.83,94.63Z" transform="translate(49.07 -2.14)"/><ellipse class="cls-71" cx="69.34" cy="104.32" rx="5.77" ry="6.09"/><circle class="cls-71" cx="75.88" cy="93.59" r="7.31"/><path class="cls-71" d="M34.35,87.71a4.45,4.45,0,1,1-4.45-4.44A4.45,4.45,0,0,1,34.35,87.71Z" transform="translate(49.07 -2.14)"/><path class="cls-71" d="M29.84,86a4.45,4.45,0,1,1-4.45-4.44A4.45,4.45,0,0,1,29.84,86Z" transform="translate(49.07 -2.14)"/><circle class="cls-71" cx="81.62" cy="89.68" r="4.44"/><path class="cls-71" d="M35,101.91a2.77,2.77,0,1,1-2.77-2.76A2.77,2.77,0,0,1,35,101.91Z" transform="translate(49.07 -2.14)"/><circle class="cls-71" cx="74.59" cy="105.81" r="3.24"/><path class="cls-71" d="M16,106.23A3.25,3.25,0,1,1,12.72,103,3.24,3.24,0,0,1,16,106.23Z" transform="translate(49.07 -2.14)"/><path class="cls-71" d="M23.94,98.63a4.44,4.44,0,1,1-4.44-4.44A4.44,4.44,0,0,1,23.94,98.63Z" transform="translate(49.07 -2.14)"/><circle class="cls-71" cx="12.86" cy="98.17" r="7.31" transform="translate(-36.56 85.91) rotate(-76.67)"/><path class="cls-71" d="M16.88,87.31a4.66,4.66,0,1,1-4.66-4.66A4.66,4.66,0,0,1,16.88,87.31Z" transform="translate(49.07 -2.14)"/><ellipse class="cls-71" cx="68.22" cy="85.59" rx="6.14" ry="8.34"/><path class="cls-71" d="M31.08,101.85c1.66,1.9,1.9,4.39.55,5.56s-3.78.58-5.44-1.32-1.89-4.4-.54-5.57S29.43,99.94,31.08,101.85Z" transform="translate(49.07 -2.14)"/><path class="cls-72" d="M38.07,97.67s-3-5.07-7.19-2.06C30.88,95.61,32.46,100.32,38.07,97.67Z" transform="translate(49.07 -2.14)"/><path class="cls-72" d="M17.69,107.09s5.86.29,5.65-4.89C23.34,102.2,18.54,101,17.69,107.09Z" transform="translate(49.07 -2.14)"/><path class="cls-72" d="M3.32,99.74s3.42,2.92,5.72-.33C9,99.41,6.7,96.41,3.32,99.74Z" transform="translate(49.07 -2.14)"/><path class="cls-72" d="M21.15,94.08S23,97.6,25.93,95.71C25.93,95.71,25,92.48,21.15,94.08Z" transform="translate(49.07 -2.14)"/><path class="cls-72" d="M13.26,91.84s-3-5.07-7.19-2.06C6.07,89.78,7.65,94.49,13.26,91.84Z" transform="translate(49.07 -2.14)"/><path class="cls-72" d="M24.42,111s3.1-5-1.53-7.32C22.89,103.69,19.46,107.28,24.42,111Z" transform="translate(49.07 -2.14)"/><path class="cls-72" d="M36.5,102.16s-.56-3.26-3.33-2.43C33.17,99.73,33.09,102.26,36.5,102.16Z" transform="translate(49.07 -2.14)"/><path class="cls-72" d="M29.38,112.08s.93-3.18-1.93-3.65C27.45,108.43,26.27,110.68,29.38,112.08Z" transform="translate(49.07 -2.14)"/><path class="cls-72" d="M30.88,95.61s2.45.86,5.16-3C36,92.64,30.86,92.39,30.88,95.61Z" transform="translate(49.07 -2.14)"/><path class="cls-72" d="M18.53,87.79s.26-2.58-4.11-4.3C14.42,83.49,15.41,88.58,18.53,87.79Z" transform="translate(49.07 -2.14)"/><path class="cls-72" d="M12.24,85.46s-.9-2.43-5.58-2.07C6.66,83.39,9.78,87.54,12.24,85.46Z" transform="translate(49.07 -2.14)"/><path class="cls-72" d="M22,82.35s1.75-1.92-.73-5.91C21.25,76.44,19,81.12,22,82.35Z" transform="translate(49.07 -2.14)"/><path class="cls-72" d="M27.14,84.28s2.27-1.25,1.22-5.82C28.36,78.46,24.72,82.15,27.14,84.28Z" transform="translate(49.07 -2.14)"/><path class="cls-72" d="M25.92,95.36s-2.59-.12-4.08,4.33C21.84,99.69,26.88,98.44,25.92,95.36Z" transform="translate(49.07 -2.14)"/><path class="cls-72" d="M19.8,109.22s-2.5.7-2.5,5.39C17.3,114.61,21.68,111.84,19.8,109.22Z" transform="translate(49.07 -2.14)"/><path class="cls-72" d="M35.57,91.82a3.13,3.13,0,0,0,2.17-2.29S35.35,90,35.57,91.82Z" transform="translate(49.07 -2.14)"/><path class="cls-72" d="M11.06,107.92a3.12,3.12,0,0,0-2.47,2S11,109.77,11.06,107.92Z" transform="translate(49.07 -2.14)"/><path class="cls-72" d="M29.66,91.48s4.13.52,5.56-5.3C35.22,86.18,29.2,86.84,29.66,91.48Z" transform="translate(49.07 -2.14)"/><path class="cls-72" d="M31.35,86.92s1.84-.22,2.13-2.87C33.48,84.05,31.25,85,31.35,86.92Z" transform="translate(49.07 -2.14)"/><path class="cls-72" d="M21.92,80s1.83-.21,2.13-2.86C24.05,77.13,21.82,78.09,21.92,80Z" transform="translate(49.07 -2.14)"/><path class="cls-72" d="M28.8,93.94s2,1.4,4.62-2.16C33.42,91.78,29.41,91.18,28.8,93.94Z" transform="translate(49.07 -2.14)"/><path class="cls-72" d="M16.81,82.3s1.31-2-2.39-4.5C14.42,77.8,14,81.83,16.81,82.3Z" transform="translate(49.07 -2.14)"/><path class="cls-72" d="M16.66,103.43s-2.08-1.23-4.41,2.55C12.25,106,16.29,106.23,16.66,103.43Z" transform="translate(49.07 -2.14)"/><path class="cls-72" d="M24,96.07s-2.07-1.23-4.4,2.56C19.56,98.63,23.6,98.87,24,96.07Z" transform="translate(49.07 -2.14)"/><path class="cls-72" d="M15.22,105.29s-2.41.11-2.29,4.55C12.93,109.84,16.44,107.84,15.22,105.29Z" transform="translate(49.07 -2.14)"/><path class="cls-72" d="M24.76,100.45s-1.58,1.82,1.72,4.79C26.48,105.24,27.45,101.31,24.76,100.45Z" transform="translate(49.07 -2.14)"/><path class="cls-72" d="M25.68,94.3s2.41,0,2.47-4.46C28.15,89.84,24.56,91.7,25.68,94.3Z" transform="translate(49.07 -2.14)"/><path class="cls-72" d="M12.19,85.57s.63-2.32-3.65-3.55C8.54,82,9.39,86,12.19,85.57Z" transform="translate(49.07 -2.14)"/><path class="cls-72" d="M14.91,97.4s-.7-2.3-5-1.07C9.93,96.33,12.75,99.23,14.91,97.4Z" transform="translate(49.07 -2.14)"/><path class="cls-72" d="M17.84,94.11s-.71-2.3-5-1.08C12.86,93,15.68,95.94,17.84,94.11Z" transform="translate(49.07 -2.14)"/><path class="cls-72" d="M21.84,91.32s2.25-.88.7-5C22.54,86.27,19.86,89.31,21.84,91.32Z" transform="translate(49.07 -2.14)"/><path class="cls-72" d="M16.16,90.5s.05-2.41-4.4-2.57C11.76,87.93,13.54,91.56,16.16,90.5Z" transform="translate(49.07 -2.14)"/><path class="cls-72" d="M7.94,93.66s-.71-2.3-5-1.08C3,92.58,5.78,95.49,7.94,93.66Z" transform="translate(49.07 -2.14)"/><path class="cls-72" d="M10.75,100.88s-2.17-1-4.18,2.93C6.57,103.81,10.62,103.71,10.75,100.88Z" transform="translate(49.07 -2.14)"/><path class="cls-72" d="M10.4,104.78s-1.93-1.45-4.67,2C5.73,106.83,9.72,107.53,10.4,104.78Z" transform="translate(49.07 -2.14)"/><path class="cls-72" d="M29.84,96.81s2.36,1.11,1.25,4.84C31.09,101.65,28.11,98.92,29.84,96.81Z" transform="translate(49.07 -2.14)"/><path class="cls-72" d="M29.67,101.28s1.43,1.13-.24,3A2,2,0,0,1,29.67,101.28Z" transform="translate(49.07 -2.14)"/><path class="cls-72" d="M21,109.28s1.75.53.91,2.93A2,2,0,0,1,21,109.28Z" transform="translate(49.07 -2.14)"/><path class="cls-72" d="M26,89.45s2.76-5.22-2.14-6.8C23.9,82.65,21.91,85.71,26,89.45Z" transform="translate(49.07 -2.14)"/><path class="cls-72" d="M30.16,81.57s-5.7,1.58-3.49,6.23C26.67,87.8,30.26,87.14,30.16,81.57Z" transform="translate(49.07 -2.14)"/><path class="cls-72" d="M19.39,87.31s3.33-4.88-1.37-7C18,80.3,15.71,83.12,19.39,87.31Z" transform="translate(49.07 -2.14)"/><path class="cls-72" d="M18.13,98.44s-.66,4.53-6.81,4.3C11.32,102.74,14.27,96.42,18.13,98.44Z" transform="translate(49.07 -2.14)"/><path class="cls-72" d="M38.07,97.67s-3-5.07-7.19-2.06C30.88,95.61,32.46,100.32,38.07,97.67Z" transform="translate(49.07 -2.14)"/><path class="cls-72" d="M17.69,107.09s5.86.29,5.65-4.89C23.34,102.2,18.54,101,17.69,107.09Z" transform="translate(49.07 -2.14)"/><path class="cls-72" d="M3.32,99.74s3.42,2.92,5.72-.33C9,99.41,6.7,96.41,3.32,99.74Z" transform="translate(49.07 -2.14)"/><path class="cls-72" d="M13.26,91.84s-3-5.07-7.19-2.06C6.07,89.78,7.65,94.49,13.26,91.84Z" transform="translate(49.07 -2.14)"/><path class="cls-72" d="M24.42,111s3.1-5-1.53-7.32C22.89,103.69,19.46,107.28,24.42,111Z" transform="translate(49.07 -2.14)"/><path class="cls-72" d="M36.5,102.16s-.56-3.26-3.33-2.43C33.17,99.73,33.09,102.26,36.5,102.16Z" transform="translate(49.07 -2.14)"/><path class="cls-72" d="M29.38,112.08s.93-3.18-1.93-3.65C27.45,108.43,26.27,110.68,29.38,112.08Z" transform="translate(49.07 -2.14)"/><path class="cls-72" d="M30.88,95.61s2.45.86,5.16-3C36,92.64,30.86,92.39,30.88,95.61Z" transform="translate(49.07 -2.14)"/><path class="cls-72" d="M18.53,87.79s.26-2.58-4.11-4.3C14.42,83.49,15.41,88.58,18.53,87.79Z" transform="translate(49.07 -2.14)"/><path class="cls-72" d="M12.24,85.46s-.9-2.43-5.58-2.07C6.66,83.39,9.78,87.54,12.24,85.46Z" transform="translate(49.07 -2.14)"/><path class="cls-72" d="M22,82.35s1.75-1.92-.73-5.91C21.25,76.44,19,81.12,22,82.35Z" transform="translate(49.07 -2.14)"/><path class="cls-72" d="M27.14,84.28s2.27-1.25,1.22-5.82C28.36,78.46,24.72,82.15,27.14,84.28Z" transform="translate(49.07 -2.14)"/><path class="cls-72" d="M25.92,95.36s-2.59-.12-4.08,4.33C21.84,99.69,26.88,98.44,25.92,95.36Z" transform="translate(49.07 -2.14)"/><path class="cls-72" d="M19.8,109.22s-2.5.7-2.5,5.39C17.3,114.61,21.68,111.84,19.8,109.22Z" transform="translate(49.07 -2.14)"/><path class="cls-72" d="M35.57,91.82a3.13,3.13,0,0,0,2.17-2.29S35.35,90,35.57,91.82Z" transform="translate(49.07 -2.14)"/><path class="cls-72" d="M11.06,107.92a3.12,3.12,0,0,0-2.47,2S11,109.77,11.06,107.92Z" transform="translate(49.07 -2.14)"/><path class="cls-72" d="M29.66,91.48s4.13.52,5.56-5.3C35.22,86.18,29.2,86.84,29.66,91.48Z" transform="translate(49.07 -2.14)"/><path class="cls-72" d="M31.35,86.92s1.84-.22,2.13-2.87C33.48,84.05,31.25,85,31.35,86.92Z" transform="translate(49.07 -2.14)"/><path class="cls-72" d="M21.92,80s1.83-.21,2.13-2.86C24.05,77.13,21.82,78.09,21.92,80Z" transform="translate(49.07 -2.14)"/><path class="cls-72" d="M28.8,93.94s2,1.4,4.62-2.16C33.42,91.78,29.41,91.18,28.8,93.94Z" transform="translate(49.07 -2.14)"/><path class="cls-72" d="M16.81,82.3s1.31-2-2.39-4.5C14.42,77.8,14,81.83,16.81,82.3Z" transform="translate(49.07 -2.14)"/><path class="cls-72" d="M16.66,103.43s-2.08-1.23-4.41,2.55C12.25,106,16.29,106.23,16.66,103.43Z" transform="translate(49.07 -2.14)"/><path class="cls-72" d="M24,96.07s-2.07-1.23-4.4,2.56C19.56,98.63,23.6,98.87,24,96.07Z" transform="translate(49.07 -2.14)"/><path class="cls-72" d="M15.22,105.29s-2.41.11-2.29,4.55C12.93,109.84,16.44,107.84,15.22,105.29Z" transform="translate(49.07 -2.14)"/><path class="cls-72" d="M24.76,100.45s-1.58,1.82,1.72,4.79C26.48,105.24,27.45,101.31,24.76,100.45Z" transform="translate(49.07 -2.14)"/><path class="cls-72" d="M25.68,94.3s2.41,0,2.47-4.46C28.15,89.84,24.56,91.7,25.68,94.3Z" transform="translate(49.07 -2.14)"/><path class="cls-72" d="M12.19,85.57s.63-2.32-3.65-3.55C8.54,82,9.39,86,12.19,85.57Z" transform="translate(49.07 -2.14)"/><path class="cls-72" d="M14.91,97.4s-.7-2.3-5-1.07C9.93,96.33,12.75,99.23,14.91,97.4Z" transform="translate(49.07 -2.14)"/><path class="cls-72" d="M17.84,94.11s-.71-2.3-5-1.08C12.86,93,15.68,95.94,17.84,94.11Z" transform="translate(49.07 -2.14)"/><path class="cls-72" d="M21.84,91.32s2.25-.88.7-5C22.54,86.27,19.86,89.31,21.84,91.32Z" transform="translate(49.07 -2.14)"/><path class="cls-72" d="M16.16,90.5s.05-2.41-4.4-2.57C11.76,87.93,13.54,91.56,16.16,90.5Z" transform="translate(49.07 -2.14)"/><path class="cls-72" d="M7.94,93.66s-.71-2.3-5-1.08C3,92.58,5.78,95.49,7.94,93.66Z" transform="translate(49.07 -2.14)"/><path class="cls-72" d="M10.75,100.88s-2.17-1-4.18,2.93C6.57,103.81,10.62,103.71,10.75,100.88Z" transform="translate(49.07 -2.14)"/><path class="cls-72" d="M10.4,104.78s-1.93-1.45-4.67,2C5.73,106.83,9.72,107.53,10.4,104.78Z" transform="translate(49.07 -2.14)"/><path class="cls-72" d="M29.84,96.81s2.36,1.11,1.25,4.84C31.09,101.65,28.11,98.92,29.84,96.81Z" transform="translate(49.07 -2.14)"/><path class="cls-72" d="M29.67,101.28s1.43,1.13-.24,3A2,2,0,0,1,29.67,101.28Z" transform="translate(49.07 -2.14)"/><path class="cls-72" d="M21,109.28s1.75.53.91,2.93A2,2,0,0,1,21,109.28Z" transform="translate(49.07 -2.14)"/><path class="cls-72" d="M26,89.45s2.76-5.22-2.14-6.8C23.9,82.65,21.91,85.71,26,89.45Z" transform="translate(49.07 -2.14)"/><path class="cls-72" d="M30.16,81.57s-5.7,1.58-3.49,6.23C26.67,87.8,30.26,87.14,30.16,81.57Z" transform="translate(49.07 -2.14)"/><path class="cls-72" d="M19.39,87.31s3.33-4.88-1.37-7C18,80.3,15.71,83.12,19.39,87.31Z" transform="translate(49.07 -2.14)"/><path class="cls-72" d="M18.13,98.44s-.66,4.53-6.81,4.3C11.32,102.74,14.27,96.42,18.13,98.44Z" transform="translate(49.07 -2.14)"/><ellipse class="cls-72" cx="69.78" cy="95.4" rx="12.77" ry="12.7"/><path class="cls-72" d="M19.15,87.67a4.64,4.64,0,0,1-4.85,4.4,4.42,4.42,0,1,1,0-8.79A4.64,4.64,0,0,1,19.15,87.67Z" transform="translate(49.07 -2.14)"/><ellipse class="cls-72" cx="57.93" cy="97.18" rx="3.86" ry="3.96"/><path class="cls-72" d="M33,87.85a3.88,3.88,0,1,1-3.88-4A4,4,0,0,1,33,87.85Z" transform="translate(49.07 -2.14)"/><path class="cls-72" d="M33,103A4,4,0,1,1,29,99,4,4,0,0,1,33,103Z" transform="translate(49.07 -2.14)"/><path class="cls-73" d="M22.66,105.74s1.8-2.46.28-4.11C22.94,101.63,21.09,102.63,22.66,105.74Z" transform="translate(49.07 -2.14)"/><path class="cls-73" d="M19.75,104.07s2.26-.52,2.2-2.23C22,101.84,20.39,101.5,19.75,104.07Z" transform="translate(49.07 -2.14)"/><path class="cls-73" d="M18.53,91.5s.83-2.16-2.54-3.81C16,87.69,16,91.26,18.53,91.5Z" transform="translate(49.07 -2.14)"/><path class="cls-73" d="M15.7,100s4.16-.44,4.43-3.52C20.13,96.49,17.41,95.54,15.7,100Z" transform="translate(49.07 -2.14)"/><path class="cls-73" d="M5.51,96.65s3.19.64,4.11-1.59C9.62,95.06,7.81,93.73,5.51,96.65Z" transform="translate(49.07 -2.14)"/><path class="cls-73" d="M30.38,86.1s-2.12-.35-3.16,2.5C27.22,88.6,28.9,89.25,30.38,86.1Z" transform="translate(49.07 -2.14)"/><path class="cls-73" d="M11.53,89.1s-.18-2.15-3.2-2.44C8.33,86.66,8.11,88.44,11.53,89.1Z" transform="translate(49.07 -2.14)"/><path class="cls-73" d="M10.59,105.43s1.65.18,2.33-2.05C12.92,103.38,11.61,102.94,10.59,105.43Z" transform="translate(49.07 -2.14)"/><path class="cls-73" d="M22.31,83.28s-2,.84-1.33,3.8C21,87.08,22.74,86.74,22.31,83.28Z" transform="translate(49.07 -2.14)"/><path class="cls-73" d="M19.5,95.43s-.55-1.65-3.3-1C16.2,94.44,17.9,96.51,19.5,95.43Z" transform="translate(49.07 -2.14)"/><path class="cls-73" d="M9.61,95s-.28-1.78-3.2-1.59C6.41,93.43,7.79,95.84,9.61,95Z" transform="translate(49.07 -2.14)"/><path class="cls-73" d="M27.21,103.24s-.74,1.56,1.67,3C28.88,106.22,29.09,103.57,27.21,103.24Z" transform="translate(49.07 -2.14)"/><path class="cls-73" d="M29,92s-3.9,1.5-3.38,4.54C25.65,96.51,28.53,96.73,29,92Z" transform="translate(49.07 -2.14)"/><path class="cls-73" d="M25.61,96.46s1.75-1.51-.45-4.55C25.16,91.91,23.48,95.05,25.61,96.46Z" transform="translate(49.07 -2.14)"/><path class="cls-73" d="M26.52,97.05s.74,1.06,2.56,0C29.08,97.06,27.43,95.94,26.52,97.05Z" transform="translate(49.07 -2.14)"/><path class="cls-74" d="M31.13,136.83h-20s-.07,7.54,5.29,17.56h9.79C31.48,144.43,31.13,136.83,31.13,136.83Z" transform="translate(49.07 -2.14)"/><path class="cls-75" d="M31.13,136.83H11.22c1,.54,3.2,1.19,13.09,2.08,6.59.58,4.07,14.88-8,15.45,3,.21,9.86,0,9.86,0C31.48,144.43,31.13,136.83,31.13,136.83Z" transform="translate(49.07 -2.14)"/><path class="cls-75" d="M29,141.75l-2.44.08-2.49,0-2.86,0-2.86,0-2.5,0-2.43-.08,2.43-.08,2.5,0,2.86,0,2.86,0,2.49,0Z" transform="translate(49.07 -2.14)"/><path class="cls-75" d="M28.8,144.71s-.66,0-1.67.07l-1.71.05-2,0-2,0-1.71-.05c-1,0-1.66-.07-1.66-.07s.66-.05,1.66-.08c.5,0,1.09,0,1.71,0l2,0,2,0c.63,0,1.21,0,1.71,0C28.14,144.66,28.8,144.71,28.8,144.71Z" transform="translate(49.07 -2.14)"/><path class="cls-75" d="M27.69,148s-.8,0-2,.07l-2.05.05H19l-2-.05c-1.2,0-2-.07-2-.07s.8-.05,2-.08l2,0H21.3l2.34,0,2.05,0C26.89,148,27.69,148,27.69,148Z" transform="translate(49.07 -2.14)"/><path class="cls-75" d="M25.93,151.1s-.47.05-1.16.08-1.62.06-2.54.06-1.85,0-2.54-.06-1.16-.08-1.16-.08l1.16-.08c.69,0,1.61-.06,2.54-.06s1.85,0,2.54.06Z" transform="translate(49.07 -2.14)"/><path class="cls-75" d="M20.35,139.15s-.46,0-1.15.07-1.62.07-2.54.06-1.85,0-2.54-.06-1.16-.07-1.16-.07.46-.05,1.16-.08,1.61-.07,2.54-.06,1.84,0,2.54.06S20.35,139.15,20.35,139.15Z" transform="translate(49.07 -2.14)"/><path class="cls-76" d="M21.11,137.93h10c0-.71,0-1.09,0-1.09h-20s0,.38.11,1.09Z" transform="translate(49.07 -2.14)"/><circle class="cls-77" cx="65.2" cy="10.98" r="0.38"/><circle class="cls-77" cx="65.2" cy="30.99" r="0.38"/><path class="cls-77" d="M26.13,23.5a.38.38,0,0,1,0-.75.38.38,0,1,1,0,.75Z" transform="translate(49.07 -2.14)"/><path class="cls-77" d="M6.12,23.5a.38.38,0,1,1,0-.75.38.38,0,0,1,0,.75Z" transform="translate(49.07 -2.14)"/><ellipse class="cls-78" cx="65.2" cy="22.44" rx="12.87" ry="13.05"/><circle class="cls-77" cx="65.2" cy="20.99" r="12.87"/><circle class="cls-19" cx="65.2" cy="20.99" r="11.21"/><circle class="cls-77" cx="65.2" cy="20.99" r="0.68"/><path class="cls-77" d="M15.73,23.43l.55-.49a10.78,10.78,0,0,1-1.08-1.19c-2-2.28-5.74-6.26-5.9-6.11s3.36,4.37,5.36,6.6Z" transform="translate(49.07 -2.14)"/><path class="cls-77" d="M16,22.86l.43.43s0-.05.67-.67a23.81,23.81,0,0,0,3.36-3.71,25.29,25.29,0,0,0-3.79,3.28C16,22.83,16,22.86,16,22.86Z" transform="translate(49.07 -2.14)"/><circle class="cls-77" cx="65.2" cy="10.98" r="0.38"/><circle class="cls-77" cx="65.2" cy="30.99" r="0.38"/><path class="cls-77" d="M26.13,23.5a.38.38,0,0,1,0-.75.38.38,0,1,1,0,.75Z" transform="translate(49.07 -2.14)"/><path class="cls-77" d="M6.12,23.5a.38.38,0,1,1,0-.75.38.38,0,0,1,0,.75Z" transform="translate(49.07 -2.14)"/><path class="cls-79" d="M24.38,15.56A11.2,11.2,0,0,1,5.74,27.34,11.2,11.2,0,1,0,24.38,15.56Z" transform="translate(49.07 -2.14)"/><g class="cls-80"><path class="cls-19" d="M6.13,23a10,10,0,0,0,13-9.46,10.21,10.21,0,0,0-3-.45A10,10,0,0,0,6.13,23Z" transform="translate(49.07 -2.14)"/></g></g></g></svg>