<svg id="OBJECTS" xmlns="http://www.w3.org/2000/svg" viewBox="0 0 412.56 403.81"><defs><style>.cls-1{fill:#ffc0a4;}.cls-2{fill:#f69d7d;}.cls-3{fill:#7770d0;}.cls-4{fill:#251b19;}.cls-5{fill:#330e00;}.cls-6{fill:#fff;}.cls-7{fill:#f9b092;}.cls-8{fill:#ee4b4e;}.cls-9{fill:#ff8700;}.cls-10{fill:#bf6217;}.cls-11{fill:#ff7ea0;}.cls-12{fill:#fefdfb;}.cls-13{fill:#97d2ff;}.cls-14{fill:#60aed2;}.cls-15{fill:#ff644f;}.cls-16{fill:#ae980c;}.cls-17{fill:#6a6034;}.cls-18{fill:#eae8e8;}.cls-19{font-size:31px;font-family:MyriadPro-BoldCond, Myriad Pro;font-weight:700;}.cls-20{letter-spacing:0.01em;}.cls-21{letter-spacing:0.02em;}.cls-22{letter-spacing:0em;}.cls-23{letter-spacing:-0.01em;}.cls-24{letter-spacing:-0.01em;}</style></defs><title>select</title><path class="cls-1" d="M30.81,126.16c-2.7-3.8-4.18-5.49-3.56-10.72.33-2.84,4.37-3.45,2.32-6s-3.13,3.63-4.53,4.12-2.63-13.76-4.36-15.84-3.44.2-1.53,4.11a21.47,21.47,0,0,1,2.13,7.25s-5.21-8.62-6.83-9.42-2,2-.78,3.78,5,5.54,5.61,7.5c0,0-7.24-5.33-10.44-6.29s-2.63,2-1.21,3,8,2.6,10.06,5.17c0,0-7.21-2.6-9.49-1.21s-1.07,3.43.4,3.94,3.61-.74,5.86-1.13,2,0,2.76,3.44.71,5.73,3.76,5.3c2-.27,3.88.55,5.06,5.91C27.64,128.17,29.2,127.12,30.81,126.16Z" transform="translate(-6.49 -19.33)"/><path class="cls-1" d="M30.81,126.16c7.61,8.26,11.5,12.4,16.75,19.46a101.54,101.54,0,0,0,12.68,13.53l-10.49,8-15-18c-3.87-4.66-5.91-11.07-8.72-20S30.81,126.16,30.81,126.16Z" transform="translate(-6.49 -19.33)"/><path class="cls-2" d="M49.75,167.17l10.49-8s-1.42-1.24-3.46-3.22l-8.94,8.94Z" transform="translate(-6.49 -19.33)"/><path class="cls-3" d="M45.36,170.8c5.09,4.51,26.18,22,26.18,22L76,164.63l-6.3-1.88c-3-2.41-8.35-4.57-11.6-7.95Z" transform="translate(-6.49 -19.33)"/><path class="cls-4" d="M62,143.07a4.55,4.55,0,0,0,2.53-1.72c.62-1.2-3.91-9-3.91-9a8.24,8.24,0,0,0,1.47-5.94c-.63-3.15-3.2-5.42-6.39-4.52s-7.55,2.66-6.2,6.47c.77,2.2,5.22,9.32,6.62,10.93S62,143.07,62,143.07Z" transform="translate(-6.49 -19.33)"/><path class="cls-5" d="M122,207.91c-.66-1.08-1.14-1.74-1.14-1.74L84.88,218.4s.09.78.26,2.11l.46.34C103.79,222.69,115.55,219.23,122,207.91Z" transform="translate(-6.49 -19.33)"/><path class="cls-3" d="M71.86,192.7l9.29,19.09,3.22,22.84s32,2.45,46.62-14.68l-17.16-44.47Z" transform="translate(-6.49 -19.33)"/><path class="cls-3" d="M104.55,160.69c4.34.49,7.74,1.6,9.28,14.79l7.57,31.74s3.42,4.79,2.59,6.26c-6.4,11.35-18.17,14.82-36.38,13a7.77,7.77,0,0,1-1.42-1.25C84.9,223.05,85,215.9,85,215.9L71.54,192.79s-11.45-14.56-5.6-19.58C81.65,159.73,82.86,158.26,104.55,160.69Z" transform="translate(-6.49 -19.33)"/><path class="cls-1" d="M88,162.78a17.48,17.48,0,0,1-6.23,2.81c-2.59.63-1.87-1.11-2.78-1.16L66.31,146.77l16.74,3.59.17.64Z" transform="translate(-6.49 -19.33)"/><path class="cls-2" d="M82.45,157.62a15.76,15.76,0,0,1-5-.36,33.61,33.61,0,0,1-4.65-1.38l-6.51-9.11,16.74,3.59.17.64,2.5,6.22C84.63,157.35,83.54,157.51,82.45,157.62Z" transform="translate(-6.49 -19.33)"/><path class="cls-6" d="M75.73,160s7.41,4.56,8.92,4,.58-7.91.58-7.91,2.92-.11,3.78.5c2.26,1.61,4.43,8.82,3.77,9.36-1.38,1.11-6.69-1.52-7.66-1s-2.47,6.17-3.29,6.25-8.47-4.79-8.61-7.16S75.73,160,75.73,160Z" transform="translate(-6.49 -19.33)"/><path class="cls-1" d="M58.58,137.57s-5.53-.06-3.44,6.07,6.66,5.28,8.07,5.27c0,0,4.92,10.67,18.51,6.62s9.11-14.29,7.4-21.34c-2-8.37-3.49-19.58-12.73-18.54S54,120.13,58.58,137.57Z" transform="translate(-6.49 -19.33)"/><path class="cls-2" d="M85.88,122.33a12.65,12.65,0,0,0-3.59-5.17c-7.2.28-19.25,4-19.25,4V127S80.24,127.69,85.88,122.33Z" transform="translate(-6.49 -19.33)"/><path class="cls-4" d="M58.58,137.57s1.36.41,3.2,2.7,2.48.62,1.29-3.71c0,0,2.61-3.06,0-9.61,0,0,28.12-3.45,25.29-10.91s-29-4.14-34.18.22-1.22,9.65-1.22,9.65Z" transform="translate(-6.49 -19.33)"/><path class="cls-4" d="M74.32,132.81c-.06.13-.48.06-1.13,0a6.7,6.7,0,0,0-2.46.29,6.91,6.91,0,0,0-2.16,1.17l-.61.5c-.16.12-.27.17-.33.14s0-.16,0-.36a2.88,2.88,0,0,1,.43-.75,4.93,4.93,0,0,1,2.38-1.63,4.84,4.84,0,0,1,2.85,0C74,132.39,74.37,132.7,74.32,132.81Z" transform="translate(-6.49 -19.33)"/><path class="cls-4" d="M79.61,131.43c-.11-.06,0-.52.45-1.11a4.93,4.93,0,0,1,5.23-1.66,3.09,3.09,0,0,1,.79.37c.17.12.24.22.22.28s-.15.08-.35.07l-.78,0a7,7,0,0,0-2.45.29,6.83,6.83,0,0,0-2.17,1.18C80,131.2,79.73,131.51,79.61,131.43Z" transform="translate(-6.49 -19.33)"/><path class="cls-7" d="M90,139.93a3.48,3.48,0,1,1-4.26-2.48A3.49,3.49,0,0,1,90,139.93Z" transform="translate(-6.49 -19.33)"/><path class="cls-7" d="M72.87,144.13a3.49,3.49,0,1,1-4.26-2.48A3.49,3.49,0,0,1,72.87,144.13Z" transform="translate(-6.49 -19.33)"/><path class="cls-7" d="M56.45,141c-.13,1.77.93,3.38,1.95,4.83a2.73,2.73,0,0,0,1.12,1.09,1,1,0,0,0,1.29-.51c.12-.49-.31-.93-.65-1.31s-.62-1-.26-1.35c.17-.17.43-.21.61-.37.39-.33.25-1,0-1.43a7.57,7.57,0,0,0-1.17-1.79,2,2,0,0,0-1.79-.87A1.77,1.77,0,0,0,56.45,141Z" transform="translate(-6.49 -19.33)"/><path class="cls-2" d="M79.89,142.63c0,.07.19.12.45,0a1.48,1.48,0,0,0,.7-.94A3,3,0,0,0,80.9,140c-.18-.53-.38-1-.6-1.61-.89-2.25-1.71-4-2-3.95s0,2.1.87,4.41c.22.56.48,1.12.7,1.57a3,3,0,0,1,.33,1.09C80.19,142.17,79.83,142.47,79.89,142.63Z" transform="translate(-6.49 -19.33)"/><path class="cls-2" d="M82.91,144.9c-.23-.27-1.6.58-3.47.75s-3.38-.31-3.55,0c-.08.15.23.5.89.82a5.51,5.51,0,0,0,5.43-.58C82.79,145.44,83,145,82.91,144.9Z" transform="translate(-6.49 -19.33)"/><path class="cls-4" d="M70.92,138a1.84,1.84,0,1,0,1.51-2.13A1.84,1.84,0,0,0,70.92,138Z" transform="translate(-6.49 -19.33)"/><path class="cls-4" d="M80.51,135.89A1.85,1.85,0,1,0,82,133.77,1.85,1.85,0,0,0,80.51,135.89Z" transform="translate(-6.49 -19.33)"/><path class="cls-6" d="M86.29,167.07a.84.84,0,0,0-.64,1,.89.89,0,0,0,1,.7.88.88,0,0,0,.51-1.38A.75.75,0,0,0,86.29,167.07Z" transform="translate(-6.49 -19.33)"/><path class="cls-6" d="M88.15,172.48a.85.85,0,0,0-.64,1,.89.89,0,0,0,1,.7.88.88,0,0,0,.51-1.38A.77.77,0,0,0,88.15,172.48Z" transform="translate(-6.49 -19.33)"/><path class="cls-1" d="M396.55,180c7.64-7.56,4.64-11.88,6.18-13.12,11.45-9.2,4-9.92,8-12.1,2-1.07,2.54,16.59-1.14,18.86-2.91,1.8-10.44,19-13,23.21-2.4,3.9-4.72,8.26-9.51,9.53-2.26.59-5.22-.12-6.29-2.39-1.19-2.55.5-5.69,1.74-7.89C384.4,192.73,392.41,184.12,396.55,180Z" transform="translate(-6.49 -19.33)"/><path class="cls-1" d="M407.59,174.9c.94-4.12,2-8.21,3-12.31,6-.17,8.71-.31,8.48,1.64-.25,2.16-3.54,2.8-3.54,2.8s1.55,3.07-1,3.56-.61.52-2.6,3.61C410.38,176.62,409.23,175.26,407.59,174.9Z" transform="translate(-6.49 -19.33)"/><path class="cls-7" d="M407.13,174.85a1.65,1.65,0,0,1-1.42-.83,2,2,0,0,1-.13-1.68,2.53,2.53,0,0,1,1.08-1.31,1.63,1.63,0,0,1-1.32-1.34,2.43,2.43,0,0,1,.65-1.76,7.62,7.62,0,0,1,1.48-1.23,1.5,1.5,0,0,1-1.22-1.43,2.07,2.07,0,0,1,1-1.72,2.45,2.45,0,0,1,2-.21,2.4,2.4,0,0,1,1.46,1.43,4.65,4.65,0,0,1,0,2.51,20.05,20.05,0,0,1-1.17,4.26A6.92,6.92,0,0,1,407.13,174.85Z" transform="translate(-6.49 -19.33)"/><path class="cls-1" d="M416,162.52c-6.15-.73-13,1.35-7.54,4,0,0-6.47,2.87-.09,4.52,0,0-6.66,3.81,1.07,4.44Z" transform="translate(-6.49 -19.33)"/><path class="cls-4" d="M379.91,148.31s-1.87-.79-2.33-2.09,5.16-8.54,5.16-8.54a8.44,8.44,0,0,1-.7-6.2c1.07-3.1,3.68-4,6.79-2.63,1.77.76,3.52,3,4.71,4.75a1.83,1.83,0,0,1-1.28,2.82h0s-3.26,6.73-4.9,8.17S379.91,148.31,379.91,148.31Z" transform="translate(-6.49 -19.33)"/><path class="cls-5" d="M313.84,211.36c.73-1.05,1.26-1.7,1.26-1.7L351,224.19s-.14.79-.4,2.13l-.48.32C331.47,227.46,319.7,223.25,313.84,211.36Z" transform="translate(-6.49 -19.33)"/><path class="cls-1" d="M356,237.16c3.21,1.23,11.22-2.37,18.18-24.59l-13.95-2.91-1.84,4.13Z" transform="translate(-6.49 -19.33)"/><path class="cls-2" d="M358,213.3l2.28-2.92L374,213.09c-.16.53-.33,1-.5,1.56l-7.55.07-1.42,6Z" transform="translate(-6.49 -19.33)"/><path class="cls-8" d="M351.28,231.51c-1.46,5.58-2.69,10.92-3.82,16.15a96.3,96.3,0,0,1-43.94-9.21c2.81-9.66,4.76-16.5,5.7-19.83A188.24,188.24,0,0,1,351.28,231.51Z" transform="translate(-6.49 -19.33)"/><path class="cls-6" d="M361.31,167.37l-10.59-4.81s-6.7,3.1-21.31,25.46-19,41.32-19,41.32,14.16,9.24,25.94,9.28Z" transform="translate(-6.49 -19.33)"/><path class="cls-9" d="M332.22,243.47c1-9.24,6.09-45.25,27.68-75.85L351,164.74s-26.47,26.18-41.11,70a33,33,0,0,1-7.42-7l22.7-52.22c-.74-13,5.85-14.27,10.3-14.52,17.59-1,36.91,9.83,43.75,20.14,4.35,6.54-9,15.53-9,15.53l-4.49,5.85-10.61,15.2-5.48,27.49A90.9,90.9,0,0,1,332.22,243.47Z" transform="translate(-6.49 -19.33)"/><path class="cls-1" d="M359.9,167.62,375,151.45l-17.41,1.4-.26.62L351,164.74a3.57,3.57,0,0,0,1.79,4.44C356.44,171,359.9,167.62,359.9,167.62Z" transform="translate(-6.49 -19.33)"/><path class="cls-2" d="M357.26,160.26a16,16,0,0,0,5.08.3,33.62,33.62,0,0,0,4.89-.77l7.8-8.34-17.41,1.4-.26.62L354,159.42C355.09,159.69,356.16,160,357.26,160.26Z" transform="translate(-6.49 -19.33)"/><path class="cls-1" d="M384.07,143.2s5.6.67,2.67,6.6-7.45,4.44-8.86,4.24c0,0-6.41,10.12-19.61,4.21s-7.21-15.63-4.61-22.57,6.15-19.32,15.35-17S391.05,126.19,384.07,143.2Z" transform="translate(-6.49 -19.33)"/><path class="cls-2" d="M380.82,138.77a1.31,1.31,0,0,0,1.3.52c.43-.15.62-.65.75-1.08a8.93,8.93,0,0,0,.53-4.77,7.27,7.27,0,0,0-1.95-3.13A23.74,23.74,0,0,0,368,123.48a31.29,31.29,0,0,0-8.91-.07,33.59,33.59,0,0,0-3,5.89,19.87,19.87,0,0,0,8.16.32,8.26,8.26,0,0,1-3.79,1.73,27.61,27.61,0,0,0,9.15,3.71,16.55,16.55,0,0,0,9.74-.94A5.69,5.69,0,0,0,380.82,138.77Z" transform="translate(-6.49 -19.33)"/><path class="cls-4" d="M372,142.13a1.88,1.88,0,1,1-1.31-2.32A1.89,1.89,0,0,1,372,142.13Z" transform="translate(-6.49 -19.33)"/><path class="cls-4" d="M362.45,139a1.88,1.88,0,1,1-1.31-2.32A1.89,1.89,0,0,1,362.45,139Z" transform="translate(-6.49 -19.33)"/><path class="cls-7" d="M352,141.36a3.55,3.55,0,1,0,4.63-1.94A3.55,3.55,0,0,0,352,141.36Z" transform="translate(-6.49 -19.33)"/><path class="cls-7" d="M368.75,147.92a3.55,3.55,0,1,0,4.64-1.94A3.56,3.56,0,0,0,368.75,147.92Z" transform="translate(-6.49 -19.33)"/><path class="cls-7" d="M385.78,146.92c-.12,1.81-1.41,3.29-2.63,4.62a2.74,2.74,0,0,1-1.27,1,1,1,0,0,1-1.24-.68c-.06-.52.43-.91.83-1.24s.76-.92.45-1.34c-.15-.19-.41-.27-.57-.45-.36-.38-.13-1,.16-1.45a7.7,7.7,0,0,1,1.42-1.65,2,2,0,0,1,1.93-.64A1.83,1.83,0,0,1,385.78,146.92Z" transform="translate(-6.49 -19.33)"/><path class="cls-2" d="M361.45,146.59c.09-.15-.36-.56-.29-1.33a1.58,1.58,0,0,1,.16-.55,2.12,2.12,0,0,1,.44-.5,9.76,9.76,0,0,0,1.66-1.38,5,5,0,0,0,.92-2.12,15.6,15.6,0,0,0,.24-1.7c.08-.94.18-1.51,0-1.59s-.58.44-.9,1.39a11.09,11.09,0,0,1-1.28,3.23c-.33.44-.95.79-1.47,1.32a2.59,2.59,0,0,0-.61,1,2.3,2.3,0,0,0-.08,1,1.8,1.8,0,0,0,.68,1.18C361.22,146.67,361.41,146.66,361.45,146.59Z" transform="translate(-6.49 -19.33)"/><path class="cls-4" d="M359.8,132.46c0,.36,1.46.46,2.88,1.3s2.23,2,2.57,1.84c.15-.07.15-.5-.15-1.1a4.44,4.44,0,0,0-1.79-1.84,4.56,4.56,0,0,0-2.49-.63C360.15,132.08,359.78,132.3,359.8,132.46Z" transform="translate(-6.49 -19.33)"/><path class="cls-4" d="M369.58,135.55c0,.36,1.41.53,2.69,1.51s1.89,2.2,2.24,2.12c.17,0,.24-.47,0-1.1A4.24,4.24,0,0,0,373,136a4.32,4.32,0,0,0-2.41-.85C370,135.19,369.57,135.39,369.58,135.55Z" transform="translate(-6.49 -19.33)"/><path class="cls-9" d="M380.08,183.48c.38,7.33-.15,15.76-3.56,30.22A38,38,0,0,1,359.33,210l11.53-18.13Z" transform="translate(-6.49 -19.33)"/><path class="cls-7" d="M312.17,184.64s-7,10.2-7.74,12.77,11.82-5.82,11.82-5.82l2-4.78Z" transform="translate(-6.49 -19.33)"/><path class="cls-9" d="M328.27,163.56c-5.17,4.3-16.1,21.08-16.1,21.08l7.65,6.68,8.87-21.64Z" transform="translate(-6.49 -19.33)"/><path class="cls-10" d="M359.9,167.62l3.67-3.93s3.14,4,1.77,5.23-5.35,2.74-5.67,2.32S359.9,167.62,359.9,167.62Z" transform="translate(-6.49 -19.33)"/><path class="cls-10" d="M351,164.74s-3.41,1.9-4.57.92,2.43-5.43,3.54-5.78a23.68,23.68,0,0,1,4-.46Z" transform="translate(-6.49 -19.33)"/><path class="cls-2" d="M357.62,147.46c-.13.11.07.64.72,1.24a5.41,5.41,0,0,0,6.5.54c.74-.49,1-1,.91-1.11-.21-.28-1.9.85-4.15.65S357.88,147.22,357.62,147.46Z" transform="translate(-6.49 -19.33)"/><path class="cls-2" d="M349.45,216.21s2.67,2.58,1.7,3.82-4.31-1.58-4.31-1.58Z" transform="translate(-6.49 -19.33)"/><path class="cls-4" d="M73.13,184.93a7,7,0,0,1,5.7-4.73,10.26,10.26,0,0,1,7.36,2,19.84,19.84,0,0,1,5.12,5.85c1.36,2.23,2.49,4.59,3.8,6.84a10.8,10.8,0,0,0,2.7,3.36,4.32,4.32,0,0,0,4.09.73c1.76-.73,2.51-2.79,3-4.65.84,3.34,2.11,6.58,2.54,10s-.12,7.16-2.47,9.67a11.28,11.28,0,0,1-7.47,3.18,17.62,17.62,0,0,1-18-11.9c-1-3.09-1.23-6.37-1.85-9.54-.25-1.29-.45-3.14-1.34-4.17-.71-.84-1.74-1.21-2.38-2.18A5.55,5.55,0,0,1,73.13,184.93Z" transform="translate(-6.49 -19.33)"/><path class="cls-1" d="M130.94,336.33c0,4,1.11,8.37,1,10.24s3.55,12.28,4,17.11,3.06,48,3.06,48l-3.94,5.12-4.57-2s-1.05-17.87-4.75-27.54-6-24.72-6.25-36.56-7.95-23.61-8.09-33.55S130.94,336.33,130.94,336.33Z" transform="translate(-6.49 -19.33)"/><path class="cls-11" d="M76.89,237.72a28.2,28.2,0,0,1,21.59-9.58,45.26,45.26,0,0,1,16,3.72s-10.1,18.95-21,22.75c-16.18,5.63-16.6-12.18-16.6-12.18S73.34,241.59,76.89,237.72Z" transform="translate(-6.49 -19.33)"/><path class="cls-1" d="M82.67,235.59c.53,2.24,4.07,2.18,5.57,1.29a5.2,5.2,0,0,0,2.3-5.13l-3.23-20.89-9.21,13.9.32.56Z" transform="translate(-6.49 -19.33)"/><path class="cls-6" d="M89.83,227.15s-1.92,9.44-3.44,10-5.48-5.82-5.48-5.82-2.51,2.27-2.74,3.31c-.58,2.71,2.69,9.49,3.54,9.44,1.77-.11,3.91-5.64,5-5.91s6,2.88,6.64,2.39,3-9.25,1.51-11.09S89.83,227.15,89.83,227.15Z" transform="translate(-6.49 -19.33)"/><path class="cls-6" d="M87.31,240.6a.84.84,0,0,1,1.12.28.91.91,0,0,1-.25,1.18.88.88,0,0,1-1.31-.68A.76.76,0,0,1,87.31,240.6Z" transform="translate(-6.49 -19.33)"/><path class="cls-6" d="M89.6,245.85a.84.84,0,0,1,1.12.28.91.91,0,0,1-.25,1.18.88.88,0,0,1-1.31-.68A.76.76,0,0,1,89.6,245.85Z" transform="translate(-6.49 -19.33)"/><path class="cls-2" d="M83.46,229.4a15.34,15.34,0,0,0,3.22-3.64,31.48,31.48,0,0,0,2.3-4.13l-1.67-10.77-9.21,13.9.32.56,2.49,6C81.76,230.69,82.63,230.07,83.46,229.4Z" transform="translate(-6.49 -19.33)"/><path class="cls-1" d="M108.6,332.18s-3.49,5-2.51,14.1c2,18.49-1.94,31.65-2.65,36.65-1.2,8.49-2.94,15.87-3,24.19l-8.8-3c-.44-8.84.24-17.79.11-26.64-.22-15.37-.38-30.92-1.33-46.3C90.27,328.71,108.6,332.18,108.6,332.18Z" transform="translate(-6.49 -19.33)"/><polygon class="cls-1" points="93.95 387.79 94.48 393.33 93.17 396.96 86.65 394.99 85.04 390.89 85.15 384.81 93.95 387.79"/><polygon class="cls-12" points="140.13 400.7 140.67 403.04 123.43 403.23 123.31 400.89 140.13 400.7"/><path class="cls-6" d="M146.62,420a10.53,10.53,0,0,0-2.81-4.6,24,24,0,0,1-3.08-3.34s1.51-3.58.55-4.13-7.88.09-7.88.09.8,6.64.43,6.88-4.15-1.59-4.35-1.3.33,6.59.33,6.59Z" transform="translate(-6.49 -19.33)"/><path class="cls-3" d="M78.73,416.53c12.4-3.09,12.76-6.65,12.76-6.65a6,6,0,0,0,4.05,4c2.23.69,5.43-1.19,5.43-1.19l1,7.86-25.34.28S76,417.21,78.73,416.53Z" transform="translate(-6.49 -19.33)"/><path class="cls-3" d="M88.56,412.86a55.45,55.45,0,0,0,1.81-5.63c.2-1,3.76,1,3.78,1.93S93.84,415.16,88.56,412.86Z" transform="translate(-6.49 -19.33)"/><path class="cls-13" d="M87.77,284.35c-1.07,10.34,1,117.12,1,117.12s3.77,4.23,13.69,2.67l6.71-92.33,18.72,93.85s4.81,2.61,12.1-1.52l-9.12-92.57s1.71-16.82-3.37-26S87.77,284.35,87.77,284.35Z" transform="translate(-6.49 -19.33)"/><path class="cls-14" d="M130.19,288.89a6.42,6.42,0,0,0,2.86-3c-.78-1.13-1.64-2.29-2.55-3.42L122,287.62a3.7,3.7,0,0,0,0,4.25C124.15,289.91,127.6,290.21,130.19,288.89Z" transform="translate(-6.49 -19.33)"/><path class="cls-14" d="M87.57,286.88a50.6,50.6,0,0,0,23.91,5.4,48,48,0,0,0,17.38-3.78,21.3,21.3,0,0,0-1.32-2.94c-5.09-9.19-39.77-1.21-39.77-1.21C87.69,285.05,87.63,285.9,87.57,286.88Z" transform="translate(-6.49 -19.33)"/><polygon class="cls-14" points="95.86 283.33 100.5 289.25 102.35 309.13 102.72 292.48 102.04 287.5 95.86 283.33"/><path class="cls-11" d="M76.44,247.65s-6.85,12.81,5.25,15.73l5,13.59L110,269.23s.49-24.47-.14-29.6Z" transform="translate(-6.49 -19.33)"/><path class="cls-11" d="M81.55,262.46l4.84,31.68s21.84.76,33.33-19l-11.48-10.09Z" transform="translate(-6.49 -19.33)"/><path class="cls-4" d="M75,184.78c8,.32,13.76,4.19,16.12,8.23,4.21,7.21,3,17.6-.55,21.38s-11.38-17.87-11.38-17.87Z" transform="translate(-6.49 -19.33)"/><path class="cls-1" d="M86.15,199.38s4.08-4,6.81,1.7-1,8.22-2,9.16c0,0,3.84,10.77-8.38,17.21s-16-3.78-19.67-9.82-10.9-16-3.76-21.57S77.47,184.12,86.15,199.38Z" transform="translate(-6.49 -19.33)"/><path class="cls-2" d="M79.12,195.45c-2.4-1.31-5.34-1.08-8-.4a26.06,26.06,0,0,0-12.5,7.42,26.73,26.73,0,0,0-2.17,2.68,29.74,29.74,0,0,0,3.19,7.24,60.84,60.84,0,0,0,14.53-8.9c-.21-1.09-.47-2.09-.69-3.17a51,51,0,0,1,10.65,1.41C82.89,199.31,81.51,196.76,79.12,195.45Z" transform="translate(-6.49 -19.33)"/><path class="cls-4" d="M71.79,200.13a13.53,13.53,0,0,1,17,11.78c.07-3.41-1.66-6.53-2.85-9.72a3.32,3.32,0,0,1,.19-2.81,4,4,0,0,1,1.56-1S88.42,191,82.46,187,60.28,183.4,57,196.57Z" transform="translate(-6.49 -19.33)"/><path class="cls-4" d="M57,194.69c-6.47,6.05-5.31,12.39-.92,16.94,6.15-1.64,12.33-5.41,17.37-9.31A9.89,9.89,0,0,0,57,194.69Z" transform="translate(-6.49 -19.33)"/><path class="cls-7" d="M79.79,215.53a3.38,3.38,0,1,0,1.27-4.6A3.37,3.37,0,0,0,79.79,215.53Z" transform="translate(-6.49 -19.33)"/><path class="cls-4" d="M72.24,206.6c-.12,0-.08-.5.26-1.13a4.68,4.68,0,0,1,2-1.92,4.76,4.76,0,0,1,2.76-.49,3.09,3.09,0,0,1,.81.23c.18.09.26.18.25.24s-.13.1-.32.12l-.76.08a6.68,6.68,0,0,0-2.3.65A6.54,6.54,0,0,0,73,205.85C72.61,206.32,72.36,206.66,72.24,206.6Z" transform="translate(-6.49 -19.33)"/><path class="cls-4" d="M67.61,209.24c0,.13-.45.13-1.08.2a6.77,6.77,0,0,0-2.32.66,6.84,6.84,0,0,0-1.89,1.46l-.52.57c-.13.14-.23.21-.28.19s-.08-.15-.05-.35a3.06,3.06,0,0,1,.31-.79,4.8,4.8,0,0,1,4.77-2.4C67.26,208.88,67.64,209.13,67.61,209.24Z" transform="translate(-6.49 -19.33)"/><path class="cls-7" d="M67,222.79a3.37,3.37,0,1,0,1.26-4.6A3.38,3.38,0,0,0,67,222.79Z" transform="translate(-6.49 -19.33)"/><path class="cls-4" d="M75.73,209.69a1.85,1.85,0,1,0,.69-2.52A1.84,1.84,0,0,0,75.73,209.69Z" transform="translate(-6.49 -19.33)"/><path class="cls-4" d="M66.56,214.9a1.85,1.85,0,1,0,.7-2.52A1.85,1.85,0,0,0,66.56,214.9Z" transform="translate(-6.49 -19.33)"/><path class="cls-7" d="M90.23,200.11c1.29,1.15,1.65,3,1.93,4.7a2.76,2.76,0,0,1,0,1.51.93.93,0,0,1-1.25.53c-.42-.26-.42-.86-.44-1.35s-.24-1.12-.74-1.12c-.23,0-.44.14-.67.16-.5,0-.83-.5-1-1a7.38,7.38,0,0,1-.4-2,1.93,1.93,0,0,1,.66-1.83A1.74,1.74,0,0,1,90.23,200.11Z" transform="translate(-6.49 -19.33)"/><path class="cls-2" d="M75.83,216.61c-.07-.05-.2,0-.37.11a1.76,1.76,0,0,1-.6.29.32.32,0,0,1-.25,0,.68.68,0,0,1-.12-.19c-.1-.25-.23-.84-.39-1.33-.64-2.05-1.42-3.63-1.75-3.53s-.08,1.85.55,3.9a8.22,8.22,0,0,0,.59,1.53,1.36,1.36,0,0,0,.87.63,1.29,1.29,0,0,0,.87-.17,1.48,1.48,0,0,0,.63-.81C75.92,216.8,75.9,216.66,75.83,216.61Z" transform="translate(-6.49 -19.33)"/><path class="cls-2" d="M78.27,216.2c-.35,0-.47,1.25-1.3,2.39s-1.88,1.68-1.8,2c0,.16.42.24,1,.07a3.76,3.76,0,0,0,2.51-3.58C78.65,216.51,78.43,216.18,78.27,216.2Z" transform="translate(-6.49 -19.33)"/><path class="cls-11" d="M78.19,236.39c-10.57,8.89-10.17,17.51-11,30.84l2.51.68s10.46,5.36,14.24,5.08Z" transform="translate(-6.49 -19.33)"/><path class="cls-1" d="M130.93,278.82c-.37,1.66-2.29,1.95-4.11,2.16s-7.13.82-8,1.72-1.54,4.81-1,5.22,1.91-3.88,2.3-4.06,2.16-.57,2.16-.57-2.36,2.74-2.61,3.81-.53,3.59-.28,3.87,1.34-.52,1.34-.52-.19,1.44.42,1.27,2.62-4,3.1-4.49,3.31,2.3,6.8-.08,6.39-14.86,8.41-20.54,4.89-18.75,3.59-22.24-17.33-9.53-17.33-9.53l-4.54,9.46s11.19,3.92,11.73,4.22S131.7,275.31,130.93,278.82Z" transform="translate(-6.49 -19.33)"/><path class="cls-2" d="M129.16,236.22c-2-.84-3.43-1.38-3.43-1.38l-4.54,9.46,5.65,2Q127.83,241.21,129.16,236.22Z" transform="translate(-6.49 -19.33)"/><polygon class="cls-12" points="95.47 401.19 96.01 403.53 70.25 403.81 70.13 401.47 95.47 401.19"/><path class="cls-4" d="M346.64,219.27A20.91,20.91,0,0,1,351,208.61c2.26-2.67,5.35-4.52,7.68-7.13,2.48-2.79,4-6.33,6.59-9,5.31-5.53,12.31-9,22.19-6.29,7,1.89,13.21,8.39,15,15.39,1.33,5.13-.29,10.57-2.55,15.37s-5.17,9.33-6.63,14.43a19.5,19.5,0,0,0-.06,10.92c1,3.44,3.59,5.94,6.3,8.14s5.87,4.53,7.45,7.79a12.94,12.94,0,0,1-1.1,12.36A19,19,0,0,1,395.65,278a25.82,25.82,0,0,1-26.15-6.91A26.81,26.81,0,0,1,364,244.53c.82-2.35,2-4.82,1.32-7.22a6.58,6.58,0,0,0-4.71-4.24,16.19,16.19,0,0,0-6.58-.1,13.67,13.67,0,0,1-4.46.19,4.53,4.53,0,0,1-2.58-1.43c-.85-1-.64-2.25-.69-3.48A50.81,50.81,0,0,1,346.64,219.27Z" transform="translate(-6.49 -19.33)"/><path class="cls-1" d="M323.72,336.33c0,4-1.1,8.37-1,10.24s-3.55,12.28-4,17.11-3.06,48-3.06,48l3.94,5.12,4.57-2s1.05-17.87,4.75-27.54,6-24.72,6.25-36.56,8-23.61,8.09-33.55S323.72,336.33,323.72,336.33Z" transform="translate(-6.49 -19.33)"/><path class="cls-6" d="M377.77,237.72a28.2,28.2,0,0,0-21.59-9.58,45.26,45.26,0,0,0-16,3.72s10.36,18.29,21,22.75,16.6-12.18,16.6-12.18S381.32,241.59,377.77,237.72Z" transform="translate(-6.49 -19.33)"/><path class="cls-8" d="M379.79,236c-5.93-6.44-16.51-12.17-23-11.49l4.17,4.13A58.27,58.27,0,0,1,375,235.05l3,1.5Z" transform="translate(-6.49 -19.33)"/><path class="cls-1" d="M372,235.59c-.53,2.24-3.55.82-5-.08-2.23-1.32-2.95-2.38-2.83-3.76l3.23-20.89,9.21,13.9-.32.56Z" transform="translate(-6.49 -19.33)"/><path class="cls-2" d="M371.2,229.4a15.34,15.34,0,0,1-3.22-3.64,31.48,31.48,0,0,1-2.3-4.13l1.67-10.77,9.21,13.9-.32.56-2.49,6C372.9,230.69,372,230.07,371.2,229.4Z" transform="translate(-6.49 -19.33)"/><path class="cls-1" d="M346.07,332.18s3.49,5,2.51,14.1c-2,18.49,1.93,31.65,2.64,36.65,1.2,8.49,2.94,15.87,3,24.19l8.8-3c.44-8.84-.23-17.79-.11-26.64.23-15.37.38-30.92,1.33-46.3C364.39,328.71,346.07,332.18,346.07,332.18Z" transform="translate(-6.49 -19.33)"/><polygon class="cls-1" points="347.73 387.79 347.2 393.33 348.51 396.96 355.03 394.99 356.63 390.89 356.52 384.81 347.73 387.79"/><polygon class="cls-12" points="301.55 400.7 301.01 403.04 318.25 403.23 318.36 400.89 301.55 400.7"/><path class="cls-15" d="M308,420a10.53,10.53,0,0,1,2.81-4.6,24,24,0,0,0,3.08-3.34s-1.51-3.58-.54-4.13,7.88.09,7.88.09-.81,6.64-.44,6.88,4.16-1.59,4.36-1.3-.33,6.59-.33,6.59Z" transform="translate(-6.49 -19.33)"/><path class="cls-15" d="M375.93,416.53c-12.39-3.09-12.76-6.65-12.76-6.65a6,6,0,0,1-4.05,4c-2.23.69-5.43-1.19-5.43-1.19l-1,7.86,25.34.28S378.66,417.21,375.93,416.53Z" transform="translate(-6.49 -19.33)"/><path class="cls-15" d="M366.1,412.86a55.45,55.45,0,0,1-1.81-5.63c-.2-1-3.75,1-3.78,1.93S360.82,415.16,366.1,412.86Z" transform="translate(-6.49 -19.33)"/><path class="cls-16" d="M366.89,284.35c1.07,10.34.81,53.2.81,53.2s-11.73,3.15-21.64,1.59l-.61-27.33L341.73,340s-14.33,1.4-21.63-2.72l3.65-25.75s-1.71-16.82,3.37-26S366.89,284.35,366.89,284.35Z" transform="translate(-6.49 -19.33)"/><path class="cls-14" d="M324.47,288.89a6.42,6.42,0,0,1-2.86-3c.79-1.13,1.64-2.29,2.55-3.42l8.48,5.16a3.7,3.7,0,0,1,0,4.25C330.51,289.91,327.06,290.21,324.47,288.89Z" transform="translate(-6.49 -19.33)"/><path class="cls-17" d="M367.09,286.88a50.6,50.6,0,0,1-23.91,5.4,48,48,0,0,1-17.38-3.78,21.3,21.3,0,0,1,1.32-2.94c5.09-9.19,39.77-1.21,39.77-1.21C367,285.05,367,285.9,367.09,286.88Z" transform="translate(-6.49 -19.33)"/><path class="cls-6" d="M378.23,247.65s6.84,12.81-5.26,15.73L368,277l-23.29-7.74s-.49-24.47.15-29.6Z" transform="translate(-6.49 -19.33)"/><path class="cls-6" d="M373.11,262.46l-4.84,31.68s-21.84.76-33.33-19l11.48-10.09Z" transform="translate(-6.49 -19.33)"/><path class="cls-1" d="M368.51,199.38s-4.08-4-6.81,1.7,1.05,8.22,2,9.16c0,0-3.84,10.77,8.38,17.21s16-3.78,19.67-9.82,10.9-16,3.76-21.57S377.19,184.12,368.51,199.38Z" transform="translate(-6.49 -19.33)"/><path class="cls-2" d="M396.78,209a43.62,43.62,0,0,0-2.58-7.92c-1.19-2.86-2.71-5.85-5.48-7.24a13.18,13.18,0,0,0-5.71-1,30.41,30.41,0,0,0-10.59,1.24c-.21.22-.43.45-.64.69l1.08,2.09a17.59,17.59,0,0,0,12.91,1.24,40.5,40.5,0,0,0,1.7,12,17.83,17.83,0,0,0,4.56,7.22A82.39,82.39,0,0,0,396.78,209Z" transform="translate(-6.49 -19.33)"/><path class="cls-7" d="M374.87,215.53a3.38,3.38,0,1,1-1.27-4.6A3.37,3.37,0,0,1,374.87,215.53Z" transform="translate(-6.49 -19.33)"/><path class="cls-4" d="M382.42,206.6c.12,0,.08-.5-.26-1.13a4.62,4.62,0,0,0-2-1.92,4.74,4.74,0,0,0-2.75-.49,3.19,3.19,0,0,0-.82.23c-.18.09-.26.18-.25.24s.13.1.32.12l.76.08a6.62,6.62,0,0,1,2.3.65,6.54,6.54,0,0,1,1.91,1.47C382.05,206.32,382.3,206.66,382.42,206.6Z" transform="translate(-6.49 -19.33)"/><path class="cls-4" d="M387.05,209.24c0,.13.45.13,1.08.2a6.77,6.77,0,0,1,2.32.66,6.69,6.69,0,0,1,1.89,1.46l.52.57c.13.14.23.21.29.19s.07-.15,0-.35a3.06,3.06,0,0,0-.31-.79,4.77,4.77,0,0,0-4.76-2.4C387.4,208.88,387,209.13,387.05,209.24Z" transform="translate(-6.49 -19.33)"/><path class="cls-7" d="M387.69,222.79a3.37,3.37,0,1,1-1.26-4.6A3.37,3.37,0,0,1,387.69,222.79Z" transform="translate(-6.49 -19.33)"/><path class="cls-4" d="M378.93,209.69a1.85,1.85,0,1,1-.69-2.52A1.84,1.84,0,0,1,378.93,209.69Z" transform="translate(-6.49 -19.33)"/><path class="cls-4" d="M388.1,214.9a1.85,1.85,0,1,1-.7-2.52A1.84,1.84,0,0,1,388.1,214.9Z" transform="translate(-6.49 -19.33)"/><path class="cls-7" d="M364.43,200.11c-1.29,1.15-1.64,3-1.93,4.7a2.76,2.76,0,0,0,0,1.51.93.93,0,0,0,1.25.53c.42-.26.42-.86.44-1.35s.24-1.12.74-1.12c.23,0,.44.14.67.16.5,0,.84-.5,1-1a7.38,7.38,0,0,0,.4-2,1.93,1.93,0,0,0-.66-1.83A1.74,1.74,0,0,0,364.43,200.11Z" transform="translate(-6.49 -19.33)"/><path class="cls-2" d="M378.83,216.61c.07-.05.2,0,.37.11a1.76,1.76,0,0,0,.6.29.32.32,0,0,0,.25,0,.68.68,0,0,0,.12-.19c.1-.25.23-.84.39-1.33.64-2.05,1.42-3.63,1.75-3.53s.08,1.85-.55,3.9a8.22,8.22,0,0,1-.59,1.53,1.36,1.36,0,0,1-.87.63,1.29,1.29,0,0,1-.87-.17,1.45,1.45,0,0,1-.62-.81C378.74,216.8,378.76,216.66,378.83,216.61Z" transform="translate(-6.49 -19.33)"/><path class="cls-2" d="M376.39,216.2c.35,0,.47,1.25,1.3,2.39s1.88,1.68,1.8,2c0,.16-.42.24-1,.07a3.54,3.54,0,0,1-1.84-1.39,3.58,3.58,0,0,1-.68-2.19C376,216.51,376.23,216.18,376.39,216.2Z" transform="translate(-6.49 -19.33)"/><path class="cls-15" d="M375,235.05,362,294.86l6.88,1.3L374.07,267s4.9-3.52,6-7.1-1-20-1-20Z" transform="translate(-6.49 -19.33)"/><path class="cls-15" d="M377.77,238.1c10.57,8.89,8.87,15.8,9.72,29.13l-2.5.68s-10.47,5.36-14.25,5.08Z" transform="translate(-6.49 -19.33)"/><path class="cls-8" d="M375,235.05s4,0,4.77.95.36,8.2-.71,8.3C378.54,244.35,375,235.05,375,235.05Z" transform="translate(-6.49 -19.33)"/><path class="cls-1" d="M323.73,278.82c.37,1.66,2.29,1.95,4.12,2.16s7.12.82,8,1.72,1.54,4.81,1,5.22-1.91-3.88-2.3-4.06-2.16-.57-2.16-.57,2.36,2.74,2.62,3.81.52,3.59.27,3.87-1.34-.52-1.34-.52.19,1.44-.42,1.27-2.62-4-3.1-4.49-3.3,2.3-6.8-.08-6.39-14.86-8.4-20.54-4.9-18.75-3.59-22.24,17.32-9.53,17.32-9.53l4.54,9.46s-11.19,3.92-11.73,4.22S323,275.31,323.73,278.82Z" transform="translate(-6.49 -19.33)"/><path class="cls-2" d="M325.5,236.22c2-.84,3.43-1.38,3.43-1.38l4.54,9.46-5.65,2Q326.83,241.21,325.5,236.22Z" transform="translate(-6.49 -19.33)"/><path class="cls-15" d="M361,228.64s5.05,18-20.27,58L329.3,275l12.25-11.69L342.71,243,331,249.3l-5.21-15.82s13.82-6.52,15.06-7,16.74.8,16.74.8Z" transform="translate(-6.49 -19.33)"/><path class="cls-8" d="M361,228.64s-2.67-3-3.76-4.06-5.32,6-4.57,7.26S361,228.64,361,228.64Z" transform="translate(-6.49 -19.33)"/><polygon class="cls-12" points="346.21 401.19 345.67 403.53 371.43 403.81 371.55 401.47 346.21 401.19"/><path class="cls-4" d="M367.22,197.39a8.22,8.22,0,0,1,.92,6.26,19.37,19.37,0,0,1-2.66,5.88,54.34,54.34,0,0,0,8.32-11.84,18.62,18.62,0,0,0,13.2-1.61,20,20,0,0,0,9.15,20.45,28.36,28.36,0,0,0,3.94-8.32,14.45,14.45,0,0,0-.42-9.08,15.51,15.51,0,0,0-7.34-7.4,21.27,21.27,0,0,0-13.66-2.2A18.45,18.45,0,0,0,367.22,197.39Z" transform="translate(-6.49 -19.33)"/><path class="cls-2" d="M349.45,108.68s2.67,2.58,1.7,3.82-4.31-1.58-4.31-1.58Z" transform="translate(-6.49 -19.33)"/><path class="cls-2" d="M98.48,104.54s-2.66,2.59-1.69,3.82,4.3-1.58,4.3-1.58Z" transform="translate(-6.49 -19.33)"/><rect class="cls-18" x="21.98" y="95.6" width="403.5" height="250.96" transform="translate(-3.85 425.47) rotate(-90)"/><path class="cls-1" d="M81.76,271.42l11.88-16.8a26.46,26.46,0,0,0-.69-5.28c-.68-2.93-2.14-4.26-2.68-5.67s3.64-4.8,5.43-5.57c2.17-.93,4.72-1.19,4.57,0s-1.79,3.19-1.79,3.19,2.15.55,2.41,2c.14.84-2.31,2-2.31,2s1.22.37,2,2.74c.39,1.09,1.07,2.65-.29,6.42-.88,2.44-2.27,7.35-3.73,13.46C94.55,276.55,81.76,271.42,81.76,271.42Z" transform="translate(-6.49 -19.33)"/><path class="cls-1" d="M81.76,271.42l-12.08-3.51s3,17.3,7.66,18.73c7.47,2.31,14.11-3.05,19.27-18.73Z" transform="translate(-6.49 -19.33)"/><path class="cls-1" d="M372.8,271.42,385,267.91s-3.14,17.3-7.77,18.73c-7.47,2.31-14-3.05-19.17-18.73Z" transform="translate(-6.49 -19.33)"/><path class="cls-1" d="M348.71,204.6c-.66,3.92-1.24,7.86-1.85,11.79,4.39,2.18,6.33,3.21,6.8,1.43.52-2-1.7-3.65-1.7-3.65s2.15-2.17.47-3.45-.29-.65-.74-4C351.33,204,350,204.84,348.71,204.6Z" transform="translate(-6.49 -19.33)"/><path class="cls-1" d="M350.87,218.29c-4.77-1.44-9.19-5.6-4.23-6.09,0,0-3.83-4.72,1.42-4,0,0-3.67-5.59,2.24-3.52Z" transform="translate(-6.49 -19.33)"/><path class="cls-1" d="M348.71,97.07c-.66,3.92-1.24,7.85-1.85,11.78,4.39,2.19,6.33,3.22,6.8,1.44.52-2-1.7-3.66-1.7-3.66s2.15-2.16.47-3.44-.29-.66-.74-4C351.33,96.5,350,97.3,348.71,97.07Z" transform="translate(-6.49 -19.33)"/><path class="cls-1" d="M350.87,110.76c-4.77-1.44-9.19-5.6-4.23-6.1,0,0-3.83-4.71,1.42-4,0,0-3.67-5.59,2.24-3.52Z" transform="translate(-6.49 -19.33)"/><path class="cls-1" d="M99.22,92.93c.66,3.92,1.25,7.86,1.85,11.79-4.39,2.18-6.32,3.22-6.79,1.44-.53-2,1.69-3.66,1.69-3.66s-2.15-2.16-.46-3.44.28-.66.73-4C96.6,92.36,97.9,93.17,99.22,92.93Z" transform="translate(-6.49 -19.33)"/><path class="cls-1" d="M97.06,106.63c4.78-1.44,9.19-5.61,4.23-6.1,0,0,3.84-4.71-1.42-4,0,0,3.67-5.6-2.24-3.52Z" transform="translate(-6.49 -19.33)"/><path class="cls-1" d="M372.9,271.42,361,254.62a26.46,26.46,0,0,1,.69-5.28c.68-2.93,2.14-4.26,2.68-5.67s-3.64-4.8-5.43-5.57c-2.17-.93-4.72-1.19-4.57,0s1.79,3.19,1.79,3.19-2.15.55-2.41,2c-.14.84,2.31,2,2.31,2s-1.22.37-2.05,2.74c-.39,1.09-1.07,2.65.29,6.42.88,2.44,2.27,7.35,3.73,13.46C360.11,276.55,372.9,271.42,372.9,271.42Z" transform="translate(-6.49 -19.33)"/><path class="cls-4" d="M392.4,132s5.53-7.51-1.29-12.36S375,113.37,375,113.37l-2.9-11.52s-7.3,1.59-3.87,10.23L358.37,99.5s-9.29,12.5,3.31,18.87l-10.81-.68s-1,3.87,5.58,4.4l-5.58,2s0,7.12,17.09,2.88l-7.33,3.26s9,7.35,19.81,3.25a7.35,7.35,0,0,0,.19,7s-4.09,6.16-2.41,7,3.21-4.41,5.85-4.23,4-8,4-8Z" transform="translate(-6.49 -19.33)"/><text class="cls-19" transform="translate(147.67 182.98)"><tspan class="cls-20">S</tspan><tspan x="12.49" y="0">ele</tspan><tspan class="cls-21" x="45.44" y="0">c</tspan><tspan class="cls-22" x="56.05" y="0">t one</tspan><tspan class="cls-23" x="111.16" y="0"> </tspan><tspan class="cls-24" x="115.75" y="0">W</tspan><tspan x="136.37" y="0">s </tspan><tspan x="-19.3" y="37.2">subscription plan</tspan></text></svg>