<?xml version="1.0" encoding="utf-8"?>
<!-- Generator: Adobe Illustrator 22.1.0, SVG Export Plug-In . SVG Version: 6.00 Build 0)  -->
<svg xmlns="http://www.w3.org/2000/svg" xmlns:xlink="http://www.w3.org/1999/xlink" version="1.1" id="Layer_1" x="0px" y="0px" viewBox="0 0 256 256" style="enable-background:new 0 0 256 256;" xml:space="preserve" width="512" height="512">
<style type="text/css">
	.st0{fill:#FFDF74;}
	.st1{fill:#FCE575;}
	.st2{fill:#FFD551;}
	.st3{fill:#F9BB32;}
	.st4{fill:#FFF4C1;}
	.st5{fill:#DB9C2E;}
	.st6{fill:#FFC34C;}
	.st7{fill:#FFEA63;}
	.st8{fill:#A56021;}
	.st9{fill:#E58D23;}
	.st10{fill:#CCC033;}
	.st11{fill:#99AF17;}
	.st12{fill:#FCDA4F;}
	.st13{fill:#8C4C17;}
	.st14{fill:#BF6C0D;}
	.st15{fill:#FFA730;}
	.st16{fill:#FF624B;}
	.st17{fill:#FCF9DE;}
	.st18{fill:#FFEACF;}
	.st19{fill:#FFD59A;}
	.st20{fill:#EACF32;}
	.st21{fill:#FF4B34;}
	.st22{fill:#FF9079;}
	.st23{fill:#FFB74B;}
</style>
<g>
	<g>
		<g>
			<path class="st14" d="M222.983,203.302v6h10.667c1.657,0,3,1.343,3,3v9.069c0,1.657-1.343,3-3,3h-10.667v6h16.667     c1.657,0,3-1.343,3-3v-21.069c0-1.657-1.343-3-3-3H222.983z"/>
		</g>
	</g>
	<g>
		<g>
			<path class="st10" d="M203.662,248h-175v-18.359c0-32.439,26.297-58.735,58.735-58.735h57.529     c32.439,0,58.735,26.297,58.735,58.735V248z"/>
		</g>
	</g>
	<g>
		<g>
			<path class="st11" d="M56.662,237.641c0-32.439,26.297-58.735,58.735-58.735h57.529c0.555,0,1.103,0.027,1.654,0.042     c-8.705-5.103-18.834-8.042-29.654-8.042H87.397c-32.439,0-58.735,26.297-58.735,58.735V248h28V237.641z"/>
		</g>
	</g>
	<g>
		<g>
			<path class="st13" d="M66.101,114.355h19.977v-71.99c0-6.634-5.378-12.011-12.011-12.011h-7.966     c-6.634,0-12.011,5.378-12.011,12.011v59.979C54.09,108.978,59.467,114.355,66.101,114.355z"/>
		</g>
	</g>
	<g>
		<g>
			<path class="st13" d="M166.545,24.181h-8.146c-6.584,0-11.921,5.373-11.921,12V46.63c12.901,9.66,21.259,25.123,21.259,42.552     v18.94c6.024-0.602,10.729-5.717,10.729-11.94V36.181C178.467,29.554,173.129,24.181,166.545,24.181z"/>
		</g>
	</g>
	<g>
		<g>
			<ellipse class="st18" cx="168.93" cy="93.737" rx="17.029" ry="17.142"/>
		</g>
	</g>
	<g>
		<g>
			<ellipse class="st19" cx="61.64" cy="99.94" rx="17.029" ry="17.142"/>
		</g>
	</g>
	<g>
		<g>
			<path class="st18" d="M116.162,203.302L116.162,203.302c-13.395,0-24.254-10.859-24.254-24.254v-58.381h48.507v58.381     C140.415,192.444,129.557,203.302,116.162,203.302z"/>
		</g>
	</g>
	<g>
		<g>
			<path class="st19" d="M108.699,178.888v-58.219H91.908v58.219c0,13.484,10.859,24.415,24.254,24.415l0,0     c2.952,0,5.779-0.532,8.396-1.504C115.3,198.36,108.699,189.4,108.699,178.888z"/>
		</g>
	</g>
	<g>
		<g>
			<path class="st18" d="M116.278,160.968L116.278,160.968c-29.079,0-52.652-23.573-52.652-52.651V80.636     c0-29.079,23.573-52.651,52.651-52.651h0c29.079,0,52.651,23.573,52.651,52.651v27.681     C168.93,137.396,145.357,160.968,116.278,160.968z"/>
		</g>
	</g>
	<g>
		<g>
			<path class="st19" d="M82.104,101.295V74.985c0-2.007,0.112-3.987,0.328-5.936c0.335-3.017,2.905-5.28,5.92-5.28h77.734     c-7.1-20.82-26.717-35.785-49.809-35.785c-2.261,0-4.486,0.148-6.672,0.426c0.003-0.002,0.006-0.004,0.01-0.006     c-0.169,0.021-0.334,0.053-0.502,0.076c-0.555,0.076-1.109,0.157-1.658,0.25c-0.266,0.045-0.53,0.097-0.795,0.146     c-0.486,0.09-0.971,0.185-1.452,0.289c-0.279,0.06-0.557,0.124-0.835,0.188c-0.469,0.109-0.935,0.225-1.399,0.347     c-0.272,0.071-0.543,0.142-0.813,0.218c-0.481,0.134-0.957,0.278-1.433,0.426c-0.242,0.075-0.486,0.147-0.727,0.226     c-0.569,0.186-1.133,0.385-1.693,0.589c-0.139,0.051-0.279,0.096-0.417,0.148c-0.697,0.262-1.387,0.538-2.069,0.828     c-0.178,0.076-0.352,0.158-0.529,0.236c-0.5,0.219-0.997,0.442-1.489,0.676c-0.246,0.117-0.488,0.24-0.732,0.361     c-0.418,0.207-0.834,0.417-1.245,0.635c-0.261,0.138-0.519,0.279-0.777,0.421c-0.391,0.215-0.778,0.435-1.163,0.66     c-0.258,0.151-0.515,0.302-0.77,0.457c-0.386,0.235-0.767,0.476-1.147,0.72c-0.24,0.154-0.481,0.306-0.718,0.465     c-0.418,0.279-0.829,0.567-1.239,0.857c-0.188,0.134-0.38,0.262-0.567,0.398c-0.58,0.422-1.151,0.856-1.712,1.301     c-0.175,0.139-0.343,0.284-0.516,0.425c-0.392,0.319-0.782,0.639-1.164,0.969c-0.228,0.197-0.451,0.4-0.676,0.601     c-0.319,0.284-0.637,0.57-0.948,0.862c-0.236,0.221-0.468,0.446-0.7,0.671c-0.292,0.284-0.582,0.571-0.868,0.862     c-0.231,0.235-0.46,0.471-0.687,0.71c-0.279,0.295-0.554,0.595-0.826,0.896c-0.219,0.242-0.439,0.483-0.654,0.73     c-0.28,0.321-0.553,0.65-0.825,0.978c-0.194,0.234-0.392,0.464-0.583,0.702c-0.399,0.498-0.788,1.004-1.169,1.517     c-0.198,0.266-0.389,0.537-0.582,0.807c-0.267,0.373-0.534,0.745-0.791,1.125c-0.189,0.279-0.369,0.563-0.553,0.845     c-0.215,0.33-0.429,0.66-0.636,0.996c-0.186,0.3-0.366,0.604-0.546,0.908c-0.194,0.327-0.384,0.656-0.571,0.988     c-0.176,0.313-0.349,0.626-0.518,0.943c-0.179,0.334-0.353,0.671-0.525,1.01c-0.163,0.319-0.325,0.638-0.481,0.961     c-0.17,0.351-0.331,0.707-0.494,1.063c-0.144,0.316-0.292,0.63-0.431,0.95c-0.187,0.431-0.361,0.868-0.537,1.305     c-0.191,0.476-0.375,0.955-0.552,1.438c-0.146,0.395-0.295,0.789-0.431,1.188h0.004c-1.841,5.399-2.847,11.189-2.847,17.216     v26.342c0,29.159,23.129,53.336,52.094,53.638c9.312,0.097,18.074-2.24,25.697-6.418c-2.299,0.292-4.643,0.436-7.025,0.42     C105.346,154.769,82.104,130.535,82.104,101.295z"/>
		</g>
	</g>
	<g>
		<g>
			<path class="st8" d="M148.653,55.969H60.674c-9.882,0-17.893-8.011-17.893-17.893V8h105.872c9.882,0,17.893,8.011,17.893,17.893     v12.183C166.545,47.958,158.535,55.969,148.653,55.969z"/>
		</g>
	</g>
	<g>
		<g>
			<path class="st14" d="M148.652,50.969c-1.657,0-3-1.343-3-3s1.343-3,3-3c3.801,0,6.893-3.092,6.893-6.893V25.893     c0-1.657,1.343-3,3-3s3,1.343,3,3v12.184C161.545,45.186,155.762,50.969,148.652,50.969z"/>
		</g>
	</g>
	<g>
		<g>
			<g>
				<ellipse class="st8" cx="86.475" cy="94.476" rx="6.557" ry="6.6"/>
			</g>
		</g>
		<g>
			<g>
				<ellipse class="st8" cx="146.081" cy="94.476" rx="6.557" ry="6.6"/>
			</g>
		</g>
	</g>
	<g>
		<g>
			<path class="st13" d="M70.781,38.076V8h-28v30.076c0,9.882,8.011,17.893,17.893,17.893h28     C78.792,55.969,70.781,47.958,70.781,38.076z"/>
		</g>
	</g>
	<g>
		<g>
			<circle class="st13" cx="86.475" cy="40.667" r="9"/>
		</g>
	</g>
	<g>
		<g>
			<circle class="st11" cx="70.084" cy="235.365" r="9"/>
		</g>
	</g>
	<g>
		<g>
			<path class="st14" d="M221.983,248h-31.655c-4.418,0-8-3.582-8-8v-52c0-1.105,0.895-2,2-2h43.655c1.105,0,2,0.895,2,2v52     C229.983,244.418,226.401,248,221.983,248z"/>
		</g>
	</g>
	<g>
		<g>
			<path class="st0" d="M186.348,247.992H44.142c-2.732,0-4.946-2.215-4.946-4.946v-6.183c0-1.366,1.107-2.473,2.473-2.473h147.153     c1.366,0,2.473,1.107,2.473,2.473v6.183C191.295,245.778,189.08,247.992,186.348,247.992z"/>
		</g>
	</g>
	<g>
		<g>
			<path class="st3" d="M145.306,248H21.128c-4.295,0-7.777-3.482-7.777-7.777v-87.945c0-4.295,3.482-7.777,7.777-7.777h124.179     c4.295,0,7.777,3.482,7.777,7.777v87.945C153.084,244.518,149.602,248,145.306,248z"/>
		</g>
	</g>
	<g>
		<g>
			<path class="st6" d="M145.084,243c-1.657,0-3-1.343-3-3v-87.5c0-1.657,1.343-3,3-3s3,1.343,3,3V240     C148.084,241.657,146.741,243,145.084,243z"/>
		</g>
	</g>
	<g>
		<g>
			<circle class="st0" cx="81.701" cy="196.25" r="14.484"/>
		</g>
	</g>
	<g>
		<g>
			<path class="st5" d="M41.35,240.223v-87.945c0-4.295,3.482-7.777,7.777-7.777h-28c-4.295,0-7.777,3.482-7.777,7.777v87.945     c0,4.295,3.482,7.777,7.777,7.777h28C44.832,248,41.35,244.518,41.35,240.223z"/>
		</g>
	</g>
	<g>
		<g>
			<path class="st8" d="M202.328,240v-52c0-1.104,0.895-2,2-2h-20c-1.105,0-2,0.896-2,2v52c0,4.418,3.582,8,8,8h20     C205.91,248,202.328,244.418,202.328,240z"/>
		</g>
	</g>
	<g>
		<g>
			<circle class="st8" cx="213.288" cy="235.365" r="9"/>
		</g>
	</g>
</g>
</svg>
