<svg height="512pt" viewBox="0 0 512.34726 512" width="512pt" xmlns="http://www.w3.org/2000/svg"><path d="m200.347656 104.28125c0 53.019531-42.980468 96-96 96-53.019531 0-96-42.980469-96-96s42.980469-96 96-96c53.019532 0 96 42.980469 96 96zm0 0" fill="#91e8ed"/><path d="m376.84375 96.664062 54.992188 19.175782 36.566406 45.328125 27.945312-136.886719zm0 0" fill="#ffea00"/><path d="m208.578125 240.867188c-.144531-.34375-.230469-.585938-.230469-.585938l-113.03125 33.242188c-13.621094 4.003906-22.972656 16.507812-22.96875 30.703124v208.054688h368v-208.054688c0-14.195312-9.347656-26.699218-22.96875-30.703124l-113.03125-33.242188s-.089844.242188-.230468.585938zm0 0" fill="#00c3ff"/><path d="m208.347656 200.28125v39.839844c11.273438 15.199218 29.078125 24.160156 48 24.160156s36.726563-8.960938 48-24.160156v-39.839844zm0 0" fill="#ffdecf"/><path d="m328.347656 48.28125v64c8.835938 0 16 7.164062 16 16 .003906 10.347656-3.574218 20.375-10.128906 28.382812l-5.871094 7.203126v20.414062l-48 32h-48l-48-32v-20.441406l-5.871094-7.199219c-6.546874-8-10.125-18.019531-10.128906-28.359375 0-8.835938 7.164063-16 16-16v-64zm0 0" fill="#ffdecf"/><path d="m328.347656 92.28125c.042969-17.246094-11.003906-32.570312-27.382812-37.980469-16.378906-5.410156-34.378906.316407-44.617188 14.195313-10.242187-13.878906-28.242187-19.605469-44.617187-14.195313-16.378907 5.410157-27.425781 20.734375-27.382813 37.980469v-84h144zm0 0" fill="#50575e"/><path d="m232.347656 296.28125h240c17.671875 0 32 14.328125 32 32v176h-304v-176c0-17.671875 14.328125-32 32-32zm0 0" fill="#91e8ed"/><path d="m200.347656 464.28125h304v40h-304zm0 0" fill="#e4e8ed"/><path d="m352.347656 365.769531c-7.320312-7.320312-19.191406-7.320312-26.511718 0-7.320313 7.320313-7.320313 19.191407 0 26.511719l26.511718 26.511719 26.511719-26.511719c7.320313-7.320312 7.320313-19.191406 0-26.511719-7.320313-7.320312-19.191406-7.320312-26.511719 0zm0 0" fill="#ff8a80"/><path d="m72.347656 392.28125h56v120h-56zm0 0" fill="#ffdecf"/><path d="m80.347656 512.28125c0-19.882812-16.117187-36-36-36-19.882812 0-36 16.117188-36 36zm0 0" fill="#ffdecf"/><g fill="#fff"><path d="m96.347656 32.28125h16v16h-16zm0 0"/><path d="m32.347656 96.28125h16v16h-16zm0 0"/><path d="m96.347656 160.28125h16v16h-16zm0 0"/></g><path d="m264.347656 152.28125h-16v-40h-16v56h32zm0 0"/><path d="m472.347656 288.28125h-27.496094c-4.699218-10.8125-13.925781-19.007812-25.214843-22.398438l-65.195313-19.203124 6.707032-10.351563-13.441407-8.6875-9.273437 14.328125-26.085938-7.671875v-29.734375l24-16v-21.882812l4.054688-4.957032c7.710937-9.441406 11.929687-21.25 11.945312-33.441406-.011718-10.167969-6.417968-19.230469-16-22.632812v-105.367188h-160v29.105469c-40.996094-39.601563-106.222656-38.847657-146.292968 1.691406-40.074219 40.535156-40.074219 105.765625 0 146.304687 40.070312 40.535157 105.296874 41.289063 146.292968 1.691407v9.488281l24 16v29.734375l-107.289062 31.585937c-16.96875 5.066407-28.625 20.636719-28.710938 38.34375v168.910157c-13.628906-7-29.921875-6.394531-42.992187 1.601562-13.070313 7.992188-21.03125 22.222657-21.007813 37.542969h16c0-15.464844 12.535156-28 28-28s28 12.535156 28 28h16c0-9.03125-2.792968-17.839844-8-25.214844v-86.785156h40v112h16v-176h-16v48h-40v-80.054688c.046875-10.632812 7.039063-19.984374 17.222656-23.03125l108.113282-31.792968c12.820312 14.542968 31.273437 22.878906 50.664062 22.878906s37.84375-8.335938 50.664063-22.878906l22.398437 6.574218-7.742187 12 13.4375 8.6875 10.3125-15.933593 69.746093 20.503906c4.246094 1.28125 8.050782 3.722656 10.984376 7.046875h-193.800782c-22.082031.027344-39.972656 17.921875-40 40v184h320v-184c-.027344-22.078125-17.921875-39.972656-40-40zm-280-272h16v16h16v-16h24v16h16v-16h24v16h16v-16h16v40.25c-8.789062-7.894531-20.1875-12.257812-32-12.25-11.835937-.03125-23.253906 4.378906-32 12.351562-8.746094-7.972656-20.164062-12.382812-32-12.351562-11.8125-.007812-23.210937 4.355469-32 12.25zm-88 176c-41.769531.066406-77.832031-29.242188-86.308594-70.144531-8.472656-40.902344 12.972657-82.125 51.328126-98.664063 38.359374-16.539062 83.058593-3.832031 106.980468 30.410156v51.75c-9.585937 3.40625-15.996094 12.476563-16 22.648438.035156 11.792969 4.011719 23.234375 11.296875 32.503906-16.703125 19.890625-41.324219 31.414063-67.296875 31.496094zm80.320313-40.6875c-5.378907-6.578125-8.316407-14.816406-8.320313-23.3125 0-4.417969 3.582032-8 8-8h8v-28c0-17.671875 14.328125-32 32-32 10.121094-.003906 19.632813 4.828125 25.597656 13l6.402344 8.601562 6.398438-8.617187c5.972656-8.167969 15.484375-12.992187 25.601562-12.984375 17.671875 0 32 14.328125 32 32v28h8c4.417969 0 8 3.582031 8 8-.003906 8.5-2.945312 16.738281-8.328125 23.320312l-7.671875 9.390626v19.007812l-42.402344 28.28125h-43.199218l-42.398438-28.28125v-19.007812zm71.679687 104.6875c-15.535156.066406-30.253906-6.9375-40-19.03125v-22.023438l13.597656 9.054688h52.800782l13.601562-9.054688v22.023438c-9.746094 12.09375-24.46875 19.097656-40 19.03125zm-24 48h240c13.253906 0 24 10.746094 24 24v128h-288v-128c0-13.253906 10.746094-24 24-24zm-24 192v-24h288v24zm0 0"/><path d="m96.347656 100.96875-29.65625 29.65625 11.3125 11.3125 34.34375-34.34375v-43.3125h-16zm0 0"/><path d="m472.84375 179.425781 35-171.464843-149.671875 90.664062 68.878906 24zm-8.878906-36.503906-22.113282-27.441406 39.007813-55.367188zm3.8125-92-39 55.359375-33.230469-11.601562zm0 0"/><path d="m391.175781 160.476562 17.367188-26.867187 13.4375 8.6875-17.371094 26.863281zm0 0"/><path d="m360.746094 207.496094 17.375-26.875 13.4375 8.6875-17.375 26.871094zm0 0"/><path d="m352.347656 430.105469 32.167969-32.167969c9.484375-9.46875 10.496094-24.496094 2.363281-35.152344-8.132812-10.652344-22.894531-13.644531-34.53125-6.992187-11.636718-6.652344-26.398437-3.660157-34.53125 6.992187-8.132812 10.65625-7.121094 25.683594 2.363282 35.152344zm-20.847656-58.671875c4.199219-4.195313 11-4.195313 15.199219 0l5.648437 5.648437 5.65625-5.65625c4.195313-4.199219 11.003906-4.199219 15.199219 0 4.199219 4.195313 4.199219 11.003907 0 15.199219l-20.855469 20.855469-20.847656-20.847657c-4.195312-4.199218-4.195312-11 0-15.199218zm0 0"/></svg>