<svg xmlns="http://www.w3.org/2000/svg" viewBox="0 0 500 500"><defs><style>.cls-1{isolation:isolate;}.cls-2{fill:#5c6f7d;}.cls-3{fill:#778fa1;}.cls-4{fill:#91aec4;}.cls-5{fill:#ffee10;}.cls-6{fill:#e6d60f;}.cls-7{fill:none;stroke:#fefefe;stroke-linecap:round;stroke-linejoin:round;stroke-width:3px;}.cls-8,.cls-9{fill:#fefefe;}.cls-9{opacity:0.4;}.cls-10{fill:#e6effa;}.cls-11{fill:#fff;}.cls-12{fill:#b9d0eb;}.cls-13{fill:#357bba;}.cls-14{fill:#1c5df8;}.cls-15{opacity:0.1;mix-blend-mode:multiply;}.cls-16{fill:#d1624b;}.cls-17{fill:#ff8067;}.cls-18{fill:#ffa391;}.cls-19{fill:#9cddf8;}.cls-20{fill:#008a56;}.cls-21{fill:#00be77;}.cls-22{fill:#41c997;}.cls-23{fill:#c9b862;}.cls-24{fill:#ffe97c;}.cls-25{fill:#fff0a8;}.cls-26{fill:#00465e;}.cls-27{fill:#ffc49c;}.cls-28{fill:#20304d;}.cls-29{fill:#543b3a;}.cls-30{fill:#005473;}.cls-31{fill:#6b4b4a;}.cls-32{fill:#00658a;}.cls-33{fill:#d9d9d9;}.cls-34{fill:#003c52;}.cls-35{fill:#2e456e;}.cls-36{fill:#273b5e;}.cls-37{fill:#d1d1d1;}.cls-38{fill:#c8d7eb;}.cls-39{fill:#fcffff;}</style></defs><title>481549-PGQR6T-116</title><g class="cls-1"><g id="OBJECTS"><path class="cls-2" d="M231.25,176.9c-4.68,2.7-12.27,2.7-16.95,0s-4.68-7.08,0-9.79,12.27-2.7,16.95,0S235.93,174.2,231.25,176.9Z"/><path class="cls-3" d="M234.2,145.39c-6.31-3.65-16.54-3.65-22.85,0-3.15,1.82-4.73,4.2-4.73,6.59h0v12.64h0c0,2.39,1.58,4.78,4.73,6.6,6.31,3.64,16.54,3.64,22.85,0,3.16-1.82,4.73-4.21,4.73-6.6V152C238.93,149.59,237.36,147.21,234.2,145.39Z"/><ellipse class="cls-4" cx="222.78" cy="151.98" rx="16.16" ry="9.33"/><path class="cls-5" d="M255.37,97.72a32.6,32.6,0,1,0-61.76,14.55h0l13,35.21c.71,2.74,1.58,4.77,4.73,6.6,6.31,3.64,16.54,3.64,22.85,0,3.16-1.83,4-3.75,4.73-6.6h0l13-35.21h0A32.41,32.41,0,0,0,255.37,97.72Z"/><path class="cls-6" d="M254.23,106.22l-.6,1.24-18,36.87c-.77,2.85-1.58,4.77-4.73,6.6-6.31,3.64-16.54,3.64-22.85,0l-.15-.1a9,9,0,0,0,3.45,3.25c6.31,3.64,16.54,3.64,22.85,0,3.16-1.83,4-3.75,4.73-6.6l13-35.21h0A32.11,32.11,0,0,0,254.23,106.22Z"/><path class="cls-7" d="M217.11,149.33s-1.1-24-7-43.57c0,0,15.19,2.34,25.41-5.32,0,0-7.51,19.58-5.51,45.86"/><path class="cls-8" d="M213.53,105.76a3.46,3.46,0,1,1-3.46-3.46A3.45,3.45,0,0,1,213.53,105.76Z"/><path class="cls-8" d="M239.48,100.44A3.46,3.46,0,1,1,236,97,3.46,3.46,0,0,1,239.48,100.44Z"/><circle class="cls-9" cx="212.37" cy="92.27" r="15.86"/><path class="cls-4" d="M448.23,263.21,293.62,173.94c-3.6-2.07-9.6-1.87-13.65.47l-88.11,50.86c-2.52,1.46-4,3.58-4,5.81a5.79,5.79,0,0,0,3.17,5L345.67,325.3a12.31,12.31,0,0,0,6.1,1.44,15.42,15.42,0,0,0,7.55-1.9L447.43,274c2.52-1.46,4-3.58,4-5.81A5.79,5.79,0,0,0,448.23,263.21Z"/><path class="cls-10" d="M346.92,322.06,192.31,232.8c-2.84-1.64-4.19-8.39-.91-10.28l89.82-47c3.28-1.89,8.3-2.1,11.15-.46L447,259.1c2.84,1.64,2.48,9.74-.8,11.63L358.07,321.6C354.79,323.5,349.77,323.71,346.92,322.06Z"/><path class="cls-11" d="M346.92,316.87,192.31,227.6c-2.84-1.64-2.48-4.54.8-6.44l88.11-50.86c3.28-1.9,8.3-2.11,11.15-.46L447,259.1c2.84,1.64,2.48,4.54-.8,6.44L358.07,316.4C354.79,318.3,349.77,318.51,346.92,316.87Z"/><path class="cls-12" d="M447,259.1,296.53,165.45c-2.85-1.65-5.18-6.1-5.18-9.89L286.72,54.48c0-3.79,7-6.21,9.81-4.57l154.61,89.27c2.84,1.64,5.17,6.09,5.17,9.88V250.8C456.31,254.59,449.82,260.74,447,259.1Z"/><path class="cls-10" d="M445.74,258.49l-154.6-89.26c-2.85-1.64-5.18-6.09-5.18-9.89V57.61c0-3.79,2.33-5.55,5.18-3.91L445.74,143c2.85,1.64,5.18,6.09,5.18,9.89V254.58C450.92,258.38,448.59,260.14,445.74,258.49Z"/><path class="cls-13" d="M439.25,249.75,297.63,168c-2.46-1.42-4.47-5.26-4.47-8.54v-88c0-3.28,2-4.8,4.47-3.38l141.62,81.77c2.46,1.42,4.47,5.26,4.47,8.54v88C443.72,249.65,441.71,251.17,439.25,249.75Z"/><path class="cls-14" d="M436.09,244.66l-135.3-78.11c-2.32-1.34-4.21-5-4.21-8.05V76.29c0-3.09,1.89-4.52,4.21-3.18l135.3,78.11c2.32,1.34,4.21,5,4.21,8.05v82.21C440.3,244.57,438.41,246,436.09,244.66Z"/><path class="cls-2" d="M370.9,105.33c0,1.57-1.1,2.21-2.46,1.43a5.46,5.46,0,0,1-2.46-4.27c0-1.57,1.1-2.21,2.46-1.42A5.42,5.42,0,0,1,370.9,105.33Z"/><ellipse class="cls-12" cx="368.44" cy="103.91" rx="0.98" ry="1.7" transform="translate(-2.6 198.13) rotate(-30)"/><path class="cls-2" d="M376.26,108.43c0,.76-.54,1.07-1.2.69a2.65,2.65,0,0,1-1.2-2.08c0-.76.54-1.07,1.2-.69A2.65,2.65,0,0,1,376.26,108.43Z"/><path class="cls-4" d="M298.74,188.07l-6.13-3.53a6,6,0,0,0-5.42,0l-6.12,3.53c-1.49.87-1.49,2.27,0,3.13l6.12,3.54a6,6,0,0,0,5.42,0l6.13-3.54C300.23,190.34,300.23,188.94,298.74,188.07Z"/><path class="cls-4" d="M314.08,196.93,308,193.4a6,6,0,0,0-5.42,0l-6.12,3.54c-1.5.86-1.5,2.26,0,3.12l6.12,3.54a6,6,0,0,0,5.42,0l6.12-3.54C315.58,199.2,315.58,197.8,314.08,196.93Z"/><path class="cls-4" d="M329.43,205.8l-6.12-3.54a6,6,0,0,0-5.42,0l-6.13,3.54c-1.49.86-1.49,2.26,0,3.13l6.13,3.53a6,6,0,0,0,5.42,0l6.12-3.53C330.92,208.06,330.92,206.66,329.43,205.8Z"/><path class="cls-4" d="M344.78,214.66l-6.13-3.54a6,6,0,0,0-5.42,0l-6.12,3.54c-1.49.86-1.49,2.26,0,3.13l6.12,3.53a6,6,0,0,0,5.42,0l6.13-3.53C346.27,216.92,346.27,215.52,344.78,214.66Z"/><path class="cls-4" d="M360.12,223.52,354,220a6,6,0,0,0-5.42,0l-6.13,3.54c-1.49.86-1.49,2.26,0,3.13l6.13,3.53a6,6,0,0,0,5.42,0l6.12-3.53C361.61,225.78,361.61,224.38,360.12,223.52Z"/><path class="cls-4" d="M375.47,232.38l-6.12-3.54a6,6,0,0,0-5.42,0l-6.13,3.54c-1.49.86-1.49,2.27,0,3.13l6.13,3.53a6,6,0,0,0,5.42,0l6.12-3.53C377,234.65,377,233.24,375.47,232.38Z"/><path class="cls-4" d="M390.82,241.24l-6.13-3.54a6,6,0,0,0-5.42,0l-6.12,3.54c-1.49.86-1.49,2.27,0,3.13l6.12,3.53a6,6,0,0,0,5.42,0l6.13-3.53C392.31,243.51,392.31,242.1,390.82,241.24Z"/><path class="cls-4" d="M406.16,250.1,400,246.56a6,6,0,0,0-5.42,0l-6.13,3.54c-1.49.86-1.49,2.27,0,3.13l6.13,3.53a6,6,0,0,0,5.42,0l6.12-3.53C407.65,252.37,407.65,251,406.16,250.1Z"/><path class="cls-4" d="M421.51,259l-6.12-3.54a6,6,0,0,0-5.43,0L403.84,259c-1.49.86-1.49,2.27,0,3.13l6.12,3.53a6,6,0,0,0,5.43,0l6.12-3.53C423,261.23,423,259.82,421.51,259Z"/><path class="cls-4" d="M267.09,206.34,261,202.81a6,6,0,0,0-5.42,0l-6.12,3.53c-1.5.87-1.5,2.27,0,3.13l6.12,3.54a6,6,0,0,0,5.42,0l6.12-3.54C268.58,208.61,268.58,207.21,267.09,206.34Z"/><path class="cls-4" d="M282.44,215.2l-6.12-3.53a6,6,0,0,0-5.42,0l-6.13,3.53c-1.49.87-1.49,2.27,0,3.13l6.13,3.54a6,6,0,0,0,5.42,0l6.12-3.54C283.93,217.47,283.93,216.07,282.44,215.2Z"/><path class="cls-4" d="M297.79,224.06l-6.13-3.53a6,6,0,0,0-5.42,0l-6.12,3.53c-1.49.87-1.49,2.27,0,3.13l6.12,3.54a6,6,0,0,0,5.42,0l6.13-3.54C299.28,226.33,299.28,224.93,297.79,224.06Z"/><path class="cls-4" d="M313.13,232.93,307,229.39a6,6,0,0,0-5.42,0l-6.13,3.54c-1.49.86-1.49,2.26,0,3.13l6.13,3.53a6,6,0,0,0,5.42,0l6.12-3.53C314.62,235.19,314.62,233.79,313.13,232.93Z"/><path class="cls-4" d="M328.48,241.79l-6.12-3.54a6,6,0,0,0-5.43,0l-6.12,3.54c-1.49.86-1.49,2.26,0,3.13l6.12,3.53a6,6,0,0,0,5.43,0l6.12-3.53C330,244.05,330,242.65,328.48,241.79Z"/><path class="cls-4" d="M343.83,250.65l-6.13-3.54a6,6,0,0,0-5.42,0l-6.12,3.54c-1.49.86-1.49,2.27,0,3.13l6.12,3.53a6,6,0,0,0,5.42,0l6.13-3.53C345.32,252.91,345.32,251.51,343.83,250.65Z"/><path class="cls-4" d="M359.17,259.51,353.05,256a6,6,0,0,0-5.42,0l-6.13,3.54c-1.49.86-1.49,2.27,0,3.13l6.13,3.53a6,6,0,0,0,5.42,0l6.12-3.53C360.66,261.78,360.66,260.37,359.17,259.51Z"/><path class="cls-4" d="M374.52,268.37l-6.13-3.54a6,6,0,0,0-5.42,0l-6.12,3.54c-1.49.86-1.49,2.27,0,3.13L363,275a6,6,0,0,0,5.42,0l6.13-3.53C376,270.64,376,269.23,374.52,268.37Z"/><path class="cls-4" d="M250.8,233.47l-21.47-12.39a6,6,0,0,0-5.43,0l-6.12,3.53c-1.49.87-1.49,2.27,0,3.13l21.47,12.4a6,6,0,0,0,5.42,0l6.13-3.54C252.29,235.74,252.29,234.34,250.8,233.47Z"/><path class="cls-4" d="M327.72,277.89,260,238.8a6,6,0,0,0-5.42,0l-6.13,3.53c-1.49.87-1.49,2.27,0,3.13l67.71,39.09a6,6,0,0,0,5.42,0l6.12-3.53C329.21,280.16,329.21,278.75,327.72,277.89Z"/><path class="cls-4" d="M358.22,295.5l-21.47-12.4a6,6,0,0,0-5.42,0l-6.12,3.54c-1.5.86-1.5,2.27,0,3.13l21.47,12.39a6,6,0,0,0,5.42,0l6.12-3.53C359.71,297.77,359.71,296.36,358.22,295.5Z"/><path class="cls-4" d="M290.59,201.64l-21.47-12.4a6,6,0,0,0-5.42,0l-6.13,3.54c-1.49.86-1.49,2.27,0,3.13L279,208.31a6,6,0,0,0,5.43,0l6.12-3.54C292.08,203.91,292.08,202.5,290.59,201.64Z"/><path class="cls-4" d="M305.94,210.5,299.81,207a6,6,0,0,0-5.42,0l-6.12,3.54c-1.49.86-1.49,2.27,0,3.13l6.12,3.54a6,6,0,0,0,5.42,0l6.13-3.54C307.43,212.77,307.43,211.36,305.94,210.5Z"/><path class="cls-4" d="M321.28,219.36l-6.12-3.54a6,6,0,0,0-5.42,0l-6.13,3.54c-1.49.86-1.49,2.27,0,3.13l6.13,3.54a6,6,0,0,0,5.42,0l6.12-3.54C322.77,221.63,322.77,220.22,321.28,219.36Z"/><path class="cls-4" d="M336.63,228.22l-6.13-3.54a6,6,0,0,0-5.42,0L319,228.22c-1.49.86-1.49,2.27,0,3.13l6.12,3.54a6,6,0,0,0,5.42,0l6.13-3.54C338.12,230.49,338.12,229.08,336.63,228.22Z"/><path class="cls-4" d="M352,237.08l-6.12-3.53a6,6,0,0,0-5.42,0l-6.12,3.53c-1.49.86-1.49,2.27,0,3.13l6.12,3.54a6,6,0,0,0,5.42,0l6.12-3.54C353.47,239.35,353.47,237.94,352,237.08Z"/><path class="cls-4" d="M367.32,245.94l-6.12-3.53a6,6,0,0,0-5.42,0l-6.13,3.53c-1.49.86-1.49,2.27,0,3.13l6.13,3.54a6,6,0,0,0,5.42,0l6.12-3.54C368.81,248.21,368.81,246.8,367.32,245.94Z"/><path class="cls-4" d="M382.67,254.8l-6.13-3.53a6,6,0,0,0-5.42,0L365,254.8c-1.49.86-1.49,2.27,0,3.13l6.12,3.54a6,6,0,0,0,5.42,0l6.13-3.54C384.16,257.07,384.16,255.66,382.67,254.8Z"/><path class="cls-4" d="M398,263.66l-6.12-3.53a6,6,0,0,0-5.42,0l-6.12,3.53c-1.5.86-1.5,2.27,0,3.13l6.12,3.54a6,6,0,0,0,5.42,0l6.12-3.54C399.5,265.93,399.5,264.52,398,263.66Z"/><path class="cls-4" d="M413.36,272.52,407.24,269a6,6,0,0,0-5.42,0l-6.13,3.53c-1.49.86-1.49,2.27,0,3.13l6.13,3.54a6,6,0,0,0,5.42,0l6.12-3.54C414.85,274.79,414.85,273.38,413.36,272.52Z"/><path class="cls-4" d="M243.6,211.05l-6.13-3.54a6,6,0,0,0-5.42,0l-6.12,3.54c-1.49.86-1.49,2.27,0,3.13l6.12,3.53a6,6,0,0,0,5.42,0l6.13-3.53C245.09,213.32,245.09,211.91,243.6,211.05Z"/><path class="cls-4" d="M258.94,219.91l-6.12-3.54a6,6,0,0,0-5.42,0l-6.12,3.54c-1.49.86-1.49,2.27,0,3.13l6.12,3.54a6,6,0,0,0,5.42,0l6.12-3.54C260.44,222.18,260.44,220.77,258.94,219.91Z"/><path class="cls-4" d="M274.29,228.77l-6.12-3.54a6,6,0,0,0-5.42,0l-6.13,3.54c-1.49.86-1.49,2.27,0,3.13l6.13,3.54a6,6,0,0,0,5.42,0l6.12-3.54C275.78,231,275.78,229.63,274.29,228.77Z"/><path class="cls-4" d="M289.64,237.63l-6.13-3.54a6,6,0,0,0-5.42,0L272,237.63c-1.49.86-1.49,2.27,0,3.13l6.12,3.54a6,6,0,0,0,5.42,0l6.13-3.54C291.13,239.9,291.13,238.49,289.64,237.63Z"/><path class="cls-4" d="M305,246.49,298.86,243a6,6,0,0,0-5.42,0l-6.12,3.54c-1.5.86-1.5,2.27,0,3.13l6.12,3.54a6,6,0,0,0,5.42,0l6.12-3.54C306.48,248.76,306.48,247.35,305,246.49Z"/><path class="cls-4" d="M320.33,255.35l-6.12-3.54a6,6,0,0,0-5.42,0l-6.13,3.54c-1.49.86-1.49,2.27,0,3.13l6.13,3.54a6,6,0,0,0,5.42,0l6.12-3.54C321.82,257.62,321.82,256.21,320.33,255.35Z"/><path class="cls-4" d="M335.68,264.21l-6.13-3.53a6,6,0,0,0-5.42,0L318,264.21c-1.49.86-1.49,2.27,0,3.13l6.12,3.54a6,6,0,0,0,5.42,0l6.13-3.54C337.17,266.48,337.17,265.07,335.68,264.21Z"/><path class="cls-4" d="M351,273.07l-6.12-3.53a6,6,0,0,0-5.42,0l-6.13,3.53c-1.49.86-1.49,2.27,0,3.13l6.13,3.54a6,6,0,0,0,5.42,0L351,276.2C352.51,275.34,352.51,273.93,351,273.07Z"/><path class="cls-4" d="M366.37,281.93l-6.12-3.53a6,6,0,0,0-5.43,0l-6.12,3.53c-1.49.86-1.49,2.27,0,3.13l6.12,3.54a6,6,0,0,0,5.43,0l6.12-3.54C367.86,284.2,367.86,282.79,366.37,281.93Z"/><path class="cls-4" d="M389.87,277.23l-6.13-3.54a6,6,0,0,0-5.42,0l-6.12,3.54c-1.49.86-1.49,2.27,0,3.13l5,2.86-13.11,7.57c-1.49.86-1.49,2.27,0,3.13l6.12,3.54a6,6,0,0,0,5.42,0l22-12.67c1.49-.86,1.49-2.27,0-3.13l-6.13-3.54Z"/><path class="cls-15" d="M405.45,141.62,286,72.64v86.7a12.28,12.28,0,0,0,1,4.58l72.44,41.83v2.88l78.13,45.11v-75.6l-32.06-18.51Z"/><polygon class="cls-4" points="63.25 288.61 41.36 275.97 63.25 263.33 85.14 275.97 63.25 288.61"/><polygon class="cls-4" points="97.5 270.13 76.4 257.94 97.5 245.76 118.61 257.94 97.5 270.13"/><polygon class="cls-4" points="131.75 251.09 109.77 238.39 131.75 225.7 153.74 238.39 131.75 251.09"/><polygon class="cls-4" points="166.01 233.4 142.02 219.55 166.01 205.71 189.99 219.55 166.01 233.4"/><polygon class="cls-16" points="166.01 229.5 148.88 219.61 148.88 159.22 166.01 169.1 166.01 229.5"/><polygon class="cls-17" points="166.01 229.5 166.01 169.1 183.13 159.22 183.13 219.61 166.01 229.5"/><polygon class="cls-18" points="166.01 169.1 148.88 159.22 166.01 149.33 183.13 159.22 166.01 169.1"/><polygon class="cls-13" points="131.75 248.06 114.63 238.17 114.63 128.31 131.75 138.2 131.75 248.06"/><polygon class="cls-14" points="131.75 248.06 131.75 138.2 148.88 128.31 148.88 238.17 131.75 248.06"/><polygon class="cls-19" points="131.75 138.2 114.63 128.31 131.75 118.42 148.88 128.31 131.75 138.2"/><polygon class="cls-20" points="97.5 267.86 80.38 257.97 80.38 174.55 97.5 184.43 97.5 267.86"/><polygon class="cls-21" points="97.5 267.86 97.5 184.43 114.63 174.55 114.63 257.97 97.5 267.86"/><polygon class="cls-22" points="97.5 184.43 80.38 174.55 97.5 164.66 114.63 174.55 97.5 184.43"/><polygon class="cls-23" points="63.25 285.86 46.13 275.97 46.13 232.31 63.25 242.2 63.25 285.86"/><polygon class="cls-24" points="63.25 285.86 63.25 242.2 80.38 232.31 80.38 275.97 63.25 285.86"/><polygon class="cls-25" points="63.25 242.2 46.13 232.31 63.25 222.42 80.38 232.31 63.25 242.2"/><polygon class="cls-10" points="395.75 232.95 265.35 157.67 265.35 66.95 395.75 142.23 395.75 232.95"/><polygon class="cls-12" points="395.75 155.3 265.35 80.02 265.35 66.95 395.75 142.23 395.75 155.3"/><polygon class="cls-12" points="360.65 172.12 387.16 187.43 387.16 156.81 360.65 141.51 360.65 172.12"/><polygon class="cls-14" points="360.65 207.22 387.16 222.53 387.16 191.91 360.65 176.61 360.65 207.22"/><polygon class="cls-18" points="273.47 156.89 299.99 172.2 299.99 141.58 273.47 126.28 273.47 156.89"/><path class="cls-12" d="M312.13,177.42l36.78,21.23c2,1.16,3.63-.07,3.63-2.74V176.77c0-2.68-1.62-5.78-3.63-6.94L312.13,148.6c-2-1.16-3.63.07-3.63,2.74v19.14C308.5,173.15,310.13,176.26,312.13,177.42Z"/><path class="cls-13" d="M351.17,139.7l-41.24-23.81a3.3,3.3,0,0,1-1.37-2.63h0c0-1,.61-1.47,1.37-1L351.17,136a3.29,3.29,0,0,1,1.37,2.62h0C352.54,139.67,351.92,140.14,351.17,139.7Z"/><path class="cls-13" d="M351.17,157.67l-41.24-23.81a3.3,3.3,0,0,1-1.37-2.63h0c0-1,.61-1.47,1.37-1L351.17,154a3.33,3.33,0,0,1,1.37,2.63h0C352.54,157.63,351.92,158.1,351.17,157.67Z"/><path class="cls-14" d="M340.83,142.71l-30.92-17.85a3.31,3.31,0,0,1-1.38-2.63h0c0-1,.62-1.47,1.38-1l30.92,17.85a3.31,3.31,0,0,1,1.37,2.62h0C342.2,142.68,341.58,143.15,340.83,142.71Z"/><path class="cls-14" d="M329.12,153.92l-19.24-11.11a3.31,3.31,0,0,1-1.38-2.63h0c0-1,.62-1.47,1.38-1l19.24,11.11a3.33,3.33,0,0,1,1.37,2.63h0C330.49,153.89,329.87,154.35,329.12,153.92Z"/><ellipse class="cls-12" cx="286.73" cy="114.14" rx="10.82" ry="18.75" transform="translate(-18.65 158.65) rotate(-30)"/><polygon class="cls-15" points="395.75 232.95 395.75 153.01 339.92 120.78 339.92 200.72 395.75 232.95"/><polygon class="cls-10" points="431.24 184.1 343.89 133.67 343.89 224.39 431.24 274.82 431.24 184.1"/><polygon class="cls-12" points="431.24 184.1 343.89 133.67 343.89 146.74 431.24 197.17 431.24 184.1"/><path class="cls-14" d="M354.49,224l36.78,21.23c2,1.16,3.63-.07,3.63-2.74V223.34c0-2.68-1.62-5.78-3.63-6.94l-36.78-21.24c-2-1.15-3.63.08-3.63,2.75v19.14C350.86,219.72,352.49,222.83,354.49,224Z"/><path class="cls-17" d="M393.53,186.27l-41.24-23.81a3.3,3.3,0,0,1-1.37-2.63h0c0-1,.61-1.47,1.37-1l41.24,23.81a3.33,3.33,0,0,1,1.37,2.63h0C394.9,186.24,394.28,186.7,393.53,186.27Z"/><path class="cls-17" d="M393.53,204.23l-41.24-23.81a3.26,3.26,0,0,1-1.37-2.62h0c0-1,.61-1.48,1.37-1l41.24,23.81a3.32,3.32,0,0,1,1.37,2.62h0C394.9,204.2,394.28,204.67,393.53,204.23Z"/><path class="cls-17" d="M383.19,189.28l-30.92-17.85a3.31,3.31,0,0,1-1.38-2.63h0c0-1,.62-1.47,1.38-1l30.92,17.86a3.29,3.29,0,0,1,1.37,2.62h0C384.56,189.25,383.94,189.72,383.19,189.28Z"/><path class="cls-17" d="M371.48,200.49l-19.24-11.11a3.31,3.31,0,0,1-1.38-2.63h0c0-1,.62-1.47,1.38-1l19.24,11.11a3.33,3.33,0,0,1,1.37,2.63h0C372.85,200.45,372.23,200.92,371.48,200.49Z"/><path class="cls-24" d="M423.06,201.22v0a3.36,3.36,0,0,0-1.64-3L407,189.9a3.29,3.29,0,0,0-4.93,2.85v56.92a3.29,3.29,0,0,0,1.64,2.85l14.43,8.33a3.29,3.29,0,0,0,4.94-2.85Z"/><ellipse class="cls-4" cx="191.89" cy="323.49" rx="28.17" ry="16.27"/><ellipse class="cls-4" cx="272.32" cy="360.01" rx="27.11" ry="15.65"/><path class="cls-26" d="M211.5,226,204,210.62a4.9,4.9,0,0,0-5.73-2.88h0a4.89,4.89,0,0,0-3.12,7l9,17.4a11.17,11.17,0,0,0,2.59,2.59,6.77,6.77,0,0,0,7.19.84l13.8-7.53-5.12-8.76Z"/><path class="cls-27" d="M231.12,219.66a4.53,4.53,0,0,0-6.62-1.27c-.62.47-1,.84-1,.84h0a4.3,4.3,0,0,0-.25,6.17c1.87,2.08,4.39,2.3,6.4.48h0l.41-.34a4.55,4.55,0,0,0,1.06-5.89Z"/><path class="cls-27" d="M224.17,221.37s2.7-1.49,4-.25,4.14,1.34,2.73-.86c-2.26-3.51-3.34-3.93-6-2.49Z"/><path class="cls-28" d="M213.49,228.5l12.67-4.42a2.78,2.78,0,0,0,1.55-2l3.91-20.58c.16-.84-.27-1.32-1-1.07L218,204.9a2.76,2.76,0,0,0-1.54,1.95l-3.92,20.57C212.36,228.26,212.79,228.74,213.49,228.5Z"/><path class="cls-29" d="M194.53,317.09s-.16,2.52.85,3.44c3.4,3.1,12,7.67,16,5.13,5.09-3.31-9.33-10.83-9.33-10.83Z"/><path class="cls-30" d="M189.8,255.43l4.73,61.66s3.6,3.3,9.88-.68l.69-63.79a72.79,72.79,0,0,1-12.43-1.56c-2-.46-3.82-.95-5.42-1.41Z"/><path class="cls-31" d="M176,317.67s-.68,2.43.13,3.54c2.69,3.73,10.22,10,14.58,8.28,5.65-2.19-3.63-12.3-3.63-12.3Z"/><path class="cls-32" d="M179.39,256.15l1.44,34.68L176,317.67a10.7,10.7,0,0,0,11.08-.48l6.45-25.32a9.65,9.65,0,0,0,.29-2.06l1.2-35.73a76.43,76.43,0,0,1-12.52-2.1c-2-.55-1.07-1.32-2.67-1.85Z"/><path class="cls-33" d="M181.81,207.48s20.13-3.32,20.93,4.84c2.32,23.92,3.16,45.08,3.16,45.08s-19.05,4.82-29.09-1.2C176.81,256.2,178.33,206.91,181.81,207.48Z"/><path class="cls-16" d="M192.05,208.51s1.56,20,0,30.69l3.55,9,3.33-8.81s-2.77-20.18-4.92-31.14Z"/><path class="cls-27" d="M186.24,198l-1,7s4.87,6.37,11.26,1.75l-1.72-8.38a4,4,0,0,0-3.23-3.35l-2.08-.19C187.87,194.69,186.51,196,186.24,198Z"/><polygon class="cls-11" points="185.54 202.9 192.71 205.87 189.63 212.06 183.21 205.67 185.54 202.9"/><path class="cls-27" d="M193.69,203.55h0c-4.8.25-9.22-3.76-9.82-8.91l-.68-5.91c-.6-5.15,2.84-9.56,7.64-9.81h0c4.81-.25,9.23,3.76,9.82,8.91l.69,5.91C201.94,198.89,198.5,203.3,193.69,203.55Z"/><path class="cls-30" d="M187.59,211.63s2,.43.37,51.43c0,0-10.05.7-13.7-2.64,0,0-1.27-34.69,1.5-51.71,0-.52,6.05-3.08,7.45-3C184.34,205.7,186.94,210.33,187.59,211.63Z"/><path class="cls-30" d="M208.15,258.21c-1.59,4.73-5.38,1.43-5.38,1.43s-2.92-33.42-5.13-52.49c0,0,5-2.11,7.81,9.68C207.46,225.35,208.15,258.21,208.15,258.21Z"/><path class="cls-34" d="M185.9,208.53l-4.09,11.67,2.4,2.83-1.91,4.76,6.23,9.72S190.54,212.45,185.9,208.53Z"/><path class="cls-34" d="M197.64,207.15s.58,17.38,2.89,28l2.86-8.76-2.4-4.49,2-1.88Z"/><polygon class="cls-11" points="192.71 205.87 196.12 211.63 198.36 207.01 196.01 204.3 192.71 205.87"/><path class="cls-16" d="M195.35,208.18a2.48,2.48,0,1,1-2.64-2.31A2.48,2.48,0,0,1,195.35,208.18Z"/><path class="cls-30" d="M190.07,216.06a1.07,1.07,0,0,1-1.85.24l-5.87-6.45a5.16,5.16,0,0,0-6.63-1.44h0a5.17,5.17,0,0,0-1.36,8l9.08,8.76a12.68,12.68,0,0,0,3.08,2.51c3.1,1.54,6.46,1,8-1.55l8.62-17.72L194,204.57Z"/><path class="cls-27" d="M198.75,197s-4.6,2.34-5.54,4.78,3,3.78,3,3.78Z"/><path class="cls-27" d="M201.28,197c-2.69-.94-5.86,1.14-6.77,4.47-.27,1-.4,1.64-.4,1.64h0c-.61,3,.87,5.64,3.6,5.93,3,.33,5.41-1.62,6.09-5h0c0-.18.1-.4.16-.65.73-2.83-.42-5.56-2.7-6.36Z"/><path class="cls-30" d="M200.51,173.61s-2.4,3-8.46,3.44a10.1,10.1,0,0,0-2.67.11,6.34,6.34,0,0,0-2.57.84,10.25,10.25,0,0,0-5.63,10.05,12.42,12.42,0,0,0,2.69,6.59s1.84-.83,1.51-4.39c-.19-2.1.73-3.67,1.74-4l.9.11a2.3,2.3,0,0,1,.94,1.32c1.07,3,1.49,4.29,2.39,3.51s.91-4.32.91-4.32,4.53.13,7.63-2.65l.3-.27v0C202.3,182.05,203.29,178.87,200.51,173.61Z"/><path class="cls-27" d="M228.56,217.66s-3.35.77-3.75,2.21.68,1.3.68,1.3-1.08.42-.92,1.42,1.28.72,1.28.72a1.39,1.39,0,0,0-.64,1.76c.48,1.16,5,.8,5.8-2.24S228.56,217.66,228.56,217.66Z"/><path class="cls-27" d="M317.46,226.15c-1.21-.88-3.79-.15-3.79-.15v0a2.83,2.83,0,0,0-3.32,2.94c-.09,3,1.86,5.26,4.65,5a4.51,4.51,0,0,0,2.63-.81h0a5.18,5.18,0,0,0,1.83-2.68C319.78,229.35,319.76,227.82,317.46,226.15Z"/><path class="cls-35" d="M312.11,230.33a9.43,9.43,0,0,1,1.52,4.45l-8.28,7.1a27.82,27.82,0,0,1-6.28,4.07L282,252.4a5.71,5.71,0,0,1-7.65-3.88,4.64,4.64,0,0,1-.11-.65h0a5.19,5.19,0,0,1,4.54-6l16.74-5.51,14.32-8.23A4.75,4.75,0,0,1,312.11,230.33Z"/><path class="cls-29" d="M286.06,354.19s.34,5.76-1.26,7.15-16.59,2.28-17.15-.88,8.27-4.67,8.27-4.67Z"/><path class="cls-28" d="M288.15,292.58l-2.09,61.61s-3.7,3.57-10.14,1.6l-3.6-65.41a77.42,77.42,0,0,0,12.69-2c2-.54,1.09-1.33,2.71-1.85Z"/><path class="cls-31" d="M272.28,357s0,5.86-1.61,7.19-16.44,1.56-16.84-1.67,8.38-4.36,8.38-4.36Z"/><path class="cls-36" d="M277.51,294.59,272.28,357s-3.83,3.45-10.07,1.16l-.16-66.48a74.18,74.18,0,0,0,12.59-1.49c2-.46,3.88-.94,5.5-1.4Z"/><path class="cls-27" d="M272.22,239.5h0c-5,.12-9.41-4.16-9.87-9.49l-.53-6.13c-.46-5.33,3.23-9.79,8.19-9.9h0c5-.11,9.41,4.17,9.87,9.5l.53,6.13C280.87,234.94,277.19,239.39,272.22,239.5Z"/><path class="cls-27" d="M278.2,234.39l1.49,7.18a8.54,8.54,0,0,1-11.5,1.44l1.21-7.64a4.17,4.17,0,0,1,3.11-3.67l2.13-.33C276.29,231.12,277.78,232.39,278.2,234.39Z"/><path class="cls-35" d="M280.71,225a10.24,10.24,0,0,0-9.94-13.26h-.09a8.91,8.91,0,0,0-3.46.55c-3.87,1.19-4.83,3.88-4.84,3.89a11.72,11.72,0,0,0-1.5,8.8s1.25,9.42,4.75,11.85,11.07-2.4,9.45-8,2.11-7.62,2.45-4.48.72,5.15,1.47,4.83a3.19,3.19,0,0,0,.93-1.69h0C280.18,226.71,280.45,225.87,280.71,225Z"/><path class="cls-11" d="M279.15,238.82s-7.19-.29-11.69,1.91l-.87,3.57,15.24-1.5Z"/><path class="cls-35" d="M281,241.56s-20.05.26-20.32,8.73c-.78,24.82-.4,48.59-.4,48.59s20.14,1.79,30.08-5.09C290.35,293.79,286.32,242.17,281,241.56Z"/><path class="cls-28" d="M228.49,264.57l10.06-8.89a2.77,2.77,0,0,0,.69-2.39l-4.16-20.53c-.17-.83-.75-1.11-1.3-.62L223.72,241a2.72,2.72,0,0,0-.7,2.39L227.19,264C227.36,264.78,227.94,265.06,228.49,264.57Z"/><path class="cls-11" d="M229.09,260.91l7.79-6.88a2.17,2.17,0,0,0,.53-1.85l-3.22-15.9c-.13-.64-.58-.86-1-.48l-7.79,6.88a2.14,2.14,0,0,0-.54,1.85l3.23,15.89C228.21,261.07,228.66,261.29,229.09,260.91Z"/><path class="cls-27" d="M229.83,266.82a10.05,10.05,0,0,1-3.45-2.62,3.37,3.37,0,0,1,.48-4.44,5.9,5.9,0,0,1,5.52-.87v0c2.28.63,3.76,1.77,3.85,4.14.1,2.61-1.31,4.31-3.63,4.27h0a6.28,6.28,0,0,1-2.76-.49Z"/><path class="cls-35" d="M234,263a10.61,10.61,0,0,0,.45,4.88l15.21,3.53c1.94.31,3.47-.39,5-2L269,254.43a6.12,6.12,0,0,0-1.91-7.82h0a4.87,4.87,0,0,0-7.15,1.57L249,261.57l-13.94-1.66A5,5,0,0,0,234,263Z"/><path class="cls-37" d="M232.24,238.65l-4.48,3.83c-.47.41-1,.2-1.19-.46h0a2,2,0,0,1,.51-1.92l4.48-3.84c.47-.4,1-.2,1.19.46h0A2,2,0,0,1,232.24,238.65Z"/><path class="cls-27" d="M321,225.22,315.35,228a1.2,1.2,0,0,1-1.6-.54h0a1.2,1.2,0,0,1,.54-1.6l5.67-2.79a1.19,1.19,0,0,1,1.59.54h0A1.2,1.2,0,0,1,321,225.22Z"/><ellipse class="cls-4" cx="423.26" cy="363.01" rx="62.12" ry="35.87"/><path class="cls-13" d="M481.5,345.27h0c0-8.61-5.67-17.21-17.05-23.78-22.74-13.13-59.62-13.13-82.36,0-11.37,6.57-17.05,15.17-17,23.78H365v17H365c0,8.61,5.67,17.21,17,23.78,22.74,13.13,59.62,13.13,82.36,0,11.38-6.57,17.05-15.17,17.05-23.78h0Z"/><path class="cls-23" d="M481.5,345.27h0c0-7.58-4.4-15.15-13.22-21.34-7.41,17.12-22.29,52.3-22.29,52.3v17A70.18,70.18,0,0,0,464.44,386c11.38-6.57,17.05-15.17,17.05-23.78h0Z"/><path class="cls-20" d="M390.11,389.88c16.57,6.64,37.75,7.75,55.87,3.32v-17l-55.87-3.32Z"/><ellipse class="cls-11" cx="423.26" cy="345.27" rx="58.24" ry="33.62"/><path class="cls-21" d="M390.11,372.91c16.57,6.64,37.75,7.74,55.87,3.32l-22.72-31Z"/><path class="cls-24" d="M464.44,321.49a72.67,72.67,0,0,0-21.6-7.89l-19.58,31.67,22.72,31A70.54,70.54,0,0,0,464.44,369C487.19,355.91,487.19,334.62,464.44,321.49Z"/><path class="cls-14" d="M367.13,336.32c-5.38,11.28-.4,23.86,14.95,32.72a61.4,61.4,0,0,0,8,3.87l33.15-27.64Z"/><path class="cls-4" d="M138.31,330.54c-27.13-15.67-71.29-15.67-98.42,0-13.9,8-21.56,18.93-21.56,30.72S26,384,39.89,392c13.57,7.83,31.39,11.75,49.21,11.75s35.64-3.92,49.21-11.75c13.9-8,21.56-18.94,21.56-30.72S152.21,338.56,138.31,330.54Zm-5.76,30.72c0,5.83-4.22,11.48-11.89,15.91-17.41,10.05-45.72,10-63.12,0-7.67-4.43-11.9-10.08-11.9-15.91s4.23-11.48,11.9-15.91c8.7-5,20.13-7.54,31.56-7.54s22.86,2.52,31.56,7.54C128.33,349.78,132.56,355.43,132.55,361.26Z"/><path class="cls-20" d="M155.85,340.53c0-9.87-6.5-19.73-19.54-27.26-26.07-15-68.35-15-94.42,0-13,7.53-19.55,17.39-19.54,27.26h-.07V360h.07c0,9.87,6.5,19.73,19.54,27.26,26.07,15.05,68.35,15.05,94.42,0,13-7.53,19.55-17.39,19.54-27.26h0V340.53Zm-21.4,27.53H43.75c-5-9.39-1.07-20,11.79-27.44,18.54-10.7,48.58-10.7,67.12,0C135.52,348,139.45,358.67,134.45,368.06Z"/><path class="cls-13" d="M136.31,313.27c-12.25-7.07-28.09-10.82-44.14-11.25l-1,11.14v19.46c11.43.29,22.72,3,31.45,8,12.86,7.42,16.79,18.05,11.79,27.44H119.32l3.53,5.74v19.46a75.13,75.13,0,0,0,13.46-6c13-7.53,19.55-17.39,19.54-27.26h0V340.53h0C155.86,330.66,149.35,320.8,136.31,313.27Z"/><path class="cls-16" d="M44.74,388.79c.7.36,1.41.72,2.13,1.06l.19.09c21.79,10.22,52.14,11.33,75.79,3.32V373.8l-6.46-5.74H43.75c-.19-.36-.34-.72-.51-1.08h0l-1.35.82v19.46c.77.44,1.56.87,2.35,1.29Z"/><path class="cls-17" d="M136.31,313.27c-26.07-15-68.35-15-94.42,0s-26.08,39.46,0,54.52,68.35,15,94.42,0S162.38,328.33,136.31,313.27ZM122.66,359.9c-18.54,10.7-48.58,10.7-67.12,0s-18.53-28,0-38.74,48.58-10.7,67.12,0S141.19,349.2,122.66,359.9Z"/><path class="cls-14" d="M136.31,313.27c-11.9-6.87-27.18-10.59-42.75-11.19l-2.35,11.08h0c11.43.29,22.72,3,31.45,8,18.53,10.7,18.53,28,0,38.74a54.35,54.35,0,0,1-11.18,4.79l11.37,9.11a75.13,75.13,0,0,0,13.46-6C162.38,352.73,162.38,328.33,136.31,313.27Z"/><path class="cls-21" d="M55.54,321.16c9.81-5.66,22.83-8.33,35.67-8h0l2.35-11.08h0c-18.54-.71-37.5,3-51.67,11.19-26.07,15.06-26.08,39.46,0,54.52l.17.09,13.2-8.15C37,349,37.11,331.8,55.54,321.16Z"/><path class="cls-4" d="M234.45,388.79l-2-1.18c-8.53-4.93-22.84-4.39-32.56,1.22L77.53,459.45c-5.54,3.2-8.72,7.66-8.72,12.26,0,4,2.34,7.55,6.59,10l2,1.18a29.16,29.16,0,0,0,14.37,3.37,37.27,37.27,0,0,0,18.2-4.59l122.31-70.62c5.53-3.19,8.71-7.66,8.71-12.26C241,394.8,238.7,391.24,234.45,388.79Z"/><path class="cls-20" d="M238,397V379.54a6.78,6.78,0,0,0,0-1.56v-.19h0c-.31-2.47-2-4.78-5-6.55l-2-1.18c-7.54-4.36-20.85-3.81-29.56,1.22L79,441.91c-4.21,2.43-6.59,5.47-7.09,8.46h0v.06a6.89,6.89,0,0,0,0,2.22v16.91h0c-.55,3.2,1.06,6.35,5,8.6l2,1.19c7.55,4.35,20.85,3.8,29.57-1.23l122.31-70.62c5.17-3,7.59-6.91,7.13-10.51Z"/><path class="cls-10" d="M238,397V379.54a6.78,6.78,0,0,0,0-1.56v-.19h0c-.31-2.47-2-4.78-5-6.55l-2-1.18c-7.54-4.36-20.85-3.81-29.56,1.22l-29.54,17v53.25l59-34.08c5.17-3,7.59-6.91,7.13-10.51Z"/><path class="cls-38" d="M156.86,397,79,441.91c-4.21,2.43-6.59,5.47-7.09,8.46h0v.06a6.89,6.89,0,0,0,0,2.22v16.91h0c-.55,3.2,1.06,6.35,5,8.6l2,1.19c7.55,4.35,20.85,3.8,29.57-1.23l48.34-27.91Z"/><path class="cls-10" d="M79,441.91l122.31-70.62c8.71-5,22-5.58,29.56-1.22l2,1.18c7.54,4.35,6.59,12-2.12,17.07L108.52,458.93c-8.72,5-22,5.58-29.57,1.23l-2-1.18C69.36,454.62,70.31,446.94,79,441.91Z"/><path class="cls-39" d="M233,371.25l-2-1.18c-7.54-4.36-20.85-3.81-29.56,1.22l-12.54,7.24,29.06,17.27,13-7.48C239.54,383.29,240.49,375.6,233,371.25Z"/><polygon class="cls-10" points="134.22 410.04 162.85 427.56 217.86 395.8 188.8 378.53 134.22 410.04"/><polygon class="cls-39" points="140.51 440.46 191.81 410.84 162.76 393.57 111.88 422.94 140.51 440.46"/><polygon class="cls-10" points="191.81 430.04 191.81 410.84 140.51 440.46 140.51 459.66 191.81 430.04"/><polygon class="cls-38" points="191.81 430.04 217.86 415 217.86 395.8 191.81 410.84 191.81 430.04"/><path class="cls-4" d="M246.68,426l72.68,42a2.49,2.49,0,0,0,2.48,0l72.67-42a2.48,2.48,0,0,0-.38-4.48l-72.68-26.62a2.51,2.51,0,0,0-1.71,0L247.07,421.5A2.48,2.48,0,0,0,246.68,426Z"/><polygon class="cls-17" points="320.6 464.29 320.6 357.4 249.22 423.08 320.6 464.29"/><polygon class="cls-21" points="249.22 423.08 320.6 464.29 320.6 396.93 294.19 381.69 249.22 423.08"/><polygon class="cls-14" points="249.22 423.08 320.6 464.29 320.6 419.95 278.83 395.83 249.22 423.08"/><polygon class="cls-16" points="320.6 357.4 391.97 423.08 320.6 464.29 320.6 357.4"/><polygon class="cls-20" points="320.6 396.93 320.6 464.29 391.97 423.08 347 381.69 320.6 396.93"/><polygon class="cls-13" points="320.6 419.95 320.6 464.29 391.97 423.08 362.37 395.83 320.6 419.95"/><polygon class="cls-24" points="249.22 423.08 320.6 464.29 320.6 442.82 263.55 409.89 249.22 423.08"/><polygon class="cls-23" points="320.6 442.82 320.6 464.29 391.97 423.08 377.64 409.89 320.6 442.82"/></g></g></svg>