<svg xmlns="http://www.w3.org/2000/svg" viewBox="0 0 481.89 298.08"><defs><style>.cls-1{isolation:isolate;}.cls-13,.cls-17,.cls-2{fill:none;stroke-miterlimit:10;}.cls-13,.cls-2{stroke:#00b6ea;}.cls-17,.cls-2{stroke-width:3px;}.cls-16,.cls-3{fill:#00b6ea;}.cls-4{fill:#3953a4;}.cls-5{fill:#d1d3d4;}.cls-15,.cls-16,.cls-5,.cls-6{mix-blend-mode:multiply;}.cls-6{fill:#bcbec0;}.cls-14,.cls-15,.cls-7{fill:#cbe9fa;}.cls-8{fill:#2391c9;}.cls-9{fill:#fff;}.cls-10{fill:#b3d8f3;}.cls-11{fill:#a1d5f3;}.cls-12{fill:#2578bd;}.cls-13{stroke-width:8px;}.cls-14,.cls-15{opacity:0.5;}.cls-16{opacity:0.3;}.cls-17{stroke:#fff;}</style></defs><title>56497 [Converted]</title><g class="cls-1"><g id="Capa_1" data-name="Capa 1"><line class="cls-2" x1="17.68" y1="174.27" x2="57.95" y2="174.27"/><path class="cls-2" d="M453.93,246.73H465"/><path class="cls-2" d="M433.94,246.73h13.79"/><path class="cls-2" d="M422.28,133.06H438"/><path class="cls-2" d="M391.1,133.06H414"/><path class="cls-2" d="M193,10.25h27.08"/><path class="cls-2" d="M171.41,10.25h13.28"/><path class="cls-2" d="M131.45,55.8h18.26"/><path class="cls-2" d="M106.41,55.8H123"/><path class="cls-2" d="M52,55.8h48.27"/><path class="cls-2" d="M387.13,60.13h7.21"/><path class="cls-2" d="M377.25,60.13h6.55"/><path class="cls-2" d="M355.75,60.13h19.06"/><path class="cls-2" d="M351.18,10.25a5.7,5.7,0,1,1-5.7-5.7A5.7,5.7,0,0,1,351.18,10.25Z"/><path class="cls-2" d="M243.48,52.08a5.7,5.7,0,1,1-5.7-5.7A5.7,5.7,0,0,1,243.48,52.08Z"/><path class="cls-2" d="M69.35,258.54a5.7,5.7,0,1,1-5.7-5.7A5.7,5.7,0,0,1,69.35,258.54Z"/><path class="cls-2" d="M459.63,178.46a5.7,5.7,0,1,1-5.7-5.7A5.7,5.7,0,0,1,459.63,178.46Z"/><path class="cls-2" d="M343.33,113.94a5.7,5.7,0,1,1-5.7-5.69A5.7,5.7,0,0,1,343.33,113.94Z"/><rect class="cls-3" x="43.8" y="74.8" width="254.89" height="167.72" rx="7.62"/><rect class="cls-4" x="53" y="84.19" width="236.5" height="148.94"/><polygon class="cls-5" points="52.99 84.19 52.99 233.13 289.5 233.13 52.99 84.19"/><rect class="cls-6" x="102.04" y="115.93" width="152.29" height="95.91"/><rect class="cls-7" x="97.43" y="104.22" width="152.29" height="101.9"/><rect class="cls-3" x="97.43" y="104.22" width="152.29" height="9.72"/><rect class="cls-3" x="151.87" y="179.75" width="43.42" height="16.3"/><rect class="cls-8" x="151.87" y="187.9" width="43.42" height="8.15"/><path class="cls-7" d="M230.71,109.08a2.83,2.83,0,1,1-2.83-2.82A2.83,2.83,0,0,1,230.71,109.08Z"/><path class="cls-7" d="M238.29,109.08a2.83,2.83,0,1,1-2.82-2.82A2.82,2.82,0,0,1,238.29,109.08Z"/><path class="cls-7" d="M245.87,109.08a2.82,2.82,0,1,1-2.82-2.82A2.82,2.82,0,0,1,245.87,109.08Z"/><rect class="cls-9" x="109.37" y="133.06" width="41.65" height="42.65"/><path class="cls-10" d="M142.25,162.17a2.3,2.3,0,0,0-1.61-1.87l-4.7-1.59-2-.74a10.91,10.91,0,0,1-3.76,1.51,10.81,10.81,0,0,1-3.75-1.51l-2,.74-4.69,1.59a2.28,2.28,0,0,0-1.61,1.87l-1.48,8.09h27.07Z"/><path class="cls-10" d="M137.35,147.41c-.1,4.86-3.37,8.73-7.32,8.66s-7.07-4.07-7-8.92,3.37-8.72,7.32-8.65S137.44,142.56,137.35,147.41Z"/><path class="cls-11" d="M237.79,139.13a1.63,1.63,0,0,1-1.62,1.62h-75.6a1.62,1.62,0,0,1-1.62-1.62h0a1.62,1.62,0,0,1,1.62-1.62h75.6a1.63,1.63,0,0,1,1.62,1.62Z"/><path class="cls-11" d="M237.79,149.3a1.62,1.62,0,0,1-1.62,1.61h-75.6A1.61,1.61,0,0,1,159,149.3h0a1.61,1.61,0,0,1,1.62-1.62h75.6a1.62,1.62,0,0,1,1.62,1.62Z"/><path class="cls-11" d="M237.79,159.46a1.62,1.62,0,0,1-1.62,1.62h-75.6a1.61,1.61,0,0,1-1.62-1.62h0a1.62,1.62,0,0,1,1.62-1.62h75.6a1.63,1.63,0,0,1,1.62,1.62Z"/><path class="cls-11" d="M237.79,169.63a1.62,1.62,0,0,1-1.62,1.61h-75.6a1.61,1.61,0,0,1-1.62-1.61h0a1.62,1.62,0,0,1,1.62-1.62h75.6a1.63,1.63,0,0,1,1.62,1.62Z"/><rect class="cls-12" x="150.12" y="242.52" width="42.25" height="26.12"/><rect class="cls-3" x="139.11" y="268.64" width="64.28" height="10.01"/><path class="cls-13" d="M320.44,164.34V146.6a4.38,4.38,0,0,0-4.39-4.39H280.43A4.39,4.39,0,0,0,276,146.6v17.74Z"/><rect class="cls-4" x="221.55" y="165.02" width="153.38" height="113.63" rx="6.88"/><path class="cls-5" d="M239.58,270.18a6.88,6.88,0,0,1-6.88-6.88V242.55a6.88,6.88,0,0,1,6.88-6.88H374.93V171.9a6.88,6.88,0,0,0-6.88-6.88H228.44a6.88,6.88,0,0,0-6.89,6.88v99.87a6.88,6.88,0,0,0,6.89,6.88H368.05a6.88,6.88,0,0,0,6.88-6.88v-1.59Z"/><path class="cls-4" d="M225.44,158.66H371a7.18,7.18,0,0,1,7.18,7.18v57.44a7.17,7.17,0,0,1-7.17,7.17H225.44a7.17,7.17,0,0,1-7.17-7.17V165.84A7.17,7.17,0,0,1,225.44,158.66Z"/><path class="cls-5" d="M376,217.26c-5.08,6.25-11.48,6.15-19.14,6.12-29.54-.08-27.85-.18-53.17-.08-15,0-24.36,0-38.46-5.93s-19.47-19.51-19.3-34.23A55.66,55.66,0,0,1,251,159.5c.14-.29.29-.56.43-.84h-26a7.18,7.18,0,0,0-7.18,7.18v57.44a7.17,7.17,0,0,0,7.18,7.17H371a7.17,7.17,0,0,0,7.17-7.17v-9.21A33.81,33.81,0,0,1,376,217.26Z"/><rect class="cls-3" x="288.34" y="227.91" width="19.81" height="16.7"/><rect class="cls-12" x="403.15" y="226.89" width="7.47" height="11.1"/><path class="cls-14" d="M430.87,197.62a24,24,0,1,1-24-24A24,24,0,0,1,430.87,197.62Z"/><path class="cls-15" d="M392,178.83a24,24,0,1,0,29.85,37.52C411.72,204,402,191.3,392,178.83Z"/><path class="cls-3" d="M406.89,166.42a31.2,31.2,0,1,0,31.2,31.2A31.2,31.2,0,0,0,406.89,166.42Zm0,55.17a24,24,0,1,1,24-24A24,24,0,0,1,406.89,221.59Z"/><path class="cls-16" d="M406.89,166.42a31.2,31.2,0,1,0,31.2,31.2A31.2,31.2,0,0,0,406.89,166.42Zm0,59a27.8,27.8,0,1,1,27.8-27.79A27.8,27.8,0,0,1,406.89,225.41Z"/><rect class="cls-4" x="399.09" y="236.62" width="15.6" height="42.03"/><polygon class="cls-6" points="404.85 274.48 404.85 236.62 399.09 236.62 399.09 278.65 414.69 278.65 414.69 274.48 404.85 274.48"/><path class="cls-17" d="M425.6,201.24a19.77,19.77,0,0,1-1,4.14"/><path class="cls-17" d="M405.77,178.46a20,20,0,0,1,20,20"/><line class="cls-2" x1="25.94" y1="278.65" x2="455.94" y2="278.65"/><line class="cls-2" x1="9.81" y1="289.18" x2="241.29" y2="289.18"/><line class="cls-2" x1="259.42" y1="289.18" x2="335.03" y2="289.18"/><line class="cls-2" x1="396.47" y1="289.18" x2="472.08" y2="289.18"/></g></g></svg>