<svg id="Layer_1" data-name="Layer 1" xmlns="http://www.w3.org/2000/svg" viewBox="0 0 544 538"><defs><style>.cls-1{fill:#fff;}.cls-2{fill:blue;}</style></defs><title>bars-solidW</title><ellipse class="cls-1" cx="272" cy="269" rx="272" ry="269"/><path class="cls-2" d="M149,183.55H429c5.95,0,10.77-5.74,10.77-12.83V138.64c0-7.08-4.82-12.83-10.77-12.83H149c-5.95,0-10.77,5.75-10.77,12.83v32.08C138.26,177.81,143.08,183.55,149,183.55Zm0,128.32H429c5.95,0,10.77-5.74,10.77-12.83V267c0-7.09-4.82-12.83-10.77-12.83H149c-5.95,0-10.77,5.74-10.77,12.83V299C138.26,306.13,143.08,311.87,149,311.87Zm0,128.32H429c5.95,0,10.77-5.75,10.77-12.83V395.28c0-7.09-4.82-12.83-10.77-12.83H149c-5.95,0-10.77,5.74-10.77,12.83v32.08C138.26,434.44,143.08,440.19,149,440.19Z" transform="translate(-17 -14)"/></svg>