<svg aria-hidden="true" focusable="false" data-prefix="fas" style="color:blue" data-icon="bell" role="img" xmlns="http://www.w3.org/2000/svg" viewBox="0 0 448 512" id="el_Jw5zeBLBT"><style>@-webkit-keyframes kf_el_H1sJuB3VeS_an_LoSlkKsJ1{
0%{opacity: 1;}
44.44%{opacity: 0;}
88.89%{opacity: 1;}
100%{opacity: 1;}}
@keyframes kf_el_H1sJuB3VeS_an_LoSlkKsJ1{
0%{opacity: 1;}
44.44%{opacity: 0;}
88.89%{opacity: 1;}
100%{opacity: 1;}}
#el_Jw5zeBLBT *{-webkit-animation-duration: 1.5s;animation-duration: 1.5s;-webkit-animation-iteration-count: infinite;animation-iteration-count: infinite;-webkit-animation-timing-function: cubic-bezier(0, 0, 1, 1);animation-timing-function: cubic-bezier(0, 0, 1, 1);}
#el_H1sJuB3VeS{fill: currentColor;-webkit-animation-fill-mode: backwards;animation-fill-mode: backwards;opacity: 1;-webkit-animation-name: kf_el_H1sJuB3VeS_an_LoSlkKsJ1;animation-name: kf_el_H1sJuB3VeS_an_LoSlkKsJ1;-webkit-animation-timing-function: cubic-bezier(0, 0, 1, 1);animation-timing-function: cubic-bezier(0, 0, 1, 1);}</style><path d="M224 512c35.32 0 63.97-28.65 63.97-64H160.03c0 35.35 28.65 64 63.97 64zm215.39-149.71c-19.32-20.76-55.47-51.99-55.47-154.29 0-77.7-54.48-139.9-127.94-155.16V32c0-17.67-14.32-32-31.98-32s-31.98 14.33-31.98 32v20.84C118.56 68.1 64.08 130.3 64.08 208c0 102.3-36.15 133.53-55.47 154.29-6 6.45-8.66 14.16-8.61 21.71.11 16.4 12.98 32 32.1 32h383.8c19.12 0 32-15.6 32.1-32 .05-7.55-2.61-15.27-8.61-21.71z" id="el_H1sJuB3VeS"/></svg>